<?xml version="1.0" encoding="utf-8"?>
<!-- Generator: Adobe Illustrator 19.2.1, SVG Export Plug-In . SVG Version: 6.00 Build 0)  -->
<svg version="1.1" id="Layer_1" xmlns="http://www.w3.org/2000/svg" xmlns:xlink="http://www.w3.org/1999/xlink" x="0px" y="0px"
	 viewBox="0 0 81 63.5" style="enable-background:new 0 0 81 63.5;" xml:space="preserve">
<style type="text/css">
	.st0{fill:#59C8EA;}
	.st1{fill:#2FB9E4;}
	.st2{fill:#1F8DB0;}
	.st3{fill:#2FB9E4;}
	.st4{fill:#FFFFFF;}
	.st5{fill:#1F8DB0;}
	.st6{enable-background:new    ;}
	.st7{fill:#F2F2F2;}
</style>
<g>
	<polygon class="st0" points="77.1,63.5 4,63.5 4,16.5 40.6,2.7 77.1,16.5 	"/>
	<g>
		<rect x="4" y="43" class="st1" width="73.1" height="0.7"/>
		<rect x="4" y="37.5" class="st1" width="73.1" height="0.7"/>
		<rect x="4" y="48.5" class="st1" width="73.1" height="0.7"/>
		<rect x="4" y="54" class="st1" width="73.1" height="0.7"/>
		<rect x="4" y="58.5" class="st1" width="73.1" height="0.7"/>
		<rect x="4" y="32.1" class="st1" width="73.1" height="0.7"/>
		<polygon class="st1" points="6.3,15.6 4.6,16.3 76.5,16.3 74.7,15.6 		"/>
		<polygon class="st1" points="20.8,10.1 19.1,10.8 62,10.8 60.3,10.1 		"/>
		<rect x="4" y="21.1" class="st1" width="73.1" height="0.7"/>
		<rect x="4" y="26.6" class="st1" width="73.1" height="0.7"/>
		<polygon class="st1" points="35.3,4.7 33.6,5.3 47.6,5.3 45.9,4.7 		"/>
	</g>
	<polygon class="st2" points="0,18 40.5,2.7 81,18 81,15.3 40.5,0 0,15.3 	"/>
	<g>
		<rect x="13.3" y="32.9" class="st3" width="14.2" height="30.3"/>
		<path class="st4" d="M12.8,32.7v0.9l0,0v29l0,0v0.9l0,0l0,0h0.9l0,0H27l0,0h1l0,0v-0.9v-29v-0.8v-0.2L12.8,32.7L12.8,32.7z
			 M20,48.1l-6.2,13.1V35.1L20,48.1z M14,33.7h12.8l-6.4,13.5L14,33.7z M20.4,49.1l6.4,13.5H14L20.4,49.1z M20.9,48.1L27.1,35v26.2
			L20.9,48.1z"/>
		<rect x="28.5" y="32.9" class="st3" width="14.2" height="30.3"/>
		<path class="st4" d="M28,32.7v0.9l0,0v29l0,0v0.9l0,0l0,0h1l0,0h13.3l0,0h0.9l0,0v-0.9v-29v-0.8v-0.2L28,32.7L28,32.7z M35.1,48.1
			L29,61.2V35.1L35.1,48.1z M29.2,33.7H42l-6.4,13.5L29.2,33.7z M35.6,49.1L42,62.6H29.2L35.6,49.1z M36.1,48.1L42.3,35v26.2
			L36.1,48.1z"/>
	</g>
	<rect x="53.8" y="32.7" class="st4" width="14.6" height="13.4"/>
	<g>
		<rect x="54.9" y="33.8" class="st5" width="5.5" height="5.1"/>
		<rect x="54.9" y="39.9" class="st5" width="5.5" height="5.1"/>
		<rect x="61.7" y="33.8" class="st5" width="5.5" height="5.1"/>
		<rect x="61.7" y="39.9" class="st5" width="5.5" height="5.1"/>
	</g>
</g>
<g class="st6">
	<path class="st7" d="M34,15.7c0.5,0,1,0.1,1.4,0.2s0.7,0.4,1,0.8c0.3,0.4,0.5,0.9,0.6,1.5s0.2,1.5,0.2,2.4c0,1.2-0.1,2.2-0.2,2.9
		c-0.1,0.8-0.3,1.4-0.6,1.9c-0.3,0.5-0.6,0.8-1,1c-0.4,0.2-0.8,0.3-1.3,0.3h-2V16c0-0.1,0-0.2,0.1-0.2c0.1-0.1,0.2-0.1,0.4-0.1H34z
		 M35.6,20.6c0-0.7,0-1.3-0.1-1.8c-0.1-0.5-0.2-0.9-0.3-1.1s-0.3-0.5-0.5-0.6s-0.4-0.2-0.7-0.2h-0.7v8.8H34c0.2,0,0.4-0.1,0.6-0.2
		c0.2-0.1,0.4-0.3,0.5-0.7s0.3-0.9,0.4-1.5C35.6,22.6,35.6,21.7,35.6,20.6z"/>
	<path class="st7" d="M42.3,25.7c0,0.3,0,0.5,0,0.6c0,0.2,0,0.3,0,0.3c0,0.1,0,0.1-0.1,0.1s-0.1,0-0.1,0h-3.8V16c0,0,0-0.1,0-0.1
		c0,0,0.1-0.1,0.1-0.1c0,0,0.1,0,0.2,0h3.8c0,0.3,0,0.5,0,0.6c0,0.2,0,0.3,0,0.4c0,0.1,0,0.1-0.1,0.2c0,0-0.1,0-0.1,0h-2.5v3.3H42
		c0,0.2,0,0.4,0,0.6s0,0.3,0,0.4s0,0.1-0.1,0.2c0,0-0.1,0-0.1,0h-2.2v4.3H42.3z"/>
	<path class="st7" d="M43.4,16c0,0,0-0.1,0-0.1c0,0,0-0.1,0.1-0.1c0,0,0.1,0,0.2,0h1.6c1,0,1.8,0.2,2.2,0.7s0.7,1.3,0.7,2.4
		c0,0.9-0.1,1.5-0.4,2s-0.6,0.9-1,1.1c0.1,0.2,0.3,0.4,0.4,0.6c0.2,0.3,0.3,0.6,0.5,1s0.3,0.8,0.4,1.3c0.1,0.5,0.2,1.1,0.2,1.7
		c0,0.1,0,0.2-0.1,0.2c-0.1,0-0.2,0.1-0.6,0.1c-0.1,0-0.2,0-0.4,0c-0.1,0-0.3,0-0.4,0c0-0.7-0.1-1.3-0.2-1.8c-0.1-0.5-0.2-1-0.4-1.3
		s-0.3-0.7-0.4-0.9c-0.1-0.2-0.2-0.4-0.3-0.6c-0.1,0-0.1,0-0.2,0s-0.1,0-0.2,0h-0.6v4.3c0,0.1,0,0.1,0,0.2c0,0-0.1,0.1-0.1,0.1
		c-0.1,0-0.2,0-0.4,0c-0.2,0-0.4,0-0.7,0V16z M46.7,18.8c0-0.6-0.1-1.1-0.3-1.4c-0.2-0.4-0.5-0.5-1-0.5h-0.8v4.3h0.7
		c0.4,0,0.8-0.2,1-0.5S46.7,19.7,46.7,18.8z"/>
</g>
</svg>
