<?xml version="1.0" encoding="utf-8"?>
<!-- Generator: Adobe Illustrator 19.2.1, SVG Export Plug-In . SVG Version: 6.00 Build 0)  -->
<svg version="1.1" id="Layer_1" xmlns="http://www.w3.org/2000/svg" xmlns:xlink="http://www.w3.org/1999/xlink" x="0px" y="0px"
	 viewBox="0 0 81 63.6" style="enable-background:new 0 0 81 63.6;" xml:space="preserve">
<style type="text/css">
	.st0{fill:#ECE25F;}
	.st1{fill:#E5DA3B;}
	.st2{fill:#B2A929;}
	.st3{fill:#FFFFFF;}
	.st4{fill:#F2F2F2;}
</style>
<g>
	<polygon class="st0" points="77.1,63.5 4,63.5 4,16.5 40.6,2.7 77.1,16.5 	"/>
	<g>
		<rect x="4" y="43" class="st1" width="73.1" height="0.7"/>
		<rect x="4" y="37.5" class="st1" width="73.1" height="0.7"/>
		<rect x="4" y="48.5" class="st1" width="73.1" height="0.7"/>
		<rect x="4" y="54" class="st1" width="73.1" height="0.7"/>
		<rect x="4" y="58.5" class="st1" width="73.1" height="0.7"/>
		<rect x="4" y="32.1" class="st1" width="73.1" height="0.7"/>
		<polygon class="st1" points="6.3,15.6 4.6,16.3 76.5,16.3 74.7,15.6 		"/>
		<polygon class="st1" points="20.8,10.1 19.1,10.8 62,10.8 60.3,10.1 		"/>
		<rect x="4" y="21.1" class="st1" width="73.1" height="0.7"/>
		<rect x="4" y="26.6" class="st1" width="73.1" height="0.7"/>
		<polygon class="st1" points="35.3,4.7 33.6,5.3 47.6,5.3 45.9,4.7 		"/>
	</g>
	<polygon class="st2" points="0,18 40.5,2.7 81,18 81,15.3 40.5,0 0,15.3 	"/>
	<g>
		<rect x="13.3" y="32.9" class="st1" width="14.2" height="30.3"/>
		<path class="st3" d="M12.8,32.7v0.9h0v29h0v0.9h0v0h0.9v0h13.3v0H28v0v-0.9v-29v-0.8v-0.2H12.8z M20,48.1l-6.2,13.1V35.1L20,48.1z
			 M14,33.7h12.8l-6.4,13.5L14,33.7z M20.4,49.1l6.4,13.5H14L20.4,49.1z M20.9,48.1l6.2-13.1v26.2L20.9,48.1z"/>
		<rect x="28.5" y="32.9" class="st1" width="14.2" height="30.3"/>
		<path class="st3" d="M28,32.7v0.9h0v29h0v0.9h0v0H29v0h13.3v0h0.9v0v-0.9v-29v-0.8v-0.2H28z M35.1,48.1L29,61.2V35.1L35.1,48.1z
			 M29.2,33.7H42l-6.4,13.5L29.2,33.7z M35.6,49.1L42,62.6H29.2L35.6,49.1z M36.1,48.1l6.2-13.1v26.2L36.1,48.1z"/>
	</g>
	<rect x="53.8" y="32.7" class="st3" width="14.6" height="13.4"/>
	<g>
		<rect x="54.9" y="33.8" class="st2" width="5.5" height="5.1"/>
		<rect x="54.9" y="39.9" class="st2" width="5.5" height="5.1"/>
		<rect x="61.7" y="33.8" class="st2" width="5.5" height="5.1"/>
		<rect x="61.7" y="39.9" class="st2" width="5.5" height="5.1"/>
	</g>
</g>
<g>
	<path class="st4" d="M34,15.4c0.5,0,1,0.1,1.4,0.2s0.7,0.4,1,0.8c0.3,0.4,0.5,0.9,0.6,1.5c0.1,0.6,0.2,1.5,0.2,2.4
		c0,1.2-0.1,2.2-0.2,2.9c-0.1,0.8-0.3,1.4-0.6,1.9s-0.6,0.8-1,1c-0.4,0.2-0.8,0.3-1.3,0.3h-2V15.7c0-0.1,0-0.2,0.1-0.2
		c0.1-0.1,0.2-0.1,0.4-0.1H34z M35.6,20.3c0-0.7,0-1.3-0.1-1.8c-0.1-0.5-0.2-0.9-0.3-1.1c-0.1-0.3-0.3-0.5-0.5-0.6s-0.4-0.2-0.7-0.2
		h-0.7v8.8H34c0.2,0,0.4-0.1,0.6-0.2c0.2-0.1,0.4-0.3,0.5-0.7s0.3-0.9,0.4-1.5C35.6,22.3,35.6,21.4,35.6,20.3z"/>
	<path class="st4" d="M38.3,16c0-0.1,0-0.3,0-0.3s0.1-0.1,0.1-0.2c0.1,0,0.2-0.1,0.4-0.1c0.2,0,0.4,0,0.8,0v10.9c0,0.1,0,0.1,0,0.2
		c0,0-0.1,0.1-0.1,0.1s-0.2,0-0.4,0c-0.2,0-0.4,0-0.8,0V16z"/>
	<path class="st4" d="M45,25.4c0,0.3,0,0.5,0,0.6c0,0.2,0,0.3,0,0.3s0,0.1-0.1,0.1c0,0-0.1,0-0.1,0H41V15.6c0,0,0-0.1,0-0.1
		c0,0,0.1-0.1,0.1-0.1c0,0,0.1,0,0.2,0h3.8c0,0.3,0,0.5,0,0.6c0,0.2,0,0.3,0,0.4c0,0.1,0,0.1-0.1,0.2c0,0-0.1,0-0.1,0h-2.5v3.3h2.4
		c0,0.2,0,0.4,0,0.6s0,0.3,0,0.4s0,0.1-0.1,0.2c0,0-0.1,0-0.1,0h-2.2v4.3H45z"/>
</g>
</svg>
