<?xml version="1.0" encoding="utf-8"?>
<!-- Generator: Adobe Illustrator 19.2.1, SVG Export Plug-In . SVG Version: 6.00 Build 0)  -->
<svg version="1.1" id="Layer_1" xmlns="http://www.w3.org/2000/svg" xmlns:xlink="http://www.w3.org/1999/xlink" x="0px" y="0px"
	 viewBox="0 0 105.5 99.7" style="enable-background:new 0 0 105.5 99.7;" xml:space="preserve">
<style type="text/css">
	.st0{fill:#542218;}
	.st1{fill:#6D3726;}
	.st2{fill:#914936;}
	.st3{fill:#9B613A;}
	.st4{fill:#FFFFFF;}
	.st5{fill:#EAC39B;}
	.st6{fill:#B78558;}
	.st7{fill:#6A9E33;}
	.st8{fill:#EA888A;}
	.st9{fill:#42291C;}
</style>
<g>
	<path class="st0" d="M105.5,61.5c0-0.4-1.6-0.6-2.6-0.7c0.8-0.1,2.1-0.2,2-0.7c-0.1-0.3-1-0.3-1.2-0.3c-0.5,0-1.1,0-1.6-0.1
		c-0.9-0.1-2-0.1-2.9-0.4c0,0-0.1,0-0.1,0c-0.3-0.3-0.5-0.5-0.5-0.6c-0.9-1.1-1.8-2.3-2.6-3.5c-1.6-2.4-2.7-5.1-3.7-7.8
		c-1-2.8-1.8-5.8-3.1-8.5c-0.6-1.3-1.3-2.6-2.2-3.7c-0.4-0.6-1.8-2.7-2.8-1.9c-0.5,0.4,0.1,1,0.3,1.3c0.2,0.2,0.1,0.1,0.1,0.1
		c3.8,4.1,4.8,9.8,6.8,14.9c1,2.6,2.4,5.1,4.1,7.3c0.8,1,1.8,2,2.8,2.8c0,0,0.2,0.2,0.4,0.3c0.5,1.1,1.1,2.5,1.9,3.3
		c0.6,0.5,1.2,1,1.9,1.4c0.2,0.1,1.3,0.7,1.4,0.3c0.1-0.3-0.9-1-1.2-1.1c-0.5-0.4-1-0.8-1.5-1.3c-0.2-0.2-0.4-0.4-0.5-0.5
		c0.3,0.2,0.5,0.3,0.8,0.5c0.7,0.3,1.4,0.7,2.1,0.8c0.2,0.1,1.3,0.3,1.4,0c0.1-0.4-1.1-0.7-1.3-0.8c-0.5-0.2-0.9-0.5-1.4-0.7
		C103.6,61.9,105.4,62,105.5,61.5z"/>
	<path class="st0" d="M69.6,62.7c1.4-0.2,5.1,0.3,6.6,0.1C75.1,73.9,71,94.3,70,99.3c-0.1,0.4-0.6,0.5-0.9,0.2l-1.3-1.9l-2.3,2
		c-0.3,0.3-0.9,0-0.8-0.4C65.3,93.9,67.8,73.5,69.6,62.7z"/>
	<path class="st0" d="M34.9,62.7c-1.4-0.2-5.1,0.3-6.6,0.1c1.2,11.1,5.2,31.5,6.2,36.5c0.1,0.4,0.6,0.5,0.9,0.2l1.3-1.9l2.3,2
		c0.3,0.3,0.9,0,0.8-0.4C39.2,93.9,36.6,73.5,34.9,62.7z"/>
	<path class="st1" d="M52.4,64.3c-1.5-0.2-5.5,0.2-7,0c-1.4,10.6-2.1,30.2-2.3,35c0,0.4,0.5,0.5,0.9,0.2l1.9-1.8l1.9,1.9
		c0.3,0.3,0.9,0,1-0.4C49.4,94.2,51.7,74.6,52.4,64.3z"/>
	<path class="st2" d="M0.1,17.2c0.5,1.5,1.7,2.8,3.2,3.4c1.5,0.7,3.2,0.8,4.8,0.5s3.1-0.8,4.6-1.4c0.4-0.2,0.9-0.4,1.2-0.7
		c0.4-0.5,0.5-1.3,0.4-2c-1.6-1.1-3.5-1.9-5.3-1.7c-1.3,0.2-2.5,0.8-3.8,1.3c-1.3,0.5-2.7,0.7-3.9,0.1c-0.2-0.1-0.4-0.2-0.6-0.3
		c-0.2-0.1-0.5,0-0.6,0.1C-0.1,16.6,0,16.9,0.1,17.2z"/>
	<path class="st1" d="M83.7,30.5c-6.3-6.9-19.3-9.2-51-18.4c-8.7-2.5-15-2.3-20.7,4.6s-14.6,29.8,0.4,32.7c15,2.8,12-19.8,13.5-17.8
		c1.5,2-2.2,27.5,5.6,38s44.7,11.1,53.2,2.5C93.2,63.7,90.1,37.4,83.7,30.5z"/>
	<g>
		<path class="st3" d="M8.3,25.4c0.8-0.1,1.5-0.7,1.7-1.4c0.2-0.7,0-1.6-0.6-2.1c-0.6-0.4-1.5-0.4-2.1,0.1c-0.5,0.4-0.7,1.1-0.7,1.8
			c0,0.4,0.1,0.9,0.4,1.2C7.2,25.4,7.8,25.5,8.3,25.4z"/>
		<path class="st4" d="M23.4,28c0.6-0.1,1.2-0.6,1.4-1.2c0.2-0.6,0-1.4-0.5-1.7c-0.5-0.4-1.3-0.3-1.7,0.1c-0.4,0.4-0.6,0.9-0.6,1.5
			c0,0.4,0.1,0.7,0.3,1C22.5,28,23,28.1,23.4,28z"/>
		<path d="M22.9,26.2c-0.2,0.3-0.3,0.6-0.1,0.9c0.1,0.1,0.2,0.2,0.4,0.3c0.3,0.1,0.7,0,0.9-0.2c0.2-0.2,0.3-0.6,0.1-0.9
			c-0.2-0.3-0.6-0.4-0.9-0.3C23.2,25.9,23.1,26.1,22.9,26.2z"/>
		<path class="st4" d="M8.3,25.2c0.6-0.1,1.2-0.6,1.4-1.2c0.2-0.6,0-1.4-0.5-1.7c-0.5-0.4-1.3-0.3-1.7,0.1c-0.4,0.4-0.6,0.9-0.6,1.5
			c0,0.4,0.1,0.7,0.3,1C7.4,25.1,7.8,25.2,8.3,25.2z"/>
		<path d="M7.9,23.3c-0.1,0.2-0.2,0.5-0.1,0.7c0.1,0.1,0.2,0.2,0.3,0.2c0.3,0.1,0.6,0,0.8-0.2c0.2-0.2,0.2-0.5,0.1-0.8
			C8.8,23,8.5,22.9,8.2,23C8.1,23,7.9,23.1,7.9,23.3z"/>
	</g>
	<path class="st1" d="M82,62.7c1.4-0.2,5.1,0.3,6.6,0.1c-1.2,11.1-5.2,31.5-6.2,36.5c-0.1,0.4-0.6,0.5-0.9,0.2l-1.3-1.9l-2.3,2
		c-0.3,0.3-0.9,0-0.8-0.4C77.7,93.9,80.2,73.5,82,62.7z"/>
	<path d="M64.7,99.1c-0.1,0.4,0.5,0.7,0.8,0.4l2.3-2l1.3,1.9c0.2,0.4,0.8,0.2,0.9-0.2c0.2-1,0.5-2.5,0.9-4.4
		c-1.9-0.1-3.8-0.2-5.6-0.2C65,96.6,64.8,98.1,64.7,99.1z"/>
	<path d="M34.5,99.3c0.1,0.4,0.6,0.5,0.9,0.2l1.3-1.9l2.3,2c0.3,0.3,0.9,0,0.8-0.4c-0.1-0.9-0.3-2.2-0.5-3.9
		c-1.9,0.1-3.7,0.2-5.6,0.3C34.1,97.2,34.3,98.5,34.5,99.3z"/>
	<path d="M43.2,99.3c0,0.4,0.5,0.5,0.9,0.2l1.9-1.8l1.9,1.9c0.3,0.3,0.9,0,1-0.4c0.1-1,0.3-2.5,0.5-4.4c-2,0.1-4,0.1-6,0.2
		C43.2,96.9,43.2,98.4,43.2,99.3z"/>
	<path d="M77.5,95.4c-0.2,1.6-0.3,2.8-0.5,3.7c-0.1,0.4,0.5,0.7,0.8,0.4l2.3-2l1.3,1.9c0.2,0.4,0.8,0.2,0.9-0.2
		c0.2-0.9,0.4-2.2,0.8-3.8C81.3,95.6,79.4,95.5,77.5,95.4z"/>
	<g>
		<path class="st5" d="M15.1,34.3c0,0.5,0,0.9,0.2,1.4c0.3,0.7,1.2,1.1,1.9,1.1c0.8-0.1,1.5-0.6,1.8-1.3c0.3-0.7,0.3-1.6-0.1-2.3
			c-0.4-0.5-1.1-0.7-1.8-0.7c-0.6,0-1.2,0.1-1.6,0.5C15.2,33.4,15.2,33.8,15.1,34.3z"/>
		<path class="st6" d="M16.4,33.6c-0.2,0.2-0.4,0.4-0.4,0.7c-0.1,0.4,0.1,1,0.4,1.2c0.4,0.3,0.9,0.3,1.3,0.1
			c0.4-0.2,0.7-0.6,0.8-1.1c0-0.4-0.3-0.7-0.5-1c-0.3-0.2-0.6-0.4-0.9-0.4C16.8,33.3,16.6,33.5,16.4,33.6z"/>
		<path class="st5" d="M5.3,32.6c0,0.5,0,0.9,0.2,1.4C5.9,34.6,6.7,35,7.5,35c0.8-0.1,1.5-0.6,1.8-1.3c0.3-0.7,0.3-1.6-0.1-2.3
			c-0.4-0.5-1.1-0.7-1.8-0.7c-0.6,0-1.2,0.1-1.6,0.5C5.4,31.6,5.4,32.1,5.3,32.6z"/>
		<path class="st6" d="M6.6,31.9c-0.2,0.2-0.4,0.4-0.4,0.7c-0.1,0.4,0.1,1,0.4,1.2C7,34.1,7.5,34.2,7.9,34c0.4-0.2,0.7-0.6,0.8-1.1
			c0-0.4-0.3-0.7-0.5-1c-0.3-0.2-0.6-0.4-0.9-0.4C7,31.5,6.8,31.7,6.6,31.9z"/>
	</g>
	<path class="st5" d="M14.7,16.2C5.3,11.9,7,4,7.3,0.4c0-0.4,0.6-0.5,0.7-0.1c1.8,4.8,2.8,9.6,9.3,12C15.3,15.3,16.7,13.1,14.7,16.2
		z"/>
	<g>
		<path class="st7" d="M14,14c1.1-0.4,2.2-0.9,3.2-1.5c-0.3,0.5-0.5,0.8-0.7,1.1c-1.1,0.7-2.3,1.2-3.6,1.6c0,0-0.1,0-0.1,0
			c-0.3-0.2-0.6-0.4-0.8-0.6C12.6,14.5,13.3,14.2,14,14z"/>
		<path class="st7" d="M9.8,4.8C8.9,4.8,7.9,4.7,7,4.6c0-0.3,0-0.7,0-1c0.8,0.1,1.6,0.2,2.4,0.2C9.5,4.2,9.7,4.5,9.8,4.8z"/>
		<path class="st7" d="M8.8,2.3C8.3,2.7,7.7,3.1,7,3.3c0-0.4,0.1-0.8,0.1-1.1C7.6,1.9,8,1.7,8.5,1.4C8.6,1.7,8.7,2,8.8,2.3z"/>
		<path class="st7" d="M12.2,11.4c-0.6,0.7-1.2,1.3-1.9,1.9c-0.2-0.2-0.5-0.5-0.7-0.7c0.5-0.4,0.9-0.9,1.3-1.3
			c0.5-0.6,1.2-1.3,1.6-2c0.2,0.2,0.5,0.4,0.7,0.7C13,10.4,12.6,10.9,12.2,11.4z"/>
		<path class="st7" d="M8.9,6.6c0.5-0.1,1-0.3,1.5-0.5c0.2,0.3,0.3,0.6,0.5,0.9c-1,0.4-2.1,0.8-3.1,0.9c1.2,0.2,2.6,0.3,3.8,0.2
			c0.2,0.3,0.5,0.6,0.8,0.9c-0.7,0.1-2.1,0.2-2.2,0.2c-0.7,0-1.3-0.1-2-0.2C8,9,7.8,9,7.6,9c-0.2-0.7-0.4-1.4-0.5-2
			C7.7,6.9,8.3,6.8,8.9,6.6z"/>
	</g>
	<path class="st5" d="M4.7,32.6c-1.6,7.7-0.6,15.3,7.7,16.8c8.4,1.6,11.2-4.9,12.2-10.5C19.2,34.5,11.9,32.2,4.7,32.6z"/>
	<path class="st6" d="M21.6,39.2c-0.3,0-0.3,1.4-0.4,1.6c-0.1,0.6-0.2,1.1-0.4,1.6c-0.4,1.2-0.9,2.4-1.7,3.4
		c-1.4,1.9-3.5,3.3-5.9,3.7c1.1,0.1,2.1,0.1,3,0c1.5-0.8,2.8-1.9,3.8-3.3c0.8-1.2,1.4-2.5,1.7-3.9C21.8,42.1,22.1,39.2,21.6,39.2z"
		/>
	<g>
		<path class="st0" d="M43.6,17.9c-0.1-0.1,0.1-0.5,0.2-0.5c0.6,0.2,2.5,0.8,2.3,1.1C46,18.8,44.2,18.1,43.6,17.9z"/>
		<path class="st0" d="M45.5,21.6c-0.2-0.1,0.1-0.5,0.2-0.4c0.8,0.4,3.1,1.3,3,1.6C48.5,23.1,46.3,22,45.5,21.6z"/>
		<path class="st0" d="M49.2,19.2c-0.1-0.1,0.1-0.5,0.2-0.4c0.5,0.2,2,0.8,1.9,1.1C51.1,20.2,49.7,19.5,49.2,19.2z"/>
		<path class="st0" d="M51.8,22.4c-0.2-0.1,0.1-0.5,0.2-0.4c0.7,0.3,2.7,1.2,2.6,1.4C54.5,23.7,52.5,22.8,51.8,22.4z"/>
		<path class="st0" d="M55.3,20.4c-0.1,0,0-0.5,0.1-0.5c0.6,0.1,2.4,0.4,2.3,0.7C57.7,21,55.9,20.6,55.3,20.4z"/>
		<path class="st0" d="M57.7,23.1c-0.1-0.1,0.1-0.5,0.2-0.4c0.4,0.2,1.6,0.7,1.4,1C59.2,23.9,58.1,23.3,57.7,23.1z"/>
		<path class="st0" d="M61.6,21.8c-0.2-0.1,0.1-0.5,0.2-0.4c0.7,0.3,2.6,1,2.5,1.3C64.1,22.9,62.3,22.1,61.6,21.8z"/>
		<path class="st0" d="M62,24.7c-0.1-0.1,0.1-0.5,0.2-0.5c0.5,0.2,2.1,0.7,2,1C64,25.6,62.5,25,62,24.7z"/>
		<path class="st0" d="M56.4,25.8c-0.1-0.1,0.1-0.5,0.2-0.5c0.6,0.2,2.4,0.8,2.3,1.1C58.7,26.8,57,26.1,56.4,25.8z"/>
		<path class="st0" d="M66.1,24.5c-0.1-0.1,0.1-0.5,0.2-0.5c0.5,0.2,2,0.6,1.9,0.9C68.1,25.3,66.7,24.8,66.1,24.5z"/>
		<path class="st0" d="M70.4,24.6c-0.2-0.1,0-0.5,0.1-0.5c0.9,0.3,3.3,0.9,3.2,1.2C73.7,25.6,71.3,24.9,70.4,24.6z"/>
		<path class="st0" d="M49.9,24.7c-0.1-0.1,0.2-0.5,0.3-0.4c0.6,0.4,2.2,1.5,2,1.7C52,26.3,50.5,25.1,49.9,24.7z"/>
		<path class="st0" d="M44.4,24c-0.1-0.1,0.2-0.5,0.3-0.4c0.6,0.5,2.4,1.7,2.2,2C46.6,25.9,45,24.6,44.4,24z"/>
		<path class="st0" d="M54.2,28.2c-0.1-0.1,0.1-0.5,0.2-0.5c0.6,0.2,2.2,0.7,2.1,1C56.3,29.1,54.7,28.4,54.2,28.2z"/>
		<path class="st0" d="M49.3,28.3c-0.2-0.2,0.2-0.5,0.3-0.4c0.2,0.2,0.5,0.4,0.9,0.6c0.1,0.1,0.2,0.1,0.3,0.2
			c0.1,0.1,0.2,0.1,0.3,0.2c0.2,0.1,0.4,0.2,0.6,0.3c0.2,0.1,0.4,0.2,0.6,0.3c0.2,0.1,0.3,0.1,0.5,0.2c0.3,0.1,0.4,0.2,0.4,0.3
			c0,0.1-0.2,0.1-0.5,0.1c-0.2,0-0.3-0.1-0.5-0.1c-0.2-0.1-0.4-0.1-0.6-0.2c-0.2-0.1-0.4-0.2-0.6-0.3c-0.1-0.1-0.2-0.1-0.3-0.2
			c-0.1-0.1-0.2-0.1-0.3-0.2C49.8,28.8,49.5,28.5,49.3,28.3z"/>
		<path class="st0" d="M62.5,27.5c-0.1-0.1,0.1-0.5,0.2-0.4c0.6,0.2,2.2,0.8,2,1.1C64.6,28.5,63,27.8,62.5,27.5z"/>
		<path class="st0" d="M67.7,27.4c-0.1,0,0.1-0.5,0.2-0.5c0.4,0.1,1.6,0.4,1.5,0.7C69.2,28,68.1,27.6,67.7,27.4z"/>
		<path class="st0" d="M60,29.6c-0.1-0.1,0.1-0.5,0.1-0.5c0.5,0.2,2.1,0.6,2,0.9C62,30.3,60.6,29.8,60,29.6z"/>
		<path class="st0" d="M66.2,30.4c-0.2-0.1,0.1-0.5,0.2-0.4c0.9,0.4,3.3,1.4,3.2,1.6C69.5,31.9,67.1,30.8,66.2,30.4z"/>
		<path class="st0" d="M56.4,31.2c-0.1,0,0-0.5,0.1-0.5c0.4,0.1,1.5,0.3,1.4,0.6C57.8,31.6,56.8,31.4,56.4,31.2z"/>
		<path class="st0" d="M62.9,32.9c-0.2,0,0-0.5,0.1-0.5c0.7,0.2,2.7,0.5,2.6,0.8C65.6,33.6,63.6,33.1,62.9,32.9z"/>
		<path class="st0" d="M70.5,30c-0.1-0.1,0.1-0.5,0.2-0.4c0.7,0.3,2.6,1.1,2.4,1.4C73,31.2,71.1,30.3,70.5,30z"/>
		<path class="st0" d="M72.7,27.2c-0.2-0.1,0.1-0.5,0.2-0.5c0.7,0.3,2.7,0.9,2.6,1.2C75.4,28.2,73.4,27.5,72.7,27.2z"/>
		<path class="st0" d="M77.9,28.1c-0.1-0.1,0.1-0.5,0.2-0.4c0.6,0.3,2.1,1.1,2,1.4C79.9,29.3,78.4,28.4,77.9,28.1z"/>
		<path class="st0" d="M75.8,30.6c-0.1-0.1,0.2-0.4,0.3-0.4c0.5,0.5,2,1.7,1.7,1.9C77.7,32.5,76.3,31.1,75.8,30.6z"/>
		<path class="st0" d="M80.3,31.4c-0.1-0.2,0.2-0.5,0.3-0.4c0.7,0.6,2.6,2.3,2.4,2.6C82.7,33.9,80.9,32.1,80.3,31.4z"/>
		<path class="st0" d="M83.7,32.3c0-0.1,0.4-0.3,0.4-0.2c0.3,0.4,1,1.6,0.8,1.8C84.6,34,83.9,32.8,83.7,32.3z"/>
		<path class="st0" d="M78.9,34.2c-0.1-0.1,0.3-0.4,0.4-0.3c0.3,0.5,1.4,1.8,1.1,1.9C80.1,36,79.2,34.7,78.9,34.2z"/>
		<path class="st0" d="M74.2,32.9c-0.1-0.1,0.2-0.4,0.3-0.4c0.5,0.4,1.9,1.5,1.6,1.7C76,34.5,74.7,33.3,74.2,32.9z"/>
		<path class="st0" d="M70.3,33.7c-0.1-0.1,0.1-0.5,0.2-0.4c0.5,0.3,2.1,1,1.9,1.2C72.3,34.8,70.8,34,70.3,33.7z"/>
		<path class="st0" d="M81.8,35.4c-0.1-0.2,0.4-0.3,0.4-0.2c0.4,0.7,1.5,2.5,1.2,2.6C83.1,38,82.1,36.1,81.8,35.4z"/>
		<path class="st0" d="M84.8,35.8c0-0.1,0.4-0.2,0.5-0.1c0.1,0.6,0.6,2.3,0.3,2.4C85.3,38.1,84.9,36.4,84.8,35.8z"/>
		<path class="st0" d="M77.6,36.4c-0.1-0.1,0.2-0.5,0.3-0.4c0.6,0.4,2.2,1.4,2,1.7C79.7,38,78.2,36.9,77.6,36.4z"/>
		<path class="st0" d="M75,37c-0.1-0.1,0.2-0.5,0.3-0.4c0.5,0.3,1.9,1.1,1.8,1.3C76.9,38.2,75.5,37.3,75,37z"/>
		<path class="st0" d="M81.4,39.8c-0.1-0.1,0.3-0.4,0.4-0.3c0.3,0.3,1,1.2,0.8,1.4C82.3,41,81.6,40.1,81.4,39.8z"/>
		<path class="st0" d="M84.4,39.8c0-0.1,0.5-0.2,0.5-0.1c0.1,0.6,0.6,2.4,0.3,2.4C84.8,42.2,84.5,40.5,84.4,39.8z"/>
		<path class="st0" d="M86.1,40.5c0-0.1,0.5-0.2,0.5-0.1c0.1,0.6,0.6,2.4,0.3,2.4C86.6,42.9,86.2,41.1,86.1,40.5z"/>
		<path class="st0" d="M71,36.9c-0.1-0.1,0.1-0.5,0.2-0.4c0.7,0.4,2.5,1.3,2.3,1.6S71.6,37.3,71,36.9z"/>
		<path class="st0" d="M66.3,35c-0.1,0,0-0.5,0.1-0.5c0.6,0.1,2.1,0.4,2.1,0.7C68.5,35.5,66.9,35.2,66.3,35z"/>
		<path class="st0" d="M58.4,33.3c-0.2-0.1,0-0.5,0.1-0.5c0.8,0.2,3.1,0.7,3,1C61.5,34.2,59.2,33.6,58.4,33.3z"/>
		<path class="st0" d="M54,32.4c-0.1,0-0.1-0.5-0.1-0.5c0.1,0,0.4,0,0.6,0c0.1,0,0.1,0,0.2,0c0.1,0,0.1,0,0.2,0
			c0.1,0,0.2,0.1,0.3,0.1c0.1,0.1,0.2,0.1,0.3,0.2c0.1,0.1,0.2,0.1,0.2,0.2c0.1,0.1,0.1,0.2,0.1,0.3c-0.1,0.1-0.2,0.1-0.3,0
			c-0.1,0-0.1,0-0.2-0.1c-0.1,0-0.2-0.1-0.3-0.1C54.7,32.4,54.3,32.4,54,32.4z"/>
		<path class="st0" d="M44.7,26.9c-0.2-0.2,0.3-0.4,0.4-0.3c0.2,0.2,0.4,0.4,0.7,0.6c0.1,0.1,0.1,0.1,0.2,0.2
			c0.1,0.1,0.2,0.1,0.2,0.2c0.2,0.1,0.3,0.2,0.5,0.3c0.2,0.1,0.3,0.2,0.5,0.2c0.2,0.1,0.3,0.1,0.4,0.2c0.2,0.1,0.4,0.2,0.4,0.3
			c0,0.1-0.2,0.1-0.5,0.1c-0.1,0-0.3-0.1-0.5-0.1c-0.2-0.1-0.4-0.1-0.5-0.2c-0.2-0.1-0.4-0.2-0.6-0.3c-0.1-0.1-0.2-0.1-0.3-0.2
			c-0.1-0.1-0.2-0.1-0.2-0.2C45.1,27.4,44.8,27.1,44.7,26.9z"/>
		<path class="st0" d="M40.3,23.6c-0.1-0.1,0.2-0.4,0.3-0.4c0.4,0.3,1.5,1,1.3,1.3C41.7,24.8,40.7,24,40.3,23.6z"/>
		<path class="st0" d="M41.9,21.7c-0.1-0.1,0.2-0.5,0.3-0.4c0.4,0.3,1.7,0.9,1.5,1.2C43.5,22.7,42.3,22,41.9,21.7z"/>
		<path class="st0" d="M39.4,18.3c-0.1-0.1,0.1-0.5,0.2-0.4c0.6,0.3,2.3,1,2.1,1.3C41.6,19.4,40,18.6,39.4,18.3z"/>
		<path class="st0" d="M38.4,15.7c-0.1,0,0.1-0.5,0.1-0.5c0.5,0.1,1.7,0.4,1.6,0.7S38.8,15.9,38.4,15.7z"/>
		<path class="st0" d="M33.6,15.1c-0.1,0,0.1-0.5,0.1-0.5c0.4,0.1,1.5,0.3,1.4,0.6C35,15.5,33.9,15.2,33.6,15.1z"/>
		<path class="st0" d="M34.9,17.2c-0.2-0.1,0-0.5,0.2-0.5c0.7,0.3,2.8,0.9,2.7,1.2C37.6,18.3,35.6,17.5,34.9,17.2z"/>
		<path class="st0" d="M38.5,20.9c-0.1-0.1,0.2-0.4,0.3-0.4c0.4,0.3,1.6,1.1,1.4,1.3C40.1,22.1,38.9,21.2,38.5,20.9z"/>
		<path class="st0" d="M35.5,22.4c-0.1-0.1,0.2-0.4,0.3-0.4c0.5,0.4,1.9,1.5,1.6,1.7C37.2,24,35.9,22.9,35.5,22.4z"/>
		<path class="st0" d="M41.2,26.5c-0.1-0.1,0.2-0.5,0.3-0.4c0.5,0.3,1.8,1.1,1.6,1.3C42.9,27.7,41.6,26.9,41.2,26.5z"/>
		<path class="st0" d="M47.4,30.6c-0.1-0.1,0.1-0.5,0.2-0.4c0.5,0.2,1.9,0.8,1.8,1.1C49.3,31.6,47.9,30.9,47.4,30.6z"/>
		<path class="st0" d="M77.8,39.6c-0.1-0.1,0.2-0.5,0.2-0.4c0.5,0.3,1.9,1,1.7,1.3C79.7,40.8,78.3,40,77.8,39.6z"/>
		<path class="st0" d="M62.8,35.4c-0.1-0.1,0.1-0.5,0.2-0.5c0.5,0.2,2,0.7,1.9,1C64.8,36.2,63.3,35.7,62.8,35.4z"/>
		<path class="st0" d="M68.2,37.6c-0.1-0.1,0.1-0.5,0.2-0.4c0.6,0.3,2.4,1.2,2.3,1.4C70.5,38.9,68.8,37.9,68.2,37.6z"/>
		<path class="st0" d="M74.4,39.9c-0.2-0.1,0.1-0.5,0.2-0.5c0.8,0.3,3.1,1.1,2.9,1.4C77.4,41.2,75.2,40.3,74.4,39.9z"/>
		<path class="st0" d="M81.4,42.8c-0.1-0.1,0.3-0.4,0.3-0.4c0.5,0.4,1.8,1.6,1.5,1.8C83.1,44.5,81.9,43.2,81.4,42.8z"/>
		<path class="st0" d="M85.5,44.1c0-0.1,0.4-0.3,0.4-0.2c0.3,0.5,1,1.7,0.8,1.8C86.3,45.8,85.7,44.6,85.5,44.1z"/>
		<path class="st0" d="M43.4,30c-0.1-0.1,0.2-0.5,0.3-0.4c0.5,0.4,2.1,1.5,1.9,1.7C45.4,31.7,43.9,30.5,43.4,30z"/>
		<path class="st0" d="M50.3,33.3c-0.2-0.1,0-0.5,0.2-0.5c0.9,0.3,3.2,1.1,3.1,1.4C53.5,34.5,51.1,33.7,50.3,33.3z"/>
		<path class="st0" d="M57.9,35.8c-0.1-0.1,0.1-0.5,0.2-0.4c0.6,0.2,2.2,0.8,2,1.1C60,36.8,58.4,36.1,57.9,35.8z"/>
		<path class="st0" d="M64.9,38.4c-0.1-0.1,0.1-0.5,0.2-0.5c0.7,0.2,2.6,0.8,2.4,1.1C67.4,39.4,65.5,38.7,64.9,38.4z"/>
		<path class="st0" d="M70.9,40.5c-0.1-0.1,0.1-0.5,0.2-0.4c0.5,0.2,1.8,0.7,1.7,1C72.6,41.4,71.3,40.8,70.9,40.5z"/>
		<path class="st0" d="M77.3,42.9c-0.1-0.1,0.1-0.5,0.2-0.5c0.5,0.2,2,0.7,1.9,1C79.2,43.7,77.8,43.1,77.3,42.9z"/>
	</g>
	<path class="st5" d="M24,17.6c10.2-1.2,11-9.3,11.8-12.9c0.1-0.4-0.4-0.6-0.7-0.3c-3.2,4-5.6,8.3-12.5,8.6C23.7,16.5,23,14,24,17.6
		z"/>
	<g>
		<path class="st7" d="M25.4,15.7c-0.9-0.7-1.8-1.5-2.6-2.4c0.2,0.6,0.3,1,0.4,1.2c0.9,1,1.9,1.9,2.9,2.6c0,0,0.1,0,0.1,0.1
			c0.3-0.1,0.7-0.2,1-0.3C26.6,16.5,26,16.1,25.4,15.7z"/>
		<path class="st7" d="M32.2,8.2c0.9,0.3,1.8,0.5,2.7,0.6c0.1-0.3,0.2-0.6,0.3-1c-0.8-0.1-1.6-0.3-2.3-0.5C32.6,7.7,32.4,8,32.2,8.2
			z"/>
		<path class="st7" d="M33.8,6.2c0.4,0.5,0.9,1,1.4,1.4c0.1-0.4,0.2-0.8,0.3-1.1c-0.4-0.4-0.7-0.7-1.1-1.1C34.2,5.6,34,5.9,33.8,6.2
			z"/>
		<path class="st7" d="M27.9,13.7c0.4,0.8,0.8,1.6,1.2,2.4c0.3-0.2,0.6-0.3,0.8-0.5c-0.3-0.5-0.6-1.1-0.9-1.7
			c-0.3-0.7-0.7-1.6-0.9-2.4c-0.3,0.1-0.6,0.3-0.9,0.4C27.4,12.6,27.6,13.2,27.9,13.7z"/>
		<path class="st7" d="M32.5,10.2c-0.4-0.3-0.9-0.6-1.3-1C31,9.5,30.7,9.7,30.5,10c0.8,0.7,1.7,1.3,2.7,1.8c-1.2-0.2-2.6-0.5-3.7-1
			c-0.3,0.2-0.7,0.5-1,0.7c0.6,0.3,1.9,0.8,2.1,0.8c0.7,0.2,1.3,0.3,2,0.5c0.2,0,0.3,0.1,0.5,0.1c0.4-0.6,0.8-1.2,1.1-1.8
			C33.5,10.8,33,10.5,32.5,10.2z"/>
	</g>
	<path class="st2" d="M41.6,18.3c-0.5,1.5-1.7,2.8-3.2,3.4c-1.5,0.7-3.2,0.8-4.8,0.5C32,22,30.5,21.5,29,20.8
		c-0.4-0.2-0.9-0.4-1.2-0.7c-0.4-0.5-0.5-1.3-0.4-2c1.6-1.1,3.5-1.9,5.3-1.7c1.3,0.2,2.5,0.8,3.8,1.3c1.3,0.5,2.7,0.7,3.9,0.1
		c0.2-0.1,0.4-0.2,0.6-0.3c0.2-0.1,0.5,0,0.6,0.1C41.7,17.8,41.7,18,41.6,18.3z"/>
	<path class="st8" d="M39.9,20.1c-1.6,1.4-3.4,1.6-5.6,1.6c-2.2,0-4.4-0.8-6.1-2.1c1.6-0.8,3.6-1.1,5.4-0.8c0.8,0.2,1.6,0.4,2.4,0.5
		c1.7,0.2,4.5-0.8,5-1.1C41.5,17.9,40.9,19.3,39.9,20.1z"/>
	<path class="st9" d="M23.9,18.3c0,0,2.7,2,4,1.8c1.1-0.2,0.9-1.3,0.3-1.8c-0.6-0.6-2.1-0.8-2.1-0.8s1.8-0.6,2.6-1.2
		c0.4-0.3,0.8-0.9,0.6-1.4c-0.2-0.4-0.6-0.5-1-0.4c-1.1,0-2.2,0.1-3.3,0.3c0.8-0.6,1.4-1.7,1.6-2.8c0.1-0.4,0.1-0.8-0.1-1.2
		c-0.2-0.4-0.6-0.6-0.9-0.6c-0.4,0-0.7,0.2-1,0.5c-1,0.7-2.5,2-2.5,2s-0.4-2.3-1.1-3.4c-0.2-0.4-0.5-0.7-0.8-0.7
		c-0.5-0.1-0.9,0.4-1.1,0.9c-0.2,0.6-0.3,2.8-0.3,2.8S17,9.3,15.4,8.7c-0.3-0.1-0.6-0.2-0.8,0C14.3,9,14.3,9.6,14.3,10
		c0.2,1.1,1.3,2.9,1.3,2.9s-2.6-1.4-4-1.6c-0.6-0.1-1.4-0.1-1.7,0.6c-0.3,0.6-0.1,1.4,0.3,1.8c0.4,0.4,0.9,0.6,1.5,0.7
		c0.5,0.1,1.5,0.3,1.5,0.3s-1.3,0.1-1.9,0.5c-0.3,0.2-0.5,0.5-0.4,0.8c0.1,0.3,0.3,0.4,0.6,0.5c0.7,0.2,2.2-0.2,2.2-0.2
		s-2.6,1.9-1.6,3c1,1.1,5.4-1.7,5.4-1.7s-0.9,1.8-0.1,2.5c0.8,0.7,2-2.3,2-2.3s0.1,1.1,0.1,1.7c0.1,0.6,0.3,1.2,0.7,1.3
		c0.4,0.1,0.9-0.3,1-0.8c0.2-0.5,0-1.7,0-1.7s0.8,1,1.2,1.4c0.5,0.3,1.1,0.4,1.6,0.1C24.6,19.6,23.9,18.3,23.9,18.3z"/>
</g>
</svg>
