<?xml version="1.0" encoding="utf-8"?>
<!-- Generator: Adobe Illustrator 19.2.1, SVG Export Plug-In . SVG Version: 6.00 Build 0)  -->
<svg version="1.1" id="Layer_1" xmlns="http://www.w3.org/2000/svg" xmlns:xlink="http://www.w3.org/1999/xlink" x="0px" y="0px"
	 viewBox="0 0 61.9 73.8" style="enable-background:new 0 0 61.9 73.8;" xml:space="preserve">
<style type="text/css">
	.st0{fill:#726A65;}
	.st1{fill:#594F49;}
	.st2{fill:#E8DFDA;}
	.st3{fill:#EA888A;}
	.st4{fill:#FFFFFF;}
	.st5{fill:#936B4A;}
	.st6{fill:#F93E48;}
	.st7{fill:#AFA49E;}
</style>
<g>
	<path class="st0" d="M2.2,25.6c0.7,4,2.5,7.9,4.6,11.2c2.3,3.5,5.3,7,9.3,8.4c2,0.7,3.9,0.8,5.4,0.5c1.2-0.2,2.5-0.7,3.5-1.4
		c0.7-0.6,1-1,0.9-1.1c-0.1-0.2-1.1,0.3-1.3,0.3c-0.7,0.2-1.3,0.3-2,0.4c-1.6,0.1-3.2-0.2-4.6-0.9c-2.4-1.1-4.1-3.2-5.5-5.3
		c-1.6-2.6-2.8-5.5-3.5-8.5c-0.3-1.3-0.6-2.6-0.8-3.9c-0.2-1.2-0.5-2.5-1.2-3.6c-0.3-0.4-0.6-0.7-1-1c-0.4-0.2-0.9-0.4-1.4-0.4
		c-0.6,0-1,0.2-1.4,0.5c-0.4,0.3-0.7,0.7-0.8,1.2C2,23.1,2,24.4,2.2,25.6C2.3,25.9,2,24.4,2.2,25.6z"/>
	<g>
		<path class="st1" d="M21,43.9c0.5,0.1,1.1,0.1,1.6,0c0.1,0,0.2,0,0.3,0c-0.2,0.7-0.5,1.3-0.8,1.8c-0.2,0-0.4,0.1-0.6,0.1
			c-0.4,0.1-0.8,0.1-1.2,0.1c0,0,0-0.1,0.1-0.1C20.8,45.2,21,44.5,21,43.9z"/>
		<path class="st1" d="M11.6,42.5c-0.3-0.3-0.6-0.5-0.9-0.8c0.6-0.3,1.1-0.6,1.2-0.7c0.7-0.5,1.2-1.2,1.7-1.9
			c0.4,0.5,0.8,1.1,1.3,1.5C14.1,41.4,12.8,42.1,11.6,42.5z"/>
		<path class="st1" d="M15.7,44.8c0.1-0.2,0.8-1.3,1.4-2.3c0.3,0.2,0.6,0.3,0.9,0.5c-0.2,0.8-0.4,1.5-0.5,1.6
			c-0.1,0.3-0.3,0.6-0.4,0.9c-0.3-0.1-0.6-0.2-0.8-0.3c-0.2-0.1-0.5-0.2-0.7-0.3C15.6,44.9,15.6,44.9,15.7,44.8z"/>
		<path class="st1" d="M11.4,35.4c0.1,0.3,0.3,0.6,0.4,0.9c-0.6,0.8-1.2,1.4-1.4,1.6c-0.5,0.5-1.2,1-1.8,1.4c-0.4-0.5-0.7-1-1.1-1.5
			c0.5-0.2,1-0.3,1.4-0.6C9.2,37.2,10.3,36.3,11.4,35.4z"/>
		<path class="st1" d="M7.5,32.1c0.8-0.2,1.5-0.6,2.2-0.9c0.2,0.6,0.4,1.2,0.6,1.8c-1.5,0.4-3.7,0.7-5.3,0.6
			c-0.1-0.3-0.3-0.6-0.4-0.9C5.7,32.5,7.3,32.2,7.5,32.1z"/>
		<path class="st1" d="M7.7,22.9c-0.8,0.6-1.8,1.3-2,1.4c-1,0.6-2.3,0.9-3.5,1c-0.1-0.7-0.1-1.4,0-2.1c0.7,0,1.5,0.1,2.1,0
			c0.3,0,2-0.7,3.1-1.1C7.5,22.4,7.6,22.7,7.7,22.9z"/>
		<path class="st1" d="M5.7,27.6c1-0.5,1.8-1.1,2.7-1.7c0.1,0.7,0.3,1.3,0.4,2c-1.5,0.7-3.9,1.3-5.6,1.5c-0.1-0.3-0.2-0.6-0.3-0.9
			C4.1,28.2,5.5,27.7,5.7,27.6z"/>
	</g>
	<path class="st1" d="M15.8,24.4c-0.5-0.2-1.7,2.7-1.9,3.1c-0.7,1.6-1.4,3.1-2.2,4.6c-1.5,2.8-3.2,5.6-5.5,7.9c-1-0.1-2-0.5-3-0.8
		c-0.6-0.1-0.9,0.2-0.4,0.7c0.3,0.4,0.8,0.6,1.3,0.8c-0.3,0.1-2.7,0.6-1.8,1.2c0.8,0.5,2.1,0.1,2.9-0.2c-0.3,0.4-0.7,0.7-1,1.1
		C4,42.9,2.8,44,3.5,44.2c0.6,0.2,1.4-0.5,1.9-0.9c0.5-0.4,0.9-0.9,1.2-1.4c0.3,0.4,1.8,1.6,2.3,0.9c0.2-0.3-0.2-0.7-0.5-0.8
		c-0.4-0.3-0.7-0.6-1-0.9c2.3-2.2,6.4-5,8.7-12.1C16.3,28.4,16.4,24.6,15.8,24.4C15.7,24.3,15.9,24.4,15.8,24.4z"/>
	<path class="st1" d="M46.2,24.4c0.5-0.2,1.7,2.7,1.9,3.1c0.7,1.6,1.4,3.1,2.2,4.6c1.5,2.8,3.2,5.6,5.5,7.9c1-0.1,2-0.5,3-0.8
		c0.6-0.1,0.9,0.2,0.4,0.7c-0.3,0.4-0.8,0.6-1.3,0.8c0.3,0.1,2.7,0.6,1.8,1.2c-0.8,0.5-2.1,0.1-2.9-0.2c0.3,0.4,0.7,0.7,1,1.1
		c0.2,0.2,1.4,1.2,0.7,1.4c-0.6,0.2-1.4-0.5-1.9-0.9c-0.5-0.4-0.9-0.9-1.2-1.4c-0.3,0.4-1.8,1.6-2.3,0.9c-0.2-0.3,0.2-0.7,0.5-0.8
		c0.4-0.3,0.7-0.6,1-0.9c-2.3-2.2-6.4-5-8.7-12.1C45.7,28.4,45.6,24.6,46.2,24.4C46.3,24.3,46.1,24.4,46.2,24.4z"/>
	<path class="st1" d="M26.9,71.5c0.3,0.6,0,1.4-0.6,1.7c-0.6,0.4-1.2,0.4-1.9,0.5c-1,0.1-2.2,0.2-2.9-0.6c-0.7-0.7-0.7-1.9-0.6-3
		c0.6-5.7,0.6-11.4,0.1-17.1c1.1,0.1,2.2,0.2,3.2,0.3c0.3,4.2,0.3,8.5,0,12.8c-0.1,1.1-0.2,2.3,0.2,3.4C24.8,70.6,26.6,71,26.9,71.5
		z"/>
	<path class="st2" d="M26.9,71.5c-0.2-0.5-1.4-0.8-2-1.4c-1.7,0.2-2.9,1.4-3.3,3.1c0.7,0.7,1.9,0.6,2.9,0.5c0.7-0.1,1.4-0.1,1.9-0.5
		C26.8,72.9,27.2,72.1,26.9,71.5z"/>
	<path class="st1" d="M34,71.5c-0.3,0.6,0,1.4,0.6,1.7c0.6,0.4,1.2,0.4,1.9,0.5c1,0.1,2.2,0.2,2.9-0.6c0.7-0.7,0.7-1.9,0.6-3
		c-0.6-5.7-0.6-11.4-0.1-17.1c-1.1,0.1-2.2,0.2-3.2,0.3c-0.3,4.2-0.3,8.5,0,12.8c0.1,1.1,0.2,2.3-0.2,3.4C36.1,70.6,34.3,71,34,71.5
		z"/>
	<path class="st2" d="M35.9,70.3c-0.7,0.5-1.7,0.8-1.9,1.2c-0.3,0.6,0,1.4,0.6,1.7c0.6,0.4,1.2,0.4,1.9,0.5c0.9,0.1,1.9,0.1,2.6-0.4
		c0-0.1,0-0.1,0-0.2C38.7,71.6,37.4,70.5,35.9,70.3z"/>
	<path class="st0" d="M45.4,46.4c0.9-8.2,0.9-16.5,0.9-24.7c0-6.9,0-14-1.7-20.7c-0.3-1.1-1.6-1.4-2.3-0.6C40,2.9,38.3,5.8,37.5,9
		c-2.3-0.5-14-0.6-14-0.6s-2.7-3.1-4.9-5.7c-0.8-0.9-2.3-0.4-2.4,0.8l-1.3,33.2c-0.1,2.9-0.2,5.8,0.3,8.6c0.5,2.8,1.8,5.6,4,7.5
		c2.2,1.9,5.2,2.9,8.1,3.2C45,57.6,45.2,48.3,45.4,46.4z"/>
	<path class="st2" d="M35.7,15.6c-3.3-0.4-6.7,0-10,0.3c-1.7,0.2-3.6,0.4-4.9,1.5c-1.3,1.1-2,2.8-2.2,4.5c-0.2,1.2-0.2,2.4,0.3,3.4
		c0.5,1.1,1.5,1.8,2.6,2.3c1.5,0.6,3.2,0.8,4.8,0.9c2.2,0.1,4.4,0.1,6.6,0c2.5-0.1,5.1-0.4,7.2-1.7c2.1-1.3,3.7-3.8,3.2-6.2
		c-0.3-1.6-1.5-2.9-2.9-3.7C39,16.1,37.3,15.8,35.7,15.6z"/>
	<path class="st3" d="M40.3,10.9c-0.3-0.1-0.6-0.2-0.8-0.5c-0.1-0.3-0.1-0.6,0-0.9c0.5-2,1.4-4,2.5-5.7c0.2-0.3,0.4-0.6,0.8-0.6
		c0.3,0,0.6,0.3,0.7,0.6c1.1,2.1,1.1,4.5,1,6.9c0,0.2,0,0.5-0.2,0.6c-0.1,0.1-0.3,0.1-0.5,0.1C42.7,11.5,41.5,11.3,40.3,10.9z"/>
	<path class="st3" d="M18.7,11.8c-0.2,0-0.5,0-0.7-0.1c-0.2-0.2-0.2-0.4-0.3-0.7c-0.2-1.7-0.2-3.3,0.1-5c0-0.3,0.1-0.6,0.4-0.7
		c0.2-0.1,0.5,0.1,0.7,0.2c1.5,1.2,2.2,3,2.8,4.8c0.1,0.2,0.1,0.4,0,0.5c-0.1,0.1-0.2,0.2-0.3,0.2C20.5,11.5,19.6,11.8,18.7,11.8z"
		/>
	<g>
		<path class="st4" d="M38.5,15.5c0.2-0.1,0.4-0.1,0.5-0.3c0.1-0.2,0.2-0.4,0.2-0.6c0-0.3,0-0.6,0-0.9c0-0.3-0.1-0.5-0.3-0.7
			C38.7,13,38.5,13,38.3,13c-0.3,0-0.6,0-0.9,0.1c-0.3,0.1-0.4,0.3-0.6,0.6c-0.1,0.3-0.1,0.5-0.1,0.8c0,0.2,0.1,0.4,0.2,0.6
			c0.1,0.2,0.3,0.4,0.5,0.4C37.8,15.7,38.2,15.6,38.5,15.5z"/>
		<path d="M37.2,14.7c0.1,0.2,0.3,0.3,0.5,0.3c0.2,0,0.4-0.1,0.5-0.2c0.1-0.1,0.2-0.3,0.1-0.5c0-0.2-0.1-0.3-0.2-0.4
			c-0.1-0.1-0.3-0.1-0.4-0.1c-0.1,0-0.3,0.1-0.4,0.2c-0.1,0.1-0.2,0.2-0.2,0.4C37.2,14.6,37.2,14.6,37.2,14.7z"/>
		<path class="st4" d="M23.6,15.8c0.2-0.1,0.4-0.1,0.5-0.3c0.1-0.2,0.2-0.4,0.2-0.6c0-0.3,0-0.6,0-0.9c0-0.3-0.1-0.5-0.3-0.7
			c-0.2-0.1-0.4-0.1-0.6-0.2c-0.3,0-0.6,0-0.9,0.1c-0.3,0.1-0.4,0.3-0.6,0.6c-0.1,0.3-0.1,0.5-0.1,0.8c0,0.2,0.1,0.4,0.2,0.6
			c0.1,0.2,0.3,0.4,0.5,0.4C22.9,15.9,23.2,15.9,23.6,15.8z"/>
		<path d="M23,15c0.1,0.2,0.3,0.3,0.4,0.3c0.2,0,0.4-0.1,0.5-0.2C24,15,24,14.8,24,14.7c0-0.1-0.1-0.3-0.2-0.3
			c-0.1-0.1-0.2-0.1-0.4-0.1c-0.1,0-0.2,0.1-0.3,0.2c-0.1,0.1-0.2,0.2-0.2,0.3C22.9,14.9,23,14.9,23,15z"/>
	</g>
	<path class="st5" d="M39,20.6c-0.1-0.1-0.5,0.1-0.4,0.2c0.1,0.1,0.2,0.3,0.2,0.4c-2.6,0.9-5.3,1.5-8.1,1.6c0-0.8,0-1.7-0.1-2.5
		c0-0.2-0.5-0.1-0.5,0.1c0,0.8,0,1.7,0.1,2.5c-1.3,0-2.5,0-3.8-0.1c-1.3-0.1-2.7-0.3-3.9-0.9c0,0,0,0,0,0c0.1-0.1,0.2-0.2,0.3-0.3
		c0.3-0.1,0.2-0.4-0.1-0.3c-0.8,0.3-0.8,1.1-0.7,1.9c0,0.2,0.5,0.1,0.5-0.1c0-0.2-0.1-0.6,0-0.8c1.1,0.5,2.4,0.7,3.6,0.8
		c1.5,0.2,3,0.2,4.4,0.1c2.9-0.1,5.7-0.7,8.4-1.7c0.1,0.2,0.1,0.5,0,0.7c0,0.1,0.4,0,0.4-0.1C39.4,21.5,39.3,21,39,20.6z"/>
	<path class="st5" d="M27.6,24.6c2.1,0.3,4.3,0.2,6.4-0.4c0.1,0,0.3-0.1,0.4-0.2c0-0.1-0.2-0.1-0.3-0.1c-1.9,0.6-4,0.7-5.9,0.4
		c-0.2,0-0.3,0-0.5,0.1C27.6,24.5,27.4,24.6,27.6,24.6L27.6,24.6z"/>
	<path class="st6" d="M28.4,18.8c0.2,0.5,0.5,1,1,1.3c0.5,0.3,1.1,0.4,1.6,0.2c0.5-0.2,0.9-0.7,1.2-1.1c0.2-0.3,0.4-0.7,0.4-1.1
		c0-0.6-0.5-1-1.1-1.2c-0.5-0.2-1.1-0.1-1.7,0c-0.5,0.1-1.1,0.2-1.4,0.6C28.2,17.8,28.3,18.3,28.4,18.8z"/>
	<g>
		<path class="st5" d="M29.3,20.8c0.3,0,0.3-0.5,0-0.5C29,20.3,29,20.8,29.3,20.8L29.3,20.8z"/>
		<path class="st5" d="M24.8,20.6c0.3,0,0.3-0.5,0-0.5S24.5,20.6,24.8,20.6L24.8,20.6z"/>
		<path class="st5" d="M27.7,21.6c0.3,0,0.3-0.5,0-0.5C27.4,21.1,27.4,21.6,27.7,21.6L27.7,21.6z"/>
		<path class="st5" d="M27.1,19.5c0.3,0,0.3-0.5,0-0.5C26.8,19.1,26.8,19.5,27.1,19.5L27.1,19.5z"/>
		<path class="st5" d="M33.4,19.5c0.3,0,0.3-0.5,0-0.5C33.1,19.1,33.1,19.5,33.4,19.5L33.4,19.5z"/>
		<path class="st5" d="M32.3,21.3c0.3,0,0.3-0.5,0-0.5C32,20.8,32,21.3,32.3,21.3L32.3,21.3z"/>
		<path class="st5" d="M35.1,20.6c0.3,0,0.3-0.5,0-0.5S34.8,20.6,35.1,20.6L35.1,20.6z"/>
	</g>
	<g>
		<path class="st1" d="M26,8.5c0.3,2,0.7,4,1,4c0.3,0,0.8-2.1,1.3-4C27.4,8.5,26.6,8.5,26,8.5z"/>
		<path class="st1" d="M32.6,8.6c0.3,2,0.7,4.1,1,4.1c0.3,0,0.8-2,1.3-4C34.2,8.7,33.4,8.7,32.6,8.6z"/>
		<path class="st1" d="M31.6,8.6c-0.9,0-1.7-0.1-2.6-0.1c0.3,2.2,0.7,5,1.1,5C30.5,13.5,31.1,10.7,31.6,8.6z"/>
	</g>
	<path class="st7" d="M19.6,37.8c-0.1,2.9-0.1,6,0.6,8.8c0.6,2.4,2.7,4.3,6.1,5c3.3,0.7,7.3,0.3,10.3-0.9c3.4-1.4,4.1-3.8,4.3-6.4
		c0.4-4.9,1-11.6-7.2-13.2c-1.8-0.4-3.8-0.4-5.7-0.4C21.2,30.7,19.7,35.7,19.6,37.8C19.5,40.2,19.7,36.2,19.6,37.8z"/>
	<g>
		<path class="st0" d="M25.5,32.1c0.1-0.1,0.3,0,0.3,0.1c-0.1,0.1-0.1,0.3-0.2,0.4c0,0,0,0.1,0,0.1c0,0,0,0.1,0,0.1l0,0.1
			c0,0,0,0,0,0.1c0,0,0,0.1,0,0.1c0,0,0,0.1,0,0.1c0,0,0,0.1,0,0.1c0,0.1,0,0.2,0,0.2c0,0.1,0,0.2,0,0.2c0,0-0.1-0.1-0.2-0.2
			c0-0.1-0.1-0.1-0.1-0.2c0,0,0-0.1,0-0.1c0,0,0-0.1,0-0.1c0-0.1,0-0.1,0-0.2c0,0,0-0.1,0-0.1l0-0.1c0-0.1,0-0.1,0-0.2
			c0-0.1,0-0.1,0-0.1C25.3,32.4,25.4,32.3,25.5,32.1z"/>
		<path class="st0" d="M28.4,32.8c0-0.1,0.3-0.1,0.3,0c0,0.1,0,0.1,0,0.2c0,0.1,0,0.2,0,0.2c0,0.1,0,0.2,0,0.3l0,0.1c0,0,0,0,0,0.1
			c0,0,0,0.1,0,0.1c0,0.1,0,0.2-0.1,0.3c0,0.1-0.1,0.1-0.1,0.2c-0.1,0.1-0.1,0.2-0.2,0.2c0,0-0.1-0.1-0.1-0.2c0-0.1,0-0.1,0-0.2
			c0-0.1,0-0.2,0-0.2c0,0,0-0.1,0-0.1c0,0,0,0,0-0.1l0-0.1c0-0.1,0-0.2,0-0.3c0-0.1,0-0.2,0-0.2C28.5,32.9,28.4,32.9,28.4,32.8z"/>
		<path class="st0" d="M31.1,31.6c0-0.1,0.2-0.1,0.3-0.1c0.1,0.1,0.1,0.2,0.2,0.4c0,0,0,0.1,0,0.1c0,0,0,0.1,0,0.1
			c0,0.1,0,0.2,0.1,0.2c0,0.1,0,0.2,0,0.2c0,0.1,0,0.1,0,0.2c0,0.1-0.1,0.2-0.1,0.2c0,0-0.1-0.1-0.1-0.2c0,0,0-0.1,0-0.2
			c0-0.1,0-0.1,0-0.2c0-0.1,0-0.1-0.1-0.2c0,0,0-0.1,0-0.1c0,0,0-0.1,0-0.1C31.2,31.8,31.2,31.7,31.1,31.6z"/>
		<path class="st0" d="M30.9,34.9c0-0.1,0.3,0,0.3,0c0,0.3,0.1,1.2-0.1,1.2S30.9,35.2,30.9,34.9z"/>
		<path class="st0" d="M33.6,32.9c0-0.1,0.3-0.1,0.3,0c0.1,0.5,0.3,1.8,0.1,1.8C33.7,34.6,33.6,33.4,33.6,32.9z"/>
		<path class="st0" d="M36.2,33.6c0-0.1,0.2-0.1,0.3-0.1c0.1,0.1,0.1,0.2,0.2,0.4c0,0,0,0.1,0,0.1c0,0,0,0.1,0,0.1l0,0.1
			c0,0,0,0,0,0.1c0,0,0,0.1,0,0.1c0,0.1,0,0.2,0,0.2c0,0.1-0.1,0.1-0.1,0.2c-0.1,0.1-0.1,0.1-0.2,0.1c0,0-0.1-0.1,0-0.2
			c0,0,0-0.1,0-0.2c0-0.1,0-0.1,0-0.2c0,0,0-0.1,0-0.1c0,0,0,0,0-0.1l0-0.1c0,0,0-0.1,0-0.1c0,0,0-0.1,0-0.1
			C36.3,33.8,36.3,33.7,36.2,33.6z"/>
		<path class="st0" d="M34.9,36c0-0.1,0.3,0,0.3,0c0,0.4,0,1.4-0.2,1.4C34.8,37.4,34.9,36.4,34.9,36z"/>
		<path class="st0" d="M28,35.8c0-0.1,0.3,0,0.3,0c0,0.4-0.1,1.4-0.3,1.4C27.8,37.2,28,36.2,28,35.8z"/>
		<path class="st0" d="M26.2,35.1c0-0.1,0.3,0,0.3,0c-0.1,0.3-0.3,1.3-0.4,1.2C25.9,36.3,26.1,35.4,26.2,35.1z"/>
		<path class="st0" d="M23,32.7c0.1-0.1,0.3,0.1,0.2,0.1c-0.1,0.1-0.2,0.2-0.3,0.3c0,0,0,0.1-0.1,0.1c0,0,0,0.1-0.1,0.1
			c0,0.1-0.1,0.1-0.1,0.2c0,0.1-0.1,0.1-0.1,0.2c0,0.1,0,0.1-0.1,0.2c0,0.1-0.1,0.2-0.1,0.2c0,0-0.1-0.1-0.1-0.2c0-0.1,0-0.1,0-0.2
			c0-0.1,0-0.1,0.1-0.2c0-0.1,0.1-0.2,0.1-0.2c0,0,0-0.1,0.1-0.1c0,0,0.1-0.1,0.1-0.1C22.8,32.9,22.9,32.8,23,32.7z"/>
		<path class="st0" d="M23.7,34.2c0-0.1,0.3,0,0.3,0c-0.1,0.5-0.4,1.7-0.6,1.7C23.2,35.9,23.5,34.7,23.7,34.2z"/>
		<path class="st0" d="M21.4,35.8c0-0.1,0.3,0,0.3,0c-0.1,0.5-0.3,1.8-0.4,1.8C21.1,37.6,21.3,36.2,21.4,35.8z"/>
		<path class="st0" d="M23.7,37.5c0-0.1,0.3-0.1,0.3,0c0,0.5-0.1,1.7-0.3,1.7C23.6,39.2,23.7,37.9,23.7,37.5z"/>
		<path class="st0" d="M25.6,37.6c0-0.1,0.3-0.1,0.3,0c0,0.4,0.1,1.5-0.1,1.5C25.6,39.1,25.6,38,25.6,37.6z"/>
		<path class="st0" d="M30.3,37.6c0-0.1,0.3-0.1,0.3,0c0,0.4,0.1,1.5-0.1,1.5C30.3,39.1,30.2,38,30.3,37.6z"/>
		<path class="st0" d="M33,36.7c0-0.1,0.3-0.1,0.3,0c0.1,0.3,0.4,1.1,0.2,1.1C33.3,37.8,33,37,33,36.7z"/>
		<path class="st0" d="M28.3,38.8c0-0.1,0.3,0,0.3,0c0,0.3,0,1.1-0.2,1.1C28.2,39.8,28.3,39.1,28.3,38.8z"/>
		<path class="st0" d="M38.3,35.7c-0.1-0.1,0.2-0.2,0.3-0.1c0.1,0.1,0.2,0.3,0.3,0.5c0,0.1,0,0.1,0.1,0.2c0,0.1,0,0.1,0.1,0.2
			c0,0.1,0.1,0.2,0.1,0.3c0,0.1,0,0.2,0.1,0.3c0,0.1,0,0.2,0,0.3c0,0.1,0,0.2-0.1,0.2c0,0-0.1-0.1-0.1-0.2c0-0.1,0-0.1-0.1-0.2
			c0-0.1-0.1-0.2-0.1-0.3c0-0.1-0.1-0.2-0.1-0.3c0-0.1,0-0.1-0.1-0.2c0-0.1,0-0.1-0.1-0.1C38.4,36,38.3,35.8,38.3,35.7z"/>
		<path class="st0" d="M36.7,37.5c0-0.1,0.3-0.1,0.3,0c0.1,0.4,0.4,1.5,0.2,1.5C37,39.1,36.8,37.9,36.7,37.5z"/>
		<path class="st0" d="M38.9,39.2c0-0.1,0.3-0.1,0.3,0c0,0.3,0.1,1.3-0.1,1.3C38.9,40.5,38.9,39.5,38.9,39.2z"/>
		<path class="st0" d="M34.3,38.7c0-0.1,0.3-0.1,0.3,0c0,0.4,0.2,1.5,0,1.5C34.4,40.2,34.3,39.1,34.3,38.7z"/>
		<path class="st0" d="M32.4,39.8c0-0.1,0.3-0.1,0.3,0c0,0.5,0.1,1.7-0.1,1.7C32.4,41.5,32.4,40.3,32.4,39.8z"/>
		<path class="st0" d="M36.6,40.6c0-0.1,0.3-0.1,0.3,0c0,0.3,0.1,1.3-0.1,1.3C36.6,41.9,36.6,41,36.6,40.6z"/>
		<path class="st0" d="M29.4,40.6c0-0.1,0.3,0,0.3,0c0,0.3-0.1,1.3-0.3,1.3C29.2,41.9,29.3,40.9,29.4,40.6z"/>
		<path class="st0" d="M25.5,40.1c0-0.1,0.3-0.1,0.3,0c0,0.3,0.1,1.2-0.1,1.2C25.5,41.3,25.5,40.4,25.5,40.1z"/>
		<path class="st0" d="M21.8,38.8c0-0.1,0.3,0,0.3,0c0,0.3-0.1,1.3-0.3,1.2C21.6,40,21.7,39.1,21.8,38.8z"/>
		<path class="st0" d="M20.2,41.5c0-0.1,0.3-0.1,0.3,0c0.1,0.4,0.3,1.5,0.1,1.5C20.4,43,20.2,41.9,20.2,41.5z"/>
		<path class="st0" d="M22.8,41.2c0-0.1,0.3,0,0.3,0c0,0.3,0,1.1-0.2,1.1C22.6,42.3,22.7,41.5,22.8,41.2z"/>
		<path class="st0" d="M26.9,42.1c0-0.1,0.3,0,0.3,0c0,0.3,0,1.1-0.2,1.1C26.8,43.2,26.8,42.4,26.9,42.1z"/>
		<path class="st0" d="M24.1,42.3c0-0.1,0.3-0.1,0.3,0c0,0.5,0.2,1.7,0,1.7C24.2,44,24.1,42.7,24.1,42.3z"/>
		<path class="st0" d="M21.5,44c0-0.1,0.3-0.1,0.3-0.1c0.1,0.4,0.6,1.4,0.4,1.5C22,45.5,21.6,44.4,21.5,44z"/>
		<path class="st0" d="M21.1,46.5c0-0.1,0.3-0.1,0.3-0.1c0,0.1,0.1,0.3,0.2,0.5c0,0,0.1,0.1,0.1,0.1c0,0,0.1,0.1,0.1,0.1
			c0.1,0.1,0.1,0.2,0.2,0.3c0.1,0.1,0.1,0.2,0.2,0.2c0.1,0.1,0.1,0.1,0.2,0.2c0.1,0.1,0.1,0.2,0.1,0.2c0,0-0.1,0-0.3-0.1
			c-0.1-0.1-0.1-0.1-0.2-0.2c-0.1-0.1-0.2-0.2-0.2-0.2c-0.1-0.1-0.2-0.2-0.2-0.3c0,0-0.1-0.1-0.1-0.1c0,0-0.1-0.1-0.1-0.1
			C21.2,46.8,21.2,46.7,21.1,46.5z"/>
		<path class="st0" d="M24.1,45.9c0-0.1,0.3-0.1,0.3-0.1c0.1,0.4,0.5,1.3,0.3,1.4C24.5,47.3,24.2,46.3,24.1,45.9z"/>
		<path class="st0" d="M25.6,44.7c0-0.1,0.3-0.1,0.3,0c0,0.3,0.2,1.1,0,1.1C25.7,45.8,25.6,45,25.6,44.7z"/>
		<path class="st0" d="M28.7,43.1c0,0,0.3,0,0.3,0c0,0.2,0,0.8-0.1,0.8C28.6,44,28.6,43.4,28.7,43.1z"/>
		<path class="st0" d="M31.5,42c0-0.1,0.3-0.1,0.3,0c0,0.6,0.1,2.1-0.1,2.1S31.5,42.5,31.5,42z"/>
		<path class="st0" d="M34.4,42.3c0-0.1,0.3-0.1,0.3,0c0,0.4,0.1,1.4-0.1,1.4C34.3,43.6,34.3,42.6,34.4,42.3z"/>
		<path class="st0" d="M38.9,41.9c0-0.1,0.3-0.1,0.3,0c0.1,0.4,0.3,1.5,0.1,1.5C39.1,43.4,39,42.3,38.9,41.9z"/>
		<path class="st0" d="M36.8,43.3c0-0.1,0.3-0.1,0.3,0c0,0.4,0.2,1.5,0,1.5C36.8,44.9,36.8,43.7,36.8,43.3z"/>
		<path class="st0" d="M38.8,44.8c0-0.1,0.3-0.1,0.3,0c0,0.1,0,0.3,0,0.5c0,0,0,0.1,0,0.1c0,0,0,0.1-0.1,0.1l0,0.1c0,0,0,0,0,0.1
			c0,0,0,0.1-0.1,0.1c0,0-0.1,0.1-0.1,0.1c0,0-0.1,0.1-0.1,0.1c-0.1,0.1-0.1,0.1-0.2,0.2c-0.1,0.1-0.2,0.1-0.2,0.1
			c0,0,0-0.1,0.1-0.2c0-0.1,0.1-0.1,0.1-0.2c0,0,0-0.1,0.1-0.1c0,0,0-0.1,0.1-0.1c0,0,0-0.1,0.1-0.1c0,0,0,0,0-0.1l0-0.1
			c0,0,0-0.1,0-0.1c0,0,0-0.1,0-0.1C38.8,45,38.8,44.9,38.8,44.8z"/>
		<path class="st0" d="M35,44.8c0-0.1,0.3,0,0.3,0c-0.1,0.3-0.3,1.1-0.5,1.1C34.7,45.9,34.9,45.1,35,44.8z"/>
		<path class="st0" d="M32.7,44.5c0-0.1,0.3,0,0.3,0c-0.1,0.3-0.2,1.3-0.4,1.2C32.4,45.8,32.6,44.8,32.7,44.5z"/>
		<path class="st0" d="M29.5,44.7c0-0.1,0.3,0,0.3,0c0,0.3,0,1.2-0.2,1.2C29.3,46,29.4,45,29.5,44.7z"/>
		<path class="st0" d="M27.4,44.8c0-0.1,0.3-0.1,0.3,0c0,0.4,0,1.5-0.2,1.5C27.3,46.3,27.3,45.2,27.4,44.8z"/>
		<path class="st0" d="M26.4,47.6c0-0.1,0.3-0.1,0.3-0.1c0.1,0.3,0.5,1.2,0.3,1.2C26.9,48.8,26.5,48,26.4,47.6z"/>
		<path class="st0" d="M23.9,49c0-0.1,0.3-0.1,0.3-0.1c0,0.1,0.1,0.2,0.2,0.3c0,0,0.1,0.1,0.1,0.1c0,0,0.1,0,0.1,0.1l0,0
			c0,0,0,0,0.1,0c0,0,0.1,0,0.1,0.1c0,0,0.1,0,0.1,0.1c0,0,0.1,0,0.1,0.1c0.1,0,0.1,0.1,0.2,0.1c0.1,0,0.2,0.1,0.2,0.1
			c0,0-0.1,0-0.2,0c-0.1,0-0.2,0-0.2-0.1c0,0-0.1,0-0.1,0c0,0-0.1,0-0.1-0.1c0,0-0.1,0-0.1-0.1c0,0,0,0-0.1,0l-0.1,0
			c0,0-0.1-0.1-0.1-0.1c0,0-0.1-0.1-0.1-0.1C24,49.2,24,49.1,23.9,49z"/>
		<path class="st0" d="M29.9,47.5c0-0.1,0.3,0,0.3,0c0,0.3,0,1.1-0.1,1.1C29.8,48.5,29.8,47.7,29.9,47.5z"/>
		<path class="st0" d="M33.4,47.6c0-0.1,0.3,0,0.3,0c-0.1,0.5-0.3,1.8-0.5,1.8C33,49.4,33.3,48.1,33.4,47.6z"/>
		<path class="st0" d="M30.8,49.7c0-0.1,0.3,0,0.3,0c0,0.2-0.1,0.9-0.3,0.9C30.6,50.5,30.8,49.9,30.8,49.7z"/>
		<path class="st0" d="M28.4,49.6c0-0.1,0.3-0.1,0.3,0c0.1,0.3,0.3,1.2,0.1,1.3C28.6,50.8,28.4,49.9,28.4,49.6z"/>
		<path class="st0" d="M26.7,50.8c0,0,0.1-0.2,0.2-0.2c0.2,0.1,0.9,0.4,0.8,0.5C27.5,51.2,26.9,50.9,26.7,50.8z"/>
		<path class="st0" d="M36,47c0-0.1,0.3,0,0.3,0c-0.1,0.4-0.3,1.6-0.5,1.5C35.6,48.6,35.9,47.5,36,47z"/>
		<path class="st0" d="M38.4,48c0-0.1,0.3,0,0.3,0c0,0,0,0.1-0.1,0.2c0,0.1,0,0.1-0.1,0.2c0,0.1-0.1,0.1-0.1,0.2l0,0.1
			c0,0,0,0,0,0.1c0,0,0,0.1-0.1,0.1c0,0.1-0.1,0.1-0.1,0.2c-0.1,0.1-0.1,0.1-0.1,0.2c-0.1,0.1-0.2,0.1-0.2,0.1c0,0,0-0.1,0-0.2
			c0,0,0.1-0.1,0.1-0.2c0-0.1,0.1-0.1,0.1-0.2c0,0,0-0.1,0.1-0.1c0,0,0,0,0-0.1l0-0.1c0-0.1,0.1-0.1,0.1-0.2c0-0.1,0.1-0.1,0.1-0.2
			C38.3,48,38.3,48,38.4,48z"/>
		<path class="st0" d="M35,49.6c0.1-0.1,0.3,0.1,0.2,0.1c-0.3,0.3-0.9,1-1.1,0.9C34,50.5,34.8,49.8,35,49.6z"/>
		<path class="st0" d="M31.5,46.7c0-0.1,0.3,0,0.3,0c0,0.2,0,0.9-0.2,0.9C31.4,47.6,31.5,46.9,31.5,46.7z"/>
	</g>
	<g>
		<path class="st2" d="M34.7,19.1c8.8-2.4,17.9-3.3,27-2.6c0.1,0,0.3-0.2,0.1-0.2c-9.1-0.7-18.3,0.2-27.1,2.6
			C34.5,19,34.6,19.1,34.7,19.1L34.7,19.1z"/>
		<path class="st2" d="M35.7,19.6c7.5-0.9,15-0.5,22.3,1.2c0.1,0,0.4-0.1,0.3-0.2C51,19,43.3,18.6,35.8,19.5
			C35.6,19.5,35.4,19.7,35.7,19.6L35.7,19.6z"/>
		<path class="st2" d="M35.1,20.7c7.6,0.8,15,2.5,22.2,4.9c0.1,0,0.4-0.1,0.4-0.1c-7.2-2.5-14.6-4.2-22.2-5
			C35.3,20.6,35,20.7,35.1,20.7L35.1,20.7z"/>
		<path class="st2" d="M27.2,19.1c-8.8-2.4-17.9-3.3-27-2.6c-0.1,0-0.3-0.2-0.1-0.2c9.1-0.7,18.3,0.2,27.1,2.6
			C27.4,19,27.4,19.1,27.2,19.1L27.2,19.1z"/>
		<path class="st2" d="M26.2,19.6c-7.5-0.9-15-0.5-22.3,1.2c-0.1,0-0.4-0.1-0.3-0.2c7.4-1.7,15.1-2.1,22.6-1.2
			C26.3,19.5,26.5,19.7,26.2,19.6L26.2,19.6z"/>
		<path class="st2" d="M26.8,20.7c-7.6,0.8-15,2.5-22.2,4.9c-0.1,0-0.4-0.1-0.4-0.1c7.2-2.5,14.6-4.2,22.2-5
			C26.6,20.6,26.9,20.7,26.8,20.7L26.8,20.7z"/>
	</g>
</g>
</svg>
