<?xml version="1.0" encoding="utf-8"?>
<!-- Generator: Adobe Illustrator 19.2.1, SVG Export Plug-In . SVG Version: 6.00 Build 0)  -->
<svg version="1.1" id="Layer_1" xmlns="http://www.w3.org/2000/svg" xmlns:xlink="http://www.w3.org/1999/xlink" x="0px" y="0px"
	 viewBox="0 0 20.2 24.8" style="enable-background:new 0 0 20.2 24.8;" xml:space="preserve">
<style type="text/css">
	.st0{fill:#FFAA4D;}
	.st1{fill:#F4715B;}
	.st2{fill:#FF9385;}
	.st3{fill:#FFC152;}
	.st4{fill:#FFFFFF;}
	.st5{fill:#FC9603;}
	.st6{fill:#FC7F03;}
</style>
<g>
	<path class="st0" d="M19.9,16.3c-0.2-0.1-0.5,0-0.7,0c0,0,0,0,0,0c-0.2,0-0.8,0.1-1.6,0.1c0.2-0.1,0.5-0.1,0.7-0.2
		c0.5-0.2,0.9-0.5,1.2-0.7c0.3-0.3,0.5-0.5,0.5-0.7c0.1-0.2,0-0.3,0-0.4c-0.1-0.1-0.2-0.1-0.4,0c-0.2,0.1-0.4,0.2-0.6,0.4
		c-0.1,0.1-0.1,0.1,0,0c-0.1,0.1-0.6,0.3-1.1,0.5c0.4-0.3,0.8-0.7,1-1c0.2-0.3,0.4-0.5,0.4-0.7c0-0.2,0-0.3-0.1-0.4
		c-0.1-0.1-0.2,0-0.4,0.1c-0.2,0.1-0.3,0.3-0.5,0.5c-0.1,0.1-0.1,0.1,0,0c-0.1,0.2-0.7,0.6-1.3,1.1c0.1-0.1,0.1-0.2,0.2-0.3
		c0.2-0.4,0.4-0.8,0.5-1.1c0.1-0.3,0.1-0.6,0.1-0.7c0-0.2-0.1-0.3-0.2-0.3c-0.1,0-0.2,0-0.3,0.2c-0.1,0.1-0.2,0.3-0.3,0.6
		c0,0.1,0,0.1,0,0c-0.2,0.7-0.5,1.4-1,2c-0.3,0.3-0.6,0.6-1,0.8c-0.1,0-0.1,0.1-0.1,0.1c0,0,0.1,0,0.1,0.1c0.1,0,0.2,0,0.3,0
		c0,0-0.1,0.1-0.1,0.1c-0.1,0-0.2,0-0.2,0c0,0,0,0,0.1,0.1c0,0-0.1,0.1-0.1,0c0,0,0.1,0,0.2,0c0,0,0.1,0,0.1,0c0,0,0.1,0,0.1,0
		c0,0,0,0,0,0c0,0.1,0.1,0.2,0.4,0.3c1.1,0.5,3.4,0.9,4.4,0.1c0.1-0.1,0.2-0.2,0.2-0.3C20.2,16.4,20.1,16.3,19.9,16.3z"/>
	<path class="st1" d="M8.6,17.5c0-0.2-0.5-0.4-0.8,0.1c-0.6,1.2-1.1,2.4-1.6,3.7c-0.2,0.5-0.4,1-0.6,1.6C5.1,22.7,4,22.5,4,23
		c0,0.1,0.3,0.2,0.6,0.2c-0.5,0.1-1.1,0.3-1,0.5c0,0.1,0.5,0,0.9,0c-0.3,0.2-0.5,0.4-0.4,0.5c0.1,0.3,1.7-0.6,1.9-0.6c0,0,0,0,0,0
		c0.3,0,0.5,0.1,0.7,0.1c0.1,0,0.4-0.4,0.2-0.5c-0.3-0.1-0.5-0.1-0.8-0.2c0.1-0.2,0.3-0.5,0.4-0.7c0.3-0.7,0.6-1.3,0.9-2
		c0.3-0.7,0.6-1.4,0.9-2C8.4,18.1,8.6,17.7,8.6,17.5z"/>
	<path class="st2" d="M11.9,18.1c0-0.2-0.4-0.5-0.6-0.1c-0.6,1.3-1.2,2.6-1.7,3.9c-0.2,0.5-0.4,1-0.6,1.6c-0.6-0.2-1.7-0.3-1.7,0.1
		c0,0.1,0.3,0.2,0.6,0.2c-0.5,0.1-1.1,0.3-1,0.5c0,0.1,0.5,0.1,0.9,0c-0.3,0.2-0.5,0.4-0.4,0.5C7.5,25,9,24.2,9.3,24.1c0,0,0,0,0,0
		c0.3,0,0.5,0.1,0.7,0.1c0.1,0,0.4-0.4,0.2-0.5c-0.3-0.1-0.5-0.1-0.8-0.2c0.1-0.2,0.3-0.5,0.4-0.7c0.3-0.7,0.6-1.3,0.9-2
		c0.3-0.7,0.6-1.4,0.9-2C11.7,18.7,11.9,18.3,11.9,18.1z"/>
	<path class="st3" d="M0.6,3.1C0.4,4.2,0.3,5.3,0.2,6.4c-0.2,2-0.3,4.1,0,6c0.4,2,1.3,4,2.9,5.2C4.7,18.7,6.7,19,8.6,19
		c2.6,0,5.2-0.5,7.5-1.7c0.8-0.4,2-1.4-0.5-4.2c-1.7-1.9-4.2-4.2-5.4-5.8c-1-1.4-1.5-4.2-2.5-5.6C6.1-0.5,1.4-1,0.6,3.1z"/>
	<g>
		<path class="st3" d="M1.3,1.9c0.2,0.2,0.3,0.6,0.1,0.8C1.3,2.9,1.1,3,0.9,3C0.7,3,0.5,2.8,0.4,2.6c-0.1-0.2-0.1-0.4,0-0.5
			C0.5,1.9,0.7,1.8,1,1.8C1.1,1.8,1.2,1.8,1.3,1.9z"/>
		<path class="st4" d="M5.6,2c0.2,0.2,0.2,0.5,0.1,0.7C5.6,2.8,5.5,2.9,5.3,2.9c-0.2,0-0.4-0.2-0.4-0.3c-0.1-0.1-0.1-0.3,0-0.4
			s0.3-0.2,0.4-0.2C5.5,1.9,5.6,1.9,5.6,2z"/>
		<path d="M5.6,2.4c0,0.1,0,0.1-0.1,0.1c-0.1,0.1-0.2,0.1-0.3,0S5.1,2.4,5.2,2.3c0-0.1,0.2-0.2,0.3-0.1C5.5,2.2,5.6,2.3,5.6,2.4z"/>
		<path class="st4" d="M1.3,2c0.2,0.2,0.2,0.5,0.1,0.7C1.2,2.8,1.1,2.9,0.9,2.9c-0.2,0-0.4-0.2-0.4-0.3c-0.1-0.1-0.1-0.3,0-0.4
			C0.6,2,0.8,1.9,1,1.9C1.1,1.9,1.2,1.9,1.3,2z"/>
		<path d="M1.2,2.4c0,0.1,0,0.1-0.1,0.1c-0.1,0.1-0.2,0.1-0.3,0C0.8,2.5,0.7,2.4,0.8,2.3c0-0.1,0.2-0.2,0.3-0.1
			C1.1,2.2,1.2,2.3,1.2,2.4z"/>
	</g>
	<g>
		<path class="st5" d="M1,7.5c0-0.1,0.2,0,0.2,0c0,0.1,0,0.4,0,0.6c0,0.1,0,0.2,0,0.3c0,0.1,0,0.1,0,0.1c0,0-0.1,0-0.1-0.1
			C1,8.4,1,8.3,1,8.2C0.9,8,1,7.7,1,7.5z"/>
		<path class="st5" d="M2.1,8.1c0-0.1,0.2,0,0.2,0c0,0.2,0,0.5,0,0.8c0,0.1,0,0.1,0,0.2c0,0.1,0,0.1,0,0.2c0,0.1,0,0.2,0,0.2
			c0,0-0.1,0-0.1-0.1c0,0,0-0.1-0.1-0.2c0-0.1,0-0.1-0.1-0.2C2.1,8.6,2.1,8.3,2.1,8.1z"/>
		<path class="st5" d="M0.3,9c0-0.1,0.2,0,0.2,0c0,0.1,0,0.4,0.1,0.6c0,0.1,0,0.1,0.1,0.2c0,0,0,0.1,0.1,0.1c0,0.1,0,0.1,0,0.1
			c0,0-0.1,0-0.1-0.1c0,0-0.1-0.1-0.1-0.1c0,0,0-0.1-0.1-0.2C0.3,9.5,0.3,9.2,0.3,9z"/>
		<path class="st5" d="M2.4,6.9c0,0,0.1,0,0.2,0c0,0.2,0.1,0.7,0,0.7C2.4,7.7,2.4,7.1,2.4,6.9z"/>
		<path class="st5" d="M3.2,7.6c0-0.1,0.1-0.1,0.2,0c0,0.3,0.1,0.9,0,1C3.3,8.6,3.2,7.9,3.2,7.6z"/>
		<path class="st5" d="M4.2,8.3c0-0.1,0.1-0.1,0.1,0c0.1,0.3,0.3,1,0.2,1C4.5,9.3,4.3,8.6,4.2,8.3z"/>
		<path class="st5" d="M3.8,9.2c0-0.1,0.2,0,0.2,0c0,0.1,0,0.4,0.1,0.6c0,0.2,0.1,0.4,0,0.4c0,0-0.1,0-0.1-0.1
			c0-0.1-0.1-0.2-0.1-0.3C3.8,9.6,3.8,9.3,3.8,9.2z"/>
		<path class="st5" d="M1.2,9.4c0-0.1,0.1-0.1,0.1,0c0.1,0.3,0.3,1.1,0.2,1.2C1.5,10.5,1.3,9.7,1.2,9.4z"/>
		<path class="st5" d="M2.8,10.1c0-0.1,0.1-0.1,0.1,0C3,10.3,3.2,11,3.1,11C3,11,2.8,10.3,2.8,10.1z"/>
		<path class="st5" d="M0.9,11.1c0-0.1,0.2,0,0.2,0c0,0.2,0,0.4,0.1,0.7c0,0.1,0,0.1,0,0.2c0,0.1,0,0.1,0,0.1c0,0.1,0,0.1,0,0.1
			c0,0-0.1,0-0.1-0.1c0,0,0-0.1-0.1-0.1c0-0.1,0-0.1-0.1-0.2C0.8,11.6,0.8,11.3,0.9,11.1z"/>
		<path class="st5" d="M2.1,11.5c0-0.1,0.1,0,0.2,0c0,0.1,0,0.4,0.1,0.7c0,0.1,0,0.1,0.1,0.2c0,0,0,0.1,0.1,0.1c0,0.1,0,0.1,0,0.1
			c0,0-0.1,0-0.1-0.1c0,0-0.1-0.1-0.1-0.1c0,0-0.1-0.1-0.1-0.2C2.1,12,2.1,11.7,2.1,11.5z"/>
		<path class="st5" d="M3.7,10.9c0-0.1,0.1-0.1,0.2,0c0,0.2,0.1,0.5,0.2,0.8c0,0.1,0.1,0.3,0.1,0.4c0,0.1,0,0.2,0,0.2
			c0,0-0.1,0-0.1-0.1c-0.1-0.1-0.1-0.2-0.2-0.4C3.8,11.5,3.7,11.1,3.7,10.9z"/>
		<path class="st5" d="M4.8,10.1c0,0,0.1-0.1,0.1,0c0.1,0.2,0.2,0.8,0.1,0.8C5,10.9,4.8,10.3,4.8,10.1z"/>
		<path class="st5" d="M5.3,9.2c0,0,0.1-0.1,0.1,0c0.1,0.2,0.2,0.8,0.1,0.8C5.5,9.9,5.4,9.4,5.3,9.2z"/>
		<path class="st5" d="M5,11.8c0,0,0.1-0.1,0.1-0.1c0.1,0.2,0.3,0.6,0.2,0.6C5.2,12.4,5.1,12,5,11.8z"/>
		<path class="st5" d="M5.8,10.8c0-0.1,0.2,0,0.2,0c0,0.1,0,0.4,0.1,0.6c0,0.1,0.1,0.2,0.1,0.3c0,0.1,0,0.1,0,0.1c0,0-0.1,0-0.1-0.1
			c0-0.1-0.1-0.2-0.1-0.3C5.8,11.2,5.8,10.9,5.8,10.8z"/>
		<path class="st5" d="M3.4,12.5c0-0.1,0.1-0.1,0.2,0c0,0.1,0.1,0.4,0.2,0.6c0,0,0,0.1,0.1,0.1c0,0,0,0.1,0.1,0.1c0,0.1,0,0.1,0,0.1
			c0,0-0.1,0-0.1-0.1c0,0-0.1-0.1-0.1-0.1c0,0-0.1-0.1-0.1-0.1C3.5,12.9,3.4,12.6,3.4,12.5z"/>
		<path class="st5" d="M1.6,13.1C1.5,13,1.7,13,1.7,13c0.1,0.3,0.5,1,0.4,1C2,14.1,1.7,13.3,1.6,13.1z"/>
		<path class="st5" d="M3,13.9c0,0,0.1-0.1,0.1-0.1c0.1,0.2,0.6,0.7,0.5,0.8C3.5,14.7,3.1,14.1,3,13.9z"/>
		<path class="st5" d="M4.5,13.1c0-0.1,0.1-0.1,0.1,0c0,0.1,0.1,0.3,0.2,0.5c0,0,0.1,0.1,0.1,0.1c0,0,0.1,0.1,0.1,0.1
			c0,0.1,0.1,0.1,0,0.1c0,0-0.1,0-0.1,0c0,0-0.1-0.1-0.1-0.1c0,0-0.1-0.1-0.1-0.1C4.6,13.5,4.5,13.3,4.5,13.1z"/>
		<path class="st5" d="M5.8,12.5c0-0.1,0.1-0.1,0.1,0c0,0.1,0.1,0.3,0.3,0.5c0.1,0.1,0.1,0.2,0.2,0.2c0,0.1,0.1,0.1,0,0.1
			c0,0-0.1,0-0.1-0.1c-0.1,0-0.1-0.1-0.2-0.2C5.9,12.9,5.8,12.7,5.8,12.5z"/>
		<path class="st5" d="M5.7,13.8c0-0.1,0.1-0.1,0.1-0.1c0.1,0.3,0.5,1,0.4,1C6.1,14.8,5.8,14.1,5.7,13.8z"/>
		<path class="st5" d="M6.7,12.9c0,0,0.1-0.1,0.1-0.1C7,13,7.3,13.5,7.2,13.5C7.1,13.6,6.8,13.1,6.7,12.9z"/>
		<path class="st5" d="M6.6,14.4c0,0,0.1-0.1,0.1-0.1c0.2,0.2,0.7,0.7,0.6,0.8C7.3,15.2,6.8,14.6,6.6,14.4z"/>
		<path class="st5" d="M4.5,14.8c0,0,0.1-0.1,0.1-0.1c0.2,0.2,0.6,0.7,0.5,0.8C5,15.5,4.6,15,4.5,14.8z"/>
		<path class="st5" d="M2.4,14.8c0-0.1,0.1-0.1,0.1-0.1c0.2,0.2,0.8,0.9,0.7,0.9C3.2,15.7,2.6,15,2.4,14.8z"/>
		<path class="st5" d="M1.4,14.5c0,0,0.1-0.1,0.1-0.1c0.1,0.2,0.5,0.7,0.5,0.7C1.9,15.3,1.5,14.7,1.4,14.5z"/>
		<path class="st5" d="M4.3,15.8c0-0.1,0.1-0.1,0.1-0.1c0.1,0.1,0.3,0.3,0.5,0.4c0,0,0.1,0.1,0.1,0.1c0,0,0.1,0,0.1,0.1
			c0.1,0,0.1,0.1,0.1,0.1c0,0-0.1,0-0.1,0c0,0-0.1,0-0.1,0c-0.1,0-0.1,0-0.2-0.1C4.6,16.2,4.4,15.9,4.3,15.8z"/>
		<path class="st5" d="M5.9,15.6c0,0,0.1-0.1,0.1-0.1c0.1,0.1,0.6,0.4,0.5,0.5C6.5,16,6.1,15.7,5.9,15.6z"/>
		<path class="st5" d="M8.1,15c0,0,0.1-0.1,0.1-0.1c0.2,0.1,0.7,0.5,0.6,0.6C8.8,15.5,8.3,15.1,8.1,15z"/>
		<path class="st5" d="M7.3,15.7c0,0,0.1-0.1,0.1-0.1c0,0.1,0.1,0.2,0.3,0.3c0,0,0.1,0,0.1,0.1c0,0,0.1,0,0.1,0c0,0,0.1,0.1,0.1,0.1
			c0,0,0,0-0.1,0c0,0-0.1,0-0.1,0c0,0-0.1,0-0.1-0.1C7.5,16,7.4,15.8,7.3,15.7z"/>
		<path class="st5" d="M6.4,16.5c0,0,0.1-0.1,0.1-0.1c0.1,0.1,0.2,0.2,0.3,0.3C6.9,16.8,7,16.9,7,16.9c0,0,0.1,0.1,0.1,0.1
			c0,0-0.1,0-0.1,0c-0.1,0-0.1-0.1-0.2-0.1C6.6,16.8,6.4,16.6,6.4,16.5z"/>
		<path class="st5" d="M3.3,16.3c0-0.1,0.1-0.1,0.1-0.1c0,0.1,0.2,0.3,0.3,0.4c0,0,0.1,0.1,0.1,0.1c0,0,0.1,0,0.1,0.1
			c0,0,0.1,0.1,0.1,0.1c0,0-0.1,0-0.1,0c0,0-0.1,0-0.1,0c0,0-0.1-0.1-0.1-0.1C3.4,16.7,3.3,16.4,3.3,16.3z"/>
		<path class="st5" d="M5.2,17.4c0,0,0.1-0.1,0.1-0.1c0.1,0.1,0.3,0.2,0.5,0.3c0.1,0.1,0.2,0.1,0.2,0.1c0.1,0,0.1,0.1,0.1,0.1
			c0,0-0.1,0-0.1,0c-0.1,0-0.2,0-0.3-0.1C5.5,17.6,5.3,17.5,5.2,17.4z"/>
		<path class="st5" d="M7.9,17c-0.1,0,0-0.2,0.1-0.1c0.2,0.1,0.5,0.2,0.8,0.2c0.1,0,0.1,0,0.2,0c0.1,0,0.1,0,0.2,0
			c0.1,0,0.2,0,0.2,0.1c0,0-0.1,0-0.2,0c-0.1,0-0.1,0-0.2,0c-0.1,0-0.1,0-0.2,0C8.4,17.2,8.1,17,7.9,17z"/>
		<path class="st5" d="M8.7,15.9c0,0,0.1-0.1,0.1-0.1c0.1,0.1,0.2,0.2,0.3,0.3c0,0,0.1,0,0.1,0.1c0,0,0.1,0,0.1,0
			c0,0,0.1,0.1,0.1,0.1c0,0,0,0-0.1,0c0,0-0.1,0-0.1,0c0,0-0.1,0-0.1,0C9,16.1,8.8,16,8.7,15.9z"/>
		<path class="st5" d="M7.3,17.8c-0.1,0,0-0.2,0-0.1c0.3,0.1,1,0.3,1,0.4C8.3,18.2,7.5,17.9,7.3,17.8z"/>
		<path class="st5" d="M9.7,16.8c0,0,0-0.2,0.1-0.1c0.2,0.1,0.7,0.2,0.6,0.3C10.4,17.1,9.9,16.9,9.7,16.8z"/>
		<path class="st5" d="M9.1,17.8c-0.1,0,0-0.2,0.1-0.1c0.1,0.1,0.3,0.2,0.5,0.2c0.1,0,0.2,0,0.3,0.1c0.1,0,0.1,0,0.1,0.1
			c0,0,0,0-0.1,0c-0.1,0-0.2,0-0.3,0C9.5,18,9.2,17.9,9.1,17.8z"/>
		<path class="st5" d="M8.2,18.6c0,0,0-0.2,0-0.2c0.2,0,0.7,0,0.7,0.1C8.9,18.6,8.4,18.6,8.2,18.6z"/>
	</g>
	<g>
		<path class="st6" d="M1.7,4.6C1.5,4.7,1.2,4.8,1,5c0.1-0.4,0.4-0.8,0.8-1c0.4-0.2,0.9-0.3,1.3-0.2c0,0.5-0.2,0.8-0.4,0.8
			C2.6,4.6,2.5,4.6,2.3,4.6C2.1,4.6,1.9,4.6,1.7,4.6z"/>
		<path class="st0" d="M1.6,3.1C1.4,3.2,0.6,3.5,1,5C1.6,4.3,2.8,4.1,2.9,4C3,4,3.1,3.9,3.1,3.8c0-0.2-0.1-0.4-0.3-0.4
			C2.4,3.1,2,3.1,1.6,3.1z"/>
		<path class="st6" d="M2.5,3.4c-0.1,0-0.2,0-0.3,0.1C2.1,3.5,2.1,3.6,2.1,3.8c0.1-0.1,0.2-0.1,0.3-0.1c0.1,0,0.1,0,0.2,0
			c0.1,0,0.1-0.1,0.1-0.1C2.6,3.4,2.6,3.4,2.5,3.4z"/>
		<path class="st6" d="M1.5,3.2c0,0-0.1,0.1-0.1,0.1c0,0.1,0,0.2-0.1,0.3c0.1-0.1,0.2-0.2,0.4-0.3c0,0,0,0,0.1,0c0,0,0,0,0-0.1
			c0,0,0,0-0.1,0C1.7,3.2,1.6,3.2,1.5,3.2z"/>
	</g>
	<path class="st0" d="M5.8,7.5c-0.1,2.6,1.6,5.2,4.1,6.2c2.5,1,5.5,0.2,7.2-1.8c0.1-0.2,0.3-0.4,0.2-0.6c-0.1-0.4-0.6-0.5-1-0.4
		c-1.6,0-3.1-0.6-4.2-1.8c-0.7-0.7-1.2-1.6-1.9-2.3c-0.7-0.6-1.7-1-2.6-1.1c-0.6,0-1.2,0.1-1.6,0.6C5.8,6.6,5.8,7.1,5.8,7.5z"/>
	<g>
		<path class="st6" d="M7.7,9.4c0.2,0.1,0.5,0.1,0.8,0c0.5-0.2,0.7-0.6,0.7-1c0.7,0.4,1.9-0.6,1-1.3c-0.1-0.1-0.3,0.1-0.3,0.1
			c0.3,0.2,0.4,0.5,0.3,0.8C10,8.7,9.2,8.3,9.1,7.9c0,0,0,0,0-0.1c0-0.1-0.3,0-0.3,0.1c0,0,0,0.1,0,0.1c0.1,0.3,0.1,0.7-0.1,1
			C8.5,9.5,7.8,9.4,7.6,8.9c0,0,0-0.1,0-0.1c0-0.1-0.3,0-0.3,0.1c0,0.1,0,0.1,0,0.2c0,0.2,0,0.3,0,0.5C7.2,10,6.6,9.9,6.7,9.4
			c0-0.1-0.3,0-0.3,0c0,0.4,0.3,0.6,0.7,0.5C7.4,9.9,7.6,9.6,7.7,9.4z"/>
		<path class="st6" d="M9.5,10.8c0.2,0.2,0.5,0.3,0.8,0.2c0.4-0.1,0.5-0.4,0.5-0.7c0.2,0.1,0.3,0.1,0.5,0.1c0.7-0.2,0.4-0.9,0-1.3
			C11.2,8.9,11,9,11,9c0.3,0.3,0.6,0.6,0.4,1c-0.2,0.5-0.7-0.2-0.7-0.2c0,0,0-0.1-0.1-0.1c0-0.1-0.1-0.2-0.2-0.3
			c0-0.1-0.3,0-0.3,0.1c0,0.1,0.1,0.2,0.1,0.3c0.1,0.3,0.2,0.5,0.1,0.8c-0.1,0.3-0.5,0.3-0.7,0.1c-0.2-0.1-0.4-0.4-0.5-0.6
			c0-0.1-0.3,0-0.3,0.1c0.2,0.4,0.3,0.8,0.1,1.2c-0.2,0.6-0.8,0.2-1,0c-0.2-0.1-0.3-0.4-0.4-0.6c0-0.1-0.3,0-0.3,0.1
			c0.3,0.6,0.8,1,1.5,0.8C9.4,11.6,9.5,11.2,9.5,10.8z"/>
		<path class="st6" d="M14.1,11c-0.1,0-0.3,0.1-0.2,0.1c0.8,0.2,0.7,1.5-0.1,1.3c0,0,0,0,0,0c0,0,0,0-0.1,0c0,0,0,0,0,0c0,0,0,0,0,0
			c-0.1,0-0.3,0.1-0.2,0.1c0,0,0.1,0,0.1,0c0.2,0.1,0.4,0.2,0.5,0.4c0.2,0.5-0.7,0.5-1.1,0.5c-0.1,0-0.3,0.1-0.2,0.1
			c0.4,0.1,1.1,0.2,1.4-0.2c0.3-0.4,0.2-0.6-0.1-0.8c0.2,0,0.4-0.1,0.5-0.3C15,11.8,14.6,11.1,14.1,11z"/>
		<path class="st6" d="M13.2,11.2c0.5-0.4-0.3-0.9-0.6-1c-0.1,0-0.3,0.1-0.2,0.2c0.2,0,0.3,0.1,0.5,0.2c0.5,0.4-0.4,0.7-0.7,0.5
			c-0.1,0-0.3,0.1-0.2,0.1c0.2,0.2,0.4,0.3,0.5,0.6c0,0.4-0.2,0.6-0.7,0.4c-0.1,0-0.1,0-0.1-0.1c-0.1-0.1-0.2-0.1-0.3-0.2
			c-0.1,0-0.3,0.1-0.2,0.1c0.1,0,0.1,0.1,0.2,0.1c0,0,0.1,0.1,0.1,0.1c0.4,0.4-0.2,0.7-0.6,0.7c-0.4,0-0.8-0.2-1.1-0.4
			c-0.1-0.1-0.3,0.1-0.3,0.1c0.5,0.4,1.2,0.6,1.9,0.4c0.2-0.1,0.4-0.2,0.5-0.5c0-0.1,0-0.2,0-0.2c0.2,0,0.4,0,0.6-0.1
			c0.4-0.3,0.3-0.7,0-1C12.7,11.4,12.9,11.4,13.2,11.2z"/>
	</g>
</g>
</svg>
