<?xml version="1.0" encoding="utf-8"?>
<!-- Generator: Adobe Illustrator 19.2.1, SVG Export Plug-In . SVG Version: 6.00 Build 0)  -->
<svg version="1.1" id="Layer_1" xmlns="http://www.w3.org/2000/svg" xmlns:xlink="http://www.w3.org/1999/xlink" x="0px" y="0px"
	 viewBox="0 0 93 84.5" style="enable-background:new 0 0 93 84.5;" xml:space="preserve">
<style type="text/css">
	.st0{fill:#CCC1B8;}
	.st1{fill:#EA888A;}
	.st2{fill:#FFA1A6;}
	.st3{fill:#E5DDD6;}
	.st4{fill:#B27246;}
	.st5{fill:#FFFFFF;}
	.st6{fill:#EF545C;}
	.st7{fill:#B23D43;}
</style>
<g>
	<path class="st0" d="M30.6,51c-1.3-0.2-4.6,0.3-6,0.1c1,10,4.7,28.5,5.6,33.1c0.1,0.4,0.6,0.5,0.8,0.2l1.2-1.8l2.1,1.8
		c0.3,0.3,0.8,0,0.7-0.4C34.5,79.2,32.3,60.7,30.6,51z"/>
	<g>
		<path class="st1" d="M29.5,71.4c-0.1-0.4-1.3-6.3-1-6.4c0.4-0.1,3,5.3,3.1,5.7c0.1,0.4,0.1,1-0.8,1.2C30,72.2,29.6,71.9,29.5,71.4
			z"/>
		<path class="st1" d="M33.9,69.7c-0.2-0.3-2.6-5.2-2.3-5.4c0.3-0.2,3.9,3.8,4.1,4.1c0.2,0.4,0.3,0.8-0.5,1.3
			C34.6,70.2,34.1,70,33.9,69.7z"/>
		<path class="st1" d="M24.9,71.7c0-0.4,0.5-6,0.9-6c0.4,0,1.4,5.5,1.3,6c0,0.4-0.2,0.9-1.1,0.9C25.1,72.6,24.9,72.2,24.9,71.7z"/>
		<path class="st1" d="M20.7,70.7c0.1-0.4,2.3-5.1,2.7-5c0.4,0.1-0.4,5.3-0.6,5.6c-0.2,0.4-0.5,0.7-1.3,0.4
			C20.7,71.5,20.6,71.1,20.7,70.7z"/>
	</g>
	<path class="st2" d="M22.3,67.4c1.3,0.7,2.8,0.8,4.3,0.7c1.9-0.1,3.8-0.4,5.4-1.2c3.1-1.7,4.8-5.6,3.9-9
		c-5.8,0.1-11.5-0.1-17.3-0.6c0,1.9,0,3.8,0.5,5.7S20.7,66.5,22.3,67.4z"/>
	<path class="st0" d="M62.1,51c1.3-0.2,4.6,0.3,6,0.1c-1,10-4.7,28.5-5.6,33.1c-0.1,0.4-0.6,0.5-0.8,0.2l-1.2-1.8l-2.1,1.8
		c-0.3,0.3-0.8,0-0.7-0.4C58.2,79.2,60.5,60.7,62.1,51z"/>
	<path class="st3" d="M46.2,52.4c1.3-0.2,5,0.2,6.3,0c1.3,9.6,1.9,27.3,2,31.6c0,0.4-0.5,0.5-0.8,0.2l-1.7-1.7l-1.7,1.7
		c-0.3,0.3-0.8,0-0.9-0.4C48.9,79.4,46.9,61.8,46.2,52.4z"/>
	<path class="st3" d="M19.4,51c-1.3-0.2-4.6,0.3-6,0.1c1,10,4.7,28.5,5.6,33.1c0.1,0.4,0.6,0.5,0.8,0.2l1.2-1.8l2.1,1.8
		c0.3,0.3,0.8,0,0.7-0.4C23.3,79.2,21.1,60.7,19.4,51z"/>
	<path d="M35.1,83.9c0,0.4-0.4,0.7-0.7,0.4l-2.1-1.8l-1.2,1.8c-0.2,0.3-0.7,0.2-0.8-0.2c-0.2-0.9-0.5-2.3-0.8-4
		c1.7-0.1,3.4-0.2,5.1-0.2C34.8,81.6,35,83,35.1,83.9z"/>
	<path d="M62.4,84.1c-0.1,0.4-0.6,0.5-0.8,0.2l-1.2-1.8l-2.1,1.8c-0.3,0.3-0.8,0-0.7-0.4c0.1-0.8,0.2-2,0.4-3.5
		c1.7,0.1,3.4,0.2,5,0.3C62.8,82.2,62.6,83.3,62.4,84.1z"/>
	<path d="M54.6,84.1c0,0.4-0.5,0.5-0.8,0.2l-1.7-1.7l-1.7,1.7c-0.3,0.3-0.8,0-0.9-0.4c-0.1-0.9-0.3-2.2-0.5-3.9
		c1.8,0.1,3.6,0.1,5.4,0.2C54.5,81.9,54.6,83.3,54.6,84.1z"/>
	<path d="M23.5,80.6c0.2,1.4,0.3,2.6,0.4,3.3c0,0.4-0.4,0.7-0.7,0.4l-2.1-1.8l-1.2,1.8c-0.2,0.3-0.7,0.2-0.8-0.2
		c-0.2-0.8-0.4-2-0.7-3.4C20.1,80.7,21.8,80.7,23.5,80.6z"/>
	<path class="st0" d="M17.1,8C17.5,8,19.2,7.7,19,8.5c-0.1,0.5-0.8,0.7-1.2,0.9c-0.6,0.2-1.2,0.4-1.7,0.7c-1,0.6-1.9,1.5-2.7,2.5
		c-1.6,2.1-2.6,4.5-3.4,7c-0.9,2.6-1.4,5.3-1.8,8c-0.4,2.7-0.4,5.4-0.4,8.1c0,2.7,0.1,5.4-0.7,7.9c-0.3,1.2-0.8,2.3-1.4,3.3
		c-0.2,0.2-1.4,2-1.7,1.7c-0.1-0.1,0.3-0.7,0.3-0.8c0.2-0.4,0.5-0.9,0.7-1.3c0.5-1,0.8-2.2,1-3.3c0.5-2.5,0.4-5,0.3-7.5
		c-0.1-2.7-0.1-5.4,0.3-8.1c0.4-2.7,0.9-5.4,1.7-8c0.8-2.4,1.8-4.9,3.2-7C12.9,10.5,14.7,8.6,17.1,8C17.8,7.8,16.7,8.1,17.1,8z"/>
	<path class="st4" d="M5.6,48.9c-0.2,0.4-0.6,0.7-1,0.9c-0.4,0.2-0.9,0.4-1.2,0.6c-0.1,0.1-0.3,0.2-0.4,0.4c-0.1,0.2-0.1,0.4,0,0.5
		c-0.3-0.3-0.5-0.7-0.5-1.1c-0.2,0.4-0.7,0.6-1.2,0.6S0.4,50.8,0,50.7c0.4-0.2,0.7-0.6,1-1c0.2-0.4,0.5-0.9,0.9-1.1
		c-0.2,0-0.3-0.1-0.5-0.1c0.2-0.5,0.4-1,0.6-1.4c0.3-0.4,0.6-0.8,1.1-1.1c0.5-0.2,1-0.3,1.5-0.1c0.3,0.2,0.6,0.5,0.8,0.8
		c0.2,0.3,0.3,0.7,0.3,1.1C5.8,48.2,5.8,48.5,5.6,48.9z"/>
	<path d="M93,5.3c-0.4,1.4-1.5,2.6-2.8,3.3c-1.3,0.7-2.8,0.8-4.3,0.7c-1.5-0.1-2.9-0.6-4.3-1.1c-0.4-0.1-0.8-0.3-1.1-0.6
		c-0.4-0.5-0.5-1.2-0.5-1.8c1.4-1,3-1.9,4.8-1.8c1.2,0.1,2.3,0.6,3.5,1c1.2,0.4,2.5,0.5,3.5-0.1c0.2-0.1,0.3-0.2,0.5-0.3
		s0.4,0,0.6,0.1C93.1,4.9,93,5.1,93,5.3z"/>
	<path class="st3" d="M15.7,7.5c5.7-6.2,19.6,6,48.4-2.3c7.8-2.3,13.5-2,18.8,4.2c5.2,6.2,13.2,27-0.4,29.6
		c-13.6,2.6-10.9-17.9-12.2-16.1c-1.3,1.8,2,24.9-5.1,34.4c-7.1,9.5-40.4,10-48.1,2.3S9.9,13.8,15.7,7.5z"/>
	<g>
		<path d="M75.5,23.4c0.6-1,1.2-1.9,1.8-2.9c0.9-1.4,1.7-2.8,1.7-4.4c0-1.8-1.1-3.4-2.6-4.4c-1.2-0.8-2.8-1.2-4.1-0.7
			c-1.3,0.5-0.6,2.3-1.5,3.5c-0.9,1.2-2.1,0.7-2.9,1.4c-0.8,0.7-1.4,1.8-1.3,2.9c0,1.1,0.8,2.2,1.9,2.4c0.8,0.2,1.8-0.1,2.6,0.3
			c0.7,0.4,1,1.1,1.3,1.8c0.3,0.7,0.9,1.4,1.7,1.3C74.7,24.5,75.2,23.9,75.5,23.4z"/>
		<path d="M45.6,16.5c3-0.3,5.5-2.6,6.8-5.3c0.6-1.2,1-2.4,1.3-3.7c-16.7,2.4-27.2-2-33.4-1.8c0.2,0.4,0.4,0.7,0.5,1.1
			c0.5,1.7,0.5,3.6,0.6,5.4c0.1,1.8,0.5,3.7,1.6,5.1c1.6,2.1,4.8,2.7,7.1,1.4c1.6-0.9,2.7-2.5,4.3-3.3
			C37.9,13.9,41.8,16.9,45.6,16.5z"/>
		<path d="M54.8,19.2c-2.1,0.4-4.3,0.6-6.1,1.7c-1.9,1.2-3.1,3.5-3.3,5.8c-0.1,2.3,0.7,4.6,2.2,6.4c0.8,0.9,1.7,1.8,2.3,2.9
			c0.6,1.2,0.8,2.7,1.6,3.8c1.1,1.6,3.2,2.1,5.1,2.3c2.6,0.2,5.6-0.3,7.2-2.4c1.1-1.4,1.3-3.3,1.2-5c-0.1-1.8-0.5-3.5-0.4-5.3
			c0-1.6,0.4-3.2,0.5-4.8c0.1-1.6-0.2-3.3-1.3-4.5c-1.1-1.2-2.7-1.6-4.3-1.6C57.9,18.6,56.4,19,54.8,19.2z"/>
		<path d="M41.8,20.8c-0.4-0.3-0.8-0.6-1.3-0.7c-0.5-0.1-1.1,0.1-1.6,0.4c-0.4,0.4-0.7,0.9-0.7,1.5c0,0.3,0,0.6-0.1,0.9
			c-0.1,0.3-0.3,0.6-0.4,0.9c-0.1,0.5,0.2,0.9,0.5,1.3c0.4,0.5,1,0.9,1.6,0.8c0.4-0.1,0.8-0.3,1.1-0.7c0.3-0.3,0.5-0.7,0.8-1
			c0.3-0.3,0.6-0.5,0.9-0.7c0.3-0.3,0.5-0.6,0.5-1c0-0.4-0.2-0.7-0.5-1C42.4,21.2,42.1,21.1,41.8,20.8z"/>
		<path d="M31.1,34.9c1.6-0.1,3-0.9,4.1-2.1c1-1.2,1.6-2.7,1.8-4.3c0.1-1.1,0.1-2.3-0.5-3.2c-1-1.6-3.2-1.9-5.1-2.1
			c-2.3-0.2-4.9-0.2-6.5,1.5c-0.8,0.9-1.2,2.2-1.1,3.5s0.6,2.4,1.3,3.4C26.4,33.6,28.7,35.1,31.1,34.9z"/>
		<path d="M41.7,29.2c-0.1-0.3-0.3-0.6-0.6-0.8c-0.3-0.2-0.7-0.2-1-0.2c-0.2,0-0.5,0.1-0.7,0.3c-0.3,0.3-0.3,0.8-0.2,1.2
			c0.1,0.5,0.2,1.1,0.6,1.3c0.2,0.1,0.5,0.2,0.8,0.1c0.3-0.1,0.5-0.2,0.7-0.4C41.6,30.3,41.8,29.7,41.7,29.2z"/>
		<path d="M23.6,34.9c-0.3,0-0.7,0.2-0.9,0.5c-0.2,0.3-0.4,0.6-0.4,0.9c0,0.2,0,0.5,0.1,0.7c0.2,0.4,0.7,0.4,1.1,0.5
			c0.5,0,1.1,0.1,1.4-0.3c0.2-0.2,0.3-0.5,0.2-0.8c0-0.3-0.1-0.5-0.3-0.8C24.6,35.2,24.1,34.9,23.6,34.9z"/>
		<path d="M15.3,38.9c-1.4-2.1-0.5-4.8-0.6-7.2c-0.1-2.5-1.3-4.9-3.2-6.5c-0.5,8.1-0.1,17.4,1.3,24.4c1,0.2,2,0.2,3,0
			c1.4-0.2,2.8-0.8,3.9-1.8c1-1,1.6-2.6,1.1-4C20,41.5,16.7,41,15.3,38.9z"/>
		<path d="M41.6,49.5c3-1.1,5.1-4.2,5-7.3c-0.1-3.2-2.6-6.1-5.7-6.7c-2.1-0.4-4.2,0.1-6.2,1c-2.1,0.9-4.1,2.2-5.5,4.1
			c-1.4,1.8-2.1,4.3-1.5,6.5c0.6,2.2,2.6,4.1,4.9,4.2c1.2,0,2.4-0.4,3.6-0.6C38.1,50.2,40,50.2,41.6,49.5z"/>
		<path d="M55.7,53c1.7-0.5,3.1-1.9,3.4-3.6c0.3-1.7-1-3.7-2.7-3.8c-1-0.1-2.1,0.4-3.1,0.1c-0.6-0.2-1-0.6-1.6-0.9
			c-0.5-0.3-1.2-0.5-1.7-0.1c-0.6,0.5-0.3,1.4-0.3,2.2c-0.1,0.9-0.6,1.7-1,2.5c-0.6,1.2-0.8,2.6-0.3,3.8c0.5,1.2,2,2.1,3.2,1.7
			c0.8-0.2,1.3-0.9,2.1-1.3C54.3,53.3,55,53.2,55.7,53z"/>
	</g>
	<g>
		<path class="st5" d="M72.5,19.6c-0.6-0.1-1.1-0.5-1.3-1.1c-0.2-0.6,0-1.2,0.5-1.6c0.5-0.3,1.1-0.3,1.6,0.1
			c0.4,0.3,0.6,0.9,0.6,1.4c0,0.3-0.1,0.7-0.3,0.9C73.3,19.6,72.9,19.7,72.5,19.6z"/>
		<path d="M72.9,18c0.2,0.2,0.3,0.5,0.1,0.8c-0.1,0.1-0.2,0.2-0.4,0.3c-0.3,0.1-0.6,0-0.8-0.2c-0.2-0.2-0.3-0.6-0.1-0.9
			c0.2-0.3,0.5-0.4,0.8-0.3C72.6,17.7,72.8,17.8,72.9,18z"/>
		<path class="st5" d="M85,17.3c-0.6-0.1-1.1-0.5-1.3-1.1c-0.2-0.6,0-1.2,0.5-1.6c0.5-0.3,1.1-0.3,1.6,0.1c0.4,0.3,0.6,0.9,0.6,1.4
			c0,0.3-0.1,0.7-0.3,0.9C85.9,17.3,85.4,17.3,85,17.3z"/>
		<path d="M85.4,15.6c0.1,0.2,0.2,0.4,0.1,0.6c-0.1,0.1-0.2,0.2-0.3,0.2c-0.2,0.1-0.5,0-0.7-0.2c-0.2-0.2-0.2-0.5-0.1-0.7
			c0.1-0.2,0.4-0.3,0.6-0.2C85.2,15.4,85.3,15.5,85.4,15.6z"/>
	</g>
	<path d="M58,10.8c0.7,1.3,2.1,2.1,3.6,2.4c1.4,0.3,2.9,0,4.3-0.5c1.4-0.5,2.6-1.4,3.8-2.2c0.3-0.2,0.7-0.5,0.9-0.9
		c0.3-0.6,0.1-1.3,0-1.9c-1.6-0.6-3.4-1-5.1-0.4c-1.1,0.4-2.1,1.2-3.1,1.9c-1,0.7-2.2,1.2-3.4,0.9c-0.2-0.1-0.4-0.1-0.6-0.1
		c-0.2,0-0.4,0.1-0.5,0.3C57.8,10.3,57.9,10.6,58,10.8z"/>
	<path class="st6" d="M59.9,12c1.8,0.9,3.4,0.7,5.3,0.3s3.7-1.6,4.9-3.1c-1.6-0.4-3.4-0.2-4.9,0.4c-0.7,0.3-1.3,0.7-2,0.9
		c-1.5,0.5-4.2,0.3-4.7,0.1S58.8,11.4,59.9,12z"/>
	<path class="st4" d="M71.6,9.2c0,0-2.3,1.9-3.5,1.8c-1-0.1-0.8-1.2-0.4-1.6c0.5-0.5,1.8-0.8,1.8-0.8s-1.7-0.5-2.4-1
		c-0.4-0.3-0.8-0.8-0.6-1.2c0.1-0.4,0.5-0.4,0.9-0.4c1,0,2,0,3,0.1c-0.7-0.5-1.3-1.4-1.6-2.5c-0.1-0.4-0.1-0.8,0-1.1
		c0.1-0.4,0.5-0.6,0.8-0.6c0.3,0,0.6,0.2,0.9,0.4c1,0.6,2.4,1.7,2.4,1.7s0.3-2.1,0.9-3.2c0.2-0.3,0.4-0.6,0.7-0.7
		c0.4-0.1,0.9,0.3,1.1,0.8c0.2,0.5,0.4,2.5,0.4,2.5s1.5-2.6,2.9-3.2c0.2-0.1,0.5-0.2,0.7,0c0.3,0.2,0.3,0.7,0.3,1.2
		c-0.1,1-1.1,2.7-1.1,2.7s2.3-1.4,3.6-1.7c0.6-0.1,1.3-0.1,1.6,0.5c0.3,0.5,0.1,1.2-0.2,1.6c-0.3,0.4-0.8,0.6-1.3,0.7
		c-0.5,0.1-1.4,0.4-1.4,0.4s1.2,0,1.8,0.3c0.2,0.1,0.5,0.4,0.4,0.7c0,0.3-0.3,0.4-0.5,0.4c-0.7,0.2-2,0-2,0s2.4,1.6,1.5,2.6
		c-0.9,1.1-4.9-1.3-4.9-1.3s0.9,1.6,0.2,2.3c-0.7,0.7-1.9-2-1.9-2s0,1,0,1.5c0,0.5-0.2,1.1-0.6,1.2c-0.4,0.1-0.8-0.2-1-0.7
		C73.9,10.2,74,9.2,74,9.2s-0.6,1-1.1,1.3c-0.4,0.3-1,0.5-1.4,0.2C71.1,10.3,71.6,9.2,71.6,9.2z"/>
	<path class="st1" d="M72,27.6c-0.8,1.3-0.9,2.9-0.9,4.4c0,2.2,0.4,4.6,1.9,6.3c1.5,1.7,3.8,2.5,6.1,2.8c3.4,0.3,7-0.5,9.9-2.3
		c1.4-0.9,2.7-2,3.3-3.5c0.5-1.3,0.5-2.7,0.5-4.1c0-2.3-0.1-4.7-0.9-6.9c-0.3-0.9-0.8-1.7-1.6-2.1c-0.9-0.5-2.1-0.4-3.2-0.2
		c-3.2,0.5-6.3,1.3-9.4,2.2C75.5,24.8,73.2,25.7,72,27.6z"/>
	<g>
		<path class="st1" d="M79.7,23.9c0.1,0.4,0,0.9-0.1,1.2c-0.3,0.7-1,1.1-1.7,1.1s-1.4-0.4-1.7-1.1c-0.3-0.6-0.3-1.4,0-2
			c0.3-0.5,1-0.7,1.6-0.7c0.5,0,1.1,0,1.5,0.4C79.5,23.1,79.6,23.5,79.7,23.9z"/>
		<path class="st6" d="M78.5,23.4c0.2,0.2,0.4,0.4,0.4,0.6c0.1,0.4,0,0.9-0.3,1.1c-0.3,0.3-0.8,0.3-1.2,0.2
			c-0.4-0.1-0.7-0.5-0.8-0.9c0-0.4,0.2-0.7,0.4-0.9c0.2-0.2,0.5-0.4,0.8-0.4C78.1,23.1,78.3,23.2,78.5,23.4z"/>
		<path class="st1" d="M88.4,21.6c0.1,0.4,0,0.9-0.1,1.2c-0.3,0.7-1,1.1-1.7,1.1c-0.7,0-1.4-0.4-1.7-1.1c-0.3-0.6-0.3-1.4,0-2
			c0.3-0.5,1-0.7,1.6-0.7c0.5,0,1.1,0,1.5,0.4C88.2,20.8,88.3,21.2,88.4,21.6z"/>
		<path class="st6" d="M87.2,21.2c0.2,0.2,0.4,0.4,0.4,0.6c0.1,0.4,0,0.9-0.3,1.1c-0.3,0.3-0.8,0.3-1.2,0.2
			c-0.4-0.1-0.7-0.5-0.8-0.9c0-0.4,0.2-0.7,0.4-0.9c0.2-0.2,0.5-0.4,0.8-0.4C86.8,20.8,87,21,87.2,21.2z"/>
	</g>
	<path class="st7" d="M75.6,33.5c-0.2-0.2-0.5-0.7-0.2-0.9c0.6-0.3,1.2,0.7,1.6,1c0.7,0.5,1.5,0.9,2.3,1.2c1.7,0.6,3.6,0.6,5.3,0
		c1.5-0.6,2.8-1.6,3.8-2.9c0.5-0.7,0.9-1.4,1.2-2.2c0.1-0.2,0.5-1.8,0.7-1.8c0.3,0,0,1.7-0.1,1.8c-0.2,0.9-0.6,1.7-1.1,2.5
		c-0.9,1.4-2.2,2.5-3.7,3.2C82.2,37,78,36.1,75.6,33.5C75.4,33.3,76.1,34,75.6,33.5z"/>
</g>
</svg>
