<?xml version="1.0" encoding="utf-8"?>
<!-- Generator: Adobe Illustrator 19.2.1, SVG Export Plug-In . SVG Version: 6.00 Build 0)  -->
<svg version="1.1" id="Layer_1" xmlns="http://www.w3.org/2000/svg" xmlns:xlink="http://www.w3.org/1999/xlink" x="0px" y="0px"
	 viewBox="0 0 52.8 86.4" style="enable-background:new 0 0 52.8 86.4;" xml:space="preserve">
<style type="text/css">
	.st0{fill:#87502B;}
	.st1{fill:#704121;}
	.st2{fill:#683818;}
	.st3{fill:#9B613A;}
	.st4{fill:#BC784A;}
	.st5{fill:#5C2400;}
	.st6{fill:#FFFFFF;}
	.st7{fill:#DDD3C5;}
	.st8{fill:#A5958B;}
</style>
<g>
	<path class="st0" d="M50.6,52.6c0.4-0.3,0.8-0.3,1.1-0.2c0.3,0.1,0.6,0.3,0.8,0.6c0.2,0.3,0.3,0.7,0.3,1c0,0.3-0.2,0.7-0.5,0.9
		c-1,0.7-2.2,1.5-3.7,2.3c-1.5,0.8-3.2,1.4-5,1.9c-0.9,0.3-1.9,0.5-2.9,0.6c-1,0.1-2,0.3-3,0.3c-2,0.1-4.1-0.1-6-0.5
		c-1.9-0.4-3.7-1-5.2-1.8c-1.6-0.7-2.9-1.6-3.9-2.4c-0.3-0.2-0.5-0.4-0.7-0.6c-0.2-0.2-0.4-0.4-0.6-0.6c-0.4-0.4-0.7-0.7-0.9-1
		c-0.4-0.6-0.6-1-0.4-1.2c0.3-0.4,1.7,0.5,3.8,1.6c1.1,0.5,2.3,1.1,3.8,1.7c1.4,0.5,3.1,1,4.8,1.3c3.4,0.6,7.2,0.5,10.5-0.4
		c1.6-0.4,3.2-1,4.5-1.6C48.6,53.9,49.7,53.3,50.6,52.6z"/>
	<path class="st1" d="M9.8,24.2c2.5-1.1,2,0.4,0.6,3c-1,1.8-3.6,6.1-2.1,8.9c1.4,2.5,4.7,4.1,6.9,5.7c0.4-0.3,0.9-0.6,1.3-0.9
		c0.4-0.3,0.9-0.9,1.5-0.9c1.4,0-0.5,2.2-0.9,2.5c0.7,0.2,1.5,0.5,2.1,0.8c0.4,0.2,1.1,0.4,1.3,0.9c0.5,1.1-2.6,0.3-2.9,0.2
		c0.3,0.4,1.8,2,0.4,2c-0.9,0-1.8-0.9-2.2-1.6c0,0.4,0,0.9-0.3,1.2c-0.5,0.4-1-0.2-1.2-0.7c-0.2-0.6-0.3-1.2-0.2-1.7
		c-0.6-0.4-1.1-0.7-1.6-1.2c-2.1-1.5-5-3.1-6.3-5.4C4.1,33,8.1,24.9,9.8,24.2z"/>
	<path class="st2" d="M31.6,81.2c0.7-0.1,1.3-0.7,1.5-1.4c0.2-0.7,0.2-1.5,0.2-2.2c-0.3-6.9-2.1-13.5-3.5-20.3
		c0.3,0,1.6-0.2,1.8-0.3c3.2,10.2,3.8,22,3.7,23.4c0,1.4-0.4,2.8-1.2,4c-0.8,1.2-2.2,2-3.6,1.9c-1.4,0-2.8-1.1-3-2.5
		c-0.2-1.4,0.9-2.9,2.3-2.9C30.5,81.1,31,81.3,31.6,81.2z"/>
	<path class="st2" d="M12.8,80.7c-0.2,1.1-0.4,2.3-0.9,3.3c-0.5,1-1.5,1.9-2.6,2.1c-1.5,0.3-3.1-0.8-3.4-2.3
		c-0.3-1.5,0.8-3.1,2.3-3.4c0.5-0.1,1.1-0.1,1.5-0.4c0.4-0.3,0.6-0.9,0.7-1.4c1.3-5.4,1.9-23.3,1.9-23.3l0.9-0.1
		C13.3,55.2,14.1,72.2,12.8,80.7z"/>
	<path class="st2" d="M13.9,1c-0.5-0.7-1.4-1-2.3-1c-0.9,0-1.7,0.4-2.5,0.9c-1.7,1-3,2.5-4.2,4C4.2,5.7,3.4,6.5,2.7,7.4
		C2.5,7.6,2.3,7.9,2.2,8.3c0,0.5,0.5,0.8,0.9,1c1.2,0.4,2.6-0.2,3.6-1c1-0.8,1.7-2,2.7-2.9c0.6-0.7,1.4-1.2,2.3-1.3
		c0.9-0.1,1.9,0.6,2,1.5c0.6-0.3,1.1-0.6,1.7-1C14.4,3.7,14.7,2.1,13.9,1z"/>
	<path class="st3" d="M35.4,26.2c-0.6-3-1.4-5.9-2.7-8.6c-1.3-2.5-6.2-11.7-7.6-13.2c-1.8-2-4.8-2.3-7.5-1.9
		c-1.2,0.2-2.4,0.5-3.4,1.3c-2.4,1.9-2.6,5.7-4.9,7.7c-1.5,1.3-3.5,1.7-5.5,2l-2.5,0.4c-0.6,0.1-1.1,0.6-1.2,1.2
		c-0.3,1.8-0.4,3.7,0.4,5.3c0.7,1.6,2.2,2.7,3.7,3.4c1.6,0.7,3.3,1,5,1.1c0.2,0,0.5,0,0.7,0.1c-0.7,3.9-0.9,7.9-1.2,11.9
		C8.5,42.6,8.1,48.5,8,54.3c0,1.9,0,4,1.3,5.4c1.5,1.7,4,1.8,6.3,1.8c3.8,0,7.7-0.1,11.5-0.1c1.7,0,3.5-0.1,5-1
		c1.7-1.1,2.4-3.2,2.9-5.1C37.5,45.8,37.3,35.8,35.4,26.2z"/>
	<path class="st4" d="M19.6,25c-1.3,0-2.6,0-3.7,0.6c-1,0.6-1.7,1.6-2.2,2.7c-2.4,5.1-1.9,11-2.1,16.6c-0.1,2.1-0.2,4.3,0.6,6.2
		c0.8,1.9,2.5,3.4,4.4,4.1c1.9,0.8,4,1,6.1,0.8c2.2-0.1,4.6-0.7,5.9-2.6c0.6-0.9,0.9-2.1,1.1-3.2c1.1-5.9,1.1-11.9,0.1-17.8
		c-0.3-1.8-0.8-3.7-2.1-5c-1-1.1-2.4-1.7-3.8-2C22.5,25.1,21.1,25,19.6,25z"/>
	<g>
		<path class="st5" d="M31,32.2c0-0.1,0.2-0.1,0.2,0c0,0.4-0.1,1.6-0.2,1.6C30.9,33.8,31,32.7,31,32.2z"/>
		<path class="st5" d="M13.7,25.2c0-0.1,0.2,0,0.2,0c0,0.3-0.1,1-0.2,1C13.6,26.2,13.7,25.5,13.7,25.2z"/>
		<path class="st5" d="M12.5,25.7c0-0.1,0.2-0.1,0.2,0c0,0.5-0.1,1.8-0.2,1.8C12.3,27.4,12.5,26.1,12.5,25.7z"/>
		<path class="st5" d="M10.7,25.1c0-0.1,0.2,0,0.2,0c0,0.3,0,1.2-0.1,1.2C10.7,26.3,10.7,25.5,10.7,25.1z"/>
		<path class="st5" d="M31.9,30.8c0-0.1,0.2,0,0.2,0c0,0.3-0.1,1.1-0.2,1.1C31.8,31.8,31.9,31.1,31.9,30.8z"/>
		<path class="st5" d="M12.3,28.4c0-0.1,0.2,0,0.2,0c0,0.3-0.1,1.3-0.2,1.3C12.2,29.7,12.3,28.8,12.3,28.4z"/>
		<path class="st5" d="M11.6,27.4c0-0.1,0.2,0,0.2,0c0,0.3-0.1,1.1-0.2,1.1C11.4,28.5,11.5,27.7,11.6,27.4z"/>
		<path class="st5" d="M10,28c0-0.1,0.2-0.1,0.2,0c0,0.4,0,1.3-0.1,1.3C9.9,29.3,10,28.3,10,28z"/>
		<path class="st5" d="M11.5,30c0-0.1,0.2,0,0.2,0c0,0.4-0.1,1.3-0.2,1.3C11.4,31.3,11.4,30.4,11.5,30z"/>
		<path class="st5" d="M32.2,47.5c0-0.1,0.2-0.1,0.2,0c0,0.4-0.1,1.6-0.2,1.6C32,49.1,32.1,47.9,32.2,47.5z"/>
		<path class="st5" d="M10.1,31.4c0-0.1,0.2-0.1,0.2,0c0,0.4-0.1,1.7-0.2,1.7C10,33,10.1,31.8,10.1,31.4z"/>
		<path class="st5" d="M11.1,32.9c0-0.1,0.2-0.1,0.2,0c0,0.4,0,1.7-0.1,1.7C11.1,34.6,11.1,33.4,11.1,32.9z"/>
		<path class="st5" d="M31.8,33.8c0-0.1,0.2,0,0.2,0c0,0.3,0.1,1,0,1C31.8,34.7,31.8,34,31.8,33.8z"/>
		<path class="st5" d="M31.2,35.5c0-0.1,0.2-0.1,0.2,0c0,0.3,0,1.2-0.1,1.2C31.2,36.7,31.2,35.8,31.2,35.5z"/>
		<path class="st5" d="M10.3,35.4c0-0.1,0.2-0.1,0.2,0c0,0.4,0.1,1.5,0,1.6C10.4,36.9,10.3,35.8,10.3,35.4z"/>
		<path class="st5" d="M32.5,35.8c0-0.1,0.2-0.1,0.2,0c0,0.4,0.1,1.3,0,1.4C32.6,37.1,32.5,36.1,32.5,35.8z"/>
		<path class="st5" d="M9.4,37.9c0-0.1,0.2,0,0.2,0c0,0.3,0,1.1-0.1,1.1C9.4,39,9.4,38.2,9.4,37.9z"/>
		<path class="st5" d="M11.1,38.5c0-0.1,0.2,0,0.2,0c0,0.3,0,1.1-0.1,1.1C11,39.6,11,38.8,11.1,38.5z"/>
		<path class="st5" d="M32.1,38.4c0-0.1,0.2,0,0.2,0c0,0.3,0,1-0.1,1C32.1,39.4,32.1,38.7,32.1,38.4z"/>
		<path class="st5" d="M31.2,39.7c0-0.1,0.2,0,0.2,0c0,0.3,0,1-0.1,1C31.2,40.7,31.2,39.9,31.2,39.7z"/>
		<path class="st5" d="M9.6,34.5c0-0.1,0.2,0,0.2,0c0,0.3,0,1.2-0.1,1.2C9.5,35.7,9.6,34.8,9.6,34.5z"/>
		<path class="st5" d="M10.3,39.9c0-0.1,0.2,0,0.2,0c-0.1,0.4-0.2,1.3-0.3,1.3C10,41.2,10.3,40.3,10.3,39.9z"/>
		<path class="st5" d="M9.2,40.6c0-0.1,0.2-0.1,0.2,0c0,0.6,0.1,2.2,0,2.2C9.2,42.8,9.2,41.2,9.2,40.6z"/>
		<path class="st5" d="M10.1,43c0-0.1,0.2-0.1,0.2,0c0,0.3,0.1,1.1,0,1.1C10.1,44.1,10,43.3,10.1,43z"/>
		<path class="st5" d="M11,40.9c0-0.1,0.2-0.1,0.2,0c0,0.3,0,1.2-0.1,1.2C11,42.1,11,41.2,11,40.9z"/>
		<path class="st5" d="M32.1,40.6c0-0.1,0.1-0.1,0.2,0c0.1,0.4,0.2,1.5,0.1,1.6C32.3,42.1,32.1,41,32.1,40.6z"/>
		<path class="st5" d="M31.3,42.8c0-0.1,0.2-0.1,0.2,0c0,0.4,0,1.7-0.1,1.7C31.2,44.5,31.2,43.3,31.3,42.8z"/>
		<path class="st5" d="M8.9,44.6c0,0,0.2,0,0.2,0c0,0.2,0,0.8-0.1,0.8C8.9,45.3,8.9,44.8,8.9,44.6z"/>
		<path class="st5" d="M10.6,45.2c0-0.1,0.2-0.1,0.2,0c0,0.5,0.1,1.7,0,1.7C10.6,46.9,10.6,45.6,10.6,45.2z"/>
		<path class="st5" d="M32.3,44.2c0-0.1,0.2-0.1,0.2,0c0,0.5,0,1.7-0.1,1.7C32.2,45.9,32.3,44.7,32.3,44.2z"/>
		<path class="st5" d="M31.3,45.9c0-0.1,0.2-0.1,0.2,0c0,0.4,0,1.3-0.1,1.3S31.3,46.3,31.3,45.9z"/>
		<path class="st5" d="M9.3,46.5c0-0.1,0.2-0.1,0.2,0c0,0.3,0,1.2-0.1,1.2C9.3,47.7,9.3,46.8,9.3,46.5z"/>
		<path class="st5" d="M9,49.1c0-0.1,0.2-0.1,0.2,0c0,0.3,0.1,1.3,0,1.3C9.1,50.4,9,49.5,9,49.1z"/>
		<path class="st5" d="M10.4,48.6c0-0.1,0.2-0.1,0.2,0c0,0.4,0.1,1.5,0,1.5C10.4,50.2,10.4,49,10.4,48.6z"/>
		<path class="st5" d="M11.4,51.2c0-0.1,0.2-0.1,0.2,0c0,0.5,0.1,1.7,0,1.7C11.5,52.9,11.4,51.6,11.4,51.2z"/>
		<path class="st5" d="M10.2,51.8c0,0,0.2-0.1,0.2,0c0,0.2,0.1,0.8,0,0.8C10.2,52.6,10.2,52,10.2,51.8z"/>
		<path class="st5" d="M9,52.1c0-0.1,0.2-0.1,0.2,0c0,0.6,0.1,2.2,0,2.2C9,54.3,9,52.7,9,52.1z"/>
		<path class="st5" d="M10.3,54.1c0-0.1,0.1-0.1,0.2,0c0.1,0.4,0.5,1.5,0.3,1.6C10.7,55.7,10.4,54.5,10.3,54.1z"/>
		<path class="st5" d="M9.5,56.7c0-0.1,0.1-0.1,0.1-0.1c0.1,0.2,0.5,0.9,0.4,1C10,57.6,9.6,56.9,9.5,56.7z"/>
		<path class="st5" d="M12.3,53.7c0-0.1,0.1-0.1,0.2,0c0,0.1,0.1,0.3,0.1,0.4c0,0,0,0.1,0.1,0.1c0,0,0,0.1,0.1,0.1l0,0.1
			c0,0,0,0,0,0.1c0,0,0,0.1,0.1,0.1c0,0.1,0.1,0.2,0.1,0.2c0,0.1,0.1,0.1,0.1,0.2c0.1,0.1,0.1,0.2,0.1,0.2c0,0-0.1,0-0.2-0.1
			c0,0-0.1-0.1-0.2-0.2c-0.1-0.1-0.1-0.1-0.2-0.2c0,0-0.1-0.1-0.1-0.1c0,0,0,0,0-0.1l0-0.1c0,0,0-0.1-0.1-0.1c0,0,0-0.1-0.1-0.1
			C12.4,54,12.3,53.8,12.3,53.7z"/>
		<path class="st5" d="M13.4,53.7c0,0,0.1-0.1,0.1-0.1c0.2,0.2,0.8,0.7,0.8,0.8C14.2,54.5,13.6,53.9,13.4,53.7z"/>
		<path class="st5" d="M15.2,55.1c-0.1-0.1,0-0.2,0.1-0.1c0.1,0.1,0.2,0.1,0.3,0.2c0,0,0.1,0,0.1,0c0,0,0.1,0,0.1,0l0.1,0
			c0,0,0,0,0.1,0c0,0,0.1,0,0.1,0c0.1,0,0.1,0,0.2,0c0.1,0,0.1,0,0.2,0c0.1,0,0.2,0,0.2,0.1c0,0-0.1,0-0.2,0.1c-0.1,0-0.1,0-0.2,0
			c-0.1,0-0.1,0-0.2,0c0,0-0.1,0-0.1,0c0,0,0,0-0.1,0l-0.1,0c0,0-0.1,0-0.1,0c0,0-0.1,0-0.1-0.1C15.4,55.2,15.3,55.1,15.2,55.1z"/>
		<path class="st5" d="M12.1,56.2c0,0,0.1-0.1,0.1-0.1c0.2,0.2,0.8,0.6,0.7,0.7C12.9,56.9,12.3,56.4,12.1,56.2z"/>
		<path class="st5" d="M11.5,56.9c0-0.1,0.1-0.1,0.2,0c0,0.1,0.1,0.2,0.1,0.3c0,0,0,0.1,0.1,0.1c0,0,0,0.1,0.1,0.1
			c0,0.1,0.1,0.1,0.1,0.2c0,0.1,0.1,0.1,0.1,0.2c0,0,0.1,0.1,0.1,0.1c0.1,0.1,0.1,0.1,0.1,0.1c0,0-0.1,0-0.2,0c0,0-0.1-0.1-0.1-0.1
			c-0.1,0-0.1-0.1-0.2-0.1c0-0.1-0.1-0.1-0.1-0.2c0,0,0-0.1-0.1-0.1c0,0,0-0.1-0.1-0.1C11.5,57.2,11.5,57,11.5,56.9z"/>
		<path class="st5" d="M9.8,59.1C9.8,59,10,59,10,59.1c0,0.1,0.1,0.2,0.1,0.3c0,0,0,0,0.1,0.1c0,0,0,0,0.1,0.1l0,0c0,0,0,0,0,0
			c0,0,0,0,0.1,0.1c0,0,0,0,0.1,0.1c0,0,0,0,0.1,0c0,0,0.1,0.1,0.1,0.1c0.1,0,0.1,0.1,0.1,0.1c0,0-0.1,0-0.2,0c0,0-0.1,0-0.1-0.1
			c0,0-0.1,0-0.1,0c0,0-0.1,0-0.1-0.1c0,0-0.1,0-0.1-0.1c0,0,0,0,0,0l0,0c0,0,0-0.1-0.1-0.1c0,0,0-0.1-0.1-0.1
			C9.9,59.3,9.9,59.2,9.8,59.1z"/>
		<path class="st5" d="M12.1,59.7c-0.1-0.1,0-0.2,0.1-0.1c0.1,0.1,0.3,0.2,0.5,0.2c0,0,0.1,0,0.2,0.1c0.1,0,0.1,0,0.2,0.1l0.1,0
			c0,0,0.1,0,0.1,0c0.1,0,0.1,0,0.2,0c0.1,0,0.2,0.1,0.3,0.1c0.1,0,0.2,0,0.3,0.1c0.1,0,0.2,0.1,0.2,0.1c0,0-0.1,0-0.2,0
			c-0.1,0-0.2,0-0.3,0c-0.1,0-0.2,0-0.3-0.1c-0.1,0-0.1,0-0.2,0c0,0-0.1,0-0.1,0l-0.1,0c-0.1,0-0.1,0-0.2-0.1c-0.1,0-0.1,0-0.2-0.1
			C12.4,59.9,12.2,59.8,12.1,59.7z"/>
		<path class="st5" d="M14.8,57.8c-0.1,0-0.1-0.2,0-0.2c0.4,0,1.5,0.1,1.5,0.2S15.2,57.8,14.8,57.8z"/>
		<path class="st5" d="M14,58.8c-0.1,0,0-0.2,0-0.2c0.3,0,1.1,0.1,1.1,0.2C15.1,58.9,14.3,58.8,14,58.8z"/>
		<path class="st5" d="M14,56.2c-0.1-0.1,0-0.2,0.1-0.1c0.5,0.2,1.8,0.9,1.8,1C15.8,57.1,14.5,56.4,14,56.2z"/>
		<path class="st5" d="M17.7,55.4c-0.1,0,0-0.2,0-0.2c0.4,0.1,1.4,0.4,1.4,0.5C19.1,55.8,18.1,55.5,17.7,55.4z"/>
		<path class="st5" d="M18.3,57.1c-0.1,0-0.1-0.2,0-0.2c0.5,0.1,1.9,0.3,1.9,0.4C20.2,57.5,18.8,57.2,18.3,57.1z"/>
		<path class="st5" d="M17.4,58.4c-0.1,0,0-0.2,0-0.2c0.3,0,1,0,1,0.1C18.4,58.5,17.7,58.5,17.4,58.4z"/>
		<path class="st5" d="M16,59.5c-0.1,0-0.1-0.2,0-0.2c0.4,0,1.6,0,1.6,0.1C17.6,59.6,16.4,59.5,16,59.5z"/>
		<path class="st5" d="M15.6,60.5c-0.1,0,0-0.2,0-0.2c0.2,0,0.9,0,0.9,0.1C16.4,60.6,15.8,60.6,15.6,60.5z"/>
		<path class="st5" d="M18.7,60.5c-0.1,0,0-0.2,0-0.2c0.3,0,1.1,0,1.1,0.1C19.8,60.5,19,60.5,18.7,60.5z"/>
		<path class="st5" d="M20,58.9c-0.1,0-0.1-0.2,0-0.2c0.3,0,1.1-0.1,1.1,0C21.1,58.8,20.3,58.9,20,58.9z"/>
		<path class="st5" d="M20.9,56.3c-0.1,0,0-0.2,0-0.2c0.3,0,1.1,0,1.1,0.1C22,56.3,21.2,56.3,20.9,56.3z"/>
		<path class="st5" d="M22.7,57.6c-0.1,0-0.1-0.2,0-0.2c0.3,0,1.3-0.1,1.3,0C24,57.6,23.1,57.6,22.7,57.6z"/>
		<path class="st5" d="M25,56.3c-0.1,0-0.1-0.2,0-0.2c0.4,0,1.4-0.2,1.4-0.1C26.4,56.2,25.4,56.3,25,56.3z"/>
		<path class="st5" d="M26,57.2c0,0,0-0.2,0-0.2c0.2,0,0.8-0.1,0.8,0C26.8,57.2,26.2,57.2,26,57.2z"/>
		<path class="st5" d="M22.1,58.8c-0.1,0,0-0.2,0-0.2c0.4,0,1.4,0.1,1.4,0.2C23.5,58.9,22.5,58.9,22.1,58.8z"/>
		<path class="st5" d="M25,58.8c-0.1,0-0.1-0.2,0-0.2c0.2,0,0.8-0.1,0.8,0C25.8,58.7,25.2,58.8,25,58.8z"/>
		<path class="st5" d="M20.9,60.1c-0.1,0,0-0.2,0-0.2c0.2,0,0.9,0,0.9,0.1C21.8,60.2,21.2,60.1,20.9,60.1z"/>
		<path class="st5" d="M23.3,60.1c-0.1,0,0-0.2,0-0.2c0.3,0,1,0,1,0.1C24.3,60.2,23.6,60.2,23.3,60.1z"/>
		<path class="st5" d="M25.7,60.2c-0.1,0-0.1-0.2,0-0.2c0.3,0,1.3-0.1,1.3,0S26,60.2,25.7,60.2z"/>
		<path class="st5" d="M28.6,59.8c-0.1,0-0.1-0.1,0-0.2c0.2-0.1,0.9-0.3,0.9-0.2C29.5,59.6,28.9,59.8,28.6,59.8z"/>
		<path class="st5" d="M28,58.5c-0.1,0-0.1-0.1-0.1-0.1c0.3-0.1,1-0.4,1-0.3C29,58.1,28.2,58.4,28,58.5z"/>
		<path class="st5" d="M28.7,56.7c-0.1,0-0.1-0.1-0.1-0.1c0.2-0.1,0.8-0.5,0.9-0.4C29.6,56.3,28.9,56.6,28.7,56.7z"/>
		<path class="st5" d="M30.1,57.7c-0.1,0-0.1-0.1-0.1-0.1c0.2-0.2,0.8-0.6,0.9-0.5C30.9,57.1,30.3,57.5,30.1,57.7z"/>
		<path class="st5" d="M31,58.5c-0.1,0-0.1-0.1-0.1-0.1c0.3-0.1,0.9-0.5,1-0.4C32,58,31.3,58.4,31,58.5z"/>
		<path class="st5" d="M31.5,59.8c-0.1,0-0.1-0.1-0.1-0.1c0.3-0.2,0.9-0.8,1-0.7C32.5,59,31.7,59.5,31.5,59.8z"/>
		<path class="st5" d="M33.6,57.2c0,0.1-0.2,0-0.2,0c0.1-0.3,0.4-1.2,0.5-1.1C34,56,33.7,56.9,33.6,57.2z"/>
		<path class="st5" d="M32.5,56.6c0,0.1-0.2,0-0.1-0.1c0.1-0.3,0.5-1.1,0.6-1C33.1,55.6,32.7,56.3,32.5,56.6z"/>
		<path class="st5" d="M31.3,55.6c0,0.1-0.2,0-0.1-0.1c0.2-0.3,0.6-1.2,0.7-1.1C31.9,54.5,31.4,55.3,31.3,55.6z"/>
		<path class="st5" d="M29.5,54.5c-0.1,0.1-0.1-0.1-0.1-0.1c0.3-0.2,1-0.9,1-0.8C30.5,53.6,29.8,54.2,29.5,54.5z"/>
		<path class="st5" d="M30.7,52.6c0,0.1-0.2,0-0.1-0.1c0.2-0.3,0.6-1.2,0.7-1.1S30.9,52.3,30.7,52.6z"/>
		<path class="st5" d="M31.8,53.1c0,0.1-0.2,0-0.1-0.1c0.1-0.2,0.3-0.9,0.4-0.8C32.1,52.2,31.9,52.8,31.8,53.1z"/>
		<path class="st5" d="M30,55.2c0,0-0.1-0.1-0.1-0.1c0.2-0.1,0.6-0.5,0.7-0.4C30.6,54.7,30.2,55.1,30,55.2z"/>
		<path class="st5" d="M28,55.7c0,0-0.1-0.1-0.1-0.1c0.2-0.1,0.6-0.5,0.7-0.4C28.6,55.3,28.2,55.6,28,55.7z"/>
		<path class="st5" d="M27.7,60.9c-0.1,0,0-0.2,0-0.2c0.3,0,1,0,1,0.1C28.7,60.9,28,60.9,27.7,60.9z"/>
		<path class="st5" d="M24.9,61.1c0,0,0-0.2,0-0.2c0.2,0,0.8-0.1,0.8,0C25.7,61,25.1,61.1,24.9,61.1z"/>
		<path class="st5" d="M22,60.9c-0.1,0-0.1-0.2,0-0.2c0.3,0,1.2,0,1.2,0.1C23.2,60.9,22.3,60.9,22,60.9z"/>
		<path class="st5" d="M33.6,52.2c0-0.1,0.2,0,0.2,0c-0.1,0.3-0.2,1-0.3,1C33.3,53.3,33.5,52.5,33.6,52.2z"/>
		<path class="st5" d="M34.5,52.9c0-0.1,0.2,0,0.2,0c0,0.4-0.1,1.5-0.3,1.5S34.4,53.3,34.5,52.9z"/>
		<path class="st5" d="M33.2,49.6c0-0.1,0.2,0,0.2,0c0,0.3,0,1.1-0.1,1.1C33.2,50.7,33.2,49.9,33.2,49.6z"/>
		<path class="st5" d="M31.2,49.5c0-0.1,0.2,0,0.2,0c0,0.3,0,1.1-0.1,1.1C31.2,50.6,31.2,49.8,31.2,49.5z"/>
		<path class="st5" d="M32.8,53.5c0-0.1,0.2,0,0.2,0c0,0.3-0.2,1.1-0.3,1.1C32.6,54.5,32.7,53.7,32.8,53.5z"/>
		<path class="st5" d="M35,50.5c0-0.1,0.2,0,0.2,0c0,0.2-0.1,0.9-0.2,0.9C34.8,51.4,34.9,50.7,35,50.5z"/>
		<path class="st5" d="M32.4,50.1c0-0.1,0.2,0,0.2,0c0,0.2,0,0.9-0.1,0.9C32.4,51,32.4,50.3,32.4,50.1z"/>
		<path class="st5" d="M30.4,50.7c0-0.1,0.2,0,0.2,0c0,0.2,0,0.9-0.1,0.9C30.3,51.6,30.3,50.9,30.4,50.7z"/>
		<path class="st5" d="M30.8,47.9c0-0.1,0.2,0,0.2,0c0,0.2,0,0.9-0.1,0.9C30.7,48.8,30.7,48.1,30.8,47.9z"/>
		<path class="st5" d="M33.4,46.6c0-0.1,0.1-0.1,0.2,0c0,0.5,0.2,1.7,0.1,1.7C33.5,48.3,33.4,47.1,33.4,46.6z"/>
		<path class="st5" d="M34.7,47c0-0.1,0.2-0.1,0.2,0c0,0.4,0.2,1.5,0.1,1.5C34.8,48.5,34.7,47.4,34.7,47z"/>
		<path class="st5" d="M34.3,49.2c0-0.1,0.2,0,0.2,0c0,0.3,0,1.2-0.1,1.2C34.3,50.4,34.3,49.5,34.3,49.2z"/>
		<path class="st5" d="M35.8,47.2c0-0.1,0.2-0.1,0.2,0c0,0.4,0,1.5-0.1,1.5C35.7,48.7,35.7,47.6,35.8,47.2z"/>
		<path class="st5" d="M33.9,43.4c0-0.1,0.2,0,0.2,0c0,0.2,0.1,0.9,0,0.9C33.9,44.3,33.9,43.6,33.9,43.4z"/>
		<path class="st5" d="M35.4,43c0-0.1,0.2-0.1,0.2,0c0,0.4,0.1,1.4,0,1.4C35.4,44.3,35.4,43.3,35.4,43z"/>
		<path class="st5" d="M34.6,45c0,0,0.2,0,0.2,0c0,0.2-0.1,0.8-0.2,0.8C34.4,45.8,34.5,45.2,34.6,45z"/>
		<path class="st5" d="M36.1,44.6c0-0.1,0.2,0,0.2,0c-0.1,0.4-0.3,1.5-0.4,1.5C35.8,46.1,36,45,36.1,44.6z"/>
		<path class="st5" d="M33.1,44.8c0-0.1,0.2,0,0.2,0c0,0.2,0,0.9-0.1,0.9C33.1,45.8,33.1,45.1,33.1,44.8z"/>
		<path class="st5" d="M33.4,40.8c0-0.1,0.2-0.1,0.2,0c0,0.4,0,1.4-0.1,1.4C33.3,42.3,33.4,41.2,33.4,40.8z"/>
		<path class="st5" d="M34.7,41.4c0-0.1,0.2,0,0.2,0c0,0.2,0,0.9-0.1,0.9C34.6,42.3,34.7,41.6,34.7,41.4z"/>
		<path class="st5" d="M36.1,40.7c0-0.1,0.2-0.1,0.2,0c0,0.4,0.1,1.5,0,1.6C36.2,42.3,36.1,41.2,36.1,40.7z"/>
		<path class="st5" d="M35,38.7c0-0.1,0.1-0.1,0.2,0c0.1,0.3,0.2,1.1,0.1,1.1C35.1,39.9,35,39,35,38.7z"/>
		<path class="st5" d="M33.9,38.8c0-0.1,0.2-0.1,0.2,0c0,0.3,0.1,1,0,1C33.9,39.8,33.9,39.1,33.9,38.8z"/>
		<path class="st5" d="M35.8,37.2c0-0.1,0.1-0.1,0.1-0.1c0.1,0.3,0.5,1.1,0.4,1.2C36.3,38.3,35.9,37.5,35.8,37.2z"/>
		<path class="st5" d="M34.7,37c0,0,0.2,0,0.2,0c0,0.2,0,0.7-0.1,0.7C34.7,37.7,34.7,37.2,34.7,37z"/>
		<path class="st5" d="M33.5,36.6c0-0.1,0.2,0,0.2,0c0,0.3-0.1,1.1-0.2,1.1C33.4,37.7,33.5,36.9,33.5,36.6z"/>
		<path class="st5" d="M33.2,38.5c0,0,0.2,0,0.2,0c0,0.2-0.1,0.7-0.2,0.7C33.1,39.2,33.2,38.7,33.2,38.5z"/>
		<path class="st5" d="M34.4,34.2c0-0.1,0.2-0.1,0.2,0c0,0.3,0.2,1.2,0.1,1.2C34.5,35.4,34.4,34.5,34.4,34.2z"/>
		<path class="st5" d="M35.7,34.1c0-0.1,0.1-0.1,0.2,0c0.1,0.4,0.3,1.3,0.2,1.4C36,35.5,35.8,34.5,35.7,34.1z"/>
		<path class="st5" d="M33.3,34.9c0,0,0.2,0,0.2,0c0,0.2,0.1,0.6,0,0.6C33.3,35.5,33.3,35.1,33.3,34.9z"/>
		<path class="st5" d="M32.5,32.9c0-0.1,0.1-0.1,0.2,0c0.1,0.3,0.2,1.2,0.1,1.2C32.7,34.1,32.5,33.2,32.5,32.9z"/>
		<path class="st5" d="M33.6,32.2c0,0,0.1-0.1,0.2,0c0.1,0.2,0.2,0.7,0.1,0.8C33.8,33,33.7,32.4,33.6,32.2z"/>
		<path class="st5" d="M35.2,32.1c0-0.1,0.1-0.1,0.2,0c0,0.3,0.2,1,0.1,1C35.3,33.1,35.2,32.4,35.2,32.1z"/>
		<path class="st5" d="M35.3,29.7c0-0.1,0.1-0.1,0.2,0c0,0.3,0.2,1,0.1,1C35.5,30.7,35.4,29.9,35.3,29.7z"/>
		<path class="st5" d="M34.1,29.8c0-0.1,0.1-0.1,0.2,0c0,0.3,0.2,1.2,0.1,1.2C34.2,30.9,34.1,30.1,34.1,29.8z"/>
		<path class="st5" d="M33,29.8c0-0.1,0.2-0.1,0.2,0c0,0.4,0,1.6-0.1,1.6C33,31.4,33,30.2,33,29.8z"/>
		<path class="st5" d="M32,28.4c0-0.1,0.2-0.1,0.2,0c0,0.4,0,1.4-0.1,1.4C32,29.8,32,28.7,32,28.4z"/>
		<path class="st5" d="M30.8,29.9c0-0.1,0.2-0.1,0.2,0c0,0.4,0,1.4-0.1,1.4C30.8,31.3,30.8,30.3,30.8,29.9z"/>
		<path class="st5" d="M33,27.5c0-0.1,0.1-0.1,0.1-0.1c0.2,0.3,0.6,1,0.5,1.1C33.5,28.6,33.1,27.8,33,27.5z"/>
		<path class="st5" d="M30.4,28c0-0.1,0.1-0.1,0.2,0c0.1,0.3,0.3,1.2,0.2,1.2S30.5,28.3,30.4,28z"/>
		<path class="st5" d="M34.4,27.4c0-0.1,0.1-0.1,0.1-0.1c0.1,0.3,0.6,1.3,0.5,1.3C35,28.7,34.6,27.8,34.4,27.4z"/>
		<path class="st5" d="M33.6,25.8c0-0.1,0.1-0.1,0.1-0.1c0.1,0.2,0.3,0.8,0.2,0.9C33.9,26.6,33.7,26,33.6,25.8z"/>
		<path class="st5" d="M29.7,29.1c0-0.1,0.1-0.1,0.1-0.1c0.1,0.2,0.3,0.8,0.2,0.9C30,30,29.8,29.3,29.7,29.1z"/>
		<path class="st5" d="M32.1,25.2c0-0.1,0.1-0.1,0.2,0c0.1,0.3,0.3,1.1,0.1,1.1C32.3,26.3,32.1,25.5,32.1,25.2z"/>
		<path class="st5" d="M30.8,25.8c0-0.1,0.1-0.1,0.2,0c0.1,0.5,0.4,1.7,0.3,1.7C31.1,27.5,30.9,26.3,30.8,25.8z"/>
		<path class="st5" d="M34.1,23.7c0,0,0.1-0.1,0.1-0.1c0.1,0.2,0.3,0.7,0.2,0.7C34.3,24.5,34.2,23.9,34.1,23.7z"/>
		<path class="st5" d="M32.6,20.7c0-0.1,0.1-0.1,0.2,0c0.1,0.3,0.3,1.1,0.2,1.1C32.9,21.8,32.7,21,32.6,20.7z"/>
		<path class="st5" d="M32.2,21.9c0-0.1,0.1-0.1,0.2,0c0.1,0.5,0.5,1.9,0.4,1.9C32.7,23.8,32.4,22.4,32.2,21.9z"/>
		<path class="st5" d="M31.1,23c0-0.1,0.2-0.1,0.2,0c0,0.3,0.1,1.1,0,1.1C31.1,24.1,31.1,23.3,31.1,23z"/>
		<path class="st5" d="M30.6,20.5c0-0.1,0.1-0.1,0.2,0c0.1,0.3,0.4,1.1,0.3,1.2C30.9,21.7,30.7,20.8,30.6,20.5z"/>
		<path class="st5" d="M31.7,19.2c0-0.1,0.2-0.1,0.2,0c0,0.3,0.2,1,0.1,1C31.8,20.2,31.7,19.5,31.7,19.2z"/>
		<path class="st5" d="M31,17.1c0-0.1,0.1-0.1,0.1,0c0.1,0.2,0.3,0.9,0.2,0.9C31.3,18,31.1,17.4,31,17.1z"/>
		<path class="st5" d="M33.6,21.7c0-0.1,0.1-0.1,0.2,0c0,0.2,0.2,0.9,0.1,0.9C33.7,22.6,33.6,21.9,33.6,21.7z"/>
		<path class="st5" d="M32.3,18.4c0-0.1,0.1-0.1,0.1-0.1c0.1,0.2,0.4,0.9,0.3,0.9C32.6,19.3,32.4,18.7,32.3,18.4z"/>
	</g>
	<path d="M4.7,13.3c-0.3,0.1-0.6,0.1-0.9,0.1l-2.5,0.4c-0.6,0.1-1.1,0.6-1.2,1.2c-0.2,1.5-0.3,3,0.1,4.4C3.1,18.9,5.3,16.3,4.7,13.3
		z"/>
	<g>
		<path class="st3" d="M11.8,9.8c-0.6,0.2-1.2,0.1-1.7-0.3C9.7,9.1,9.6,8.3,9.9,7.8c0.2-0.3,0.6-0.5,1-0.5c0.4,0,0.8,0.1,1,0.4
			c0.2,0.2,0.3,0.5,0.4,0.9c0.1,0.2,0.1,0.5,0,0.7C12.2,9.5,12,9.7,11.8,9.8z"/>
		<path class="st6" d="M23.5,8.9c0.3,0.4,0.3,1,0,1.4c-0.3,0.4-0.9,0.6-1.3,0.4c-0.3-0.1-0.5-0.4-0.6-0.7c-0.1-0.3,0-0.7,0.2-0.9
			c0.2-0.2,0.4-0.4,0.6-0.5c0.2-0.1,0.4-0.2,0.6-0.1C23.2,8.6,23.3,8.8,23.5,8.9z"/>
		<path d="M22.1,10c-0.1-0.3,0.1-0.5,0.3-0.6c0.2-0.1,0.5,0,0.7,0.2c0.2,0.3,0.1,0.7-0.2,0.9C22.6,10.7,22.1,10.3,22.1,10z"/>
		<path class="st6" d="M11.7,9.6c-0.5,0.2-1.1,0.1-1.4-0.3c-0.4-0.4-0.4-1-0.1-1.4c0.2-0.3,0.5-0.4,0.8-0.5c0.3,0,0.6,0.1,0.9,0.4
			C12,8,12.1,8.3,12.1,8.6c0,0.2,0.1,0.4,0,0.6C12.1,9.4,11.9,9.5,11.7,9.6z"/>
		<path d="M11.3,8.3c0.2,0,0.4,0.2,0.5,0.4c0,0.2-0.1,0.5-0.3,0.5c-0.3,0.1-0.6,0-0.7-0.3C10.6,8.6,11,8.3,11.3,8.3z"/>
	</g>
	<path class="st2" d="M15.5,20c1-1,1.5-1.7,1.4-1.8c-0.1-0.1-0.7,0.5-1.8,1.3c-1.1,0.8-2.6,1.8-4.5,2.5c-0.9,0.3-1.9,0.6-2.9,0.8
		c-1,0.2-2,0.3-2.9,0.3c-0.5,0-0.9-0.1-1.3-0.2c-0.2-0.1-0.4-0.1-0.6-0.2c-0.2-0.1-0.4-0.2-0.5-0.2c0,0-0.1,0-0.1-0.1
		c0.6,0.6,1.4,1,2.1,1.3c0.3,0.1,0.6,0.2,0.9,0.3c0.9,0,1.8-0.1,2.7-0.3C9,23.5,10,23.2,11,22.8C12.9,22.1,14.5,20.9,15.5,20z"/>
	<path class="st0" d="M39.5,5.4c0.3,0,0.7,0.2,0.7,0.5c0.1,0.6-0.1,1.3-0.6,1.8c-0.6,0.6-1.5,0.8-2.4,1c-1.3,0.3-2.6,0.5-4,0.3
		c-1.3-0.2-2.6-0.8-3.4-1.8c-0.3-0.4-0.5-0.9-0.9-1.3c-0.3-0.4-0.8-0.7-1.3-0.7c-0.5,0-1,0.3-1.4,0.6s-0.9,0.5-1.4,0.4
		c0,0-0.1,0-0.1,0c-0.5-0.2-0.5-1,0-1.2c0.8-0.3,1.3-1.1,1.8-1.9c0.6-0.8,1.2-1.8,2.2-1.9c0.6-0.1,1.3,0.2,1.8,0.6
		c0.5,0.4,0.9,0.9,1.4,1.3C34,4.9,36.8,5.7,39.5,5.4z"/>
	<path class="st2" d="M39.2,6.4C38,7,36.7,7.2,35.4,7c-1.5-0.2-3-0.9-4.3-1.8c-0.5-0.3-1-0.7-1.5-0.9c-0.5-0.3-1.2-0.4-1.8-0.3
		c-0.9,0.2-2.2,1.2-3.4,1.8l0,0c0.1,0.2,0.2,0.3,0.4,0.4c0,0,0.1,0,0.1,0c0.5,0.1,1-0.1,1.4-0.4c0.4-0.3,0.9-0.6,1.4-0.6
		c0.5,0,1,0.3,1.3,0.7c0.3,0.4,0.6,0.9,0.9,1.3c0.2,0.2,0.4,0.4,0.6,0.6c1,0.5,2.4,0.6,3.4,0.7c1.4,0.1,2.8-0.3,4.1-0.6
		c0.5-0.1,1-0.3,1.4-0.6c0.1-0.1,0.2-0.2,0.3-0.3C39.9,6.6,39.5,6.2,39.2,6.4z"/>
	<path class="st2" d="M21.8,7.3c0.6-1.1,2-0.9,2.4,0.2c0.1,0.2,0.6,0,0.6-0.2c-0.6-1.5-2.8-1.5-3.5-0.1C21.2,7.5,21.7,7.4,21.8,7.3
		L21.8,7.3z"/>
	<path class="st2" d="M11.6,5.8c0.7-1,1.9-0.5,2.2,0.5c0.1,0.2,0.6,0.1,0.6-0.2c-0.4-1.5-2.4-1.6-3.3-0.4C10.9,6,11.5,6,11.6,5.8
		L11.6,5.8z"/>
	<path class="st3" d="M16.8,1.6c0.6-0.2,1.3-0.1,1.8,0.3c0.1-0.5,0.1-1.1,0.2-1.6c0.1,0.4,0.3,0.9,0.4,1.3c0.3-0.3,0.7-0.4,1-0.5
		c-0.2,0.2-0.4,0.5-0.4,0.8c0.4-0.3,1-0.3,1.4-0.1c-0.5-0.1-1.1,0.3-1.2,0.8c-0.4,0.1-0.8,0.1-1.2,0.2c-0.2,0-0.3,0-0.5,0
		c-0.2-0.1-0.2-0.3-0.3-0.5C17.9,1.7,17.3,1.4,16.8,1.6z"/>
	<path class="st7" d="M32.2,35c-0.3-0.4-0.7-0.6-1.2-0.7c-0.1,0-0.1,0-0.2,0c-0.3,0-0.5-0.1-0.4-0.3c0.1-0.2,0.2-0.4,0.2-0.7
		c0-0.5-0.2-1-0.7-1.3c-0.6-0.3-1.3-0.1-1.8,0.4c-0.5,0.5-0.7,1.1-0.9,1.7c-0.1,0.2-4.3,3.4-6.4,4.8c-2.2,1.5-7.4,4.3-8.7,4.3
		c-0.3,0-0.6,0-0.9,0.1c-0.3,0.1-0.6,0.3-0.7,0.6c-0.2,0.4-0.1,0.9,0.2,1.2c0.3,0.4,0.7,0.7,1.1,0.8c0.1,0,0.1,0,0.2,0
		c0.3,0.1,0.5,0.2,0.3,0.4c-0.1,0.2-0.2,0.4-0.3,0.7c-0.1,0.5,0.1,1,0.6,1.3c0.5,0.4,1.3,0.2,1.8-0.2c0.5-0.4,0.8-1,1.1-1.6
		c0.7-1.6,3.3-3,4.8-4c2.3-1.6,4.7-3.1,7-4.7c0.4-0.3,1.9-0.7,2.2-0.7c0.4,0,0.9-0.1,1.3-0.1c0.3,0,0.6-0.1,0.9-0.2
		c0.3-0.1,0.5-0.3,0.6-0.6C32.7,35.8,32.5,35.4,32.2,35z"/>
	<path class="st2" d="M34.4,24.4c-1.5-2.3-2.9-1.2-2.3,0.6c0.7,1.9,6,9.8,3.2,11.2c-2.5,1.3-5.5,1.6-8.3,1.8
		c-0.2-0.5-0.4-0.9-0.6-1.4c-0.2-0.5-0.3-1.2-0.8-1.5c-1.2-0.7-0.7,2.1-0.6,2.5c-0.7-0.2-1.5-0.4-2.2-0.5c-0.4-0.1-1.1-0.2-1.5,0.1
		c-1,0.6,2.1,1.7,2.3,1.7c-0.5,0.1-2.6,0.7-1.4,1.4c0.8,0.5,2,0.2,2.8-0.2c-0.2,0.3-0.6,0.8-0.4,1.2c0.2,0.6,1,0.3,1.4,0.1
		c0.5-0.4,0.9-0.8,1.1-1.3c0.7,0,1.3,0,2-0.1c2.6-0.2,5.3-0.6,7.6-1.8C40.5,35.9,35.4,25.9,34.4,24.4z"/>
	<path class="st1" d="M20.5,44.2c-0.2-0.4-0.8-0.7-1.3-0.9c-0.7-0.3-1.4-0.6-2.1-0.8c0.4-0.3,2.2-2.4,0.9-2.5
		c-0.5,0-1.1,0.6-1.5,0.9c-0.4,0.3-0.8,0.6-1.3,0.9c-2.1-1.5-5-3-6.6-5.2C8.1,37,7.5,37.5,6.9,38c1.4,1.7,3.8,3,5.5,4.3
		c0.5,0.4,1.1,0.8,1.6,1.2c0,0.6,0,1.2,0.2,1.7c0.2,0.4,0.6,1.1,1.2,0.7c0.3-0.3,0.3-0.8,0.3-1.2c0.5,0.7,1.3,1.6,2.2,1.6
		c1.4,0-0.1-1.6-0.4-2C17.9,44.4,21,45.2,20.5,44.2z"/>
	<g>
		<path class="st8" d="M42.5,61.2c3.5-0.5,6.8-1.9,9.7-3.9c0.3-0.2-0.1-0.4-0.4-0.3c-2.8,2-5.9,3.3-9.3,3.8
			C42.2,60.8,42.1,61.2,42.5,61.2L42.5,61.2z"/>
		<path class="st8" d="M41.9,54.5c2.3-0.8,4.5-1.7,6.7-2.9c0.3-0.2,0-0.5-0.2-0.3c-2.1,1.2-4.2,2.1-6.5,2.8
			C41.5,54.2,41.6,54.6,41.9,54.5L41.9,54.5z"/>
		<path class="st8" d="M43.7,51.4c0.9-0.4,1.7-0.7,2.6-1.1c0.4-0.2,0-0.3-0.2-0.2c-0.9,0.4-1.7,0.7-2.6,1.1
			C43.1,51.3,43.5,51.5,43.7,51.4L43.7,51.4z"/>
		<path class="st8" d="M45.7,61.9c2-0.1,3.9-0.9,5.5-2.2c0.3-0.2-0.3-0.2-0.5-0.1c-1.5,1.2-3.1,1.8-5,2
			C45.5,61.6,45.3,61.9,45.7,61.9L45.7,61.9z"/>
	</g>
</g>
</svg>
