<?xml version="1.0" encoding="utf-8"?>
<!-- Generator: Adobe Illustrator 19.2.1, SVG Export Plug-In . SVG Version: 6.00 Build 0)  -->
<svg version="1.1" id="Layer_1" xmlns="http://www.w3.org/2000/svg" xmlns:xlink="http://www.w3.org/1999/xlink" x="0px" y="0px"
	 viewBox="0 0 86.3 105.1" style="enable-background:new 0 0 86.3 105.1;" xml:space="preserve">
<style type="text/css">
	.st0{fill:#3A3A3A;}
	.st1{fill:#4C4947;}
	.st2{fill:#282828;}
	.st3{fill:#686563;}
	.st4{fill:#999999;}
	.st5{fill:#FFFFFF;}
	.st6{fill:#3F3F3F;}
	.st7{fill:#FF927F;}
	.st8{fill:#CC8656;}
</style>
<g>
	<polygon class="st0" points="33.9,104.7 32.8,104.6 32.6,102.1 33.1,102 	"/>
	<path class="st1" d="M35.2,70.2c-1.5,0-3-0.1-4.5-0.1c-0.3,9.9-0.7,19.8-0.4,30c0,0.4,0,0.8,0,0.8l3.4,0c0,0,0-0.6,0-0.8
		C32.9,90.1,33.4,80,35.2,70.2z"/>
	<path d="M33.7,100c-0.9,1-2.6,0.9-3.4,0c-0.7,0.6-1.6,3-1.6,3s1.2,2.8,4.5,2c0-0.3-0.2-2.6-0.2-2.6l0.9,2.3c0,0,1-0.2,1.2-1.2
		C35,102.9,34.6,101.2,33.7,100z"/>
	<polygon class="st0" points="67.7,104.7 66.7,104.6 66.5,102.1 66.9,102 	"/>
	<path class="st1" d="M69,70.2c-1.5,0-3-0.1-4.5-0.1c-0.3,9.9-0.7,19.8-0.4,30c0,0.4,0,0.8,0,0.8l3.4,0c0,0,0-0.6,0-0.8
		C66.8,90.1,67.3,80,69,70.2z"/>
	<path d="M67.6,100c-0.9,1-2.6,0.9-3.4,0c-0.7,0.6-1.6,3-1.6,3s1.2,2.8,4.5,2c0-0.3-0.2-2.6-0.2-2.6l0.9,2.3c0,0,1-0.2,1.2-1.2
		C68.8,102.9,68.4,101.2,67.6,100z"/>
	<path class="st1" d="M24.9,52c0.3,0,1.7,0.3,1.3,0.9c-0.2,0.3-0.8,0.4-1.2,0.4c-0.5,0-1,0-1.6,0.1c-1,0.2-1.9,0.7-2.7,1.2
		c-1.8,1.2-3.3,2.9-4.5,4.6c-1.4,1.8-2.5,3.8-3.6,5.8c-1,2-1.8,4.1-2.5,6.3c-0.7,2.1-1.4,4.2-2.6,6.1c-0.6,0.8-1.2,1.6-2,2.2
		c-0.2,0.1-1.6,1.2-1.8,0.9c-0.1-0.1,0.4-0.5,0.5-0.5c0.3-0.3,0.6-0.6,0.9-0.9c0.7-0.7,1.2-1.5,1.7-2.3c1-1.8,1.6-3.8,2.2-5.8
		c0.6-2.2,1.4-4.3,2.4-6.3c1-2,2.2-4,3.5-5.8c1.3-1.7,2.7-3.4,4.4-4.7C20.9,52.8,22.9,51.8,24.9,52C25.5,52,24.6,51.9,24.9,52z"/>
	<path class="st2" d="M4.9,81.1c-0.3,0.3-0.7,0.4-1,0.5c-0.4,0.1-0.8,0.1-1.1,0.2c-0.1,0-0.3,0.1-0.4,0.2c-0.1,0.1-0.2,0.3-0.2,0.4
		c-0.2-0.3-0.2-0.7-0.1-1c-0.3,0.3-0.7,0.3-1.1,0.2s-0.7-0.3-1-0.5c0.4,0,0.7-0.3,1-0.6s0.6-0.5,1-0.6c-0.1-0.1-0.2-0.1-0.4-0.2
		c0.3-0.3,0.6-0.7,0.9-1c0.3-0.3,0.7-0.5,1.2-0.6c0.4-0.1,0.9,0,1.2,0.3c0.2,0.2,0.4,0.5,0.4,0.8c0,0.3,0,0.6-0.1,1
		C5.2,80.6,5.1,80.9,4.9,81.1z"/>
	<path class="st3" d="M62.5,30.9c1.4-5,6.4-10.8,11.3-9.4c9.1,2.7,3.2,11.6,9,15.1c5.3,3.2,2.2,8.3-2.3,8.3c-2.6,0-4.3-0.5-5.4-1.2
		c-4.5,0.1-1.8-7.2-3.9-7c-2.9,0.2,5.9,30.9,0.5,39.4c-5.4,8.6-28.7,5.3-43.1,4.5c-3.5-0.2-7.3-0.5-9.8-2.8c-2.4-2.2-3-5.8-3.1-9.2
		c-0.1-5.7,1.3-12.1,5.9-15.9c4.4-3.6,10.4-3.9,15.8-4c6.9-0.1,15,3.5,20.6-0.4C61.7,45.7,61.6,34,62.5,30.9z"/>
	<path class="st4" d="M82.8,36.6c-0.5-0.3-0.9-0.6-1.3-1c-0.8,0-1.7,0.2-2.4,0.3c-0.8,0.1-1.4,0.7-2.3,1.3c-2.2,1.7-2.4,4.3-1.5,6.5
		c1.1,0.7,2.8,1.1,5.2,1.1C85,44.8,88.1,39.7,82.8,36.6z"/>
	<g>
		<path class="st5" d="M70.9,26.7c-0.2,0.1-0.3,0.2-0.5,0.3c-0.1,0.2-0.2,0.4-0.3,0.6c-0.1,0.3-0.1,0.7,0.1,1
			c0.2,0.2,0.5,0.3,0.8,0.4c0.4,0.1,0.8,0.1,1.1-0.2c0.2-0.2,0.2-0.5,0.2-0.7c0-0.3,0-0.6-0.1-0.9C72,26.8,71.4,26.6,70.9,26.7z"/>
		<path d="M70.9,27.6c-0.1,0-0.2,0.1-0.2,0.1c-0.1,0.1-0.1,0.2-0.1,0.3c0,0.1,0,0.3,0,0.4c0,0.1,0.1,0.3,0.3,0.3
			c0.1,0.1,0.3,0.1,0.4,0c0.2-0.2,0.3-0.5,0.2-0.7C71.5,27.7,71.2,27.5,70.9,27.6z"/>
	</g>
	<g>
		<path class="st3" d="M79.7,29.2c0.2-0.1,0.4-0.2,0.6-0.4c0.2-0.2,0.2-0.5,0.3-0.8c0.1-0.4,0.1-0.9-0.2-1.3c-0.2-0.3-0.6-0.4-1-0.5
			c-0.5-0.1-1-0.1-1.3,0.3c-0.2,0.3-0.2,0.6-0.3,0.9c0,0.4,0,0.8,0.2,1.1C78.4,29.1,79.1,29.4,79.7,29.2z"/>
		<path class="st5" d="M79.6,28.9c0.2-0.1,0.3-0.2,0.5-0.3c0.1-0.2,0.2-0.4,0.2-0.7c0.1-0.3,0.1-0.7-0.1-1c-0.2-0.2-0.5-0.3-0.8-0.4
			c-0.4-0.1-0.8,0-1.1,0.3c-0.2,0.2-0.2,0.5-0.2,0.8c0,0.3,0,0.6,0.2,0.9C78.6,28.8,79.2,29,79.6,28.9z"/>
		<path d="M79.1,28.4c0.1,0,0.2-0.1,0.3-0.2c0.1-0.1,0.1-0.2,0.1-0.3c0-0.2,0-0.3,0-0.5c-0.1-0.2-0.2-0.3-0.3-0.4
			c-0.2-0.1-0.3-0.1-0.5,0c-0.2,0.2-0.3,0.6-0.2,0.9C78.5,28.3,78.8,28.5,79.1,28.4z"/>
	</g>
	<g>
		<path d="M84.8,37.8c-1.6-0.3-3.2-0.4-4.9-0.2c-0.5,0-1.1,0.2-1.3,0.7c-0.2,0.4,0,0.9,0.2,1.3c0.5,0.9,1.3,1.5,2.1,1.7
			c0.9,0.3,1.8,0.2,2.6,0.2c0.5,0,1-0.1,1.5-0.3c0.5-0.2,0.9-0.6,1.1-1.1c0.2-0.5,0.2-1.3-0.2-1.7C85.7,38,85.2,37.9,84.8,37.8z"/>
		<path class="st6" d="M85.7,39c-0.1-0.2-0.3-0.2-0.5-0.1c-0.2,0.1-0.3,0.2-0.4,0.4c-0.3,0.4-0.6,0.7-0.9,1.1c0,0,0,0.1,0,0.1
			c-0.1,0.1-0.2,0.2-0.2,0.3c0.6,0,1.1-0.2,1.6-0.6c0.2-0.1,0.3-0.3,0.4-0.5C85.8,39.4,85.8,39.2,85.7,39z"/>
		<path class="st6" d="M80.1,38.9c-0.1-0.2-0.2-0.3-0.3-0.5c-0.1-0.1-0.3-0.2-0.5-0.1c-0.2,0.1-0.2,0.4-0.2,0.6
			c0,0.3,0.2,0.5,0.4,0.7c0.5,0.5,1.1,0.9,1.7,1.1C80.8,40.1,80.5,39.5,80.1,38.9z"/>
	</g>
	<path class="st1" d="M76.8,44.4C76.8,44.4,76.8,44.4,76.8,44.4c-0.1-0.1-0.2-0.2-0.4-0.4c-0.1-0.1-0.2-0.2-0.3-0.4
		c-0.1-0.1-0.2-0.3-0.3-0.4c-0.4-0.5-0.6-1.1-0.9-1.8c-0.4-1.2-0.6-2.4-0.8-3.3c-0.2-0.9-0.3-1.5-0.5-1.4c-0.1,0-0.2,0.6-0.2,1.5
		c0,0.9,0.2,2.2,0.6,3.5c0.2,0.6,0.4,1.1,0.8,1.7C75.4,43.9,76.1,44.2,76.8,44.4z"/>
	<polygon class="st0" points="57.1,104.7 56,104.6 55.8,102.1 56.3,102 	"/>
	<path class="st3" d="M58.3,70.2c-1.5,0-3-0.1-4.5-0.1c-0.3,9.9-0.7,19.8-0.4,30c0,0.4,0,0.8,0,0.8l3.4,0c0,0,0-0.6,0-0.8
		C56.1,90.1,56.6,80,58.3,70.2z"/>
	<path d="M56.9,100c-0.9,1-2.6,0.9-3.4,0c-0.7,0.6-1.6,3-1.6,3s1.2,2.8,4.5,2c0-0.3-0.2-2.6-0.2-2.6l0.9,2.3c0,0,1-0.2,1.2-1.2
		C58.2,102.9,57.8,101.2,56.9,100z"/>
	<polygon class="st0" points="23.2,104.7 22.2,104.6 22,102.1 22.4,102 	"/>
	<path class="st3" d="M24.5,70.2c-1.5,0-3-0.1-4.5-0.1c-0.3,9.9-0.7,19.8-0.4,30c0,0.4,0,0.8,0,0.8l3.4,0c0,0,0-0.6,0-0.8
		C22.3,90.1,22.8,80,24.5,70.2z"/>
	<path d="M23.1,100c-0.9,1-2.6,0.9-3.4,0c-0.7,0.6-1.6,3-1.6,3s1.2,2.8,4.5,2c0-0.3-0.2-2.6-0.2-2.6l0.9,2.3c0,0,1-0.2,1.2-1.2
		C24.3,102.9,23.9,101.2,23.1,100z"/>
	<path class="st3" d="M83.7,0c0.4,0.1,0.7,0.5,0.8,0.9c0.6,1.5,0.4,3.2,0,4.8c-1.4,6.7-4.1,13.2-8,18.9c-0.7-0.7-1.4-1.3-2.1-2
		c1.4-7.5,4-14.8,7.7-21.5C82.5,0.5,83-0.1,83.7,0z"/>
	<path class="st7" d="M76.3,19.6c1.2-5.4,3.3-10.5,6.2-15.2c0.3-0.4,0.9-0.3,0.9,0.2c0.1,1.6-0.1,3.1-0.5,4.7
		c-1,3.9-3.5,7.2-5.7,10.7C76.9,20.5,76.2,20.2,76.3,19.6z"/>
	<path class="st3" d="M70.3,0.3c0.4,0,0.8,0.4,1.1,0.7c1,1.4,1.3,3.1,1.5,4.7c0.7,6.8-0.1,13.5-2.1,19.7c-0.9-0.5-1.8-1-2.7-1.6
		c-0.9-7.5-0.6-15.1,1.1-22.2C69.2,1,69.6,0.2,70.3,0.3z"/>
	<path class="st7" d="M69.6,20.6c-0.9-5.4-0.8-10.7,0.1-15.9c0.1-0.5,0.8-0.5,1,0c0.7,1.5,1.1,3,1.3,4.5c0.5,4-0.6,7.7-1.4,11.5
		C70.5,21.3,69.7,21.2,69.6,20.6z"/>
	<path class="st8" d="M75.3,23.5c0,0,1.1,0.7,1.7,0.6c0.5-0.1,0.4-0.4,0.2-0.6c-0.2-0.2-0.9-0.3-0.9-0.3s0.8-0.2,1.1-0.4
		c0.2-0.1,0.3-0.3,0.3-0.5c-0.1-0.1-0.3-0.2-0.4-0.2c-0.5,0-0.9,0-1.4,0.1c0.3-0.2,0.6-0.5,0.7-0.9c0-0.1,0.1-0.3,0-0.4
		c-0.1-0.1-0.2-0.2-0.4-0.2c-0.2,0-0.3,0.1-0.4,0.1c-0.4,0.2-1.1,0.7-1.1,0.7s-0.2-0.8-0.5-1.2c-0.1-0.1-0.2-0.2-0.3-0.2
		c-0.2,0-0.4,0.1-0.5,0.3c-0.1,0.2-0.1,0.9-0.1,0.9s-0.7-0.9-1.4-1.1c-0.1,0-0.2-0.1-0.3,0c-0.1,0.1-0.1,0.3-0.1,0.4
		c0.1,0.4,0.5,1,0.5,1s-1.1-0.5-1.7-0.6c-0.3,0-0.6,0-0.7,0.2c-0.1,0.2,0,0.4,0.1,0.6c0.2,0.1,0.4,0.2,0.6,0.2
		c0.2,0,0.7,0.1,0.7,0.1s-0.6,0-0.8,0.1c-0.1,0.1-0.2,0.2-0.2,0.3c0,0.1,0.1,0.1,0.2,0.2c0.3,0.1,0.9,0,0.9,0s-1.1,0.6-0.7,1
		c0.4,0.4,2.3-0.5,2.3-0.5s-0.4,0.6-0.1,0.8c0.3,0.2,0.9-0.7,0.9-0.7s0,0.4,0,0.6c0,0.2,0.1,0.4,0.3,0.4c0.2,0,0.4-0.1,0.4-0.3
		c0.1-0.2,0-0.6,0-0.6s0.3,0.3,0.5,0.5c0.2,0.1,0.5,0.2,0.7,0S75.3,23.5,75.3,23.5z"/>
	<g>
		<path class="st4" d="M63.1,42.9c0-0.1-0.4,0-0.4,0c0,0.1,0,0.3,0,0.6c0,0.1,0,0.1,0,0.2c0,0.1,0,0.1,0,0.2c0,0.1-0.1,0.2-0.1,0.3
			c0,0.1-0.1,0.2-0.1,0.3c0,0.1-0.1,0.2-0.1,0.3c-0.1,0.1-0.1,0.3,0,0.3c0.1,0,0.1,0,0.3-0.2c0.1-0.1,0.1-0.2,0.2-0.3
			c0.1-0.1,0.1-0.2,0.1-0.3c0-0.1,0.1-0.3,0.1-0.4c0-0.1,0-0.1,0-0.2c0-0.1,0-0.1,0-0.2C63.2,43.3,63.2,43.1,63.1,42.9z"/>
		<path class="st4" d="M61.3,44.4c0-0.1-0.3,0-0.3,0c0,0.1,0,0.3,0,0.5c0,0,0,0.1,0,0.1c0,0,0,0.1,0,0.1c0,0.1,0,0.2-0.1,0.3
			c0,0.1-0.1,0.2-0.1,0.3c0,0.1-0.1,0.2-0.1,0.2c0,0.1-0.1,0.2,0,0.2c0,0,0.1,0,0.2-0.1c0-0.1,0.1-0.1,0.1-0.2
			c0-0.1,0.1-0.2,0.1-0.3c0-0.1,0.1-0.2,0.1-0.3c0-0.1,0-0.1,0-0.2c0-0.1,0-0.1,0-0.2C61.4,44.7,61.3,44.5,61.3,44.4z"/>
		<path class="st4" d="M61.9,47.3c0.1-0.1-0.2-0.3-0.2-0.3c-0.4,0.3-1.4,1.2-1.2,1.4S61.6,47.6,61.9,47.3z"/>
		<path class="st4" d="M64,47.2c0.1-0.1-0.3-0.3-0.3-0.2c-0.3,0.5-1.3,1.9-1.1,2C62.8,49.2,63.7,47.7,64,47.2z"/>
		<path class="st4" d="M58.7,49.4c0.1-0.1-0.2-0.3-0.2-0.3c-0.2,0.2-1,0.8-0.8,1C57.8,50.4,58.5,49.7,58.7,49.4z"/>
		<path class="st4" d="M61,50.5c0.1-0.1-0.3-0.3-0.3-0.2c-0.1,0.1-0.2,0.3-0.4,0.5c0,0-0.1,0.1-0.1,0.1c-0.1,0-0.1,0.1-0.2,0.1
			L60,51.1c0,0-0.1,0-0.1,0.1c-0.1,0-0.1,0.1-0.2,0.1c-0.1,0-0.1,0.1-0.2,0.1c-0.1,0-0.1,0.1-0.2,0.1c-0.1,0.1-0.2,0.1-0.3,0.1
			c-0.2,0.1-0.3,0.2-0.2,0.2c0,0.1,0.1,0.1,0.3,0c0.1,0,0.2-0.1,0.3-0.1c0.1,0,0.1-0.1,0.2-0.1c0.1,0,0.1-0.1,0.2-0.1
			c0.1,0,0.1-0.1,0.2-0.1c0,0,0.1,0,0.1-0.1l0.1-0.1c0.1,0,0.1-0.1,0.2-0.1c0.1-0.1,0.1-0.1,0.2-0.2C60.8,50.9,61,50.6,61,50.5z"/>
		<path class="st4" d="M62.9,51.8c0.1-0.1-0.2-0.3-0.2-0.3c-0.1,0.1-0.3,0.3-0.6,0.5c-0.1,0-0.1,0.1-0.2,0.1c-0.1,0-0.1,0.1-0.2,0.1
			c-0.1,0.1-0.3,0.2-0.4,0.2c-0.1,0.1-0.3,0.1-0.4,0.2c-0.1,0.1-0.2,0.1-0.3,0.2c-0.2,0.1-0.3,0.2-0.3,0.2c0,0.1,0.2,0.1,0.4,0
			c0.1,0,0.2-0.1,0.4-0.1c0.1,0,0.3-0.1,0.4-0.2c0.1-0.1,0.3-0.1,0.4-0.2c0.1,0,0.1-0.1,0.2-0.1c0.1,0,0.1-0.1,0.2-0.1
			C62.6,52.2,62.8,52,62.9,51.8z"/>
		<path class="st4" d="M56.3,51.8c0.1,0-0.1-0.3-0.1-0.3c-0.3,0.1-1,0.4-0.9,0.6C55.4,52.3,56.1,51.9,56.3,51.8z"/>
		<path class="st4" d="M58,53.5c0.1,0,0-0.4-0.1-0.4c-0.5,0.1-1.8,0.3-1.8,0.5C56.2,53.9,57.5,53.6,58,53.5z"/>
		<path class="st4" d="M55.1,50.7c0.1,0,0-0.4-0.1-0.4c-0.6,0.1-2.2,0.3-2.2,0.5C52.9,51.1,54.5,50.8,55.1,50.7z"/>
		<path class="st4" d="M52.7,52c0.1,0,0-0.4,0-0.4c-0.3,0-1,0-1,0.2C51.7,52.1,52.4,52,52.7,52z"/>
		<path class="st4" d="M53.6,53.6c0.1,0,0-0.4-0.1-0.4c-0.4,0.1-1.4,0.2-1.4,0.4C52.2,53.9,53.2,53.7,53.6,53.6z"/>
		<path class="st4" d="M48.7,50.8c0.1,0,0-0.4,0-0.4c-0.3,0-1-0.1-1,0.2C47.7,50.9,48.5,50.9,48.7,50.8z"/>
		<path class="st4" d="M55.5,55.1c0.1,0,0-0.4-0.1-0.3c-0.5,0.1-1.7,0.4-1.7,0.6C53.8,55.6,55.1,55.2,55.5,55.1z"/>
		<path class="st4" d="M59.1,54.9c0.1-0.1-0.1-0.4-0.2-0.3c-0.5,0.3-2,1.1-1.9,1.3C57.2,56,58.6,55.2,59.1,54.9z"/>
		<path class="st4" d="M61.5,54.9c0.1-0.1-0.1-0.3-0.2-0.3c-0.6,0.5-2.1,1.7-2,1.9C59.4,56.6,60.9,55.3,61.5,54.9z"/>
		<path class="st4" d="M57.8,58.7c0.1,0-0.1-0.4-0.1-0.3c-0.3,0.1-1.2,0.4-1.1,0.7C56.6,59.3,57.5,58.9,57.8,58.7z"/>
		<path class="st4" d="M55.5,57c0.1,0,0-0.4-0.1-0.3C55,56.8,54,57,54.1,57.2C54.1,57.4,55.1,57.1,55.5,57z"/>
		<path class="st4" d="M52.2,55.4c0.1,0,0-0.4-0.1-0.4c-0.5,0.1-1.8,0.4-1.7,0.6C50.4,55.8,51.7,55.5,52.2,55.4z"/>
		<path class="st4" d="M50.3,53.6c0.1,0,0.1-0.4,0-0.4c-0.4,0-1.6-0.1-1.6,0.2S49.8,53.6,50.3,53.6z"/>
		<path class="st4" d="M51.1,51c0,0-0.1-0.3-0.1-0.3c-0.2,0.1-0.7,0.2-0.6,0.5C50.4,51.3,50.9,51.1,51.1,51z"/>
		<path class="st4" d="M47.8,52.6c0.1,0,0-0.4-0.1-0.4c-0.3,0-1,0.1-1,0.3C46.8,52.8,47.5,52.6,47.8,52.6z"/>
		<path class="st4" d="M45.7,51.1c0.1,0,0.1-0.4,0-0.4c-0.5,0-2-0.1-2,0.2C43.7,51.2,45.1,51.2,45.7,51.1z"/>
		<path class="st4" d="M44.7,53c0.1,0,0-0.4,0-0.4c-0.5,0.1-1.9,0.2-1.8,0.4C42.9,53.3,44.2,53.1,44.7,53z"/>
		<path class="st4" d="M47.5,54.5c0.1,0,0-0.4,0-0.4c-0.4,0-1.6,0.1-1.6,0.3C45.8,54.7,47,54.6,47.5,54.5z"/>
		<path class="st4" d="M47.8,56.1c0.1,0,0.1-0.4,0-0.4c-0.4,0-1.6,0-1.6,0.2C46.1,56.3,47.3,56.2,47.8,56.1z"/>
		<path class="st4" d="M51.2,57.5c0.1,0,0-0.4,0-0.4c-0.5,0-1.8,0.1-1.8,0.3C49.4,57.7,50.7,57.5,51.2,57.5z"/>
		<path class="st4" d="M53.5,59.3c0.1,0,0-0.4,0-0.4c-0.6,0.1-2.2,0.2-2.2,0.5C51.3,59.6,53,59.4,53.5,59.3z"/>
		<path class="st4" d="M48.2,58.6c0.1,0,0.1-0.4,0-0.4c-0.4,0-1.6-0.1-1.6,0.2C46.6,58.7,47.8,58.7,48.2,58.6z"/>
		<path class="st4" d="M44.6,56.4c0.1,0,0.1-0.4,0-0.4c-0.4,0-1.6-0.1-1.7,0.1C42.9,56.4,44.1,56.4,44.6,56.4z"/>
		<path class="st4" d="M43.3,55.2c0.1,0,0.1-0.4,0-0.4c-0.4,0-1.4-0.1-1.4,0.2C42,55.3,42.9,55.3,43.3,55.2z"/>
		<path class="st4" d="M45,59c0.1,0,0.1-0.4,0-0.4c-0.6,0-2.2-0.1-2.2,0.2C42.8,59.1,44.4,59,45,59z"/>
		<path class="st4" d="M43,57.7c0.1,0,0-0.4,0-0.4c-0.4,0-1.6,0.1-1.6,0.3C41.5,58,42.6,57.8,43,57.7z"/>
		<path class="st4" d="M46.7,57.5c0.1,0,0-0.4,0-0.4c-0.3,0-1.1-0.1-1.1,0.2C45.6,57.6,46.4,57.6,46.7,57.5z"/>
		<path class="st4" d="M47.6,60.3c0.1,0,0.1-0.4,0-0.4c-0.6,0-2.1,0.1-2.1,0.3C45.5,60.5,47.1,60.4,47.6,60.3z"/>
		<path class="st4" d="M41.2,51.4c0.2,0,0.1-0.4,0-0.4c-0.7,0-2.6-0.1-2.6,0.2C38.6,51.4,40.5,51.4,41.2,51.4z"/>
		<path class="st4" d="M42.8,50.3c0.1,0,0.1-0.4,0-0.4c-0.4,0-1.6-0.1-1.6,0.2S42.4,50.3,42.8,50.3z"/>
		<path class="st4" d="M37.1,50.3c0.1,0,0.1-0.4,0-0.4c-0.3,0-1.2-0.1-1.2,0.2C35.9,50.4,36.8,50.4,37.1,50.3z"/>
		<path class="st4" d="M36.1,51.9c0.1,0,0-0.4-0.1-0.3c-0.4,0.1-1.4,0.3-1.4,0.5C34.7,52.3,35.7,52,36.1,51.9z"/>
		<path class="st4" d="M40,53.1c0.1,0,0.1-0.4,0-0.4c-0.5,0-1.8-0.1-1.8,0.2S39.5,53.2,40,53.1z"/>
		<path class="st4" d="M39.9,55.2c0.1,0,0.1-0.4,0-0.4c-0.4,0-1.4-0.1-1.4,0.2C38.5,55.3,39.5,55.3,39.9,55.2z"/>
		<path class="st4" d="M40.1,57.2c0.1,0,0.1-0.4,0-0.4c-0.5,0-1.7-0.1-1.7,0.2C38.4,57.2,39.6,57.2,40.1,57.2z"/>
		<path class="st4" d="M36.7,54.3c0.1,0,0.1-0.4,0-0.4c-0.6,0-2.1-0.1-2.1,0.2C34.5,54.4,36.1,54.4,36.7,54.3z"/>
		<path class="st4" d="M39.8,59.4c0.2,0,0.1-0.4,0-0.4c-0.7,0-2.6-0.1-2.6,0.2S39.1,59.4,39.8,59.4z"/>
		<path class="st4" d="M36.3,56.8c0.1,0,0.1-0.4,0-0.4c-0.4,0-1.4-0.1-1.4,0.2S35.9,56.8,36.3,56.8z"/>
		<path class="st4" d="M33.1,52.1c0.1,0,0.1-0.4,0-0.4c-0.5,0-1.8-0.1-1.8,0.2S32.6,52.1,33.1,52.1z"/>
		<path class="st4" d="M32.7,50.8c0.1,0,0.1-0.4,0-0.4c-0.6,0-2.1-0.1-2.1,0.2S32.1,50.8,32.7,50.8z"/>
		<path class="st4" d="M28.1,51.5c0.1,0-0.1-0.4-0.1-0.3c-0.4,0.2-1.5,0.6-1.4,0.8C26.7,52.2,27.8,51.7,28.1,51.5z"/>
		<path class="st4" d="M34.8,49.5c0.1,0,0-0.4,0-0.4c-0.5,0.1-1.8,0.2-1.8,0.4C33,49.8,34.3,49.6,34.8,49.5z"/>
		<path class="st4" d="M30.6,53.6c0.1,0,0.1-0.4,0-0.4c-0.4,0-1.6-0.1-1.6,0.1C29,53.6,30.2,53.6,30.6,53.6z"/>
		<path class="st4" d="M25,52.4c0.1-0.1-0.1-0.4-0.1-0.3c-0.5,0.2-1.9,0.7-1.8,1C23.2,53.2,24.5,52.6,25,52.4z"/>
		<path class="st4" d="M29.7,50c0.1,0-0.1-0.4-0.1-0.3c-0.4,0.1-1.4,0.5-1.3,0.7C28.4,50.6,29.4,50.2,29.7,50z"/>
		<path class="st4" d="M26.8,54c0.1,0-0.1-0.4-0.1-0.3c-0.4,0.2-1.6,0.6-1.5,0.8C25.3,54.7,26.4,54.2,26.8,54z"/>
		<path class="st4" d="M33,55c0.1,0,0-0.4,0-0.4c-0.5,0.1-2,0.2-2,0.4C31,55.3,32.5,55.1,33,55z"/>
		<path class="st4" d="M34.6,58.1c0.1,0,0.1-0.4,0-0.4c-0.4,0-1.4-0.1-1.4,0.2C33.2,58.2,34.2,58.2,34.6,58.1z"/>
		<path class="st4" d="M31.6,56.9c0.1,0,0.1-0.4,0-0.4c-0.5,0-1.9,0-1.9,0.2C29.8,57,31.1,57,31.6,56.9z"/>
		<path class="st4" d="M29,55.3c0.2,0,0-0.4-0.1-0.4c-0.7,0.1-2.6,0.4-2.5,0.6C26.5,55.8,28.4,55.4,29,55.3z"/>
		<path class="st4" d="M24.4,53.9c0.1-0.1-0.1-0.3-0.2-0.3c-0.4,0.2-1.6,0.9-1.5,1.1C22.9,54.9,24,54.2,24.4,53.9z"/>
		<path class="st4" d="M22.3,53.5c0.1-0.1-0.2-0.3-0.2-0.3c-0.3,0.2-1.3,0.9-1.2,1.1C21,54.5,21.9,53.8,22.3,53.5z"/>
	</g>
</g>
</svg>
