<?xml version="1.0" encoding="utf-8"?>
<!-- Generator: Adobe Illustrator 19.2.1, SVG Export Plug-In . SVG Version: 6.00 Build 0)  -->
<svg version="1.1" id="Layer_1" xmlns="http://www.w3.org/2000/svg" xmlns:xlink="http://www.w3.org/1999/xlink" x="0px" y="0px"
	 viewBox="0 0 38.7 50.1" style="enable-background:new 0 0 38.7 50.1;" xml:space="preserve">
<style type="text/css">
	.st0{fill:#DD8403;}
	.st1{fill:#FF9D00;}
	.st2{fill:#A05932;}
	.st3{fill:#078903;}
	.st4{fill:#EDEBE6;}
	.st5{fill:#894320;}
	.st6{fill:#C9773F;}
	.st7{fill:#FFFFFF;}
	.st8{fill:#F93E34;}
</style>
<g>
	<g>
		<path class="st0" d="M17.7,48.7c-0.7-1.1-2-2-3.4-2.1c-1.3-0.1-2.6,0.6-3.9,1c1.1,0.4,1.7,1.1,2.4,2c0,0.1,0.8,0,0.8,0.2
			C15,48.8,16.2,48.4,17.7,48.7z"/>
		<path class="st1" d="M16.2,46.4c-0.2-0.2-0.5-0.3-0.7-0.4c-0.2-0.1-0.3-1.5-0.2-2.5c0-1.2-0.1-2.6-0.2-4.2c0-0.8-2.2-0.8-2.2-0.2
			c0.2,1.7,0.4,3.3,0.7,4.5c0.2,1,0.1,2.4-0.3,2.4c-0.1,0-0.3,0.1-0.4,0.1c-0.1,0-0.3,0.1-0.4,0.1c-0.3,0.1-0.6,0.1-0.8,0.2
			c-0.3,0.1-0.5,0.1-0.8,0.2c-0.2,0-0.5,0.1-0.6,0.2C10,46.8,9.7,47,9.7,47.2c0,0.2,0.2,0.3,0.6,0.4c0.2,0,0.4,0,0.7,0.1
			c0.3,0,0.5,0,0.8,0c0.3,0,0.6-0.1,0.9-0.1c0.2,0,0.7-0.1,0.4,0.5c-0.4,1-0.6,2-0.2,2.2c0.5,0.2,0.9-1.2,1.5-2.3
			c0.3-0.7,1.1-0.3,1.2-0.2c1.1,0.8,2.4,1.5,2.6,1.1C18.7,48.2,17.4,47.2,16.2,46.4z"/>
	</g>
	<path class="st2" d="M36.7,22.6c-3.3,0.6-6.6-2.4-11.4-2.3c-7.2,0.1-9.4,3.1-11,1.6c-0.8-0.7-1.1-1.7-0.5-3c-2.6-0.4-5.3-0.7-8-0.9
		c-0.9,2.4-1.5,5.6-1.2,9.7c0.7,10.3,9.2,12.9,16.1,12.7c3.2-0.1,13.9-0.6,17.9-15.6C39,23.5,37.9,22.3,36.7,22.6z"/>
	<path class="st3" d="M13.8,18.8c0.2-0.5,0.5-1,1-1.6c1.8-2.4,4.9-7.1,3.1-11.1c-1.3-2.9-5.1-5.6-9.6-3.2C5.8,4.2,4.9,5.3,5.5,9.4
		C6.1,13,8.4,12.9,8,13.7c-0.5,0.8-0.5,0.8-1,1.9c-0.4,0.8-0.8,1.7-1.2,2.5C8.4,18,11.2,18.4,13.8,18.8z"/>
	<path class="st4" d="M13.6,19.6c0.1-0.4,0.3-0.9,0.6-1.5c-2.5-0.9-4.9-2.1-7.5-2.2c-0.6,1.2-1.1,2.6-1.5,4.2
		C7.9,21.4,10.7,19.9,13.6,19.6z"/>
	<g>
		<path class="st0" d="M25.8,48.7c-0.7-1.1-2-2-3.4-2.1c-1.3-0.1-2.6,0.6-3.9,1c1.1,0.4,1.7,1.1,2.4,2c0,0.1,0.8,0,0.8,0.2
			C23,48.8,24.2,48.4,25.8,48.7z"/>
		<path class="st1" d="M24.2,46.4c-0.2-0.2-0.5-0.3-0.7-0.4c-0.2-0.1-0.3-1.5-0.2-2.5c0-1.2-0.1-2.6-0.2-4.2c0-0.8-2.2-0.8-2.2-0.2
			c0.2,1.7,0.4,3.3,0.7,4.5c0.2,1,0.1,2.4-0.3,2.4c-0.1,0-0.3,0.1-0.4,0.1c-0.1,0-0.3,0.1-0.4,0.1c-0.3,0.1-0.6,0.1-0.8,0.2
			c-0.3,0.1-0.5,0.1-0.8,0.2c-0.2,0-0.5,0.1-0.6,0.2c-0.4,0.1-0.6,0.2-0.6,0.4c0,0.2,0.2,0.3,0.6,0.4c0.2,0,0.4,0,0.7,0.1
			c0.3,0,0.5,0,0.8,0c0.3,0,0.6-0.1,0.9-0.1c0.2,0,0.7-0.1,0.4,0.5c-0.4,1-0.6,2-0.2,2.2c0.5,0.2,0.9-1.2,1.5-2.3
			c0.3-0.7,1.1-0.3,1.2-0.2c1.1,0.8,2.4,1.5,2.6,1.1C26.7,48.2,25.4,47.2,24.2,46.4z"/>
	</g>
	<path class="st5" d="M22.7,21c-2-0.9-4.2-1.2-6.3-0.6c-1.3,0.3-2.7,1.1-3.3,2.5c-0.7,1.9,0.2,4.2,1.5,5.7c2.5,2.8,6.1,4,9.4,3.6
		c3.4-0.5,6.8-2.2,8.7-5.4c2.3-3.8,0.5-5.5-0.1-4.9c-2.8,2.7-4.8,1.8-6.1,1.2C25.3,22.5,24,21.6,22.7,21z"/>
	<g>
		<path class="st6" d="M16.9,26.2c0.4,0.1,0.8-0.1,1.1-0.5c0.5-0.6,0.6-1.4,0.3-2.1c1.2,0.2,2.3-2.3,0.5-2.8c-0.1,0-0.4,0.3-0.3,0.3
			c0.5,0.2,0.8,0.5,0.9,1.1c0.2,1.3-1.1,1.1-1.6,0.5c0,0,0,0-0.1-0.1c-0.1-0.1-0.4,0.2-0.3,0.3c0,0.1,0.1,0.1,0.1,0.2
			c0.3,0.5,0.5,1,0.5,1.6c0,1.1-1,1.2-1.5,0.6c0-0.1-0.1-0.1-0.1-0.2c-0.1-0.1-0.4,0.2-0.3,0.3c0.1,0.1,0.1,0.2,0.2,0.3
			c0.1,0.2,0.2,0.5,0.3,0.8c0.1,0.8-0.8,1-1,0.2c0-0.1-0.4,0.1-0.4,0.3c0.2,0.7,0.9,0.8,1.3,0.4C16.9,27.1,16.9,26.7,16.9,26.2z"/>
		<path class="st6" d="M20.2,27.2c0.4,0.1,0.9,0.1,1.3-0.3c0.5-0.5,0.4-1,0.2-1.5c0.3,0,0.5,0,0.8-0.3c0.9-0.9,0-1.7-0.9-2.1
			c-0.1,0-0.4,0.3-0.3,0.3c0.6,0.2,1.1,0.5,1.2,1.3c0.1,0.8-1,0.2-1.1,0.1c0,0-0.1-0.1-0.1-0.1c-0.1-0.2-0.3-0.3-0.4-0.4
			c-0.1-0.1-0.4,0.3-0.3,0.3c0.1,0.1,0.2,0.2,0.4,0.4c0.3,0.3,0.6,0.7,0.7,1.3c0.1,0.5-0.5,0.8-0.9,0.7c-0.4-0.1-0.7-0.4-1.1-0.6
			c-0.1-0.1-0.4,0.3-0.3,0.3c0.5,0.5,0.9,1,1,1.8c0,1.1-0.9,0.9-1.4,0.7c-0.4-0.1-0.7-0.4-1-0.7c-0.1-0.1-0.4,0.3-0.3,0.3
			c0.8,0.7,1.7,1.1,2.5,0.3C20.6,28.6,20.5,27.9,20.2,27.2z"/>
		<path class="st6" d="M26.7,24.5c-0.1,0-0.4,0.4-0.2,0.4c1.2-0.2,1.9,1.9,0.6,2.1c0,0,0,0,0,0c0,0-0.1,0-0.1,0l0,0c0,0,0,0,0,0
			c-0.1,0-0.4,0.4-0.2,0.4c0.1,0,0.2,0,0.2,0c0.3,0,0.6,0,0.9,0.3c0.6,0.8-0.7,1.4-1.2,1.5c-0.1,0-0.4,0.4-0.2,0.4
			c0.6-0.1,1.6-0.4,1.8-1.3c0.2-0.8-0.2-1.1-0.7-1.2c0.2-0.2,0.4-0.5,0.5-0.8C28.5,25.1,27.4,24.4,26.7,24.5z"/>
		<path class="st6" d="M25.5,25.4c0.4-1-0.9-1.3-1.5-1.2c-0.1,0-0.4,0.4-0.1,0.4c0.3-0.1,0.5,0,0.8,0.1c0.9,0.3-0.1,1.3-0.6,1.3
			c-0.1,0-0.4,0.3-0.3,0.4c0.4,0.1,0.8,0.2,1.1,0.6c0.3,0.7,0.1,1.1-0.8,1.2c-0.1,0-0.2,0-0.2,0C23.7,28,23.5,28,23.4,28
			c-0.1,0-0.4,0.3-0.2,0.4c0.1,0,0.2,0.1,0.4,0.1c0.1,0,0.2,0.1,0.3,0.1c0.8,0.3,0.1,1.3-0.4,1.6c-0.5,0.3-1.1,0.2-1.7,0.1
			c-0.2,0-0.4,0.3-0.3,0.4c1,0.3,2,0.1,2.8-0.7c0.3-0.3,0.4-0.7,0.4-1.1c0-0.1-0.1-0.3-0.1-0.4c0.3-0.1,0.6-0.3,0.8-0.6
			c0.4-0.7,0-1.3-0.5-1.6C25.1,26.1,25.4,25.8,25.5,25.4z"/>
	</g>
	<g>
		<path class="st7" d="M10.1,5.6c0.2,0,0.5,0,0.7-0.1c0.4-0.2,0.6-0.6,0.6-1.1C11.3,4,11,3.6,10.5,3.5c-0.4-0.1-0.9,0.2-1.1,0.5
			C9.3,4.3,9.3,4.6,9.3,4.8c0,0.2,0,0.5,0.2,0.7C9.7,5.6,9.9,5.6,10.1,5.6z"/>
		<path d="M10.2,4.5C10.1,4.6,10,4.8,10,5c0,0.2,0.2,0.4,0.4,0.4S10.9,5.2,11,5c0-0.2,0-0.3-0.1-0.4c-0.1-0.1-0.2-0.2-0.3-0.2
			C10.5,4.3,10.3,4.4,10.2,4.5z"/>
		<path class="st3" d="M5.8,5.3c0.3,0,0.5,0,0.8-0.1C7,4.9,7.3,4.4,7.2,4C7.1,3.5,6.7,3.1,6.3,3c-0.5-0.1-1,0.2-1.2,0.6
			C4.9,3.9,4.9,4.1,4.9,4.4C4.9,4.7,5,5,5.2,5.1C5.3,5.3,5.6,5.3,5.8,5.3z"/>
		<path class="st7" d="M5.8,5.1c0.2,0,0.4,0,0.6-0.1C6.8,4.8,7,4.4,7,4C6.9,3.6,6.6,3.3,6.2,3.2c-0.4-0.1-0.8,0.1-1,0.5
			C5.1,3.9,5.1,4.1,5.1,4.4c0,0.2,0,0.5,0.2,0.6C5.5,5,5.7,5.1,5.8,5.1z"/>
		<path d="M5.9,4.1C5.8,4.2,5.8,4.4,5.8,4.5c0,0.2,0.2,0.4,0.4,0.4c0.2,0,0.4-0.1,0.5-0.4c0-0.1,0-0.3-0.1-0.4C6.5,4,6.4,4,6.3,3.9
			C6.2,3.9,6,3.9,5.9,4.1z"/>
	</g>
	<path class="st3" d="M8.7,1.2c0.5-0.1,1.1,0.1,1.5,0.4L10.3,0c0,0,0.1-0.1,0.1,0l0.4,1.2c0.3-0.3,0.6-0.4,1-0.6c0,0,0.1,0,0,0.1
		c-0.2,0.2-0.3,0.5-0.3,0.7c0.4-0.3,0.9-0.4,1.4-0.2c0,0,0,0.1,0,0.1c-0.5,0-1,0.4-1.1,1c-0.4,0.1-0.9,0.1-1.3,0.2
		c-0.2,0-0.4,0-0.5,0C9.9,2.4,9.8,2.2,9.7,2C9.6,1.6,9.1,1.3,8.7,1.2C8.6,1.3,8.6,1.2,8.7,1.2z"/>
	<g>
		<path class="st1" d="M5.7,5.7C5.1,5,4.7,9,0.3,8.7c-0.8-0.1-0.1,1.5,1.5,1.5c-0.9,0.6-1,2.1,0.1,1.9s2.3-1.2,4.3-0.5
			c0.1-0.6,1.4-1.3,2-2.1C8.7,8.7,8.4,8.3,8,8.3C6.2,8.3,6.3,6.4,5.7,5.7z"/>
		<path class="st0" d="M5.3,6.9C5.2,7,5.1,7.2,5,7.3C4.9,7.4,4.8,7.4,4.8,7.6c0,0,0,0.1,0,0.1c0.1,0.1,0.2,0,0.2,0
			c0.2-0.1,0.3-0.2,0.4-0.4c0.1-0.2,0.1-0.4,0.1-0.6c0,0-0.1,0-0.2,0C5.4,6.8,5.3,6.9,5.3,6.9z"/>
		<path class="st8" d="M2.2,10.3c1.5,0.2,3.3-0.8,3.6-1c-0.7,1-2.7,2.1-3.9,2C1.4,11.2,1.7,10.5,2.2,10.3z"/>
	</g>
	<g>
		<path class="st5" d="M5.8,22.6c0-0.1,0.2,0,0.2,0c0,0.2,0,0.7,0,1c0,0.2,0,0.4,0.1,0.5c0,0.1,0,0.2,0,0.2c0,0-0.1-0.1-0.1-0.2
			c-0.1-0.1-0.1-0.3-0.1-0.5C5.7,23.3,5.7,22.8,5.8,22.6z"/>
		<path class="st5" d="M7.6,23.4c0-0.1,0.2-0.1,0.2,0c0,0.3,0,0.8,0.1,1.2c0,0.1,0,0.2,0.1,0.3c0,0.1,0.1,0.2,0.1,0.3
			c0,0.1,0,0.2,0,0.3c0,0-0.1-0.1-0.2-0.2c0-0.1-0.1-0.2-0.1-0.2c0-0.1-0.1-0.2-0.1-0.3C7.6,24.3,7.6,23.7,7.6,23.4z"/>
		<path class="st5" d="M5,25.3c0-0.1,0.2-0.1,0.2,0c0,0.2,0.1,0.7,0.2,1c0,0.1,0.1,0.2,0.1,0.2c0,0.1,0.1,0.1,0.1,0.2
			c0,0.1,0.1,0.2,0,0.2c0,0-0.1,0-0.2-0.1c0-0.1-0.1-0.1-0.1-0.2c0-0.1-0.1-0.2-0.1-0.3C5,26,5,25.6,5,25.3z"/>
		<path class="st5" d="M7.9,21.5c0-0.1,0.2-0.1,0.2,0c0,0.3,0.2,1.1,0.1,1.2C8.1,22.7,8,21.9,7.9,21.5z"/>
		<path class="st5" d="M9.4,22.6c0-0.1,0.2-0.1,0.2,0C9.7,23,9.9,24,9.7,24.1C9.6,24.1,9.4,23,9.4,22.6z"/>
		<path class="st5" d="M10.3,25c0-0.1,0.2-0.1,0.2,0c0,0.2,0,0.6,0.1,0.9c0.1,0.3,0.2,0.6,0.1,0.6c0,0-0.1,0-0.1-0.1
			c-0.1-0.1-0.1-0.2-0.2-0.4C10.4,25.6,10.3,25.2,10.3,25z"/>
		<path class="st5" d="M6.3,25.5c0-0.1,0.2-0.1,0.2-0.1c0.1,0.5,0.5,1.8,0.4,1.8C6.8,27.3,6.4,26,6.3,25.5z"/>
		<path class="st5" d="M8.8,26.5c0-0.1,0.2-0.1,0.2-0.1c0.1,0.4,0.5,1.5,0.3,1.5C9.2,28,8.9,26.9,8.8,26.5z"/>
		<path class="st5" d="M5.8,28.3c0-0.1,0.2-0.1,0.2,0c0,0.2,0,0.7,0.2,1.1c0,0.1,0,0.2,0.1,0.3c0,0.1,0.1,0.2,0.1,0.2
			c0,0.1,0,0.2,0,0.2c0,0-0.1,0-0.2-0.2c0-0.1-0.1-0.1-0.1-0.2C6,29.7,6,29.6,6,29.5C5.8,29.1,5.8,28.6,5.8,28.3z"/>
		<path class="st5" d="M7.8,28.9c0-0.1,0.2-0.1,0.2,0c0,0.2,0.1,0.7,0.3,1c0,0.1,0.1,0.2,0.1,0.3c0,0.1,0.1,0.1,0.1,0.2
			c0.1,0.1,0.1,0.2,0.1,0.2c0,0-0.1,0-0.2-0.1c0-0.1-0.1-0.1-0.2-0.2c-0.1-0.1-0.1-0.2-0.1-0.3C7.8,29.6,7.8,29.1,7.8,28.9z"/>
		<path class="st5" d="M10.4,27.8c0-0.1,0.2-0.1,0.2,0c0.1,0.3,0.2,0.8,0.4,1.3c0.1,0.2,0.2,0.4,0.2,0.6c0.1,0.2,0.1,0.3,0.1,0.3
			c0,0-0.1-0.1-0.2-0.2c-0.1-0.1-0.2-0.3-0.3-0.6C10.5,28.7,10.4,28.1,10.4,27.8z"/>
		<path class="st5" d="M12.5,29.1c0-0.1,0.2-0.1,0.2-0.1c0.1,0.3,0.4,0.9,0.3,1C12.9,30,12.6,29.4,12.5,29.1z"/>
		<path class="st5" d="M10,30.3c0-0.1,0.2-0.1,0.2,0c0,0.2,0.1,0.6,0.3,0.9c0,0.1,0.1,0.2,0.1,0.2c0,0.1,0.1,0.1,0.1,0.2
			c0.1,0.1,0.1,0.2,0.1,0.2c0,0-0.1,0-0.2-0.1c0,0-0.1-0.1-0.2-0.2c-0.1-0.1-0.1-0.1-0.1-0.2C10.1,31,10,30.5,10,30.3z"/>
		<path class="st5" d="M7.1,31.4c0-0.1,0.2-0.2,0.2-0.1c0.2,0.4,0.8,1.5,0.7,1.6C7.8,32.9,7.3,31.8,7.1,31.4z"/>
		<path class="st5" d="M9.4,32.6c-0.1-0.1,0.1-0.2,0.2-0.2c0.2,0.3,1,1.1,0.8,1.2C10.3,33.8,9.6,33,9.4,32.6z"/>
		<path class="st5" d="M11.7,31.2c0-0.1,0.2-0.1,0.2-0.1c0.1,0.2,0.2,0.5,0.4,0.8c0,0.1,0.1,0.1,0.1,0.2c0,0.1,0.1,0.1,0.1,0.2
			c0.1,0.1,0.1,0.2,0.1,0.2c0,0-0.1,0-0.2-0.1c0,0-0.1-0.1-0.2-0.1c-0.1-0.1-0.1-0.1-0.2-0.2C11.9,31.8,11.8,31.4,11.7,31.2z"/>
		<path class="st5" d="M13.7,30.2c0-0.1,0.2-0.1,0.2-0.1c0.1,0.2,0.2,0.5,0.5,0.8c0.1,0.1,0.2,0.3,0.3,0.4c0.1,0.1,0.1,0.2,0.1,0.2
			c0,0-0.1,0-0.2-0.1c-0.1-0.1-0.2-0.2-0.3-0.3C14,30.8,13.8,30.4,13.7,30.2z"/>
		<path class="st5" d="M13.7,32.2c0-0.1,0.2-0.2,0.2-0.1c0.2,0.4,0.8,1.5,0.6,1.6C14.4,33.8,13.8,32.7,13.7,32.2z"/>
		<path class="st5" d="M15.2,33.2c-0.1-0.1,0.1-0.2,0.2-0.2c0.3,0.3,1.1,1,1,1.2C16.3,34.3,15.5,33.5,15.2,33.2z"/>
		<path class="st5" d="M11.8,33.8c-0.1-0.1,0.1-0.2,0.2-0.2c0.3,0.3,1,1.1,0.9,1.2C12.8,35,12.1,34.2,11.8,33.8z"/>
		<path class="st5" d="M8.6,34c-0.1-0.1,0.1-0.2,0.2-0.2c0.3,0.4,1.3,1.3,1.2,1.4C9.9,35.4,8.9,34.4,8.6,34z"/>
		<path class="st5" d="M7.2,33.5c0-0.1,0.2-0.2,0.2-0.2c0.2,0.3,0.9,1,0.8,1.1C8.1,34.6,7.5,33.8,7.2,33.5z"/>
		<path class="st5" d="M11.6,35.6c-0.1-0.1,0.1-0.2,0.2-0.2c0.2,0.2,0.5,0.4,0.8,0.6c0.1,0,0.2,0.1,0.2,0.1c0.1,0,0.1,0.1,0.2,0.1
			c0.1,0.1,0.2,0.1,0.2,0.1c0,0-0.1,0-0.2,0c-0.1,0-0.1,0-0.2,0c-0.1,0-0.2-0.1-0.3-0.1C12.1,36,11.8,35.7,11.6,35.6z"/>
		<path class="st5" d="M14.2,35.1c-0.1,0,0.1-0.2,0.1-0.2c0.2,0.2,0.9,0.6,0.9,0.7C15.1,35.7,14.4,35.3,14.2,35.1z"/>
		<path class="st5" d="M16.4,35.1c0-0.1,0.2-0.2,0.2-0.1c0.1,0.1,0.2,0.3,0.4,0.4c0,0,0.1,0.1,0.1,0.1c0,0,0.1,0,0.1,0.1
			c0.1,0,0.1,0.1,0.1,0.1c0,0-0.1,0.1-0.2,0c0,0-0.1,0-0.2,0c-0.1,0-0.1,0-0.2-0.1C16.7,35.5,16.5,35.3,16.4,35.1z"/>
		<path class="st5" d="M15,36.5c-0.1-0.1,0.2-0.2,0.2-0.1c0.1,0.1,0.3,0.4,0.6,0.5C15.9,37,16,37,16,37.1c0.1,0.1,0.1,0.1,0.1,0.1
			c0,0-0.1,0-0.2,0c-0.1,0-0.2-0.1-0.4-0.2C15.3,36.9,15.1,36.7,15,36.5z"/>
		<path class="st5" d="M10.1,36.4c0-0.1,0.2-0.1,0.2-0.1c0.1,0.2,0.3,0.4,0.5,0.6c0.1,0,0.1,0.1,0.2,0.1c0.1,0,0.1,0.1,0.1,0.1
			c0.1,0.1,0.1,0.1,0.1,0.2c0,0-0.1,0-0.2,0c-0.1,0-0.1,0-0.2-0.1c-0.1,0-0.1-0.1-0.2-0.1C10.3,37,10.1,36.6,10.1,36.4z"/>
		<path class="st5" d="M13.1,37.9c-0.1-0.1,0.1-0.2,0.2-0.2c0.2,0.1,0.5,0.3,0.8,0.5c0.2,0.1,0.3,0.1,0.4,0.2c0.1,0,0.2,0.1,0.2,0.1
			c0,0-0.1,0-0.2,0c-0.1,0-0.3,0-0.5-0.1C13.7,38.3,13.3,38.1,13.1,37.9z"/>
		<path class="st5" d="M17.5,37.1c-0.1-0.1,0-0.3,0.1-0.2c0.3,0.1,0.8,0.3,1.2,0.3c0.1,0,0.2,0,0.3,0.1c0.1,0,0.2,0,0.3,0
			c0.2,0,0.3,0.1,0.3,0.1c0,0-0.1,0.1-0.3,0.1c-0.1,0-0.2,0-0.3,0c-0.1,0-0.2,0-0.3,0C18.3,37.4,17.7,37.2,17.5,37.1z"/>
		<path class="st5" d="M16.5,38.5c-0.1,0,0-0.3,0.1-0.2c0.4,0.1,1.7,0.4,1.6,0.5C18.2,39,17,38.7,16.5,38.5z"/>
		<path class="st5" d="M19.5,38.4c-0.1,0,0.1-0.2,0.1-0.2c0.2,0.1,0.5,0.2,0.9,0.3c0.2,0,0.3,0.1,0.4,0.1c0.1,0,0.2,0.1,0.2,0.1
			c0,0-0.1,0.1-0.2,0.1c-0.1,0-0.3,0-0.5,0C20.1,38.6,19.7,38.5,19.5,38.4z"/>
		<path class="st5" d="M18.1,39.6c-0.1,0-0.1-0.2,0-0.2c0.3,0,1.1-0.1,1.1,0.1C19.2,39.6,18.4,39.6,18.1,39.6z"/>
	</g>
</g>
</svg>
