<?xml version="1.0" encoding="utf-8"?>
<!-- Generator: Adobe Illustrator 19.2.1, SVG Export Plug-In . SVG Version: 6.00 Build 0)  -->
<svg version="1.1" id="Layer_1" xmlns="http://www.w3.org/2000/svg" xmlns:xlink="http://www.w3.org/1999/xlink" x="0px" y="0px"
	 viewBox="0 0 70.2 83.7" style="enable-background:new 0 0 70.2 83.7;" xml:space="preserve">
<style type="text/css">
	.st0{fill:#CEB79D;}
	.st1{fill:#EA888A;}
	.st2{fill:#FFA1A6;}
	.st3{fill:#60402F;}
	.st4{fill:#997761;}
	.st5{fill:#E0CFB8;}
	.st6{fill:#FFFFFF;}
	.st7{fill:#EFE1D0;}
	.st8{fill:#A18074;}
	.st9{fill:#7C574C;}
	.st10{fill:#F7EFE7;}
	.st11{fill:#B78462;}
	.st12{fill:#BC3139;}
</style>
<g>
	<path class="st0" d="M19.4,56.3c-1.2,0-2.3-0.1-3.5-0.1c-0.3,7.7-0.5,15.6-0.3,23.5c0,0.3,0,0.6,0,0.6l2.7,0c0,0,0-0.5,0-0.6
		C17.6,71.9,18,64,19.4,56.3z"/>
	<g>
		<path class="st1" d="M15.6,68.5c-0.1-0.3-1-4.7-0.7-4.8c0.3-0.1,2.2,3.9,2.3,4.3c0.1,0.3,0,0.7-0.6,0.9
			C16,69.1,15.7,68.8,15.6,68.5z"/>
		<path class="st1" d="M12.2,68.7c0-0.3,0.4-4.5,0.7-4.5c0.3,0,1,4.1,1,4.5c0,0.3-0.2,0.7-0.8,0.7C12.4,69.4,12.2,69,12.2,68.7z"/>
	</g>
	<path class="st2" d="M10.3,65.5c1,0.5,2.1,0.6,3.2,0.6c1.4,0,2.8-0.3,4-0.9c2.3-1.3,3.6-4.2,2.9-6.8c-4.3,0.1-8.6-0.1-12.9-0.4
		c0,1.4,0,2.9,0.3,4.2C8.2,63.5,9,64.8,10.3,65.5z"/>
	<polygon class="st3" points="18.4,83.4 17.6,83.3 17.4,81.4 17.8,81.3 	"/>
	<path class="st4" d="M18.3,79.7c-0.7,0.8-2,0.7-2.7,0c-0.5,0.5-1.2,2.3-1.2,2.3s1,2.2,3.5,1.6c0-0.3-0.2-2-0.2-2l0.7,1.8
		c0,0,0.8-0.2,0.9-0.9C19.3,82,18.9,80.6,18.3,79.7z"/>
	<polygon class="st3" points="45,83.4 44.1,83.3 44,81.4 44.3,81.3 	"/>
	<path class="st0" d="M46,56.3c-1.2,0-2.3-0.1-3.5-0.1c-0.3,7.7-0.5,15.6-0.3,23.5c0,0.3,0,0.6,0,0.6l2.7,0c0,0,0-0.5,0-0.6
		C44.2,71.9,44.6,64,46,56.3z"/>
	<path class="st4" d="M44.8,79.7c-0.7,0.8-2,0.7-2.7,0c-0.5,0.5-1.2,2.3-1.2,2.3s1,2.2,3.5,1.6c0-0.3-0.2-2-0.2-2l0.7,1.8
		c0,0,0.8-0.2,0.9-0.9C45.8,82,45.5,80.6,44.8,79.7z"/>
	<path class="st0" d="M70.1,19.4c-0.4,1.4-1.6,2.5-2.9,3.1c-1.3,0.6-2.9,0.7-4.3,0.5c-1.4-0.2-2.8-0.7-4.2-1.3
		c-0.4-0.2-0.8-0.3-1-0.7c-0.4-0.5-0.4-1.2-0.4-1.8c1.4-1,3.1-1.7,4.8-1.5c1.2,0.1,2.3,0.7,3.4,1.2c1.1,0.4,2.4,0.6,3.5,0.1
		c0.2-0.1,0.3-0.2,0.5-0.3c0.2-0.1,0.4,0,0.6,0.1C70.2,18.9,70.2,19.1,70.1,19.4z"/>
	<path class="st5" d="M4.8,43.3c1.6-3,5.1-4.6,8.6-5.1c3.5-0.4,7,0.1,10.5,0.3c4.4,0.2,9-0.1,13-2c3.8-1.8,5.8-5.3,6.2-9.5
		c-0.3-2.3-0.1-4.6,0.9-6.7c1.8-3.9,6.4-6.6,10.6-5.7c2.5,0.6,5,2.1,6,4.5c10.2,24.9-3.3,22.2-5.3,21.4c-1.7-0.7-3.3-1.5-4.8-2.5
		c0,0.1,0,0.2,0,0.2c0.1,3.7,0.2,7.5-0.5,11.1c-0.7,3.6-2.2,7.2-5,9.6c-2.4,2.1-5.6,3.3-8.7,4.1C28.5,65,20,64.9,12.1,62.7
		c-2.1-0.6-4.4-1.4-5.8-3.1c-1.6-1.9-1.9-4.4-2.2-6.8C3.7,49.6,3.3,46.1,4.8,43.3z"/>
	<path class="st5" d="M62.9,23c0.2,0.3,0.2,0.7,0.2,1.1c0,0.3-0.1,0.7-0.3,1c-0.2,0.2-0.5,0.2-0.7,0.3c-0.4,0-0.9-0.1-1.3-0.3
		c-0.4-0.3-0.6-0.7-0.6-1.1c0-0.4,0.2-0.9,0.5-1.1c0.3-0.2,0.6-0.2,0.9-0.2C62.1,22.4,62.6,22.6,62.9,23z"/>
	<g>
		<path class="st6" d="M49.3,26.1c0.2,0.3,0.2,0.6,0.2,0.9c0,0.3-0.1,0.6-0.3,0.8c-0.2,0.1-0.4,0.2-0.6,0.2c-0.4,0-0.7-0.1-1.1-0.3
			c-0.3-0.2-0.5-0.6-0.5-0.9c0-0.4,0.1-0.8,0.4-1c0.2-0.2,0.5-0.2,0.8-0.2C48.7,25.6,49.1,25.7,49.3,26.1z"/>
		<path d="M47.6,26.7c0.1-0.2,0.2-0.3,0.5-0.4c0.3-0.1,0.6,0.1,0.7,0.3c0.1,0.2,0.1,0.6-0.1,0.8c-0.1,0.1-0.2,0.2-0.3,0.2
			c-0.2,0-0.3,0-0.4-0.1c-0.1-0.1-0.2-0.2-0.3-0.4C47.6,27,47.6,26.9,47.6,26.7z"/>
		<path class="st6" d="M62.7,23.1c0.2,0.3,0.2,0.6,0.2,0.9c0,0.3-0.1,0.6-0.3,0.8C62.4,25,62.2,25,62,25c-0.4,0-0.7-0.1-1.1-0.3
			c-0.3-0.2-0.5-0.6-0.5-0.9c0-0.4,0.1-0.8,0.4-1c0.2-0.2,0.5-0.2,0.8-0.2C62,22.7,62.5,22.8,62.7,23.1z"/>
		<path d="M60.7,23.8c0.1-0.2,0.2-0.3,0.4-0.3c0.2,0,0.5,0.1,0.6,0.3c0.1,0.2,0.1,0.5-0.1,0.7c-0.1,0.1-0.2,0.1-0.3,0.1
			c-0.1,0-0.3,0-0.4-0.1c-0.1-0.1-0.2-0.2-0.2-0.3C60.7,24.1,60.7,23.9,60.7,23.8z"/>
	</g>
	<path class="st7" d="M43,24.3c0.1-1.4,0.4-2.7,1-3.9c1.8-3.9,6.4-6.6,10.6-5.7c2.5,0.6,5,2.1,6,4.5c0.1,0.2,0.1,0.3,0.2,0.5
		c-1.1,1.2-1.2,3.2-1.1,4.9c0.2,2.9,0.9,5.8,2,8.5c-1.3,0.4-2.7,0.8-4,1.1c-1.5-3.1-3.4-6-6.1-8C49.1,24.4,45.9,23.6,43,24.3z"/>
	<g>
		<g>
			<path class="st5" d="M32.9,23.2c0.5,1.4,1.8,2.4,3.2,2.8c1.4,0.5,2.9,0.4,4.3,0.1c1.4-0.3,2.8-1,4.1-1.6c0.4-0.2,0.7-0.4,1-0.8
				c0.4-0.5,0.3-1.2,0.2-1.9c-1.5-0.8-3.2-1.4-4.9-1.1c-1.2,0.2-2.2,0.9-3.3,1.4c-1.1,0.5-2.4,0.9-3.5,0.4c-0.2-0.1-0.4-0.2-0.6-0.2
				c-0.2,0-0.4,0-0.5,0.2C32.8,22.7,32.8,22.9,32.9,23.2z"/>
		</g>
	</g>
	<path class="st0" d="M34.6,24.6c1.6,1.2,3.2,1.2,5.2,1c2-0.2,3.9-1,5.3-2.4c-1.5-0.6-3.3-0.7-4.9-0.3c-0.7,0.2-1.4,0.5-2.1,0.6
		c-1.5,0.3-4.1-0.3-4.6-0.6C33,22.8,33.7,24,34.6,24.6z"/>
	<path class="st8" d="M47.7,16.5c-1.9-2-5.7-4.8-8.4-5.5c-2-0.5-4.2-0.7-6.3-0.7c-0.5,0-0.6,0.6-0.2,0.8c4.7,1.9,9.3,4.1,12.6,7.9
		C46.4,19.5,48.4,17.2,47.7,16.5z"/>
	<g>
		<path class="st9" d="M42.8,12.6c0.1,0.1,0.3,0.2,0.4,0.3c-0.5,0.9-1.2,1.8-2,2.4c-0.1-0.1-0.3-0.2-0.4-0.3
			C41.7,14.4,42.3,13.5,42.8,12.6z"/>
		<path class="st9" d="M44.8,18.2c-0.1-0.1-0.2-0.2-0.3-0.3c0.9-0.6,1.6-1.5,2.1-2.5c0.1,0.1,0.3,0.3,0.4,0.4
			C46.5,16.8,45.7,17.6,44.8,18.2z"/>
		<path class="st9" d="M40.8,11.5c-0.1,1.1-0.2,2.1-0.6,3.1c-0.2-0.1-0.3-0.2-0.5-0.3c0.3-1,0.5-2,0.5-3
			C40.4,11.4,40.6,11.4,40.8,11.5z"/>
		<path class="st9" d="M44.3,13.6c-0.1,1.2-0.3,2.3-0.7,3.5c-0.1-0.1-0.3-0.2-0.4-0.4c0.4-1.1,0.6-2.3,0.7-3.5
			C43.9,13.3,44.1,13.5,44.3,13.6z"/>
		<path class="st9" d="M35,10.4c0.2,0,0.4,0,0.6,0c-0.2,0.5-0.5,1-0.7,1.5c-0.2-0.1-0.3-0.1-0.5-0.2C34.6,11.3,34.8,10.8,35,10.4z"
			/>
		<path class="st9" d="M39,10.9c0.1,0,0.2,0.1,0.3,0.1c0.1,0,0.1,0,0.2,0c-0.4,0.9-0.9,1.7-1.4,2.4c-0.2-0.1-0.3-0.2-0.5-0.2
			C38.2,12.5,38.6,11.8,39,10.9z"/>
		<path class="st9" d="M36.9,10.5c-0.1,0.7-0.2,1.5-0.3,2.2c-0.2-0.1-0.3-0.2-0.5-0.2c0.1-0.7,0.2-1.3,0.3-2
			C36.5,10.5,36.7,10.5,36.9,10.5z"/>
	</g>
	<path class="st8" d="M52,15.2c-0.3-2.8,0.2-7.4,1.4-9.9c1-1.9,2.2-3.6,3.7-5.2c0.3-0.3,0.9,0,0.7,0.4c-1.7,4.8-3.2,9.7-2.5,14.7
		C55.2,16.2,52.1,16.2,52,15.2z"/>
	<g>
		<path class="st9" d="M52.4,8.9c0,0.2-0.1,0.3-0.1,0.5c1,0.2,2.1,0.3,3.1,0.1c0-0.2,0-0.3,0.1-0.5C54.4,9.2,53.4,9.2,52.4,8.9z"/>
		<path class="st9" d="M55.2,14.1c0-0.1,0-0.3,0-0.4C54.1,14,53,13.9,52,13.6c0,0.2,0,0.4,0,0.6C53,14.4,54.2,14.4,55.2,14.1z"/>
		<path class="st9" d="M52.9,6.7c0.8,0.7,1.7,1.2,2.7,1.6c0-0.2,0.1-0.4,0.1-0.5c-0.9-0.4-1.8-1-2.6-1.6C53,6.3,53,6.5,52.9,6.7z"/>
		<path class="st9" d="M52.1,10.7c0.9,0.7,2,1.3,3.1,1.8c0-0.2,0-0.4,0-0.6c-1.1-0.4-2.1-1.1-3-1.8C52.2,10.2,52.1,10.5,52.1,10.7z"
			/>
		<path class="st9" d="M55.9,1.6c-0.1,0.1-0.2,0.3-0.3,0.4c0.5,0.2,1.1,0.3,1.6,0.5c0.1-0.2,0.1-0.3,0.2-0.5
			C56.8,1.9,56.3,1.8,55.9,1.6z"/>
		<path class="st9" d="M53.6,5c-0.1,0.1-0.1,0.2-0.2,0.3c0,0.1-0.1,0.1-0.1,0.2c0.9,0.3,1.8,0.5,2.7,0.5c0-0.2,0.1-0.3,0.1-0.5
			C55.4,5.4,54.5,5.2,53.6,5z"/>
		<path class="st9" d="M54.8,3.1C55.3,3.6,56,4,56.6,4.3c0.1-0.2,0.1-0.3,0.2-0.5c-0.6-0.3-1.1-0.7-1.7-1.1C55,2.8,54.9,3,54.8,3.1z
			"/>
	</g>
	<path class="st10" d="M49.2,19c0,0-1.3,1.1-2,1.2c-0.6,0-0.6-0.5-0.3-0.7c0.3-0.3,1-0.6,1-0.6s-1-0.1-1.5-0.2
		c-0.2-0.1-0.5-0.3-0.4-0.5c0.1-0.2,0.3-0.3,0.5-0.3c0.6-0.1,1.2-0.2,1.8-0.2c-0.5-0.2-0.9-0.6-1.1-1c-0.1-0.2-0.1-0.3-0.1-0.5
		c0.1-0.2,0.3-0.3,0.5-0.3c0.2,0,0.4,0,0.6,0.1c0.6,0.2,1.5,0.6,1.5,0.6s0-1,0.3-1.6c0.1-0.2,0.2-0.3,0.4-0.4
		c0.2-0.1,0.5,0.1,0.7,0.3c0.2,0.2,0.4,1.1,0.4,1.1s0.7-1.4,1.5-1.8c0.1-0.1,0.3-0.1,0.4-0.1c0.2,0.1,0.2,0.3,0.2,0.5
		c0,0.5-0.5,1.4-0.5,1.4s1.3-0.9,2-1.1c0.3-0.1,0.8-0.2,1,0.1c0.2,0.2,0.1,0.6,0,0.8c-0.2,0.2-0.5,0.4-0.7,0.4
		c-0.3,0.1-0.8,0.3-0.8,0.3s0.7-0.1,1.1,0c0.2,0,0.3,0.2,0.3,0.3c0,0.1-0.1,0.2-0.3,0.3c-0.4,0.2-1.2,0.2-1.2,0.2s1.5,0.5,1.1,1.1
		c-0.5,0.6-3-0.1-3-0.1s0.6,0.7,0.3,1c-0.3,0.4-1.3-0.7-1.3-0.7s0.1,0.5,0.1,0.7s0,0.5-0.3,0.6c-0.2,0.1-0.5,0-0.6-0.2
		c-0.1-0.2-0.2-0.7-0.2-0.7s-0.3,0.5-0.6,0.7s-0.5,0.3-0.8,0.2C48.9,19.6,49.2,19,49.2,19z"/>
	<path class="st11" d="M52.9,37.1c-0.1,0.1-0.6-0.1-0.5-0.2c0.3-0.2,0.4-0.6,0.4-0.9c0-0.1,0.5,0,0.5,0.1c0,0.1,0,0.3-0.1,0.4
		c2,1.2,4.4,2.5,6.8,2.3c0,0,0,0,0,0c0.1-1.1,0-2.2-0.5-3.3c-0.1-0.3,0.4-0.3,0.5-0.1c0.4,1.1,0.6,2.2,0.5,3.3
		c0.2,0,0.4-0.1,0.6-0.1c1.4-0.4,2.4-1.4,3-2.6c-0.1,0.5-0.2,0.9-0.3,1.3c-0.8,0.9-1.9,1.5-3.1,1.7c-2.6,0.5-5.4-0.9-7.6-2.3
		C53.1,36.9,53,37,52.9,37.1z"/>
	<g>
		<path class="st1" d="M59.9,32.6c-0.7,0.1-1.3,0.2-1.9,0.6c-0.4,0.3-0.6,0.7-0.5,1.2c0.1,0.4,0.4,0.7,0.7,0.9
			c0.4,0.3,0.7,0.5,1.2,0.7c0.3,0.1,0.6,0.2,0.9,0.1c0.3-0.1,0.6-0.4,0.8-0.7c0.2-0.3,0.4-0.7,0.5-1.1c0.2-0.5,0.2-1-0.1-1.4
			c-0.2-0.2-0.5-0.3-0.8-0.4C60.5,32.5,60.2,32.6,59.9,32.6z"/>
		<path class="st12" d="M61.1,33.3c-0.3-0.1-0.9,0-1,0.3c-0.1,0.2,0,0.5,0,0.7c0.1,0.3,0.1,0.7,0.2,1c0,0.3-0.2,0.6-0.5,0.5
			c-0.1,0-0.2-0.2-0.3-0.3c-0.2-0.3-0.2-0.6-0.3-0.9c-0.1-0.4-0.3-0.9-0.8-0.7c-0.4,0.2-0.5,0.7-0.1,0.9c0.3,0.2,0.6,0,0.8-0.3
			c0,0.1,0.1,0.2,0.1,0.3c0.1,0.3,0.1,0.7,0.4,0.9c0.2,0.1,0.5,0.1,0.7,0c0.2-0.1,0.3-0.3,0.3-0.5c0-0.3-0.1-0.6-0.2-0.9
			c0.2,0.1,0.5,0.1,0.8-0.1C61.4,34,61.6,33.5,61.1,33.3z"/>
	</g>
	<polygon class="st3" points="36.6,83.4 35.8,83.3 35.6,81.4 36,81.3 	"/>
	<path class="st5" d="M37.6,56.3c-1.2,0-2.3-0.1-3.5-0.1c-0.3,7.7-0.5,15.6-0.3,23.5c0,0.3,0,0.6,0,0.6l2.7,0c0,0,0-0.5,0-0.6
		C35.8,71.9,36.2,64,37.6,56.3z"/>
	<path class="st4" d="M36.5,79.7c-0.7,0.8-2,0.7-2.7,0c-0.5,0.5-1.2,2.3-1.2,2.3s1,2.2,3.5,1.6c0-0.3-0.2-2-0.2-2l0.7,1.8
		c0,0,0.8-0.2,0.9-0.9C37.5,82,37.2,80.6,36.5,79.7z"/>
	<polygon class="st3" points="10,83.4 9.2,83.3 9.1,81.4 9.4,81.3 	"/>
	<path class="st5" d="M11,56.3c-1.2,0-2.3-0.1-3.5-0.1C7.3,64,7,71.8,7.2,79.7c0,0.3,0,0.6,0,0.6l2.7,0c0,0,0-0.5,0-0.6
		C9.3,71.9,9.7,64,11,56.3z"/>
	<path class="st4" d="M9.9,79.7c-0.7,0.8-2,0.7-2.7,0C6.7,80.2,6,82.1,6,82.1s1,2.2,3.5,1.6c0-0.3-0.2-2-0.2-2l0.7,1.8
		c0,0,0.8-0.2,0.9-0.9C10.9,82,10.6,80.6,9.9,79.7z"/>
	<path class="st5" d="M1.1,40.1c-0.3,0-0.6-0.1-0.9-0.1c0.1,1,0.7,1.9,1.6,2.3c-0.3,0-0.5,0-0.8-0.1c0.6,1.7,2.1,3,3.9,3.3
		c1.5-1.2,2.5-2.9,2.8-4.8C6,40.8,4.3,40.2,3,39.2c-1.3-1.1-2.2-2.6-2.5-4.2c-0.5,1.1-0.3,2.5,0.3,3.5c-0.3-0.1-0.6-0.1-0.8-0.2
		C0,39,0.4,39.7,1.1,40.1z"/>
	<g>
		<path class="st7" d="M41.6,36.5c0-0.1-0.3-0.1-0.3,0c0,0.2-0.1,0.6-0.3,0.9c-0.1,0.3-0.3,0.5-0.2,0.6c0.1,0.1,0.4-0.1,0.6-0.4
			C41.5,37.2,41.6,36.8,41.6,36.5z"/>
		<path class="st7" d="M38.7,37.6c0.1-0.1-0.2-0.3-0.3-0.2c-0.3,0.4-1.1,1.4-0.9,1.5C37.6,39.1,38.4,38,38.7,37.6z"/>
		<path class="st7" d="M40.2,39.8c0.1-0.1-0.3-0.2-0.3-0.2c0,0.1-0.1,0.1-0.1,0.2c-0.1,0.1-0.1,0.2-0.2,0.2
			c-0.1,0.2-0.3,0.3-0.4,0.5c-0.1,0.1-0.1,0.2-0.2,0.2c-0.1,0.1-0.1,0.1-0.2,0.2c-0.1,0.1-0.1,0.2-0.1,0.2c0,0,0.1,0,0.3,0
			c0.1,0,0.1-0.1,0.2-0.1c0.1-0.1,0.2-0.1,0.3-0.2c0.2-0.1,0.3-0.3,0.5-0.5c0.1-0.1,0.1-0.2,0.2-0.3C40.1,39.9,40.2,39.9,40.2,39.8z
			"/>
		<path class="st7" d="M33.5,39.1c0.1-0.1-0.1-0.3-0.2-0.3c-0.3,0.2-0.7,0.6-1.1,1.1c-0.3,0.4-0.4,0.9-0.3,0.9
			c0.1,0,0.3-0.3,0.6-0.7C32.8,39.7,33.2,39.3,33.5,39.1z"/>
		<path class="st7" d="M34.3,40.2c0.1-0.1-0.2-0.3-0.3-0.2c-0.3,0.3-1.2,1.2-1,1.3S34,40.6,34.3,40.2z"/>
		<path class="st7" d="M37.1,40.3c0.1-0.1-0.3-0.3-0.3-0.2c-0.3,0.5-1.2,1.9-1,2C36,42.3,36.8,40.8,37.1,40.3z"/>
		<path class="st7" d="M36.3,38.1c0-0.1-0.2-0.3-0.3-0.2c-0.2,0.2-0.7,0.8-0.5,1C35.7,39,36.2,38.3,36.3,38.1z"/>
		<path class="st7" d="M38.3,42.9c0-0.1-0.3-0.2-0.3-0.1c-0.1,0.5-0.5,1.9-0.3,2C37.9,44.9,38.2,43.4,38.3,42.9z"/>
		<path class="st7" d="M34.7,42.7c0-0.1-0.3-0.2-0.3-0.1c-0.2,0.4-0.6,1.3-0.4,1.4C34.2,44,34.6,43,34.7,42.7z"/>
		<path class="st7" d="M36.3,44.1C36.4,44,36,43.9,36,44c-0.3,0.7-1.3,2.8-1.1,2.9C35.1,46.9,36,44.9,36.3,44.1z"/>
		<path class="st7" d="M32.1,42.4c0-0.1-0.3-0.2-0.3-0.2c-0.2,0.3-0.6,1.2-0.4,1.3S31.9,42.7,32.1,42.4z"/>
		<path class="st7" d="M30.1,41.5c0.1-0.1-0.2-0.3-0.2-0.3c-0.3,0.3-1.2,1-1,1.2C29,42.6,29.8,41.8,30.1,41.5z"/>
		<path class="st7" d="M30.5,39.5c0.1-0.1-0.1-0.3-0.2-0.3c-0.5,0.3-1.8,1-1.7,1.2C28.8,40.6,30.1,39.8,30.5,39.5z"/>
		<path class="st7" d="M27.5,39.6c0.1-0.1-0.1-0.3-0.2-0.3c-0.5,0.4-1.8,1.3-1.6,1.5C25.8,41,27,40,27.5,39.6z"/>
		<path class="st7" d="M27.4,41.3c0.1-0.1-0.2-0.3-0.3-0.2c-0.3,0.4-1.3,1.6-1.1,1.8C26.2,43,27.1,41.8,27.4,41.3z"/>
		<path class="st7" d="M27.7,43.2c0-0.1-0.3-0.2-0.3-0.1c-0.2,0.4-0.7,1.6-0.5,1.7C27.1,44.8,27.5,43.6,27.7,43.2z"/>
		<path class="st7" d="M29.9,43.6c0-0.1-0.3-0.2-0.3-0.1c-0.1,0.4-0.5,1.6-0.3,1.7C29.5,45.2,29.8,44,29.9,43.6z"/>
		<path class="st7" d="M32.6,44.2c0-0.1-0.3-0.2-0.3-0.1c-0.2,0.4-0.7,1.5-0.5,1.6C32,45.7,32.5,44.6,32.6,44.2z"/>
		<path class="st7" d="M33.7,45.4c0-0.1-0.3-0.2-0.3-0.1c-0.1,0.4-0.6,1.5-0.3,1.6C33.2,47,33.6,45.8,33.7,45.4z"/>
		<path class="st7" d="M37,46.6c0-0.1-0.3-0.1-0.3-0.1c-0.1,0.4-0.4,1.6-0.2,1.7C36.7,48.2,37,47,37,46.6z"/>
		<path class="st7" d="M40.4,42.4c0-0.1-0.3-0.1-0.3-0.1c-0.1,0.5-0.4,1.7-0.2,1.8C40.2,44.2,40.4,42.9,40.4,42.4z"/>
		<path class="st7" d="M38.9,45.6c0-0.1-0.3-0.1-0.3,0c-0.1,0.6-0.3,2.3-0.1,2.4C38.7,48,38.9,46.3,38.9,45.6z"/>
		<path class="st7" d="M41.7,45.5c0-0.1-0.3-0.2-0.3-0.1c-0.1,0.5-0.6,1.8-0.4,1.9C41.2,47.4,41.6,46,41.7,45.5z"/>
		<path class="st7" d="M37.3,49.3c0-0.1-0.3-0.1-0.3-0.1c-0.1,0.4-0.4,1.4-0.1,1.4C37,50.6,37.2,49.6,37.3,49.3z"/>
		<path class="st7" d="M34.5,48.3c0-0.1-0.3-0.2-0.3-0.1c-0.1,0.6-0.5,2.1-0.3,2.1C34.1,50.4,34.4,48.9,34.5,48.3z"/>
		<path class="st7" d="M30.7,47c0-0.1-0.3-0.2-0.3-0.1c-0.1,0.5-0.5,1.9-0.3,2C30.3,49,30.6,47.5,30.7,47z"/>
		<path class="st7" d="M28.1,45.6c0-0.1-0.3-0.2-0.3-0.1c-0.1,0.4-0.4,1.4-0.2,1.5C27.8,47,28,46,28.1,45.6z"/>
		<path class="st7" d="M32.2,48.7c0-0.1-0.3-0.1-0.3-0.1c0,0.3-0.2,1.1,0,1.1C32.1,49.8,32.2,49,32.2,48.7z"/>
		<path class="st7" d="M30.5,45.4c0-0.1-0.3-0.2-0.3-0.2c-0.2,0.4-0.7,1.3-0.5,1.4C29.9,46.8,30.4,45.8,30.5,45.4z"/>
		<path class="st7" d="M23.7,39.7c0.1-0.1-0.1-0.3-0.2-0.3c-0.5,0.3-1.7,1.2-1.6,1.4C22.1,41,23.3,40.1,23.7,39.7z"/>
		<path class="st7" d="M24.6,42c0.1-0.1-0.2-0.3-0.3-0.2c-0.3,0.5-1.2,1.7-1,1.8C23.5,43.8,24.3,42.5,24.6,42z"/>
		<path class="st7" d="M25.8,44.4c0.1-0.1-0.2-0.3-0.3-0.2c-0.4,0.5-1.4,1.9-1.2,2C24.5,46.4,25.5,44.9,25.8,44.4z"/>
		<path class="st7" d="M25.8,47.3c0-0.1-0.3-0.2-0.3-0.1c-0.2,0.3-0.6,1.2-0.4,1.3C25.3,48.6,25.7,47.7,25.8,47.3z"/>
		<path class="st7" d="M20.5,39.4c0.1-0.1-0.2-0.3-0.3-0.2c-0.3,0.3-1.2,1.2-1,1.4C19.5,40.7,20.3,39.8,20.5,39.4z"/>
		<path class="st7" d="M21.3,42.1c0.1-0.1-0.3-0.3-0.3-0.2c-0.3,0.5-1.1,1.7-0.9,1.8C20.4,43.8,21.1,42.6,21.3,42.1z"/>
		<path class="st7" d="M22.3,44.8c0.1-0.1-0.2-0.3-0.3-0.2c-0.3,0.4-1.2,1.4-1,1.6C21.2,46.3,22,45.2,22.3,44.8z"/>
		<path class="st7" d="M23.7,47.1c0-0.1-0.3-0.1-0.3-0.1c0,0.1,0,0.1,0,0.2c0,0.1,0,0.2-0.1,0.3c-0.1,0.2-0.1,0.4-0.2,0.6
			c0,0.1-0.1,0.2-0.1,0.3c0,0.1-0.1,0.1-0.1,0.2c0,0.1-0.1,0.2,0,0.3c0,0,0.1,0,0.2-0.1c0.1-0.1,0.1-0.1,0.2-0.2
			c0.1-0.1,0.1-0.2,0.2-0.3c0.1-0.2,0.2-0.4,0.2-0.6c0-0.1,0-0.2,0.1-0.3C23.7,47.2,23.7,47.2,23.7,47.1z"/>
		<path class="st7" d="M27.7,48.2c0-0.1-0.3-0.2-0.3-0.1c-0.2,0.4-0.7,1.5-0.5,1.6C27.1,49.8,27.6,48.6,27.7,48.2z"/>
		<path class="st7" d="M18.7,39.2c0.1-0.1-0.1-0.3-0.2-0.3c-0.4,0.3-1.6,1-1.5,1.2C17.1,40.4,18.3,39.6,18.7,39.2z"/>
		<path class="st7" d="M19.3,41.9c0.1-0.1-0.2-0.3-0.2-0.2c-0.3,0.3-1.3,1.2-1.2,1.4C18.1,43.2,19,42.2,19.3,41.9z"/>
		<path class="st7" d="M19.7,45c0.1-0.1-0.2-0.3-0.3-0.2c-0.3,0.4-1.3,1.5-1.1,1.6C18.5,46.5,19.4,45.4,19.7,45z"/>
		<path class="st7" d="M20.3,47.4c0.1-0.1-0.2-0.3-0.3-0.2c-0.3,0.4-1,1.4-0.8,1.5C19.4,48.8,20.1,47.7,20.3,47.4z"/>
		<path class="st7" d="M22.2,47.6c0-0.1-0.3-0.2-0.3-0.2c-0.2,0.3-0.7,1.1-0.5,1.2C21.6,48.7,22.1,47.9,22.2,47.6z"/>
		<path class="st7" d="M17.8,44.3c0.1-0.1-0.2-0.3-0.3-0.2c-0.3,0.3-1,1.2-0.9,1.3C16.9,45.6,17.6,44.6,17.8,44.3z"/>
		<path class="st7" d="M16.7,42c0.1-0.1-0.2-0.3-0.2-0.3c-0.3,0.2-1.1,0.8-0.9,1C15.7,42.9,16.5,42.2,16.7,42z"/>
		<path class="st7" d="M15.5,39.6c0.1-0.1-0.2-0.3-0.2-0.3c-0.5,0.5-1.9,1.7-1.8,1.9C13.7,41.4,15,40.1,15.5,39.6z"/>
		<path class="st7" d="M14.8,42.3c0.1-0.1-0.2-0.3-0.3-0.2c-0.4,0.4-1.5,1.5-1.3,1.6C13.4,43.8,14.5,42.7,14.8,42.3z"/>
		<path class="st7" d="M16,44.3c0.1-0.1-0.2-0.3-0.3-0.2c-0.3,0.4-1.1,1.4-1,1.5C14.9,45.7,15.7,44.7,16,44.3z"/>
		<path class="st7" d="M17.4,47.5c0.1-0.1-0.2-0.3-0.3-0.2c-0.3,0.3-1.1,1.1-0.9,1.3C16.4,48.7,17.2,47.9,17.4,47.5z"/>
		<path class="st7" d="M13.7,45c0-0.1-0.3-0.2-0.3-0.2c-0.2,0.3-0.8,1.1-0.6,1.3C12.9,46.2,13.5,45.3,13.7,45z"/>
		<path class="st7" d="M16.2,47.2c0-0.1-0.3-0.3-0.3-0.2c-0.2,0.3-0.9,1.1-0.7,1.3C15.4,48.4,16,47.6,16.2,47.2z"/>
		<path class="st7" d="M12.6,42.4c0-0.1-0.3-0.2-0.3-0.2c-0.2,0.3-0.8,1-0.6,1.1C11.9,43.5,12.4,42.7,12.6,42.4z"/>
		<path class="st7" d="M12.7,39.5c0.1-0.1-0.1-0.3-0.2-0.3c-0.4,0.2-1.4,0.9-1.3,1.1C11.3,40.5,12.3,39.8,12.7,39.5z"/>
		<path class="st7" d="M10.4,41.8c0.1-0.1-0.2-0.3-0.2-0.3c-0.3,0.3-1.1,0.9-1,1.1C9.3,42.8,10.1,42.1,10.4,41.8z"/>
		<path class="st7" d="M9.3,40.3c0.1-0.1-0.2-0.3-0.3-0.2c-0.3,0.3-1,1.1-0.8,1.3C8.4,41.5,9.1,40.7,9.3,40.3z"/>
		<path class="st7" d="M12.5,41.3c0-0.1-0.2-0.3-0.3-0.2c-0.2,0.3-0.9,1-0.7,1.1C11.6,42.4,12.3,41.6,12.5,41.3z"/>
		<path class="st7" d="M10.1,44.1c0-0.1-0.3-0.2-0.3-0.2c-0.2,0.3-0.6,1.1-0.4,1.2C9.5,45.3,9.9,44.4,10.1,44.1z"/>
		<path class="st7" d="M12.1,44.6c0-0.1-0.3-0.3-0.3-0.2c-0.2,0.3-0.9,1.1-0.7,1.3C11.3,45.8,11.9,44.9,12.1,44.6z"/>
		<path class="st7" d="M8.5,43.3c0-0.1-0.3-0.2-0.3-0.2c-0.2,0.4-0.9,1.4-0.7,1.5C7.7,44.8,8.3,43.7,8.5,43.3z"/>
		<path class="st7" d="M6.8,42.4c0-0.1-0.3-0.2-0.3-0.1c-0.2,0.5-0.6,1.9-0.4,2C6.3,44.4,6.7,43,6.8,42.4z"/>
		<path class="st7" d="M8.4,45.6c0-0.1-0.3-0.2-0.3-0.1c-0.1,0.3-0.5,1.2-0.2,1.3C8.1,46.8,8.3,45.9,8.4,45.6z"/>
		<path class="st7" d="M5.3,45.5c0-0.1-0.3-0.2-0.3-0.1C4.8,45.8,4.4,47,4.6,47C4.8,47.1,5.2,45.9,5.3,45.5z"/>
		<path class="st7" d="M6.9,46.1c0-0.1-0.3-0.2-0.3-0.1c-0.1,0.5-0.6,1.7-0.4,1.8C6.4,47.9,6.8,46.6,6.9,46.1z"/>
		<path class="st7" d="M10.6,46.6c0-0.1-0.3-0.1-0.3-0.1c-0.1,0.4-0.3,1.4-0.1,1.4C10.4,48,10.6,47,10.6,46.6z"/>
		<path class="st7" d="M12.9,47.2c0-0.1-0.3-0.2-0.3-0.1c-0.1,0.3-0.4,1.1-0.2,1.1C12.6,48.3,12.9,47.5,12.9,47.2z"/>
		<path class="st7" d="M14.4,46.6c0-0.1-0.3-0.2-0.3-0.1c-0.2,0.4-0.6,1.5-0.4,1.6C13.9,48.2,14.3,47,14.4,46.6z"/>
		<path class="st7" d="M8.5,48.1c0-0.1-0.3-0.2-0.3-0.1c-0.1,0.5-0.5,1.7-0.3,1.8C8.1,49.8,8.4,48.6,8.5,48.1z"/>
		<path class="st7" d="M5,48.5c0-0.1-0.3-0.1-0.3,0c0,0.5-0.2,1.9,0.1,2C4.9,50.5,5,49.1,5,48.5z"/>
		<path class="st7" d="M6.4,49.8c0-0.1-0.3-0.1-0.3-0.1c-0.1,0.5-0.4,2-0.2,2C6.1,51.8,6.3,50.3,6.4,49.8z"/>
		<path class="st7" d="M10.3,49.1c0-0.1-0.3-0.2-0.3-0.1c-0.1,0.5-0.6,1.7-0.4,1.8C9.8,50.9,10.2,49.6,10.3,49.1z"/>
		<path class="st7" d="M12.6,49.6c0-0.1-0.3-0.2-0.3-0.1c-0.2,0.5-0.8,1.9-0.6,2C11.9,51.5,12.5,50.1,12.6,49.6z"/>
		<path class="st7" d="M11.7,48c0-0.1-0.3-0.1-0.3-0.1c-0.1,0.4-0.4,1.5-0.1,1.5C11.4,49.5,11.6,48.4,11.7,48z"/>
		<path class="st7" d="M14.9,49.4c0-0.1-0.3-0.1-0.3-0.1c-0.1,0.4-0.4,1.4-0.2,1.5C14.6,50.8,14.8,49.8,14.9,49.4z"/>
		<path class="st7" d="M18.2,49.6c0-0.1-0.3-0.1-0.3-0.1c-0.1,0.5-0.4,1.7-0.2,1.8C17.9,51.4,18.1,50.1,18.2,49.6z"/>
		<path class="st7" d="M16.3,50.3c0-0.1-0.3-0.1-0.3,0c-0.1,0.6-0.4,2.1-0.1,2.2C16.1,52.4,16.2,50.9,16.3,50.3z"/>
		<path class="st7" d="M20.9,50c0-0.1-0.3-0.1-0.3-0.1c-0.1,0.3-0.3,1.1-0.1,1.2C20.6,51.1,20.8,50.3,20.9,50z"/>
		<path class="st7" d="M24.7,49.9c0-0.1-0.3-0.1-0.3,0c-0.1,0.5-0.3,1.9-0.1,2C24.5,51.8,24.7,50.4,24.7,49.9z"/>
		<path class="st7" d="M22.7,51c0-0.1-0.3-0.1-0.3-0.1c-0.1,0.5-0.3,2-0.1,2C22.5,53,22.7,51.5,22.7,51z"/>
		<path class="st7" d="M27.3,50.8c0-0.1-0.3-0.1-0.3,0c0,0.5-0.2,1.8,0,1.8C27.2,52.6,27.3,51.3,27.3,50.8z"/>
		<path class="st7" d="M29.4,49.3c0-0.1-0.3-0.1-0.3,0c-0.1,0.5-0.3,1.8-0.1,1.8C29.2,51.1,29.3,49.8,29.4,49.3z"/>
		<path class="st7" d="M31.7,50.9c0-0.1-0.3-0.1-0.3-0.1c-0.1,0.5-0.4,2-0.2,2.1C31.5,53,31.7,51.5,31.7,50.9z"/>
		<path class="st7" d="M29.4,52.5c0-0.1-0.3-0.1-0.3-0.1c-0.1,0.4-0.3,1.5-0.1,1.5C29.2,54,29.3,52.9,29.4,52.5z"/>
		<path class="st7" d="M24.7,52.8c0-0.1-0.3-0.1-0.3-0.1c-0.1,0.4-0.3,1.5-0.1,1.5C24.5,54.3,24.7,53.2,24.7,52.8z"/>
		<path class="st7" d="M20.6,52.3c0-0.1-0.3-0.2-0.3-0.1c-0.1,0.5-0.5,2-0.2,2C20.2,54.3,20.5,52.8,20.6,52.3z"/>
		<path class="st7" d="M18.2,52.6c0-0.1-0.3-0.1-0.3-0.1c-0.1,0.4-0.4,1.6-0.1,1.6C18,54.2,18.2,53,18.2,52.6z"/>
		<path class="st7" d="M19.6,50.6c0-0.1-0.3-0.1-0.3-0.1c-0.1,0.4-0.4,1.5-0.2,1.6S19.5,51,19.6,50.6z"/>
		<path class="st7" d="M14.4,51.9c0-0.1-0.3-0.2-0.3-0.1c-0.1,0.4-0.5,1.4-0.3,1.5C14,53.3,14.3,52.3,14.4,51.9z"/>
		<path class="st7" d="M8.3,51C8.3,51,8,50.9,8,50.9c-0.1,0.3-0.4,1.1-0.2,1.1C8,52.1,8.2,51.3,8.3,51z"/>
		<path class="st7" d="M11,51.4c0-0.1-0.3-0.2-0.3-0.1c-0.1,0.5-0.5,2-0.3,2.1C10.6,53.5,10.9,52,11,51.4z"/>
		<path class="st7" d="M6.6,52.7c0-0.1-0.3-0.1-0.3-0.1c-0.1,0.4-0.4,1.6-0.1,1.6C6.3,54.3,6.5,53.1,6.6,52.7z"/>
		<path class="st7" d="M35.7,50.3c0-0.1-0.3-0.1-0.3,0c0,0.5-0.2,1.9,0,1.9C35.6,52.2,35.7,50.8,35.7,50.3z"/>
		<path class="st7" d="M33.8,51.5c0-0.1-0.3-0.1-0.3-0.1c-0.1,0.3-0.4,1.3-0.2,1.3C33.5,52.8,33.7,51.9,33.8,51.5z"/>
		<path class="st7" d="M40.4,48.2c0-0.1-0.3-0.1-0.3-0.1c-0.1,0.4-0.3,1.6-0.1,1.6C40.2,49.9,40.4,48.7,40.4,48.2z"/>
		<path class="st7" d="M42,39.3c0-0.1-0.3-0.1-0.3-0.1c-0.1,0.4-0.3,1.4-0.1,1.4C41.8,40.7,42,39.7,42,39.3z"/>
		<path class="st7" d="M42.5,42.3c0-0.1-0.3-0.1-0.3,0c0,0.5-0.2,1.9,0,1.9C42.3,44.2,42.4,42.8,42.5,42.3z"/>
		<path class="st7" d="M41.6,33.9c0-0.1-0.3-0.2-0.3-0.1c-0.1,0.3-0.5,1.3-0.3,1.3C41.2,35.2,41.5,34.3,41.6,33.9z"/>
		<path class="st7" d="M43,34.2c0-0.1-0.3-0.1-0.3,0c0,0.4-0.2,1.6,0.1,1.6C43,35.8,43.1,34.6,43,34.2z"/>
		<path class="st7" d="M44,36.9c0-0.1-0.3-0.2-0.3-0.1c-0.2,0.6-0.7,2.4-0.5,2.4C43.4,39.3,43.9,37.5,44,36.9z"/>
		<path class="st7" d="M43.2,31.3c0-0.1-0.3-0.1-0.3-0.1c-0.1,0.4-0.3,1.7-0.1,1.7C43,33,43.2,31.8,43.2,31.3z"/>
	</g>
</g>
</svg>
