<?xml version="1.0" encoding="utf-8"?>
<!-- Generator: Adobe Illustrator 19.2.1, SVG Export Plug-In . SVG Version: 6.00 Build 0)  -->
<svg version="1.1" id="Layer_1" xmlns="http://www.w3.org/2000/svg" xmlns:xlink="http://www.w3.org/1999/xlink" x="0px" y="0px"
	 viewBox="0 0 42.9 68.8" style="enable-background:new 0 0 42.9 68.8;" xml:space="preserve">
<style type="text/css">
	.st0{fill:#D1CCC1;}
	.st1{fill:#DD4503;}
	.st2{fill:#FF6D24;}
	.st3{fill:#EDEBE6;}
	.st4{fill:#FFFFFF;}
	.st5{fill:#AA3502;}
</style>
<g>
	<path class="st0" d="M24.6,39.8c0.6-2.2,1.8-4.1,3.5-5.6c1.1-1,2.5-1.7,3.9-1.5c1.8,0.4,2.9,2.3,3.2,4.2c0.6,3.5-0.8,7.2-3.3,9.7
		c-2.4,2.6-5.8,4.6-9.4,4.6c-4.2,0-4.4-2.4-3.5-2.6c3.7-1,4.3-3.1,4.7-4.5C24.2,42.7,24.3,41.2,24.6,39.8z"/>
	<g>
		<path class="st1" d="M20.9,66.8c0.7-1.2,2.1-2.1,3.5-2.2c1.4-0.2,2.8,0.7,4.1,1c-1.2,0.4-1.7,1.2-2.5,2c0,0.1-0.8,0-0.8,0.2
			C23.8,66.9,22.6,66.5,20.9,66.8z"/>
		<path class="st2" d="M22.5,64.4c0.2-0.2,0.5-0.3,0.7-0.5c0.2-0.1,0.3-1.6,0.3-2.6c0-1.8,0.2-4.3,0.2-6.9c0-1.2-0.2-2-0.5-2.6
			c1-0.3,2.1-0.7,3.1-1c0,0.6,0,1.1-0.1,1.7c0,0.7-0.1,1.4-0.1,2.1c-0.2,2.7-0.6,5.1-0.9,6.9c-0.2,1-0.1,2.5,0.3,2.6
			c0.1,0,0.3,0.1,0.4,0.1c0.1,0,0.3,0.1,0.4,0.1c0.3,0.1,0.6,0.1,0.9,0.2c0.3,0.1,0.6,0.1,0.8,0.2c0.3,0,0.5,0.1,0.7,0.2
			c0.4,0.1,0.6,0.3,0.6,0.4c0,0.2-0.3,0.3-0.7,0.4c-0.2,0-0.5,0-0.7,0.1c-0.3,0-0.6,0-0.9,0c-0.3,0-0.6-0.1-0.9-0.1
			c-0.2,0-0.7-0.1-0.4,0.5c0.4,1,0.6,2.1,0.2,2.3c-0.5,0.2-1-1.2-1.5-2.4c-0.4-0.7-1.2-0.3-1.2-0.2c-1.2,0.8-2.5,1.5-2.8,1.1
			C19.9,66.3,21.3,65.3,22.5,64.4z"/>
		<path class="st1" d="M20.9,66.8c0.7-1.2,2.1-2.1,3.5-2.2c1.4-0.2,2.8,0.7,4.1,1c-1.2,0.4-1.7,1.2-2.5,2.1c0,0.1-0.8,0-0.8,0.2
			C23.8,66.9,22.6,66.5,20.9,66.8z"/>
		<path class="st2" d="M22.5,64.4c0.2-0.2,0.5-0.3,0.7-0.5c0.2-0.1,0.3-1.6,0.3-2.6c0-1.8,0.2-4.3,0.2-6.9c0-1.2-0.2-2-0.5-2.6
			c1-0.3,2.1-0.7,3.1-1c0,0.6,0,1.1-0.1,1.7c0,0.7-0.1,1.4-0.1,2.1c-0.2,2.7-0.6,5.1-0.9,6.9c-0.2,1-0.1,2.5,0.3,2.6
			c0.1,0,0.3,0.1,0.4,0.1c0.1,0,0.3,0.1,0.4,0.1c0.3,0.1,0.6,0.1,0.9,0.2c0.3,0.1,0.6,0.1,0.8,0.2c0.3,0,0.5,0.1,0.7,0.2
			c0.4,0.1,0.6,0.3,0.6,0.4c0,0.2-0.3,0.3-0.7,0.4c-0.2,0-0.5,0-0.7,0.1c-0.3,0-0.6,0-0.9,0c-0.3,0-0.6-0.1-0.9-0.1
			c-0.2,0-0.7-0.1-0.4,0.5c0.4,1,0.6,2.1,0.2,2.3c-0.5,0.2-1-1.2-1.5-2.4c-0.4-0.7-1.2-0.3-1.2-0.2c-1.2,0.8-2.5,1.5-2.8,1.1
			C19.9,66.3,21.3,65.3,22.5,64.4z"/>
	</g>
	<path class="st3" d="M2,51.1C8.1,46,14.4,41,19.4,34.7c4.4-5.5,2.2-15,3.1-22.3c0.5-4.5,2-11.8,11.7-10.8c0.2,0,0.4,0.1,0.6,0.2
		c1.1,2.2,1.5,4.9,1.1,7.3c-1,0.2-2.1,0.5-2.5,0.5c-0.9,0.1-1.9,0.2-2.9,0.5c-3.2,0.8-5.1,8.6,0.3,19.9s3.3,16.4,2.2,19.3
		c-2,5-6.3,9.3-11.6,10.4c-4.4,0.9-8.9-0.3-13.2-1.5c-1.8-0.5-3.5-1-5.3-1.5c-1.1-0.3-2.3-0.7-2.7-1.8C-0.4,53.5,0.8,52.1,2,51.1z"
		/>
	<g>
		<path class="st1" d="M11,67.3c0.7-1.2,2.1-2.1,3.5-2.2c1.4-0.2,2.8,0.7,4.1,1c-1.2,0.4-1.7,1.2-2.5,2.1c0,0.1-0.8,0-0.8,0.2
			C13.9,67.4,12.7,67,11,67.3z"/>
		<path class="st2" d="M12.6,65c0.2-0.2,0.5-0.3,0.7-0.5c0.2-0.1,0.3-1.6,0.3-2.6c0-1.2,0.1-2.7,0.2-4.4c0-0.8,2.3-0.9,2.3-0.2
			c-0.2,1.8-0.5,3.4-0.7,4.7c-0.2,1-0.1,2.5,0.3,2.6c0.1,0,0.3,0.1,0.4,0.1c0.1,0,0.3,0.1,0.4,0.1c0.3,0.1,0.6,0.1,0.9,0.2
			c0.3,0.1,0.6,0.1,0.8,0.2c0.3,0,0.5,0.1,0.7,0.2c0.4,0.1,0.6,0.3,0.6,0.4c0,0.2-0.3,0.3-0.7,0.4c-0.2,0-0.5,0-0.7,0.1
			c-0.3,0-0.6,0-0.9,0c-0.3,0-0.6-0.1-0.9-0.1c-0.2,0-0.7-0.1-0.4,0.5c0.4,1,0.6,2.1,0.2,2.3c-0.5,0.2-1-1.2-1.5-2.4
			c-0.4-0.7-1.2-0.3-1.2-0.2c-1.2,0.8-2.5,1.5-2.8,1.1C10,66.8,11.4,65.8,12.6,65z"/>
	</g>
	<path class="st0" d="M35,5.7c-1.7,1-3-1.5-6.7,0.4c-3.7,1.9-2.3,6.2-5.8,6.3c0.5-4.5,2-11.8,11.7-10.8c0.2,0,0.4,0.1,0.6,0.2
		c0.5,1,0.9,2.1,1.1,3.3C35.6,5.3,35.3,5.5,35,5.7z"/>
	<g>
		<path class="st0" d="M30.9,2.6c-0.3,0-0.6,0-0.9-0.2c-0.5-0.2-0.8-0.8-0.7-1.3c0.1-0.5,0.5-1,1.1-1.1s1.1,0.2,1.4,0.7
			c0.1,0.3,0.2,0.6,0.2,0.9c0,0.3-0.1,0.6-0.3,0.8C31.4,2.6,31.1,2.6,30.9,2.6z"/>
		<path class="st4" d="M30.8,2.4c-0.3,0-0.5,0-0.7-0.1c-0.4-0.2-0.7-0.7-0.6-1.1s0.4-0.8,0.9-0.9c0.4-0.1,0.9,0.2,1.1,0.6
			c0.1,0.2,0.1,0.5,0.1,0.8c0,0.3-0.1,0.5-0.3,0.7C31.2,2.4,31,2.4,30.8,2.4z"/>
		<path d="M30.7,1.2c0.1,0.1,0.2,0.4,0.1,0.5c0,0.2-0.2,0.4-0.4,0.4c-0.2,0-0.4-0.2-0.5-0.4c0-0.2,0-0.3,0.1-0.5
			c0.1-0.1,0.2-0.2,0.3-0.2C30.4,1,30.6,1.1,30.7,1.2z"/>
		<path class="st0" d="M33.8,2.6c-0.3,0-0.6,0-0.9-0.2c-0.5-0.2-0.8-0.8-0.7-1.3c0.1-0.5,0.5-1,1.1-1.1c0.5-0.1,1.1,0.2,1.4,0.7
			c0.1,0.3,0.2,0.6,0.2,0.9c0,0.3-0.1,0.6-0.3,0.8C34.3,2.6,34.1,2.6,33.8,2.6z"/>
		<path class="st4" d="M33.8,2.4c-0.3,0-0.5,0-0.7-0.1c-0.4-0.2-0.7-0.7-0.6-1.1c0.1-0.5,0.4-0.8,0.9-0.9c0.4-0.1,0.9,0.2,1.1,0.6
			c0.1,0.2,0.1,0.5,0.1,0.8c0,0.3-0.1,0.5-0.3,0.7C34.2,2.4,34,2.4,33.8,2.4z"/>
		<path d="M33.7,1.2c0.1,0.1,0.2,0.4,0.1,0.5c0,0.2-0.2,0.4-0.4,0.4c-0.2,0-0.4-0.2-0.5-0.4c0-0.2,0-0.3,0.1-0.5
			c0.1-0.1,0.2-0.2,0.3-0.2C33.4,1,33.6,1.1,33.7,1.2z"/>
	</g>
	<path class="st2" d="M34.8,1.7c2.8-0.5,2.6,2.1,3,2.6c0.8,1.1,2.3,1.4,3.7,1.7c0.4,0.1,0.7,0.2,1,0.4c0.3,0.2,0.5,0.6,0.4,1
		c-0.1,0.3-0.4,0.5-0.7,0.5c-0.3,0.1-0.6,0-0.9,0c-1.2-0.1-2.5,0.1-3.6,0.6c-0.3,0.1-1,0.3-1.7,0.5C33.5,8.7,32,5.8,33,5.8
		C35.6,5.8,35.5,3.1,34.8,1.7z"/>
	<path class="st5" d="M34.9,6.7c0.3,0.1,0.7,0.2,1.1,0.2c0.4,0,0.9,0,1.4,0c1.9,0,4.1-0.1,5.4-0.1c0.1,0.2,0.1,0.3,0,0.5
		c-1.3,0-3.5,0.1-5.4,0.1c-0.5,0-1,0-1.5-0.1c-0.2,0-0.5-0.1-0.7-0.1c-0.2-0.1-0.4-0.1-0.6-0.2c-0.3-0.2-0.6-0.4-0.7-0.5
		c-0.1-0.2-0.2-0.3-0.1-0.3C34,6.2,34.3,6.5,34.9,6.7z"/>
	<g>
		<path class="st0" d="M32.3,38.9c0-0.1-0.3,0-0.3,0c0,0.2,0.1,0.7,0.1,1.1c0,0.2,0,0.4,0,0.5c0,0.1,0,0.2,0.1,0.2
			c0,0,0.1-0.1,0.1-0.2c0-0.1,0.1-0.3,0.1-0.5C32.5,39.6,32.4,39.1,32.3,38.9z"/>
		<path class="st0" d="M30.5,40c0-0.1-0.3-0.1-0.3,0c0,0.3,0.1,0.8,0,1.3c0,0.1,0,0.2,0,0.3c0,0.1,0,0.2,0,0.3c0,0.2,0,0.3,0,0.3
			c0,0,0.1-0.1,0.2-0.2c0-0.1,0.1-0.2,0.1-0.3c0-0.1,0-0.2,0.1-0.3C30.6,40.8,30.5,40.3,30.5,40z"/>
		<path class="st0" d="M33.6,41.3c0-0.1-0.3-0.1-0.3,0c0,0.2,0,0.7-0.1,1.1c0,0.1,0,0.2-0.1,0.3c0,0.1-0.1,0.2-0.1,0.2
			c0,0.1-0.1,0.2,0,0.2c0,0,0.1,0,0.2-0.2c0-0.1,0.1-0.1,0.1-0.2c0-0.1,0.1-0.2,0.1-0.3C33.6,42,33.6,41.5,33.6,41.3z"/>
		<path class="st0" d="M30,38c0-0.1-0.3-0.1-0.3,0c0,0.3-0.1,1.2,0.1,1.2S30,38.4,30,38z"/>
		<path class="st0" d="M28.6,39.3c0-0.1-0.2-0.1-0.3,0c0,0.4-0.2,1.6,0,1.6C28.5,40.8,28.6,39.7,28.6,39.3z"/>
		<path class="st0" d="M27.8,41.9c0-0.1-0.3,0-0.3,0c0,0.2,0,0.6,0,0.9c0,0.3-0.1,0.6,0,0.7c0,0,0.1-0.1,0.1-0.2
			c0.1-0.1,0.1-0.3,0.1-0.5C27.8,42.5,27.8,42.1,27.8,41.9z"/>
		<path class="st0" d="M32.1,42c0-0.1-0.2-0.1-0.3,0c-0.1,0.5-0.4,1.9-0.2,1.9C31.8,44,32,42.5,32.1,42z"/>
		<path class="st0" d="M29.6,43.3c0-0.1-0.2-0.1-0.3,0c-0.1,0.4-0.3,1.6-0.2,1.6C29.3,44.9,29.5,43.7,29.6,43.3z"/>
		<path class="st0" d="M32.8,44.9c0-0.1-0.3-0.1-0.3,0c0,0.3,0,0.7-0.1,1.1c0,0.1,0,0.2,0,0.3c0,0.1,0,0.2-0.1,0.2
			c0,0.1,0,0.2,0,0.2c0,0,0.1-0.1,0.2-0.2c0-0.1,0.1-0.1,0.1-0.2c0-0.1,0.1-0.2,0.1-0.3C32.9,45.7,32.9,45.1,32.8,44.9z"/>
		<path class="st0" d="M30.9,45.7c0-0.1-0.3-0.1-0.3,0c0,0.2,0,0.7-0.2,1.1c0,0.1-0.1,0.2-0.1,0.3c0,0.1-0.1,0.2-0.1,0.2
			c0,0.1-0.1,0.2,0,0.2c0,0,0.1,0,0.2-0.2c0-0.1,0.1-0.1,0.1-0.2c0-0.1,0.1-0.2,0.1-0.3C30.9,46.5,30.9,45.9,30.9,45.7z"/>
		<path class="st0" d="M28.1,44.8c0-0.1-0.2-0.1-0.3,0c0,0.3-0.1,0.9-0.3,1.4c-0.1,0.3-0.1,0.5-0.2,0.6c0,0.2-0.1,0.3,0,0.3
			c0,0,0.1-0.1,0.2-0.2c0.1-0.2,0.2-0.4,0.3-0.6C28,45.7,28,45.1,28.1,44.8z"/>
		<path class="st0" d="M26,46.3c0-0.1-0.2-0.1-0.2-0.1c-0.1,0.3-0.4,1-0.2,1.1C25.7,47.4,25.9,46.6,26,46.3z"/>
		<path class="st0" d="M28.7,47.4c0-0.1-0.2-0.1-0.3,0c0,0.2-0.1,0.6-0.2,1c0,0.1-0.1,0.2-0.1,0.2c0,0.1-0.1,0.1-0.1,0.2
			c0,0.1-0.1,0.2,0,0.2c0,0,0.1,0,0.2-0.1c0,0,0.1-0.1,0.1-0.2c0-0.1,0.1-0.2,0.1-0.2C28.6,48.1,28.7,47.6,28.7,47.4z"/>
		<path class="st0" d="M31.8,48.2c0-0.1-0.2-0.2-0.2-0.1c-0.2,0.4-0.7,1.6-0.6,1.7C31.2,49.9,31.7,48.6,31.8,48.2z"/>
		<path class="st0" d="M29.6,49.7c0-0.1-0.2-0.2-0.2-0.1c-0.2,0.3-0.9,1.3-0.8,1.4C28.7,51,29.4,50.1,29.6,49.7z"/>
		<path class="st0" d="M27,48.5c0-0.1-0.2-0.1-0.2-0.1c0,0.2-0.2,0.6-0.4,0.9c0,0.1-0.1,0.2-0.1,0.2c0,0.1-0.1,0.1-0.1,0.2
			c-0.1,0.1-0.1,0.2-0.1,0.2c0,0,0.1,0,0.2-0.1c0,0,0.1-0.1,0.2-0.2c0.1-0.1,0.1-0.1,0.2-0.2C26.8,49.2,26.9,48.7,27,48.5z"/>
		<path class="st0" d="M24.8,47.6c0-0.1-0.2-0.1-0.2-0.1c-0.1,0.2-0.2,0.6-0.4,0.9c-0.1,0.2-0.2,0.3-0.2,0.4
			c-0.1,0.1-0.1,0.2-0.1,0.2c0,0,0.1,0,0.2-0.1c0.1-0.1,0.2-0.2,0.3-0.4C24.6,48.3,24.7,47.9,24.8,47.6z"/>
		<path class="st0" d="M25.1,49.7c0-0.1-0.2-0.2-0.2-0.1c-0.2,0.5-0.7,1.7-0.5,1.7C24.5,51.4,24.9,50.2,25.1,49.7z"/>
		<path class="st0" d="M23.5,50.9c0.1-0.1-0.1-0.2-0.2-0.2c-0.3,0.3-1.1,1.2-1,1.3S23.3,51.2,23.5,50.9z"/>
		<path class="st0" d="M27.1,51.2c0.1-0.1-0.2-0.2-0.2-0.1c-0.2,0.3-1,1.3-0.8,1.4C26.2,52.5,26.9,51.6,27.1,51.2z"/>
		<path class="st0" d="M30.5,51.1c0.1-0.1-0.2-0.2-0.2-0.2c-0.3,0.4-1.2,1.5-1.1,1.6C29.3,52.7,30.2,51.5,30.5,51.1z"/>
		<path class="st0" d="M31.9,50.4c0-0.1-0.2-0.2-0.2-0.1c-0.2,0.3-0.8,1.2-0.7,1.3C31.1,51.7,31.7,50.8,31.9,50.4z"/>
		<path class="st0" d="M27.5,53c0.1-0.1-0.2-0.2-0.2-0.2c-0.1,0.2-0.5,0.5-0.8,0.7c-0.1,0-0.2,0.1-0.2,0.1c-0.1,0-0.1,0.1-0.2,0.1
			c-0.1,0.1-0.2,0.1-0.2,0.2c0,0,0.1,0,0.2,0c0.1,0,0.1,0,0.2-0.1c0.1,0,0.2-0.1,0.3-0.1C27,53.6,27.4,53.2,27.5,53z"/>
		<path class="st0" d="M24.8,52.8c0.1,0-0.1-0.2-0.2-0.2c-0.2,0.2-0.9,0.7-0.8,0.8C23.9,53.5,24.5,53,24.8,52.8z"/>
		<path class="st0" d="M22.5,53c0-0.1-0.2-0.1-0.2-0.1c-0.1,0.1-0.2,0.3-0.4,0.5c0,0-0.1,0.1-0.1,0.1c0,0-0.1,0.1-0.1,0.1
			c-0.1,0-0.1,0.1-0.1,0.1c0,0,0.1,0,0.2,0c0,0,0.1,0,0.2,0c0.1,0,0.1-0.1,0.2-0.1C22.2,53.5,22.4,53.2,22.5,53z"/>
		<path class="st0" d="M24.1,54.3c0-0.1-0.2-0.2-0.2-0.1c-0.1,0.2-0.3,0.4-0.5,0.6C23.2,54.9,23.1,55,23,55
			c-0.1,0.1-0.1,0.1-0.1,0.2c0,0,0.1,0,0.2,0c0.1,0,0.2-0.1,0.4-0.2C23.8,54.8,24,54.5,24.1,54.3z"/>
		<path class="st0" d="M29.2,53.7c0-0.1-0.2-0.1-0.2-0.1c-0.1,0.2-0.2,0.5-0.5,0.7c-0.1,0.1-0.1,0.1-0.1,0.2c-0.1,0-0.1,0.1-0.1,0.1
			c-0.1,0.1-0.1,0.1-0.1,0.2c0,0,0.1,0,0.2,0c0.1,0,0.1-0.1,0.2-0.1c0.1,0,0.1-0.1,0.2-0.2C29,54.3,29.2,53.9,29.2,53.7z"/>
		<path class="st0" d="M26.2,55.6c0.1-0.1-0.1-0.2-0.2-0.2c-0.2,0.1-0.5,0.4-0.8,0.6c-0.1,0.1-0.3,0.2-0.4,0.2
			c-0.1,0.1-0.2,0.1-0.2,0.2c0,0,0.1,0,0.2,0c0.1,0,0.3-0.1,0.5-0.2C25.7,56.1,26,55.8,26.2,55.6z"/>
		<path class="st0" d="M21.6,55.2c0.1-0.1,0-0.3-0.1-0.2c-0.3,0.1-0.8,0.4-1.3,0.5c-0.1,0-0.2,0.1-0.3,0.1c-0.1,0-0.2,0-0.3,0.1
			c-0.2,0-0.3,0.1-0.3,0.1c0,0,0.1,0.1,0.3,0.1c0.1,0,0.2,0,0.3,0c0.1,0,0.2,0,0.4-0.1C20.8,55.6,21.3,55.3,21.6,55.2z"/>
		<path class="st0" d="M22.7,56.6c0.1,0,0-0.3-0.1-0.2c-0.5,0.2-1.7,0.6-1.7,0.7C21,57.2,22.3,56.7,22.7,56.6z"/>
		<path class="st0" d="M19.6,56.7c0.1-0.1-0.1-0.2-0.1-0.2c-0.2,0.1-0.5,0.3-0.9,0.4c-0.2,0.1-0.3,0.1-0.4,0.1
			C18,57,18,57.1,18,57.1c0,0,0.1,0.1,0.2,0.1c0.1,0,0.3,0,0.5-0.1C19,57,19.4,56.8,19.6,56.7z"/>
		<path class="st0" d="M19.2,58.9c0.1,0,0-0.3,0-0.3c-0.4,0.1-1.4,0.2-1.3,0.3C17.8,59.2,18.8,59,19.2,58.9z"/>
		<path class="st0" d="M21.2,57.9c0.1,0,0-0.3,0-0.3c-0.3,0-1.2,0-1.2,0.2C20,58,20.8,57.9,21.2,57.9z"/>
		<path class="st0" d="M23.4,58c0.1,0,0-0.3-0.1-0.2c-0.3,0.1-1.3,0.4-1.3,0.6C22.1,58.5,23.1,58.1,23.4,58z"/>
	</g>
	<path class="st0" d="M12.2,37.9c1.2-1.9,3-3.4,5-4.3c1.3-0.6,2.9-0.9,4.2-0.2c1.7,0.9,2.1,3.1,1.8,5c-0.5,3.5-3,6.6-6.1,8.3
		c-3.1,1.7-7,2.6-10.3,1.5c-4-1.3-3.5-3.6-2.6-3.5c3.8,0.2,5-1.6,5.8-2.9C10.8,40.6,11.4,39.2,12.2,37.9z"/>
	<g>
		<path class="st4" d="M20,38.1c-0.3,0.3-0.7,0.4-1.2,0.4c-0.8-0.1-1.2-0.6-1.4-1.3c-0.9,0.8-3.2-0.2-2-1.7c0.1-0.1,0.5,0,0.4,0.1
			c-0.3,0.4-0.4,0.9-0.1,1.3c0.5,1,1.5,0.1,1.6-0.6c0,0,0-0.1,0-0.1c0-0.1,0.5-0.1,0.5,0c0,0.1,0,0.1,0,0.2c0,0.5,0.1,1,0.4,1.5
			c0.6,0.8,1.6,0.2,1.6-0.5c0-0.1,0-0.1,0-0.2c0-0.1,0.4-0.1,0.5,0c0,0.1,0,0.2,0,0.3c0,0.3,0.1,0.5,0.2,0.8c0.3,0.6,1.2,0.2,1-0.5
			c0-0.1,0.4-0.1,0.4,0c0.2,0.6-0.3,1.1-0.9,1C20.5,38.7,20.2,38.4,20,38.1z"/>
		<path class="st4" d="M17.7,40.8c-0.3,0.4-0.7,0.6-1.2,0.6c-0.7-0.1-0.9-0.5-1-1c-0.2,0.2-0.5,0.3-0.8,0.3c-1.2-0.1-0.9-1.3-0.4-2
			c0.1-0.1,0.5,0,0.4,0c-0.4,0.5-0.7,1.1-0.3,1.7c0.4,0.6,1-0.5,1-0.6c0-0.1,0-0.1,0.1-0.2c0-0.2,0.1-0.4,0.1-0.6
			c0-0.1,0.5-0.1,0.5,0c0,0.2-0.1,0.3-0.1,0.5c-0.1,0.4-0.1,0.9,0.2,1.3c0.2,0.4,0.9,0.2,1.2,0c0.3-0.3,0.4-0.7,0.5-1.1
			c0-0.1,0.5-0.1,0.5,0c-0.1,0.7-0.2,1.3,0.2,1.9c0.6,0.8,1.3,0.1,1.6-0.3c0.2-0.3,0.4-0.7,0.4-1.1c0-0.1,0.5-0.1,0.5,0
			c-0.3,1-0.9,1.8-2,1.8C18.1,42.1,17.8,41.5,17.7,40.8z"/>
		<path class="st4" d="M10.8,42.9c0.1-0.1,0.5,0,0.3,0.2c-1.1,0.6-0.5,2.5,0.7,1.9c0,0,0,0,0,0c0,0,0.1,0,0.1,0c0,0,0,0,0,0
			c0,0,0,0,0,0c0.1-0.1,0.5,0,0.4,0.1c-0.1,0-0.1,0.1-0.2,0.1c-0.3,0.2-0.5,0.4-0.6,0.8c-0.1,0.9,1.3,0.6,1.8,0.3
			c0.1-0.1,0.6,0.1,0.3,0.2c-0.6,0.3-1.6,0.7-2.2,0.2c-0.6-0.4-0.5-0.9-0.1-1.3c-0.3,0-0.6-0.1-0.9-0.3C9.6,44.4,10,43.2,10.8,42.9z
			"/>
		<path class="st4" d="M12.2,42.8c-0.9-0.5,0.1-1.5,0.6-1.7c0.1-0.1,0.6,0,0.3,0.2c-0.3,0.1-0.5,0.3-0.6,0.5
			c-0.6,0.7,0.8,0.9,1.3,0.6c0.1-0.1,0.5,0,0.4,0.1c-0.3,0.3-0.5,0.6-0.6,1.1c0.1,0.7,0.5,0.8,1.3,0.4c0.1,0,0.1-0.1,0.2-0.2
			c0.1-0.2,0.3-0.3,0.4-0.4c0.1-0.1,0.5,0,0.4,0.1c-0.1,0.1-0.2,0.2-0.3,0.3c-0.1,0.1-0.1,0.2-0.2,0.2c-0.5,0.7,0.6,1,1.2,0.9
			c0.6-0.1,1.1-0.5,1.5-1c0.1-0.1,0.5,0,0.4,0.1c-0.7,0.8-1.7,1.3-2.7,1.2c-0.4,0-0.7-0.2-0.9-0.6c-0.1-0.1-0.1-0.2-0.1-0.4
			c-0.3,0.1-0.6,0.2-1,0c-0.8-0.3-0.7-0.9-0.4-1.5C13,43,12.6,43,12.2,42.8z"/>
	</g>
</g>
</svg>
