<?xml version="1.0" encoding="utf-8"?>
<!-- Generator: Adobe Illustrator 19.2.1, SVG Export Plug-In . SVG Version: 6.00 Build 0)  -->
<svg version="1.1" id="Layer_1" xmlns="http://www.w3.org/2000/svg" xmlns:xlink="http://www.w3.org/1999/xlink" x="0px" y="0px"
	 viewBox="0 0 39.3 51.5" style="enable-background:new 0 0 39.3 51.5;" xml:space="preserve">
<style type="text/css">
	.st0{fill:#FFAA4D;}
	.st1{fill:#C9B59F;}
	.st2{fill:#E5D9CA;}
	.st3{fill:#FFFFFF;}
	.st4{fill:#FC7F03;}
	.st5{fill:#FC1515;}
</style>
<g>
	<path class="st0" d="M10.6,48.9c-0.3,0-0.7-0.1-1.2-0.1c0,0,0,0,0,0C9.6,47.4,9.5,40,9.5,40l-1.3-0.8c0,0,0.3,8,0.2,9.5
		c-0.1,0-1.4-0.4-1.8-0.4c-0.5,0-1.6-0.1-1.9,0.4c-0.3,0.5,1,0.5,1.3,0.6c-0.5,0.1-1.6,0.4-1.7,0.9c-0.1,0.5,2,0,2.2,0
		c-0.1,0.1-0.1,0.1-0.1,0.2c-0.1,0.2-0.7,1-0.1,1.1c0.5,0,1.1-0.7,1.5-0.9c0.1-0.1,0.2-0.2,0.3-0.2c0.2-0.1,0.4-0.2,0.5-0.3
		c0.4,0,0.7,0,1.1,0c0.2,0,0.8,0.1,0.9,0C10.8,49.8,11,49,10.6,48.9C10.3,48.9,11,49,10.6,48.9z"/>
	<path class="st0" d="M20.7,48.9c-0.3,0-0.7-0.1-1.2-0.1c0,0,0,0,0,0c0.2-1.4,0.1-8.9,0.1-8.9l-1.3-0.8c0,0,0.3,8,0.2,9.5
		c-0.1,0-1.4-0.4-1.8-0.4c-0.5,0-1.6-0.1-1.9,0.4c-0.3,0.5,1,0.5,1.3,0.6c-0.5,0.1-1.6,0.4-1.7,0.9c-0.1,0.5,2,0,2.2,0
		c-0.1,0.1-0.1,0.1-0.1,0.2c-0.1,0.2-0.7,1-0.1,1.1c0.5,0,1.1-0.7,1.5-0.9c0.1-0.1,0.2-0.2,0.3-0.2c0.2-0.1,0.4-0.2,0.5-0.3
		c0.4,0,0.7,0,1.1,0c0.2,0,0.8,0.1,0.9,0C20.9,49.8,21.1,49,20.7,48.9C20.4,48.9,21.1,49,20.7,48.9z"/>
	<path class="st1" d="M8.4,42.2c0.9,0.3,1.8,0,2.6-0.4c0.8-0.4,1.4-1.1,2.1-1.7c-3-2.1-3.8-2.5-7.4-3.1C5.7,41.3,7.6,41.9,8.4,42.2z
		"/>
	<path class="st2" d="M18.1,42.9c0.9,0.3,1.8,0,2.6-0.4c0.8-0.4,1.4-1.1,2.1-1.7c-3-2.1-3.4-2-7-2.7C15.6,42.3,17.3,42.7,18.1,42.9z
		"/>
	<path class="st1" d="M38.8,33.9c-1.2-0.3-2.8,0.2-4,0.2c1.4-0.3,3.7-1,4.2-2.5c0.5-1.3-1.3-0.1-1.6,0.1c-0.9,0.7-2,1.3-3.1,1.6
		c1.2-0.6,3.2-1.9,3.5-3.4c0.2-1.4-1.3,0-1.5,0.3c-0.7,0.9-1.6,1.7-2.5,2.3c0.7-0.8,1.2-1.7,1.6-2.6c0.3-0.9-0.3-2.2-0.9-0.9
		c-0.6,1.1-0.8,2.3-1.7,3.4c-0.1,0.1-1.6,1.2-1.5,1.4c0.1,0.1,0.2,0.1,0.4,0.1c-0.1,0-0.2,0.1-0.2,0.2c0.1,0.5,3,1,3.6,1.1
		c0.9,0.1,1.9,0.1,2.8,0C38.5,35,40.1,34.2,38.8,33.9z"/>
	<path class="st2" d="M1.7,11.5c-0.4,2-0.7,3.9-1,5.9c-0.5,3.7-1,7.4-0.5,11.1c0.5,3.7,2,7.4,4.9,9.7c2.8,2.2,6.4,3,9.9,3.1
		c6.4,0.3,13-1.2,18.3-4.8c0.8-0.6,1.7-1.3,1.9-2.3c0.3-1.4-0.8-2.7-1.9-3.6c-4-3.4-9-5.9-11.9-10.3c-1.7-2.6-3.6-8.2-5.3-10.8
		C13.3,5.2,3.7,2.6,1.7,11.5z"/>
	<path class="st1" d="M18,21.8c0.6-0.2,0.6-1,0.5-1.7c-0.2-1.2-0.6-3.5-0.6-3.5s1.4,3.6,3.2,4.3c0.3,0.1,0.6,0.2,0.9,0.2
		c-0.2-0.3-0.4-0.5-0.6-0.8c-1.7-2.6-3.6-8.2-5.3-10.8c-2.8-4.3-12.4-7-14.5,1.9c-0.4,2-0.7,3.9-1,5.9c-0.2,1.4-0.4,2.8-0.5,4.3
		c1.6-0.4,2.5-4.3,2.5-4.3s-0.2,2.3-0.2,3.4c0,0.4,0.1,0.8,0.4,1.1c0.4,0.3,1,0.2,1.4-0.1c0.8-0.5,1.3-1.3,1.6-2.1
		C6.1,18.8,6.3,17,6.3,17s-0.1,3.2,0.4,4.7c0.2,0.6,0.5,1.3,1.2,1.5c0.9,0.2,1.6-0.6,2-1.4c0.8-1.7,0.6-5.2,0.6-5.2s0.4,3.8,0.9,4.5
		c0.5,0.7,1.5,1,2.2,0.6c0.6-0.3,0.8-1,1-1.6c0.3-1.1,0.2-3.5,0.2-3.5s0.9,3.2,1.9,4.5C17,21.5,17.5,22,18,21.8z"/>
	<g>
		<path class="st1" d="M2.8,9.4c0.5,0.5,0.5,1.2,0.1,1.7c-0.2,0.3-0.6,0.5-1,0.5c-0.5,0-0.9-0.5-1.1-0.9C0.7,10.3,0.7,9.9,1,9.5
			C1.2,9.2,1.6,8.9,2.1,9C2.4,9,2.7,9.2,2.8,9.4z"/>
		<path class="st3" d="M13.4,10.4c0.4,0.4,0.4,1,0.1,1.4c-0.2,0.2-0.5,0.4-0.9,0.4c-0.4,0-0.8-0.4-0.9-0.7c-0.1-0.3-0.1-0.7,0.1-0.9
			c0.2-0.3,0.6-0.5,0.9-0.5C13,10.1,13.2,10.2,13.4,10.4z"/>
		<path d="M13.2,11.3c0,0.1-0.1,0.2-0.2,0.3c-0.2,0.1-0.4,0.1-0.6,0c-0.2-0.1-0.2-0.4-0.1-0.6c0.1-0.2,0.3-0.3,0.6-0.3
			C13.1,10.7,13.2,11,13.2,11.3z"/>
		<path class="st3" d="M2.7,9.5c0.4,0.4,0.4,1,0.1,1.4c-0.2,0.2-0.5,0.4-0.9,0.4c-0.4,0-0.8-0.4-0.9-0.7c-0.1-0.3-0.1-0.7,0.1-0.9
			c0.2-0.3,0.6-0.5,0.9-0.5C2.3,9.2,2.6,9.3,2.7,9.5z"/>
		<path d="M2.6,10.4c0,0.1-0.1,0.2-0.2,0.3c-0.2,0.1-0.4,0.1-0.6,0c-0.2-0.1-0.2-0.4-0.1-0.6S2,9.7,2.2,9.8
			C2.4,9.8,2.6,10.2,2.6,10.4z"/>
	</g>
	<g>
		<path class="st4" d="M3.9,14C3.5,14,3,14.2,2.6,14.6c0.1-0.8,0.7-1.5,1.4-1.8c0.7-0.4,1.6-0.5,2.3-0.3c0,0.9-0.4,1.3-0.6,1.5
			c-0.2,0.1-0.5,0.1-0.7,0.1C4.7,13.9,4.3,13.9,3.9,14z"/>
		<path class="st0" d="M3.7,11.3c-0.4,0.1-1.8,0.7-1.1,3.3C3.7,13.4,5.8,13,6,12.9c0.2-0.1,0.4-0.3,0.4-0.5c0.1-0.3-0.2-0.6-0.5-0.8
			C5.2,11.3,4.4,11.2,3.7,11.3z"/>
		<path class="st4" d="M5.4,11.7c-0.2-0.1-0.4,0-0.6,0.1c-0.1,0.1-0.2,0.4-0.2,0.6c0.1-0.1,0.3-0.2,0.5-0.2c0.1,0,0.2,0,0.3,0
			c0.1,0,0.2-0.1,0.2-0.2C5.6,11.8,5.5,11.7,5.4,11.7z"/>
		<path class="st4" d="M3.6,11.5c-0.1,0-0.1,0.1-0.1,0.2c-0.1,0.2-0.1,0.3-0.1,0.5C3.6,12,3.8,11.8,4,11.7c0,0,0.1,0,0.1-0.1
			c0,0,0-0.1,0-0.1c0,0-0.1,0-0.1,0C3.9,11.4,3.7,11.4,3.6,11.5z"/>
	</g>
	<g>
		<path class="st3" d="M2.3,23.5c0-0.1,0.2,0,0.2,0c0,0.2-0.1,0.6-0.1,1c0,0.2,0,0.3,0,0.5c0,0.1,0,0.2-0.1,0.2S2.4,25.1,2.3,25
			c0-0.1-0.1-0.3-0.1-0.5C2.2,24.1,2.3,23.7,2.3,23.5z"/>
		<path class="st3" d="M4,24.5c0-0.1,0.2-0.1,0.2,0c0,0.3-0.1,0.7,0,1.2c0,0.1,0,0.2,0,0.3c0,0.1,0,0.2,0,0.2c0,0.1,0,0.2,0,0.3
			c0,0-0.1-0.1-0.1-0.2c0-0.1-0.1-0.2-0.1-0.2c0-0.1,0-0.2-0.1-0.3C3.9,25.2,4,24.7,4,24.5z"/>
		<path class="st3" d="M1.2,25.7c0-0.1,0.2-0.1,0.2,0c0,0.2,0,0.6,0.1,1c0,0.1,0,0.2,0.1,0.2c0,0.1,0.1,0.1,0.1,0.2
			c0,0.1,0,0.2,0,0.2c0,0-0.1,0-0.2-0.1c0-0.1-0.1-0.1-0.1-0.2c0-0.1-0.1-0.2-0.1-0.3C1.2,26.3,1.2,25.9,1.2,25.7z"/>
		<path class="st3" d="M4.5,22.7c0-0.1,0.2-0.1,0.2,0c0,0.3,0.1,1.1,0,1.1C4.5,23.8,4.5,23,4.5,22.7z"/>
		<path class="st3" d="M5.7,23.8c0-0.1,0.2-0.1,0.2,0c0,0.4,0.1,1.4,0,1.4C5.8,25.3,5.7,24.2,5.7,23.8z"/>
		<path class="st3" d="M7.1,24.9c0-0.1,0.2-0.1,0.2-0.1c0.1,0.4,0.4,1.5,0.3,1.5C7.5,26.4,7.2,25.3,7.1,24.9z"/>
		<path class="st3" d="M6.4,26.2c0-0.1,0.2,0,0.2,0c0,0.2,0,0.5,0,0.9c0,0.3,0.1,0.6,0,0.6c0,0-0.1,0-0.1-0.1
			c-0.1-0.1-0.1-0.2-0.1-0.4C6.4,26.8,6.4,26.4,6.4,26.2z"/>
		<path class="st3" d="M2.6,26.3c0-0.1,0.2-0.1,0.2,0C2.9,26.7,3.2,28,3,28C2.8,28.1,2.6,26.8,2.6,26.3z"/>
		<path class="st3" d="M4.8,27.5c0-0.1,0.2-0.1,0.2,0c0.1,0.4,0.3,1.4,0.2,1.4C5.1,28.9,4.9,27.9,4.8,27.5z"/>
		<path class="st3" d="M1.9,28.9c0-0.1,0.2-0.1,0.2,0c0,0.2,0,0.7,0.1,1c0,0.1,0,0.2,0,0.3c0,0.1,0,0.2,0,0.2c0,0.1,0,0.2,0,0.2
			c0,0-0.1-0.1-0.1-0.2c0-0.1-0.1-0.1-0.1-0.2c0-0.1,0-0.2-0.1-0.3C1.8,29.6,1.9,29.1,1.9,28.9z"/>
		<path class="st3" d="M3.7,29.6c0-0.1,0.2-0.1,0.2,0c0,0.2,0,0.6,0.2,1c0,0.1,0.1,0.2,0.1,0.2c0,0.1,0.1,0.1,0.1,0.2
			c0,0.1,0.1,0.2,0,0.2c0,0-0.1,0-0.2-0.1C4,31.1,4,31,3.9,30.9c0-0.1-0.1-0.2-0.1-0.3C3.7,30.3,3.7,29.8,3.7,29.6z"/>
		<path class="st3" d="M6.2,28.8c0-0.1,0.2-0.1,0.2,0c0,0.3,0.1,0.8,0.3,1.3c0.1,0.2,0.1,0.4,0.2,0.6c0,0.2,0.1,0.3,0,0.3
			c0,0-0.1-0.1-0.2-0.2c-0.1-0.1-0.2-0.3-0.3-0.6C6.3,29.6,6.2,29.1,6.2,28.8z"/>
		<path class="st3" d="M7.9,27.7c0-0.1,0.2-0.1,0.2,0c0.1,0.3,0.3,1.2,0.1,1.2C8.1,28.9,7.9,28,7.9,27.7z"/>
		<path class="st3" d="M8.7,26.3c0-0.1,0.2-0.1,0.2,0c0.1,0.3,0.3,1.1,0.1,1.2C8.9,27.5,8.8,26.6,8.7,26.3z"/>
		<path class="st3" d="M8.1,30.2c0-0.1,0.2-0.1,0.2-0.1c0.1,0.2,0.3,0.9,0.2,1C8.4,31.1,8.1,30.5,8.1,30.2z"/>
		<path class="st3" d="M9.4,28.7c0-0.1,0.2-0.1,0.2,0c0,0.2,0,0.6,0.1,1c0,0.2,0.1,0.3,0.1,0.5c0,0.1,0,0.2,0,0.2c0,0-0.1,0-0.1-0.2
			c-0.1-0.1-0.1-0.3-0.2-0.5C9.4,29.4,9.4,28.9,9.4,28.7z"/>
		<path class="st3" d="M5.6,31.1c0-0.1,0.2-0.1,0.2,0c0,0.2,0.1,0.6,0.2,0.9c0,0.1,0.1,0.1,0.1,0.2c0,0.1,0.1,0.1,0.1,0.2
			c0,0.1,0.1,0.2,0,0.2c0,0-0.1,0-0.2-0.1c0,0-0.1-0.1-0.1-0.2c0-0.1-0.1-0.1-0.1-0.2C5.7,31.8,5.6,31.3,5.6,31.1z"/>
		<path class="st3" d="M2.8,31.9c0-0.1,0.2-0.1,0.2-0.1c0.2,0.4,0.6,1.5,0.5,1.5C3.4,33.4,3,32.3,2.8,31.9z"/>
		<path class="st3" d="M4.8,33.3c0-0.1,0.2-0.2,0.2-0.1c0.2,0.3,0.8,1.1,0.7,1.2C5.6,34.4,5,33.6,4.8,33.3z"/>
		<path class="st3" d="M7.2,32.2c0-0.1,0.2-0.1,0.2,0c0,0.2,0.2,0.5,0.3,0.8c0,0.1,0.1,0.1,0.1,0.2c0,0.1,0.1,0.1,0.1,0.2
			C8,33.3,8,33.4,8,33.4c0,0-0.1,0-0.2-0.1c0,0-0.1-0.1-0.1-0.1c0-0.1-0.1-0.1-0.1-0.2C7.3,32.7,7.2,32.4,7.2,32.2z"/>
		<path class="st3" d="M9.2,31.4c0-0.1,0.2-0.1,0.2-0.1c0.1,0.2,0.2,0.5,0.4,0.8c0.1,0.1,0.2,0.3,0.2,0.4c0.1,0.1,0.1,0.2,0,0.2
			c0,0-0.1,0-0.2-0.1c-0.1-0.1-0.2-0.2-0.3-0.3C9.3,32,9.2,31.6,9.2,31.4z"/>
		<path class="st3" d="M8.9,33.3c0-0.1,0.2-0.1,0.2-0.1c0.2,0.4,0.6,1.5,0.5,1.6C9.4,34.8,9,33.7,8.9,33.3z"/>
		<path class="st3" d="M10.6,32c0-0.1,0.2-0.2,0.2-0.1c0.1,0.3,0.6,1,0.5,1.1C11.1,33,10.7,32.3,10.6,32z"/>
		<path class="st3" d="M10.3,34.3c-0.1-0.1,0.1-0.2,0.2-0.2c0.3,0.3,1,1.1,0.9,1.2C11.2,35.4,10.5,34.6,10.3,34.3z"/>
		<path class="st3" d="M7,34.6c0-0.1,0.2-0.2,0.2-0.1c0.2,0.3,0.9,1.2,0.7,1.2C7.8,35.8,7.2,34.9,7,34.6z"/>
		<path class="st3" d="M4,34.5c-0.1-0.1,0.1-0.2,0.2-0.1c0.3,0.4,1.1,1.4,1,1.5C5.1,35.9,4.3,34.9,4,34.5z"/>
		<path class="st3" d="M2.4,34.1c0-0.1,0.2-0.2,0.2-0.1c0.2,0.3,0.8,1.1,0.6,1.1C3.1,35.2,2.6,34.4,2.4,34.1z"/>
		<path class="st3" d="M6.7,36.2c-0.1-0.1,0.1-0.2,0.2-0.1c0.1,0.2,0.4,0.4,0.7,0.6c0.1,0,0.1,0.1,0.2,0.1c0.1,0,0.1,0.1,0.2,0.1
			C8,37,8.1,37,8.1,37.1c0,0-0.1,0-0.2,0c-0.1,0-0.1,0-0.2-0.1c-0.1,0-0.1-0.1-0.2-0.1C7.1,36.7,6.8,36.4,6.7,36.2z"/>
		<path class="st3" d="M9.2,36c0,0,0.1-0.2,0.1-0.2c0.2,0.2,0.8,0.6,0.7,0.7C10,36.7,9.4,36.2,9.2,36z"/>
		<path class="st3" d="M12.5,35.2c-0.1-0.1,0.1-0.2,0.1-0.2c0.3,0.2,1,0.8,0.9,0.9C13.5,36,12.8,35.4,12.5,35.2z"/>
		<path class="st3" d="M11.3,36.2c0-0.1,0.2-0.1,0.2-0.1c0.1,0.1,0.2,0.3,0.4,0.4c0,0,0.1,0.1,0.1,0.1c0,0,0.1,0,0.1,0.1
			c0.1,0,0.1,0.1,0.1,0.1c0,0-0.1,0-0.1,0c0,0-0.1,0-0.1,0c-0.1,0-0.1-0.1-0.2-0.1C11.5,36.6,11.3,36.4,11.3,36.2z"/>
		<path class="st3" d="M9.8,37.4c0-0.1,0.2-0.2,0.2-0.1c0.1,0.1,0.3,0.4,0.5,0.5c0.1,0.1,0.2,0.2,0.3,0.2c0.1,0.1,0.1,0.1,0.1,0.1
			c0,0-0.1,0-0.2,0c-0.1,0-0.2-0.1-0.3-0.2C10.1,37.8,9.9,37.6,9.8,37.4z"/>
		<path class="st3" d="M5.1,36.9c0-0.1,0.2-0.1,0.2-0.1c0.1,0.2,0.2,0.4,0.4,0.6c0,0,0.1,0.1,0.1,0.1c0,0,0.1,0.1,0.1,0.1
			c0.1,0.1,0.1,0.1,0.1,0.2c0,0-0.1,0-0.2,0c0,0-0.1,0-0.2-0.1c-0.1,0-0.1-0.1-0.2-0.1C5.4,37.4,5.2,37.1,5.1,36.9z"/>
		<path class="st3" d="M7.9,38.6c-0.1-0.1,0.1-0.2,0.2-0.2c0.1,0.1,0.4,0.4,0.7,0.5c0.1,0.1,0.3,0.1,0.4,0.2
			c0.1,0.1,0.2,0.1,0.1,0.1c0,0-0.1,0-0.2,0c-0.1,0-0.3-0.1-0.4-0.1C8.4,39,8.1,38.7,7.9,38.6z"/>
		<path class="st3" d="M12.1,38.2c-0.1-0.1,0-0.2,0.1-0.2c0.2,0.1,0.7,0.3,1.1,0.4c0.1,0,0.2,0.1,0.3,0.1c0.1,0,0.2,0,0.3,0.1
			c0.1,0,0.2,0.1,0.2,0.1c0,0-0.1,0.1-0.3,0.1c-0.1,0-0.2,0-0.3,0c-0.1,0-0.2,0-0.3-0.1C12.8,38.5,12.3,38.3,12.1,38.2z"/>
		<path class="st3" d="M13.4,36.6c0-0.1,0.2-0.2,0.2-0.1c0.1,0.1,0.3,0.3,0.5,0.4c0.1,0,0.1,0.1,0.1,0.1c0,0,0.1,0,0.1,0.1
			c0.1,0,0.1,0.1,0.1,0.1c0,0-0.1,0-0.2,0c0,0-0.1,0-0.2,0c-0.1,0-0.1-0.1-0.2-0.1C13.7,37,13.5,36.8,13.4,36.6z"/>
		<path class="st3" d="M11,39.4c-0.1,0,0-0.2,0.1-0.2c0.4,0.1,1.5,0.5,1.5,0.6C12.6,40,11.4,39.6,11,39.4z"/>
		<path class="st3" d="M15.7,36.9c-0.1-0.1,0.1-0.2,0.1-0.2c0.1,0.1,0.4,0.3,0.7,0.4c0.1,0,0.1,0,0.2,0.1c0.1,0,0.1,0,0.2,0
			c0.1,0,0.1,0.1,0.1,0.1c0,0-0.1,0.1-0.2,0.1c-0.1,0-0.1,0-0.2,0c-0.1,0-0.1,0-0.2-0.1C16.1,37.2,15.8,37,15.7,36.9z"/>
		<path class="st3" d="M14.8,38.1c-0.1,0,0.1-0.2,0.1-0.2c0.3,0.1,1,0.4,0.9,0.5C15.8,38.5,15.1,38.2,14.8,38.1z"/>
		<path class="st3" d="M13.8,39.5c-0.1-0.1,0.1-0.2,0.1-0.2c0.2,0.1,0.5,0.3,0.8,0.4c0.2,0.1,0.3,0.1,0.4,0.1c0.1,0,0.2,0.1,0.2,0.1
			c0,0-0.1,0.1-0.2,0.1c-0.1,0-0.3,0-0.4-0.1C14.3,39.8,14,39.6,13.8,39.5z"/>
		<path class="st3" d="M16.5,39.6c-0.1,0,0-0.2,0-0.2c0.3,0.1,1.2,0.2,1.2,0.3C17.8,39.9,16.9,39.7,16.5,39.6z"/>
		<path class="st3" d="M17.4,38c-0.1,0,0-0.2,0.1-0.2c0.4,0.1,1.5,0.4,1.5,0.6C18.9,38.5,17.8,38.2,17.4,38z"/>
		<path class="st3" d="M15.6,40.7c-0.1,0,0-0.2,0-0.2c0.3,0,1.2,0.1,1.1,0.2C16.8,40.9,15.9,40.8,15.6,40.7z"/>
		<path class="st3" d="M12.4,40.6c-0.1,0,0-0.2,0-0.2c0.3,0,1.1,0,1,0.1C13.5,40.7,12.7,40.6,12.4,40.6z"/>
		<path class="st3" d="M18.9,40.3c-0.1,0,0-0.2,0-0.2c0.3,0,1.3,0.1,1.2,0.2C20.1,40.4,19.2,40.3,18.9,40.3z"/>
		<path class="st3" d="M19.4,39.2c-0.1,0,0-0.2,0-0.2c0.2,0,0.9,0.1,0.9,0.3C20.3,39.4,19.6,39.3,19.4,39.2z"/>
		<path class="st3" d="M21.7,39.8c-0.1,0,0-0.2,0-0.2c0.4,0,1.4,0.1,1.3,0.2C23.1,40,22.1,39.9,21.7,39.8z"/>
		<path class="st3" d="M21,38.6c-0.1,0,0-0.2,0.1-0.2c0.4,0.1,1.5,0.4,1.4,0.5C22.5,39,21.4,38.7,21,38.6z"/>
	</g>
	<path class="st5" d="M14.6,3.4c0.4-0.4,1-0.7,1.6-0.7c0.6,0,1.1,0.3,1.4,0.8c0.7,1.1-1.3,5.9-3,4.8c-3.1-2-6.2-2.2-9.4-0.4
		C4.8,8.2,3.8,6.8,3.4,6.4c-0.4-0.5-0.8-1-1-1.6C2.2,4.1,2.2,3.5,2.5,2.9c0.3-0.6,0.9-1,1.5-1c0.6,0,1.2,0.6,1.3,1.2
		c0-0.6,0-1.2,0.3-1.7c0.2-0.5,0.8-1,1.4-0.9C7.6,0.6,8,1.4,8.3,2.1c0-0.4,0.1-0.8,0.2-1.2C8.7,0.5,9,0.2,9.3,0.1
		c0.6-0.2,1.2,0.2,1.6,0.7c0.3,0.5,0.5,1.1,0.6,1.7c0-0.7,0.5-1.3,1.2-1.5c0.7-0.2,1.4,0.1,1.9,0.6C15,2,15,2.9,14.6,3.4z"/>
	<path class="st0" d="M13.8,19.4c-0.1,4.7,2.9,9.3,7.3,11c4.4,1.7,9.8,0.4,12.9-3.1c0.2-0.3,0.5-0.6,0.4-1c-0.1-0.7-1.1-0.8-1.8-0.8
		c-2.8,0.1-5.5-1.1-7.4-3.1c-1.2-1.3-2.1-2.9-3.4-4.1c-1.3-1.1-2.9-1.8-4.6-1.9c-1,0-2.1,0.2-2.8,1C13.9,17.9,13.8,18.7,13.8,19.4z"
		/>
	<g>
		<path class="st4" d="M17.2,22.7c0.4,0.2,0.9,0.3,1.4,0.1c0.8-0.3,1.2-1,1.2-1.8c1.2,0.7,3.4-1,1.8-2.4c-0.1-0.1-0.6,0.1-0.5,0.2
			c0.5,0.4,0.6,0.8,0.5,1.4c-0.3,1.3-1.7,0.5-1.9-0.3c0,0,0-0.1,0-0.1c0-0.1-0.5,0-0.5,0.1c0,0.1,0,0.2,0.1,0.2
			c0.2,0.6,0.2,1.2-0.1,1.7c-0.5,1-1.6,0.7-1.9-0.1c0-0.1,0-0.2-0.1-0.2c0-0.1-0.5,0-0.5,0.1c0,0.1,0,0.2,0.1,0.3
			c0.1,0.3,0.1,0.6,0,0.9c-0.2,0.8-1.3,0.5-1.2-0.3c0-0.1-0.5,0-0.5,0.1c-0.1,0.7,0.6,1.1,1.2,0.9C16.8,23.6,17.1,23.2,17.2,22.7z"
			/>
		<path class="st4" d="M20.3,25.2c0.4,0.3,0.9,0.5,1.5,0.3c0.7-0.2,0.9-0.8,0.9-1.3c0.3,0.2,0.6,0.2,1,0.1c1.3-0.4,0.7-1.6-0.1-2.3
			c-0.1-0.1-0.5,0.1-0.5,0.2c0.5,0.5,1,1,0.7,1.8c-0.3,0.8-1.2-0.3-1.3-0.4c0-0.1-0.1-0.1-0.1-0.2c-0.1-0.2-0.2-0.4-0.3-0.6
			c-0.1-0.1-0.5,0.1-0.5,0.1c0.1,0.2,0.2,0.3,0.3,0.5c0.2,0.5,0.3,0.9,0.2,1.5c-0.2,0.5-0.9,0.5-1.3,0.2c-0.4-0.2-0.6-0.7-0.9-1.1
			c-0.1-0.1-0.5,0.1-0.5,0.1c0.3,0.7,0.6,1.4,0.3,2.1c-0.4,1-1.4,0.4-1.8,0.1c-0.3-0.3-0.6-0.7-0.8-1.1c-0.1-0.1-0.5,0.1-0.5,0.1
			c0.5,1,1.4,1.8,2.6,1.5C20.3,26.7,20.4,26,20.3,25.2z"/>
		<path class="st4" d="M28.5,25.7c-0.1,0-0.6,0.2-0.3,0.3c1.3,0.4,1.3,2.6-0.3,2.2c0,0,0,0,0,0c0,0-0.1,0-0.1,0l0,0c0,0,0,0,0,0
			c-0.1,0-0.6,0.2-0.4,0.2c0.1,0,0.2,0.1,0.3,0.1c0.4,0.1,0.7,0.3,0.8,0.7c0.3,0.9-1.3,1-1.9,0.8c-0.1,0-0.6,0.2-0.3,0.3
			c0.7,0.2,1.9,0.3,2.5-0.4c0.5-0.6,0.3-1.1-0.2-1.4c0.3-0.1,0.6-0.3,0.9-0.5C30.2,27,29.4,25.9,28.5,25.7z"/>
		<path class="st4" d="M26.9,25.9c0.8-0.8-0.5-1.6-1.1-1.8c-0.2,0-0.6,0.2-0.3,0.3c0.3,0.1,0.6,0.2,0.8,0.4c0.8,0.7-0.6,1.2-1.3,0.9
			c-0.1,0-0.6,0.1-0.4,0.2c0.4,0.3,0.7,0.6,0.9,1.1c0.1,0.8-0.4,1-1.3,0.7c-0.1,0-0.2-0.1-0.3-0.1c-0.2-0.1-0.4-0.2-0.5-0.3
			c-0.1-0.1-0.6,0.1-0.4,0.2c0.1,0.1,0.2,0.2,0.4,0.2c0.1,0.1,0.2,0.1,0.3,0.2c0.7,0.7-0.4,1.3-1.1,1.3c-0.7,0-1.3-0.3-1.9-0.7
			c-0.1-0.1-0.6,0.1-0.5,0.2c1,0.7,2.1,1,3.3,0.7c0.4-0.1,0.7-0.4,0.9-0.8c0-0.1,0-0.3,0-0.4c0.4,0.1,0.8,0,1.1-0.2
			c0.8-0.5,0.5-1.2,0.1-1.7C26.1,26.4,26.5,26.3,26.9,25.9z"/>
	</g>
</g>
</svg>
