<?xml version="1.0" encoding="utf-8"?>
<!-- Generator: Adobe Illustrator 19.2.1, SVG Export Plug-In . SVG Version: 6.00 Build 0)  -->
<svg version="1.1" id="Layer_1" xmlns="http://www.w3.org/2000/svg" xmlns:xlink="http://www.w3.org/1999/xlink" x="0px" y="0px"
	 viewBox="0 0 96.5 114.5" style="enable-background:new 0 0 96.5 114.5;" xml:space="preserve">
<style type="text/css">
	.st0{fill:#EAC39B;}
	.st1{fill:#72401E;}
	.st2{fill:#9B613A;}
	.st3{fill:#CC9B6E;}
	.st4{fill:#FFFFFF;}
	.st5{fill:#8E542D;}
	.st6{fill:#B27246;}
</style>
<g>
	<path class="st0" d="M26.8,30.7c-1.2-2.1-1.2-4.7-1.3-7.2c-0.1-6-0.1-12.1-0.2-18.1c1.8-1.4,4.5-1.3,6.2,0.2
		c1.5,1.3,2.1,3.4,2.3,5.4c0.2,2,0.1,4,0.6,5.9c0.5,1.9,1.5,4.1,3.5,4.6c-0.7,0.9-1.5,1-2.7,0.9c-0.1,1.8,1.3,3.7,2.8,4.8
		c-0.5,0.9-1.8,1.4-2.6,0.9c-0.4,2.2,1,3.9,3.2,4.3c-1.5,2.2-4.4,2.5-6.5,2.1C29.8,34,27.8,32.6,26.8,30.7z"/>
	<path class="st0" d="M73.8,40.5c-0.1-0.4-0.2-0.8-0.3-1.1c2.6-1.4,5.7-2,8.4-0.9c2.5,1,4.3,3.5,5.1,6.1c0.8,2.6,0.8,5.4,0.7,8.1
		c-0.1,2.7-0.4,5.5,0,8.2c0.3,2.2,1.1,4.4,2.8,5.8c1.7,1.4,4.4,1.6,6,0.1c0.3,3.5-1.8,7.2-5.1,8.5c-3.3,1.3-7.4,0-9.2-3.1
		c-1.3-2.2-1.3-4.9-1.2-7.5c0.1-4.9,0.2-9.9,0.2-14.8c0-1.6,0.1-3.3-0.3-4.9c-0.4-1.6-1.1-3.1-2.4-4.1
		C77.1,39.9,75.2,39.7,73.8,40.5z"/>
	<path class="st1" d="M68.8,67.1c-0.5-0.3-1.1-0.2-1.7-0.1c-4.8,0.8-9.5,1.7-14.3,2.5c6.1,5.2,9.5,13,11,21c1.4,7.9,1,16,0.6,24.1
		c0.9,0,1.8,0.1,2.7,0.1c2.5-15.1,3.3-30.4,2.4-45.7C69.4,68.2,69.3,67.5,68.8,67.1z"/>
	<path d="M64.5,111.6c0,0.9-0.1,1.9-0.1,2.8c0.9,0,1.8,0.1,2.7,0.1c0.2-0.9,0.3-1.8,0.4-2.7C66.5,111.8,65.5,111.7,64.5,111.6z"/>
	<path class="st1" d="M22.5,113.3c1,0.1,2,0.2,3,0.4c2.1-13.8,2.5-28,3.8-41.4c-2-0.4-5.2-1.3-7.2-1.7c1.7,12.3,3.4,26,1.2,38.8
		C23,110.7,22.8,112,22.5,113.3z"/>
	<path d="M22.5,113.3c1,0.1,2,0.2,3,0.4c0.1-0.9,0.3-1.8,0.4-2.6c-0.9-0.1-1.9-0.3-2.8-0.6C22.9,111.4,22.7,112.4,22.5,113.3z"/>
	<path class="st2" d="M30.2,71.5c1.6,14.1,1.5,28.2,0,42.1c1,0,2.1,0.1,3.1,0.1c0.3-14,2.6-27.6,4.4-41.5
		C36,72.2,31.8,71.5,30.2,71.5z"/>
	<path d="M30.5,110.6c-0.1,1-0.2,2-0.3,3c1,0,2.1,0.1,3.1,0.1c0-1,0-2.1,0.1-3.1C32.4,110.7,31.4,110.7,30.5,110.6z"/>
	<path class="st2" d="M75.2,67.1c-0.5-0.3-1.1-0.2-1.7-0.1c-4.8,0.8-9.5,1.7-14.3,2.5c6.1,5.2,9.5,13,11,21c1.4,7.9,1,16,0.6,24.1
		c0.9,0,1.8,0.1,2.7,0.1c2.5-15.1,3.3-30.4,2.4-45.7C75.8,68.2,75.7,67.5,75.2,67.1z"/>
	<path d="M70.9,111.6c0,0.9-0.1,1.9-0.1,2.8c0.9,0,1.8,0.1,2.7,0.1c0.2-0.9,0.3-1.8,0.4-2.7C72.9,111.8,71.9,111.7,70.9,111.6z"/>
	<path class="st2" d="M77.2,46.3c-0.1-2.5-0.5-5.2-2.3-6.8c-1.7-1.4-4.1-1.5-6.3-1.5c-7.6,0.1-15.2,0.1-22.7,0.2
		c-5.5,0-11.9-0.3-15.3-4.6c-1.7-2.1-1.8-14.6-1.8-18.3c0-2.5-0.1-5.2-1.8-7.1c-1.6-1.7-4-2.2-6.4-2.4c-5.3-0.5-10.8-0.2-16,0.9
		C3.1,7.1,1.7,7.5,0.8,8.6c-1.4,1.6-0.8,4.3,0.7,5.8C3,16,5.1,16.7,7.1,17.4c2,0.6,4.1,1.5,5.7,2.8c9.3,7.8,5.1,32.2,5.2,40.6
		c0.1,4.2,0.4,8.8,3.5,11.6c2.3,2.1,5.7,2.5,8.8,2.7c12.8,1,25.6,0.9,38.4-0.4c2.5-0.3,5.3-0.7,7-2.6c1.6-1.8,1.8-4.4,1.9-6.8
		C77.7,58.9,77.6,52.6,77.2,46.3z"/>
	<path class="st0" d="M8.2,6.2C7,6.4,5.7,6.6,4.5,6.9C3.1,7.1,1.7,7.5,0.8,8.6c-1.4,1.6-0.8,4.3,0.7,5.8C3,16,5.1,16.7,7.1,17.4
		c0.5,0.2,2.4-2.1,2.6-3.5C10,11.2,9.6,8.5,8.2,6.2z"/>
	<path class="st1" d="M13.8,13.3c0.3-0.1,0.4-0.2,0.4-0.3c0-0.1-0.2-0.1-0.5-0.1c-0.1,0-0.3,0-0.5,0c-0.2,0-0.4,0.1-0.7,0.1
		c-0.5,0.1-1.1,0.2-1.8,0.2c-0.2,0-0.3,0-0.5,0.1c-0.1,0-0.2,0-0.3,0c-0.1,0-0.2,0-0.3,0c-0.4,0-0.7,0.1-1.1,0.1
		c-1.5,0.1-3.1,0.2-4.6,0.2c-0.4,0-0.7,0-1.1,0c-0.3,0-0.7,0-1-0.1c-0.5-0.1-1-0.2-1.3-0.3c0.2,0.4,0.5,0.9,0.9,1.2
		c0.1,0.1,0.1,0.1,0.2,0.2c0,0,0.1,0,0.1,0c0.3,0.1,0.7,0.1,1.1,0.1c0.4,0,0.7,0,1.1,0c1.5,0,3.2,0,4.8-0.2c1.5-0.2,3-0.5,4-0.8
		c0.3-0.1,0.5-0.2,0.7-0.2C13.5,13.5,13.7,13.4,13.8,13.3z"/>
	<path class="st3" d="M2.7,11.5c0.6,0,1.2,0,1.6-0.3c0.2-0.2,0.4-0.5,0.5-0.7c0.1-0.4,0.1-1-0.3-1.2C4.1,9,3.7,9.1,3.4,9.3
		C2.7,9.5,2.1,10.1,2,10.8c0,0.2,0,0.4,0.1,0.5C2.3,11.4,2.5,11.5,2.7,11.5z"/>
	<path class="st4" d="M18.5,11.2c0.8-0.1,1.4-0.7,1.7-1.4s0-1.6-0.6-2c-0.6-0.4-1.5-0.4-2,0.1c-0.5,0.4-0.7,1.1-0.7,1.8
		c0,0.4,0.1,0.9,0.4,1.2C17.5,11.1,18,11.2,18.5,11.2z"/>
	<path d="M18.2,9.7c-0.2,0.2-0.3,0.6-0.1,0.8c0.1,0.1,0.2,0.2,0.4,0.3c0.3,0.1,0.7,0,0.9-0.2c0.2-0.2,0.3-0.6,0.1-0.9
		c-0.2-0.3-0.5-0.4-0.8-0.3C18.4,9.4,18.3,9.5,18.2,9.7z"/>
	<path class="st0" d="M16.3,6.7c3-0.7,4.7-1.1,8,0.3c0.3-1.8,0.2-3.2-0.7-4.7C22.7,0.8,20.9,0,19.2,0c-1.7,0-3.4,0.7-4.7,1.7
		c-1.2,1-3.1,2.7-4,2.3C9.6,3.7,9.6,2.5,9.6,2.5c-0.8,1.5,0,3.6,1.5,4.1C12.4,7.1,14.9,7,16.3,6.7z"/>
	<path class="st5" d="M26.7,7.2c-0.1,0.7-0.2,1.4-0.8,1.7c-0.5,0.3-1.1,0.1-1.6-0.1C23.7,8.5,23,8,22.7,7.3c0.9-2.5,1.8-5.7,2-6.9
		C25-0.9,26.8,1,26.8,4.3C26.8,5.3,26.8,6.2,26.7,7.2z"/>
	<path class="st3" d="M23,7.3c0.2-0.6,0.5-1.3,0.7-2c0.2-0.6,1.2-3.9,1.2-4.5c0.1-0.9,0.7-0.4,0.7,1.4c-0.1,2.6-1.5,5.9-1.7,5.9
		C23.7,8.2,23.1,7.6,23,7.3z"/>
	<g>
		<path class="st6" d="M42.8,41.6c0-0.1,0-0.1,0-0.2c-0.1-0.4-0.7-0.6-1-0.8c-0.7-0.4-1.6-0.8-2.4-0.9c-0.4-0.1-0.8-0.1-1.1-0.1
			c-0.3,0-0.5,0-0.6,0.1c-0.1,0.1-0.3,0.3-0.4,0.6c0,0.1-0.1,0.3,0,0.4c0,0.1,0.1,0.3,0.2,0.4c0.6,0.7,1.7,0.9,2.6,1
			c0.7,0.1,1.9,0.2,2.6-0.3C42.7,41.8,42.7,41.8,42.8,41.6C42.8,41.7,42.8,41.7,42.8,41.6C42.8,41.6,42.8,41.7,42.8,41.6z"/>
		<path class="st6" d="M48.1,42.4c0,1.2,0.5,2,1.2,2.4c0.1,0.1,0.2,0.1,0.4,0.2c0.1,0,0.3,0.1,0.4,0.1c0.3,0,0.5-0.1,0.8-0.3
			c0.3-0.2,0.6-0.4,0.8-0.8c0.2-0.4,0.3-0.8,0.1-1.5c-0.1-0.3-0.3-0.6-0.5-0.8c-0.5-0.6-1.4-0.6-2.1-1c-0.2-0.1-0.5-0.2-0.7,0.1
			C48.2,41.3,48.1,41.9,48.1,42.4C48,43.6,48.1,41.9,48.1,42.4z"/>
		<path class="st6" d="M59.7,41.3c0.3-0.1,0.5-0.3,0.7-0.5c0.1-0.2,0.1-0.4,0.1-0.6c0-0.2,0-0.4-0.1-0.6c-0.1-0.2-0.2-0.4-0.4-0.6
			c-0.2-0.2-0.8-0.4-1.5-0.5c-0.7-0.1-1.5-0.1-2.1,0.1c-0.3,0.1-0.5,0.2-0.6,0.3c-0.1,0.1-0.1,0.2-0.1,0.3c0,0.2,0.2,0.4,0.2,0.6
			c0,0.4,0.3,0.8,1.1,1.1C57.7,41.4,58.9,41.6,59.7,41.3C60,41.2,58.9,41.6,59.7,41.3z"/>
		<path class="st6" d="M28.3,43.3c-0.2,0.4-0.2,0.9,0,1.3c0.1,0.4,0.3,0.8,0.6,1.2c0.4,0.7,1,1.3,1.7,1.5c0.2,0.1,0.5,0.1,0.8,0
			c0.3,0,0.7-0.1,1-0.3c0.7-0.3,1.2-0.8,1.4-1.5c0.1-0.3,0.1-0.6,0.1-0.8c0-0.2-0.1-0.4-0.2-0.5c-0.5-0.6-1-1.3-1.6-1.7
			c-0.3-0.2-0.8-0.4-1.2-0.4C29.9,41.9,28.7,42.3,28.3,43.3C28.2,43.7,28.7,42.3,28.3,43.3z"/>
		<path class="st6" d="M51.1,51c-0.4,0.8-0.3,2,0.1,2.6c0.2,0.3,0.5,0.5,0.8,0.7c0.3,0.1,0.7,0.2,1,0.2c0.7,0,0.6,0,2-0.1
			c0.3,0,0.7-0.1,1-0.3c0.3-0.2,0.6-0.4,0.7-0.7c0.3-0.6,0.2-1.3-0.8-1.8c-0.4-0.2-0.8-0.3-1.2-0.5c-0.8-0.3-1.7-0.8-2.5-0.8
			C51.8,50.3,51.4,50.5,51.1,51C50.7,51.8,51.4,50.5,51.1,51z"/>
		<path class="st6" d="M60.7,47.5c-0.4-0.2-0.9-0.4-1.3-0.5c-0.5-0.1-0.9-0.1-1.4,0c-0.5,0.1-0.5,0.7-0.4,1.3
			c0.1,0.7,0.5,1.4,0.8,1.7c0.6,0.7,1.4,0.9,2.1,0.9c0.6,0,1.3-0.2,1.4-1c0.1-0.5-0.1-1.2-0.3-1.6C61.4,47.9,61,47.7,60.7,47.5
			C60.2,47.3,61,47.7,60.7,47.5z"/>
		<path class="st6" d="M40.3,54.5c-1.4-0.7-3-1.2-4.6-1.4c-0.9-0.1-1.2,0.5-1.1,1.3c0,0.4,0.2,0.9,0.3,1.3c0.9,2.1,3.8,3.4,6,2.7
			c0.2-0.1,0.5-0.2,0.7-0.3c0.2-0.1,0.3-0.3,0.5-0.6c0.1-0.3,0.2-0.7,0.1-1c-0.1-0.3-0.2-0.7-0.4-0.9C41.4,55.1,40.8,54.8,40.3,54.5
			C40.1,54.5,40.4,54.6,40.3,54.5z"/>
		<path class="st6" d="M60.7,64.6c0.7-0.1,1.3-0.3,1.9-0.7c0.2-0.1,0.6-0.6,0.9-1.1c0.3-0.5,0.4-1.1,0-1.5c-0.8-0.7-2.4-0.6-3.4-0.7
			c-0.8,0-2.6-0.3-3.3,0.3c-0.8,0.7-0.3,1.8,0.1,2.5c0.4,0.7,1.1,1.1,1.8,1.3C59.4,64.9,60,64.7,60.7,64.6
			C61,64.5,60,64.7,60.7,64.6z"/>
		<path class="st6" d="M68.7,59.1c0.6-0.1,1.2-0.3,1.7-0.4c0.3-0.1,0.7-0.2,0.9-0.6c0.1-0.2,0.2-0.9,0.2-1.5c0-0.6-0.2-1.2-0.8-1.2
			c-1.3,0-2.6-0.3-4-0.1c-0.4,0.1-0.8,0.2-1,0.4c-0.4,0.4-0.4,0.9-0.2,1.5c0.2,0.5,0.6,1,0.9,1.3c0.3,0.3,0.7,0.5,1.1,0.6
			C67.9,59.1,68.3,59.1,68.7,59.1C69.3,59,68.5,59.1,68.7,59.1z"/>
		<path class="st6" d="M39.5,49.7c0.7,0.2,1.7,0.3,2.5,0.2c0.2,0,0.4-0.1,0.5-0.3c0.2-0.1,0.6-0.8,0.8-1.4c0.2-0.6,0.3-1.2-0.2-1.3
			c-1.4-0.3-2.6-1.3-4-1.4c-0.2,0-0.3,0-0.5,0c-0.6,0.1-0.9,0.6-1,1.1c-0.1,0.5,0,1.1,0.1,1.5C37.9,49,38.7,49.5,39.5,49.7
			C39.8,49.7,38.7,49.5,39.5,49.7z"/>
		<path class="st6" d="M65.2,42.1c0.1,0.5,0.3,0.8,0.6,1c0.1,0.1,0.3,0.2,0.4,0.2c0.5,0.2,1.2,0.3,1.8,0.3c0.5,0,0.9,0,1.3-0.3
			c0.8-0.5,0.5-2.8-0.4-2.5c-0.9,0.3-1.2-0.3-1.8-0.5c-0.4-0.1-0.9-0.3-1.3,0C65.3,40.6,65,41.4,65.2,42.1
			C65.3,42.6,65,41.4,65.2,42.1z"/>
		<path class="st6" d="M44.4,59.5c0.1,0.5,0.4,0.8,0.8,0.9c0.4,0.2,0.8,0.3,1.3,0.3c1.3,0,2.7,0.1,3.7-0.6c0.5-0.4,0.8-1.1,0.7-1.7
			c0-0.3-0.1-0.6-0.3-0.7c-0.2-0.1-0.4-0.2-0.7,0c-0.3,0.1-0.6,0.2-0.8,0.2c-0.5,0-0.8-0.2-1.3-0.3c-0.4-0.1-0.9-0.1-1.3-0.1
			c-0.3,0-0.6,0.1-1,0.2c-0.3,0.1-0.6,0.4-0.8,0.7C44.4,58.7,44.3,59.1,44.4,59.5C44.5,59.9,44.3,59.1,44.4,59.5z"/>
	</g>
	<g>
		<path class="st1" d="M27.3,30.6c0-0.2,0.4-0.1,0.4,0c0,0.2,0,0.4,0,0.7c0,0.1,0,0.1,0,0.2c0,0.1,0,0.1,0,0.2
			c0,0.1,0.1,0.3,0.1,0.4c0,0.1,0.1,0.3,0.1,0.4c0,0.1,0.1,0.2,0.1,0.3c0.1,0.2,0.1,0.3,0,0.3c-0.1,0-0.2,0-0.3-0.2
			c-0.1-0.1-0.1-0.2-0.2-0.3c-0.1-0.1-0.1-0.2-0.2-0.4c0-0.1-0.1-0.3-0.1-0.4c0-0.1,0-0.2,0-0.2c0-0.1,0-0.2,0-0.2
			C27.2,31.1,27.3,30.8,27.3,30.6z"/>
		<path class="st1" d="M28.7,35.6c-0.1-0.1,0.2-0.4,0.3-0.3c0.4,0.4,1.6,1.4,1.4,1.6C30.2,37.1,29.1,36,28.7,35.6z"/>
		<path class="st1" d="M26.3,35.6c-0.1-0.1,0.3-0.3,0.4-0.2c0.4,0.6,1.5,2.2,1.2,2.3C27.7,37.8,26.7,36.2,26.3,35.6z"/>
		<path class="st1" d="M32.4,38.1c-0.1-0.1,0.2-0.3,0.3-0.3c0.3,0.3,1.1,0.9,0.9,1.1C33.5,39.2,32.7,38.4,32.4,38.1z"/>
		<path class="st1" d="M29.7,39.3c-0.1-0.2,0.3-0.3,0.4-0.2c0.1,0.2,0.3,0.4,0.5,0.6c0.1,0.1,0.1,0.1,0.2,0.2c0.1,0,0.1,0.1,0.2,0.2
			l0.1,0.1c0,0,0.1,0,0.1,0.1c0.1,0,0.1,0.1,0.2,0.1c0.1,0,0.1,0.1,0.2,0.1c0.1,0,0.1,0.1,0.2,0.1c0.1,0.1,0.2,0.1,0.3,0.2
			c0.2,0.1,0.3,0.2,0.3,0.2c0,0.1-0.2,0.1-0.4,0c-0.1,0-0.2-0.1-0.4-0.1c-0.1,0-0.1-0.1-0.2-0.1c-0.1,0-0.1-0.1-0.2-0.1
			c-0.1,0-0.1-0.1-0.2-0.1c0,0-0.1,0-0.1-0.1l-0.1-0.1c-0.1-0.1-0.1-0.1-0.2-0.2c-0.1-0.1-0.1-0.1-0.2-0.2
			C30,39.8,29.8,39.5,29.7,39.3z"/>
		<path class="st1" d="M27.5,40.9c-0.1-0.1,0.2-0.4,0.3-0.3c0.2,0.1,0.4,0.3,0.7,0.5c0.1,0,0.1,0.1,0.2,0.1c0.1,0,0.1,0.1,0.2,0.1
			c0.1,0.1,0.3,0.2,0.5,0.3c0.2,0.1,0.3,0.2,0.4,0.2c0.1,0.1,0.3,0.1,0.4,0.2c0.2,0.1,0.3,0.2,0.3,0.3c0,0.1-0.2,0.1-0.4,0
			c-0.1,0-0.3-0.1-0.4-0.1c-0.2-0.1-0.3-0.1-0.5-0.2c-0.2-0.1-0.3-0.2-0.5-0.3c-0.1-0.1-0.2-0.1-0.2-0.2c-0.1-0.1-0.2-0.1-0.2-0.2
			C27.9,41.3,27.7,41.1,27.5,40.9z"/>
		<path class="st1" d="M35.2,40.9c-0.1,0,0.1-0.4,0.2-0.4c0.3,0.1,1.2,0.4,1.1,0.7C36.3,41.4,35.5,41,35.2,40.9z"/>
		<path class="st1" d="M33.3,42.8c-0.1,0,0-0.4,0.1-0.4c0.6,0.1,2.1,0.3,2,0.6C35.3,43.3,33.8,43,33.3,42.8z"/>
		<path class="st1" d="M36.2,39.1c-0.2,0,0-0.4,0.1-0.4c0.7,0.1,2.6,0.3,2.5,0.6C38.8,39.5,36.9,39.2,36.2,39.1z"/>
		<path class="st1" d="M39.4,41.1c-0.1,0,0-0.4,0-0.4c0.3,0,1.2,0,1.1,0.3C40.5,41.2,39.7,41.1,39.4,41.1z"/>
		<path class="st1" d="M38.3,43c-0.1,0,0-0.4,0.1-0.4c0.4,0.1,1.7,0.2,1.6,0.5C40,43.3,38.8,43.1,38.3,43z"/>
		<path class="st1" d="M43.9,39.8c-0.1,0,0-0.4,0-0.4c0.3,0,1.2-0.1,1.2,0.2S44.3,39.8,43.9,39.8z"/>
		<path class="st1" d="M36.1,44.7c-0.1,0,0-0.4,0.1-0.4c0.5,0.1,2,0.4,1.9,0.7C38.1,45.2,36.6,44.9,36.1,44.7z"/>
		<path class="st1" d="M32,44.4c-0.1-0.1,0.1-0.4,0.2-0.4c0.6,0.3,2.3,1.2,2.1,1.5C34.2,45.8,32.6,44.8,32,44.4z"/>
		<path class="st1" d="M29.2,44.4c-0.1-0.1,0.2-0.4,0.3-0.3c0.6,0.5,2.4,1.9,2.3,2.1C31.6,46.5,29.8,45,29.2,44.4z"/>
		<path class="st1" d="M33.5,48.9c-0.1,0,0.1-0.4,0.2-0.4c0.4,0.2,1.4,0.5,1.3,0.8C34.9,49.5,33.8,49.1,33.5,48.9z"/>
		<path class="st1" d="M36.2,46.9c-0.1,0,0-0.4,0.1-0.4c0.4,0.1,1.6,0.4,1.5,0.6C37.7,47.4,36.6,47,36.2,46.9z"/>
		<path class="st1" d="M40,45c-0.1,0,0-0.4,0.1-0.4c0.5,0.1,2.1,0.4,2,0.7C42,45.6,40.5,45.2,40,45z"/>
		<path class="st1" d="M42.2,42.9c-0.1,0-0.1-0.4,0-0.4c0.5,0,1.9-0.1,1.9,0.2C44.1,43,42.7,43,42.2,42.9z"/>
		<path class="st1" d="M41.2,39.9c0,0,0.1-0.4,0.2-0.4c0.2,0.1,0.9,0.3,0.8,0.5C42,40.3,41.4,40.1,41.2,39.9z"/>
		<path class="st1" d="M45,41.8c-0.1,0,0-0.4,0.1-0.4c0.3,0,1.2,0.1,1.1,0.4C46.2,42,45.3,41.8,45,41.8z"/>
		<path class="st1" d="M47.5,40.1c-0.1,0-0.1-0.4,0-0.4c0.6,0,2.3-0.1,2.3,0.2S48.1,40.2,47.5,40.1z"/>
		<path class="st1" d="M48.6,42.3c-0.1,0,0-0.4,0-0.4c0.6,0.1,2.2,0.2,2.1,0.5C50.7,42.6,49.2,42.4,48.6,42.3z"/>
		<path class="st1" d="M45.4,44c-0.1,0,0-0.4,0-0.4c0.5,0,1.9,0.1,1.9,0.4S45.9,44.1,45.4,44z"/>
		<path class="st1" d="M45.1,45.9c-0.1,0-0.1-0.4,0-0.4c0.5,0,1.9,0,1.9,0.3C47,46,45.6,46,45.1,45.9z"/>
		<path class="st1" d="M41.1,47.4c-0.1,0,0-0.4,0-0.4c0.6,0,2.1,0.1,2,0.4C43.2,47.7,41.7,47.5,41.1,47.4z"/>
		<path class="st1" d="M38.4,49.5c-0.2,0-0.1-0.4,0.1-0.4c0.7,0.1,2.6,0.3,2.5,0.5C40.9,49.9,39.1,49.7,38.4,49.5z"/>
		<path class="st1" d="M44.6,48.8c-0.1,0-0.1-0.4,0-0.4c0.5,0,1.9-0.1,1.9,0.2S45.1,48.8,44.6,48.8z"/>
		<path class="st1" d="M48.8,46.2c-0.1,0-0.1-0.4,0-0.4c0.5,0,1.9-0.1,1.9,0.1C50.7,46.2,49.3,46.2,48.8,46.2z"/>
		<path class="st1" d="M50.2,44.8c-0.1,0-0.1-0.4,0-0.4c0.4,0,1.6-0.1,1.6,0.2C51.8,44.9,50.7,44.9,50.2,44.8z"/>
		<path class="st1" d="M48.3,49.2c-0.2,0-0.1-0.4,0-0.4c0.7,0,2.6-0.1,2.6,0.2S49,49.3,48.3,49.2z"/>
		<path class="st1" d="M50.6,47.7c-0.1,0,0-0.4,0-0.4c0.5,0,1.8,0.1,1.8,0.4C52.4,48,51.1,47.8,50.6,47.7z"/>
		<path class="st1" d="M46.3,47.5c-0.1,0-0.1-0.4,0-0.4c0.4,0,1.3-0.1,1.3,0.2S46.6,47.5,46.3,47.5z"/>
		<path class="st1" d="M45.3,50.7c-0.1,0-0.1-0.4,0-0.4c0.6,0,2.4,0.1,2.4,0.4C47.7,50.9,45.9,50.8,45.3,50.7z"/>
		<path class="st1" d="M52.7,40.4c-0.2,0-0.1-0.4,0-0.4c0.8,0,3-0.1,3,0.2C55.7,40.4,53.5,40.4,52.7,40.4z"/>
		<path class="st1" d="M50.8,39.1c-0.1,0-0.1-0.4,0-0.4c0.5,0,1.8-0.1,1.8,0.2C52.7,39.1,51.3,39.1,50.8,39.1z"/>
		<path class="st1" d="M57.4,39.2c-0.1,0-0.1-0.4,0-0.4c0.4,0,1.4-0.1,1.4,0.2S57.8,39.2,57.4,39.2z"/>
		<path class="st1" d="M58.6,41c-0.1,0,0-0.4,0.1-0.4c0.4,0.1,1.7,0.3,1.6,0.6C60.2,41.5,59,41.1,58.6,41z"/>
		<path class="st1" d="M54.1,42.4c-0.1,0-0.1-0.4,0-0.4c0.6,0,2.1-0.1,2.1,0.2C56.2,42.5,54.7,42.5,54.1,42.4z"/>
		<path class="st1" d="M54.2,44.8c-0.1,0-0.1-0.4,0-0.4c0.4,0,1.6-0.1,1.6,0.2C55.8,44.9,54.6,44.9,54.2,44.8z"/>
		<path class="st1" d="M53.9,47.1c-0.1,0-0.1-0.4,0-0.4c0.5,0,2-0.1,2,0.2C55.9,47.1,54.5,47.1,53.9,47.1z"/>
		<path class="st1" d="M57.9,43.8c-0.2,0-0.1-0.4,0-0.4c0.7,0,2.5-0.1,2.5,0.2S58.6,43.8,57.9,43.8z"/>
		<path class="st1" d="M54.2,49.7c-0.2,0-0.1-0.4,0-0.4c0.8,0,3.1-0.1,3.1,0.2C57.3,49.7,55.1,49.7,54.2,49.7z"/>
		<path class="st1" d="M58.3,46.6c-0.1,0-0.1-0.4,0-0.4c0.4,0,1.7-0.1,1.7,0.2S58.8,46.7,58.3,46.6z"/>
		<path class="st1" d="M62,41.2c-0.1,0-0.1-0.4,0-0.4c0.6,0,2.1-0.1,2.1,0.2C64.1,41.3,62.6,41.3,62,41.2z"/>
		<path class="st1" d="M62.6,39.7c-0.2,0-0.1-0.4,0-0.4c0.7,0,2.5-0.1,2.5,0.2C65,39.8,63.2,39.7,62.6,39.7z"/>
		<path class="st1" d="M67.8,40.6c-0.1-0.1,0.1-0.4,0.2-0.4c0.4,0.2,1.7,0.7,1.6,0.9C69.4,41.4,68.2,40.8,67.8,40.6z"/>
		<path class="st1" d="M69.5,39.3c-0.1,0,0-0.4,0.1-0.4c0.6,0.1,2.1,0.2,2,0.5C71.5,39.6,70,39.4,69.5,39.3z"/>
		<path class="st1" d="M64.9,42.9c-0.1,0-0.1-0.4,0-0.4c0.5,0,1.8-0.1,1.8,0.1C66.8,42.9,65.4,42.9,64.9,42.9z"/>
		<path class="st1" d="M71.4,41.6c-0.1-0.1,0.1-0.4,0.2-0.4c0.6,0.2,2.2,0.8,2.1,1.1C73.5,42.5,72,41.8,71.4,41.6z"/>
		<path class="st1" d="M73.9,40.2c-0.1-0.1,0.2-0.4,0.2-0.4c0.4,0.2,1.5,0.8,1.3,1.1C75.3,41.2,74.2,40.5,73.9,40.2z"/>
		<path class="st1" d="M69.3,43.5c-0.1-0.1,0.1-0.4,0.2-0.4c0.5,0.2,1.8,0.7,1.7,0.9C71.1,44.3,69.8,43.7,69.3,43.5z"/>
		<path class="st1" d="M62.2,44.6c-0.1,0-0.1-0.4,0-0.4c0.6,0.1,2.3,0.2,2.3,0.5C64.5,44.9,62.8,44.7,62.2,44.6z"/>
		<path class="st1" d="M60.3,48.2c-0.1,0-0.1-0.4,0-0.4c0.4,0,1.7-0.1,1.7,0.2C61.9,48.3,60.7,48.2,60.3,48.2z"/>
		<path class="st1" d="M63.7,46.8c-0.1,0-0.1-0.4,0-0.4c0.6,0,2.2,0,2.1,0.3C65.9,46.9,64.3,46.9,63.7,46.8z"/>
		<path class="st1" d="M66.8,44.9c-0.2,0-0.1-0.4,0.1-0.4c0.8,0.1,3,0.4,2.9,0.7C69.7,45.5,67.6,45.1,66.8,44.9z"/>
		<path class="st1" d="M72.1,43.3c-0.1-0.1,0.1-0.4,0.2-0.4c0.5,0.3,1.9,1,1.7,1.2C73.9,44.4,72.6,43.6,72.1,43.3z"/>
		<path class="st1" d="M74.6,42.9c-0.1-0.1,0.2-0.4,0.2-0.3c0.4,0.3,1.5,1,1.4,1.2C76.1,44,75,43.2,74.6,42.9z"/>
	</g>
</g>
</svg>
