<?xml version="1.0" encoding="utf-8"?>
<!-- Generator: Adobe Illustrator 19.2.1, SVG Export Plug-In . SVG Version: 6.00 Build 0)  -->
<svg version="1.1" id="Layer_1" xmlns="http://www.w3.org/2000/svg" xmlns:xlink="http://www.w3.org/1999/xlink" x="0px" y="0px"
	 viewBox="0 0 38.8 52.9" style="enable-background:new 0 0 38.8 52.9;" xml:space="preserve">
<style type="text/css">
	.st0{fill:#929C9E;}
	.st1{fill:#59686B;}
	.st2{fill:#778184;}
	.st3{fill:#BAC4C6;}
	.st4{fill:#EA888A;}
	.st5{fill:#FFFFFF;}
	.st6{fill:#D88205;}
	.st7{fill:#FFBE4A;}
	.st8{fill:#FC9B00;}
	.st9{fill:#465051;}
</style>
<g>
	<path class="st0" d="M22.1,29.9c0.2,0,1.5-0.1,1.4-0.4c-0.1-0.4-1-0.4-1.4-0.4c-0.7,0.1-1.3,0.3-2,0.6c-1.2,0.6-2.3,1.5-3.1,2.5
		c-1.8,2.2-2.7,4.9-4.4,7.2c-1.3,1.7-3,3.1-5.2,3.3c-2.6,0.2-5.3-0.8-6.5-3.2c-0.6-1.2-0.3-2.9,1-3.5c0.6-0.3,1.3-0.2,1.8,0.3
		C4,36.5,4.2,36.7,4.3,37c0,0.1,0.1,0.9,0.1,0.9c0.1,0.1,0.2-0.5,0.2-0.6c0-0.3-0.1-0.6-0.2-0.8c-0.3-0.5-0.7-0.9-1.3-1.1
		C2,35,0.8,35.8,0.3,36.9c-1.1,2.2,0.7,4.6,2.6,5.7c1.8,1,3.9,1.3,5.9,0.8c2.8-0.8,4.6-3.2,5.9-5.6C16.5,34.7,18.2,30.5,22.1,29.9
		C22.6,29.9,21.5,30,22.1,29.9z"/>
	<path class="st1" d="M30.5,16.6c-1.6-0.9-1.3,0.2-0.6,2c0.6,1.3,2.1,4.3,0.9,6c-1,1.6-3.3,2.5-4.9,3.5c-0.3-0.2-0.5-0.4-0.8-0.7
		c-0.2-0.2-0.6-0.6-0.9-0.6c-0.9,0,0.2,1.5,0.5,1.7c-0.5,0.1-1,0.2-1.5,0.4c-0.3,0.1-0.7,0.2-0.9,0.5c-0.4,0.7,1.7,0.3,1.9,0.3
		c-0.2,0.2-1.3,1.2-0.4,1.3c0.6,0,1.2-0.5,1.6-1c0,0.2-0.1,0.6,0.1,0.8c0.3,0.3,0.7-0.1,0.8-0.4c0.2-0.4,0.2-0.8,0.2-1.1
		c0.4-0.2,0.8-0.4,1.2-0.7c1.5-0.9,3.5-1.8,4.4-3.3C33.8,22.8,31.6,17.2,30.5,16.6z"/>
	<path class="st1" d="M22.1,51.7c0.2,0.3,0,0.7-0.3,0.9c-0.3,0.2-0.7,0.2-1,0.3c-0.5,0.1-1.1,0.1-1.5-0.3c-0.4-0.4-0.3-1-0.3-1.5
		c0.3-3-0.2-14.4-0.5-17.4c0.6,0.1,1.1,0.1,1.7,0.2c0.1,2.2,0.7,12.9,0.5,15.1c0,0.6-0.1,1.2,0.1,1.8C21,51.2,21.9,51.4,22.1,51.7z"
		/>
	<path class="st1" d="M28.1,51.7c0.1,0.3-0.1,0.7-0.4,0.9c-0.3,0.2-0.7,0.2-1,0.3c-0.5,0.1-1.1,0.1-1.5-0.3c-0.3-0.4-0.2-1-0.1-1.6
		c0.6-3,1.3-14.5,1.3-17.4c0.6,0.1,1.1,0.1,1.7,0.2c-0.1,2.2-0.7,12.9-1,15.2c-0.1,0.6-0.2,1.2-0.1,1.8C27.1,51.2,28,51.4,28.1,51.7
		z"/>
	<path class="st2" d="M16.9,31.4c-1.1-5.7-1.4-11.5-0.9-17.3c0.2-3.2,0.7-6.5,3-8.8c0.9-0.9,2-1.6,3.3-1.7c2-0.2,4,1,5.2,2.7
		c1.2,1.7,1.7,3.7,2.1,5.7c1.5,7.3,1.7,12.3,0.2,19.7c-1,4.8-3.7,4.9-6.5,4.8C20.5,36.4,17.8,36.1,16.9,31.4z"/>
	<g>
		<path class="st3" d="M31.9,12.2c-0.2,0.2,0,0.2,0.1,0.1c0.2-0.2,0.4-0.5,0.7-0.7c0.1-0.1,0.2-0.1,0.2-0.2c0.1-0.1,0.2-0.1,0.3-0.2
			c0.2-0.1,0.4-0.2,0.6-0.3c0.2-0.1,0.4-0.2,0.5-0.2c0.2-0.1,0.3-0.1,0.5-0.2c0.3-0.1,0.4-0.1,0.4-0.2c0,0-0.2,0-0.5,0
			c-0.1,0-0.3,0.1-0.5,0.1c-0.2,0.1-0.4,0.1-0.6,0.2c-0.2,0.1-0.4,0.2-0.6,0.3c-0.1,0.1-0.2,0.1-0.3,0.2c-0.1,0.1-0.2,0.1-0.3,0.2
			C32.3,11.8,32,12,31.9,12.2z"/>
		<path class="st3" d="M32.4,12.5c-0.3,0.2-0.1,0.3,0.1,0.1c0.4-0.2,0.9-0.5,1.6-0.8c0.7-0.3,1.4-0.4,2.1-0.5c0.7-0.1,1.4,0,1.9,0
			c0.1,0,0.2,0,0.3,0c0.1,0,0.2,0,0.2,0c0.1,0,0.2,0,0.2,0c0,0-0.1,0-0.2-0.1c-0.1,0-0.1,0-0.2-0.1c-0.1,0-0.2,0-0.3-0.1
			c-0.5-0.1-1.2-0.1-1.9,0c-0.7,0.1-1.5,0.2-2.2,0.5C33.3,11.9,32.8,12.3,32.4,12.5z"/>
		<path class="st3" d="M32.9,13c-0.3,0.1-0.1,0.2,0.1,0.1c0.3-0.1,0.8-0.3,1.3-0.5c0.1,0,0.3-0.1,0.4-0.1c0.1,0,0.3-0.1,0.4-0.1
			c0.3-0.1,0.6-0.1,0.8-0.1c0.3,0,0.5,0,0.8-0.1c0.2,0,0.5,0,0.6,0c0.4,0,0.6,0,0.6,0c0,0-0.2-0.1-0.6-0.1c-0.2,0-0.4,0-0.7,0
			c-0.2,0-0.5,0-0.8,0c-0.3,0-0.6,0.1-0.8,0.1c-0.1,0-0.3,0.1-0.4,0.1c-0.1,0-0.3,0.1-0.4,0.1C33.7,12.7,33.2,12.9,32.9,13z"/>
	</g>
	<path class="st2" d="M25.2,5.7c1-6,4.9-6.2,6.9-4.9c1.7,1.1,2.9,4,1.9,5.8c-1.7,3-5,2.5-7.3,2.5C24.8,8.9,24.9,7.6,25.2,5.7z"/>
	<path class="st0" d="M26.1,6.5c0.6-3.9,3.3-4.8,4.6-3.9c1.1,0.7,1.9,2.6,1.2,3.8c-1.1,2-3.6,1.7-5.1,1.7C26.6,7.4,26.4,7,26.1,6.5z
		"/>
	<path class="st2" d="M27.4,18.2c-2.3,0.4-4.8,0.2-6.7-1c-2.2-1.3-3.7-3.8-3.7-6.3c0-2.5,1.4-5,3.6-6.3c1.5-0.9,3.6-1.3,5.2-0.4
		c1.4,0.8,2.1,2.5,2.8,4c0.7,1.5,1.7,3.1,3.3,3.5c0.7,0.2,1.5,0.1,2.2,0.2c0.7,0.1,1.5,0.5,1.6,1.2c0.1,0.7-0.5,1.3-1,1.7
		C32.5,16.5,30,17.7,27.4,18.2z"/>
	<path class="st4" d="M33.4,11.8c0.2,0,0.3,0,0.5,0.1c0.7,0.1,1.5,0.5,1.6,1.2c0.1,0.7-0.5,1.3-1,1.7c-0.1,0.1-0.3,0.2-0.4,0.3
		C33.5,14.2,33,13,33.4,11.8z"/>
	<path class="st3" d="M22.3,4.6c0,0-0.8,0.5-1.2,0.4c-0.3,0-0.3-0.3-0.1-0.4c0.2-0.1,0.6-0.2,0.6-0.2s-0.6-0.1-0.8-0.3
		c-0.1-0.1-0.3-0.2-0.2-0.3c0.1-0.1,0.2-0.1,0.3-0.1c0.3,0,0.7,0,1,0.1c-0.2-0.2-0.4-0.4-0.5-0.7c0-0.1,0-0.2,0-0.3
		c0.1-0.1,0.2-0.1,0.3-0.1c0.1,0,0.2,0.1,0.3,0.1c0.3,0.2,0.8,0.5,0.8,0.5s0.1-0.6,0.3-0.8c0.1-0.1,0.1-0.2,0.3-0.2
		c0.1,0,0.3,0.1,0.4,0.2C23.8,2.5,23.9,3,23.9,3s0.5-0.7,1-0.8c0.1,0,0.2,0,0.3,0c0.1,0.1,0.1,0.2,0.1,0.3c-0.1,0.3-0.4,0.7-0.4,0.7
		s0.8-0.3,1.2-0.4c0.2,0,0.4,0,0.5,0.1c0.1,0.1,0,0.3-0.1,0.4c-0.1,0.1-0.3,0.1-0.4,0.2c-0.2,0-0.5,0.1-0.5,0.1s0.4,0,0.6,0.1
		c0.1,0,0.2,0.1,0.1,0.2c0,0.1-0.1,0.1-0.2,0.1c-0.2,0-0.7,0-0.7,0s0.8,0.5,0.5,0.7c-0.3,0.3-1.7-0.4-1.7-0.4s0.3,0.4,0.1,0.6
		c-0.2,0.2-0.6-0.5-0.6-0.5s0,0.3,0,0.4c0,0.1-0.1,0.3-0.2,0.3c-0.1,0-0.3-0.1-0.3-0.2c-0.1-0.1,0-0.4,0-0.4s-0.2,0.3-0.4,0.3
		C22.6,5,22.4,5,22.3,5C22.1,4.9,22.3,4.6,22.3,4.6z"/>
	<path class="st4" d="M20.1,11.8c0.3-0.3,0.6-0.1,0.7,0.2c0,0.5-0.3,1.1-0.6,1.5c-0.4,0.4-0.8-0.2-1-0.5c-0.2-0.3-0.4-0.6-0.4-0.9
		c0-0.3,0.3-0.6,0.6-0.5C19.8,11.7,19.7,12.3,20.1,11.8z"/>
	<path class="st2" d="M19.5,5.6c-1-6-4.9-6.2-6.9-4.9c-1.7,1.1-2.9,4-1.9,5.8c1.7,3,5,2.5,7.3,2.5C20,8.8,19.9,7.5,19.5,5.6z"/>
	<path class="st0" d="M18.7,6.4c-0.6-3.9-3.3-4.8-4.6-3.9C13,3.2,12.2,5,12.8,6.2c1.1,2,3.6,1.7,5.1,1.7C18.2,7.3,18.4,6.9,18.7,6.4
		z"/>
	<g>
		<path class="st5" d="M20.4,9.5c-0.2,0-0.4,0-0.6-0.1c-0.2-0.1-0.4-0.3-0.5-0.5c-0.1-0.2,0-0.5,0.1-0.7C19.5,8,19.8,7.8,20,7.8
			c0.3,0,0.6,0.1,0.8,0.3c0.2,0.2,0.3,0.5,0.2,0.8C21,9.2,20.7,9.5,20.4,9.5z"/>
		<path d="M20.3,9.1c-0.1,0-0.2,0-0.3,0c-0.2,0-0.3-0.2-0.4-0.4c0-0.2,0.1-0.4,0.2-0.5s0.4-0.1,0.5,0c0.1,0.1,0.1,0.2,0.2,0.4
			c0,0.1,0,0.2,0,0.3C20.5,9,20.4,9.1,20.3,9.1z"/>
		<path class="st2" d="M28.3,8.8c-0.2,0-0.5-0.1-0.7-0.2c-0.3-0.1-0.5-0.3-0.7-0.6c-0.1-0.3-0.1-0.6,0.1-0.9
			c0.2-0.2,0.5-0.4,0.8-0.4c0.4,0,0.7,0.1,1,0.4c0.2,0.3,0.3,0.7,0.2,1C29,8.5,28.7,8.8,28.3,8.8z"/>
		<path class="st5" d="M28.3,8.6c-0.2,0-0.4,0-0.6-0.1c-0.2-0.1-0.4-0.3-0.5-0.5c-0.1-0.2,0-0.5,0.1-0.7C27.4,7.1,27.7,7,27.9,7
			c0.3,0,0.6,0.1,0.8,0.3c0.2,0.2,0.3,0.5,0.2,0.8C28.8,8.4,28.6,8.6,28.3,8.6z"/>
		<path d="M28,8.4c-0.1,0-0.2,0-0.2,0c-0.1,0-0.3-0.2-0.3-0.3c0-0.1,0-0.3,0.2-0.4c0.1-0.1,0.3-0.1,0.4,0c0.1,0.1,0.1,0.2,0.1,0.3
			c0,0.1,0,0.2,0,0.2C28.2,8.3,28.1,8.3,28,8.4z"/>
	</g>
	<path class="st0" d="M26.5,33.5c-0.5,0.3-1.1,0.3-1.7,0.3c-1-0.1-2.1-0.3-2.9-0.9c-0.9-0.7-1.4-1.9-1.7-3c-0.4-1.4-0.5-3-0.4-4.4
		c0.1-1.4,0.5-2.8,1.6-3.6c1-0.7,2.3-0.7,3.5-0.8c1.3,0,2.7,0.1,3.6,1.1c0.4,0.5,0.6,1.3,0.6,1.9c0,0.7-0.1,1.4-0.3,2.1
		c-0.4,2-0.5,4-1.3,5.9C27.3,32.6,27,33.2,26.5,33.5z"/>
	<g>
		<path class="st6" d="M26.8,20.6l2.3,8.2l-9,2.5c-1.1,0.3-2.2-0.3-2.5-1.4l-1.3-4.7c-0.3-1.1,0.7-3.4,1.8-3.7L26.8,20.6z"/>
		<path class="st7" d="M26.8,20.6l2.3,8.2l-9,2.5c-1.1,0.3-2.2-0.3-2.5-1.4l-1.2-4.3c-0.3-1.1,0.3-2.2,1.4-2.5L26.8,20.6z"/>
		<g>
			<path class="st8" d="M26.1,22.7c0,0.2-0.1,0.3-0.2,0.4c-0.1,0.1-0.3,0.2-0.4,0.2c-0.2,0-0.5-0.1-0.6-0.3
				c-0.1-0.1-0.2-0.3-0.2-0.5c0-0.2,0.1-0.4,0.3-0.5c0.2-0.1,0.4-0.1,0.5-0.1c0.2,0.1,0.3,0.2,0.4,0.3C26,22.4,26.1,22.5,26.1,22.7z
				"/>
			<path class="st8" d="M20.3,28.3c0,0.2-0.1,0.3-0.2,0.4c-0.1,0.1-0.3,0.2-0.4,0.2c-0.2,0-0.4-0.1-0.5-0.3C19,28.5,19,28.4,19,28.2
				c0-0.2,0.2-0.4,0.3-0.5c0.2-0.1,0.4-0.1,0.5-0.1c0.2,0,0.3,0.2,0.4,0.3C20.3,28,20.3,28.2,20.3,28.3z"/>
			<path class="st8" d="M21.8,26c-0.3-0.2-0.5-0.5-0.5-0.8c0-0.3,0.1-0.7,0.3-0.9c0.2-0.2,0.6-0.3,0.9-0.2c0.2,0.1,0.4,0.3,0.5,0.5
				c0.1,0.2,0.2,0.4,0.2,0.7c0,0.3-0.2,0.7-0.6,0.8C22.5,26.3,22.1,26.2,21.8,26z"/>
			<path class="st8" d="M18.7,24.7c-0.1-0.1-0.1-0.2,0-0.3c0.1-0.2,0.2-0.3,0.4-0.3c0.2,0,0.3,0.2,0.3,0.3c0,0.2-0.1,0.3-0.2,0.4
				C18.9,24.9,18.7,24.9,18.7,24.7z"/>
			<path class="st8" d="M22.9,28.7c-0.1-0.1-0.1-0.2,0-0.3c0.1-0.2,0.2-0.3,0.4-0.3c0.2,0,0.3,0.2,0.3,0.3c0,0.2-0.1,0.3-0.2,0.4
				C23.2,28.9,23,28.9,22.9,28.7z"/>
			<path class="st8" d="M25.9,26.9c-0.1-0.1-0.1-0.2,0-0.3c0.1-0.2,0.2-0.3,0.4-0.3c0.2,0,0.3,0.2,0.3,0.3c0,0.2-0.1,0.3-0.2,0.4
				C26.1,27.1,26,27.1,25.9,26.9z"/>
		</g>
	</g>
	<path class="st1" d="M15.5,16.8c0.8-1.7,1.8-1.1,1.5,0.2c-0.3,1.4-3.1,7-1.1,7.7c1.8,0.7,3.8,0.6,5.6,0.5c0.1-0.3,0.2-0.7,0.3-1
		c0.1-0.3,0.1-0.8,0.4-1.1c0.7-0.6,0.7,1.3,0.6,1.6c0.5-0.2,0.9-0.4,1.4-0.5c0.3-0.1,0.7-0.2,1-0.1c0.7,0.3-1.2,1.3-1.4,1.3
		c0.3,0,1.8,0.2,1.1,0.8c-0.5,0.4-1.3,0.3-1.8,0.1c0.2,0.2,0.4,0.5,0.4,0.7c-0.1,0.4-0.6,0.3-0.9,0.2c-0.3-0.2-0.6-0.5-0.9-0.8
		c-0.4,0.1-0.9,0.1-1.3,0.1c-1.7,0.1-3.5,0.1-5.2-0.6C12.4,24.9,15,17.9,15.5,16.8z"/>
	<path class="st1" d="M22.3,29.3c0.2-0.3,0.6-0.4,0.9-0.5c0.5-0.2,1-0.3,1.5-0.4c-0.2-0.2-1.4-1.7-0.5-1.7c0.4,0,0.7,0.4,0.9,0.6
		c0.3,0.2,0.5,0.5,0.8,0.7c1.6-1,3.9-1.9,4.9-3.5c0.1-0.2,0.2-0.4,0.3-0.6c0.5,0.2,0.9,0.6,1.2,1.1c0,0,0,0.1-0.1,0.1
		c-0.9,1.5-3,2.4-4.4,3.3c-0.4,0.2-0.8,0.5-1.2,0.7c0,0.4-0.1,0.8-0.2,1.1c-0.1,0.3-0.5,0.7-0.8,0.4c-0.2-0.2-0.2-0.6-0.1-0.8
		c-0.3,0.5-1,1-1.6,1c-0.9,0,0.2-1.1,0.4-1.3C24.1,29.7,22,30,22.3,29.3z"/>
	<path class="st9" d="M22.4,13.6c0.1,0,0.1,0.1,0.2,0.3c0.1,0.1,0.1,0.2,0.2,0.3c0.1,0.1,0.2,0.3,0.3,0.4c0.4,0.6,1,1.4,1.9,2
		c0.9,0.6,2,1,3,1.1c0.5,0,1,0,1.4-0.1c-0.7,0.2-1.4,0.4-2.2,0.6c-0.1,0-0.2,0-0.3,0c-0.9-0.2-1.7-0.6-2.4-1.1
		c-1-0.7-1.6-1.6-1.9-2.3c-0.1-0.2-0.1-0.3-0.2-0.5c-0.1-0.1-0.1-0.3-0.1-0.4C22.4,13.7,22.4,13.6,22.4,13.6z"/>
	<g>
		<path class="st3" d="M30.4,13.6c0.4,0,0.3-0.2,0-0.2c-0.5,0-1.2,0.2-1.8,0.6c-0.2,0.1-0.3,0.2-0.5,0.3c-0.2,0.1-0.3,0.2-0.5,0.4
			l-0.2,0.2c-0.1,0.1-0.1,0.1-0.2,0.2c-0.1,0.1-0.3,0.3-0.4,0.4c-0.1,0.1-0.3,0.3-0.4,0.4c-0.1,0.1-0.2,0.3-0.3,0.4
			c-0.2,0.3-0.4,0.5-0.5,0.7c-0.3,0.4-0.5,0.7-0.5,0.7c0,0,0.2-0.2,0.6-0.6c0.2-0.2,0.4-0.4,0.6-0.7c0.1-0.1,0.2-0.3,0.3-0.4
			c0.1-0.1,0.2-0.3,0.4-0.4c0.1-0.1,0.3-0.3,0.4-0.4c0.1-0.1,0.1-0.1,0.2-0.2l0.2-0.2c0.2-0.1,0.3-0.2,0.5-0.3
			c0.2-0.1,0.3-0.2,0.5-0.3C29.3,13.8,29.9,13.6,30.4,13.6z"/>
		<path class="st3" d="M30.9,14.1c0.3-0.3,0.1-0.3-0.1-0.1c-0.4,0.3-0.8,0.8-1.3,1.3c-0.1,0.1-0.2,0.3-0.4,0.4
			c-0.1,0.2-0.2,0.3-0.4,0.5l-0.2,0.2c-0.1,0.1-0.1,0.2-0.2,0.2c-0.1,0.2-0.2,0.3-0.3,0.5c-0.1,0.2-0.2,0.3-0.3,0.5
			c-0.1,0.2-0.2,0.3-0.2,0.5c-0.1,0.3-0.3,0.6-0.4,0.8c-0.2,0.5-0.3,0.8-0.3,0.8c0,0,0.2-0.3,0.4-0.7c0.1-0.2,0.3-0.5,0.4-0.8
			c0.1-0.1,0.2-0.3,0.3-0.4c0.1-0.2,0.2-0.3,0.3-0.5c0.1-0.2,0.2-0.3,0.3-0.5c0.1-0.1,0.1-0.2,0.2-0.2l0.2-0.2
			c0.1-0.2,0.2-0.3,0.3-0.5c0.1-0.1,0.2-0.3,0.4-0.4C30.1,14.8,30.6,14.4,30.9,14.1z"/>
		<path class="st3" d="M31.5,14.6c0.2-0.3,0-0.3-0.1-0.1c-0.2,0.4-0.5,0.9-0.8,1.5c-0.1,0.2-0.1,0.3-0.2,0.5
			c-0.1,0.2-0.1,0.3-0.2,0.5l-0.1,0.2c0,0.1,0,0.2-0.1,0.3c0,0.2-0.1,0.3-0.1,0.5c0,0.2-0.1,0.3-0.1,0.5c0,0.2-0.1,0.3-0.1,0.5
			c0,0.3-0.1,0.6-0.1,0.8c0,0.5,0,0.7,0,0.7c0,0,0.1-0.3,0.1-0.7c0-0.2,0.1-0.5,0.1-0.8c0-0.1,0.1-0.3,0.1-0.5
			c0-0.2,0.1-0.3,0.1-0.5c0-0.2,0.1-0.3,0.1-0.5c0-0.1,0-0.2,0.1-0.2l0.1-0.2c0.1-0.2,0.1-0.3,0.2-0.5c0.1-0.2,0.1-0.3,0.2-0.5
			C31,15.5,31.3,15,31.5,14.6z"/>
	</g>
</g>
</svg>
