<?xml version="1.0" encoding="utf-8"?>
<!-- Generator: Adobe Illustrator 19.2.1, SVG Export Plug-In . SVG Version: 6.00 Build 0)  -->
<svg version="1.1" id="Layer_1" xmlns="http://www.w3.org/2000/svg" xmlns:xlink="http://www.w3.org/1999/xlink" x="0px" y="0px"
	 viewBox="0 0 73.2 69.9" style="enable-background:new 0 0 73.2 69.9;" xml:space="preserve">
<style type="text/css">
	.st0{fill:#EA8879;}
	.st1{fill:#E0665A;}
	.st2{fill:#5E5E5E;}
	.st3{fill:#FCC0BB;}
	.st4{fill:#FFFFFF;}
	.st5{fill:#FCAD9A;}
	.st6{fill:#D3433C;}
</style>
<g>
	<path class="st0" d="M66.6,28.2c-0.4,0-0.7-0.2-0.8-0.3c-0.2-0.3,0.1-0.6,0.3-0.8c0.3-0.2,0.7-0.1,1-0.3c0.8-0.2,1.3-0.9,1.6-1.6
		c0.3-0.7,0.4-1.6,0.3-2.4c-0.1-0.5-0.6-1.8-1.3-1.1c-0.6,0.6,0.1,1.5,0.5,2c0.4,0.6,1.1,1.1,1.8,1c0.8,0,1.5-0.6,2-1.2
		c0.2-0.2,0.9-1.4,1.2-1.3c0.2,0.1,0,0.8-0.1,0.9c-0.2,0.5-0.4,1-0.7,1.4c-0.5,0.7-1.4,1.3-2.3,1.4c-1,0.1-1.9-0.4-2.7-1.1
		c-0.7-0.7-1.4-1.7-1.3-2.7c0.1-1,0.9-1.9,2-1.9c1,0,1.8,0.7,2.1,1.6c0.7,1.9,0.1,4.6-1.6,5.8C68,28,67.3,28.2,66.6,28.2
		C66.2,28.2,67.4,28.2,66.6,28.2z"/>
	<path class="st1" d="M41.5,41.2c5.7,6.8,5.6,15.6,4.5,22.1c0,0.2-0.1,0.8-0.1,0.8l3.5,0.3c0,0,0-0.4,0.1-0.8
		c0.8-6.7,3.6-13.5,4.1-20C52.3,43.5,42.6,41.2,41.5,41.2z"/>
	<polygon points="45.3,68 46.4,68 46.9,65.5 46.4,65.4 	"/>
	<path class="st2" d="M46,63.3c0.9,1.1,2.5,1.1,3.5,0.3c0.6,0.7,1.3,3.2,1.3,3.2s-1.5,2.7-4.8,1.6c0-0.3,0.5-2.6,0.5-2.6L45.3,68
		c0,0-1-0.3-1.1-1.3C44.4,66,45,64.3,46,63.3z"/>
	<path class="st1" d="M13.8,41.6c5.7,6.8,5.6,15.6,4.5,22.1c0,0.2-0.1,0.8-0.1,0.8l3.5,0.3c0,0,0-0.4,0.1-0.8
		c0.8-6.7,3.6-13.5,4.1-20C24.6,43.9,14.9,41.6,13.8,41.6z"/>
	<path class="st1" d="M13.3,13.9c1.3-0.6,2.6-1.2,3.6-2.2c1-1,1.5-2.6,1-3.9c-0.3-0.6-0.7-1.1-1.3-1.5C14.8,5,12.4,5,10.3,5.2
		C8.2,5.3,6.3,5.6,4.7,5c-2-0.8,0.8,3.6,2,5.1c0.8,1,1.7,2.1,2.8,2.9C10.6,13.8,12,14.2,13.3,13.9z"/>
	<path class="st0" d="M48.5,12C44,10.5,34.5,8.7,30.4,8.2c-3.1-0.3-6.3-0.5-9.4,0.1c-3.1,0.6-6.1,2-8.2,4.3c-1.6,1.8-2.5,4-2.9,6.3
		c-2.1,2.2-5.2,2.1-7.3,4.8c-1.4,1.8-4.5,2.2,2,10.6c-3.4,2.8-0.5,4.3,1.4,4.3s3.9,1.7,4.5,2.7c11.8,20,48.3,12.9,51.6,9.6
		c3.3-3.3,5.1-5.7,5.7-11.1C68.4,34,70.6,19.9,48.5,12z"/>
	<path class="st3" d="M4.1,21.9c-1.3,0.2-2.1,1.2-2.8,2.3c-0.8,1.1-1.4,2.2-1.2,3.5c0.1,0.5,0.3,1,0.6,1.3c0.3,0.3,0.8,0.5,1.2,0.7
		c1.6,0.5,3.3,0.5,5,0.4c0.8,0,1.8-0.1,2.4-0.7c0.4-0.3,0.5-0.8,0.6-1.3c0.4-1.6-0.7-3-1.8-4.2C6.9,22.7,5.7,21.6,4.1,21.9z"/>
	<g>
		<path class="st4" d="M25.1,17c-0.3,0.1-0.5,0.3-0.7,0.5c-0.2,0.3-0.3,0.7-0.4,1c-0.1,0.5-0.2,1.2,0.2,1.6c0.3,0.4,0.7,0.5,1.2,0.6
			c0.6,0.1,1.3,0.1,1.7-0.4c0.3-0.3,0.3-0.8,0.3-1.2c0-0.5,0-1-0.2-1.4C26.8,17.1,25.8,16.7,25.1,17z"/>
		<path d="M25.9,18.3c-0.1,0-0.3,0.1-0.4,0.2c-0.1,0.1-0.1,0.3-0.1,0.4c0,0.2,0,0.4,0,0.6c0.1,0.2,0.2,0.4,0.4,0.5
			c0.2,0.1,0.5,0.1,0.7,0c0.3-0.3,0.5-0.7,0.3-1.1C26.7,18.5,26.3,18.2,25.9,18.3z"/>
		<path class="st0" d="M10,14.7c-0.4,0.1-0.7,0.4-0.9,0.7c-0.3,0.4-0.4,0.8-0.5,1.3c-0.1,0.7-0.2,1.5,0.2,2c0.3,0.5,0.9,0.7,1.5,0.8
			c0.7,0.1,1.6,0.1,2.1-0.5c0.3-0.4,0.4-1,0.4-1.5c0-0.6,0-1.2-0.3-1.8C12.1,14.9,10.9,14.4,10,14.7z"/>
		<path class="st4" d="M10.1,15.2c-0.3,0.1-0.5,0.3-0.7,0.5c-0.2,0.3-0.3,0.7-0.4,1c-0.1,0.5-0.2,1.2,0.2,1.6
			c0.3,0.4,0.7,0.5,1.2,0.6c0.6,0.1,1.3,0.1,1.7-0.4c0.3-0.3,0.3-0.8,0.3-1.2c0-0.5,0-1-0.2-1.4C11.8,15.3,10.9,15,10.1,15.2z"/>
		<path d="M10.9,16.5c-0.1,0-0.3,0.1-0.4,0.2c-0.1,0.1-0.1,0.3-0.1,0.4c0,0.2,0,0.4,0,0.6c0.1,0.2,0.2,0.4,0.4,0.5
			c0.2,0.1,0.5,0.1,0.7,0c0.3-0.3,0.5-0.7,0.3-1.1C11.7,16.7,11.3,16.4,10.9,16.5z"/>
	</g>
	<path class="st1" d="M8.1,27.8c-0.2-1-0.8-1.9-1.3-2.8c-0.1-0.2-0.3-0.5-0.5-0.6c-0.2-0.1-0.8-0.4-0.8,0c0.1,0.4,0.7,2.8,1.5,3.9
		c0.2,0.2,0.4,0.5,0.7,0.4c0.2,0,0.3-0.2,0.4-0.4C8.2,28.2,8.1,27.9,8.1,27.8z"/>
	<path class="st1" d="M3.5,25c0.1-0.2,0.1-0.5,0-0.7c-0.1-0.1-0.4-0.2-0.5-0.1c-0.2,0.1-0.3,0.2-0.4,0.3c-0.5,0.5-0.9,1-1.1,1.6
		c-0.3,0.6-0.8,1.8-0.2,1.9c0.6,0.2,1.3-0.6,1.6-1.2C3.1,26.3,3.3,25.6,3.5,25z"/>
	<g>
		<path class="st5" d="M49.1,24.9c0.7,0.4,1.6,0.8,2.4,0.8c0.4,0,0.4-0.4,0.3-0.8c-0.1-0.4-0.4-0.8-0.7-1c-0.5-0.4-1.1-0.8-1.7-0.9
			c-0.6-0.1-1.3,0.1-1.3,0.7C48.1,24.1,48.6,24.6,49.1,24.9C49.3,25,48.6,24.6,49.1,24.9z"/>
		<path class="st5" d="M61.9,35.2c0.7,0.4,1.6,0.8,2.4,0.8c0.4,0,0.4-0.4,0.3-0.8c-0.1-0.4-0.4-0.8-0.7-1c-0.5-0.4-1.1-0.8-1.7-0.9
			c-0.6-0.1-1.3,0.1-1.3,0.7C60.9,34.4,61.3,34.9,61.9,35.2C62.1,35.3,61.3,34.9,61.9,35.2z"/>
		<path class="st5" d="M49.6,21c0-0.2-0.1-0.5-0.3-0.7c-0.2-0.2-0.4-0.4-0.6-0.6c-0.2-0.1-0.4-0.2-0.5-0.3c-0.2-0.1-0.4-0.1-0.6-0.1
			c-0.2,0-0.4,0-0.6,0.1c-0.2,0.1-0.3,0.2-0.2,0.5c0.2,0.5,1.9,1.7,2.5,1.6C49.5,21.4,49.6,21.2,49.6,21
			C49.6,20.8,49.6,21.2,49.6,21z"/>
		<path class="st5" d="M47,21.9c-0.1-0.3-0.5-0.5-0.8-0.6c-0.3-0.1-0.6-0.2-0.9-0.1c-0.1,0-0.3,0.2-0.5,0.4
			c-0.1,0.2-0.2,0.5-0.1,0.7c0,0.1,0.1,0.2,0.2,0.3c0.1,0.1,0.1,0.1,0.2,0.1c0.3,0.1,0.7,0.2,1,0.2c0.2,0,0.3,0,0.5-0.1
			C46.9,22.7,47.1,22.3,47,21.9C46.9,21.6,47.1,22.3,47,21.9z"/>
		<path class="st5" d="M60.8,21.3c-0.1-0.1-0.2-0.2-0.4-0.3c-0.4-0.2-0.9-0.4-1.4-0.3c-0.2,0-0.4,0.1-0.6,0.3
			c-0.2,0.2-0.3,0.4-0.2,0.7c0.1,0.3,0.3,0.4,0.5,0.5c0.2,0.1,0.4,0.1,0.6,0.1c0.4,0.1,0.8,0.1,1.2-0.1C60.9,22,61,21.6,60.8,21.3
			C60.7,21.1,61,21.6,60.8,21.3z"/>
		<path class="st5" d="M47.7,17.1c0.3-0.2,0.3-0.6,0-0.9c-0.1-0.2-0.3-0.3-0.5-0.4c-0.7-0.3-1.4-0.4-2.2-0.5c-0.5-0.1-1.1,0-1.3,0.2
			c-0.3,0.2-0.2,0.4,0.6,0.7c0.9,0.3,1.8,0.8,2.6,1C47.2,17.2,47.5,17.2,47.7,17.1C48,16.9,47.5,17.2,47.7,17.1z"/>
		<path class="st5" d="M40.1,17.7c0.8,0.3,1.5,0.6,2.4,0.7c0.4,0.1,0.5-0.2,0.5-0.5c0-0.3-0.3-0.7-0.5-0.9c-0.4-0.5-1.2-0.7-1.9-0.8
			c-0.3,0-0.6-0.1-0.8-0.1c-0.3,0-0.5,0.1-0.6,0.3C39,16.7,39,17,39.3,17.2C39.5,17.4,39.8,17.6,40.1,17.7
			C40.8,18,39.9,17.6,40.1,17.7z"/>
		<path class="st5" d="M53.9,31.1c0.5,0.4,1.1,0.7,1.7,0.9c0.3,0.1,0.4,0,0.5-0.3c0-0.2-0.1-0.6-0.2-0.8c-0.3-0.4-0.8-0.7-1.3-0.9
			c-0.2-0.1-0.4-0.1-0.6-0.2c-0.2,0-0.4,0-0.5,0.1c-0.2,0.1-0.1,0.4,0,0.6C53.5,30.8,53.7,30.9,53.9,31.1
			C54.4,31.4,53.8,31,53.9,31.1z"/>
		<path class="st5" d="M54.1,18c0.7,0.4,1.4,0.7,2.1,0.9c0.4,0.1,0.4-0.2,0.4-0.5c-0.1-0.3-0.3-0.7-0.5-0.9c-0.5-0.6-1.5-1-2.3-1
			c-0.2,0-0.4,0-0.6,0.2c-0.2,0.2-0.1,0.5,0.1,0.7C53.6,17.7,53.9,17.9,54.1,18C54.8,18.5,53.9,17.9,54.1,18z"/>
		<path class="st5" d="M41,11.2c-0.8-0.1-1.7-0.1-2.4,0.3c-0.3,0.2-0.4,0.4-0.1,0.5c0.8,0.4,1.8,0.4,2.6,0.6
			c0.8,0.2,1.8,0.6,2.6,0.5c0.7,0,0.5-0.5,0.2-0.9c-0.1-0.2-0.3-0.3-0.5-0.5C42.6,11.4,41.8,11.3,41,11.2
			C40.7,11.2,41.2,11.2,41,11.2z"/>
		<path class="st5" d="M49.3,26.5c-0.6-0.1-1.6-0.3-2.2,0c-0.1,0.1-0.3,0.3-0.4,0.5c-0.1,0.2,0,0.4,0.4,0.5c1.2,0.2,2.6,0.9,3.8,0.8
			c0.7,0,0.3-0.7,0-1C50.5,26.8,49.8,26.6,49.3,26.5C48.8,26.4,49.5,26.5,49.3,26.5z"/>
		<path class="st5" d="M54.7,20c-0.4-0.2-1.2-0.5-1.6-0.4c-0.2,0.1-0.8,0.7-0.2,1c0.8,0.4,2,1.3,3,1.2c0.6-0.1,0.3-0.7,0-1.1
			C55.6,20.4,55.2,20.2,54.7,20C54.4,19.9,55.2,20.2,54.7,20z"/>
		<path class="st5" d="M57.9,30.3c0.7,0.4,1.6,0.8,2.4,0.8c0.4,0,0.4-0.4,0.3-0.8c-0.1-0.4-0.4-0.8-0.7-1c-0.5-0.4-1.1-0.8-1.7-0.9
			c-0.6-0.1-1.3,0.1-1.3,0.7C56.9,29.6,57.3,30,57.9,30.3C58.1,30.4,57.3,30,57.9,30.3z"/>
		<path class="st5" d="M58.3,26.5c0-0.2-0.1-0.5-0.3-0.7c-0.2-0.2-0.4-0.4-0.6-0.6c-0.2-0.1-0.4-0.2-0.5-0.3
			c-0.2-0.1-0.4-0.1-0.6-0.1c-0.2,0-0.4,0-0.6,0.1c-0.2,0.1-0.3,0.2-0.2,0.5c0.2,0.5,1.9,1.7,2.5,1.6C58.2,26.9,58.3,26.7,58.3,26.5
			C58.3,26.2,58.3,26.7,58.3,26.5z"/>
		<path class="st5" d="M55.8,27.4c-0.1-0.3-0.5-0.5-0.8-0.6c-0.3-0.1-0.6-0.2-0.9-0.1c-0.1,0-0.3,0.2-0.5,0.4
			c-0.1,0.2-0.2,0.5-0.1,0.7c0,0.1,0.1,0.2,0.2,0.3c0.1,0.1,0.1,0.1,0.2,0.1c0.3,0.1,0.7,0.2,1,0.2c0.2,0,0.3,0,0.5-0.1
			C55.7,28.1,55.9,27.7,55.8,27.4C55.6,27.1,55.9,27.7,55.8,27.4z"/>
		<path class="st5" d="M59.5,33.9c-0.1-0.1-0.2-0.2-0.4-0.3c-0.4-0.2-0.9-0.4-1.4-0.3c-0.2,0-0.4,0.1-0.6,0.3
			C57,33.8,56.9,34,57,34.3c0.1,0.3,0.3,0.4,0.5,0.5c0.2,0.1,0.4,0.1,0.6,0.1c0.4,0.1,0.8,0.1,1.2-0.1
			C59.6,34.6,59.7,34.2,59.5,33.9C59.4,33.8,59.7,34.2,59.5,33.9z"/>
		<path class="st5" d="M44.8,24.5c-0.1-0.1-0.2-0.2-0.4-0.3C44,24,43.5,23.9,43,23.9c-0.2,0-0.4,0.1-0.6,0.3
			c-0.2,0.2-0.3,0.4-0.2,0.7c0.1,0.3,0.3,0.4,0.5,0.5c0.2,0.1,0.4,0.1,0.6,0.1c0.4,0.1,0.8,0.1,1.2-0.1
			C44.8,25.3,44.9,24.8,44.8,24.5C44.7,24.4,44.9,24.8,44.8,24.5z"/>
		<path class="st5" d="M63.9,30.8c0.7,0.4,1.4,0.7,2.1,0.9c0.4,0.1,0.4-0.2,0.4-0.5c-0.1-0.3-0.3-0.7-0.5-0.9c-0.5-0.6-1.5-1-2.3-1
			c-0.2,0-0.4,0-0.6,0.2c-0.2,0.2-0.1,0.5,0.1,0.7C63.4,30.4,63.6,30.6,63.9,30.8C64.6,31.2,63.6,30.6,63.9,30.8z"/>
		<path class="st5" d="M63.5,25.5c-0.4-0.2-1.2-0.5-1.6-0.4c-0.2,0.1-0.8,0.7-0.2,1c0.8,0.4,2,1.3,3,1.2c0.6-0.1,0.3-0.7,0-1.1
			C64.4,25.9,63.9,25.6,63.5,25.5C63.1,25.3,63.9,25.6,63.5,25.5z"/>
		<path class="st5" d="M43,20.7c0-0.2-0.1-0.3-0.2-0.4c-0.5-0.4-1.7-0.7-2.3-0.6c-0.6,0.1-0.7,0.9-0.1,0.9c0.7,0,1.2,0.6,2,0.6
			C42.6,21.1,42.9,21,43,20.7C43,20.5,42.9,21,43,20.7z"/>
		<path class="st5" d="M52.2,15.6c0-0.2-0.2-0.3-0.4-0.5c-0.8-0.5-2.1-1-3-0.9c-0.4,0-0.6,0.2-0.6,0.4c0,0.2,0.2,0.4,0.6,0.5
			c1,0.1,1.7,0.9,2.6,1C51.9,16,52.2,15.9,52.2,15.6C52.2,15.4,52.2,15.9,52.2,15.6z"/>
	</g>
	<path class="st6" d="M12.4,34.5c0.8,0.2,1.5,0.4,2.4,0.4c0.2,0,0.4,0,0.6,0.1c0.2,0,0.4,0,0.6,0c0.4,0,0.8,0,1.2,0
		c0.8,0,1.6,0,2.4-0.2c0.8-0.1,1.6-0.3,2.3-0.7c0.2-0.1,0.4-0.2,0.5-0.3c0.2-0.1,0.3-0.2,0.5-0.3c0.3-0.2,0.6-0.5,0.8-0.7
		c0.5-0.5,0.9-1.1,1.2-1.6c0.3-0.6,0.5-1.1,0.6-1.7c0.2-1.1,0.2-2,0-2.5c0-0.1-0.1-0.3-0.1-0.4c0-0.1-0.1-0.2-0.1-0.3
		c-0.1-0.1-0.1-0.2-0.2-0.2c0,0-0.1,0.1-0.1,0.3c0,0.1,0,0.2,0,0.3c0,0.1,0,0.2,0,0.4c0,0.5-0.1,1.3-0.4,2.2
		c-0.1,0.4-0.4,0.9-0.6,1.4c-0.3,0.5-0.6,0.9-1.1,1.3c-0.2,0.2-0.5,0.4-0.7,0.6c-0.1,0.1-0.3,0.2-0.4,0.2c-0.1,0.1-0.3,0.1-0.4,0.2
		c-0.6,0.3-1.3,0.4-2,0.5c-0.7,0.1-1.4,0.1-2.2,0.1c-0.4,0-0.8,0-1.1,0c-0.2,0-0.4,0-0.6,0c-0.2,0-0.4,0-0.5,0
		c-1.5-0.2-2.9-0.6-4.5-0.9c-0.4-0.1-0.8-0.1-1.1-0.1c-0.2,0-0.4,0-0.6,0c-0.2,0-0.4,0-0.6,0c-0.4,0-0.7,0-1.1,0c-0.2,0-0.3,0-0.5,0
		c-0.1,0-0.2,0-0.3,0c-0.1,0-0.2,0-0.2,0c-0.7,0.1-1.3,0.3-1.8,0.4c-0.2,0-0.3,0.1-0.5,0.1c0.2,0.3,0.5,0.7,0.8,1.1
		C5.1,34.2,5.7,34,6.3,34c1.2-0.2,2.5-0.2,3.9,0.1C10.9,34.1,11.7,34.3,12.4,34.5z"/>
	<path class="st0" d="M33.6,12.2c-1.4,0.1-2.9,0.1-4.2-0.4c-1.3-0.5-2.5-1.6-2.7-3c-0.1-0.7,0.1-1.4,0.5-2c1-1.9,3-3,5-3.8
		c2-0.9,3.8-1.4,4.9-2.7c1.4-1.6,1,3.5,0.6,5.5c-0.3,1.3-0.6,2.6-1.2,3.8C35.9,10.8,34.9,11.9,33.6,12.2z"/>
	<path class="st1" d="M28.8,10.4c-0.2-0.7,0-1.4,0.3-2c0.6-1.1,1.6-1.8,2.6-2.4c1.1-0.6,2.2-0.9,3.3-1.5c0.2-0.1,0.4-0.2,0.6-0.1
		c0.2,0.1,0.2,0.4,0.2,0.7c-0.1,0.6-0.2,1.3-0.3,1.9c-0.2,1.1-0.5,2.3-1.2,3.3c-0.7,1-1.7,1.7-2.8,1.8
		C30.3,12.2,29.1,11.5,28.8,10.4z"/>
	<polygon points="17.7,68.4 18.7,68.4 19.2,65.9 18.7,65.8 	"/>
	<path class="st2" d="M18.3,63.7c0.9,1.1,2.5,1.1,3.5,0.3c0.6,0.7,1.3,3.2,1.3,3.2s-1.5,2.7-4.8,1.6c0-0.3,0.5-2.6,0.5-2.6l-1.1,2.3
		c0,0-1-0.3-1.1-1.3C16.7,66.4,17.3,64.8,18.3,63.7z"/>
	<polygon points="26.6,69.3 27.7,69.2 28.1,66.8 27.7,66.6 	"/>
	<path class="st0" d="M22.7,42.4c5.7,6.8,5.6,15.6,4.5,22.1c0,0.2-0.1,0.8-0.1,0.8l3.5,0.3c0,0,0-0.4,0.1-0.8
		c0.8-6.7,3.6-13.5,4.1-20C33.6,44.7,23.9,42.4,22.7,42.4z"/>
	<path class="st2" d="M27.2,64.5c0.9,1.1,2.5,1.1,3.5,0.3C31.3,65.5,32,68,32,68s-1.5,2.7-4.8,1.6c0-0.3,0.5-2.6,0.5-2.6l-1.1,2.3
		c0,0-1-0.3-1.1-1.3C25.6,67.3,26.2,65.6,27.2,64.5z"/>
	<polygon points="54.3,68.9 55.3,68.8 55.8,66.4 55.4,66.2 	"/>
	<path class="st0" d="M50.4,42c5.7,6.8,5.6,15.6,4.5,22.1c0,0.2-0.1,0.8-0.1,0.8l3.5,0.3c0,0,0-0.4,0.1-0.8
		c0.8-6.7,5.3-16.8,5.7-23.4C62.9,41,51.6,42,50.4,42z"/>
	<path class="st2" d="M54.9,64.1c0.9,1.1,2.5,1.1,3.5,0.3c0.6,0.7,1.3,3.2,1.3,3.2s-1.5,2.7-4.8,1.6c0-0.3,0.5-2.6,0.5-2.6l-1.1,2.3
		c0,0-1-0.3-1.1-1.3C53.3,66.9,53.9,65.2,54.9,64.1z"/>
</g>
</svg>
