<?xml version="1.0" encoding="utf-8"?>
<!-- Generator: Adobe Illustrator 19.2.1, SVG Export Plug-In . SVG Version: 6.00 Build 0)  -->
<svg version="1.1" id="Layer_1" xmlns="http://www.w3.org/2000/svg" xmlns:xlink="http://www.w3.org/1999/xlink" x="0px" y="0px"
	 viewBox="0 0 42.6 34.5" style="enable-background:new 0 0 42.6 34.5;" xml:space="preserve">
<style type="text/css">
	.st0{fill:#E2E2E2;}
	.st1{fill:#A0A0A0;}
	.st2{fill:#C1C1C1;}
	.st3{fill:#FFFFFF;}
	.st4{fill:#686563;}
	.st5{fill:#FF927F;}
	.st6{fill:#E04E3B;}
</style>
<g>
	<path class="st0" d="M39.1,22c0.3,0.4,0.7,0.7,1,1.1c0.2,0.2,0.4,0.4,0.7,0.3c0.3-0.1,0.3-0.5,0.2-0.8c-0.1-0.5-0.4-0.9-0.7-1.3
		c0.3,0.3,0.8,0.5,1.2,0.6c0.2,0,0.5,0,0.6-0.1c0.1-0.2-0.1-0.3-0.3-0.4c-0.2-0.1-0.4-0.3-0.7-0.5c0.6-0.1,1.1-0.3,1.1-0.6
		c0-0.4-1-0.6-1.6-0.4c0.5-0.2,0.9-0.4,1.4-0.6c0.3-0.1,0.5-0.3,0.5-0.5c0-0.3-0.4-0.4-0.8-0.4c-0.5,0-1.1,0.1-1.6,0.3
		c0.4-0.2,0.8-0.5,1-0.9c0-0.1,0.1-0.2,0.1-0.3c0-0.1,0-0.1,0-0.2c-0.1-0.2-0.4-0.1-0.6-0.1c-0.5,0.2-0.8,0.4-1.1,0.8
		c0.3-0.4,0.5-0.9,0.5-1.4c0-0.3,0-0.7-0.3-0.7c-0.3,0-0.5,0.2-0.6,0.4c-0.3,0.4-0.6,0.8-0.8,1.2c0.3-0.5,0.1-1.4-0.3-1.5
		c-0.4-0.1-1,1.1-1,1.8c0,0.7-0.1,1.9,0.7,2c0.1,0,0.1,0,0.2,0c-0.5,0.3-0.3,1.3-0.2,1.9c0.1,0.7,0.8,1.8,1.2,1.7
		C39.4,23.4,39.4,22.4,39.1,22z"/>
	<path class="st1" d="M26,0.3c0.2,0.3,0.1,0.7,0,1c-0.4,1.2-1.3,2.1-2.2,2.9c-3.9,3.4-8.3,5.9-13,7.3c-0.1-0.8-0.1-1.5-0.2-2.3
		c4.2-3.8,9-6.9,14.1-9C25.1,0,25.7-0.1,26,0.3z"/>
	<path class="st2" d="M34.8,29.8c0-0.1,0-0.3,0-0.4c3.4-3,6.9-10.7,0.5-14.4c-7.5-4.3-10.2,2.5-16.6,1c-0.7-0.2-2.4-1.3-2.5-1.7
		c-0.7-3.5-2.8-5.9-6.1-5.9c-3.3,0.1-10.3,7.6-9.3,9.7c0.5,1.1,1.9,3.4,4.2,4.2c0.4,0.1,0.8,0.2,1.2,0.3c5,0.8,5,3.5,5,3.7
		c0,1.6-7.8,3.4-7.4,4.1c1.4,2.2,12.8,0.5,14.2,0.9c1.2,0.3,2.7,0.5,4.3,0.5c0,0,0,0,0,0c-0.6,0.2-1.2,0.5-1.3,1.1
		c-0.1,0.5,0.2,0.9,0.6,1.2c0.4,0.3,0.9,0.3,1.3,0.4c3.2,0.1,6.1-2.7,9.4-2.3c0.6,0.1,1.2,0.3,1.9,0.2c0.6-0.1,1.3-0.6,1.1-1.2
		C35.4,30.6,34.9,30.3,34.8,29.8z"/>
	<g>
		<path class="st3" d="M9.2,14.7c0.4-0.2,0.5-0.6,0.4-1c-0.1-0.4-0.6-0.6-0.9-0.5c-0.3,0.1-0.6,0.4-0.7,0.7
			c-0.1,0.2-0.1,0.4,0.1,0.6c0.1,0.2,0.3,0.2,0.5,0.3C8.8,14.8,9,14.8,9.2,14.7z"/>
		<path d="M8.9,13.9c-0.1,0.1-0.2,0.1-0.2,0.3c0,0.1,0,0.2,0.1,0.3c0.1,0.1,0.2,0.1,0.4,0.1c0.1,0,0.2-0.2,0.2-0.3
			c0-0.1,0-0.1,0-0.2c0-0.1,0-0.1-0.1-0.2c-0.1,0-0.2-0.1-0.2-0.1C9,13.8,8.9,13.8,8.9,13.9z"/>
		<path class="st2" d="M4.2,13.8c0.4-0.2,0.7-0.7,0.5-1.2C4.5,12.2,4,11.9,3.6,12c-0.4,0.1-0.7,0.4-0.8,0.8
			c-0.1,0.2-0.1,0.5,0.1,0.7c0.1,0.2,0.4,0.3,0.6,0.3C3.7,13.9,4,13.9,4.2,13.8z"/>
		<path class="st3" d="M4.1,13.7c0.4-0.2,0.5-0.6,0.4-1c-0.1-0.4-0.6-0.6-0.9-0.5c-0.3,0.1-0.6,0.4-0.7,0.7
			c-0.1,0.2-0.1,0.4,0.1,0.6c0.1,0.2,0.3,0.2,0.5,0.3C3.7,13.8,3.9,13.8,4.1,13.7z"/>
		<path d="M3.8,12.8c-0.1,0.1-0.2,0.1-0.2,0.3c0,0.1,0,0.2,0.1,0.3c0.1,0.1,0.2,0.1,0.4,0.1c0.1,0,0.2-0.2,0.2-0.3
			c0-0.1,0-0.1,0-0.2c0-0.1,0-0.1-0.1-0.2c-0.1,0-0.2-0.1-0.2-0.1C3.9,12.8,3.9,12.8,3.8,12.8z"/>
	</g>
	<path class="st4" d="M8,19c-0.1,0-0.3,0.3-0.6,0.7C7.2,20,7,20.2,6.7,20.5c-0.3,0.2-0.6,0.4-1,0.6c-0.8,0.3-1.7,0.3-2.5,0
		c-0.2-0.1-0.5-0.2-0.7-0.4c0.4,0.4,0.8,0.8,1.3,1.1c0.2,0,0.4,0.1,0.6,0.1c0.5,0,1-0.1,1.5-0.3c0.4-0.2,0.8-0.4,1.2-0.7
		c0.3-0.3,0.6-0.6,0.7-0.8C7.9,19.7,8,19.5,8,19.3C8,19.1,8,19,8,19z"/>
	<g>
		<path class="st0" d="M16.2,16.2c0,0,0-0.2,0.1-0.2c0.1,0.1,0.5,0.2,0.4,0.3C16.7,16.5,16.3,16.3,16.2,16.2z"/>
		<path class="st0" d="M17.9,16.6c0,0,0-0.2,0-0.2c0.1,0,0.5,0,0.5,0.1C18.4,16.6,18,16.6,17.9,16.6z"/>
		<path class="st0" d="M17.5,17.2c0,0,0-0.2,0-0.2c0.2,0,0.7,0.1,0.7,0.2C18.1,17.4,17.6,17.3,17.5,17.2z"/>
		<path class="st0" d="M26.8,15c0,0-0.1-0.2,0-0.2c0.1,0,0.4-0.1,0.5,0C27.3,14.9,26.9,15,26.8,15z"/>
		<path class="st0" d="M16.6,18.1c0,0,0-0.2,0-0.2c0.2,0.1,0.8,0.2,0.8,0.4C17.3,18.4,16.8,18.2,16.6,18.1z"/>
		<path class="st0" d="M16.6,19.3c0,0,0-0.2,0-0.2c0.2,0.1,0.7,0.2,0.6,0.3C17.2,19.6,16.7,19.4,16.6,19.3z"/>
		<path class="st0" d="M18.1,18.3c-0.1,0,0-0.2,0-0.2c0.2,0.1,0.9,0.2,0.9,0.4C19,18.5,18.4,18.4,18.1,18.3z"/>
		<path class="st0" d="M19,17.2c0,0,0-0.2,0-0.2c0.2,0,0.8-0.1,0.8,0.1C19.8,17.2,19.2,17.2,19,17.2z"/>
		<path class="st0" d="M20.2,16.7c0,0,0-0.2,0-0.2c0.1,0,0.5,0,0.5,0.2C20.7,16.8,20.3,16.8,20.2,16.7z"/>
		<path class="st0" d="M29.7,14c-0.1,0-0.1-0.2,0-0.2c0.3,0,1-0.1,1,0.1C30.7,14,30,14,29.7,14z"/>
		<path class="st0" d="M21.7,16.7c-0.1,0,0-0.2,0-0.2c0.3,0,1,0.1,1,0.2C22.7,16.8,22,16.8,21.7,16.7z"/>
		<path class="st0" d="M20.4,17.7c-0.1,0,0-0.2,0-0.2c0.2,0,0.8,0,0.8,0.2C21.3,17.8,20.7,17.7,20.4,17.7z"/>
		<path class="st0" d="M20.4,18.7c-0.1,0,0-0.2,0-0.2c0.2,0,0.8,0,0.9,0.1C21.2,18.8,20.6,18.7,20.4,18.7z"/>
		<path class="st0" d="M18.7,19.6c-0.1,0,0-0.2,0-0.2c0.2,0,0.9,0.1,0.9,0.2C19.6,19.7,18.9,19.6,18.7,19.6z"/>
		<path class="st0" d="M17.5,20.8c-0.1,0,0-0.3,0-0.2c0.3,0.1,1.1,0.2,1.1,0.3C18.6,21.1,17.8,20.9,17.5,20.8z"/>
		<path class="st0" d="M20.2,20.4c-0.1,0-0.1-0.2,0-0.2c0.2,0,0.9,0,0.9,0.1C21.1,20.5,20.5,20.4,20.2,20.4z"/>
		<path class="st0" d="M22,18.9c-0.1,0-0.1-0.2,0-0.2c0.2,0,0.9-0.1,0.9,0.1C22.9,18.9,22.3,18.9,22,18.9z"/>
		<path class="st0" d="M22.6,18.1c0,0-0.1-0.2,0-0.2c0.2,0,0.7-0.1,0.7,0.1C23.4,18.1,22.8,18.1,22.6,18.1z"/>
		<path class="st0" d="M22,20.7c-0.1,0-0.1-0.3,0-0.3c0.3,0,1.2,0,1.2,0.1C23.2,20.7,22.3,20.7,22,20.7z"/>
		<path class="st0" d="M23,19.8c-0.1,0,0-0.3,0-0.2c0.2,0,0.9,0.1,0.9,0.2C23.9,19.9,23.2,19.8,23,19.8z"/>
		<path class="st0" d="M21,19.6c0,0,0-0.2,0-0.2c0.2,0,0.6,0,0.6,0.1C21.6,19.7,21.1,19.7,21,19.6z"/>
		<path class="st0" d="M24.5,20.3c-0.1,0-0.1-0.3,0-0.3c0.3,0,1.1,0.1,1.2,0.3C25.6,20.5,24.8,20.4,24.5,20.3z"/>
		<path class="st0" d="M24.6,15.8c0,0-0.1-0.2-0.1-0.2c0.2,0,0.8-0.2,0.8,0C25.4,15.7,24.8,15.8,24.6,15.8z"/>
		<path class="st0" d="M29.3,15.5c0,0-0.1-0.2,0-0.2c0.2,0,0.6-0.1,0.7,0.1C29.9,15.5,29.5,15.5,29.3,15.5z"/>
		<path class="st0" d="M26.2,16c-0.1,0-0.1-0.2-0.1-0.2c0.2,0,0.8-0.2,0.9,0C27.1,15.9,26.5,16,26.2,16z"/>
		<path class="st0" d="M24.2,16.7c-0.1,0-0.1-0.2,0-0.2c0.3,0,1-0.1,1,0.1C25.2,16.7,24.5,16.7,24.2,16.7z"/>
		<path class="st0" d="M24.5,18c0,0-0.1-0.2,0-0.2c0.2,0,0.7-0.1,0.8,0.1C25.2,18.1,24.7,18.1,24.5,18z"/>
		<path class="st0" d="M24.6,19.4c-0.1,0-0.1-0.3,0-0.3c0.3,0,1-0.1,1,0.1C25.5,19.4,24.8,19.4,24.6,19.4z"/>
		<path class="st0" d="M26.2,17.4c-0.1,0-0.1-0.2,0-0.2c0.3,0,1.2-0.1,1.2,0.1C27.4,17.4,26.5,17.4,26.2,17.4z"/>
		<path class="st0" d="M26.7,19.1c-0.1,0-0.1-0.3-0.1-0.3c0.2,0,0.8-0.1,0.9,0.1C27.6,19.1,26.9,19.1,26.7,19.1z"/>
		<path class="st0" d="M27.9,15.9c-0.1,0-0.1-0.2-0.1-0.2c0.3,0,1-0.1,1,0.1C28.9,15.9,28.1,15.9,27.9,15.9z"/>
		<path class="st0" d="M27.9,15.1c-0.1,0-0.1-0.2-0.1-0.2c0.3,0,1.2-0.1,1.2,0C29.1,15.1,28.2,15.1,27.9,15.1z"/>
		<path class="st0" d="M30.7,15.4c-0.1,0,0-0.2,0-0.2c0.3,0.1,1,0.3,1,0.5C31.6,15.8,30.9,15.5,30.7,15.4z"/>
		<path class="st0" d="M31.3,14.7c-0.1,0-0.1-0.2,0-0.2c0.3,0,1.1,0,1.1,0.2C32.4,14.8,31.6,14.7,31.3,14.7z"/>
		<path class="st0" d="M29.6,16.8c-0.1,0-0.1-0.2-0.1-0.2c0.2,0,0.9-0.1,1,0C30.5,16.8,29.8,16.8,29.6,16.8z"/>
		<path class="st0" d="M32.7,15.9c-0.1,0,0-0.2,0-0.2c0.4,0.1,1.4,0.4,1.4,0.6C34.1,16.4,33.1,16.1,32.7,15.9z"/>
		<path class="st0" d="M33.8,15.1c-0.1,0,0-0.2,0-0.2c0.3,0.1,1,0.4,1,0.6C34.8,15.6,34,15.2,33.8,15.1z"/>
		<path class="st0" d="M32,17c-0.1,0,0-0.2,0-0.2c0.3,0.1,1.2,0.4,1.1,0.5C33.1,17.5,32.3,17.2,32,17z"/>
		<path class="st0" d="M28.4,17.8c-0.1,0-0.1-0.2,0-0.2c0.3,0,1.2,0.1,1.3,0.2C29.6,18,28.7,17.9,28.4,17.8z"/>
		<path class="st0" d="M30.9,18c-0.1,0-0.1-0.3,0-0.2c0.5,0.1,1.7,0.2,1.8,0.4C32.6,18.3,31.3,18.1,30.9,18z"/>
		<path class="st0" d="M33.5,16.9c-0.1,0,0-0.2,0-0.2c0.3,0.2,1.3,0.6,1.3,0.7C34.8,17.6,33.8,17.1,33.5,16.9z"/>
		<path class="st0" d="M34.8,16.6c-0.1,0,0-0.2,0.1-0.2c0.3,0.2,1.1,0.6,1.1,0.7C35.9,17.3,35.1,16.8,34.8,16.6z"/>
	</g>
	<path class="st2" d="M30.1,6.3c0,0.2,0,0.4-0.1,0.6c-0.6,1.2-1.9,1.8-3.1,2.3c-4.5,2-8.4,3.1-13.2,3.3c-0.4,0-0.8-0.3-0.8-0.7
		c0-0.3-0.1-0.6-0.2-0.9c-0.1-0.4,0.1-0.8,0.4-0.9c5-2.3,10.1-3.6,15.6-4.2C29.2,5.7,29.9,5.8,30.1,6.3z"/>
	<path class="st5" d="M13.6,10.9c3.7-1.9,7.7-3.2,11.7-3.8c0.4-0.1,0.6,0.4,0.3,0.7c-0.9,0.8-1.9,1.5-2.9,2
		c-2.8,1.3-5.9,1.5-8.9,1.9C13.4,11.7,13.2,11.1,13.6,10.9z"/>
	<g>
		<path class="st5" d="M1,16.5c0.4-0.1,0.9-0.1,1.3,0.1c0.3,0.1,0.5,0.4,0.5,0.7c0,0.3-0.1,0.5-0.3,0.7c-0.2,0.2-0.4,0.5-0.6,0.6
			c-0.2,0.1-0.4,0.2-0.6,0.2c-0.2,0-0.4-0.2-0.6-0.3c-0.2-0.2-0.4-0.4-0.5-0.6c-0.2-0.3-0.3-0.6-0.2-0.9c0.1-0.2,0.2-0.3,0.4-0.4
			C0.7,16.6,0.8,16.6,1,16.5z"/>
		<path class="st6" d="M0.3,17.1C0.5,17,0.9,17,1,17.2c0.1,0.1,0.1,0.3,0.1,0.5c0,0.2,0,0.5,0,0.7c0,0.2,0.2,0.3,0.4,0.2
			c0.1-0.1,0.1-0.1,0.2-0.2c0.1-0.2,0-0.5,0-0.7c0-0.3,0.1-0.7,0.4-0.6c0.3,0.1,0.4,0.4,0.2,0.6c-0.1,0.2-0.4,0.1-0.6,0
			c0,0.1,0,0.2,0,0.2c0,0.2,0,0.5-0.1,0.7c-0.1,0.1-0.3,0.2-0.4,0.1c-0.2,0-0.2-0.2-0.2-0.3c0-0.2,0-0.4,0-0.6
			c-0.1,0.1-0.3,0.1-0.5,0.1C0.2,17.7,0.1,17.3,0.3,17.1z"/>
	</g>
	<path class="st2" d="M8.6,7.9c0.4,0,0.8,0.1,1.1,0.3l0.1-1.1c0,0,0.1,0,0.1,0l0.3,0.9c0.2-0.2,0.4-0.3,0.7-0.4c0,0,0.1,0,0,0.1
		c-0.1,0.1-0.2,0.3-0.2,0.5c0.3-0.2,0.7-0.3,1-0.1c0,0,0,0.1,0,0.1c-0.4,0-0.7,0.3-0.8,0.7c-0.3,0-0.6,0.1-1,0.1c-0.1,0-0.3,0-0.4,0
		C9.4,8.8,9.4,8.6,9.3,8.5C9.2,8.2,8.9,8,8.6,7.9C8.5,7.9,8.5,7.9,8.6,7.9z"/>
	<path class="st0" d="M24.9,25.2c0.1-1.6,0.8-3.1,2.2-4.2c1.3-1.1,3.2-1.5,5-1.3c0.4,0,0.8,0.1,1.2,0.2c-0.7-0.4-1.6-0.7-2.4-0.8
		c-1.5-0.2-3.1,0.3-4.2,1.3c-1.1,1-1.7,2.5-1.8,3.9c0,0.6,0,1.2,0.1,1.8C24.8,25.8,24.8,25.5,24.9,25.2z"/>
	<path class="st1" d="M24.5,31.5c0.7-0.2,1.4-0.7,1.5-1.4c0.1-0.5-0.2-1-0.4-1.5c-0.2-0.4-0.3-0.9-0.5-1.3c0,1.7,0.7,2.3-0.1,3
		c-1.6,1.6-5.7,0.8-6.8,0.6c0.3-0.7,0.5-2.2-0.3-2.3c0.4,0.8,0.2,1.9-0.5,2.4c-0.1,0.1-0.2,0.1-0.3,0.2c0.4,0,0.7,0,0.9,0.1
		c1.2,0.3,2.7,0.5,4.3,0.5C23.1,31.7,23.9,31.7,24.5,31.5z"/>
	<path class="st5" d="M9.8,17c0.2-0.1,0.4-0.2,0.5,0c0.1,0.1,0.2,0.2,0.2,0.4c0,0.1,0,0.3-0.1,0.4c-0.2,0.4-0.5,1.2-0.7,1.2
		c-0.3,0-0.9-0.6-1-1.1c-0.1-0.2-0.1-0.4,0-0.6C8.7,17.1,8.9,17,9.1,17c0.2,0,0.3,0.1,0.4,0.3c0,0.1,0.1,0.2,0.1,0.3
		c0,0.1,0.1,0.1,0.1,0C9.7,17.3,9.7,17.1,9.8,17z"/>
</g>
</svg>
