<?xml version="1.0" encoding="utf-8"?>
<!-- Generator: Adobe Illustrator 19.2.1, SVG Export Plug-In . SVG Version: 6.00 Build 0)  -->
<svg version="1.1" id="Layer_1" xmlns="http://www.w3.org/2000/svg" xmlns:xlink="http://www.w3.org/1999/xlink" x="0px" y="0px"
	 viewBox="0 0 88.9 71.9" style="enable-background:new 0 0 88.9 71.9;" xml:space="preserve">
<style type="text/css">
	.st0{fill:#CC9F7A;}
	.st1{fill:#D6AF8B;}
	.st2{fill:#DDD3C7;}
	.st3{fill:#EAE2D8;}
	.st4{fill:#F7EFE7;}
	.st5{fill:#FFC152;}
	.st6{fill:#EF9D18;}
	.st7{fill:#BC885C;}
	.st8{fill:#FFFFFF;}
	.st9{fill:#FFFEFD;}
	.st10{fill:#AA805E;}
	.st11{fill:#594C3D;}
	.st12{fill:#33291F;}
</style>
<g>
	<path class="st0" d="M59.4,45.3c1-0.1,3.7,0.2,4.7,0.1c-0.8,8-3.7,22.7-4.5,26.3C59.6,72,59.2,72,59,71.8l-1-1.4l-1.6,1.4
		c-0.2,0.2-0.6,0-0.6-0.3C56.3,67.7,58.1,53,59.4,45.3z"/>
	<path class="st0" d="M31.9,45.3c-1-0.1-3.7,0.2-4.7,0.1c0.8,8,3.7,22.7,4.5,26.3c0.1,0.3,0.5,0.4,0.6,0.1l1-1.4l1.6,1.4
		c0.2,0.2,0.6,0,0.6-0.3C35,67.7,33.2,53,31.9,45.3z"/>
	<path class="st1" d="M44.5,46.4c-1.1-0.1-3.9,0.2-5,0c-1,7.6-1.5,21.7-1.6,25.2c0,0.3,0.4,0.4,0.6,0.1l1.3-1.3l1.4,1.4
		c0.2,0.2,0.6,0,0.7-0.3C42.3,67.9,44,53.9,44.5,46.4z"/>
	<path class="st1" d="M68.3,45.3c1-0.1,3.7,0.2,4.7,0.1c-0.8,8-3.7,22.7-4.5,26.3c-0.1,0.3-0.5,0.4-0.6,0.1l-1-1.4l-1.6,1.4
		c-0.2,0.2-0.6,0-0.6-0.3C65.2,67.7,67,53,68.3,45.3z"/>
	<path d="M55.8,71.5c0,0.3,0.3,0.5,0.6,0.3l1.6-1.4l1,1.4c0.2,0.3,0.6,0.2,0.6-0.1c0.1-0.7,0.4-1.8,0.6-3.2
		c-1.4-0.1-2.7-0.1-4.1-0.2C56.1,69.7,55.9,70.8,55.8,71.5z"/>
	<path d="M31.6,71.6c0.1,0.3,0.5,0.4,0.6,0.1l1-1.4l1.6,1.4c0.2,0.2,0.6,0,0.6-0.3c-0.1-0.6-0.2-1.6-0.3-2.8c-1.3,0.1-2.7,0.1-4,0.2
		C31.3,70.1,31.5,71,31.6,71.6z"/>
	<path d="M37.8,71.7c0,0.3,0.4,0.4,0.6,0.1l1.3-1.3l1.4,1.4c0.2,0.2,0.6,0,0.7-0.3c0.1-0.7,0.2-1.8,0.4-3.1c-1.4,0-2.9,0.1-4.3,0.2
		C37.9,69.9,37.9,71,37.8,71.7z"/>
	<path d="M65.1,68.8c-0.1,1.1-0.2,2-0.3,2.7c0,0.3,0.3,0.5,0.6,0.3l1.6-1.4l1,1.4c0.2,0.3,0.6,0.2,0.6-0.1c0.1-0.6,0.3-1.6,0.5-2.7
		C67.8,69,66.4,68.9,65.1,68.8z"/>
	<g>
		<path class="st2" d="M63,51.5c0.7,3.2-1.2,6.7-4.1,7.5c-2.9,0.8-6.4-1.2-7.5-4.2c0.9,4-1.6,8.3-5.3,9.3c-3.7,0.9-8-1.7-9.3-5.6
			c-1.1,3.6-5.9,4.8-9.1,2.7s-4.6-6.5-4.2-10.3c-2,1.2-4.9,0.6-6.5-1.3c-1.7-1.9-2.2-4.7-1.6-7.1c0.6-2.4,2.2-4.4,4.2-5.7
			c-4-0.4-7.6-4.1-8.3-8.3C10.5,24.3,12.6,20,16,18c3.5-2,8-1.5,11.4,0.8c-1.6-2.3-1.3-5.6,0.2-7.7c1.6-2.1,4.2-3.1,6.8-3
			c2.6,0.1,5.1,1.1,7.4,2.5c1-5.4,5.9-9.6,11.2-9.6c5.3,0,10.5,4.3,11.9,9.8c2.2-4.1,8.1-5,11.6-1.8c3.5,3.2,3.6,9.6,0.2,12.6
			c3.3-1.7,7.7-0.5,10.1,2.6c2.4,3.1,2.5,7.9,0.3,10.9c-2.2,3-6.6,4-10,2.2c1,1.3,1.9,2.8,2.4,4.4c0.5,1.6,0.3,3.5-0.6,4.7
			s-2.9,1.7-4.2,0.7c0.6,3.2-1.2,6.5-4,7.5C68.1,55.7,64.6,54.3,63,51.5z"/>
		<path class="st3" d="M23.4,50.9c-0.2,0.1-0.4,0.2-0.6,0.3c-2.4-1.9-3.9-5.2-3.4-8.2c0.5-3.6,3.6-6.4,7.1-6.5
			c-1.4-0.7-2.7-1.4-3.7-2.6c-1-1.2-1.7-2.8-1.5-4.3c0.3-1.5,1.6-2.8,3.1-2.5c-1.8-2.4-1.8-6,0.1-8.2c0.3-0.4,0.7-0.7,1.2-1
			c0.7,0.3,1.3,0.6,1.9,1.1c-0.3-0.5-0.6-1-0.8-1.6c1.7-0.6,3.8-0.5,5.4,0.6c-1.9-2.4-1.8-6.2,0.2-8.2C33,8.8,34,8.3,35,8.1
			c1.7,0.1,3.3,0.7,4.8,1.4c0,0,0.1,0.1,0.1,0.1c0,0,0-0.1-0.1-0.1c0.7,0.3,1.3,0.7,2,1.1c1-5.4,5.9-9.6,11.2-9.6S63.6,5.4,65,10.9
			c1.7-3.1,5.6-4.4,8.9-3.3c-0.2,0.8-0.5,1.6-0.9,2.4c1.2-0.6,2.6-0.7,3.9-0.6c3.2,3.3,3.2,9.4-0.1,12.3c2.3-1.2,5.2-0.9,7.6,0.4
			c-0.2,0.8-0.5,1.5-0.9,2.1c-2,3.3-5.8,5-9.5,4.6c2.2,1.2,3.4,4.1,3,6.6c-0.4,2.5-2.1,4.6-4.2,5.7c-2.1,1.1-4.6,1.4-7,1.3
			c1,3.6,0.2,7.6-1.9,10.4c-0.4-0.4-0.7-0.9-1-1.4c0.2,0.8,0.2,1.7,0.1,2.5c-0.6,0.7-1.4,1.2-2.2,1.7c-2.6,1.5-5.8,1.6-8.7,0.6
			c-0.3-0.5-0.6-1-0.8-1.5c0.1,0.4,0.1,0.9,0.2,1.3c-1.6-0.7-3-1.7-4.2-3c-0.1,4.4-4.4,8-8.5,6.9c-0.6-0.2-1.2-0.4-1.8-0.8
			c-0.1-0.2-0.2-0.5-0.3-0.7c0,0.1-0.1,0.3-0.2,0.4c-2.8-2-4.4-6.1-3.2-9.4c-1.9,2.9-6,4-9.2,2.5c-0.3-0.1-0.6-0.3-0.8-0.5
			C23.3,51.3,23.4,51.1,23.4,50.9z"/>
		<path class="st4" d="M60.5,27c-0.3-2.2-2.1-4.1-4.2-4.2c2.2-2.6,3.3-6.6,2-9.7c-1.3-3.1-5.5-4.7-8.1-2.5c0.8-2.9-0.3-6.2-2.5-7.9
			c-2.9,1.7-5.1,4.6-5.7,8.1c-2.3-1.4-4.8-2.5-7.4-2.5c-2.6-0.1-5.2,0.9-6.8,3c-1.6,2.1-1.8,5.4-0.2,7.7c-3.4-2.3-8-2.8-11.4-0.8
			c-3.5,2-5.6,6.3-4.9,10.5c0.7,4.2,4.3,7.9,8.3,8.3c-2,1.3-3.6,3.3-4.2,5.7c-0.3,1.3-0.3,2.6,0,3.9c2.7-0.1,5.3-1.1,7.3-3.1
			c1,2.2,2.3,4.2,4.2,5.6c1.9,1.3,4.3,1.9,6.6,1.1c2.2-0.8,4-3.1,4-5.6c1.4,3.4,4.5,6,8.1,6.3c3.5,0.3,7.2-1.9,8.8-5.3
			c1.6-3.5,0.8-8-2-10.2c2.1,0,4.3-0.6,5.9-2.1C59.7,31.5,60.8,29.2,60.5,27z"/>
	</g>
	<g>
		<path class="st5" d="M16.3,17c0.3,0.5,0.7,0.8,1.2,0.9c0.5,0.1,1.1-0.1,1.6-0.3c0.5-0.3,1-0.7,1.3-1.1c0.3-0.5,0.4-1,0.2-1.4
			c-2-4.2-5-8.3-9.8-9.3C9.3,5.3,7.6,5.3,5.9,5.8C-2,8.3-2.3,21.4,7,22.3c4.7,0.3,9.4-5.9,5-9.5c-0.7-0.6-1.4-0.9-2-0.9
			c-0.6-0.1-1.1,0-1.4,0.2c-0.3,0.2-0.4,0.4-0.4,0.5c0.1,1,1.8,1.5,2,2.7c0,0.5-0.1,0.8-0.2,1.3c-1.2,2.1-3.7,1.3-4.7-0.6
			c-1.1-2,0-4.6,2.2-5.3c0.7-0.2,1.4-0.2,2.2-0.1C12.9,11.2,14.9,14.2,16.3,17C16.6,17.5,15.7,15.8,16.3,17z"/>
		<g>
			<path class="st6" d="M6.7,17.4c-0.5,1.5-1,3.1-2,4.4c-0.2-0.1-0.3-0.1-0.5-0.2c0.9-1.3,1.4-3,1.9-4.5C6.4,17.2,6.5,17.3,6.7,17.4
				z"/>
			<path class="st6" d="M5.1,15.6c0,0.1,0.1,0.2,0.1,0.3c-1.6,0.5-3.4,1.1-5,0.9c0-0.2-0.1-0.4-0.1-0.6C1.6,16.8,3.5,16.1,5.1,15.6z
				"/>
			<path class="st6" d="M0.8,10.5c1.5,0.6,3.1,1.1,4.6,1.7c-0.1,0.1-0.2,0.3-0.2,0.5c-1.4-0.6-2.9-1-4.3-1.6c1.1,1.3,2.5,2,4,2.4
				c0,0.2,0,0.3-0.1,0.5c-1.7-0.5-3.2-1.1-4.4-2.5C0.5,11.2,0.7,10.9,0.8,10.5z"/>
			<path class="st6" d="M4.9,14.8c-1.6,0.4-3.2,0.9-4.8,1c0-0.1,0-0.3,0-0.4c1.6,0,3.2-0.5,4.8-1C4.9,14.6,4.9,14.7,4.9,14.8z"/>
			<path class="st6" d="M5.3,16c0.1,0.1,0.1,0.2,0.2,0.4c-1.4,1-2.8,1.9-4.4,2.4c-0.1-0.1-0.1-0.2-0.2-0.3C2.5,17.9,3.9,17,5.3,16z"
				/>
			<path class="st6" d="M7.7,19.9C8,19.2,8,18.5,8,17.8c0.4,0,0.8-0.1,1.2-0.3c0.6,0.9,1.3,1.7,1.9,2.5c-0.2-1-0.9-1.9-1.6-2.8
				c0.2-0.2,0.4-0.4,0.5-0.7c0,0,0-0.1,0-0.1c1.1,0.2,2.2,0,3.3,0c-1-0.6-2.1-0.9-3.2-1.1c0,0,0-0.1,0-0.1c0-0.2-0.1-0.3-0.2-0.4
				c1.3,0.3,2.6,0.6,3.7,1.2c0,0.3,0,0.6,0,0.9c-1.2-0.2-2.4,0.1-3.6,0c0.9,1,1.6,2.1,1.8,3.4c-0.3,0.3-0.6,0.5-0.9,0.7
				c-0.6-1.1-1.5-2.1-2.3-3.2c0,1.1-0.1,2.2-0.9,3.1c-0.4,0.5-0.9,0.9-1.5,1.2c-0.2,0-0.4-0.1-0.6-0.1C6.5,21.6,7.3,20.9,7.7,19.9z"
				/>
			<path class="st6" d="M6.5,11.1c-0.2,0.2-0.4,0.3-0.6,0.5C5.4,10,4.6,8.4,4,6.7c0.2-0.1,0.4-0.3,0.6-0.4C5.2,8,6,9.5,6.5,11.1z"/>
			<path class="st6" d="M12.6,11.9c-0.1-0.1-0.2-0.2-0.4-0.3c1.3-1,2.5-2.2,3.6-3.4c0.1,0.1,0.3,0.2,0.4,0.3
				C15.1,9.8,13.9,10.9,12.6,11.9z"/>
			<path class="st6" d="M16.1,16.4c-0.1-0.2-0.3-0.5-0.4-0.7c1.4-1,2.5-2.2,3.4-3.5c0.1,0.2,0.2,0.3,0.3,0.5c-1,1.3-2.1,2.4-3.5,3.4
				c1.7-0.1,3.1-0.8,4.2-2.1c0.1,0.2,0.2,0.3,0.2,0.5C19.2,15.6,17.7,16.3,16.1,16.4z"/>
			<path class="st6" d="M9.9,14.7c-0.1-0.1-0.1-0.2-0.2-0.3c0.7-0.3,1.3-0.9,2-1.5c-0.9,0.3-1.7,0.7-2.5,0.9
				c-0.2-0.2-0.5-0.4-0.6-0.6c0.4-0.5,0.7-1,1.1-1.5c0.1,0,0.2,0,0.3,0c0.1,0,0.2,0,0.3,0.1C9.8,12.4,9.4,13,9,13.6
				c0.9-0.2,1.8-0.7,2.7-1c0.1,0.1,0.2,0.1,0.2,0.2c0.1,0.1,0.2,0.2,0.3,0.3C11.5,13.6,10.8,14.3,9.9,14.7z"/>
			<path class="st6" d="M18.8,11.7c-1.4,0.7-2.9,1.5-4.3,2.2c-0.1-0.2-0.3-0.4-0.4-0.5c1.1-1.4,1.9-2.9,2.4-4.6
				c0.2,0.2,0.3,0.3,0.5,0.5c-0.5,1.5-1.2,2.8-2.2,4c1.3-0.6,2.6-1.3,3.9-1.9C18.6,11.5,18.7,11.6,18.8,11.7z"/>
			<path class="st6" d="M5.7,16.6c0.1,0.1,0.2,0.2,0.3,0.3c-1.4,1.1-2.9,2.1-4.6,2.4c-0.1-0.1-0.2-0.2-0.2-0.3
				C2.9,18.7,4.3,17.8,5.7,16.6z"/>
			<path class="st6" d="M10.8,5.6c0.1,0,0.2,0,0.3,0.1c-0.6,1.6-1.1,3.2-1.7,4.8c-0.2,0-0.4,0-0.6,0c0.6-1.6,1.2-3.2,1.7-4.9
				C10.5,5.6,10.6,5.6,10.8,5.6z"/>
			<path class="st6" d="M8.6,10.4c-0.3,0-0.5,0-0.8,0.1c-1-1.5-2.1-2.8-3.2-4.2C4.9,6.2,5.1,6.1,5.3,6C6.4,7.5,7.6,8.9,8.6,10.4z"/>
			<path class="st6" d="M12.1,11.6c-0.2-0.2-0.4-0.3-0.7-0.4c0-1.8-0.1-3.6-0.3-5.5c0.3,0.1,0.5,0.1,0.7,0.2
				C12.1,7.8,12.2,9.7,12.1,11.6z"/>
		</g>
		<path class="st5" d="M31.8,14.7c0,0.6-0.3,1-0.7,1.3c-0.4,0.3-1,0.4-1.6,0.4c-0.6,0-1.2-0.2-1.6-0.5c-0.4-0.3-0.7-0.7-0.8-1.2
			C27.1,10,28,5.1,31.9,2c1.2-0.9,2.7-1.7,4.4-1.9c8.2-1.2,14.3,10.5,6.2,15.3c-4.2,2.3-11-1.2-8.6-6.4c0.4-0.8,0.9-1.4,1.4-1.7
			c0.5-0.3,1-0.5,1.3-0.4c0.3,0,0.5,0.1,0.6,0.3c0.3,0.9-0.9,2.1-0.6,3.3c0.2,0.4,0.4,0.7,0.7,1.1c2,1.4,3.9-0.5,3.9-2.5
			c0.1-2.3-2-4.2-4.3-3.8C36.3,5.2,35.6,5.5,35,6C32.4,8,31.9,11.6,31.8,14.7C31.8,15.3,31.8,13.3,31.8,14.7z"/>
		<g>
			<path class="st6" d="M40.7,10.9c1.2,1.1,2.3,2.3,3.7,3.1c0.1-0.1,0.2-0.3,0.3-0.4c-1.4-0.8-2.5-2.1-3.7-3.2
				C40.9,10.6,40.8,10.7,40.7,10.9z"/>
			<path class="st6" d="M41.3,8.5c0,0.1,0,0.2,0,0.3c1.6-0.3,3.6-0.5,4.8-1.4c0-0.2-0.1-0.4-0.1-0.6C45,8.1,43,8.3,41.3,8.5z"/>
			<path class="st6" d="M43,2.1c-1.1,1.2-2.3,2.3-3.4,3.5c0.1,0.1,0.3,0.2,0.4,0.3c1-1.1,2.1-2.2,3.2-3.3c-0.4,1.6-1.4,2.8-2.6,3.9
				c0.1,0.1,0.2,0.3,0.3,0.4c1.3-1.2,2.4-2.4,2.9-4.1C43.5,2.6,43.2,2.3,43,2.1z"/>
			<path class="st6" d="M41.2,7.8c1.6-0.3,3.3-0.6,4.8-1.2c0-0.1-0.1-0.2-0.1-0.4c-1.4,0.7-3.1,0.9-4.8,1.2
				C41.1,7.5,41.1,7.6,41.2,7.8z"/>
			<path class="st6" d="M41.3,9c0,0.1,0,0.3,0,0.4c1.7,0.3,3.3,0.4,5,0.3c0-0.1,0-0.2,0-0.4C44.7,9.5,43,9.2,41.3,9z"/>
			<path class="st6" d="M40.8,13.6c-0.5-0.5-0.8-1.2-1.2-1.8c-0.4,0.2-0.8,0.3-1.2,0.2c-0.1,1-0.4,2.1-0.6,3.1
				c-0.2-1-0.1-2.1,0.3-3.2c-0.2-0.1-0.5-0.2-0.8-0.4c0,0,0,0-0.1-0.1c-0.9,0.6-2,0.9-3,1.5c0.6-1,1.5-1.7,2.4-2.4c0,0,0-0.1,0-0.1
				c0-0.2-0.1-0.3-0.1-0.5c-1,0.9-2.1,1.7-2.8,2.8c0.1,0.3,0.3,0.5,0.4,0.8c1-0.7,2.2-1,3.2-1.6c-0.4,1.3-0.6,2.6-0.1,3.9
				c0.4,0.1,0.7,0.2,1.1,0.3c0.1-1.3,0.5-2.6,0.7-3.8c0.5,1,1.1,1.9,2.2,2.4c0.6,0.3,1.2,0.4,1.9,0.4c0.2-0.1,0.3-0.3,0.5-0.4
				C42.6,14.5,41.6,14.3,40.8,13.6z"/>
			<path class="st6" d="M38.1,5.1c0.3,0,0.5,0.1,0.8,0.2c-0.3-1.7-0.2-3.5-0.4-5.2C38.3,0,38,0,37.8,0C37.9,1.7,37.9,3.4,38.1,5.1z"
				/>
			<path class="st6" d="M33,8.5c0.1-0.1,0.1-0.3,0.2-0.4c-1.6-0.4-3.2-0.9-4.7-1.5c-0.1,0.2-0.1,0.3-0.2,0.5
				C29.8,7.6,31.4,8.1,33,8.5z"/>
			<path class="st6" d="M31.8,14.1c0-0.3,0-0.6,0.1-0.8c-1.6-0.3-3.2-0.9-4.6-1.7c0,0.2,0,0.4-0.1,0.6c1.4,0.8,3,1.3,4.6,1.5
				c-1.5,0.7-3.2,0.6-4.7-0.1c0,0.2,0,0.4,0,0.6C28.6,14.7,30.3,14.7,31.8,14.1z"/>
			<path class="st6" d="M36.6,9.9c0-0.1,0-0.2,0.1-0.4c-0.8,0-1.6-0.3-2.4-0.5c0.9-0.1,1.8-0.1,2.7-0.3c0.1-0.3,0.2-0.6,0.3-0.8
				c-0.5-0.3-1.1-0.6-1.6-0.9c-0.1,0-0.2,0.1-0.3,0.2c-0.1,0.1-0.2,0.1-0.2,0.2c0.6,0.3,1.2,0.6,1.8,1C36,8.6,35,8.5,34,8.7
				c0,0.1-0.1,0.2-0.1,0.3c-0.1,0.1-0.1,0.3-0.2,0.4C34.7,9.6,35.6,9.9,36.6,9.9z"/>
			<path class="st6" d="M27.3,11c1.6,0,3.2,0.1,4.8,0.1c0-0.2,0.1-0.5,0.2-0.7c-1.6-0.8-3-1.8-4.1-3.1C28.1,7.5,28,7.8,28,8
				c1.1,1.1,2.3,2,3.7,2.7c-1.4,0-2.9,0-4.3-0.1C27.4,10.7,27.3,10.9,27.3,11z"/>
			<path class="st6" d="M41.2,9.7c0,0.1-0.1,0.3-0.1,0.4c1.8,0.4,3.5,0.6,5.1,0.2c0-0.1,0-0.3,0.1-0.4C44.6,10.4,42.9,10.2,41.2,9.7
				z"/>
			<path class="st6" d="M31.9,2c-0.1,0.1-0.1,0.1-0.2,0.2c1.2,1.2,2.4,2.4,3.6,3.6c0.2-0.1,0.4-0.2,0.6-0.3
				c-1.2-1.2-2.5-2.4-3.7-3.6C32.1,1.9,32,2,31.9,2z"/>
			<path class="st6" d="M35.9,5.4c0.2-0.1,0.5-0.2,0.7-0.3c0.2-1.7,0.7-3.4,1-5.2c-0.2,0-0.5,0-0.7,0C36.6,1.8,36.1,3.6,35.9,5.4z"
				/>
			<path class="st6" d="M33.2,8c0.1-0.2,0.3-0.5,0.4-0.7c-0.8-1.6-1.5-3.3-2.1-5c-0.2,0.2-0.4,0.3-0.6,0.5C31.6,4.6,32.4,6.3,33.2,8
				z"/>
		</g>
	</g>
	<path class="st7" d="M38.8,21c-1.5,0.1-2.9,0.1-4.4-0.1c-1-0.1-1.9-0.3-2.7-0.8c-0.8-0.5-1.5-1.3-1.5-2.3c2.6,0.4,5.3-0.5,7.8-1.2
		c0.9-0.3,4,0.6,4.1,1.2C42.4,18.5,40,20.9,38.8,21z"/>
	<path class="st1" d="M38.9,20.5c-1.5,0.2-5.4-0.9-6.4-0.5c-0.3-0.1-0.6-0.3-0.6-0.4c1.7,0.3,4.1-1.8,6.2-2.1c1.4-0.2,3,0.6,3,0.6
		C41.2,18.4,39.7,20.4,38.9,20.5z"/>
	<path class="st7" d="M10.5,24c1.5,0,2.9-0.2,4.4-0.5c0.9-0.2,1.9-0.5,2.6-1.1c0.8-0.6,1.3-1.5,1.3-2.4c-2.6,0.6-5.3,0.1-7.9-0.4
		c-0.9-0.2-3.9,1-4,1.6C6.8,21.9,9.4,24,10.5,24z"/>
	<path class="st1" d="M10.4,23.6c1.6,0,5.2-1.5,6.3-1.2c0.3-0.2,0.6-0.3,0.6-0.5c-1.6,0.5-4.2-1.4-6.4-1.4c-1.4-0.1-2.9,0.9-2.9,1
		C7.9,21.7,9.6,23.5,10.4,23.6z"/>
	<path class="st1" d="M35,25c0.8,3.9,1.8,8.8,0.1,12.4c-1.6,3.6-5.3,5.1-9.3,5.4c-2.1,0.1-3.8-1-5-1.7c-0.7-0.4-1.4-0.3-1.8-0.7
		c-0.5-0.6-0.6-1.5,0.3-2.1c-0.8-1.2-1.5-2.4-2-3.8c-1.3-3.4-1.9-7.1-1.4-10.6c0.5-3.6,2.2-7,5-9.3c1.2-1,2.6-1.7,4.1-1.8
		c2.2-0.2,4.4,1.1,5.9,2.8C33.2,18.1,34.4,21.6,35,25z"/>
	<g>
		<path class="st1" d="M17.9,26.2c-0.5,0.5-1.4,0.6-2.1,0.3c-0.7-0.3-1-1.1-0.9-1.8c0.1-0.5,0.5-0.8,0.9-1c0.4-0.2,0.9-0.1,1.4,0.1
			c0.3,0.2,0.6,0.5,0.8,0.8c0.2,0.3,0.3,0.5,0.3,0.8C18.4,25.7,18.2,26,17.9,26.2z"/>
		<path class="st8" d="M32.3,24.9c-0.5,0.4-1.2,0.5-1.7,0.2s-0.9-1-0.7-1.6c0.1-0.4,0.4-0.7,0.8-0.9c0.4-0.2,0.8-0.1,1.1,0.1
			c0.3,0.2,0.5,0.4,0.7,0.7c0.1,0.2,0.3,0.4,0.2,0.7C32.7,24.5,32.5,24.8,32.3,24.9z"/>
		<path d="M31.2,23.4c0.3-0.1,0.7,0,0.8,0.3c0.1,0.3,0.1,0.7-0.2,0.9c-0.3,0.3-0.9,0.2-1.1-0.1C30.5,24.2,30.8,23.6,31.2,23.4z"/>
		<path class="st8" d="M17.7,26c-0.5,0.4-1.2,0.5-1.7,0.2c-0.6-0.3-0.9-1-0.7-1.6c0.1-0.4,0.4-0.7,0.8-0.9c0.4-0.2,0.8-0.1,1.1,0.1
			c0.3,0.2,0.5,0.4,0.7,0.7c0.1,0.2,0.3,0.4,0.2,0.7C18.1,25.6,17.9,25.9,17.7,26z"/>
		<path d="M16.6,24.6c0.3-0.1,0.7,0,0.8,0.3c0.1,0.3,0.1,0.7-0.2,0.9c-0.3,0.3-0.9,0.2-1.1-0.1C15.9,25.3,16.2,24.7,16.6,24.6z"/>
	</g>
	<path class="st4" d="M26.5,20.7c0,0.8-0.8,1.5-1.5,1.5c-0.8,0-1.5-0.7-1.6-1.4c-0.1,1-1,1.8-2,1.8c-1,0-1.9-0.9-1.9-1.9
		c-0.5,0.8-1.8,0.8-2.5,0.1c-0.7-0.7-0.7-1.8-0.3-2.6c-0.6,0.2-1.3-0.2-1.5-0.7c-0.3-0.5-0.2-1.2,0.1-1.7c0.3-0.5,0.9-0.9,1.4-1.1
		c-1-0.3-1.6-1.4-1.5-2.4c0.1-1,0.9-1.9,1.9-2.1c1-0.2,2.1,0.1,2.8,0.9c-0.2-0.6,0-1.4,0.6-1.8c0.5-0.4,1.3-0.5,1.9-0.3
		C23,9,23.6,9.4,24,9.9c0.6-1.2,2.1-1.9,3.4-1.5c1.3,0.3,2.3,1.6,2.3,3c0.8-0.8,2.4-0.7,3,0.3c0.7,0.9,0.2,2.4-0.8,2.9
		c0.9-0.2,2,0.4,2.4,1.2c0.4,0.9,0.1,2-0.7,2.6c-0.8,0.6-1.9,0.5-2.6-0.1c0.2,0.4,0.3,0.8,0.3,1.2c0,0.4-0.2,0.8-0.5,1.1
		c-0.3,0.2-0.8,0.2-1.1-0.1c-0.1,0.8-0.7,1.4-1.5,1.5C27.5,21.9,26.7,21.4,26.5,20.7z"/>
	<path class="st9" d="M21.4,17.8c0,0-1.7,1.7-2.7,1.6c-0.8,0-0.7-0.9-0.4-1.3c0.4-0.5,1.4-0.8,1.4-0.8s-1.4-0.3-2-0.7
		c-0.3-0.2-0.7-0.6-0.6-1c0.1-0.3,0.4-0.4,0.7-0.4c0.8-0.1,1.6-0.1,2.4-0.1c-0.6-0.4-1.1-1.1-1.4-1.9c-0.1-0.3-0.2-0.6-0.1-0.9
		c0.1-0.3,0.4-0.5,0.6-0.5c0.3,0,0.5,0.1,0.8,0.2c0.8,0.4,2,1.2,2,1.2s0.1-1.7,0.5-2.6c0.1-0.3,0.3-0.5,0.5-0.6
		c0.3-0.1,0.7,0.2,0.9,0.6c0.2,0.4,0.5,2,0.5,2s1-2.2,2.1-2.8C26.8,10,27,9.9,27.2,10c0.2,0.2,0.3,0.6,0.3,0.9
		c0,0.8-0.7,2.2-0.7,2.2s1.8-1.2,2.7-1.6c0.4-0.1,1-0.2,1.3,0.3c0.2,0.4,0.2,1-0.1,1.3c-0.2,0.4-0.6,0.5-1,0.6
		c-0.4,0.1-1.1,0.4-1.1,0.4s1-0.1,1.4,0.2c0.2,0.1,0.4,0.3,0.4,0.6c0,0.2-0.2,0.3-0.4,0.4c-0.5,0.2-1.6,0.1-1.6,0.1s2,1.1,1.4,2
		c-0.6,0.9-4-0.7-4-0.7s0.8,1.2,0.3,1.8c-0.5,0.6-1.7-1.5-1.7-1.5s0.1,0.8,0.1,1.2c0,0.4-0.1,0.9-0.4,1c-0.3,0.1-0.7-0.1-0.8-0.5
		c-0.2-0.4-0.2-1.2-0.2-1.2s-0.4,0.8-0.8,1.1c-0.3,0.3-0.7,0.4-1.1,0.2C21,18.8,21.4,17.8,21.4,17.8z"/>
	<path class="st10" d="M19.3,38.3c-0.1-0.1-0.2-0.3-0.3-0.4c1.9,0.4,3.8,0.5,5.7,0.2c-0.2-1.3-0.3-2.6-0.5-3.9c0-0.4,0.4-0.3,0.4,0
		c0.2,1.3,0.3,2.6,0.5,3.8c1.2-0.2,2.4-0.5,3.5-1c1.2-0.5,2.5-1.1,3.5-2.2c0,0,0,0,0,0c-0.1-0.2-0.2-0.3-0.3-0.4
		c-0.3-0.1-0.2-0.6,0-0.5c0.8,0.4,1,1.6,1.1,2.7c0,0.4-0.4,0.3-0.4,0c0-0.4-0.1-0.9-0.2-1.3c-1,1-2.1,1.6-3.2,2
		c-1.3,0.5-2.7,0.9-4.1,1.1C23.2,38.7,21.2,38.6,19.3,38.3z"/>
	<g>
		<path class="st11" d="M21.6,31.5c1.7-0.4,3.5-0.7,5.2-0.8c0.5,0,1.2,0,1.5,0.5c0.2,0.4,0.1,0.8,0,1.2c-0.4,0.9-1.2,1.5-2.1,1.8
			c-0.9,0.3-1.9,0.4-2.8,0.5c-0.6,0-1.1,0-1.7-0.1c-0.5-0.1-1.1-0.4-1.4-0.9c-0.3-0.5-0.3-1.1,0-1.6C20.6,31.8,21.1,31.6,21.6,31.5z
			"/>
		<path class="st12" d="M20.7,32.7c0.1-0.2,0.3-0.2,0.5-0.2c0.2,0,0.3,0.2,0.5,0.3c0.4,0.3,0.8,0.6,1.1,0.9c0,0,0,0,0,0.1
			c0.1,0,0.2,0.1,0.2,0.2c-0.6,0.1-1.2-0.1-1.8-0.3c-0.2-0.1-0.4-0.2-0.5-0.4C20.7,33.1,20.6,32.9,20.7,32.7z"/>
		<path class="st12" d="M26.8,31.9c0.1-0.2,0.2-0.3,0.3-0.5c0.1-0.1,0.3-0.2,0.5-0.1c0.2,0.1,0.3,0.3,0.3,0.5c0,0.2-0.2,0.5-0.3,0.7
			c-0.5,0.5-1.1,1-1.7,1.2C26.1,33.1,26.5,32.5,26.8,31.9z"/>
	</g>
	<path class="st10" d="M20.3,40.8c1.1,0.1,2.1,0,2.6,0c0.9,0,1.6-0.3,1.7-0.1c0,0.1-0.7,0.4-1.6,0.5c-0.5,0-1,0-1.4,0
		c-0.2,0-0.4,0-0.5,0c0,0-0.1-0.1-0.1-0.1C20.7,41,20.5,40.9,20.3,40.8z"/>
</g>
</svg>
