<?xml version="1.0" encoding="utf-8"?>
<!-- Generator: Adobe Illustrator 19.2.1, SVG Export Plug-In . SVG Version: 6.00 Build 0)  -->
<svg version="1.1" id="Layer_1" xmlns="http://www.w3.org/2000/svg" xmlns:xlink="http://www.w3.org/1999/xlink" x="0px" y="0px"
	 viewBox="0 0 50.4 55.3" style="enable-background:new 0 0 50.4 55.3;" xml:space="preserve">
<style type="text/css">
	.st0{fill:#447278;}
	.st1{fill:#4A9AA0;}
	.st2{fill:#A4C441;}
	.st3{fill:#FFAA4D;}
	.st4{fill:#FC7A38;}
	.st5{fill:#FF6A17;}
	.st6{fill:#FFFFFF;}
	.st7{fill:#FC1515;}
	.st8{fill:#CE0202;}
	.st9{fill:#F9C280;}
	.st10{fill:#FC7F03;}
</style>
<g>
	<path class="st0" d="M17.7,22.2c0.2,0.7,0.5,1.1,0.8,1.3c0.3,0.2,0.6,0.2,0.9,0c0.3-0.2,0.5-0.4,0.7-0.8c0.1-0.2,0.1-0.3,0.1-0.5
		c0-0.2,0-0.4,0-0.6c0-0.2-0.1-0.3-0.1-0.5c0-0.2-0.1-0.4-0.1-0.5c-0.1-0.4-0.1-0.8-0.2-1.2c-0.1-0.4-0.1-0.9-0.2-1.3
		c-0.1-0.5-0.1-0.9-0.2-1.4c-0.3-2-0.7-4.3-1.9-6.6c-0.6-1.1-1.4-2.2-2.5-3.1c-0.5-0.4-1.2-0.8-1.8-1.1c-0.6-0.3-1.3-0.5-2-0.6
		C9.8,4.9,8.3,5,7,5.3c-1.4,0.4-2.6,1.1-3.6,2c-1,0.9-1.8,2-2.4,3.1c-0.6,1.1-0.9,2.3-1,3.5c-0.1,1.1,0,2.2,0.2,3.2
		c0,0.1,0,0.2,0.1,0.4c0,0.1,0.1,0.2,0.1,0.4c0.1,0.2,0.1,0.4,0.2,0.6c0.1,0.4,0.2,0.8,0.3,1.1C1,19.8,1,20,1.1,20.2
		c0,0.2,0.1,0.3,0.1,0.5c0,0.1,0,0.1,0,0.2c0,0.1,0,0.1,0,0.2c0,0.1,0,0.2,0,0.4c-0.1,0.5-0.2,0.9-0.4,1.2c-0.3,0.6-0.8,0.8-0.8,1
		c0,0.1,0,0.1,0.1,0.1c0.1,0,0.2,0.1,0.3,0.1c0.3,0,0.7-0.1,1.1-0.4C2,23,2.4,22.5,2.6,21.7c0.1-0.2,0.1-0.4,0.1-0.6
		c0-0.2,0-0.4,0.1-0.6c0-0.2,0-0.4,0-0.6c0-0.2,0-0.4-0.1-0.6c-0.1-0.8-0.3-1.7-0.4-2.5c-0.1-0.8-0.1-1.7,0.1-2.6
		c0.1-0.9,0.4-1.8,0.9-2.6c0.4-0.8,1.1-1.6,1.8-2.2C5.9,8.7,6.8,8.2,7.7,8c0.9-0.3,2-0.3,2.9-0.1c1,0.2,1.9,0.6,2.6,1.2
		c0.7,0.6,1.4,1.4,1.8,2.3c0.2,0.4,0.4,0.9,0.6,1.4c0.2,0.5,0.3,1,0.5,1.4c0.1,0.5,0.2,1,0.3,1.4c0,0.2,0.1,0.5,0.1,0.7
		c0,0.2,0.1,0.5,0.1,0.7c0.1,0.5,0.1,0.9,0.2,1.4c0.1,0.5,0.1,0.9,0.2,1.3c0.1,0.4,0.1,0.9,0.2,1.3c0,0.2,0.1,0.4,0.1,0.6
		C17.6,21.8,17.7,22,17.7,22.2z"/>
	<path class="st1" d="M16.5,22.3c0.1,0.3,0.3,0.6,0.4,0.8c0.2,0.2,0.3,0.4,0.5,0.4c0.3,0.2,0.7,0.1,0.9-0.1c0.3-0.2,0.5-0.5,0.6-0.8
		c0-0.2,0.1-0.4,0.1-0.5c0-0.1,0-0.2,0-0.3c0-0.1,0-0.2-0.1-0.3c-0.2-0.6-0.4-1.4-0.5-2.3c-0.2-0.9-0.3-1.8-0.5-2.8
		c-0.2-1-0.5-2.2-1-3.3c-0.1-0.3-0.3-0.6-0.4-0.9c-0.1-0.1-0.2-0.3-0.2-0.4c-0.1-0.1-0.2-0.3-0.3-0.4c-0.4-0.6-0.8-1.1-1.3-1.6
		c-1-1-2.2-1.8-3.6-2.2c-0.7-0.2-1.5-0.3-2.2-0.3c-0.8,0-1.5,0.1-2.2,0.4C5.8,7.9,5.1,8.3,4.5,8.8C4.4,8.9,4.2,9,4.1,9.2
		C3.9,9.3,3.8,9.4,3.6,9.6C3.5,9.7,3.4,9.9,3.3,10c-0.1,0.2-0.2,0.3-0.3,0.5c-0.4,0.7-0.7,1.4-0.8,2.1c-0.2,0.7-0.2,1.4-0.2,2.1
		c0,1.4,0.2,2.6,0.5,3.8c0.1,0.6,0.2,1.1,0.4,1.7c0.1,0.5,0.2,1.1,0.4,1.6c0.2,1,0.5,2,0.7,2.9c0,0.1,0.1,0.2,0.1,0.3
		c0,0.1,0,0.2,0.1,0.3c0,0.1,0,0.2,0.1,0.3c0,0.1,0,0.2,0,0.3c0,0.1,0,0.2,0,0.3c0,0.1,0,0.2,0,0.3c0,0.2,0,0.4,0,0.5
		c0,0.3-0.1,0.6-0.1,0.9c-0.1,0.3-0.2,0.5-0.3,0.7c-0.1,0.1-0.1,0.2-0.2,0.2c-0.1,0.1-0.1,0.1-0.2,0.2c-0.2,0.1-0.3,0.2-0.5,0.3
		c-0.7,0.2-1.1,0-1.2,0.2c-0.1,0.1,0,0.2,0.2,0.5c0.2,0.2,0.6,0.4,1.2,0.4c0.3,0,0.6,0,0.9-0.2c0.2-0.1,0.3-0.1,0.5-0.2
		c0.2-0.1,0.3-0.2,0.5-0.4c0.3-0.3,0.6-0.6,0.8-1c0.2-0.4,0.3-0.9,0.4-1.3C6,27,6,26.7,6,26.5c0-0.1,0-0.2,0-0.4c0-0.1,0-0.2,0-0.4
		c0-0.1,0-0.2,0-0.4c0-0.1,0-0.2,0-0.4c0-0.1,0-0.2,0-0.4c0-0.1,0-0.2-0.1-0.4c-0.1-1-0.3-1.9-0.5-3c-0.2-1-0.4-2.1-0.6-3.3
		c-0.2-1.1-0.3-2.2-0.3-3.2c0-1,0.3-2,0.8-2.8c0.1-0.1,0.1-0.2,0.2-0.3c0.1-0.1,0.1-0.2,0.2-0.3c0.1-0.1,0.2-0.2,0.2-0.2
		C6,11.1,6.1,11,6.2,11c0.4-0.3,0.8-0.5,1.3-0.6c0.5-0.1,0.9-0.2,1.4-0.2c0.5,0,0.9,0.1,1.4,0.2c0.9,0.3,1.8,0.8,2.5,1.5
		c0.4,0.3,0.7,0.7,0.9,1.1c0.1,0.1,0.1,0.2,0.2,0.3c0.1,0.1,0.1,0.2,0.2,0.3c0.1,0.2,0.2,0.4,0.3,0.7c0.4,0.9,0.6,1.9,0.9,2.8
		c0.2,1,0.4,1.9,0.6,2.8C16,20.7,16.2,21.5,16.5,22.3z"/>
	<path class="st2" d="M15.7,22c0.3,1,1,1.3,1.6,1c0.3-0.1,0.6-0.4,0.7-0.7c0.2-0.3,0.2-0.7,0.1-1.1c-0.4-1.3-0.9-2.8-1.6-4.4
		c-0.2-0.4-0.4-0.8-0.6-1.3c-0.2-0.4-0.4-0.9-0.6-1.3c-0.2-0.4-0.5-0.9-0.7-1.3c-0.3-0.4-0.6-0.9-0.9-1.4c-0.3-0.5-0.8-0.9-1.2-1.3
		c-0.2-0.2-0.5-0.4-0.8-0.6c-0.3-0.2-0.6-0.3-0.9-0.5C10.1,9.1,9.4,8.9,8.6,9C7.9,9,7.1,9.3,6.5,9.8c-0.3,0.2-0.6,0.5-0.8,0.7
		c-0.2,0.3-0.4,0.5-0.6,0.8c-0.2,0.3-0.3,0.6-0.4,0.9c-0.1,0.3-0.2,0.6-0.3,0.9C4,14.4,4,15.6,4.1,16.7c0.1,1.1,0.4,2.2,0.6,3.1
		c0.3,1,0.6,1.9,0.8,2.7c0.3,0.8,0.5,1.6,0.6,2.3c0,0.2,0.1,0.4,0.1,0.5c0,0.2,0,0.3,0.1,0.5c0,0.3,0,0.7,0,1c0,0.6-0.1,1.2-0.1,1.6
		C6.1,29,6,29.4,5.9,29.8c-0.2,0.7-0.4,1.1-0.3,1.2C5.7,31.1,5.8,31,6,31c0.2-0.1,0.5-0.3,0.8-0.6C7.1,30,7.4,29.6,7.6,29
		c0.3-0.6,0.5-1.2,0.6-2c0.1-0.4,0.1-0.8,0.1-1.2c0-0.2,0-0.4,0-0.6c0-0.2,0-0.4,0-0.6c-0.1-0.9-0.2-1.8-0.4-2.7
		c-0.4-1.8-1-3.6-1.1-5.5c-0.1-0.9,0-1.8,0.2-2.6c0-0.2,0.1-0.4,0.2-0.6c0.1-0.2,0.2-0.4,0.3-0.5c0.1-0.2,0.2-0.3,0.3-0.4
		C7.8,12.2,8,12.1,8.1,12c0.3-0.2,0.5-0.3,0.8-0.3c0.3,0,0.6,0,0.9,0.2c0.2,0.1,0.3,0.1,0.5,0.2c0.2,0.1,0.3,0.2,0.4,0.3
		c0.3,0.2,0.6,0.5,0.8,0.9c0.3,0.3,0.5,0.7,0.7,1.1c0.2,0.4,0.5,0.8,0.7,1.2c0.2,0.4,0.4,0.8,0.6,1.2c0.2,0.4,0.4,0.8,0.5,1.1
		C14.8,19.5,15.3,20.8,15.7,22z"/>
	<path class="st0" d="M16.8,21.8c0.3,0.9,1,1,1.6,0.8c0.6-0.2,1.1-0.9,0.9-1.6c-0.4-1.1-0.9-2.4-1.6-3.8c-0.8-1.4-1.8-2.8-3-4.1
		c-0.3-0.3-0.7-0.7-1.1-1c-0.4-0.3-0.9-0.6-1.5-0.8c-0.2,0-0.3-0.1-0.5-0.1c-0.2,0-0.3-0.1-0.5-0.1c-0.3,0-0.7,0-1,0
		c-0.3,0.1-0.7,0.1-0.9,0.3c-0.3,0.1-0.6,0.3-0.8,0.5c-0.5,0.3-0.9,0.8-1.3,1.2c-0.4,0.5-0.6,1-0.8,1.5c-0.4,1-0.5,2.1-0.5,3.1
		c0,0.5,0,1,0.1,1.4c0,0.2,0.1,0.5,0.1,0.7c0,0.2,0.1,0.4,0.1,0.6c0,0.2,0.1,0.4,0.1,0.6c0.1,0.2,0.1,0.4,0.2,0.6
		c0.1,0.4,0.2,0.8,0.3,1.1c0.1,0.4,0.2,0.7,0.3,1c0.1,0.3,0.2,0.7,0.3,1c0.2,0.6,0.3,1.2,0.3,1.7c0.1,1,0,1.9,0,2.5
		c-0.1,0.6-0.1,1,0,1.1c0.2,0.1,0.6-0.1,1-0.7c0.2-0.3,0.4-0.7,0.6-1.2c0.2-0.5,0.3-1.1,0.3-1.7c0-0.6,0-1.3-0.1-2.1
		c-0.1-0.4-0.1-0.7-0.2-1.1C9,23,8.9,22.6,8.9,22.2c-0.1-0.4-0.2-0.7-0.2-1.1c0-0.2-0.1-0.4-0.1-0.6c0-0.2-0.1-0.4-0.1-0.6
		c0-0.2-0.1-0.4-0.1-0.6c0-0.2,0-0.4-0.1-0.6c0-0.4,0-0.8,0-1.1c0-0.7,0.1-1.5,0.4-2.1c0.1-0.3,0.3-0.6,0.5-0.8
		c0.2-0.2,0.4-0.5,0.6-0.6c0.1-0.1,0.2-0.1,0.3-0.2c0.1,0,0.2-0.1,0.3-0.1c0.1,0,0.2,0,0.3,0c0.1,0,0.1,0,0.2,0c0.1,0,0.1,0,0.2,0
		c0.2,0.1,0.5,0.2,0.8,0.4c0.3,0.2,0.5,0.4,0.8,0.7c1.1,1.1,2,2.3,2.7,3.5C16,19.7,16.4,20.8,16.8,21.8z"/>
	<path class="st1" d="M15.5,22.1c0.1,0.2,0.2,0.4,0.3,0.5c0.1,0.1,0.3,0.2,0.4,0.2c0.3,0.1,0.6,0.1,0.9-0.1c0.3-0.1,0.5-0.4,0.7-0.6
		c0.2-0.3,0.2-0.6,0.1-0.9c-0.4-1-0.9-2.2-1.6-3.5c-0.1-0.2-0.2-0.3-0.3-0.5c-0.1-0.2-0.2-0.3-0.3-0.5c-0.2-0.3-0.4-0.7-0.7-1
		c-0.1-0.2-0.2-0.3-0.4-0.5c-0.1-0.1-0.1-0.2-0.2-0.3c-0.1-0.1-0.1-0.2-0.2-0.3c-0.2-0.2-0.3-0.4-0.6-0.5c-0.2-0.2-0.5-0.4-0.7-0.5
		c-0.3-0.1-0.6-0.3-0.9-0.3c-0.2,0-0.4,0-0.5-0.1c-0.2,0-0.4,0-0.6,0.1c-0.2,0-0.4,0.1-0.6,0.2c-0.1,0-0.2,0.1-0.3,0.1
		c-0.1,0-0.2,0.1-0.2,0.1c-0.3,0.2-0.6,0.4-0.8,0.7c-0.2,0.3-0.4,0.5-0.5,0.8c-0.1,0.1-0.1,0.3-0.2,0.4c-0.1,0.1-0.1,0.3-0.1,0.4
		L8,16.4c0,0.1,0,0.3-0.1,0.4c-0.1,0.3-0.1,0.5-0.1,0.7c-0.2,1.9,0,3.7,0.2,5.3c0.2,1.6,0.3,3.1,0.3,4.5c0,0.7-0.1,1.3-0.2,1.8
		c-0.1,0.5-0.3,1.1-0.5,1.5c-0.4,0.9-0.9,1.5-1.3,1.9C6,33,5.7,33.2,5.8,33.5c0.1,0.2,0.5,0.3,1.2,0.1c0.3-0.1,0.7-0.3,1.1-0.6
		c0.4-0.3,0.8-0.7,1.2-1.2c0.4-0.5,0.7-1.1,0.9-1.8c0.2-0.7,0.4-1.4,0.5-2.2c0.2-1.6,0.1-3.3,0-4.9c-0.1-1.7-0.3-3.3-0.1-4.8
		c0-0.2,0-0.4,0.1-0.5c0-0.1,0-0.2,0-0.2l0.1-0.2c0-0.1,0-0.1,0.1-0.2c0-0.1,0-0.1,0.1-0.2c0-0.1,0.1-0.2,0.2-0.3
		c0.1-0.1,0.1-0.1,0.2-0.1c0,0,0.1,0,0.1,0c0,0,0,0,0,0c0,0,0,0,0.1,0c0.1,0,0.1,0,0.2,0.1c0.1,0,0.2,0.1,0.3,0.2
		c0.1,0.1,0.2,0.2,0.3,0.3c0.1,0,0.1,0.1,0.2,0.2c0.1,0.1,0.1,0.1,0.2,0.2c0.1,0.1,0.2,0.3,0.3,0.4c0.2,0.3,0.4,0.6,0.6,0.9
		c0.1,0.1,0.2,0.3,0.3,0.4c0.1,0.1,0.2,0.3,0.3,0.4C14.7,20.1,15.2,21.2,15.5,22.1z"/>
	<path class="st2" d="M15.5,23.7c0.2,0.3,0.4,0.5,0.7,0.6c0.3,0,0.6-0.1,0.9-0.3c0.3-0.2,0.5-0.4,0.6-0.6c0.2-0.2,0.2-0.4,0.1-0.6
		c-0.3-0.7-0.6-1.6-1-2.6c-0.2-0.5-0.5-1.1-0.8-1.6c-0.3-0.6-0.7-1.2-1.4-1.8c-0.3-0.3-0.7-0.6-1.2-0.8c-0.1,0-0.3-0.1-0.4-0.1
		c-0.1,0-0.3-0.1-0.4-0.1c-0.1,0-0.3,0-0.4,0c-0.1,0-0.3,0-0.5,0c-0.2,0-0.3,0.1-0.5,0.1c-0.2,0.1-0.3,0.1-0.4,0.2
		c-0.3,0.2-0.5,0.4-0.7,0.6c-0.1,0.1-0.1,0.1-0.2,0.2C10,16.8,9.9,16.9,9.9,17l-0.1,0.2c0,0.1-0.1,0.1-0.1,0.2l-0.1,0.2
		c0,0.1,0,0.1-0.1,0.2c0,0.1-0.1,0.2-0.1,0.3c-0.1,0.4-0.2,0.8-0.2,1.2c0,0.4,0,0.8,0,1.1c0,0.7,0.1,1.4,0.2,2
		c0.1,0.7,0.2,1.3,0.3,1.9c0,0.3,0.1,0.6,0.1,0.8c0,0.1,0,0.1,0,0.2c0,0.1,0,0.1,0,0.2c0,0.1,0,0.3,0,0.4c0.1,1,0.1,2,0.1,2.7
		c0,0.8-0.1,1.4-0.2,1.8c-0.1,0.4-0.1,0.8,0.1,0.9c0.1,0.1,0.2,0.1,0.4,0c0.2-0.1,0.3-0.2,0.5-0.4c0.4-0.4,0.8-1.1,1.1-2
		c0.3-0.9,0.4-2,0.4-3.2c0-0.1,0-0.3,0-0.4c0-0.1,0-0.2,0-0.2c0-0.1,0-0.2,0-0.2c0-0.3,0-0.6-0.1-0.9c-0.1-0.6-0.1-1.2-0.2-1.8
		c0-0.6-0.1-1.2-0.1-1.8c0-0.3,0-0.6,0-0.8c0-0.3,0.1-0.5,0.1-0.7c0-0.1,0-0.1,0-0.1l0-0.1l0,0c0,0,0,0,0,0c0,0,0,0,0,0c0,0,0,0,0,0
		c0,0,0,0,0,0c0,0,0,0,0,0c0,0,0,0,0.1,0c0,0,0,0,0.1,0c0,0,0,0,0.1,0c0.1,0,0.2,0.1,0.4,0.2c0.1,0.1,0.3,0.3,0.4,0.5
		c0.1,0.2,0.3,0.4,0.4,0.6c0.3,0.4,0.5,0.9,0.7,1.3C14.9,22,15.2,22.9,15.5,23.7z"/>
	<path class="st3" d="M37.8,52.7c0.3,0,0.7-0.1,1.2-0.1c0,0,0,0,0,0c-0.2-1.4-0.1-12.5-0.1-12.5l1.3-0.8c0,0-0.3,11.6-0.2,13.1
		c0.1,0,1.4-0.4,1.8-0.4c0.5,0,1.6-0.1,1.9,0.4c0.3,0.5-1,0.5-1.3,0.6c0.5,0.1,1.6,0.4,1.7,0.9c0.1,0.5-2,0-2.2,0
		c0.1,0.1,0.1,0.1,0.1,0.2c0.1,0.2,0.7,1,0.1,1.1c-0.5,0-1.1-0.7-1.5-0.9c-0.1-0.1-0.2-0.2-0.3-0.2c-0.2-0.1-0.4-0.2-0.5-0.3
		c-0.4,0-0.7,0-1.1,0c-0.2,0-0.8,0.1-0.9,0C37.5,53.6,37.4,52.8,37.8,52.7C38.1,52.7,37.4,52.8,37.8,52.7z"/>
	<path class="st3" d="M27.6,52.7c0.3,0,0.7-0.1,1.2-0.1c0,0,0,0,0,0c-0.2-1.4-0.1-12.4-0.1-12.4l1.3-0.8c0,0-0.3,11.5-0.2,13
		c0.1,0,1.4-0.4,1.8-0.4c0.5,0,1.6-0.1,1.9,0.4c0.3,0.5-1,0.5-1.3,0.6c0.5,0.1,1.6,0.4,1.7,0.9c0.1,0.5-2,0-2.2,0
		c0.1,0.1,0.1,0.1,0.1,0.2c0.1,0.2,0.7,1,0.1,1.1c-0.5,0-1.1-0.7-1.5-0.9c-0.1-0.1-0.2-0.2-0.3-0.2c-0.2-0.1-0.4-0.2-0.5-0.3
		c-0.4,0-0.7,0-1.1,0c-0.2,0-0.8,0.1-0.9,0C27.4,53.6,27.3,52.8,27.6,52.7C27.9,52.7,27.2,52.8,27.6,52.7z"/>
	<path class="st0" d="M39.4,44.4c-0.4-0.1-0.7-0.5-0.9-0.9c-0.6-1.1-1-2.3-1.2-3.6c1.6-0.3,3.1-0.5,4.7-0.5c0,1.5-0.5,2.9-1.3,4.2
		C40.4,44,39.9,44.5,39.4,44.4z"/>
	<path class="st1" d="M29.2,44.4c-0.4-0.1-0.7-0.5-0.9-0.9c-0.6-1.1-1-2.3-1.2-3.6c1.6-0.3,3.1-0.5,4.7-0.5c0,1.5-0.5,2.9-1.3,4.2
		C30.3,44,29.8,44.5,29.2,44.4z"/>
	<path class="st1" d="M48.8,11.5c0.4,2,0.7,3.9,1,5.9c0.5,3.7,1,7.4,0.5,11.1c-0.5,3.7-2,7.4-4.9,9.7c-2.8,2.2-6.4,3-9.9,3.1
		c-3.2,0.2-6.6,0.2-9.6-0.9c-11.4-4.3-12.4-20.8-8.4-20.1c3.9,0.7,8.7,4.4,11.6,0c1.7-2.6,3.6-8.2,5.3-10.8
		C37.1,5.2,46.7,2.6,48.8,11.5z"/>
	<path class="st4" d="M32.4,21.8c-0.6-0.2-0.6-1-0.5-1.7c0.2-1.2,0.6-3.5,0.6-3.5s-1.4,3.6-3.2,4.3c-0.3,0.1-0.6,0.2-0.9,0.2
		c0.2-0.3,0.4-0.5,0.6-0.8c1.7-2.6,3.6-8.2,5.3-10.8c2.8-4.3,12.4-7,14.5,1.9c0.4,2,0.7,3.9,1,5.9c0.2,1.4,0.4,2.8,0.5,4.3
		c-1.6-0.4-2.5-4.3-2.5-4.3s0.2,2.3,0.2,3.4c0,0.4-0.1,0.8-0.4,1.1c-0.4,0.3-1,0.2-1.4-0.1c-0.8-0.5-1.3-1.3-1.6-2.1
		c-0.3-0.9-0.5-2.7-0.5-2.7s0.1,3.2-0.4,4.7c-0.2,0.6-0.5,1.3-1.2,1.5c-0.9,0.2-1.6-0.6-2-1.4c-0.8-1.7-0.6-5.2-0.6-5.2
		s-0.4,3.8-0.9,4.5c-0.5,0.7-1.5,1-2.2,0.6c-0.6-0.3-0.8-1-1-1.6c-0.3-1.1-0.2-3.5-0.2-3.5s-0.9,3.2-1.9,4.5
		C33.5,21.5,32.9,22,32.4,21.8z"/>
	<g>
		<path class="st5" d="M47.6,9.4c-0.5,0.5-0.5,1.2-0.1,1.7c0.2,0.3,0.6,0.5,1,0.5c0.5,0,0.9-0.5,1.1-0.9c0.1-0.4,0.1-0.8-0.1-1.1
			c-0.2-0.3-0.7-0.6-1.1-0.6C48,9,47.8,9.2,47.6,9.4z"/>
		<path class="st6" d="M37.1,10.4c-0.4,0.4-0.4,1-0.1,1.4c0.2,0.2,0.5,0.4,0.9,0.4c0.4,0,0.8-0.4,0.9-0.7c0.1-0.3,0.1-0.7-0.1-0.9
			c-0.2-0.3-0.6-0.5-0.9-0.5C37.5,10.1,37.2,10.2,37.1,10.4z"/>
		<path d="M37.2,11.3c0,0.1,0.1,0.2,0.2,0.3c0.2,0.1,0.4,0.1,0.6,0c0.2-0.1,0.2-0.4,0.1-0.6c-0.1-0.2-0.3-0.3-0.6-0.3
			C37.3,10.7,37.2,11,37.2,11.3z"/>
		<path class="st6" d="M47.7,9.5c-0.4,0.4-0.4,1-0.1,1.4c0.2,0.2,0.5,0.4,0.9,0.4c0.4,0,0.8-0.4,0.9-0.7c0.1-0.3,0.1-0.7-0.1-0.9
			c-0.2-0.3-0.6-0.5-0.9-0.5C48.1,9.2,47.9,9.3,47.7,9.5z"/>
		<path d="M47.9,10.4c0,0.1,0.1,0.2,0.2,0.3c0.2,0.1,0.4,0.1,0.6,0c0.2-0.1,0.2-0.4,0.1-0.6c-0.1-0.2-0.3-0.3-0.6-0.3
			C48,9.8,47.8,10.2,47.9,10.4z"/>
	</g>
	<g>
		<path class="st4" d="M48.1,23.5c0-0.1-0.2,0-0.2,0c0,0.2,0.1,0.6,0.1,1c0,0.2,0,0.3,0,0.5c0,0.1,0,0.2,0.1,0.2
			c0,0,0.1-0.1,0.1-0.2c0-0.1,0.1-0.3,0.1-0.5C48.2,24.1,48.1,23.7,48.1,23.5z"/>
		<path class="st4" d="M46.4,24.5c0-0.1-0.2-0.1-0.2,0c0,0.3,0.1,0.7,0,1.2c0,0.1,0,0.2,0,0.3c0,0.1,0,0.2,0,0.2c0,0.1,0,0.2,0,0.3
			c0,0,0.1-0.1,0.1-0.2c0-0.1,0.1-0.2,0.1-0.2c0-0.1,0-0.2,0.1-0.3C46.5,25.2,46.5,24.7,46.4,24.5z"/>
		<path class="st4" d="M49.2,25.7c0-0.1-0.2-0.1-0.2,0c0,0.2,0,0.6-0.1,1c0,0.1,0,0.2-0.1,0.2c0,0.1-0.1,0.1-0.1,0.2
			c0,0.1,0,0.2,0,0.2c0,0,0.1,0,0.2-0.1c0-0.1,0.1-0.1,0.1-0.2c0-0.1,0.1-0.2,0.1-0.3C49.2,26.3,49.2,25.9,49.2,25.7z"/>
		<path class="st4" d="M45.9,22.7c0-0.1-0.2-0.1-0.2,0c0,0.3-0.1,1.1,0,1.1S46,23,45.9,22.7z"/>
		<path class="st4" d="M44.7,23.8c0-0.1-0.2-0.1-0.2,0c0,0.4-0.1,1.4,0,1.4C44.7,25.3,44.7,24.2,44.7,23.8z"/>
		<path class="st4" d="M43.3,24.9c0-0.1-0.2-0.1-0.2-0.1c-0.1,0.4-0.4,1.5-0.3,1.5C43,26.4,43.2,25.3,43.3,24.9z"/>
		<path class="st4" d="M44,26.2c0-0.1-0.2,0-0.2,0c0,0.2,0,0.5,0,0.9c0,0.3-0.1,0.6,0,0.6c0,0,0.1,0,0.1-0.1
			c0.1-0.1,0.1-0.2,0.1-0.4C44,26.8,44,26.4,44,26.2z"/>
		<path class="st4" d="M47.8,26.3c0-0.1-0.2-0.1-0.2,0c-0.1,0.5-0.3,1.7-0.2,1.8C47.6,28.1,47.8,26.8,47.8,26.3z"/>
		<path class="st4" d="M45.6,27.5c0-0.1-0.2-0.1-0.2,0c-0.1,0.4-0.3,1.4-0.2,1.4C45.4,28.9,45.5,27.9,45.6,27.5z"/>
		<path class="st4" d="M48.5,28.9c0-0.1-0.2-0.1-0.2,0c0,0.2,0,0.7-0.1,1c0,0.1,0,0.2,0,0.3c0,0.1,0,0.2,0,0.2c0,0.1,0,0.2,0,0.2
			c0,0,0.1-0.1,0.1-0.2c0-0.1,0.1-0.1,0.1-0.2c0-0.1,0-0.2,0.1-0.3C48.6,29.6,48.6,29.1,48.5,28.9z"/>
		<path class="st4" d="M46.8,29.6c0-0.1-0.2-0.1-0.2,0c0,0.2,0,0.6-0.2,1c0,0.1-0.1,0.2-0.1,0.2c0,0.1-0.1,0.1-0.1,0.2
			c0,0.1-0.1,0.2,0,0.2c0,0,0.1,0,0.2-0.1c0-0.1,0.1-0.1,0.1-0.2c0-0.1,0.1-0.2,0.1-0.3C46.8,30.3,46.8,29.8,46.8,29.6z"/>
		<path class="st4" d="M44.2,28.8c0-0.1-0.2-0.1-0.2,0c0,0.3-0.1,0.8-0.3,1.3c-0.1,0.2-0.1,0.4-0.2,0.6c0,0.2-0.1,0.3,0,0.3
			c0,0,0.1-0.1,0.2-0.2c0.1-0.1,0.2-0.3,0.3-0.6C44.1,29.6,44.2,29.1,44.2,28.8z"/>
		<path class="st4" d="M42.6,27.7c0-0.1-0.2-0.1-0.2,0c-0.1,0.3-0.3,1.2-0.1,1.2C42.3,28.9,42.5,28,42.6,27.7z"/>
		<path class="st4" d="M41.7,26.3c0-0.1-0.2-0.1-0.2,0c-0.1,0.3-0.3,1.1-0.1,1.2C41.5,27.5,41.6,26.6,41.7,26.3z"/>
		<path class="st4" d="M42.3,30.2c0-0.1-0.2-0.1-0.2-0.1c-0.1,0.2-0.3,0.9-0.2,1S42.3,30.5,42.3,30.2z"/>
		<path class="st4" d="M41,28.7c0-0.1-0.2-0.1-0.2,0c0,0.2,0,0.6-0.1,1c0,0.2-0.1,0.3-0.1,0.5c0,0.1,0,0.2,0,0.2c0,0,0.1,0,0.1-0.2
			c0.1-0.1,0.1-0.3,0.2-0.5C41.1,29.4,41.1,28.9,41,28.7z"/>
		<path class="st4" d="M44.8,31.1c0-0.1-0.2-0.1-0.2,0c0,0.2-0.1,0.6-0.2,0.9c0,0.1-0.1,0.1-0.1,0.2c0,0.1-0.1,0.1-0.1,0.2
			c0,0.1-0.1,0.2,0,0.2c0,0,0.1,0,0.2-0.1c0,0,0.1-0.1,0.1-0.2c0-0.1,0.1-0.1,0.1-0.2C44.8,31.8,44.8,31.3,44.8,31.1z"/>
		<path class="st4" d="M47.6,31.9c0-0.1-0.2-0.1-0.2-0.1c-0.2,0.4-0.6,1.5-0.5,1.5C47,33.4,47.5,32.3,47.6,31.9z"/>
		<path class="st4" d="M45.6,33.3c0-0.1-0.2-0.2-0.2-0.1c-0.2,0.3-0.8,1.1-0.7,1.2C44.9,34.4,45.4,33.6,45.6,33.3z"/>
		<path class="st4" d="M43.2,32.2c0-0.1-0.2-0.1-0.2,0c0,0.2-0.2,0.5-0.3,0.8c0,0.1-0.1,0.1-0.1,0.2c0,0.1-0.1,0.1-0.1,0.2
			c-0.1,0.1-0.1,0.2-0.1,0.2c0,0,0.1,0,0.2-0.1c0,0,0.1-0.1,0.1-0.1c0-0.1,0.1-0.1,0.1-0.2C43.1,32.7,43.2,32.4,43.2,32.2z"/>
		<path class="st4" d="M41.3,31.4c0-0.1-0.2-0.1-0.2-0.1c-0.1,0.2-0.2,0.5-0.4,0.8c-0.1,0.1-0.2,0.3-0.2,0.4c-0.1,0.1-0.1,0.2,0,0.2
			c0,0,0.1,0,0.2-0.1c0.1-0.1,0.2-0.2,0.3-0.3C41.1,32,41.2,31.6,41.3,31.4z"/>
		<path class="st4" d="M41.5,33.3c0-0.1-0.2-0.1-0.2-0.1c-0.2,0.4-0.6,1.5-0.5,1.6C41,34.8,41.4,33.7,41.5,33.3z"/>
		<path class="st4" d="M39.8,32c0-0.1-0.2-0.2-0.2-0.1c-0.1,0.3-0.6,1-0.5,1.1C39.3,33,39.7,32.3,39.8,32z"/>
		<path class="st4" d="M40.2,34.3c0.1-0.1-0.1-0.2-0.2-0.2c-0.3,0.3-1,1.1-0.9,1.2C39.2,35.4,39.9,34.6,40.2,34.3z"/>
		<path class="st4" d="M43.4,34.6c0-0.1-0.2-0.2-0.2-0.1c-0.2,0.3-0.9,1.2-0.7,1.2C42.6,35.8,43.2,34.9,43.4,34.6z"/>
		<path class="st4" d="M46.4,34.5c0.1-0.1-0.1-0.2-0.2-0.1c-0.3,0.4-1.1,1.4-1,1.5C45.4,35.9,46.2,34.9,46.4,34.5z"/>
		<path class="st4" d="M48,34.1c0-0.1-0.2-0.2-0.2-0.1c-0.2,0.3-0.8,1.1-0.6,1.1C47.3,35.2,47.8,34.4,48,34.1z"/>
		<path class="st4" d="M43.7,36.2c0.1-0.1-0.1-0.2-0.2-0.1c-0.1,0.2-0.4,0.4-0.7,0.6c-0.1,0-0.1,0.1-0.2,0.1c-0.1,0-0.1,0.1-0.2,0.1
			c-0.1,0.1-0.2,0.1-0.1,0.2c0,0,0.1,0,0.2,0c0.1,0,0.1,0,0.2-0.1c0.1,0,0.1-0.1,0.2-0.1C43.3,36.7,43.6,36.4,43.7,36.2z"/>
		<path class="st4" d="M41.3,36c0,0-0.1-0.2-0.1-0.2c-0.2,0.2-0.8,0.6-0.7,0.7C40.5,36.7,41.1,36.2,41.3,36z"/>
		<path class="st4" d="M37.9,35.2c0.1-0.1-0.1-0.2-0.1-0.2c-0.3,0.2-1,0.8-0.9,0.9C36.9,36,37.6,35.4,37.9,35.2z"/>
		<path class="st4" d="M39.2,36.2c0-0.1-0.2-0.1-0.2-0.1c-0.1,0.1-0.2,0.3-0.4,0.4c0,0-0.1,0.1-0.1,0.1c0,0-0.1,0-0.1,0.1
			c-0.1,0-0.1,0.1-0.1,0.1c0,0,0.1,0,0.1,0c0,0,0.1,0,0.1,0c0.1,0,0.1-0.1,0.2-0.1C39,36.6,39.1,36.4,39.2,36.2z"/>
		<path class="st4" d="M40.7,37.4c0-0.1-0.2-0.2-0.2-0.1c-0.1,0.1-0.3,0.4-0.5,0.5c-0.1,0.1-0.2,0.2-0.3,0.2
			c-0.1,0.1-0.1,0.1-0.1,0.1c0,0,0.1,0,0.2,0c0.1,0,0.2-0.1,0.3-0.2C40.4,37.8,40.6,37.5,40.7,37.4z"/>
		<path class="st4" d="M45.3,36.9c0-0.1-0.2-0.1-0.2-0.1c-0.1,0.2-0.2,0.4-0.4,0.6c0,0-0.1,0.1-0.1,0.1c0,0-0.1,0.1-0.1,0.1
			c-0.1,0.1-0.1,0.1-0.1,0.2c0,0,0.1,0,0.2,0c0,0,0.1,0,0.2-0.1c0.1,0,0.1-0.1,0.2-0.1C45.1,37.4,45.2,37.1,45.3,36.9z"/>
		<path class="st4" d="M42.5,38.6c0.1-0.1-0.1-0.2-0.2-0.2c-0.1,0.1-0.4,0.4-0.7,0.5c-0.1,0.1-0.3,0.1-0.4,0.2
			c-0.1,0.1-0.2,0.1-0.1,0.1c0,0,0.1,0,0.2,0c0.1,0,0.3-0.1,0.4-0.1C42.1,39,42.4,38.7,42.5,38.6z"/>
		<path class="st4" d="M38.4,38.2c0.1-0.1,0-0.2-0.1-0.2c-0.2,0.1-0.7,0.3-1.1,0.4c-0.1,0-0.2,0.1-0.3,0.1c-0.1,0-0.2,0-0.3,0.1
			c-0.1,0-0.2,0.1-0.2,0.1c0,0,0.1,0.1,0.3,0.1c0.1,0,0.2,0,0.3,0c0.1,0,0.2,0,0.3-0.1C37.6,38.5,38.1,38.3,38.4,38.2z"/>
		<path class="st4" d="M37,36.6c0-0.1-0.2-0.2-0.2-0.1c-0.1,0.1-0.3,0.3-0.5,0.4c-0.1,0-0.1,0.1-0.1,0.1c0,0-0.1,0-0.1,0.1
			c-0.1,0-0.1,0.1-0.1,0.1c0,0,0.1,0,0.2,0c0,0,0.1,0,0.2,0c0.1,0,0.1-0.1,0.2-0.1C36.7,37,36.9,36.8,37,36.6z"/>
		<path class="st4" d="M39.4,39.4c0.1,0,0-0.2-0.1-0.2c-0.4,0.1-1.5,0.5-1.5,0.6C37.9,40,39,39.6,39.4,39.4z"/>
		<path class="st4" d="M34.7,36.9c0.1-0.1-0.1-0.2-0.1-0.2c-0.1,0.1-0.4,0.3-0.7,0.4c-0.1,0-0.1,0-0.2,0.1c-0.1,0-0.1,0-0.2,0
			c-0.1,0-0.1,0.1-0.1,0.1c0,0,0.1,0.1,0.2,0.1c0.1,0,0.1,0,0.2,0c0.1,0,0.1,0,0.2-0.1C34.3,37.2,34.6,37,34.7,36.9z"/>
		<path class="st4" d="M35.6,38.1c0.1,0-0.1-0.2-0.1-0.2c-0.3,0.1-1,0.4-0.9,0.5C34.7,38.5,35.4,38.2,35.6,38.1z"/>
		<path class="st4" d="M36.6,39.5c0.1-0.1-0.1-0.2-0.1-0.2c-0.2,0.1-0.5,0.3-0.8,0.4c-0.2,0.1-0.3,0.1-0.4,0.1
			c-0.1,0-0.2,0.1-0.2,0.1c0,0,0.1,0.1,0.2,0.1c0.1,0,0.3,0,0.4-0.1C36.1,39.8,36.4,39.6,36.6,39.5z"/>
		<path class="st4" d="M33.9,39.6c0.1,0,0-0.2,0-0.2c-0.3,0.1-1.2,0.2-1.2,0.3C32.7,39.9,33.6,39.7,33.9,39.6z"/>
		<path class="st4" d="M33,38c0.1,0,0-0.2-0.1-0.2c-0.4,0.1-1.5,0.4-1.5,0.6C31.5,38.5,32.6,38.2,33,38z"/>
		<path class="st4" d="M34.8,40.7c0.1,0,0-0.2,0-0.2c-0.3,0-1.2,0.1-1.1,0.2C33.7,40.9,34.5,40.8,34.8,40.7z"/>
		<path class="st4" d="M38,40.6c0.1,0,0-0.2,0-0.2c-0.3,0-1.1,0-1,0.1C37,40.7,37.7,40.6,38,40.6z"/>
		<path class="st4" d="M31.6,40.3c0.1,0,0-0.2,0-0.2c-0.3,0-1.3,0.1-1.2,0.2C30.3,40.4,31.2,40.3,31.6,40.3z"/>
		<path class="st4" d="M31.1,39.2c0.1,0,0-0.2,0-0.2c-0.2,0-0.9,0.1-0.9,0.3C30.2,39.4,30.8,39.3,31.1,39.2z"/>
		<path class="st4" d="M28.7,39.8c0.1,0,0-0.2,0-0.2c-0.4,0-1.4,0.1-1.3,0.2C27.4,40,28.4,39.9,28.7,39.8z"/>
		<path class="st4" d="M29.4,38.6c0.1,0,0-0.2-0.1-0.2c-0.4,0.1-1.5,0.4-1.4,0.5C28,39,29,38.7,29.4,38.6z"/>
	</g>
	<path class="st7" d="M35.8,3.4c-0.4-0.4-1-0.7-1.6-0.7c-0.6,0-1.1,0.3-1.4,0.8c-0.7,1.1,1.3,5.9,3,4.8c3.1-2,6.2-2.2,9.4-0.4
		c0.5,0.3,1.5-1.1,1.9-1.6c0.4-0.5,0.8-1,1-1.6s0.2-1.3-0.1-1.9c-0.3-0.6-0.9-1-1.5-1c-0.6,0-1.2,0.6-1.3,1.2c0-0.6,0-1.2-0.3-1.7
		c-0.2-0.5-0.8-1-1.4-0.9c-0.7,0.1-1.1,0.9-1.4,1.6c0-0.4-0.1-0.8-0.2-1.2c-0.2-0.4-0.4-0.7-0.8-0.8c-0.6-0.2-1.2,0.2-1.6,0.7
		S39,1.8,38.9,2.4c0-0.7-0.5-1.3-1.2-1.5c-0.7-0.2-1.4,0.1-1.9,0.6S35.4,2.9,35.8,3.4z"/>
	<path class="st0" d="M38.5,22.3c-0.4,4.7-4,8.9-8.5,10.1c-4.5,1.2-9.7-0.7-12.4-4.6c-0.2-0.3-0.4-0.7-0.3-1.1
		c0.2-0.7,1.2-0.7,1.9-0.6c2.7,0.4,5.6-0.5,7.7-2.2c1.4-1.1,2.4-2.6,3.8-3.7c1.4-1,3.1-1.5,4.8-1.3c1,0.1,2.1,0.4,2.6,1.3
		C38.5,20.8,38.5,21.6,38.5,22.3z"/>
	<g>
		<path class="st2" d="M34.8,25.2c-0.4,0.2-1,0.2-1.4-0.1c-0.8-0.4-1.1-1.1-1-1.9c-1.3,0.5-3.3-1.4-1.5-2.6c0.1-0.1,0.5,0.2,0.4,0.2
			c-0.5,0.3-0.7,0.8-0.7,1.4c0.1,1.3,1.6,0.7,1.9,0c0,0,0-0.1,0-0.1c0.1-0.1,0.5,0.1,0.5,0.2c0,0.1-0.1,0.1-0.1,0.2
			c-0.2,0.6-0.3,1.1-0.1,1.7c0.4,1,1.6,0.8,1.9,0.1c0-0.1,0.1-0.2,0.1-0.2c0.1-0.1,0.5,0.1,0.5,0.2c0,0.1-0.1,0.2-0.1,0.3
			c-0.1,0.3-0.1,0.6-0.1,0.9c0.1,0.8,1.2,0.7,1.2-0.1c0-0.1,0.5,0,0.5,0.1c0,0.7-0.7,1-1.3,0.8C35,26.1,34.8,25.7,34.8,25.2z"/>
		<path class="st2" d="M31.3,27.3c-0.4,0.3-1,0.4-1.5,0.1c-0.7-0.3-0.8-0.9-0.7-1.4c-0.3,0.1-0.6,0.1-1,0c-1.2-0.6-0.5-1.7,0.3-2.3
			c0.1-0.1,0.5,0.2,0.5,0.2c-0.6,0.4-1.1,0.9-0.9,1.7c0.2,0.8,1.2-0.1,1.3-0.2c0,0,0.1-0.1,0.1-0.2c0.1-0.2,0.2-0.4,0.3-0.5
			c0.1-0.1,0.5,0.1,0.5,0.2c-0.1,0.2-0.2,0.3-0.3,0.5c-0.3,0.4-0.4,0.9-0.3,1.5c0.1,0.5,0.8,0.6,1.2,0.4c0.4-0.2,0.7-0.6,1-1
			c0.1-0.1,0.5,0.1,0.5,0.2c-0.4,0.7-0.7,1.3-0.5,2.1c0.3,1.1,1.3,0.5,1.8,0.3c0.4-0.2,0.6-0.6,0.9-1c0.1-0.1,0.5,0.1,0.5,0.2
			c-0.7,1-1.6,1.6-2.8,1.1C31.2,28.8,31.1,28,31.3,27.3z"/>
		<path class="st2" d="M23.1,26.8c0.1,0,0.6,0.3,0.3,0.3c-1.4,0.2-1.6,2.5,0,2.3c0,0,0,0,0,0c0,0,0.1,0,0.1,0c0,0,0,0,0,0
			c0,0,0,0,0,0c0.1,0,0.5,0.2,0.3,0.3c-0.1,0-0.2,0-0.3,0c-0.4,0.1-0.7,0.2-0.9,0.6c-0.4,0.9,1.2,1.1,1.8,1c0.1,0,0.6,0.3,0.3,0.3
			c-0.8,0.1-1.9,0.1-2.4-0.6c-0.4-0.7-0.2-1.2,0.4-1.4c-0.3-0.1-0.6-0.3-0.8-0.6C21.3,28,22.2,26.9,23.1,26.8z"/>
		<path class="st2" d="M24.7,27.3c-0.7-0.8,0.6-1.5,1.3-1.6c0.2,0,0.6,0.3,0.3,0.3c-0.3,0-0.6,0.1-0.9,0.3c-0.9,0.6,0.5,1.3,1.2,1.1
			c0.1,0,0.6,0.2,0.4,0.3c-0.4,0.2-0.8,0.5-1,0.9c-0.2,0.8,0.2,1.1,1.2,0.9c0.1,0,0.2-0.1,0.3-0.1c0.2-0.1,0.4-0.2,0.5-0.3
			c0.1-0.1,0.6,0.2,0.4,0.3c-0.1,0.1-0.3,0.1-0.4,0.2c-0.1,0.1-0.2,0.1-0.3,0.2c-0.8,0.6,0.3,1.3,0.9,1.4c0.7,0.1,1.4-0.1,2-0.5
			c0.2-0.1,0.6,0.2,0.4,0.3c-1,0.6-2.2,0.7-3.4,0.3c-0.4-0.2-0.7-0.5-0.7-0.9c0-0.1,0-0.3,0.1-0.4c-0.4,0-0.8-0.1-1.1-0.3
			c-0.7-0.6-0.4-1.2,0.1-1.7C25.4,27.8,25,27.6,24.7,27.3z"/>
	</g>
	<path class="st8" d="M47.9,14.1c0.5,1.1,0.9,2.2,1.3,3.3c0.3,0.8,0.5,1.8,0.1,2.5c-0.3,0.5-0.7,0.8-1.3,0.8c-0.6,0-1.2-0.4-1.5-1
		C46.1,19.2,46,18.6,46,18c-0.1-1.6,0-3.2,0.2-4.8c0.3-0.3,0.8-0.2,1.1,0C47.5,13.4,47.7,13.8,47.9,14.1z"/>
	<path class="st7" d="M47,14.4c0.3,1.1,0.5,2.3,0.6,3.5c0.1,0.9,0.1,1.8-0.5,2.5c-0.3,0.4-0.9,0.6-1.4,0.5c-0.6-0.1-1.1-0.6-1.3-1.2
		c-0.2-0.6-0.2-1.3-0.1-1.9c0.2-1.6,0.7-3.1,1.1-4.7c0.3-0.2,0.8,0,1.1,0.3C46.8,13.6,46.9,14,47,14.4z"/>
	<g>
		<path class="st3" d="M46.5,14c0.5,0.1,0.9,0.3,1.3,0.6c-0.1-0.8-0.7-1.5-1.4-1.8c-0.7-0.4-1.6-0.5-2.3-0.3c0,0.9,0.4,1.3,0.6,1.5
			c0.2,0.1,0.5,0.1,0.7,0.1C45.8,13.9,46.1,13.9,46.5,14z"/>
		<path class="st9" d="M46.7,11.3c0.4,0.1,1.8,0.7,1.1,3.3c-1.1-1.1-3.1-1.6-3.3-1.7c-0.2-0.1-0.4-0.3-0.4-0.5
			c-0.1-0.3,0.2-0.6,0.5-0.8C45.2,11.3,46,11.2,46.7,11.3z"/>
		<path class="st10" d="M45.1,11.7c0.2-0.1,0.4,0,0.6,0.1c0.1,0.1,0.2,0.4,0.2,0.6c-0.1-0.1-0.3-0.2-0.5-0.2c-0.1,0-0.2,0-0.3,0
			c-0.1,0-0.2-0.1-0.2-0.2C44.9,11.8,45,11.7,45.1,11.7z"/>
		<path class="st10" d="M46.8,11.5c0.1,0,0.1,0.1,0.1,0.2C47,11.8,47,12,47,12.2c-0.2-0.2-0.4-0.4-0.6-0.5c0,0-0.1,0-0.1-0.1
			c0,0,0-0.1,0-0.1c0,0,0.1,0,0.1,0C46.6,11.4,46.7,11.4,46.8,11.5z"/>
	</g>
	<path class="st3" d="M38.9,49.7c0-0.1,0.2-0.1,0.5-0.1c0.2,0,0.4,0.1,0.4,0.3c-0.1,0.4-0.5,1-1.2,1.2c-0.3,0.1-0.7,0.1-1.1,0
		c-0.4-0.1-0.7-0.4-0.8-0.8c-0.1-0.2-0.1-0.4-0.1-0.6c0-0.2,0.1-0.4,0.2-0.5c0,0,0.1-0.1,0.1-0.1c0,0,0.1-0.1,0.1-0.1
		c0.1-0.1,0.2-0.1,0.2-0.1c0.2-0.1,0.3,0,0.5,0c0,0,0.1,0,0.1,0l0,0l0,0l0,0c0,0,0,0,0,0l0,0l0,0l0,0l0,0c0,0,0,0,0,0c0,0,0,0,0,0
		l0,0c0.1,0.1,0.1,0.2,0.1,0.3c0,0.2-0.1,0.2-0.2,0.2c-0.1,0-0.1-0.1-0.2-0.1c0,0-0.1,0-0.1,0c0,0,0,0,0,0c0,0,0,0,0,0c0,0,0,0,0,0
		l0,0l0,0l0,0c0,0,0,0,0,0l0,0l0,0l0,0c0,0,0,0,0,0c0,0-0.1,0-0.1,0.1c0,0,0,0,0,0c0,0,0,0,0,0c0,0,0,0,0,0c0,0.1,0,0.2,0,0.3
		c0.1,0.1,0.2,0.2,0.3,0.3c0.1,0.1,0.3,0.1,0.5,0c0.2,0,0.3-0.1,0.4-0.2C38.8,49.9,38.8,49.8,38.9,49.7z"/>
	<path class="st3" d="M28.8,49.7c0-0.1,0.2-0.1,0.5-0.1c0.2,0,0.4,0.1,0.4,0.3c-0.1,0.4-0.5,1-1.2,1.2c-0.3,0.1-0.7,0.1-1.1,0
		c-0.4-0.1-0.7-0.4-0.8-0.8c-0.1-0.2-0.1-0.4-0.1-0.6c0-0.2,0.1-0.4,0.2-0.5c0,0,0.1-0.1,0.1-0.1c0,0,0.1-0.1,0.1-0.1
		c0.1-0.1,0.2-0.1,0.2-0.1c0.2-0.1,0.3,0,0.5,0c0,0,0.1,0,0.1,0l0,0l0,0l0,0c0,0,0,0,0,0l0,0l0,0l0,0l0,0c0,0,0,0,0,0c0,0,0,0,0,0
		l0,0c0.1,0.1,0.1,0.2,0.1,0.3c0,0.2-0.1,0.2-0.2,0.2c-0.1,0-0.1-0.1-0.2-0.1c0,0-0.1,0-0.1,0c0,0,0,0,0,0c0,0,0,0,0,0c0,0,0,0,0,0
		l0,0l0,0l0,0c0,0,0,0,0,0l0,0l0,0l0,0c0,0,0,0,0,0c0,0-0.1,0-0.1,0.1c0,0,0,0,0,0c0,0,0,0,0,0c0,0,0,0,0,0c0,0.1,0,0.2,0,0.3
		c0.1,0.1,0.2,0.2,0.3,0.3c0.1,0.1,0.3,0.1,0.5,0c0.2,0,0.3-0.1,0.4-0.2C28.7,49.9,28.8,49.8,28.8,49.7z"/>
</g>
</svg>
