<?xml version="1.0" encoding="utf-8"?>
<!-- Generator: Adobe Illustrator 19.2.1, SVG Export Plug-In . SVG Version: 6.00 Build 0)  -->
<svg version="1.1" id="Layer_1" xmlns="http://www.w3.org/2000/svg" xmlns:xlink="http://www.w3.org/1999/xlink" x="0px" y="0px"
	 viewBox="0 0 72.4 69.8" style="enable-background:new 0 0 72.4 69.8;" xml:space="preserve">
<style type="text/css">
	.st0{fill:#594C3D;}
	.st1{fill:#33291F;}
	.st2{fill:#EAE2D8;}
	.st3{fill:#DDD3C7;}
	.st4{fill:#F7EFE7;}
	.st5{fill:#473A2E;}
	.st6{fill:#EA888A;}
	.st7{fill:#FFFFFF;}
	.st8{fill:#F93E48;}
	.st9{fill:#BC3139;}
	.st10{fill:#FFFEFD;}
</style>
<g>
	<polygon points="22.1,69.4 21,69.3 20.8,66.9 21.3,66.8 	"/>
	<path class="st0" d="M18.5,48.6c0.2,5.4-0.1,10.7,0,16.2c0,0.4,0,0.8,0,0.8l3.4,0c0,0,0-0.6,0-0.8c-0.4-5.3-0.6-10.7-0.2-16
		C21.9,46.2,18.4,46.4,18.5,48.6z"/>
	<path class="st1" d="M21.9,64.8c-0.9,1-2.5,0.8-3.4,0c-0.7,0.6-1.6,2.9-1.6,2.9s1.2,2.8,4.4,2c0-0.3-0.2-2.5-0.2-2.5l0.9,2.3
		c0,0,1-0.2,1.2-1.2C23.2,67.6,22.8,65.9,21.9,64.8z"/>
	<polygon points="30.8,69.4 29.7,69.3 29.5,66.9 30,66.8 	"/>
	<path class="st0" d="M27.2,48.6c0.2,5.4-0.1,10.7,0,16.2c0,0.4,0,0.8,0,0.8l3.4,0c0,0,0-0.6,0-0.8c-0.4-5.3-0.6-10.7-0.2-16
		C30.6,46.2,27.1,46.4,27.2,48.6z"/>
	<path class="st1" d="M30.6,64.8c-0.9,1-2.5,0.8-3.4,0c-0.7,0.6-1.6,2.9-1.6,2.9s1.2,2.8,4.4,2c0-0.3-0.2-2.5-0.2-2.5l0.9,2.3
		c0,0,1-0.2,1.2-1.2C31.9,67.6,31.5,65.9,30.6,64.8z"/>
	<polygon points="44.6,69.4 43.5,69.3 43.3,66.9 43.8,66.8 	"/>
	<path class="st0" d="M41,48.6c0.2,5.4-0.1,10.7,0,16.2c0,0.4,0,0.8,0,0.8l3.4,0c0,0,0-0.6,0-0.8c-0.4-5.3-0.6-10.7-0.2-16
		C44.4,46.2,40.9,46.4,41,48.6z"/>
	<path class="st1" d="M44.4,64.8c-0.9,1-2.5,0.8-3.4,0c-0.7,0.6-1.6,2.9-1.6,2.9s1.2,2.8,4.4,2c0-0.3-0.2-2.5-0.2-2.5l0.9,2.3
		c0,0,1-0.2,1.2-1.2C45.7,67.6,45.3,65.9,44.4,64.8z"/>
	<polygon points="53.3,69.4 52.2,69.3 52,66.9 52.5,66.8 	"/>
	<path class="st0" d="M49.7,48.6c0.2,5.4-0.1,10.7,0,16.2c0,0.4,0,0.8,0,0.8l3.4,0c0,0,0-0.6,0-0.8c-0.4-5.3-0.6-10.7-0.2-16
		C53.2,46.2,49.6,46.4,49.7,48.6z"/>
	<path class="st1" d="M53.1,64.8c-0.9,1-2.5,0.8-3.4,0c-0.7,0.6-1.6,2.9-1.6,2.9s1.2,2.8,4.4,2c0-0.3-0.2-2.5-0.2-2.5l0.9,2.3
		c0,0,1-0.2,1.2-1.2C54.4,67.6,54,65.9,53.1,64.8z"/>
	<g>
		<path class="st2" d="M28.1,49.5c0.4,2.9,3,5.2,5.6,5c2.6-0.2,4.9-2.9,4.9-5.8c0.5,3.6,3.8,6.4,7.1,6.1c3.3-0.4,6.1-3.8,5.9-7.5
			c2,2.7,6.3,2.2,8.3-0.5c2-2.7,1.8-6.8,0.3-9.9c2,0.4,4.1-1,4.9-3.1c0.8-2.1,0.4-4.6-0.8-6.4c-1.2-1.8-3.1-3-5.1-3.5
			c3.2-1.5,5-5.7,4.3-9.4c-0.7-3.7-3.7-6.7-7.1-7.2c-3.4-0.6-7,1.2-9.1,4.2c0.6-2.4-0.6-5-2.5-6.3c-1.9-1.3-4.4-1.3-6.5-0.5
			C36.2,5.5,34.5,7.1,33,9c-2.5-4.2-7.7-6.2-12-4.5c-4.3,1.7-7.2,6.8-6.8,11.8c-3-2.7-8.1-1.7-10,2.1s-0.1,9.1,3.6,10.5
			c-3.2-0.4-6.5,1.9-7.5,5.3s0.3,7.4,3,9.2c2.7,1.8,6.6,1.3,8.8-1.2c-0.4,1.4-0.7,2.9-0.6,4.4c0.1,1.5,0.8,3,1.9,3.8
			c1.2,0.8,2.9,0.5,3.6-0.7c0.5,2.8,2.9,5.1,5.5,5.1C25.2,54.6,27.7,52.3,28.1,49.5z"/>
		<path class="st3" d="M45.4,34.3c3.2-1.5,5-5.7,4.3-9.4c-0.7-3.7-3.7-6.7-7.1-7.2c-3.4-0.6-7,1.2-9.1,4.2c0.6-2.4-0.6-5-2.5-6.3
			c-1.9-1.3-4.4-1.3-6.5-0.5c-2.1,0.9-3.9,2.5-5.3,4.4c-1.2-2-3-3.5-5-4.3c0,0.4,0,0.8,0,1.2c-3-2.7-8.1-1.7-10,2.1
			s-0.1,9.1,3.6,10.5c-3.2-0.4-6.5,1.9-7.5,5.3c-1,3.3,0.3,7.4,3,9.2c2.7,1.8,6.6,1.3,8.8-1.2c-0.4,1.4-0.7,2.9-0.6,4.4
			c0.1,1.5,0.8,3,1.9,3.8c1.2,0.8,2.9,0.5,3.6-0.7c0.5,2.8,2.9,5.1,5.5,5.1c2.6,0,5-2.3,5.5-5.1c0.4,2.9,3,5.2,5.6,5
			c2.6-0.2,4.9-2.9,4.9-5.8c0.5,3.6,3.8,6.4,7.1,6.1c0.6-0.1,1.1-0.2,1.6-0.4c0.5-2.3,0.1-4.9-0.9-7c2,0.4,4.1-1,4.9-3.1
			c0.8-2.1,0.4-4.6-0.8-6.4C49.3,35.9,47.4,34.7,45.4,34.3z"/>
		<path class="st4" d="M60.2,36.8c0.2,0,0.4,0.1,0.6,0.1c1.4-2.3,1.6-5.5,0.3-7.9c-1.5-2.8-4.9-4.3-7.7-3.3c0.9-1,1.8-2,2.3-3.3
			c0.5-1.3,0.6-2.8-0.1-4c-0.7-1.2-2.2-1.8-3.3-1.1c0.7-2.5-0.4-5.6-2.5-6.8c-0.4-0.2-0.8-0.4-1.3-0.5c-0.5,0.4-0.9,0.9-1.2,1.5
			c0.1-0.5,0.2-1.1,0.1-1.6c-1.6,0-3.2,0.8-4.2,2.2c0.9-2.5-0.4-5.7-2.6-6.8c-0.9-0.4-1.8-0.5-2.7-0.3c-1.3,0.6-2.5,1.6-3.5,2.6
			c0,0,0,0.1-0.1,0.1c0,0,0-0.1,0-0.1C33.9,8,33.4,8.5,33,9c-2.5-4.2-7.7-6.2-12-4.5c-4.3,1.7-7.2,6.8-6.8,11.8
			C12,14.2,8.4,14.3,6,16.2c0.4,0.6,0.9,1.2,1.4,1.7c-1.2-0.1-2.3,0.2-3.4,0.7c-1.6,3.7,0.2,8.8,3.7,10.2c-2.2-0.3-4.5,0.8-6.1,2.7
			C2.2,32,2.6,32.5,3.2,33c2.6,2.1,6.2,2.4,9.1,1c-1.4,1.7-1.5,4.4-0.5,6.4c1.1,2,3.1,3.2,5.1,3.5c2.1,0.3,4.2-0.2,6.1-1
			c0.2,3.3,2.1,6.4,4.6,8.1c0.2-0.5,0.3-0.9,0.4-1.4c0.1,0.7,0.3,1.5,0.7,2.1c0.7,0.4,1.5,0.6,2.3,0.7c2.6,0.4,5.3-0.4,7.3-2.2
			c0.1-0.5,0.2-1,0.2-1.5c0.1,0.4,0.1,0.8,0.3,1.1c1.1-1,2-2.3,2.5-3.8c1.4,3.7,6,5.3,9.1,3.2c0.5-0.3,0.9-0.7,1.2-1.2
			c0-0.2,0-0.4,0-0.7c0.1,0.1,0.2,0.2,0.3,0.3c1.7-2.5,1.7-6.4-0.2-8.8c2.5,1.8,6.1,1.5,8.3-0.7c0.2-0.2,0.4-0.4,0.6-0.7
			C60.4,37.2,60.3,37,60.2,36.8z"/>
		<path class="st2" d="M65.2,28.9c-0.2-0.6-0.5-1.1-0.8-1.6c-1.2-1.8-3.1-3-5.1-3.5c1.6-0.8,2.8-2.1,3.5-3.8
			c-1.7-0.7-3.7-0.4-5.2,0.8c0.4-1,0.8-2.1,0.9-3.2c0-1.1-0.3-2.3-1.1-3c-0.8-0.7-2.1-0.7-2.7,0.2c-0.1-2.1-1.7-4.1-3.6-4.3
			c-1.9-0.3-3.9,1.1-4.5,3.2c0-2.2-1.7-4.2-3.7-4.3c-2-0.1-3.9,1.6-4.1,3.8C38.6,10.5,36.4,8,34,7.9c0,0,0,0,0,0
			C33.6,8.3,33.3,8.6,33,9c-0.2-0.3-0.4-0.6-0.6-0.9c-1.9,0.6-3.4,2.5-3.6,4.7c-1.2-2.2-4.4-2.3-6.1-0.5s-2,4.8-1.1,7.2
			c-1.4-0.5-3.1,0.3-3.9,1.7c-0.8,1.4-0.7,3.3,0,4.8c0.7,1.5,2,2.5,3.5,3.1c-2.5,0.8-4.2,3.7-4,6.5c0.2,2.8,2.2,5.3,4.6,6.1
			c2.5,0.8,5.3-0.1,7.1-2.1c-0.7,1.7,0,3.8,1.3,4.9c1.3,1.2,3.1,1.4,4.7,1c1.6-0.4,3.1-1.4,4.3-2.7c1.4,3.4,5.1,5.4,8.4,4.6
			c3.3-0.8,6-4.2,6.1-8c1.9,2.2,5.6,2.1,7.4-0.2c-0.2-1-0.5-1.9-0.9-2.7c0.7,0.1,1.3,0.1,2-0.2c0.2-2.2-0.8-4.5-2.6-5.5
			C61.7,31.7,63.9,30.7,65.2,28.9z"/>
		<path class="st4" d="M64.4,27.3c-1.2-1.8-3.1-3-5.1-3.5c3.2-1.5,5-5.7,4.3-9.4c-0.1-0.4-0.2-0.9-0.3-1.3c-0.3,0.2-0.6,0.3-0.8,0.6
			c0.3-0.4,0.4-0.9,0.5-1.4c-0.7-1.5-1.8-2.8-3.1-3.8c-1.1,0-2.1,0.5-2.8,1.4c0.5-0.8,0.7-1.7,0.6-2.5c-0.4-0.1-0.8-0.2-1.1-0.3
			c-3.4-0.6-7,1.2-9.1,4.2c0.6-2.4-0.6-5-2.5-6.3c-0.5-0.4-1.1-0.6-1.7-0.8c-0.7,0.8-1.2,1.9-1.5,2.9c-0.8-1-2.4-1.1-3.6-0.4
			c-1.2,0.7-2,2.1-2.1,3.5c-0.1,1.4,0.3,2.7,1.1,3.7c-2.1-0.5-4.7,0.8-5.8,2.9c-1.1,2.1-0.8,4.7,0.6,6.4c1.4,1.6,3.9,2.2,6.1,1.6
			c-1.2,0.9-1.7,2.7-1.3,4.1c0.4,1.4,1.6,2.4,3,2.8c1.4,0.4,2.9,0.3,4.3,0c-0.5,3,1.3,6.1,4.1,7c2.8,0.9,6.2-0.4,8-3.1
			c0.4,2.3,2.8,3.7,5,3.2c-0.2-0.6-0.4-1.3-0.7-1.9c1.5,0.3,3-0.4,4.1-1.6c0.3-1.1,0.3-2.3-0.3-3.3c0.4,0.4,0.9,0.7,1.4,0.9
			C65.8,30.9,65.4,28.9,64.4,27.3z"/>
	</g>
	<path class="st5" d="M69.3,9.8c-1.4,0.3-2.9,0.5-4.4,0.5c-1,0-1.9,0-2.8-0.4c-0.9-0.4-1.7-1.1-1.8-2.1c2.7,0,5.2-1.2,7.6-2.3
		c0.9-0.4,1.8-0.8,2.7-0.6c0.7,0.1,1.3,0.6,1.6,1.3c0.3,0.6,0.3,1.4-0.1,2C71.6,9.2,70.4,9.6,69.3,9.8z"/>
	<path class="st6" d="M71.4,8.2c-0.5,0.6-1.3,0.9-2.1,1.1c-1.5,0.4-3.1,0.6-4.6,0.5c-0.5,0-1-0.1-1.5-0.3c-0.5-0.2-0.9-0.6-1.1-1
		c2.8,0.2,5.7-0.3,8.3-1.3C70.6,7.1,70.8,7,71,7c0.2,0,0.5,0.1,0.6,0.3C71.8,7.6,71.6,8,71.4,8.2z"/>
	<path class="st5" d="M45.4,22.1c0.9-1.2,1.7-2.4,2.4-3.7c0.4-0.9,0.8-1.8,0.8-2.7c0-1-0.3-2-1.1-2.5c-1.1,2.4-3.3,4.2-5.3,5.9
		c-0.7,0.6-1.5,1.3-1.7,2.2c-0.2,0.7,0,1.4,0.5,1.9c0.4,0.5,1.2,0.8,1.8,0.8C43.9,23.9,44.7,23,45.4,22.1z"/>
	<path class="st6" d="M43.1,23.4c0.8-0.2,1.4-0.8,1.9-1.4c1-1.2,1.8-2.5,2.4-4c0.2-0.5,0.4-1,0.4-1.5c0-0.5-0.1-1.1-0.5-1.4
		c-1,2.6-2.7,5-4.7,6.9c-0.2,0.2-0.4,0.3-0.5,0.5c-0.1,0.2-0.1,0.5,0,0.7C42.3,23.4,42.7,23.4,43.1,23.4z"/>
	<path class="st0" d="M49,22.1c1.3,3.7,3.2,7.4,6.4,9.7c3.2,2.3,8,2.7,11,0.1c2.9-2.5,3.3-6.8,2.7-10.6c-0.6-3.6-1.9-7.1-4.1-9.9
		c-2.2-2.8-5.5-5-9-5.5c-1.5-0.2-3.1-0.2-4.5,0.5c-2,1-3.2,3.2-3.7,5.4C47.1,15.3,47.8,18.8,49,22.1z"/>
	<g>
		<path class="st0" d="M64.4,14.5c0.7,0.1,1.5-0.2,1.9-0.8c0.4-0.6,0.3-1.5-0.2-2c-0.3-0.3-0.8-0.5-1.3-0.4
			c-0.5,0.1-0.9,0.3-1.1,0.7c-0.2,0.3-0.3,0.7-0.3,1.1c0,0.3,0,0.6,0.2,0.9C63.8,14.3,64.1,14.5,64.4,14.5z"/>
		<path class="st7" d="M50.6,18.5c-0.2,0.6-0.1,1.3,0.3,1.7c0.4,0.4,1.2,0.5,1.7,0.2c0.3-0.2,0.6-0.6,0.6-1c0-0.4-0.1-0.8-0.4-1.1
			c-0.2-0.2-0.6-0.3-0.9-0.4c-0.2-0.1-0.5-0.1-0.7,0C50.9,18.1,50.7,18.3,50.6,18.5z"/>
		<path d="M52.5,19.1c0-0.3-0.2-0.6-0.6-0.7c-0.3,0-0.6,0.1-0.8,0.4c-0.2,0.4,0,0.9,0.4,1C52,20.1,52.5,19.6,52.5,19.1z"/>
		<path class="st7" d="M64.5,14.3c0.6,0.1,1.3-0.1,1.6-0.7c0.3-0.5,0.3-1.3-0.2-1.7c-0.3-0.3-0.7-0.4-1.1-0.4
			c-0.4,0.1-0.8,0.3-1,0.6c-0.2,0.3-0.2,0.6-0.2,1c0,0.3,0,0.5,0.1,0.7C64,14.1,64.2,14.2,64.5,14.3z"/>
		<path d="M64.6,12.6c-0.3,0-0.5,0.3-0.5,0.6c0,0.3,0.2,0.5,0.5,0.6c0.4,0.1,0.8-0.2,0.8-0.6S64.9,12.5,64.6,12.6z"/>
	</g>
	<path class="st4" d="M54.2,14c0.4,0.7,1.4,0.9,2.1,0.5c0.7-0.4,1-1.3,0.6-2c0.6,0.8,1.8,1.1,2.6,0.6c0.9-0.5,1.2-1.7,0.7-2.6
		c0.8,0.4,1.9-0.3,2.2-1.2c0.2-0.9-0.3-1.9-1-2.5c0.6-0.2,1-0.8,1-1.4c0-0.6-0.4-1.2-1-1.5c-0.5-0.3-1.2-0.3-1.8-0.2
		c0.7-0.8,0.7-2,0.1-2.8C59.1,0.2,58-0.2,57,0.1c-1,0.3-1.8,1.2-2,2.2c-0.1-0.7-0.7-1.2-1.4-1.2C53,1,52.3,1.3,51.8,1.7
		c-0.5,0.5-0.8,1.1-0.9,1.7c-1.1-0.7-2.8-0.6-3.8,0.4c-1,0.9-1.2,2.6-0.5,3.7c-1.1-0.3-2.4,0.6-2.5,1.8c-0.1,1.2,1,2.2,2.2,2.1
		c-0.9,0.3-1.5,1.3-1.4,2.2c0.1,0.9,0.9,1.8,1.9,1.9c0.9,0.1,1.9-0.5,2.2-1.4c0.1,0.4,0.1,0.8,0.3,1.2c0.2,0.4,0.5,0.6,1,0.7
		c0.4,0,0.8-0.2,0.9-0.6c0.4,0.6,1.4,0.9,2.1,0.5C54,15.7,54.4,14.8,54.2,14z"/>
	<g>
		<path class="st1" d="M55.8,28.7c0.1-0.2,0.1-0.4,0.1-0.6c0,0,0.4-0.1,0.4,0c0,0.1,0,0.3,0,0.5c0.8,0.6,2,0.8,2.9,0.6
			c1.3-0.2,2.2-1.1,2.5-2.3c0.2-1.2-0.2-2.4-0.7-3.6c0-0.1,0-0.1,0.1-0.2c0.1-0.2,0.4-0.3,0.4-0.2c0.1,0.3,0.1,0.5,0.2,0.8
			c0.1,0.2,0.1,0.3,0.2,0.5c0.3,0.8,0.7,1.5,1.4,2.1c1.1,0.9,2.7,0.9,3.6,0c0.4-0.4,0.7-1,0.8-1.6c-0.1-0.1-0.3-0.2-0.3-0.2
			c0,0,0.2-0.3,0.3-0.3c0.1,0.1,0.3,0.2,0.5,0.2c0.2,0.1,0.4,0.1,0.4,0.2c0,0.1-0.2,0.2-0.4,0.2c-0.3,1.3-1.4,2.5-3,2.6
			c0.2,0.9-0.7,1.7-1.5,2c-1,0.4-2.2,0.5-2.9-0.4c-1.3,0.8-3.1,1-4.5,0c-0.1,0.1-0.3,0.2-0.3,0.1C55.7,29,55.8,28.9,55.8,28.7z"/>
		<path class="st8" d="M61.8,27.9c0.3,0.3,1,0.1,1.3-0.1c0.3-0.2,0.5-0.4,0.6-0.7c-0.7-0.3-1.2-0.7-1.5-1.3
			C62.2,26.6,62.1,27.2,61.8,27.9C61.8,27.9,61.8,27.9,61.8,27.9z"/>
		<path class="st0" d="M64.6,27.3c-0.2,0-0.3,0-0.5-0.1c-0.3,0.5-0.7,0.9-1.3,1c-0.4,0.1-0.9,0.1-1.2-0.1c-0.1,0.1-0.2,0.2-0.3,0.3
			c-0.1,0.1-0.2,0.2-0.2,0.2c0.5,0.6,1.3,0.7,2.1,0.5C64,29,65,28.3,64.6,27.3z"/>
	</g>
	<g>
		<path class="st6" d="M59.8,20.9c0.6-0.3,1.3-0.6,2-0.5c0.5,0.1,0.9,0.3,1.1,0.7c0.1,0.4,0.1,0.8-0.1,1.2c-0.2,0.4-0.4,0.9-0.7,1.3
			c-0.2,0.3-0.4,0.5-0.8,0.6c-0.4,0.1-0.7,0-1.1-0.2c-0.4-0.2-0.8-0.4-1.1-0.7c-0.4-0.3-0.8-0.8-0.7-1.3c0-0.3,0.2-0.5,0.5-0.7
			C59.2,21.2,59.5,21.1,59.8,20.9z"/>
		<path class="st9" d="M59.1,22.2c0.2-0.2,0.8-0.5,1-0.3c0.2,0.1,0.3,0.4,0.4,0.6c0.1,0.3,0.2,0.7,0.4,1c0.1,0.3,0.5,0.4,0.7,0.1
			c0.1-0.1,0.1-0.3,0.1-0.4c0-0.3-0.2-0.7-0.3-1c-0.1-0.4-0.2-1,0.4-1.1c0.4,0,0.8,0.3,0.6,0.7c-0.1,0.3-0.6,0.3-0.9,0.2
			c0,0.1,0.1,0.2,0.1,0.3c0.1,0.3,0.3,0.7,0.1,1c-0.1,0.2-0.3,0.4-0.6,0.4c-0.3,0-0.4-0.1-0.5-0.3c-0.1-0.3-0.2-0.6-0.3-0.9
			c-0.2,0.2-0.4,0.4-0.7,0.4C59.2,23,58.8,22.6,59.1,22.2z"/>
	</g>
	<path class="st10" d="M57.2,9c0,0,2.4,0.6,3.1,0.1C61,8.7,60.5,8,60,7.8c-0.5-0.2-1.6,0-1.6,0s1-0.9,1.4-1.6c0.2-0.3,0.3-0.8,0-1.1
		c-0.2-0.2-0.5-0.1-0.8,0c-0.7,0.3-1.4,0.7-2.1,1.1c0.3-0.7,0.4-1.5,0.2-2.3c-0.1-0.3-0.2-0.6-0.4-0.8C56.6,2.9,56.3,2.9,56,3
		c-0.2,0.1-0.4,0.4-0.5,0.6c-0.5,0.8-1.1,2.1-1.1,2.1s-0.9-1.4-1.7-2c-0.2-0.2-0.5-0.3-0.8-0.3c-0.3,0.1-0.5,0.5-0.5,0.9
		c0,0.4,0.6,1.9,0.6,1.9s-2-1.4-3.2-1.3c-0.2,0-0.4,0-0.5,0.3c-0.1,0.3,0,0.7,0.2,0.9c0.4,0.7,1.7,1.6,1.7,1.6S48,7.6,47,7.8
		c-0.5,0.1-1,0.3-1,0.9c0,0.5,0.3,0.9,0.7,1.1c0.4,0.2,0.8,0.1,1.2,0.1c0.4-0.1,1.1-0.2,1.1-0.2s-0.9,0.4-1.1,0.8
		c-0.1,0.2-0.2,0.5,0,0.7c0.1,0.2,0.3,0.2,0.5,0.2c0.5-0.1,1.4-0.7,1.4-0.7s-1.2,2-0.2,2.5c1,0.5,3.1-2.6,3.1-2.6s-0.1,1.5,0.6,1.7
		c0.7,0.3,0.7-2.1,0.7-2.1s0.4,0.7,0.6,1.1c0.2,0.4,0.5,0.7,0.9,0.7c0.3,0,0.5-0.5,0.5-0.9c0-0.4-0.5-1.2-0.5-1.2s0.8,0.5,1.2,0.6
		c0.4,0.1,0.9,0,1.1-0.4C58,9.7,57.2,9,57.2,9z"/>
</g>
</svg>
