<?xml version="1.0" encoding="utf-8"?>
<!-- Generator: Adobe Illustrator 19.2.1, SVG Export Plug-In . SVG Version: 6.00 Build 0)  -->
<svg version="1.1" id="Layer_1" xmlns="http://www.w3.org/2000/svg" xmlns:xlink="http://www.w3.org/1999/xlink" x="0px" y="0px"
	 viewBox="0 0 41.5 69.2" style="enable-background:new 0 0 41.5 69.2;" xml:space="preserve">
<style type="text/css">
	.st0{fill:#895430;}
	.st1{fill:#E5C8A5;}
	.st2{fill:#BC784A;}
	.st3{fill:#DD8D57;}
	.st4{fill:#FFFFFF;}
	.st5{fill:#FFAC48;}
	.st6{fill:#6B3D18;}
	.st7{fill:#51290E;}
	.st8{fill:#AFAFAF;}
	.st9{fill:#424241;}
</style>
<g>
	<path class="st0" d="M35.9,51.5c-0.5,2.6-1,5.8-0.7,8c0.4,2.8-0.3,6.1-2,8.5c-1.1,1.6-4.4,1-6.9,1.2c-3.3,0.2-3.5-4.3,0.2-4.6
		c0.8,0,1.1-4.7,0.7-6.2c-1.7-6.5-2.3-9.9-0.9-14.9c0.4-1.4,2.9-2.5,4.4-0.5C32.2,45.1,36.2,50.4,35.9,51.5z"/>
	<path class="st0" d="M11,51.6c0.5,2.6,1,5.7,0.7,7.9c-0.4,2.8,0.6,6.1,2.3,8.5c1.1,1.6,4.4,1,6.9,1.2c3.3,0.2,3.5-4.3-0.2-4.6
		c-0.8,0-1.1-4.7-0.7-6.2c1.7-6.5,2.3-9.9,0.9-14.9c-0.4-1.4-2.9-2.5-4.4-0.5C15,45.1,10.8,50.5,11,51.6z"/>
	<g>
		<path class="st0" d="M12.2,27c-2,2.4-15.5-7-11.4-18c0.3-0.9,0.8-1.9,1.5-2.5C3,5.9,4,5.7,4.3,6.3c0,0.2-0.1,0.4-0.1,0.7
			c0.3-1,1.5-1.9,2.2-1.6c0.7,0.3-0.1,2.5-0.1,2.5s1-1.3,1.5-1.2c0.5,0.1,0.7,0.8,0.6,1.5c-0.1,0.7-0.5,1.4-1,2.1
			c-0.4,0.7-0.9,1.3-1.3,2C2.8,20,14.2,24.6,12.2,27z"/>
		<path class="st1" d="M6.3,7.9c0,0,1-1.3,1.5-1.2c0.5,0.1,0.7,0.8,0.6,1.5C8.3,8.8,8,9.4,7.6,10c-2.3,1-5,0.2-6.8-1.3
			C1.2,7.9,1.7,7,2.3,6.5C3,5.9,4,5.7,4.3,6.3c0,0.2-0.1,0.4-0.1,0.7c0.3-1,1.5-1.9,2.2-1.6C7.1,5.7,6.3,7.9,6.3,7.9z"/>
	</g>
	<g>
		<path class="st2" d="M27.1,3.8c-0.9-2.7,0.7-3.7,1.8-3.6c1,0.1,2.1,1,2.1,2c0,1.7-1.5,2.2-2.5,2.7C27.6,5.3,27.4,4.7,27.1,3.8z"/>
		<path class="st0" d="M27.6,3.9c-0.6-1.8,0.3-2.8,1.1-2.7C29.3,1.3,30,1.9,30,2.6c0,1.1-1.1,1.5-1.8,1.8C28,4.2,27.9,4.1,27.6,3.9z
			"/>
		<path class="st2" d="M19.8,4.4c-2.7-1-2.5-2.9-1.7-3.7c0.7-0.7,2.1-1,2.9-0.4c1.3,1.1,0.7,2.6,0.5,3.6C21.3,4.9,20.7,4.7,19.8,4.4
			z"/>
		<path class="st0" d="M20.3,4.1c-1.8-0.6-1.9-2-1.4-2.5c0.4-0.5,1.4-0.6,1.9-0.2c0.8,0.7,0.5,1.8,0.3,2.5C20.8,3.9,20.6,4,20.3,4.1
			z"/>
	</g>
	<path class="st2" d="M25,60.2c-26.3,0-15-22.2-14.7-36.9c0.2-10.6,5-20,12.5-20.3c7.5-0.3,13.1,5.4,13.8,15.4
		C37.3,28.5,49.5,60.2,25,60.2z"/>
	<path class="st3" d="M13.4,36c-0.1,3.6-0.2,7.4,0.6,10.9c0.7,3,2.8,5.3,6.5,6.2c3.5,0.8,7.8,0.4,11-1.1c3.7-1.7,4.4-4.7,4.6-7.9
		c0.4-6.1,1.1-14.3-7.7-16.3c-2-0.5-4.1-0.5-6.1-0.5C15.1,27.2,13.5,33.4,13.4,36C13.3,38.9,13.5,34,13.4,36z"/>
	<g>
		<path class="st4" d="M19.7,29c0.1-0.1,0.3,0,0.3,0.1c-0.1,0.1-0.1,0.3-0.2,0.6c0,0.1,0,0.1,0,0.2c0,0.1,0,0.1,0,0.2l0,0.1
			c0,0,0,0.1,0,0.1c0,0.1,0,0.1,0,0.2c0,0.1,0,0.1,0,0.2c0,0.1,0,0.1,0,0.2c0,0.1,0,0.2,0,0.3c0,0.2,0,0.3,0,0.3
			c-0.1,0-0.1-0.1-0.2-0.2c0-0.1-0.1-0.2-0.1-0.3c0-0.1,0-0.1,0-0.2c0-0.1,0-0.1,0-0.2c0-0.1,0-0.1,0-0.2c0,0,0-0.1,0-0.1l0-0.1
			c0-0.1,0-0.1,0-0.2c0-0.1,0-0.1,0-0.2C19.5,29.4,19.6,29.1,19.7,29z"/>
		<path class="st4" d="M22.9,29.8c0-0.1,0.3-0.1,0.3,0c0,0.1,0,0.2,0,0.2c0,0.1,0,0.2,0,0.3c0,0.1,0,0.2,0,0.3l0,0.1
			c0,0,0,0.1,0,0.1c0,0.1,0,0.1,0,0.2c0,0.1,0,0.2-0.1,0.3c0,0.1-0.1,0.2-0.1,0.3c-0.1,0.1-0.1,0.2-0.2,0.2c-0.1,0-0.1-0.1-0.1-0.3
			c0-0.1,0-0.2,0-0.3c0-0.1,0-0.2,0-0.3c0-0.1,0-0.1,0-0.2c0,0,0-0.1,0-0.1l0-0.1c0-0.1,0-0.2,0-0.3c0-0.1,0-0.2,0-0.3
			C22.9,30,22.9,29.9,22.9,29.8z"/>
		<path class="st4" d="M25.8,28.4c0-0.1,0.3-0.2,0.3-0.1c0.1,0.1,0.1,0.3,0.2,0.4c0,0,0,0.1,0,0.1c0,0,0,0.1,0,0.1
			c0,0.1,0,0.2,0.1,0.3c0,0.1,0,0.2,0,0.3c0,0.1,0,0.2,0,0.2c0,0.1-0.1,0.2-0.1,0.2c-0.1,0-0.1-0.1-0.1-0.2c0-0.1,0-0.1,0-0.2
			c0-0.1,0-0.2,0-0.2c0-0.1,0-0.2-0.1-0.3c0,0,0-0.1,0-0.1c0,0,0-0.1,0-0.1C25.9,28.6,25.8,28.5,25.8,28.4z"/>
		<path class="st4" d="M25.5,32.4c0-0.1,0.3-0.1,0.3,0c0,0.4,0.1,1.4-0.2,1.4C25.4,33.8,25.5,32.8,25.5,32.4z"/>
		<path class="st4" d="M28.4,29.9c0-0.1,0.3-0.1,0.3,0c0.1,0.6,0.3,2.2,0.1,2.2C28.6,32.1,28.4,30.5,28.4,29.9z"/>
		<path class="st4" d="M31.3,30.8c0-0.1,0.3-0.2,0.3-0.1c0.1,0.1,0.1,0.3,0.2,0.5c0,0,0,0.1,0,0.1c0,0,0,0.1,0,0.1l0,0.1
			c0,0,0,0,0,0.1c0,0,0,0.1,0,0.1c0,0.1,0,0.2-0.1,0.3c0,0.1-0.1,0.2-0.1,0.2c-0.1,0.1-0.1,0.2-0.2,0.2c0,0-0.1-0.1,0-0.2
			c0-0.1,0-0.1,0-0.2c0-0.1,0-0.2,0-0.2c0,0,0-0.1,0-0.1c0,0,0,0,0-0.1l0-0.1c0,0,0-0.1,0-0.1c0,0,0-0.1,0-0.1
			C31.4,31.1,31.3,30.9,31.3,30.8z"/>
		<path class="st4" d="M29.8,33.8c0-0.1,0.3-0.1,0.3,0c0,0.5,0,1.7-0.2,1.7C29.7,35.5,29.8,34.3,29.8,33.8z"/>
		<path class="st4" d="M22.5,33.5c0-0.1,0.3-0.1,0.3,0c0,0.5-0.1,1.7-0.3,1.7C22.2,35.2,22.4,34,22.5,33.5z"/>
		<path class="st4" d="M20.5,32.6c0-0.1,0.3,0,0.3,0c-0.1,0.4-0.3,1.5-0.5,1.5C20.1,34.1,20.4,33,20.5,32.6z"/>
		<path class="st4" d="M17.1,29.7c0.1-0.1,0.3,0.1,0.2,0.2c-0.1,0.1-0.2,0.2-0.3,0.4c0,0-0.1,0.1-0.1,0.1c0,0,0,0.1-0.1,0.1
			c-0.1,0.1-0.1,0.2-0.1,0.2c0,0.1-0.1,0.2-0.1,0.2c0,0.1-0.1,0.1-0.1,0.2c0,0.1-0.1,0.2-0.1,0.2c-0.1,0-0.1-0.1-0.1-0.2
			c0-0.1,0-0.1,0-0.2c0-0.1,0-0.2,0.1-0.3c0-0.1,0.1-0.2,0.1-0.3c0,0,0.1-0.1,0.1-0.1c0,0,0.1-0.1,0.1-0.1
			C16.9,29.9,17,29.8,17.1,29.7z"/>
		<path class="st4" d="M17.8,31.6c0-0.1,0.3,0,0.3,0c-0.1,0.6-0.4,2.1-0.6,2.1C17.2,33.7,17.6,32.2,17.8,31.6z"/>
		<path class="st4" d="M15.4,33.5c0-0.1,0.3-0.1,0.3,0c-0.1,0.6-0.3,2.2-0.5,2.2C15,35.7,15.2,34.1,15.4,33.5z"/>
		<path class="st4" d="M17.8,35.6c0-0.1,0.3-0.1,0.3,0c0,0.6-0.1,2.1-0.3,2.1C17.7,37.7,17.8,36.1,17.8,35.6z"/>
		<path class="st4" d="M19.8,35.8c0-0.1,0.3-0.1,0.3,0c0,0.5,0.1,1.8-0.1,1.8C19.9,37.6,19.8,36.3,19.8,35.8z"/>
		<path class="st4" d="M24.8,35.8c0-0.1,0.3-0.1,0.3,0c0,0.5,0.1,1.8-0.1,1.8C24.9,37.6,24.8,36.3,24.8,35.8z"/>
		<path class="st4" d="M27.8,34.6c0-0.1,0.3-0.1,0.3-0.1c0.1,0.4,0.4,1.4,0.2,1.4C28.1,36,27.8,35,27.8,34.6z"/>
		<path class="st4" d="M22.8,37.2c0-0.1,0.3,0,0.3,0c0,0.4,0,1.3-0.2,1.3C22.6,38.5,22.7,37.6,22.8,37.2z"/>
		<path class="st4" d="M33.4,33.4c-0.1-0.1,0.3-0.2,0.3-0.1c0.1,0.2,0.2,0.4,0.3,0.6c0,0.1,0,0.1,0.1,0.2c0,0.1,0,0.1,0.1,0.2
			c0,0.1,0.1,0.3,0.1,0.4c0,0.1,0,0.3,0.1,0.4c0,0.1,0,0.2,0,0.3c0,0.2,0,0.3-0.1,0.3c-0.1,0-0.1-0.1-0.1-0.3c0-0.1-0.1-0.2-0.1-0.3
			c0-0.1-0.1-0.2-0.1-0.4c0-0.1-0.1-0.3-0.1-0.4c0-0.1,0-0.1-0.1-0.2c0-0.1,0-0.1-0.1-0.2C33.6,33.8,33.5,33.6,33.4,33.4z"/>
		<path class="st4" d="M31.8,35.7c0-0.1,0.3-0.1,0.3,0c0.1,0.5,0.4,1.9,0.2,1.9C32,37.5,31.8,36.2,31.8,35.7z"/>
		<path class="st4" d="M34.1,37.7c0-0.1,0.3-0.1,0.3,0c0,0.4,0.1,1.6-0.1,1.6C34.1,39.3,34.1,38.1,34.1,37.7z"/>
		<path class="st4" d="M29.2,37.1c0-0.1,0.3-0.1,0.3,0c0,0.5,0.2,1.8,0,1.9C29.3,38.9,29.2,37.6,29.2,37.1z"/>
		<path class="st4" d="M27.2,38.5c0-0.1,0.3-0.1,0.3,0c0,0.6,0.1,2.1-0.1,2.1C27.1,40.6,27.1,39,27.2,38.5z"/>
		<path class="st4" d="M31.6,39.5c0-0.1,0.3-0.1,0.3,0c0,0.4,0.1,1.6-0.1,1.6C31.6,41.1,31.6,39.9,31.6,39.5z"/>
		<path class="st4" d="M23.9,39.5c0-0.1,0.3,0,0.3,0c0,0.4-0.1,1.6-0.3,1.6C23.7,41,23.9,39.9,23.9,39.5z"/>
		<path class="st4" d="M19.7,38.9c0-0.1,0.3-0.1,0.3,0c0,0.4,0.1,1.5-0.1,1.5C19.7,40.4,19.7,39.3,19.7,38.9z"/>
		<path class="st4" d="M15.7,37.2c0-0.1,0.3,0,0.3,0c0,0.4-0.1,1.5-0.3,1.5C15.6,38.7,15.7,37.6,15.7,37.2z"/>
		<path class="st4" d="M14,40.6c0-0.1,0.3-0.1,0.3,0c0.1,0.5,0.4,1.8,0.2,1.8C14.3,42.4,14.1,41.1,14,40.6z"/>
		<path class="st4" d="M16.8,40.2c0-0.1,0.3,0,0.3,0c0,0.4,0,1.4-0.3,1.3S16.8,40.6,16.8,40.2z"/>
		<path class="st4" d="M21.2,41.4c0-0.1,0.3-0.1,0.3,0c0,0.4,0,1.4-0.2,1.4C21.1,42.7,21.2,41.7,21.2,41.4z"/>
		<path class="st4" d="M18.2,41.5c0-0.1,0.3-0.1,0.3,0c0,0.6,0.2,2.1,0,2.1C18.3,43.6,18.2,42.1,18.2,41.5z"/>
		<path class="st4" d="M15.5,43.7c0-0.1,0.3-0.1,0.3-0.1c0.2,0.5,0.6,1.8,0.4,1.8C16,45.5,15.6,44.2,15.5,43.7z"/>
		<path class="st4" d="M15.1,46.8c0-0.1,0.3-0.2,0.3-0.1c0,0.1,0.1,0.4,0.2,0.6c0,0.1,0.1,0.1,0.1,0.2c0,0.1,0.1,0.1,0.1,0.2
			c0.1,0.1,0.1,0.2,0.2,0.3c0.1,0.1,0.1,0.2,0.2,0.3c0.1,0.1,0.1,0.2,0.2,0.3c0.1,0.1,0.1,0.2,0.1,0.3c0,0-0.2,0-0.3-0.2
			c-0.1-0.1-0.1-0.1-0.2-0.2c-0.1-0.1-0.2-0.2-0.2-0.3c-0.1-0.1-0.2-0.2-0.2-0.3c0-0.1-0.1-0.1-0.1-0.2c0-0.1-0.1-0.1-0.1-0.2
			C15.2,47.2,15.1,46.9,15.1,46.8z"/>
		<path class="st4" d="M18.2,46.1c0-0.1,0.3-0.1,0.3-0.1c0.1,0.4,0.6,1.6,0.4,1.7C18.7,47.7,18.3,46.5,18.2,46.1z"/>
		<path class="st4" d="M19.9,44.6c0-0.1,0.3-0.1,0.3,0c0,0.4,0.2,1.3,0,1.3C19.9,45.9,19.9,44.9,19.9,44.6z"/>
		<path class="st4" d="M23.1,42.6c0-0.1,0.3,0,0.3,0c0,0.3,0.1,1-0.2,1C23.1,43.6,23.1,42.9,23.1,42.6z"/>
		<path class="st4" d="M26.1,41.2c0-0.2,0.3-0.1,0.3,0c0,0.7,0.1,2.6-0.1,2.6C26.1,43.7,26.1,41.9,26.1,41.2z"/>
		<path class="st4" d="M29.2,41.5c0-0.1,0.3-0.1,0.3,0c0,0.5,0.1,1.7-0.1,1.7C29.2,43.2,29.2,42,29.2,41.5z"/>
		<path class="st4" d="M34.1,41.1c0-0.1,0.3-0.1,0.3,0c0.1,0.5,0.3,1.8,0.1,1.8C34.3,42.9,34.2,41.6,34.1,41.1z"/>
		<path class="st4" d="M31.8,42.8c0-0.1,0.3-0.1,0.3,0c0,0.5,0.2,1.9,0,1.9C31.9,44.7,31.8,43.3,31.8,42.8z"/>
		<path class="st4" d="M34,44.6c0-0.1,0.3-0.1,0.3,0c0,0.1,0,0.3,0,0.6c0,0.1,0,0.1,0,0.2c0,0.1,0,0.1-0.1,0.2l0,0.1
			c0,0,0,0.1,0,0.1c0,0.1-0.1,0.1-0.1,0.2c0,0.1-0.1,0.1-0.1,0.1c0,0-0.1,0.1-0.1,0.1c-0.1,0.1-0.1,0.2-0.2,0.2
			c-0.1,0.1-0.2,0.2-0.3,0.1c0,0,0-0.1,0.1-0.2c0-0.1,0.1-0.1,0.1-0.2c0,0,0-0.1,0.1-0.1c0,0,0-0.1,0.1-0.1c0,0,0-0.1,0.1-0.1
			c0,0,0,0,0-0.1l0-0.1c0-0.1,0-0.1,0.1-0.2c0-0.1,0-0.1,0-0.2C34,44.9,34,44.7,34,44.6z"/>
		<path class="st4" d="M29.9,44.7c0-0.1,0.3,0,0.3,0.1c-0.1,0.4-0.3,1.4-0.5,1.3C29.6,46,29.8,45,29.9,44.7z"/>
		<path class="st4" d="M27.4,44.3c0-0.1,0.3,0,0.3,0c-0.1,0.4-0.2,1.5-0.4,1.5C27.1,45.8,27.3,44.7,27.4,44.3z"/>
		<path class="st4" d="M24,44.5c0-0.1,0.3-0.1,0.3,0c0,0.4,0,1.5-0.3,1.5C23.8,46.1,23.9,44.9,24,44.5z"/>
		<path class="st4" d="M21.7,44.7c0-0.1,0.3-0.1,0.3,0c0,0.5,0,1.8-0.2,1.8C21.6,46.5,21.7,45.1,21.7,44.7z"/>
		<path class="st4" d="M20.7,48.1c0-0.1,0.3-0.1,0.3-0.1c0.1,0.4,0.6,1.5,0.4,1.5C21.2,49.7,20.9,48.5,20.7,48.1z"/>
		<path class="st4" d="M18,49.8c0-0.1,0.3-0.2,0.3-0.1c0,0.1,0.1,0.2,0.2,0.3c0,0,0.1,0.1,0.1,0.1c0,0,0.1,0.1,0.1,0.1l0.1,0
			c0,0,0,0,0.1,0c0,0,0.1,0.1,0.1,0.1c0,0,0.1,0,0.1,0.1c0,0,0.1,0,0.1,0.1c0.1,0,0.1,0.1,0.2,0.1c0.1,0.1,0.2,0.1,0.2,0.1
			c0,0-0.1,0.1-0.3,0c-0.1,0-0.2,0-0.3-0.1c0,0-0.1,0-0.1-0.1c0,0-0.1,0-0.1-0.1c0,0-0.1-0.1-0.1-0.1c0,0,0,0-0.1,0l-0.1-0.1
			c0,0-0.1-0.1-0.1-0.1c0,0-0.1-0.1-0.1-0.1C18.2,50.1,18.1,49.9,18,49.8z"/>
		<path class="st4" d="M24.4,47.9c0-0.1,0.3-0.1,0.3,0c0,0.4,0.1,1.3-0.2,1.3C24.4,49.2,24.4,48.3,24.4,47.9z"/>
		<path class="st4" d="M28.2,48.1c0-0.1,0.3-0.1,0.3,0c-0.1,0.6-0.3,2.2-0.5,2.2C27.8,50.3,28,48.7,28.2,48.1z"/>
		<path class="st4" d="M25.4,50.6c0-0.1,0.3,0,0.3,0c0,0.3-0.1,1.1-0.3,1.1C25.2,51.7,25.4,50.9,25.4,50.6z"/>
		<path class="st4" d="M22.8,50.5c0-0.1,0.3-0.1,0.3,0c0.1,0.4,0.3,1.5,0.1,1.6C23.1,52.1,22.9,51,22.8,50.5z"/>
		<path class="st4" d="M21,52c-0.1,0,0.2-0.2,0.2-0.2c0.2,0.1,1,0.5,0.8,0.7C21.9,52.6,21.2,52.2,21,52z"/>
		<path class="st4" d="M31,47.4c0-0.1,0.3,0,0.3,0c-0.1,0.5-0.3,1.9-0.5,1.9C30.6,49.3,30.9,47.9,31,47.4z"/>
		<path class="st4" d="M33.5,48.5c0-0.1,0.3,0,0.3,0.1c0,0.1,0,0.1-0.1,0.2c0,0.1,0,0.2-0.1,0.3c0,0.1-0.1,0.2-0.1,0.3l0,0.1
			c0,0,0,0,0,0.1c0,0,0,0.1-0.1,0.1c0,0.1-0.1,0.2-0.1,0.2c-0.1,0.1-0.1,0.1-0.2,0.2c-0.1,0.1-0.2,0.2-0.2,0.1c0,0,0-0.1,0-0.2
			c0-0.1,0.1-0.1,0.1-0.2c0-0.1,0.1-0.2,0.1-0.2c0,0,0-0.1,0.1-0.1c0,0,0,0,0-0.1l0-0.1c0-0.1,0.1-0.2,0.1-0.3
			c0-0.1,0.1-0.2,0.1-0.2C33.5,48.7,33.5,48.6,33.5,48.5z"/>
		<path class="st4" d="M30,50.5c0.1-0.1,0.3,0.1,0.3,0.2c-0.3,0.3-1,1.2-1.2,1.1S29.7,50.8,30,50.5z"/>
		<path class="st4" d="M26.2,47c0-0.1,0.3,0,0.3,0c0,0.3,0,1.1-0.2,1.1S26.1,47.3,26.2,47z"/>
	</g>
	<g>
		<path class="st5" d="M24.4,40.9c2.8,5.4,8,8.2,11.5,6.3c3.6-1.9,4.2-7.7,1.4-13.1c-2.8-5.4-5.2-2.9-8.8-1
			C25,35,21.6,35.5,24.4,40.9z"/>
		<path class="st0" d="M23.2,39.3c0.9,1.7,4.6,1.5,8.4-0.5c3.7-2,6.1-4.9,5.2-6.6c-0.9-1.7-5.5-3.2-9.3-1.3
			C23.7,32.9,22.3,37.6,23.2,39.3z"/>
		<path class="st6" d="M26.2,40.4c0.4,0,0.8-0.1,1.3-0.2c0.3-0.1,0.5-0.2,0.8-0.4c0.1,0,0.2,0.1,0.4,0.1c0.4-0.1,0.8-0.2,1.2-0.4
			c-0.1-0.1-0.3-0.1-0.4-0.2c0.7-0.3,1.4-0.7,2.2-1c0.1,0.1,0.3,0.1,0.4,0.2c0.3-0.2,0.5-0.3,0.8-0.5c-0.1,0-0.2-0.1-0.2-0.1
			c0.4-0.2,0.9-0.4,1.3-0.6c0.6-0.5,1.1-1,1.6-1.4c0,0,0,0,0,0c-0.5-0.2-0.9-0.4-1.3-0.6c0.9-0.4,1.7-0.7,2.6-1.1
			c0.1-0.2,0.1-0.4,0.2-0.5c-0.1,0-0.2-0.1-0.3-0.1c-0.1,0-0.2-0.1-0.3-0.1c0.1,0,0.2,0,0.2-0.1c0.1,0.1,0.2,0.1,0.4,0.2
			c0.1-0.2,0.1-0.5,0.1-0.7c-0.2,0-0.3,0.1-0.5,0.1c-0.4-0.2-0.9-0.4-1.3-0.6c0.3-0.1,0.5-0.2,0.8-0.3c0.3,0.1,0.6,0.2,0.9,0.3
			c0-0.1-0.1-0.1-0.1-0.2c-0.2-0.1-0.4-0.1-0.6-0.2c0,0,0,0,0,0c0.1,0,0.2-0.1,0.3-0.1c-0.1-0.1-0.2-0.2-0.3-0.3c0,0-0.1,0-0.1,0
			c-0.2,0.1-0.3,0.1-0.5,0.2c-0.2-0.1-0.4-0.1-0.6-0.2c0.3-0.1,0.6-0.2,0.9-0.3c-0.2-0.2-0.5-0.3-0.8-0.4c-0.4,0.1-0.9,0.2-1.3,0.4
			c-0.2-0.1-0.4-0.1-0.6-0.2c0.4-0.2,0.8-0.3,1.2-0.5c-0.2-0.1-0.4-0.1-0.5-0.2c-0.3,0.1-0.5,0.2-0.8,0.3l-0.4,0.2
			c-0.4-0.1-0.9-0.3-1.4-0.5c0.2-0.1,0.3-0.2,0.5-0.2c0,0,0.1,0,0.1-0.1c-0.4,0-0.7,0-1.1,0c-0.1,0-0.1,0.1-0.2,0.1c0,0,0,0-0.1,0
			c0,0,0.1,0,0.1,0c-0.4,0-0.8,0.1-1.1,0.2c0.1,0,0.1,0,0.2,0.1c-0.7,0.3-1.3,0.6-1.9,0.9c-0.2,0-0.3-0.1-0.5-0.1
			c-0.2,0.1-0.3,0.2-0.5,0.3c0.1,0,0.1,0,0.2,0c0.1,0,0.1,0,0.2,0c-0.2,0.1-0.5,0.2-0.7,0.3c-0.1,0-0.1-0.1-0.2-0.1
			c-0.1,0.1-0.2,0.2-0.3,0.3c0,0,0,0,0.1,0c-0.1,0-0.1,0.1-0.2,0.1c-0.1,0.1-0.2,0.2-0.3,0.3c0.2-0.1,0.4-0.2,0.6-0.3
			c0.1,0,0.2,0.1,0.3,0.1c-0.1,0-0.1,0.1-0.2,0.1c-0.4,0.2-0.9,0.5-1.3,0.7c-0.2,0.2-0.4,0.4-0.5,0.7l0.7,0.2l0.5,0.1
			c-0.1,0.1-0.1,0.1-0.2,0.2c-0.2-0.1-0.5-0.2-0.8-0.3l-0.3-0.1c-0.1,0.1-0.2,0.2-0.2,0.3c0.1,0,0.2,0.1,0.3,0.1
			c0.2,0.1,0.4,0.2,0.5,0.2c-0.5,0.3-1,0.5-1.5,0.8c-0.1,0.2-0.2,0.5-0.3,0.7c0.2,0,0.4,0.1,0.6,0.1c0,0,0,0,0,0
			c-0.1,0.1-0.2,0.3-0.3,0.5c-0.1-0.1-0.2-0.1-0.4-0.2c0,0.1-0.1,0.3-0.1,0.4c0.1,0,0.2,0.1,0.2,0.1c-0.1,0.2-0.3,0.4-0.4,0.6
			c0,0.3-0.1,0.6,0,0.8c0.2-0.4,0.5-0.8,0.8-1.2c0.1,0.1,0.3,0.1,0.4,0.2c-0.2,0.2-0.5,0.5-0.7,0.7c-0.2,0.1-0.3,0.2-0.5,0.4
			c0,0,0,0-0.1,0c0,0.2,0,0.5,0.1,0.7c0.1-0.1,0.2-0.2,0.2-0.3c0.2,0.1,0.5,0.1,0.8,0.2c-0.2,0.2-0.5,0.5-0.7,0.7
			c0.1,0.1,0.2,0.2,0.3,0.3c0.3-0.3,0.6-0.6,0.9-0.9c0.1,0,0.2,0.1,0.3,0.1c0,0,0,0,0,0c-0.3,0.2-0.5,0.4-0.8,0.7
			c-0.1,0.1-0.2,0.1-0.3,0.2c0.1,0.1,0.3,0.2,0.5,0.2c0.5-0.3,1.1-0.6,1.6-0.9c0.4,0.1,0.7,0.2,1.1,0.3c-0.4,0.2-0.8,0.3-1.2,0.5
			l-0.7,0.3c0.3,0,0.6,0.1,0.9,0.1c0.6-0.2,1.1-0.5,1.7-0.7c0,0,0,0,0,0C27.2,39.9,26.7,40.2,26.2,40.4z M25.7,38.8
			c0.2-0.2,0.5-0.4,0.7-0.6c0.1,0,0.2,0.1,0.3,0.1c-0.3,0.2-0.6,0.3-0.9,0.5C25.8,38.8,25.7,38.8,25.7,38.8z M29.8,32
			c-0.4,0.2-0.9,0.4-1.3,0.6c-0.2-0.1-0.4-0.2-0.5-0.3c0.3-0.2,0.6-0.4,0.9-0.6C29.1,31.9,29.5,32,29.8,32z M28.7,31.4
			c0,0-0.1,0-0.2,0c0.4-0.2,0.7-0.4,1.1-0.5c-0.3,0.2-0.5,0.3-0.8,0.5C28.8,31.3,28.8,31.4,28.7,31.4z M31.7,34.6
			c-0.2,0.1-0.4,0.2-0.7,0.3c-0.3-0.1-0.6-0.2-0.9-0.2c0.3-0.1,0.5-0.3,0.8-0.4c0.1,0,0.1,0.1,0.2,0.1
			C31.3,34.4,31.5,34.5,31.7,34.6z M30.5,33.6c0.6-0.3,1.2-0.6,1.9-0.9c0.2,0,0.4,0.1,0.5,0.1c-0.7,0.3-1.3,0.6-2,1
			C30.8,33.7,30.6,33.7,30.5,33.6z M29.6,34.5c-0.1,0-0.1,0-0.2-0.1c-0.1,0-0.2-0.1-0.3-0.1c0.3-0.2,0.6-0.4,1-0.5
			c0.1,0.1,0.3,0.1,0.4,0.2C30.2,34.2,29.9,34.4,29.6,34.5z M28.6,34.2c-0.1,0-0.1,0-0.2,0c0,0,0,0,0.1,0c0.3-0.2,0.6-0.4,1-0.6
			c0.1,0,0.1,0.1,0.2,0.1C29.3,33.8,28.9,34,28.6,34.2z M29.1,34.8c-0.3,0.2-0.6,0.4-0.9,0.6c-0.1-0.1-0.3-0.1-0.4-0.2
			c0.3-0.2,0.6-0.4,0.9-0.5C28.8,34.7,29,34.8,29.1,34.8z M27.3,35C27.3,35,27.3,35,27.3,35c0.2-0.2,0.4-0.4,0.6-0.5
			c0,0,0.1,0,0.1,0C27.8,34.7,27.6,34.9,27.3,35z M28.7,36.2c-0.2,0.1-0.4,0.3-0.6,0.4c0,0-0.1,0-0.1,0.1c-0.1,0-0.3-0.1-0.4-0.1
			c-0.1,0-0.1,0-0.2-0.1c0.3-0.2,0.5-0.4,0.8-0.6c0,0,0.1,0,0.1,0.1C28.5,36,28.6,36.1,28.7,36.2z M27,36.3
			c-0.2-0.1-0.4-0.1-0.6-0.2c0.3-0.2,0.7-0.5,1-0.7c0.1,0,0.1,0.1,0.2,0.1c0.1,0,0.2,0.1,0.2,0.1C27.5,35.9,27.2,36.1,27,36.3z
			 M26.4,35.6c0.2-0.1,0.3-0.2,0.5-0.4c0,0,0,0,0,0C26.8,35.4,26.6,35.5,26.4,35.6z M26.3,34.5l-0.3-0.2c0.2-0.1,0.3-0.2,0.5-0.2
			c0.3,0.1,0.6,0.2,0.9,0.2c0.1,0,0.1,0,0.2,0.1c-0.2,0.1-0.4,0.3-0.6,0.4C26.7,34.7,26.5,34.6,26.3,34.5z M28.2,33.2
			c0.1,0,0.1-0.1,0.2-0.1c0.2,0.1,0.4,0.2,0.6,0.3c-0.3,0.2-0.5,0.3-0.8,0.5c-0.1,0.1-0.2,0.2-0.4,0.2c-0.2,0-0.4-0.1-0.5-0.1
			c-0.1,0-0.3-0.1-0.4-0.1C27.4,33.6,27.8,33.4,28.2,33.2z M26.5,33.6c0,0,0.1-0.1,0.1-0.1c0.3-0.3,0.7-0.6,1-0.8
			c0.1,0.1,0.3,0.1,0.4,0.2C27.5,33.1,27,33.4,26.5,33.6z M30.3,32.2c0.2,0,0.4,0.1,0.6,0.1c0,0,0,0,0.1,0c-0.5,0.2-1,0.5-1.5,0.8
			c-0.2-0.1-0.4-0.2-0.6-0.3C29.4,32.6,29.9,32.4,30.3,32.2z M31.6,32.5c0.1,0,0.1,0,0.2,0.1c-0.6,0.3-1.1,0.6-1.7,0.9
			c-0.1,0-0.1-0.1-0.2-0.1C30.4,33,31,32.7,31.6,32.5z M30.9,31.9c0.2-0.1,0.4-0.2,0.6-0.3c0.2-0.1,0.4-0.2,0.7-0.3
			c0.2,0.1,0.3,0.1,0.5,0.2c-0.4,0.1-0.8,0.3-1.1,0.5C31.3,32,31.2,32,31,32C31,31.9,30.9,31.9,30.9,31.9z M33.1,31.8
			C33.2,31.9,33.2,31.9,33.1,31.8c-0.2,0.2-0.5,0.3-0.9,0.5c-0.1,0-0.1,0-0.2,0C32.4,32.1,32.8,32,33.1,31.8z M33.7,32.1
			c0.2,0.1,0.3,0.1,0.5,0.2c-0.3,0.1-0.5,0.2-0.8,0.3c-0.2-0.1-0.4-0.1-0.5-0.2C33.2,32.3,33.4,32.2,33.7,32.1z M34.6,33.3
			c0.1,0,0.1,0,0.2,0.1l-0.3,0.1l-1,0.3l-0.2,0.1L33.1,34l-0.5,0.2l-0.5,0.2c-0.3-0.1-0.5-0.2-0.8-0.4c0.7-0.4,1.4-0.7,2.1-1
			C33.9,33.1,34.2,33.2,34.6,33.3z M33.1,35.3c-0.1,0.1-0.3,0.1-0.4,0.2c-0.4-0.1-0.8-0.2-1.1-0.3c0.1,0,0.2-0.1,0.3-0.1l0.3-0.1
			C32.5,35,32.8,35.1,33.1,35.3z M32.2,35.7c-0.6,0.3-1.2,0.6-1.9,0.9c-0.3-0.1-0.5-0.3-0.8-0.4l0.5-0.3c0.3-0.2,0.7-0.4,1-0.5
			c0.1,0,0.2,0.1,0.3,0.1C31.7,35.5,31.9,35.6,32.2,35.7z M29.1,35.9c-0.2-0.1-0.4-0.2-0.5-0.3c0.3-0.2,0.7-0.5,1.1-0.7
			c0.3,0.1,0.5,0.1,0.8,0.2c-0.2,0.1-0.4,0.2-0.6,0.3L29.1,35.9z M29.9,36.8c-0.2,0.1-0.4,0.2-0.5,0.3c-0.3-0.1-0.5-0.2-0.8-0.3
			c0.2-0.1,0.4-0.3,0.6-0.4C29.4,36.5,29.6,36.7,29.9,36.8z M28.8,37.3c-0.1,0.1-0.3,0.1-0.4,0.2c-0.4,0.2-0.8,0.4-1.3,0.7
			c-0.1-0.1-0.2-0.1-0.4-0.2c0.4-0.3,0.9-0.6,1.3-0.9C28.3,37.2,28.6,37.2,28.8,37.3z M26.4,37.8c-0.1-0.1-0.3-0.1-0.4-0.2
			c0.3-0.3,0.7-0.6,1-0.8c0.2,0,0.3,0.1,0.5,0.1c0,0,0.1,0,0.1,0C27.2,37.2,26.8,37.5,26.4,37.8z M25.6,37.4
			c-0.2-0.1-0.4-0.2-0.6-0.3c0.3-0.2,0.6-0.4,0.9-0.7c0.2,0.1,0.4,0.1,0.6,0.2C26.2,36.9,25.9,37.1,25.6,37.4z M24.8,38.6
			c0.3-0.3,0.5-0.5,0.8-0.7c0.1,0.1,0.2,0.1,0.4,0.2c-0.3,0.2-0.6,0.4-0.8,0.6C25.1,38.7,24.9,38.7,24.8,38.6z M24.7,37.4
			c0.2,0.1,0.4,0.2,0.6,0.3c-0.3,0.3-0.6,0.5-0.9,0.8c-0.3-0.1-0.6-0.1-0.8-0.2c0,0,0.1-0.1,0.1-0.1C24,37.9,24.3,37.7,24.7,37.4z
			 M24.3,36.1c0.3,0.1,0.5,0.1,0.8,0.2c-0.2,0.2-0.4,0.4-0.6,0.6c-0.2-0.1-0.3-0.2-0.5-0.2C24.1,36.4,24.2,36.2,24.3,36.1z
			 M24.7,34.9c-0.2,0.2-0.4,0.4-0.5,0.7c-0.1,0-0.1,0-0.2,0c-0.1,0-0.2,0-0.3-0.1C24,35.3,24.4,35.1,24.7,34.9z M26.5,35.1
			c-0.4,0.3-0.7,0.6-1.1,0.9c-0.3-0.1-0.6-0.1-0.9-0.2c0.3-0.4,0.6-0.8,1-1.1l0.5,0.3C26.2,34.9,26.4,35,26.5,35.1z M27,32.4
			c0.1,0,0.2,0.1,0.2,0.1c-0.3,0.2-0.6,0.5-0.8,0.7c-0.1,0.1-0.2,0.2-0.3,0.3l-0.7-0.2c-0.1,0-0.2-0.1-0.4-0.1
			c0.5-0.3,1-0.6,1.5-0.8c0.1-0.1,0.2-0.1,0.3-0.2C26.8,32.3,26.9,32.4,27,32.4z M27.7,31.5c-0.3,0.1-0.5,0.3-0.8,0.4
			c-0.1,0-0.2-0.1-0.2-0.1c0.2-0.1,0.5-0.2,0.8-0.4C27.5,31.5,27.6,31.5,27.7,31.5z M28.1,31.6c0.1,0,0.2,0,0.3,0.1
			c-0.3,0.2-0.5,0.4-0.8,0.6c-0.1-0.1-0.2-0.1-0.4-0.2C27.5,31.9,27.8,31.7,28.1,31.6z M29.9,30.4c-0.6,0.3-1.2,0.5-1.7,0.8
			c-0.1,0-0.2,0-0.2-0.1C28.6,30.9,29.2,30.7,29.9,30.4C29.9,30.4,29.9,30.4,29.9,30.4z M31.7,31.2c-0.1,0.1-0.2,0.1-0.4,0.2
			c-0.3,0.1-0.7,0.3-1,0.4c-0.4-0.1-0.8-0.2-1.1-0.3c0.2-0.2,0.5-0.3,0.7-0.4c0.2-0.1,0.5-0.3,0.7-0.4C30.9,30.9,31.3,31,31.7,31.2z
			 M32.3,30.9L32.2,31c0,0-0.1,0-0.1,0c-0.1,0-0.2-0.1-0.3-0.1c-0.2-0.1-0.4-0.2-0.6-0.3c-0.1,0-0.2-0.1-0.3-0.1c0,0,0,0,0.1,0
			c0,0,0.1,0,0.1,0C31.5,30.7,31.9,30.8,32.3,30.9z M33.5,31.3c-0.1,0.1-0.3,0.1-0.4,0.2c-0.2-0.1-0.3-0.2-0.5-0.2l0.2-0.1l0.1,0
			C33,31.2,33.3,31.2,33.5,31.3z M34,31.5c-0.2,0.1-0.3,0.1-0.5,0.2c0,0,0,0,0,0C33.7,31.6,33.9,31.6,34,31.5z M34.6,32.2
			c-0.2-0.1-0.3-0.1-0.5-0.2c0.2-0.1,0.4-0.2,0.6-0.2c0.2,0.1,0.4,0.1,0.6,0.2C35.1,32,34.8,32.1,34.6,32.2z M35.9,33.1
			c-0.1,0-0.3,0.1-0.4,0.1l0,0C35.2,33.1,35,33,34.7,33c-0.2-0.1-0.5-0.1-0.7-0.2c0.2-0.1,0.4-0.2,0.6-0.3
			C35.1,32.7,35.5,32.9,35.9,33.1z M33.8,34.9c-0.1,0-0.2,0.1-0.2,0.1c-0.3-0.1-0.6-0.3-0.9-0.4l0.1,0l0.5-0.2l0.2-0.1l0.2-0.1
			l0.9-0.3l0.9-0.3c0.3,0.1,0.5,0.2,0.8,0.2C35.5,34.2,34.7,34.5,33.8,34.9z M35.1,36.2c-0.6-0.2-1.2-0.4-1.8-0.5
			c0.1,0,0.2-0.1,0.3-0.1C34.1,35.7,34.6,35.9,35.1,36.2C35.1,36.1,35.1,36.1,35.1,36.2z M32.1,38.1C32.1,38.1,32.1,38.1,32.1,38.1
			C32.2,38.1,32.2,38.1,32.1,38.1C32.2,38.1,32.2,38.1,32.1,38.1z M31.4,37.2c-0.2-0.1-0.4-0.2-0.6-0.4c0.7-0.3,1.3-0.6,2-1
			c0.6,0.2,1.1,0.3,1.7,0.5c-0.9,0.4-1.7,0.7-2.6,1.1c0,0-0.1-0.1-0.1-0.1L31.4,37.2z M31.2,37.8c-0.5-0.2-0.9-0.3-1.4-0.5
			c0.1-0.1,0.3-0.1,0.4-0.2c0.1,0,0.1,0.1,0.2,0.1c0.2,0.1,0.5,0.3,0.7,0.4l0.2,0.1C31.4,37.7,31.3,37.7,31.2,37.8z M28.6,38.9
			c-0.3-0.2-0.6-0.3-1-0.5c0.3-0.2,0.7-0.3,1-0.5c0.3-0.1,0.5-0.3,0.8-0.4c0.4,0.2,0.9,0.3,1.3,0.5C30,38.3,29.3,38.6,28.6,38.9z
			 M28.9,39.6c0,0,0.1,0,0.1,0c0.1,0,0.2,0.1,0.3,0.1C29.2,39.7,29,39.6,28.9,39.6z M27.6,39.3c-0.4-0.1-0.8-0.2-1.2-0.3
			c0.2-0.1,0.5-0.3,0.7-0.4c0.3,0.2,0.6,0.3,0.9,0.5C27.9,39.1,27.8,39.2,27.6,39.3z"/>
		<ellipse transform="matrix(0.8866 -0.4625 0.4625 0.8866 -11.4798 16.4658)" class="st7" cx="27.8" cy="31.6" rx="1.3" ry="0.4"/>
		<path class="st6" d="M28.4,31.8C28.3,31.9,28.2,32,28,32c-0.1,0.1-0.3,0.1-0.4,0.2c-0.8-1.5-1.4-3.2-1.5-3.7
			c-0.1-0.6,1.1-0.5,1.2-0.2C27.5,28.8,27.7,30.4,28.4,31.8z"/>
	</g>
	<g>
		<path class="st0" d="M35.9,22.1c2.9-1.1,10.2,13.6,1.3,21.3c-0.7,0.6-1.6,1.2-2.5,1.4c-0.9,0.2-1.9-0.1-1.8-0.8
			c0.1-0.2,0.3-0.3,0.4-0.5c-0.8,0.7-2.2,0.9-2.7,0.3c-0.5-0.6,1.3-2.1,1.3-2.1s-1.5,0.7-1.9,0.3c-0.4-0.4-0.2-1.1,0.2-1.6
			s1.2-1,1.9-1.4c0.7-0.4,1.5-0.7,2.1-1.2C40.7,32.7,33,23.2,35.9,22.1z"/>
		<path class="st1" d="M31.8,41.6c0,0-1.5,0.7-1.9,0.3c-0.4-0.4-0.2-1.1,0.2-1.6c0.4-0.5,0.9-0.9,1.5-1.2c2.5,0.3,4.5,2.2,5.3,4.4
			c-0.7,0.5-1.5,1-2.3,1.2c-0.9,0.2-1.9-0.1-1.8-0.8c0.1-0.2,0.3-0.3,0.4-0.5c-0.8,0.7-2.2,0.9-2.7,0.3
			C30.1,43.2,31.8,41.6,31.8,41.6z"/>
	</g>
	<g>
		<path class="st4" d="M15.8,9.2c0-0.3,0.1-0.6,0.2-0.8c0.2-0.2,0.6-0.3,0.9-0.3c0.2,0,0.5,0,0.7,0.1c0.4,0.2,0.5,0.6,0.5,1.1
			c0,0.3,0,0.6-0.2,0.8c-0.3,0.4-0.9,0.6-1.4,0.4C16.1,10.2,15.8,9.7,15.8,9.2z"/>
		<path class="st4" d="M31.4,9.3c0-0.2-0.1-0.5-0.3-0.6c-0.2-0.2-0.6-0.2-0.9-0.2c-0.2,0-0.4,0-0.6,0.1c-0.3,0.2-0.4,0.6-0.3,1
			c0,0.3,0.1,0.5,0.2,0.7c0.3,0.4,0.8,0.4,1.2,0.2C31.2,10.3,31.4,9.8,31.4,9.3z"/>
		<path d="M17.6,9c0.8,0.5-0.4,1.6-1,0.8C16.2,9.2,17.1,8.7,17.6,9z"/>
		<path d="M30.4,9.7c0.2,0.5-0.3,0.8-0.7,0.5C29.1,9.7,30.2,9.1,30.4,9.7z"/>
	</g>
	<g>
		<path class="st1" d="M40.1,17.4c-0.1-1.4-0.3-2.9-1.2-4c-0.7-0.9-1.8-1.4-2.9-1.8c-2.9-1-6.1-0.9-9,0.1c-1,0.4-2,0.8-3,0.9
			c-1-0.1-2-0.6-3-0.9c-2.9-1-6.1-1.1-9-0.1c-1.1,0.4-2.2,0.9-2.9,1.8c-0.9,1.1-1.1,2.6-1.2,4c-0.2,1.8-0.2,3.8,0.8,5.3
			c1.1,1.6,3.2,2.4,5.1,2.6c2,0.2,4-0.1,5.9,0.1C21,25.4,22.7,27,24,27c1.3,0,2.9-1.6,4.3-1.7c2-0.2,4,0.1,5.9-0.1
			c2-0.2,4-0.9,5.1-2.6C40.3,21.1,40.2,19.2,40.1,17.4z"/>
		<path class="st4" d="M23.2,20.3c0.1,0,0.2,0,0.3-0.1c0.1,0,0.1-0.2,0.1-0.2s0.1,0.2,0.2,0.3c0.1,0.1,0.2,0.1,0.4,0.1
			c0.2,0,0.3,0,0.5-0.1c0.2-0.1,0.3-0.1,0.4-0.3c0.1-0.2,0.1-0.3,0.1-0.5c0-0.3,0.1-0.7,0.1-1c-0.8-0.3-0.9-2-1.5-2.1
			c-0.4,0-0.7,1.8-1.7,2.1c0,0.3,0,0.7,0,1c0,0.2,0,0.3,0.1,0.5c0.1,0.1,0.2,0.2,0.4,0.2C22.8,20.3,23,20.3,23.2,20.3z"/>
		<path class="st8" d="M23.8,18c0.1,0,0.1,0.1,0.1,0.3c0,0.3,0,0.7-0.1,1c0,0.2-0.1,0.3-0.1,0.4c0,0.1,0,0.2,0,0.2c0,0,0-0.1,0-0.2
			c0-0.1,0-0.3,0-0.4c0-0.3,0-0.7,0-1C23.7,18.1,23.6,18,23.8,18z"/>
		<path class="st0" d="M29.7,15.1c-0.5-0.5-1.4-0.5-1.8-0.1c-0.5,0.5-0.3,1.3,0.4,1.6c0.6,0.2,1.3-0.3,1.1-1
			c-0.1-0.2-0.6-0.1-0.5,0.1c0.2,0.4-0.2,0.7-0.6,0.4c-0.2-0.2-0.3-0.6-0.2-0.8c0.3-0.7,1.2,0,1.5,0.5c0.7,1.2-0.5,2.5-1.4,3
			c-1.2,0.6-2.7,0-3.5-1.2c-0.5-0.8-0.6-1.7-0.6-2.5c0-0.2,0-0.4,0-0.5c0-0.3,0-0.6,0.1-0.9c0-0.2-0.4-0.1-0.5,0
			c-0.1,0-0.1,0.1-0.1,0.2c0.1,1.3,0,2.6-0.6,3.7c-0.6,1.1-1.9,1.6-3.2,1.4c-1.2-0.2-2.7-1.2-2.9-2.5c-0.1-0.7,0.3-1.7,1.2-1.2
			c0.3,0.2,0.5,0.6,0.3,0.9c-0.3,0.4-0.8-0.3-0.6-0.6c0.2-0.2-0.3-0.3-0.4-0.1c-0.4,0.5,0.1,1.3,0.8,1.2c0.8-0.1,1.1-0.8,0.5-1.5
			c-0.5-0.6-1.5-0.5-1.9,0c-0.6,0.7-0.4,1.7,0.2,2.5c1,1.4,2.7,1.9,4.2,1.7c0.1,0,0.9,0,1.8-0.9c0.5-0.4,0.8-1,1-1.7
			c0.2,0.6,0.4,1.3,1,1.7c0.7,0.6,1.4,0.8,1.5,0.8c1.6,0.4,3.2-0.5,3.9-1.8C30.5,16.7,30.4,15.7,29.7,15.1z"/>
		<g>
			<path d="M22,12.3c0.2,0.5,0.4,0.9,0.8,1.2c0.4,0.3,1,0.4,1.4,0.3c0.5-0.2,0.9-0.6,1.2-1c0.2-0.3,0.5-0.6,0.5-1
				c0-0.5-0.4-1-0.9-1.2c-0.5-0.2-1-0.2-1.6-0.1c-0.5,0-1,0.1-1.3,0.5C21.9,11.4,21.9,11.9,22,12.3z"/>
			<path class="st9" d="M23.3,12.7c0.1-0.5-0.1-0.9-0.5-1.3c-0.1-0.1-0.1-0.1-0.2-0.1c-0.1,0-0.1,0.1-0.1,0.1
				c-0.1,0.4-0.1,0.8,0.1,1.2c0,0.1,0.1,0.2,0.2,0.3c0.1,0.1,0.2,0.1,0.3,0C23.3,12.9,23.3,12.8,23.3,12.7z"/>
			<path class="st9" d="M24.4,12.4c-0.1,0.1-0.1,0.3-0.1,0.4c0,0.1,0,0.2,0.1,0.2c0.1,0,0.1,0,0.2,0c0.3-0.1,0.5-0.3,0.6-0.6
				c0.1-0.3,0.4-0.9,0-0.9C24.8,11.6,24.5,12.1,24.4,12.4z"/>
		</g>
		<g>
			<path class="st0" d="M21.8,15.4c0.3,0,0.3-0.4,0-0.4C21.5,15,21.5,15.4,21.8,15.4L21.8,15.4z"/>
			<path class="st0" d="M20.7,17.3c0.3,0,0.3-0.4,0-0.4C20.5,16.9,20.5,17.3,20.7,17.3L20.7,17.3z"/>
			<path class="st0" d="M22.4,16.9c0.3,0,0.3-0.4,0-0.4C22.1,16.5,22.1,16.9,22.4,16.9L22.4,16.9z"/>
			<path class="st0" d="M19.8,15.3c0.3,0,0.3-0.4,0-0.4C19.5,14.9,19.5,15.3,19.8,15.3L19.8,15.3z"/>
			<path class="st0" d="M26.3,15.4c0.3,0,0.3-0.4,0-0.4C26.1,15,26.1,15.4,26.3,15.4L26.3,15.4z"/>
			<path class="st0" d="M25.6,16.9c0.3,0,0.3-0.4,0-0.4C25.3,16.5,25.3,16.9,25.6,16.9L25.6,16.9z"/>
			<path class="st0" d="M27.3,17.9c0.3,0,0.3-0.4,0-0.4C27,17.5,27,17.9,27.3,17.9L27.3,17.9z"/>
		</g>
	</g>
</g>
</svg>
