<?xml version="1.0" encoding="utf-8"?>
<!-- Generator: Adobe Illustrator 19.2.1, SVG Export Plug-In . SVG Version: 6.00 Build 0)  -->
<svg version="1.1" id="Layer_1" xmlns="http://www.w3.org/2000/svg" xmlns:xlink="http://www.w3.org/1999/xlink" x="0px" y="0px"
	 viewBox="0 0 60.5 69.3" style="enable-background:new 0 0 60.5 69.3;" xml:space="preserve">
<style type="text/css">
	.st0{fill:#513624;}
	.st1{fill:#DDA878;}
	.st2{fill:#332114;}
	.st3{fill:#5E412D;}
	.st4{fill:#EAC39B;}
	.st5{fill:#442D1D;}
	.st6{fill:#BA570D;}
	.st7{fill:#FFAA4D;}
	.st8{fill:#5E412C;}
	.st9{fill:#72543F;}
	.st10{fill:#CE0023;}
	.st11{fill:#FC7F03;}
	.st12{fill:#FFFFFF;}
	.st13{fill:#FC1515;}
	.st14{fill:#383838;}
	.st15{fill:#663205;}
</style>
<g>
	<g>
		<g>
			<path class="st0" d="M4.2,51.1c5.1-0.6,16.3-3.2,16.2-4.6c-0.2-1.4-11.6-1.1-16.8-0.5S-1,51.8,4.2,51.1z"/>
			<path class="st1" d="M1.6,50.9c-2.1-0.8-2.2-3-0.2-4.2C1.1,48,1.1,49.6,1.6,50.9z"/>
			<path class="st2" d="M7.1,50.7C6,50.9,5,51,4.2,51.1c-0.1,0-0.2,0-0.3,0c-0.2-0.9-0.3-1.9-0.4-3c0-0.7-0.1-1.4-0.1-2
				c0,0,0.1,0,0.1,0c0.8-0.1,1.7-0.2,2.8-0.3C6.5,47.5,6.7,49.6,7.1,50.7z"/>
		</g>
		<g>
			<path class="st0" d="M3.8,42.3c4.8,2,15.7,5.4,16.3,4.1c0.5-1.3-9.5-6.8-14.3-8.8C1,35.6-1,40.3,3.8,42.3z"/>
			<path class="st1" d="M1.7,40.8c-1.4-1.7-0.4-3.7,1.9-3.7C2.6,38,1.9,39.4,1.7,40.8z"/>
			<path class="st2" d="M6.5,43.3c-1-0.4-2-0.7-2.7-1.1c-0.1,0-0.2-0.1-0.3-0.1c0.3-0.9,0.7-1.9,1.1-2.8c0.3-0.6,0.6-1.2,1-1.8
				c0,0,0.1,0,0.1,0c0.7,0.3,1.6,0.7,2.5,1.2C7.6,40.2,6.7,42.2,6.5,43.3z"/>
		</g>
		<g>
			<path class="st0" d="M7.2,34.5c3.1,4.2,10.8,12.7,11.9,11.8c1.1-0.8-4.7-10.7-7.8-14.9C8.2,27.3,4.1,30.3,7.2,34.5z"/>
			<path class="st1" d="M6.2,32.2c-0.3-2.2,1.5-3.4,3.5-2.2C8.4,30.2,7,31.1,6.2,32.2z"/>
			<path class="st2" d="M9,36.8c-0.7-0.8-1.3-1.6-1.8-2.3c-0.1-0.1-0.1-0.2-0.2-0.2c0.7-0.6,1.5-1.3,2.4-1.9c0.6-0.4,1.1-0.7,1.7-1
				c0,0,0.1,0.1,0.1,0.1c0.5,0.6,1,1.4,1.6,2.3C11.5,34.7,9.7,35.9,9,36.8z"/>
		</g>
		<g>
			<path class="st0" d="M13.9,29.3c1.1,5.1,4.6,16,6,15.7c1.4-0.3,0.1-11.7-1-16.8C17.8,23.1,12.8,24.2,13.9,29.3z"/>
			<path class="st1" d="M13.9,26.7c0.6-2.1,2.8-2.5,4.1-0.6C16.7,25.9,15.1,26.1,13.9,26.7z"/>
			<path class="st2" d="M14.6,32.1c-0.3-1-0.5-2-0.7-2.8c0-0.1,0-0.2-0.1-0.3c0.9-0.3,1.9-0.5,3-0.7c0.7-0.1,1.3-0.2,2-0.2
				c0,0,0,0.1,0,0.1c0.2,0.8,0.3,1.7,0.5,2.7C17.7,31.2,15.6,31.6,14.6,32.1z"/>
		</g>
		<g>
			<path class="st3" d="M10.2,31.8c2.3,5.1,8.5,15.7,9.7,15.1s-2.8-12.2-5.1-17.3C12.5,24.7,7.9,26.8,10.2,31.8z"/>
			<path class="st4" d="M9.5,29.2c0.1-2.3,2.1-3.2,3.9-1.4C12.1,27.7,10.6,28.3,9.5,29.2z"/>
			<path class="st5" d="M11.6,34.7c-0.5-1-1-2-1.4-2.8c0-0.1-0.1-0.2-0.1-0.3c0.8-0.5,1.7-0.9,2.8-1.3c0.6-0.2,1.3-0.5,1.9-0.6
				c0,0,0,0.1,0.1,0.1c0.4,0.8,0.8,1.7,1.2,2.8C14.4,33.1,12.4,33.9,11.6,34.7z"/>
		</g>
		<g>
			<path class="st3" d="M4.9,37.8C9.1,41.3,19.1,48.1,20,47c0.9-1.1-7.6-9.6-11.8-13.1C4,30.4,0.7,34.3,4.9,37.8z"/>
			<path class="st4" d="M3.2,35.7c-0.9-2.1,0.6-3.8,2.9-3C4.9,33.3,3.8,34.4,3.2,35.7z"/>
			<path class="st5" d="M7.3,39.7c-0.9-0.7-1.7-1.3-2.4-1.9c-0.1-0.1-0.2-0.1-0.2-0.2c0.5-0.8,1.2-1.6,1.9-2.4
				c0.5-0.5,0.9-1,1.5-1.4c0,0,0.1,0.1,0.1,0.1c0.7,0.5,1.4,1.2,2.2,1.9C9.3,37,7.8,38.7,7.3,39.7z"/>
		</g>
		<g>
			<path class="st3" d="M3.9,46.8c5.1,0.8,16.6,1.3,16.8-0.1c0.2-1.4-10.9-4.2-16-5C-0.5,41-1.2,46.1,3.9,46.8z"/>
			<path class="st4" d="M1.5,45.9c-1.8-1.3-1.4-3.5,0.9-4.1C1.7,43,1.4,44.6,1.5,45.9z"/>
			<path class="st5" d="M6.8,47.2c-1.1-0.1-2.1-0.2-2.9-0.3c-0.1,0-0.2,0-0.3,0c0.1-0.9,0.2-2,0.4-3c0.1-0.7,0.3-1.3,0.5-2
				c0,0,0.1,0,0.1,0c0.8,0.1,1.7,0.3,2.7,0.5C7.1,43.9,6.7,46.1,6.8,47.2z"/>
		</g>
		<g>
			<path class="st3" d="M6.6,55c4.8-1.9,15-7.1,14.5-8.4c-0.5-1.3-11.5,1.8-16.4,3.7C-0.1,52.2,1.8,56.9,6.6,55z"/>
			<path class="st4" d="M4.1,55.4c-2.2-0.2-2.9-2.3-1.2-4C2.8,52.8,3.3,54.3,4.1,55.4z"/>
			<path class="st5" d="M9.3,53.9c-1,0.4-1.9,0.8-2.7,1.1c-0.1,0-0.2,0.1-0.3,0.1c-0.4-0.8-0.8-1.8-1.2-2.8c-0.2-0.6-0.4-1.3-0.6-2
				c0,0,0.1,0,0.1,0c0.7-0.3,1.6-0.6,2.6-0.9C7.9,50.9,8.6,53,9.3,53.9z"/>
		</g>
		<g>
			<path class="st0" d="M36.6,42.3c-4.8,2-15.7,5.4-16.3,4.1c-0.5-1.3,9.5-6.8,14.3-8.8C39.5,35.6,41.4,40.3,36.6,42.3z"/>
			<path class="st1" d="M38.7,40.8c1.4-1.7,0.4-3.7-1.9-3.7C37.8,38,38.5,39.4,38.7,40.8z"/>
			<path class="st2" d="M33.9,43.3c1-0.4,2-0.7,2.7-1.1c0.1,0,0.2-0.1,0.3-0.1c-0.3-0.9-0.7-1.9-1.1-2.8c-0.3-0.6-0.6-1.2-1-1.8
				c0,0-0.1,0-0.1,0c-0.7,0.3-1.6,0.7-2.5,1.2C32.8,40.2,33.8,42.2,33.9,43.3z"/>
		</g>
		<g>
			<path class="st0" d="M33.2,34.5c-3.1,4.2-10.8,12.7-11.9,11.8c-1.1-0.8,4.7-10.7,7.8-14.9C32.2,27.3,36.3,30.3,33.2,34.5z"/>
			<path class="st1" d="M34.3,32.2c0.3-2.2-1.5-3.4-3.5-2.2C32,30.2,33.4,31.1,34.3,32.2z"/>
			<path class="st2" d="M31.4,36.8c0.7-0.8,1.3-1.6,1.8-2.3c0.1-0.1,0.1-0.2,0.2-0.2c-0.7-0.6-1.5-1.3-2.4-1.9
				c-0.6-0.4-1.1-0.7-1.7-1c0,0-0.1,0.1-0.1,0.1c-0.5,0.6-1,1.4-1.6,2.3C28.9,34.7,30.7,35.9,31.4,36.8z"/>
		</g>
		<g>
			<path class="st0" d="M26.6,29.3c-1.1,5.1-4.6,16-6,15.7c-1.4-0.3-0.1-11.7,1-16.8C22.7,23.1,27.6,24.2,26.6,29.3z"/>
			<path class="st1" d="M26.6,26.7c-0.6-2.1-2.8-2.5-4.1-0.6C23.7,25.9,25.3,26.1,26.6,26.7z"/>
			<path class="st2" d="M25.9,32.1c0.3-1,0.5-2,0.7-2.8c0-0.1,0-0.2,0.1-0.3c-0.9-0.3-1.9-0.5-3-0.7c-0.7-0.1-1.3-0.2-2-0.2
				c0,0,0,0.1,0,0.1c-0.2,0.8-0.3,1.7-0.5,2.7C22.7,31.2,24.9,31.6,25.9,32.1z"/>
		</g>
		<g>
			<path class="st3" d="M30.2,31.8c-2.3,5.1-8.5,15.7-9.7,15.1c-1.3-0.6,2.8-12.2,5.1-17.3C27.9,24.7,32.6,26.8,30.2,31.8z"/>
			<path class="st4" d="M30.9,29.2c-0.1-2.3-2.1-3.2-3.9-1.4C28.3,27.7,29.8,28.3,30.9,29.2z"/>
			<path class="st5" d="M28.9,34.7c0.5-1,1-2,1.4-2.8c0-0.1,0.1-0.2,0.1-0.3c-0.8-0.5-1.7-0.9-2.8-1.3c-0.6-0.2-1.3-0.5-1.9-0.6
				c0,0,0,0.1-0.1,0.1c-0.4,0.8-0.8,1.7-1.2,2.8C26,33.1,28,33.9,28.9,34.7z"/>
		</g>
		<g>
			<path class="st3" d="M35.5,37.8c-4.2,3.5-14.2,10.3-15.1,9.2s7.6-9.6,11.8-13.1C36.5,30.4,39.7,34.3,35.5,37.8z"/>
			<path class="st4" d="M37.2,35.7c0.9-2.1-0.6-3.8-2.9-3C35.5,33.3,36.6,34.4,37.2,35.7z"/>
			<path class="st5" d="M33.1,39.7c0.9-0.7,1.7-1.3,2.4-1.9c0.1-0.1,0.2-0.1,0.2-0.2c-0.5-0.8-1.2-1.6-1.9-2.4
				c-0.5-0.5-0.9-1-1.5-1.4c0,0-0.1,0.1-0.1,0.1c-0.7,0.5-1.4,1.2-2.2,1.9C31.2,37,32.6,38.7,33.1,39.7z"/>
		</g>
		<g>
			<path class="st3" d="M36.5,46.8c-5.1,0.8-16.6,1.3-16.8-0.1c-0.2-1.4,10.9-4.2,16-5C40.9,41,41.6,46.1,36.5,46.8z"/>
			<path class="st4" d="M38.9,45.9c1.8-1.3,1.4-3.5-0.9-4.1C38.7,43,39,44.6,38.9,45.9z"/>
			<path class="st5" d="M33.6,47.2c1.1-0.1,2.1-0.2,2.9-0.3c0.1,0,0.2,0,0.3,0c-0.1-0.9-0.2-2-0.4-3c-0.1-0.7-0.3-1.3-0.5-2
				c0,0-0.1,0-0.1,0C35,41.9,34,42.1,33,42.3C33.3,43.9,33.7,46.1,33.6,47.2z"/>
		</g>
		<g>
			<path class="st3" d="M17.7,28.2c0,5.9,1.1,18.8,2.5,18.8c1.4,0,2.5-12.9,2.5-18.8S17.7,22.3,17.7,28.2z"/>
			<path class="st4" d="M18.3,25.4c1-2.2,3.3-2.1,4.2,0.3C21.2,25.1,19.6,25,18.3,25.4z"/>
			<path class="st5" d="M17.8,31.5c-0.1-1.2-0.1-2.4-0.1-3.3c0-0.1,0-0.2,0-0.3c0.9-0.1,2-0.1,3.1-0.1c0.7,0,1.3,0.1,2,0.2
				c0,0,0,0.1,0,0.1c0,0.9,0,2-0.1,3.2C21.1,31.3,18.9,31.2,17.8,31.5z"/>
		</g>
	</g>
	<path class="st6" d="M47.3,44.8c4.5,0.9,9.4-1.4,11.7-5.3c2.3-3.9,1.9-9.3-1.1-12.8c-0.2-0.3-0.5-0.6-0.9-0.6c-0.7,0-0.9,0.9-1,1.6
		c-0.4,2.7-1.9,5.1-4.2,6.7c-1.4,1-3.1,1.5-4.4,2.6c-1.3,1-2.2,2.5-2.5,4.2c-0.2,1-0.2,2.1,0.5,2.8C45.9,44.5,46.6,44.7,47.3,44.8z"
		/>
	<path class="st7" d="M41.2,66.8c0.3,0,0.7-0.1,1.1-0.1c0,0,0,0,0,0c-0.2-1.4-0.1-8.6-0.1-8.6l1.3-0.7c0,0-0.3,7.8-0.2,9.2
		c0.1,0,1.4-0.4,1.8-0.4c0.5,0,1.5-0.1,1.8,0.4c0.3,0.4-1,0.5-1.2,0.5c0.4,0.1,1.5,0.4,1.7,0.9c0.1,0.5-1.9,0-2.1,0
		c0.1,0.1,0.1,0.1,0.1,0.2c0.1,0.2,0.6,1,0.1,1c-0.5,0-1.1-0.7-1.5-0.9c-0.1-0.1-0.2-0.2-0.3-0.2c-0.2-0.1-0.3-0.2-0.5-0.3
		c-0.4,0-0.7,0-1.1,0c-0.2,0-0.7,0.1-0.9,0C41,67.7,40.9,66.9,41.2,66.8C41.5,66.8,40.9,66.9,41.2,66.8z"/>
	<path class="st7" d="M31.4,66.8c0.3,0,0.7-0.1,1.1-0.1c0,0,0,0,0,0c-0.2-1.4-0.1-8.6-0.1-8.6l1.3-0.7c0,0-0.3,7.8-0.2,9.2
		c0.1,0,1.4-0.4,1.8-0.4c0.5,0,1.5-0.1,1.8,0.4c0.3,0.4-1,0.5-1.2,0.5c0.4,0.1,1.5,0.4,1.7,0.9c0.1,0.5-1.9,0-2.1,0
		c0.1,0.1,0.1,0.1,0.1,0.2c0.1,0.2,0.6,1,0.1,1c-0.5,0-1.1-0.7-1.5-0.9c-0.1-0.1-0.2-0.2-0.3-0.2c-0.2-0.1-0.3-0.2-0.5-0.3
		c-0.4,0-0.7,0-1.1,0c-0.2,0-0.7,0.1-0.9,0C31.2,67.7,31,66.9,31.4,66.8C31.7,66.8,31,66.9,31.4,66.8z"/>
	<path class="st8" d="M43.4,60.2c-0.8,0.2-1.8,0-2.5-0.4c-0.8-0.4-1.4-1.1-2-1.7c2.9-2,3.7-2.4,7.2-3C46,59.4,44.2,60,43.4,60.2z"/>
	<path class="st9" d="M33.9,61c-0.8,0.2-1.8,0-2.5-0.4c-0.8-0.4-1.4-1.1-2-1.7c2.9-2,3.3-2,6.8-2.6C36.4,60.3,34.7,60.7,33.9,61z"/>
	<path class="st9" d="M49.9,30.4c0.4,1.9,0.7,3.8,1,5.8c0.5,3.6,0.9,7.2,0.5,10.8s-1.9,7.2-4.7,9.4c-2.7,2.2-6.3,2.5-9.7,3.1
		c-17.6,3-23-15.3-18.9-17.9c4.1-2.6,9.8,1.7,12.6-2.6c1.7-2.5,3.5-8,5.1-10.5C38.6,24.3,48,21.7,49.9,30.4z"/>
	<path class="st10" d="M34,40.4c-0.6-0.2-0.6-1-0.5-1.6c0.2-1.1,0.5-3.4,0.5-3.4s-1.4,3.5-3.1,4.2c-0.3,0.1-0.6,0.2-0.9,0.2
		c0.2-0.3,0.4-0.5,0.6-0.8c1.7-2.5,3-24.2,4.6-26.7c2.8-4.2,12.1-6.8,14.1,1.9c0.4,1.9,1.2,20,1.5,22c0.2,1.4,0.4,2.8,0.5,4.2
		c-1.5-0.4-2.4-4.2-2.4-4.2s0.2,2.2,0.2,3.3c0,0.4-0.1,0.8-0.4,1c-0.4,0.3-1,0.2-1.4-0.1c-0.7-0.5-1.3-1.2-1.5-2.1s-0.5-2.6-0.5-2.6
		s0.1,3.1-0.4,4.5c-0.2,0.6-0.5,1.3-1.1,1.5c-0.8,0.2-1.6-0.6-1.9-1.4c-0.8-1.7-0.6-5.1-0.6-5.1S41,39,40.5,39.7
		c-0.5,0.6-1.4,1-2.1,0.6c-0.6-0.3-0.8-1-1-1.6c-0.3-1.1-0.2-3.4-0.2-3.4s-0.9,3.1-1.9,4.4C35.1,40.2,34.5,40.6,34,40.4z"/>
	<g>
		<path class="st11" d="M47.2,17.8c0.5,0.1,1.1,0.3,1.5,0.7c-0.2-0.9-0.8-1.7-1.6-2.1c-0.8-0.4-1.8-0.5-2.7-0.4c0,1,0.4,1.5,0.7,1.7
			c0.3,0.1,0.5,0.1,0.8,0.1C46.4,17.7,46.8,17.7,47.2,17.8z"/>
		<path class="st7" d="M47.5,14.7c0.5,0.1,2.1,0.8,1.3,3.7c-1.2-1.3-3.6-1.8-3.8-1.9c-0.2-0.1-0.4-0.3-0.5-0.5
			c-0.1-0.4,0.3-0.7,0.6-0.9C45.8,14.7,46.6,14.6,47.5,14.7z"/>
		<path class="st11" d="M45.6,15.2c0.2-0.1,0.5,0,0.7,0.2c0.2,0.2,0.3,0.4,0.3,0.6c-0.2-0.1-0.3-0.2-0.5-0.2c-0.1,0-0.3,0-0.4,0
			c-0.1,0-0.2-0.1-0.2-0.3C45.4,15.3,45.5,15.2,45.6,15.2z"/>
		<path class="st11" d="M47.6,14.9c0.1,0.1,0.1,0.1,0.1,0.2c0.1,0.2,0.1,0.4,0.1,0.6c-0.2-0.3-0.4-0.5-0.7-0.6c0,0-0.1,0-0.1-0.1
			c0,0,0-0.1,0.1-0.1c0,0,0.1,0,0.1,0C47.3,14.8,47.5,14.8,47.6,14.9z"/>
	</g>
	<g>
		<path class="st12" d="M49.3,42.1c0-0.1-0.2,0-0.2,0c0,0.2,0.1,0.6,0.1,0.9c0,0.2,0,0.3,0,0.4c0,0.1,0,0.2,0.1,0.2
			c0,0,0.1-0.1,0.1-0.2c0-0.1,0.1-0.3,0.1-0.5C49.4,42.7,49.3,42.3,49.3,42.1z"/>
		<path class="st12" d="M47.7,43c0-0.1-0.2,0-0.2,0c0,0.3,0.1,0.7,0,1.1c0,0.1,0,0.2,0,0.3c0,0.1,0,0.2,0,0.2c0,0.1,0,0.2,0,0.2
			c0,0,0.1-0.1,0.1-0.2c0-0.1,0.1-0.1,0.1-0.2c0-0.1,0-0.2,0.1-0.3C47.8,43.8,47.7,43.3,47.7,43z"/>
		<path class="st12" d="M50.4,44.2c0-0.1-0.2,0-0.2,0c0,0.2,0,0.6-0.1,0.9c0,0.1,0,0.2-0.1,0.2c0,0.1-0.1,0.1-0.1,0.2
			c0,0.1,0,0.2,0,0.2c0,0,0.1,0,0.2-0.1c0-0.1,0.1-0.1,0.1-0.2c0-0.1,0.1-0.2,0.1-0.2C50.4,44.8,50.4,44.4,50.4,44.2z"/>
		<path class="st12" d="M47.2,41.3c0-0.1-0.2-0.1-0.2,0c0,0.3-0.1,1.1,0,1.1C47.2,42.4,47.2,41.6,47.2,41.3z"/>
		<path class="st12" d="M46,42.4c0-0.1-0.2-0.1-0.2,0c0,0.4-0.1,1.4,0,1.4C45.9,43.8,46,42.8,46,42.4z"/>
		<path class="st12" d="M44.6,43.4c0-0.1-0.2-0.1-0.2-0.1c-0.1,0.4-0.4,1.4-0.3,1.5C44.3,44.9,44.6,43.8,44.6,43.4z"/>
		<path class="st12" d="M45.3,44.7c0-0.1-0.2,0-0.2,0c0,0.2,0,0.5,0,0.8c0,0.3-0.1,0.6,0,0.6c0,0,0.1,0,0.1-0.1
			c0-0.1,0.1-0.2,0.1-0.4C45.3,45.3,45.3,44.9,45.3,44.7z"/>
		<path class="st12" d="M49,44.8c0-0.1-0.2-0.1-0.2,0c-0.1,0.5-0.3,1.7-0.2,1.7C48.8,46.5,49,45.3,49,44.8z"/>
		<path class="st12" d="M46.9,45.9c0-0.1-0.2-0.1-0.2,0c-0.1,0.4-0.3,1.4-0.2,1.4C46.6,47.3,46.8,46.3,46.9,45.9z"/>
		<path class="st12" d="M49.7,47.3c0-0.1-0.2,0-0.2,0c0,0.2,0,0.6-0.1,1c0,0.1,0,0.2,0,0.3c0,0.1,0,0.1,0,0.2c0,0.1,0,0.2,0,0.2
			c0,0,0.1-0.1,0.1-0.2c0-0.1,0.1-0.1,0.1-0.2c0-0.1,0-0.2,0.1-0.3C49.8,48,49.8,47.6,49.7,47.3z"/>
		<path class="st12" d="M48,48c0-0.1-0.2-0.1-0.2,0c0,0.2,0,0.6-0.2,1c0,0.1,0,0.2-0.1,0.2c0,0.1-0.1,0.1-0.1,0.2
			c0,0.1-0.1,0.2,0,0.2c0,0,0.1,0,0.2-0.1c0-0.1,0.1-0.1,0.1-0.2c0-0.1,0.1-0.2,0.1-0.3C48,48.7,48,48.3,48,48z"/>
		<path class="st12" d="M45.5,47.2c0-0.1-0.2-0.1-0.2,0c0,0.3-0.1,0.8-0.3,1.2c-0.1,0.2-0.1,0.4-0.2,0.6c0,0.1-0.1,0.2,0,0.3
			c0,0,0.1-0.1,0.2-0.2c0.1-0.1,0.2-0.3,0.2-0.6C45.4,48.1,45.5,47.5,45.5,47.2z"/>
		<path class="st12" d="M43.9,46.1c0-0.1-0.2-0.1-0.2,0c-0.1,0.3-0.3,1.2-0.1,1.2C43.7,47.3,43.9,46.5,43.9,46.1z"/>
		<path class="st12" d="M43.1,44.8c0-0.1-0.2-0.1-0.2,0c-0.1,0.3-0.3,1.1-0.1,1.1C42.9,45.9,43,45.1,43.1,44.8z"/>
		<path class="st12" d="M43.7,48.6c0-0.1-0.2-0.1-0.2-0.1c-0.1,0.2-0.3,0.9-0.2,0.9C43.4,49.5,43.6,48.9,43.7,48.6z"/>
		<path class="st12" d="M42.4,47.2c0-0.1-0.2-0.1-0.2,0c0,0.2,0,0.6-0.1,1c0,0.2-0.1,0.3-0.1,0.4c0,0.1,0,0.2,0,0.2
			c0,0,0.1,0,0.1-0.2c0.1-0.1,0.1-0.3,0.2-0.5C42.5,47.8,42.4,47.4,42.4,47.2z"/>
		<path class="st12" d="M46.1,49.5c0-0.1-0.2-0.1-0.2,0c0,0.2-0.1,0.6-0.2,0.8c0,0.1-0.1,0.1-0.1,0.2c0,0.1-0.1,0.1-0.1,0.2
			c0,0.1-0.1,0.2,0,0.2c0,0,0.1,0,0.2-0.1c0,0,0.1-0.1,0.1-0.2c0-0.1,0.1-0.1,0.1-0.2C46,50.1,46.1,49.7,46.1,49.5z"/>
		<path class="st12" d="M48.8,50.2c0-0.1-0.2-0.1-0.2-0.1c-0.2,0.4-0.6,1.4-0.5,1.5C48.3,51.7,48.7,50.6,48.8,50.2z"/>
		<path class="st12" d="M46.9,51.6c0-0.1-0.2-0.2-0.2-0.1c-0.2,0.3-0.8,1.1-0.7,1.2C46.1,52.7,46.7,51.9,46.9,51.6z"/>
		<path class="st12" d="M44.6,50.5c0-0.1-0.2-0.1-0.2,0c0,0.2-0.1,0.5-0.3,0.8c0,0.1-0.1,0.1-0.1,0.2c0,0.1-0.1,0.1-0.1,0.2
			c-0.1,0.1-0.1,0.2,0,0.2c0,0,0.1,0,0.2-0.1c0,0,0.1-0.1,0.1-0.1c0-0.1,0.1-0.1,0.1-0.2C44.4,51.1,44.5,50.7,44.6,50.5z"/>
		<path class="st12" d="M42.7,49.8c0-0.1-0.2-0.1-0.2-0.1c-0.1,0.2-0.2,0.5-0.3,0.8c-0.1,0.1-0.2,0.3-0.2,0.3
			c-0.1,0.1-0.1,0.2,0,0.2c0,0,0.1,0,0.2-0.1c0.1-0.1,0.2-0.2,0.3-0.3C42.5,50.3,42.6,50,42.7,49.8z"/>
		<path class="st12" d="M42.9,51.6c0-0.1-0.2-0.1-0.2-0.1c-0.1,0.4-0.6,1.5-0.4,1.5C42.4,53.1,42.8,52,42.9,51.6z"/>
		<path class="st12" d="M41.2,50.3c0-0.1-0.2-0.1-0.2-0.1c-0.1,0.3-0.6,1-0.4,1.1C40.7,51.4,41.1,50.6,41.2,50.3z"/>
		<path class="st12" d="M41.6,52.6c0.1-0.1-0.1-0.2-0.2-0.1c-0.2,0.3-1,1.1-0.8,1.2C40.7,53.7,41.3,52.9,41.6,52.6z"/>
		<path class="st12" d="M44.7,52.9c0-0.1-0.1-0.2-0.2-0.1c-0.2,0.3-0.8,1.1-0.7,1.2C43.9,54.1,44.5,53.2,44.7,52.9z"/>
		<path class="st12" d="M47.7,52.8c0.1-0.1-0.1-0.2-0.2-0.1c-0.3,0.4-1.1,1.3-1,1.4C46.7,54.2,47.4,53.2,47.7,52.8z"/>
		<path class="st12" d="M49.2,52.4c0-0.1-0.2-0.2-0.2-0.1c-0.2,0.3-0.7,1-0.6,1.1C48.5,53.4,49,52.7,49.2,52.4z"/>
		<path class="st12" d="M45.1,54.5c0.1-0.1-0.1-0.2-0.2-0.1c-0.1,0.2-0.4,0.4-0.7,0.6C44.1,55,44.1,55,44,55c-0.1,0-0.1,0.1-0.2,0.1
			c-0.1,0.1-0.2,0.1-0.1,0.1c0,0,0.1,0,0.2,0c0.1,0,0.1,0,0.2-0.1c0.1,0,0.1-0.1,0.2-0.1C44.6,54.9,44.9,54.6,45.1,54.5z"/>
		<path class="st12" d="M42.6,54.3c0,0-0.1-0.2-0.1-0.2c-0.2,0.2-0.8,0.6-0.7,0.7C41.9,54.9,42.4,54.4,42.6,54.3z"/>
		<path class="st12" d="M39.4,53.5c0.1-0.1-0.1-0.2-0.1-0.2c-0.3,0.2-1,0.8-0.9,0.9C38.4,54.3,39.1,53.7,39.4,53.5z"/>
		<path class="st12" d="M40.6,54.5c0-0.1-0.2-0.1-0.2-0.1c-0.1,0.1-0.2,0.3-0.4,0.4c0,0-0.1,0.1-0.1,0.1c0,0-0.1,0-0.1,0.1
			c-0.1,0-0.1,0.1-0.1,0.1c0,0,0.1,0,0.1,0c0,0,0.1,0,0.1,0c0,0,0.1-0.1,0.1-0.1C40.4,54.9,40.6,54.6,40.6,54.5z"/>
		<path class="st12" d="M42.1,55.6c0-0.1-0.2-0.2-0.2-0.1c-0.1,0.1-0.3,0.4-0.5,0.5c-0.1,0.1-0.2,0.2-0.3,0.2
			c-0.1,0.1-0.1,0.1-0.1,0.1c0,0,0.1,0,0.2,0c0.1,0,0.2-0.1,0.3-0.2C41.8,56,42,55.8,42.1,55.6z"/>
		<path class="st12" d="M46.6,55.1c0-0.1-0.2-0.1-0.2-0.1c-0.1,0.2-0.2,0.4-0.4,0.6c0,0-0.1,0.1-0.1,0.1c0,0-0.1,0.1-0.1,0.1
			C45.6,56,45.6,56,45.6,56c0,0,0.1,0,0.2,0c0,0,0.1,0,0.2-0.1c0.1,0,0.1-0.1,0.2-0.1C46.4,55.6,46.5,55.3,46.6,55.1z"/>
		<path class="st12" d="M43.9,56.7c0.1-0.1-0.1-0.2-0.2-0.2c-0.1,0.1-0.4,0.4-0.7,0.5c-0.1,0.1-0.3,0.1-0.4,0.2
			c-0.1,0.1-0.1,0.1-0.1,0.1c0,0,0.1,0,0.2,0c0.1,0,0.3-0.1,0.4-0.1C43.4,57.2,43.7,56.9,43.9,56.7z"/>
		<path class="st12" d="M39.8,56.4c0.1-0.1,0-0.2-0.1-0.2c-0.2,0.1-0.7,0.3-1.1,0.4c-0.1,0-0.2,0.1-0.3,0.1c-0.1,0-0.2,0-0.2,0.1
			c-0.1,0-0.2,0.1-0.2,0.1c0,0,0.1,0.1,0.2,0.1c0.1,0,0.2,0,0.3,0c0.1,0,0.2,0,0.3-0.1C39.1,56.7,39.6,56.5,39.8,56.4z"/>
		<path class="st12" d="M38.5,54.9c0-0.1-0.2-0.2-0.2-0.1c-0.1,0.1-0.3,0.3-0.5,0.4c0,0-0.1,0.1-0.1,0.1c0,0-0.1,0-0.1,0.1
			c-0.1,0-0.1,0.1-0.1,0.1c0,0,0.1,0,0.2,0c0,0,0.1,0,0.2,0c0.1,0,0.1,0,0.2-0.1C38.2,55.2,38.4,55,38.5,54.9z"/>
		<path class="st12" d="M40.8,57.6c0.1,0,0-0.2-0.1-0.2c-0.4,0.1-1.5,0.5-1.5,0.6C39.4,58.1,40.4,57.7,40.8,57.6z"/>
		<path class="st12" d="M36.3,55.1c0.1-0.1-0.1-0.2-0.1-0.2c-0.1,0.1-0.4,0.3-0.6,0.4c-0.1,0-0.1,0-0.2,0.1c-0.1,0-0.1,0-0.2,0
			c-0.1,0-0.1,0.1-0.1,0.1c0,0,0.1,0.1,0.2,0.1c0,0,0.1,0,0.2,0c0.1,0,0.1,0,0.2-0.1C35.9,55.4,36.2,55.2,36.3,55.1z"/>
		<path class="st12" d="M37.1,56.3c0.1,0-0.1-0.2-0.1-0.2c-0.2,0.1-0.9,0.4-0.9,0.5C36.2,56.7,36.9,56.4,37.1,56.3z"/>
		<path class="st12" d="M38.1,57.7c0.1-0.1-0.1-0.2-0.1-0.2c-0.2,0.1-0.5,0.3-0.8,0.3c-0.1,0.1-0.3,0.1-0.4,0.1
			c-0.1,0-0.2,0.1-0.2,0.1c0,0,0.1,0.1,0.2,0.1c0.1,0,0.3,0,0.4-0.1C37.6,58,37.9,57.8,38.1,57.7z"/>
		<path class="st12" d="M35.5,57.8c0.1,0,0-0.2,0-0.2c-0.3,0.1-1.2,0.2-1.2,0.3C34.3,58,35.2,57.9,35.5,57.8z"/>
		<path class="st12" d="M34.6,56.2c0.1,0,0-0.2-0.1-0.2c-0.4,0.1-1.5,0.4-1.4,0.6C33.2,56.7,34.2,56.4,34.6,56.2z"/>
		<path class="st12" d="M36.4,58.8c0.1,0,0-0.2,0-0.2c-0.3,0-1.1,0.1-1.1,0.2C35.2,59,36.1,58.9,36.4,58.8z"/>
		<path class="st12" d="M39.5,58.7c0.1,0,0-0.2,0-0.2c-0.3,0-1,0-1,0.1C38.5,58.8,39.2,58.8,39.5,58.7z"/>
		<path class="st12" d="M33.2,58.4c0.1,0,0-0.2,0-0.2c-0.3,0-1.2,0.1-1.2,0.2C32,58.5,32.9,58.5,33.2,58.4z"/>
		<path class="st12" d="M32.7,57.4c0.1,0,0-0.2,0-0.2c-0.2,0-0.9,0.1-0.8,0.3C31.9,57.6,32.5,57.4,32.7,57.4z"/>
		<path class="st12" d="M30.5,58c0.1,0,0-0.2,0-0.2c-0.4,0-1.3,0.1-1.3,0.2C29.1,58.1,30.1,58,30.5,58z"/>
		<path class="st12" d="M31.1,56.7c0.1,0,0-0.2-0.1-0.2c-0.4,0.1-1.4,0.4-1.4,0.5C29.7,57.2,30.7,56.9,31.1,56.7z"/>
	</g>
	<path class="st6" d="M38.1,38.1c0.1,4.6-2.8,9.1-7.1,10.8c-4.3,1.7-9.5,0.4-12.5-3.1c-0.2-0.3-0.5-0.6-0.4-1
		c0.1-0.7,1.1-0.8,1.8-0.8c2.7,0,5.4-1.1,7.2-3.1c1.2-1.3,2-2.8,3.3-4c1.2-1.1,2.9-1.8,4.5-1.9c1,0,2.1,0.2,2.7,1
		C38,36.6,38.1,37.4,38.1,38.1z"/>
	<g>
		<path class="st11" d="M34.9,41.3c-0.4,0.2-0.9,0.3-1.4,0.1c-0.8-0.3-1.1-1-1.2-1.7c-1.2,0.7-3.3-1-1.7-2.3
			c0.1-0.1,0.5,0.1,0.5,0.2c-0.5,0.4-0.6,0.8-0.5,1.4c0.3,1.2,1.6,0.5,1.9-0.3c0,0,0-0.1,0-0.1c0-0.1,0.5,0,0.5,0.1
			c0,0.1,0,0.2-0.1,0.2c-0.2,0.6-0.2,1.1,0.1,1.7c0.5,1,1.6,0.6,1.9-0.1c0-0.1,0-0.2,0.1-0.2c0-0.1,0.5,0,0.5,0.1
			c0,0.1,0,0.2-0.1,0.3c-0.1,0.3-0.1,0.6,0,0.9c0.2,0.8,1.2,0.5,1.2-0.3c0-0.1,0.5,0,0.5,0.1c0.1,0.7-0.6,1.1-1.2,0.9
			C35.3,42.2,35,41.8,34.9,41.3z"/>
		<path class="st11" d="M31.8,43.8c-0.4,0.3-0.9,0.5-1.5,0.3c-0.7-0.2-0.9-0.7-0.8-1.3c-0.3,0.2-0.6,0.2-0.9,0.1
			c-1.3-0.4-0.7-1.6,0.1-2.2c0.1-0.1,0.5,0.1,0.5,0.2c-0.5,0.5-1,1-0.7,1.7c0.3,0.8,1.1-0.3,1.2-0.4c0-0.1,0.1-0.1,0.1-0.2
			c0.1-0.2,0.2-0.4,0.3-0.6c0.1-0.1,0.5,0.1,0.5,0.1c-0.1,0.2-0.2,0.3-0.2,0.5c-0.2,0.5-0.3,0.9-0.2,1.5c0.2,0.5,0.9,0.5,1.2,0.2
			c0.4-0.2,0.6-0.7,0.9-1c0.1-0.1,0.5,0.1,0.5,0.1c-0.3,0.7-0.6,1.3-0.3,2.1c0.4,1,1.3,0.4,1.7,0.1c0.3-0.3,0.6-0.7,0.7-1
			c0.1-0.1,0.5,0.1,0.5,0.1c-0.5,1-1.4,1.7-2.5,1.4C31.9,45.2,31.7,44.5,31.8,43.8z"/>
		<path class="st11" d="M23.8,44.2c0.1,0,0.6,0.2,0.3,0.2c-1.3,0.3-1.2,2.6,0.3,2.2c0,0,0,0,0,0c0,0,0.1,0,0.1,0c0,0,0,0,0,0
			c0,0,0,0,0,0c0.1,0,0.5,0.2,0.3,0.2c-0.1,0-0.2,0.1-0.2,0.1c-0.4,0.1-0.7,0.3-0.8,0.7c-0.3,0.9,1.3,0.9,1.9,0.8
			c0.1,0,0.6,0.2,0.3,0.2c-0.7,0.2-1.8,0.3-2.4-0.4c-0.5-0.6-0.3-1.1,0.2-1.4c-0.3-0.1-0.6-0.3-0.9-0.5
			C22.2,45.5,22.9,44.4,23.8,44.2z"/>
		<path class="st11" d="M25.3,44.5c-0.8-0.7,0.4-1.6,1-1.7c0.2,0,0.6,0.2,0.3,0.3c-0.3,0.1-0.6,0.2-0.8,0.4
			c-0.8,0.7,0.6,1.2,1.2,0.9c0.1,0,0.6,0.1,0.4,0.2c-0.4,0.3-0.7,0.5-0.9,1c-0.1,0.8,0.3,1,1.3,0.7c0.1,0,0.2-0.1,0.3-0.1
			c0.2-0.1,0.3-0.2,0.5-0.3c0.1-0.1,0.6,0.1,0.4,0.2c-0.1,0.1-0.2,0.2-0.3,0.2c-0.1,0.1-0.2,0.1-0.2,0.2c-0.7,0.7,0.4,1.3,1,1.3
			c0.7,0,1.3-0.3,1.8-0.7c0.1-0.1,0.6,0.1,0.5,0.2c-0.9,0.7-2.1,1-3.2,0.6c-0.4-0.1-0.7-0.4-0.8-0.8c0-0.1,0-0.3,0-0.4
			c-0.4,0.1-0.7,0-1.1-0.2c-0.8-0.5-0.5-1.1-0.1-1.7C26.1,44.9,25.7,44.8,25.3,44.5z"/>
	</g>
	<path class="st13" d="M47,22.9c-0.1-1.7-1.3-2.8-2.2-4.2c-0.6-0.9-0.9-2.1-0.2-3.1c0.3-0.4,1-0.9,2-1c0.4,0,0.8-0.1,0.1-0.2
		c-1.6-0.3-4.2,0.8-4.2,3c0,1,0.4,1.9,0.8,2.7c0.5,0.9,1.3,1.8,1.4,2.9c0,0.2,0,0.5,0,0.7c0,0.1,0,0.1,0,0.2
		c-0.1,0.3-0.3,0.4-0.4,0.7c-0.1,0.1-0.1,0.3,0.1,0.5c0.1,0.2,0.4,0.3,0.8,0.3c0.2,0,0.4,0,0.6-0.2c0.2-0.1,0.5-0.3,0.6-0.5
		C46.8,24.2,47,23.6,47,22.9C47,22.8,47,23.6,47,22.9z"/>
	<g>
		<path class="st10" d="M47.7,11.6c-0.4,0.4-0.4,1-0.1,1.5c0.2,0.2,0.5,0.4,0.9,0.4c0.5,0,0.8-0.4,0.9-0.8c0.1-0.3,0.1-0.7-0.1-1
			c-0.2-0.3-0.6-0.5-1-0.5C48.1,11.3,47.8,11.4,47.7,11.6z"/>
		<path class="st12" d="M38.5,12.5c-0.3,0.3-0.4,0.9-0.1,1.2c0.2,0.2,0.4,0.4,0.7,0.3c0.4,0,0.7-0.3,0.8-0.6
			c0.1-0.3,0.1-0.6-0.1-0.8c-0.2-0.2-0.5-0.4-0.8-0.4C38.9,12.2,38.7,12.3,38.5,12.5z"/>
		<path d="M38.7,13.3c0,0.1,0.1,0.2,0.2,0.2c0.2,0.1,0.4,0.1,0.5,0c0.1-0.1,0.2-0.4,0.1-0.5c-0.1-0.2-0.3-0.3-0.5-0.2
			C38.8,12.8,38.6,13.1,38.7,13.3z"/>
		<path class="st12" d="M47.8,11.7c-0.3,0.3-0.4,0.9-0.1,1.2c0.2,0.2,0.4,0.4,0.7,0.3c0.4,0,0.7-0.3,0.8-0.6
			c0.1-0.3,0.1-0.6-0.1-0.8c-0.2-0.2-0.5-0.4-0.8-0.4C48.1,11.5,47.9,11.6,47.8,11.7z"/>
		<path d="M47.9,12.5c0,0.1,0.1,0.2,0.2,0.2c0.2,0.1,0.4,0.1,0.5,0c0.1-0.1,0.2-0.4,0.1-0.5c-0.1-0.2-0.3-0.3-0.5-0.2
			C48,12,47.9,12.3,47.9,12.5z"/>
	</g>
	<g>
		<ellipse transform="matrix(0.9669 -0.2553 0.2553 0.9669 -1.1204 10.7011)" class="st14" cx="40.7" cy="9.7" rx="5.3" ry="1.8"/>
		<path d="M36.8,10.4c0,0,1,0.7,3.9-0.1c2.9-0.8,3.7-1.9,3.7-1.9l-3.9-7.7C40.3,0.2,39.6-0.1,39,0l-1.7,0.4c-0.6,0.2-1,0.7-1,1.3
			L36.8,10.4z"/>
		<path class="st15" d="M40.2,8.3c1.9-0.5,2.9-1.2,3.4-1.6l0.9,1.7c0,0-0.8,1.1-3.7,1.9c-2.9,0.8-3.9,0.1-3.9,0.1l-0.1-1.9
			C37.3,8.7,38.3,8.7,40.2,8.3z"/>
		<path class="st7" d="M42.1,10.1l-2.3,0.6L39,8.2l2.6-0.6L42.1,10.1z M40.1,10.3l1.6-0.4L41.4,8l-1.9,0.5L40.1,10.3z"/>
	</g>
</g>
</svg>
