<?xml version="1.0" encoding="utf-8"?>
<!-- Generator: Adobe Illustrator 19.2.1, SVG Export Plug-In . SVG Version: 6.00 Build 0)  -->
<svg version="1.1" id="Layer_1" xmlns="http://www.w3.org/2000/svg" xmlns:xlink="http://www.w3.org/1999/xlink" x="0px" y="0px"
	 viewBox="0 0 31 34.8" style="enable-background:new 0 0 31 34.8;" xml:space="preserve">
<style type="text/css">
	.st0{fill:#D31124;}
	.st1{fill:#F93E48;}
	.st2{fill:#078903;}
	.st3{fill:#6B3D18;}
	.st4{fill:#FFC545;}
	.st5{fill:#DB9B0B;}
	.st6{fill:#7EB22B;}
	.st7{fill:#FFC152;}
	.st8{fill:#CE7B02;}
	.st9{fill:#FFA310;}
	.st10{fill:#EF8F06;}
</style>
<g>
	<g>
		<path class="st0" d="M14.8,9.3c0.9,2.1,3.5,4.3,5.3,3.5c0.6-0.3,0.8-0.7,1-0.8c0.2-0.1,0.7,0.1,1.4-0.2c1.9-0.8,1.9-4.2,1.1-6.2
			c-1.1-2.5-3.4-2.4-5.8-1.3C15.4,5.2,13.7,6.8,14.8,9.3z"/>
		<ellipse transform="matrix(0.9193 -0.3936 0.3936 0.9193 -0.3769 7.4562)" class="st1" cx="18" cy="4.6" rx="1" ry="0.3"/>
		<path class="st2" d="M18.5,1.5c0.4-0.6,1.1-1.1,1.8-1.3C20.5,0.2,20.8,0.2,21,0c0.2,0.5,0.3,1,0.2,1.6c0,0.5-0.2,1-0.6,1.5
			c-0.7,0.8-1.8,1.1-2.5,1.8c-0.2-0.7-0.2-1.4-0.1-2C18.1,2.4,18.2,1.9,18.5,1.5z"/>
		<path class="st3" d="M18.3,4.8C18.3,4.8,18.3,4.8,18.3,4.8c-0.1,0-0.1,0.1-0.2,0.1c0,0,0,0-0.1,0c0,0,0,0,0,0c0,0-0.1-0.1-0.1-0.1
			c-0.1-0.2-0.3-0.5-0.5-0.7c-0.2-0.3-0.5-0.5-0.7-0.7C16.4,3.2,16.2,3,16,3c-0.1,0-0.1-0.5,0.1-0.4C16.3,2.6,16.6,2.8,17,3
			c0.3,0.2,0.6,0.5,0.8,0.8c0.2,0.3,0.4,0.6,0.4,0.9C18.2,4.7,18.3,4.8,18.3,4.8z"/>
	</g>
	<g>
		<path class="st4" d="M7.2,9.2c-0.2,2,1.4,4.8,3.2,4.8c0.6,0,1-0.3,1.2-0.3c0.2,0,0.5,0.3,1.3,0.3c1.9,0,3.3-2.8,3.1-4.8
			c-0.2-1.6-0.9-2.4-1.7-3.7c-0.8-1.3-1-3.1-2.7-3.1S9.9,4.2,9,5.3C8.4,6,7.4,7.4,7.2,9.2z"/>
		<ellipse class="st5" cx="11.5" cy="2.8" rx="0.7" ry="0.2"/>
		<path class="st6" d="M10.3,0.8c-0.4-0.3-1-0.4-1.6-0.3c-0.2,0-0.4,0.1-0.6,0c0,0.4,0.1,0.8,0.3,1.1C8.7,2,8.9,2.3,9.3,2.4
			c0.7,0.3,1.5,0.2,2.2,0.5c-0.1-0.5-0.2-1-0.5-1.4C10.8,1.3,10.6,1,10.3,0.8z"/>
		<path class="st3" d="M11.4,2.9C11.4,2.9,11.4,3,11.4,2.9c0,0,0.1,0,0.1,0c0,0,0,0,0,0c0,0,0,0,0,0c0,0,0-0.1,0-0.1
			c0-0.2,0.1-0.4,0.1-0.6C11.8,2,11.9,1.7,12,1.5c0.1-0.2,0.3-0.4,0.4-0.5c0.1-0.1-0.1-0.3-0.2-0.2c-0.1,0.1-0.3,0.3-0.4,0.5
			c-0.1,0.2-0.3,0.5-0.3,0.8c-0.1,0.3-0.1,0.5,0,0.7C11.4,2.9,11.4,2.9,11.4,2.9z"/>
	</g>
	<g>
		<path class="st4" d="M21.7,10.1c-1,1.8-0.6,5,1.1,5.7c0.6,0.3,1,0.1,1.2,0.2c0.2,0.1,0.4,0.5,1,0.8c1.8,0.8,4.2-1.3,4.8-3.2
			c0.5-1.5,0.1-2.6-0.1-4.1c-0.2-1.5,0.3-3.3-1.2-4c-1.6-0.7-2.2,1-3.5,1.7C24.1,7.7,22.6,8.5,21.7,10.1z"/>
		<ellipse transform="matrix(0.3938 -0.9192 0.9192 0.3938 11.7035 29.5415)" class="st5" cx="28.2" cy="5.9" rx="0.2" ry="0.7"/>
		<path class="st6" d="M27.9,3.6c-0.3-0.5-0.8-0.8-1.3-0.9c-0.2-0.1-0.4-0.1-0.5-0.2c-0.1,0.4-0.2,0.7-0.2,1.1
			c0,0.4,0.2,0.8,0.4,1.1c0.5,0.6,1.3,0.8,1.8,1.3c0.1-0.5,0.2-1,0.1-1.5C28.2,4.2,28.1,3.9,27.9,3.6z"/>
		<path class="st3" d="M28,6C28,6,28,6,28,6c0,0,0.1,0,0.1,0.1c0,0,0,0,0,0c0,0,0,0,0,0c0,0,0-0.1,0.1-0.1c0.1-0.1,0.2-0.3,0.4-0.5
			C28.8,5.3,29,5.1,29.2,5c0.2-0.1,0.4-0.2,0.5-0.3c0.1,0,0-0.3-0.1-0.3c-0.2,0-0.4,0.1-0.6,0.3c-0.2,0.1-0.4,0.4-0.6,0.6
			c-0.2,0.2-0.3,0.5-0.3,0.6C28.1,5.9,28.1,6,28,6z"/>
	</g>
	<g>
		<path class="st1" d="M1.7,13.4c0.5,2.2,2.7,4.8,4.7,4.3C7.1,17.5,7.3,17,7.6,17c0.2-0.1,0.6,0.2,1.4,0c2-0.5,2.6-3.8,2-6
			c-0.7-2.6-2.9-2.9-5.5-2.2C2.9,9.4,1.1,10.7,1.7,13.4z"/>
		<ellipse transform="matrix(0.97 -0.2429 0.2429 0.97 -2.0829 1.6438)" class="st0" cx="5.6" cy="9.3" rx="1" ry="0.3"/>
		<path class="st2" d="M6.6,6.3c0.5-0.6,1.2-0.9,2-1c0.3,0,0.5,0,0.7-0.2c0.1,0.5,0.1,1.1,0,1.6c-0.1,0.5-0.4,1-0.8,1.3
			C7.7,8.8,6.6,8.9,5.8,9.5c-0.1-0.7,0-1.4,0.2-2C6.1,7,6.3,6.6,6.6,6.3z"/>
		<path class="st3" d="M5.9,9.5C5.9,9.5,5.9,9.5,5.9,9.5c-0.1,0-0.1,0-0.2,0.1c0,0,0,0-0.1,0c0,0,0,0,0,0c0,0,0-0.1-0.1-0.1
			C5.5,9.2,5.4,8.9,5.2,8.6C5,8.3,4.8,8,4.5,7.8C4.3,7.6,4.1,7.4,3.9,7.3c-0.1-0.1,0-0.5,0.2-0.4C4.3,7,4.6,7.2,4.9,7.5
			C5.1,7.7,5.4,8,5.6,8.4C5.7,8.7,5.8,9,5.9,9.3C5.9,9.4,5.9,9.4,5.9,9.5z"/>
	</g>
	<g>
		<path class="st1" d="M11.8,12.5c0.5,2.2,2.7,4.8,4.7,4.3c0.7-0.2,0.9-0.6,1.1-0.6c0.2-0.1,0.6,0.2,1.4,0c2-0.5,2.6-3.8,2-6
			c-0.7-2.6-2.9-2.9-5.5-2.2C13,8.6,11.1,9.9,11.8,12.5z"/>
		<ellipse transform="matrix(0.97 -0.2429 0.2429 0.97 -1.5721 4.0711)" class="st0" cx="15.7" cy="8.4" rx="1" ry="0.3"/>
		<path class="st2" d="M16.7,5.4c0.5-0.6,1.2-0.9,2-1c0.3,0,0.5,0,0.7-0.2c0.1,0.5,0.1,1.1,0,1.6c-0.1,0.5-0.4,1-0.8,1.3
			c-0.8,0.7-1.9,0.8-2.7,1.4c-0.1-0.7,0-1.4,0.2-2C16.2,6.2,16.4,5.8,16.7,5.4z"/>
		<path class="st3" d="M16,8.6C16,8.6,16,8.6,16,8.6c-0.1,0-0.1,0-0.2,0.1c0,0,0,0-0.1,0c0,0,0,0,0,0c0,0,0-0.1-0.1-0.1
			c-0.1-0.2-0.2-0.5-0.4-0.8c-0.2-0.3-0.4-0.6-0.6-0.8c-0.2-0.2-0.5-0.4-0.7-0.5c-0.1-0.1,0-0.5,0.2-0.4c0.2,0.1,0.5,0.3,0.8,0.5
			c0.3,0.2,0.5,0.6,0.7,0.9c0.2,0.3,0.3,0.7,0.3,0.9C16,8.5,16,8.6,16,8.6z"/>
	</g>
	<g>
		<path class="st1" d="M17.6,13.1c-0.4,2.2,0.6,5.5,2.6,5.8c0.7,0.1,1.1-0.2,1.3-0.1c0.2,0,0.5,0.4,1.3,0.6c2.1,0.3,3.9-2.5,4.2-4.7
			c0.4-2.7-1.6-3.8-4.2-4.2C20.3,9.9,18,10.4,17.6,13.1z"/>
		<ellipse transform="matrix(0.158 -0.9874 0.9874 0.158 8.4998 31.6826)" class="st0" cx="22.8" cy="10.9" rx="0.3" ry="1"/>
		<path class="st2" d="M24.9,8.5c0.7-0.3,1.5-0.3,2.2-0.1c0.2,0.1,0.5,0.2,0.7,0.1c-0.1,0.5-0.3,1-0.6,1.4c-0.3,0.4-0.8,0.8-1.3,0.9
			c-1,0.3-2.1,0-3.1,0.2c0.2-0.7,0.5-1.3,1-1.8C24.1,9,24.5,8.7,24.9,8.5z"/>
		<path class="st3" d="M23,11.1C23,11.1,23,11.1,23,11.1c-0.1,0-0.1,0-0.2,0c0,0,0,0-0.1,0c0,0,0,0,0,0c0,0,0-0.1,0-0.2
			c0-0.2,0-0.5,0-0.9c0-0.3-0.1-0.7-0.3-1c-0.1-0.3-0.3-0.6-0.4-0.7c-0.1-0.1,0.2-0.4,0.3-0.3c0.2,0.2,0.3,0.5,0.5,0.8
			c0.2,0.3,0.3,0.7,0.3,1.1c0,0.4,0,0.7-0.1,1C23,11,23,11.1,23,11.1z"/>
	</g>
	<g>
		<path class="st1" d="M9.2,17.4c0.5,2.2,2.7,4.8,4.7,4.3c0.7-0.2,0.9-0.6,1.1-0.6c0.2-0.1,0.6,0.2,1.4,0c2-0.5,2.6-3.8,2-6
			c-0.7-2.6-2.9-2.9-5.5-2.2C10.4,13.5,8.6,14.8,9.2,17.4z"/>
		<ellipse transform="matrix(0.97 -0.2429 0.2429 0.97 -2.8392 3.5903)" class="st0" cx="13.1" cy="13.3" rx="1" ry="0.3"/>
		<path class="st2" d="M14.1,10.3c0.5-0.6,1.2-0.9,2-1c0.3,0,0.5,0,0.7-0.2c0.1,0.5,0.1,1.1,0,1.6c-0.1,0.5-0.4,1-0.8,1.3
			c-0.8,0.7-1.9,0.8-2.7,1.4c-0.1-0.7,0-1.4,0.2-2C13.6,11.1,13.8,10.7,14.1,10.3z"/>
		<path class="st3" d="M13.4,13.5C13.4,13.5,13.4,13.5,13.4,13.5c-0.1,0-0.1,0-0.2,0.1c0,0,0,0-0.1,0c0,0,0,0,0,0c0,0,0-0.1-0.1-0.1
			c-0.1-0.2-0.2-0.5-0.4-0.8c-0.2-0.3-0.4-0.6-0.6-0.8c-0.2-0.2-0.5-0.4-0.7-0.5c-0.1-0.1,0-0.5,0.2-0.4c0.2,0.1,0.5,0.3,0.8,0.5
			c0.3,0.2,0.5,0.6,0.7,0.9c0.2,0.3,0.3,0.7,0.3,0.9C13.4,13.4,13.4,13.5,13.4,13.5z"/>
	</g>
	<g>
		<polygon class="st7" points="20.1,12.8 20.1,17.2 11.2,17.2 11.2,12.8 4.1,12.8 4.1,34.3 26.9,34.3 26.9,12.8 		"/>
		<rect x="3.7" y="20.7" class="st8" width="23.6" height="0.4"/>
		<rect x="3.7" y="26.5" class="st8" width="23.6" height="0.4"/>
		<rect x="3.6" y="12.8" class="st9" width="23.8" height="2.8"/>
		<rect x="3.6" y="31.5" class="st9" width="23.8" height="2.8"/>
		<rect y="12.1" class="st10" width="4.1" height="22.7"/>
		<rect x="26.9" y="12.1" class="st10" width="4.1" height="22.7"/>
	</g>
</g>
</svg>
