<?xml version="1.0" encoding="utf-8"?>
<!-- Generator: Adobe Illustrator 19.2.1, SVG Export Plug-In . SVG Version: 6.00 Build 0)  -->
<svg version="1.1" id="Layer_1" xmlns="http://www.w3.org/2000/svg" xmlns:xlink="http://www.w3.org/1999/xlink" x="0px" y="0px"
	 viewBox="0 0 26.5 36.9" style="enable-background:new 0 0 26.5 36.9;" xml:space="preserve">
<style type="text/css">
	.st0{fill:#B3B3B3;}
	.st1{fill:#CCCCCC;}
	.st2{fill:#999999;}
</style>
<g>
	<g>
		<path class="st0" d="M3.3,12.9c-0.2,0-0.3-0.1-0.4-0.2L0.1,8C0,8,0,7.9,0,7.8l0-1c0-0.1,0-0.2,0.1-0.3l3.1-4.7
			c0.1-0.2,0.3-0.3,0.5-0.2l3.5,0.8C7.5,2.4,7.7,2.7,7.6,3C7.6,3.2,7.3,3.4,7,3.3L3.9,2.6L1,6.9l0,0.7l2.7,4.6
			c0.1,0.2,0.1,0.5-0.2,0.7C3.5,12.9,3.4,12.9,3.3,12.9L3.3,12.9z"/>
		<path class="st0" d="M23.2,12.9c0.2,0,0.3-0.1,0.4-0.2L26.4,8c0-0.1,0.1-0.2,0.1-0.3l0-1c0-0.1,0-0.2-0.1-0.3l-3.1-4.7
			c-0.1-0.2-0.3-0.3-0.5-0.2l-3.5,0.8C19,2.4,18.8,2.7,18.9,3c0.1,0.3,0.3,0.4,0.6,0.4l3.2-0.7l2.9,4.3l0,0.7l-2.7,4.6
			c-0.1,0.2-0.1,0.5,0.2,0.7C23,12.9,23.1,12.9,23.2,12.9L23.2,12.9z"/>
	</g>
	<path class="st1" d="M19.3,4.6c0-1.6,0-3,0-3c0-1.1-0.9-1.2-2-1.2H9.2c-1.1,0-2,0.1-2,1.2c0,0,0,1.4,0,3c0,1.6-4,2.5-4,4.4v25.3
		c0,1.8,4.2,2.6,10,2.6c5.8,0,10.1-0.8,10.1-2.6V9C23.3,7.1,19.3,6.4,19.3,4.6z"/>
	<rect x="6.7" class="st2" width="13" height="2"/>
	<path class="st2" d="M15.6,15.1c1.2-0.1,2.4,0.5,2.8,1.4c0.4,0.9,0.1,1.8-0.3,2.7c-1,2.2-3.9,4.5-4.9,4.5c-1,0-4.8-3.5-4.7-6.2
		c0-0.5,0.1-0.9,0.4-1.3c0.3-0.4,0.8-0.8,1.4-0.8c1.9-0.2,2.8,1.5,2.8,1.5S14,15.2,15.6,15.1z"/>
</g>
</svg>
