<?xml version="1.0" encoding="utf-8"?>
<!-- Generator: Adobe Illustrator 19.2.1, SVG Export Plug-In . SVG Version: 6.00 Build 0)  -->
<svg version="1.1" id="Layer_1" xmlns="http://www.w3.org/2000/svg" xmlns:xlink="http://www.w3.org/1999/xlink" x="0px" y="0px"
	 viewBox="0 0 134.2 94.9" style="enable-background:new 0 0 134.2 94.9;" xml:space="preserve">
<style type="text/css">
	.st0{fill:#FF645C;}
	.st1{fill:#A4C441;}
	.st2{fill:#6D3726;}
	.st3{fill:#FFC76E;}
	.st4{fill:#F7F7F7;}
	.st5{fill:#885533;}
</style>
<g>
	<path class="st0" d="M133.3,65.5c2-13.3,0.8-27-3.3-39.7c-1.9-5.8-4.5-11.5-8.9-15.7c-6.6-6.2-16-7.9-25-8.9
		C79.6-0.5,62.9-0.4,46.5,1.5c-10.2,1.2-20.6,3.3-29,9.2C8.1,17.3,2.3,28.2,0.6,39.6c-1.7,11.3,0.5,23,4.9,33.6
		c2.2,5.3,5.1,10.6,9.9,13.8c4.3,2.8,9.6,3.5,14.8,4.1c11.6,1.3,23.3,2.4,35,3.1c13.6,0.9,27.3,1.3,40.7-1.2
		c7.5-1.4,15.3-3.9,20.4-9.7C130.5,78.5,132.3,72,133.3,65.5z"/>
	<path class="st1" d="M36,89.9c20.3,3.5,41.1,3.7,61.4,0.6c9.3-1.4,18.9-3.8,25.6-10.3c6.2-6.1,8.9-15.1,9-23.9
		c0.1-8.7-2.1-17.3-4.4-25.7c-2-7.1-4.4-14.7-10.1-19.3c-5.3-4.3-12.4-5.2-19.2-5.9C85.9,4.1,73.6,3.2,61.2,3.2
		C51,3.2,40.6,3.8,31,7.2S12.5,17,7.9,26.1C4.1,33.7,3.6,42.5,3.8,51C4,61.7,5.7,73.3,13.4,80.7C19.4,86.4,27.8,88.5,36,89.9z"/>
	<path class="st2" d="M67.5,91L67.5,91c-1.4,0-2.7,0-4.1-0.1c-0.3,0-0.6-0.3-0.6-0.6c0-0.3,0.2-0.6,0.6-0.6c1.3,0,2.7,0.1,4,0.1
		c0.3,0,0.6,0.3,0.6,0.6S67.8,91,67.5,91z M72.1,90.9c-0.3,0-0.6-0.3-0.6-0.6c0-0.3,0.2-0.6,0.6-0.6c1.3,0,2.7-0.1,4-0.1
		c0.3,0,0.6,0.2,0.6,0.6c0,0.3-0.2,0.6-0.6,0.6C74.8,90.9,73.4,90.9,72.1,90.9L72.1,90.9z M58.8,90.7L58.8,90.7
		c-1.4-0.1-2.7-0.2-4.1-0.3c-0.3,0-0.6-0.3-0.5-0.6c0-0.3,0.3-0.6,0.6-0.5c1.3,0.1,2.7,0.2,4,0.3c0.3,0,0.6,0.3,0.5,0.6
		C59.4,90.5,59.1,90.7,58.8,90.7z M80.7,90.6c-0.3,0-0.6-0.2-0.6-0.5s0.2-0.6,0.5-0.6c1.3-0.1,2.7-0.2,4-0.3c0.3,0,0.6,0.2,0.6,0.5
		s-0.2,0.6-0.5,0.6C83.5,90.4,82.1,90.5,80.7,90.6C80.8,90.6,80.7,90.6,80.7,90.6z M50.2,90C50.1,90,50.1,90,50.2,90
		c-1.4-0.1-2.8-0.3-4.1-0.5c-0.3,0-0.5-0.3-0.5-0.6c0-0.3,0.3-0.5,0.6-0.5c1.3,0.2,2.7,0.3,4,0.4c0.3,0,0.6,0.3,0.5,0.6
		C50.7,89.8,50.5,90,50.2,90z M89.4,89.8c-0.3,0-0.5-0.2-0.6-0.5c0-0.3,0.2-0.6,0.5-0.6c1.3-0.2,2.7-0.3,4-0.5
		c0.3,0,0.6,0.2,0.7,0.5c0,0.3-0.2,0.6-0.5,0.7C92.1,89.5,90.8,89.6,89.4,89.8L89.4,89.8z M41.6,89C41.5,89,41.5,89,41.6,89
		c-1.4-0.2-2.8-0.4-4.1-0.6c-0.3-0.1-0.6-0.4-0.5-0.7c0.1-0.3,0.3-0.5,0.6-0.5h0.1c1.3,0.2,2.6,0.4,4,0.6c0.3,0,0.5,0.3,0.5,0.7
		C42.1,88.8,41.9,89,41.6,89z M97.9,88.6c-0.3,0-0.5-0.2-0.6-0.5s0.2-0.6,0.5-0.7c1.4-0.2,2.7-0.5,3.9-0.8c0.3-0.1,0.6,0.1,0.7,0.4
		s-0.1,0.6-0.4,0.7C100.8,88.1,99.5,88.3,97.9,88.6C98,88.6,98,88.6,97.9,88.6z M33,87.5L33,87.5c-1.5-0.3-2.8-0.6-4.1-1
		c-0.3-0.1-0.5-0.4-0.4-0.7c0.1-0.3,0.4-0.5,0.7-0.4c1.2,0.4,2.5,0.7,3.9,1c0.3,0.1,0.5,0.4,0.4,0.7C33.5,87.3,33.3,87.5,33,87.5z
		 M106.4,86.7c-0.3,0-0.5-0.2-0.6-0.4c-0.1-0.3,0.1-0.6,0.4-0.7c1.3-0.4,2.6-0.8,3.8-1.3c0.3-0.1,0.6,0,0.8,0.3
		c0.1,0.3,0,0.6-0.3,0.8c-1.2,0.5-2.5,0.9-3.9,1.3C106.5,86.7,106.4,86.7,106.4,86.7z M24.7,85c-0.1,0-0.1,0-0.2,0
		c-1.3-0.5-2.6-1.1-3.7-1.8c-0.3-0.2-0.4-0.5-0.2-0.8c0.2-0.3,0.5-0.4,0.8-0.2c1.1,0.6,2.3,1.2,3.6,1.7c0.3,0.1,0.4,0.5,0.3,0.8
		C25.1,84.8,24.9,85,24.7,85z M114.4,83.4c-0.2,0-0.4-0.1-0.5-0.3c-0.2-0.3-0.1-0.6,0.2-0.8c1.2-0.7,2.3-1.4,3.3-2.2
		c0.3-0.2,0.6-0.1,0.8,0.1c0.2,0.3,0.1,0.6-0.1,0.8c-1.1,0.8-2.2,1.6-3.4,2.3C114.6,83.4,114.5,83.4,114.4,83.4z M17.3,80.6
		c-0.1,0-0.3,0-0.4-0.1c-0.4-0.3-0.8-0.7-1.1-1c-0.6-0.6-1.2-1.3-1.8-1.9c-0.2-0.2-0.2-0.6,0.1-0.8c0.2-0.2,0.6-0.2,0.8,0.1
		c0.5,0.6,1.1,1.3,1.7,1.8c0.3,0.3,0.7,0.6,1.1,1c0.2,0.2,0.3,0.6,0.1,0.8C17.6,80.5,17.4,80.6,17.3,80.6z M121.2,78.1
		c-0.1,0-0.3,0-0.4-0.1c-0.2-0.2-0.3-0.6,0-0.8c0.9-1,1.7-2,2.4-3.1c0.2-0.3,0.5-0.3,0.8-0.2c0.3,0.2,0.3,0.5,0.2,0.8
		c-0.8,1.2-1.6,2.3-2.5,3.3C121.5,78,121.3,78.1,121.2,78.1z M11.8,73.9c-0.2,0-0.4-0.1-0.5-0.3c-0.6-1.2-1.2-2.4-1.7-3.7
		c-0.1-0.3,0-0.6,0.3-0.8c0.3-0.1,0.6,0,0.8,0.3c0.5,1.3,1.1,2.5,1.7,3.6c0.2,0.3,0.1,0.6-0.2,0.8C12,73.9,11.9,73.9,11.8,73.9z
		 M125.8,70.8c-0.1,0-0.2,0-0.2,0c-0.3-0.1-0.4-0.5-0.3-0.8c0.5-1.2,1-2.4,1.4-3.7c0.1-0.3,0.4-0.5,0.7-0.4c0.3,0.1,0.5,0.4,0.4,0.7
		c-0.4,1.3-0.9,2.6-1.4,3.9C126.2,70.7,126,70.8,125.8,70.8z M8.7,65.8c-0.3,0-0.5-0.2-0.6-0.4c-0.3-1.3-0.6-2.6-0.8-4
		c-0.1-0.3,0.2-0.6,0.5-0.7c0.3-0.1,0.6,0.2,0.7,0.5c0.2,1.4,0.5,2.7,0.8,3.9c0.1,0.3-0.1,0.6-0.4,0.7C8.8,65.8,8.8,65.8,8.7,65.8z
		 M128.2,62.5C128.2,62.5,128.1,62.5,128.2,62.5c-0.4-0.1-0.6-0.4-0.6-0.7c0.2-1.3,0.4-2.6,0.4-4c0-0.3,0.3-0.6,0.6-0.5
		c0.3,0,0.6,0.3,0.5,0.6c-0.1,1.4-0.2,2.7-0.5,4.1C128.7,62.3,128.5,62.5,128.2,62.5z M7.3,57.3c-0.3,0-0.6-0.2-0.6-0.5
		c-0.1-1.3-0.2-2.6-0.3-4.1c0-0.3,0.2-0.6,0.6-0.6c0.3,0,0.6,0.2,0.6,0.6c0.1,1.4,0.1,2.7,0.3,4C8,57,7.7,57.3,7.3,57.3
		C7.4,57.3,7.4,57.3,7.3,57.3z M128.7,53.9c-0.3,0-0.6-0.2-0.6-0.6c-0.1-1.3-0.2-2.6-0.3-4c0-0.3,0.2-0.6,0.5-0.6
		c0.3,0,0.6,0.2,0.6,0.5c0.2,1.4,0.3,2.8,0.3,4.1C129.3,53.6,129,53.9,128.7,53.9L128.7,53.9z M7,48.6L7,48.6
		c-0.3,0-0.6-0.3-0.6-0.6c0-1.4,0-2.8,0.1-4.1c0-0.3,0.3-0.6,0.6-0.6c0.3,0,0.6,0.3,0.6,0.6c-0.1,1.3-0.1,2.6-0.1,4
		C7.6,48.4,7.3,48.6,7,48.6z M127.7,45.3c-0.3,0-0.5-0.2-0.6-0.5c-0.2-1.3-0.5-2.5-0.8-3.9c-0.1-0.3,0.1-0.6,0.4-0.7
		c0.3-0.1,0.6,0.1,0.7,0.4c0.3,1.4,0.6,2.7,0.8,4C128.3,44.9,128,45.2,127.7,45.3C127.8,45.3,127.7,45.3,127.7,45.3z M7.5,40
		C7.5,40,7.4,40,7.5,40c-0.4,0-0.6-0.3-0.6-0.7c0.2-1.4,0.4-2.8,0.7-4C7.7,35,8,34.8,8.3,34.9c0.3,0.1,0.5,0.4,0.4,0.7
		c-0.3,1.2-0.5,2.6-0.7,3.9C8,39.8,7.8,40,7.5,40z M125.8,36.8c-0.3,0-0.5-0.2-0.6-0.4c-0.3-1.3-0.7-2.6-1-3.9
		c-0.1-0.3,0.1-0.6,0.4-0.7s0.6,0.1,0.7,0.4c0.4,1.3,0.7,2.6,1.1,3.9c0.1,0.3-0.1,0.6-0.4,0.7C125.9,36.8,125.8,36.8,125.8,36.8z
		 M9.4,31.6c-0.1,0-0.1,0-0.2,0c-0.3-0.1-0.5-0.4-0.4-0.7c0.5-1.3,1-2.6,1.6-3.8c0.1-0.3,0.5-0.4,0.8-0.3s0.4,0.5,0.3,0.8
		c-0.6,1.2-1.1,2.4-1.5,3.7C9.9,31.4,9.6,31.6,9.4,31.6z M123.5,28.5c-0.2,0-0.5-0.2-0.6-0.4c-0.4-1.4-0.9-2.7-1.3-3.8
		c-0.1-0.3,0-0.6,0.3-0.7s0.6,0,0.7,0.3c0.4,1.2,0.9,2.4,1.3,3.9C124,28.1,123.8,28.4,123.5,28.5C123.6,28.5,123.5,28.5,123.5,28.5z
		 M13.3,23.9c-0.1,0-0.2,0-0.3-0.1c-0.3-0.2-0.3-0.5-0.1-0.8c0.8-1.1,1.6-2.2,2.6-3.2c0.2-0.2,0.6-0.3,0.8,0c0.2,0.2,0.3,0.6,0,0.8
		c-0.9,1-1.7,2-2.5,3.1C13.7,23.8,13.5,23.9,13.3,23.9z M120.3,20.4c-0.2,0-0.4-0.1-0.5-0.3c-0.7-1.2-1.4-2.3-2.1-3.3
		c-0.2-0.3-0.1-0.6,0.1-0.8c0.3-0.2,0.6-0.1,0.8,0.1c0.8,1,1.5,2.2,2.2,3.5c0.2,0.3,0,0.6-0.2,0.8C120.4,20.4,120.4,20.4,120.3,20.4
		z M19.2,17.5c-0.2,0-0.3-0.1-0.4-0.2c-0.2-0.2-0.2-0.6,0.1-0.8c1-0.9,2.1-1.7,3.3-2.5c0.3-0.2,0.6-0.1,0.8,0.2
		c0.2,0.3,0.1,0.6-0.2,0.8c-1.1,0.8-2.2,1.6-3.2,2.4C19.5,17.5,19.3,17.5,19.2,17.5z M114.9,13.7c-0.1,0-0.3,0-0.4-0.1
		c-1-0.8-2.1-1.5-3.3-2.1c-0.3-0.1-0.4-0.5-0.3-0.8s0.5-0.4,0.8-0.3c1.3,0.6,2.5,1.4,3.5,2.2c0.3,0.2,0.3,0.6,0.1,0.8
		C115.2,13.7,115,13.7,114.9,13.7z M26.4,12.7c-0.2,0-0.4-0.1-0.5-0.3c-0.2-0.3,0-0.6,0.2-0.8c1.2-0.6,2.4-1.2,3.7-1.8
		c0.3-0.1,0.6,0,0.8,0.3c0.1,0.3,0,0.6-0.3,0.8c-1.2,0.5-2.4,1.1-3.6,1.7C26.6,12.7,26.5,12.7,26.4,12.7z M107.2,9.9
		c-0.1,0-0.1,0-0.2,0c-1.2-0.3-2.5-0.6-3.9-0.9c-0.3-0.1-0.5-0.4-0.5-0.7c0.1-0.3,0.4-0.5,0.7-0.5c1.5,0.3,2.8,0.6,4,0.9
		c0.3,0.1,0.5,0.4,0.4,0.7C107.6,9.8,107.4,9.9,107.2,9.9z M34.4,9.4c-0.2,0-0.5-0.2-0.6-0.4c-0.1-0.3,0.1-0.6,0.4-0.7
		c1.3-0.4,2.6-0.8,3.9-1.1c0.3-0.1,0.6,0.1,0.7,0.4c0.1,0.3-0.1,0.6-0.4,0.7c-1.3,0.3-2.6,0.7-3.9,1.1C34.5,9.4,34.4,9.4,34.4,9.4z
		 M98.6,8.4L98.6,8.4c-0.7-0.1-1.3-0.1-2-0.2c-0.6-0.1-1.3-0.2-2-0.3c-0.3,0-0.6-0.3-0.5-0.6c0-0.3,0.3-0.6,0.6-0.5
		c0.7,0.1,1.4,0.1,2.1,0.2c0.6,0.1,1.3,0.1,1.9,0.2c0.3,0,0.5,0.3,0.5,0.6C99.2,8.1,98.9,8.4,98.6,8.4z M90,7.5L90,7.5
		c-1.4-0.1-2.7-0.2-4.1-0.3c-0.3,0-0.6-0.3-0.5-0.6C85.4,6.2,85.7,6,86,6c1.3,0.1,2.7,0.2,4,0.3c0.3,0,0.6,0.3,0.5,0.6
		C90.6,7.3,90.3,7.5,90,7.5z M42.8,7.4c-0.3,0-0.5-0.2-0.6-0.5s0.2-0.6,0.5-0.7c1.3-0.2,2.6-0.4,4-0.6c0.3,0,0.6,0.2,0.6,0.5
		s-0.2,0.6-0.5,0.6C45.5,6.9,44.1,7.1,42.8,7.4L42.8,7.4z M81.4,6.8L81.4,6.8c-1.4-0.1-2.7-0.2-4.1-0.3c-0.3,0-0.6-0.3-0.5-0.6
		c0-0.3,0.3-0.6,0.6-0.5c1.3,0.1,2.7,0.2,4,0.3c0.3,0,0.6,0.3,0.5,0.6C81.9,6.6,81.7,6.8,81.4,6.8z M51.4,6.4
		c-0.3,0-0.6-0.2-0.6-0.5s0.2-0.6,0.5-0.6C52.6,5.1,54,5,55.4,5C55.7,5,56,5.2,56,5.6c0,0.3-0.2,0.6-0.6,0.6
		C54.1,6.2,52.7,6.3,51.4,6.4L51.4,6.4z M72.7,6.3L72.7,6.3c-1.4-0.1-2.7-0.1-4.1-0.1c-0.3,0-0.6-0.3-0.6-0.6C68,5.3,68.3,5,68.6,5
		c1.4,0,2.7,0.1,4,0.1c0.3,0,0.6,0.3,0.6,0.6C73.3,6.1,73,6.3,72.7,6.3z M64.1,6.1L64.1,6.1c-0.9,0-1.7,0-2.6,0h-0.1
		c-0.5,0-0.9,0-1.4,0l0,0c-0.3,0-0.6-0.3-0.6-0.6c0-0.3,0.3-0.6,0.6-0.6c0.5,0,0.9,0,1.4,0h0.1c0.9,0,1.7,0,2.6,0
		c0.3,0,0.6,0.3,0.6,0.6C64.7,5.8,64.4,6.1,64.1,6.1z"/>
	<path class="st3" d="M124.1,62.8c1-8.1,0.6-16.4-1.3-24.3s-5.3-15.7-11.7-20.6c-8-6.1-18.8-6.4-28.8-6.3c-13.8,0-27.6,0.1-41.4,0.1
		c-4.6,0-9.4,0.1-13.7,1.8c-5,2.1-8.8,6.4-11.3,11.2c-2.5,4.9-3.7,10.3-4.4,15.7c-1,6.8-1.3,13.9,0.2,20.6c1.6,6.7,5.3,13.1,11,16.8
		c4.9,3.2,10.8,4.2,16.5,4.9c21.9,2.7,44,2.4,65.9-0.5c4.1-0.5,8.4-1.2,11.7-3.7C121.6,75.1,123.4,68.8,124.1,62.8z"/>
</g>
<g>
	<g>
		<path class="st4" d="M53.6,39.8C53.6,39.8,53.6,39.9,53.6,39.8c0,0.1,0,0.1-0.1,0.1c0,0-0.1,0-0.2,0c-0.1,0-0.2,0-0.4,0v-8.5
			c0-0.2,0-0.3,0.1-0.3c0.1,0,0.3,0,0.5,0V39.8z"/>
		<path class="st4" d="M54.7,37c0-1.1,0.2-1.9,0.5-2.4c0.4-0.5,0.8-0.7,1.5-0.7c0.3,0,0.6,0,0.8,0.1c0.2,0.1,0.4,0.3,0.6,0.5
			c0.2,0.2,0.3,0.6,0.3,1c0.1,0.4,0.1,0.9,0.1,1.5c0,1.1-0.2,1.9-0.5,2.4c-0.3,0.5-0.8,0.8-1.5,0.8c-0.3,0-0.5,0-0.8-0.1
			s-0.4-0.2-0.6-0.4c-0.2-0.2-0.3-0.5-0.4-0.9C54.7,38.2,54.7,37.7,54.7,37z M55.4,37c0,0.5,0,0.9,0.1,1.3c0.1,0.3,0.1,0.6,0.2,0.8
			s0.2,0.3,0.4,0.4s0.3,0.1,0.5,0.1s0.4,0,0.5-0.1c0.2-0.1,0.3-0.2,0.4-0.4c0.1-0.2,0.2-0.5,0.3-0.8c0.1-0.3,0.1-0.7,0.1-1.2
			c0-0.5,0-0.9-0.1-1.3c-0.1-0.3-0.1-0.6-0.2-0.8c-0.1-0.2-0.2-0.3-0.4-0.4c-0.1-0.1-0.3-0.1-0.5-0.1s-0.4,0-0.5,0.1
			c-0.2,0.1-0.3,0.2-0.4,0.4c-0.1,0.2-0.2,0.5-0.3,0.8S55.4,36.5,55.4,37z"/>
		<path class="st4" d="M61.5,33.8c0.1,0,0.1,0,0.2,0c0.1,0,0.2,0,0.3,0.1h1.5c0,0,0,0.1,0,0.1c0,0,0,0.1,0,0.2
			c0,0.2-0.1,0.3-0.3,0.3c-0.1,0-0.2,0-0.3,0c-0.1,0-0.2,0-0.3-0.1c0.2,0.1,0.4,0.3,0.5,0.6c0.1,0.2,0.2,0.6,0.2,0.9
			c0,0.3,0,0.6-0.1,0.9c-0.1,0.3-0.2,0.5-0.3,0.7c-0.2,0.2-0.4,0.4-0.6,0.5c-0.2,0.1-0.5,0.2-0.9,0.2c-0.3,0-0.5,0-0.7-0.1
			c-0.1,0.1-0.2,0.2-0.3,0.4c-0.1,0.1-0.2,0.2-0.2,0.3c0,0.1,0,0.1,0.1,0.2s0.2,0.1,0.4,0.1c0.2,0,0.3,0.1,0.6,0.1
			c0.2,0,0.4,0.1,0.7,0.1c0.2,0,0.4,0.1,0.6,0.1c0.2,0.1,0.4,0.1,0.5,0.2c0.1,0.1,0.3,0.2,0.3,0.4c0.1,0.2,0.1,0.4,0.1,0.6
			c0,0.2,0,0.5-0.1,0.7c-0.1,0.2-0.2,0.4-0.4,0.6c-0.2,0.2-0.4,0.3-0.7,0.4s-0.6,0.1-1,0.1s-0.7,0-1-0.1c-0.2-0.1-0.4-0.2-0.6-0.3
			c-0.1-0.1-0.2-0.3-0.3-0.4c0-0.2-0.1-0.3-0.1-0.5c0-0.3,0.1-0.6,0.3-0.8c0.2-0.3,0.4-0.5,0.7-0.7c-0.2-0.1-0.4-0.2-0.6-0.3
			s-0.2-0.2-0.2-0.4c0-0.2,0.1-0.3,0.2-0.5s0.3-0.4,0.5-0.5c-0.3-0.2-0.5-0.4-0.6-0.8c-0.1-0.3-0.2-0.7-0.2-1.1c0-0.4,0-0.7,0.1-1
			s0.2-0.5,0.4-0.7c0.2-0.2,0.4-0.3,0.6-0.4C61,33.9,61.2,33.8,61.5,33.8z M61.5,39.7c-0.1,0-0.2,0-0.3,0c-0.1,0-0.2,0-0.3,0
			c-0.2,0.2-0.4,0.3-0.6,0.6c-0.2,0.2-0.3,0.5-0.3,0.7c0,0.1,0,0.2,0,0.3c0,0.1,0.1,0.2,0.2,0.3c0.1,0.1,0.2,0.1,0.4,0.2
			s0.4,0.1,0.7,0.1s0.5,0,0.7-0.1c0.2-0.1,0.4-0.1,0.5-0.3c0.1-0.1,0.2-0.2,0.3-0.4s0.1-0.3,0.1-0.4c0-0.3-0.1-0.5-0.3-0.7
			C62.3,39.9,62,39.8,61.5,39.7z M61.5,34.4c-0.4,0-0.7,0.1-0.9,0.4s-0.4,0.7-0.4,1.3c0,0.2,0,0.4,0,0.6c0,0.2,0.1,0.4,0.2,0.5
			c0.1,0.1,0.2,0.3,0.4,0.3c0.2,0.1,0.4,0.1,0.6,0.1c0.2,0,0.4,0,0.6-0.1c0.2-0.1,0.3-0.2,0.4-0.4s0.2-0.4,0.2-0.6
			c0-0.2,0.1-0.5,0.1-0.7c0-0.5-0.1-0.9-0.3-1.1C62.2,34.5,61.9,34.4,61.5,34.4z"/>
		<path class="st4" d="M64.1,37c0-1.1,0.2-1.9,0.5-2.4c0.4-0.5,0.8-0.7,1.5-0.7c0.3,0,0.6,0,0.8,0.1c0.2,0.1,0.4,0.3,0.6,0.5
			c0.2,0.2,0.3,0.6,0.3,1c0.1,0.4,0.1,0.9,0.1,1.5c0,1.1-0.2,1.9-0.5,2.4c-0.3,0.5-0.8,0.8-1.5,0.8c-0.3,0-0.5,0-0.8-0.1
			s-0.4-0.2-0.6-0.4c-0.2-0.2-0.3-0.5-0.4-0.9C64.1,38.2,64.1,37.7,64.1,37z M64.8,37c0,0.5,0,0.9,0.1,1.3c0.1,0.3,0.1,0.6,0.2,0.8
			s0.2,0.3,0.4,0.4s0.3,0.1,0.5,0.1s0.4,0,0.5-0.1c0.2-0.1,0.3-0.2,0.4-0.4c0.1-0.2,0.2-0.5,0.3-0.8c0.1-0.3,0.1-0.7,0.1-1.2
			c0-0.5,0-0.9-0.1-1.3c-0.1-0.3-0.1-0.6-0.2-0.8c-0.1-0.2-0.2-0.3-0.4-0.4c-0.1-0.1-0.3-0.1-0.5-0.1s-0.4,0-0.5,0.1
			c-0.2,0.1-0.3,0.2-0.4,0.4c-0.1,0.2-0.2,0.5-0.3,0.8S64.8,36.5,64.8,37z"/>
		<path class="st4" d="M69.7,39.8C69.7,39.8,69.7,39.9,69.7,39.8c0,0.1,0,0.1-0.1,0.1c0,0-0.1,0-0.2,0c-0.1,0-0.2,0-0.4,0v-8.5
			c0-0.2,0-0.3,0.1-0.3c0.1,0,0.3,0,0.5,0V39.8z"/>
		<path class="st4" d="M71,31.9c0-0.4,0.1-0.6,0.4-0.6c0.1,0,0.2,0,0.3,0.1c0.1,0.1,0.1,0.2,0.1,0.4c0,0.4-0.2,0.6-0.4,0.6
			c-0.1,0-0.2,0-0.3-0.1C71,32.3,71,32.1,71,31.9z M71.7,39.8C71.7,39.8,71.7,39.9,71.7,39.8c0,0.1,0,0.1-0.1,0.1c0,0-0.1,0-0.2,0
			s-0.2,0-0.4,0v-5.7c0-0.2,0-0.3,0.1-0.3c0.1,0,0.3,0,0.5,0V39.8z"/>
		<path class="st4" d="M73.1,34.3c0.3-0.1,0.6-0.2,0.9-0.3s0.7-0.1,1-0.1c0.3,0,0.6,0,0.8,0.1c0.2,0.1,0.4,0.2,0.5,0.3
			c0.1,0.1,0.2,0.3,0.3,0.5s0.1,0.5,0.1,0.7v4.3c0,0,0,0.1,0,0.1c0,0,0,0-0.1,0c0,0-0.1,0-0.2,0s-0.2,0-0.4,0v-4.3
			c0-0.2,0-0.4,0-0.6c0-0.2-0.1-0.3-0.2-0.4s-0.2-0.2-0.3-0.2s-0.3-0.1-0.5-0.1c-0.2,0-0.4,0-0.6,0.1s-0.5,0.1-0.6,0.2v5.1
			c0,0,0,0.1,0,0.1s0,0-0.1,0c0,0-0.1,0-0.2,0s-0.2,0-0.4,0V34.3z"/>
		<path class="st4" d="M77.6,37c0-1.1,0.2-1.9,0.5-2.4c0.4-0.5,0.8-0.7,1.5-0.7c0.3,0,0.6,0,0.8,0.1c0.2,0.1,0.4,0.3,0.6,0.5
			c0.2,0.2,0.3,0.6,0.3,1s0.1,0.9,0.1,1.5c0,1.1-0.2,1.9-0.5,2.4s-0.8,0.8-1.5,0.8c-0.3,0-0.5,0-0.8-0.1s-0.4-0.2-0.6-0.4
			c-0.2-0.2-0.3-0.5-0.4-0.9C77.6,38.2,77.6,37.7,77.6,37z M78.3,37c0,0.5,0,0.9,0.1,1.3c0.1,0.3,0.1,0.6,0.2,0.8
			c0.1,0.2,0.2,0.3,0.4,0.4c0.1,0.1,0.3,0.1,0.5,0.1c0.2,0,0.4,0,0.5-0.1c0.2-0.1,0.3-0.2,0.4-0.4c0.1-0.2,0.2-0.5,0.3-0.8
			c0.1-0.3,0.1-0.7,0.1-1.2c0-0.5,0-0.9-0.1-1.3c-0.1-0.3-0.1-0.6-0.2-0.8c-0.1-0.2-0.2-0.3-0.4-0.4c-0.1-0.1-0.3-0.1-0.5-0.1
			c-0.2,0-0.4,0-0.5,0.1c-0.2,0.1-0.3,0.2-0.4,0.4c-0.1,0.2-0.2,0.5-0.3,0.8C78.3,36.1,78.3,36.5,78.3,37z"/>
	</g>
	<g>
		<path class="st5" d="M33.9,43.6c0-0.1,0-0.2,0.1-0.3c0.1-0.1,0.2-0.1,0.5-0.1h2.1c0.4,0,0.8,0,1.3,0.1s0.8,0.2,1.1,0.5
			s0.6,0.6,0.8,1c0.2,0.4,0.3,1,0.3,1.6c0,0.6-0.1,1.1-0.2,1.5s-0.3,0.8-0.5,1c-0.2,0.3-0.4,0.5-0.7,0.6c-0.2,0.1-0.5,0.2-0.7,0.3
			c0.2,0,0.5,0.1,0.8,0.1c0.3,0.1,0.6,0.2,0.8,0.5c0.3,0.2,0.5,0.5,0.6,0.9c0.2,0.4,0.3,0.9,0.3,1.5c0,0.9-0.1,1.6-0.3,2.3
			c-0.2,0.6-0.5,1.1-0.9,1.6c-0.4,0.4-0.8,0.7-1.3,0.9c-0.5,0.2-1,0.3-1.5,0.3h-2.6V43.6z M35.6,49.3h1c0.4,0,0.8-0.2,1.1-0.6
			c0.3-0.4,0.4-1,0.4-1.8c0-0.4,0-0.8-0.1-1.1c-0.1-0.3-0.2-0.5-0.3-0.6c-0.1-0.2-0.3-0.3-0.5-0.3c-0.2-0.1-0.4-0.1-0.6-0.1h-1V49.3
			z M35.6,56.5h0.9c0.3,0,0.5-0.1,0.7-0.2s0.4-0.3,0.6-0.6c0.2-0.3,0.3-0.6,0.4-1c0.1-0.4,0.2-0.9,0.2-1.5c0-0.5,0-1-0.1-1.3
			c-0.1-0.3-0.2-0.6-0.4-0.7c-0.2-0.2-0.4-0.3-0.6-0.3c-0.2,0-0.5-0.1-0.8-0.1h-1V56.5z"/>
		<path class="st5" d="M41.5,48.4c0-0.1,0-0.2,0.1-0.3c0-0.1,0.1-0.2,0.2-0.3c0.2-0.1,0.6-0.2,1.1-0.4c0.6-0.1,1.3-0.2,2.1-0.2
			c0.9,0,1.6,0.2,2,0.6c0.4,0.4,0.6,1,0.6,2v1.1c0,0.6,0,1.2,0,1.8c0,0.6,0,1.2,0,1.8c0,0.6,0,1.1,0,1.6c0,0.5,0,1-0.1,1.3
			c-0.3,0.2-0.7,0.3-1.2,0.5c-0.5,0.2-1.1,0.2-1.8,0.2c-0.4,0-0.7,0-1.1-0.1c-0.4-0.1-0.7-0.2-1-0.4c-0.3-0.2-0.5-0.5-0.7-1
			s-0.3-1-0.3-1.7c0-0.7,0.1-1.3,0.2-1.8c0.2-0.4,0.4-0.8,0.6-1c0.3-0.3,0.6-0.4,0.9-0.5s0.7-0.1,1-0.1c0.2,0,0.5,0,0.8,0.1
			c0.3,0,0.5,0.1,0.7,0.2v-1.7c0-0.5-0.1-0.8-0.3-1c-0.2-0.2-0.5-0.3-1-0.3c-0.5,0-1,0-1.6,0.1s-0.9,0.2-1.2,0.3
			c-0.1-0.2-0.2-0.3-0.2-0.5C41.5,48.7,41.5,48.5,41.5,48.4z M45.8,53c-0.1-0.1-0.3-0.1-0.5-0.1c-0.2,0-0.4,0-0.5,0
			c-0.2,0-0.4,0-0.6,0.1s-0.4,0.2-0.5,0.3c-0.1,0.2-0.3,0.4-0.3,0.6c-0.1,0.3-0.1,0.6-0.1,1.1c0,0.4,0,0.7,0.1,0.9s0.2,0.4,0.3,0.6
			c0.1,0.1,0.3,0.2,0.4,0.3s0.4,0.1,0.6,0.1c0.2,0,0.5,0,0.7-0.1c0.2-0.1,0.4-0.2,0.5-0.3c0-0.2,0-0.4,0-0.7c0-0.3,0-0.6,0-0.9
			c0-0.3,0-0.6,0-0.9S45.8,53.3,45.8,53z"/>
		<path class="st5" d="M55.5,57.4c-0.4,0.2-0.9,0.4-1.4,0.5c-0.6,0.1-1.1,0.2-1.7,0.2c-0.6,0-1.1-0.1-1.6-0.2
			c-0.4-0.1-0.7-0.4-1-0.7c-0.2-0.3-0.4-0.7-0.5-1.1c-0.1-0.4-0.1-0.9-0.1-1.5v-6.9c0-0.1,0-0.2,0-0.2c0,0,0.1-0.1,0.2-0.1
			s0.3,0,0.5,0c0.2,0,0.6,0,1,0v7.4c0,0.7,0.1,1.2,0.3,1.4c0.2,0.3,0.6,0.4,1.1,0.4c0.2,0,0.4,0,0.7-0.1s0.5-0.2,0.7-0.3v-8.5
			c0-0.1,0-0.2,0-0.2c0,0,0.1-0.1,0.2-0.1s0.3,0,0.5,0c0.2,0,0.6,0,1,0V57.4z"/>
		<path class="st5" d="M60.9,47.2c1.8,0,2.7,1.1,2.7,3.4c0,0.5,0,0.9-0.1,1.4s-0.1,0.9-0.2,1.3c-0.4,0.1-0.7,0.1-1.2,0.2
			c-0.4,0-0.8,0.1-1.2,0.1c-0.4,0-0.8,0-1.1,0.1c-0.4,0-0.7,0-0.9,0c0,0.6,0.1,1,0.2,1.4s0.2,0.7,0.4,0.9c0.2,0.2,0.3,0.4,0.6,0.4
			c0.2,0.1,0.5,0.1,0.8,0.1c0.4,0,0.8-0.1,1.2-0.2c0.4-0.1,0.8-0.3,1.2-0.5c0.1,0.2,0.1,0.3,0.1,0.6c0,0.2,0,0.4,0,0.6
			s-0.1,0.3-0.2,0.5c-0.2,0.1-0.4,0.3-0.6,0.4c-0.3,0.1-0.6,0.2-0.9,0.2c-0.4,0.1-0.7,0.1-1.1,0.1c-0.5,0-0.9-0.1-1.4-0.2
			c-0.4-0.1-0.8-0.4-1.1-0.7c-0.3-0.4-0.5-0.9-0.7-1.5c-0.2-0.6-0.3-1.5-0.3-2.5c0-1.3,0.1-2.4,0.3-3.2s0.5-1.4,0.8-1.8
			s0.7-0.7,1.2-0.8C60,47.3,60.4,47.2,60.9,47.2z M60.7,48.7c-0.2,0-0.4,0.1-0.6,0.2c-0.2,0.1-0.4,0.3-0.5,0.6
			c-0.2,0.3-0.3,0.6-0.4,1.1C59,51,59,51.6,59,52.3c0.2,0,0.4,0,0.7,0s0.5,0,0.8,0c0.3,0,0.5,0,0.8-0.1c0.2,0,0.5-0.1,0.6-0.1
			c0-0.2,0.1-0.4,0.1-0.6c0-0.2,0-0.4,0-0.6c0-0.8-0.1-1.3-0.3-1.6C61.5,48.9,61.1,48.7,60.7,48.7z"/>
		<path class="st5" d="M65,48.2c0.4-0.3,0.9-0.5,1.3-0.7c0.5-0.2,1-0.3,1.5-0.3c0.5,0,0.9,0.1,1.1,0.2c0.2,0.2,0.3,0.4,0.3,0.7
			c0,0.1,0,0.3,0,0.5c0,0.2-0.1,0.4-0.1,0.6c-0.3-0.2-0.7-0.3-1-0.3c-0.2,0-0.5,0-0.7,0.1s-0.5,0.2-0.7,0.4l0,8.3c0,0.1,0,0.2,0,0.2
			c0,0-0.1,0.1-0.2,0.1c-0.1,0-0.3,0-0.5,0s-0.6,0-1,0V48.2z"/>
		<path class="st5" d="M70.6,48c0.2-0.1,0.4-0.2,0.7-0.3c0.3-0.1,0.5-0.2,0.8-0.2c0.3-0.1,0.6-0.1,0.9-0.2c0.3,0,0.6-0.1,0.9-0.1
			c1.1,0,1.9,0.2,2.3,0.6c0.4,0.4,0.7,1.2,0.7,2.2v7.6c0,0.1,0,0.2,0,0.2c0,0-0.1,0.1-0.2,0.1c-0.1,0-0.3,0-0.5,0s-0.6,0-1,0v-7.4
			c0-0.7-0.1-1.1-0.2-1.4c-0.2-0.3-0.5-0.4-1-0.4c-0.2,0-0.5,0-0.8,0.1c-0.3,0.1-0.5,0.2-0.8,0.3v8.5c0,0.1,0,0.2,0,0.2
			c0,0-0.1,0.1-0.2,0.1c-0.1,0-0.3,0-0.5,0c-0.2,0-0.5,0-1,0V48z"/>
		<path class="st5" d="M78.6,43.3c0-0.2,0-0.3,0.1-0.5s0.1-0.2,0.3-0.2s0.3-0.1,0.5-0.1c0.2,0,0.5,0,0.9,0v5.5
			c0.3-0.3,0.7-0.5,1.1-0.6c0.4-0.1,0.8-0.2,1.2-0.2c0.4,0,0.8,0.1,1.1,0.2s0.5,0.3,0.7,0.5s0.3,0.5,0.3,0.9
			c0.1,0.3,0.1,0.7,0.1,1.2v7.6c0,0.1,0,0.2,0,0.2c0,0-0.1,0.1-0.2,0.1c-0.1,0-0.3,0-0.5,0c-0.2,0-0.6,0-1,0v-7.5c0-0.2,0-0.4,0-0.7
			s-0.1-0.4-0.2-0.5c-0.1-0.1-0.2-0.3-0.4-0.4c-0.2-0.1-0.4-0.1-0.6-0.1c-0.2,0-0.5,0-0.8,0.1c-0.3,0.1-0.5,0.2-0.8,0.5v8.2
			c0,0.1,0,0.2,0,0.2c0,0-0.1,0.1-0.2,0.1c-0.1,0-0.3,0-0.5,0c-0.2,0-0.6,0-1,0V43.3z"/>
		<path class="st5" d="M86.1,52.7c0-1.9,0.3-3.3,0.9-4.2c0.6-0.9,1.5-1.3,2.6-1.3c0.5,0,1,0.1,1.4,0.2c0.4,0.2,0.8,0.4,1,0.9
			c0.3,0.4,0.5,1,0.6,1.7c0.1,0.7,0.2,1.6,0.2,2.6c0,2-0.3,3.4-0.9,4.2c-0.6,0.9-1.4,1.3-2.6,1.3c-0.5,0-1-0.1-1.4-0.2
			c-0.4-0.1-0.7-0.4-1-0.8c-0.3-0.4-0.5-0.9-0.6-1.7C86.2,54.8,86.1,53.9,86.1,52.7z M88,52.7c0,0.9,0,1.6,0.1,2.1
			c0.1,0.5,0.2,0.9,0.3,1.2c0.1,0.3,0.3,0.5,0.5,0.6c0.2,0.1,0.4,0.1,0.6,0.1c0.2,0,0.4-0.1,0.6-0.2c0.2-0.1,0.4-0.3,0.5-0.6
			c0.1-0.3,0.2-0.7,0.3-1.2c0.1-0.5,0.1-1.2,0.1-2c0-0.8,0-1.5-0.1-2c-0.1-0.5-0.2-0.9-0.3-1.2c-0.1-0.3-0.3-0.5-0.5-0.6
			c-0.2-0.1-0.4-0.1-0.7-0.1c-0.2,0-0.5,0.1-0.6,0.2c-0.2,0.1-0.4,0.3-0.5,0.6s-0.2,0.7-0.3,1.2C88,51.3,88,51.9,88,52.7z"/>
		<path class="st5" d="M93.4,48.9c0-0.3,0-0.6,0-0.8c0-0.2,0-0.3,0.1-0.4c0-0.1,0.1-0.2,0.1-0.2c0.1,0,0.1,0,0.3,0h1v-1.3
			c0-0.8,0.1-1.5,0.3-2c0.2-0.5,0.5-0.9,0.8-1.1c0.3-0.3,0.7-0.4,1.1-0.5c0.4-0.1,0.8-0.1,1.2-0.1c0.6,0,1.1,0.1,1.5,0.2
			c0.3,0.2,0.5,0.4,0.5,0.6c0,0.2,0,0.3,0,0.5c0,0.2-0.1,0.3-0.1,0.5c-0.3-0.1-0.5-0.2-0.8-0.2s-0.5,0-0.7,0c-0.3,0-0.5,0-0.8,0.1
			s-0.5,0.1-0.7,0.3c-0.2,0.1-0.3,0.4-0.5,0.6c-0.1,0.3-0.2,0.6-0.2,1.1v1.4h1.9c0,0.3,0,0.6,0,0.8c0,0.2,0,0.3,0,0.4
			c0,0.1-0.1,0.2-0.1,0.2c0,0-0.1,0-0.2,0h-1.5v8.7c0,0,0,0.1-0.1,0.2c0,0.1-0.1,0.1-0.3,0.1h-1.4v-9.1H93.4z"/>
	</g>
</g>
</svg>
