<?xml version="1.0" encoding="utf-8"?>
<!-- Generator: Adobe Illustrator 19.2.1, SVG Export Plug-In . SVG Version: 6.00 Build 0)  -->
<svg version="1.1" id="Layer_1" xmlns="http://www.w3.org/2000/svg" xmlns:xlink="http://www.w3.org/1999/xlink" x="0px" y="0px"
	 viewBox="0 0 76.8 47.5" style="enable-background:new 0 0 76.8 47.5;" xml:space="preserve">
<style type="text/css">
	.st0{fill:#FC5810;}
	.st1{fill:#F94406;}
	.st2{fill:#BC2B04;}
	.st3{fill:#CCCCCC;}
	.st4{fill:#FF6D24;}
	.st5{fill:#29ABB4;}
	.st6{fill:#42291C;}
	.st7{fill:#B3B3B3;}
	.st8{fill:#808080;}
</style>
<g>
	<rect x="57.9" y="31.4" class="st0" width="14" height="3.6"/>
	<rect x="71" y="29.5" class="st1" width="2.6" height="7.2"/>
	<rect x="72.3" y="35.3" class="st1" width="4.5" height="1.3"/>
	<rect x="72.3" y="29.5" class="st1" width="4.5" height="1.3"/>
	<polygon class="st2" points="51.1,38.3 5.7,38.3 1.1,36 51.1,36 	"/>
	<rect x="2.4" y="21.3" class="st0" width="29.4" height="12.4"/>
	<rect x="1.8" y="33.7" class="st1" width="58.6" height="2.3"/>
	<path class="st3" d="M2.1,37.6H1.3C0.6,37.6,0,37,0,36.3v-2.9c0-0.7,0.6-1.3,1.3-1.3h0.8V37.6z"/>
	<polygon class="st4" points="52.7,14.5 54.3,15 54.3,33.7 27.9,33.7 27.9,16.1 34.2,2.5 52.7,2.5 	"/>
	<g>
		<polygon class="st5" points="54.4,16.1 52.4,16.1 52.4,2.9 53.4,2.9 		"/>
		<polygon class="st5" points="48.8,16.1 33.4,16.1 37.1,2.5 48.8,2.5 		"/>
		<polygon class="st5" points="31.8,16.1 27.9,16.1 34.2,2.5 35.7,2.5 		"/>
	</g>
	<path class="st1" d="M26.7,36h-0.6v-9.7c0-1.4-1.2-2.6-2.6-2.6H7.4c-1.4,0-2.6,1.2-2.6,2.6V36H4.3v-9.7c0-1.7,1.4-3.1,3.1-3.1h16.1
		c1.7,0,3.1,1.4,3.1,3.1V36L26.7,36z"/>
	<path class="st0" d="M32.4,2.2L34,2.9h20.3V0c0,0-15,0-15.7,0c-2.1,0-4.7,0.8-4.7,0.8C33,1,32.4,1.4,32.4,2.2z"/>
	<path class="st4" d="M2.4,20.9v1.4h29.5V16H16.6l-11,1.8C3.9,18,2.4,19.2,2.4,20.9z"/>
	<g>
		<rect x="17.1" y="16.9" class="st2" width="0.6" height="3.3"/>
		<rect x="18.4" y="16.9" class="st2" width="0.6" height="3.3"/>
		<rect x="19.7" y="16.9" class="st2" width="0.6" height="3.3"/>
		<rect x="20.9" y="16.9" class="st2" width="0.6" height="3.3"/>
		<rect x="22.2" y="16.9" class="st2" width="0.6" height="3.3"/>
		<rect x="23.5" y="16.9" class="st2" width="0.6" height="3.3"/>
		<rect x="24.8" y="16.9" class="st2" width="0.6" height="3.3"/>
		<rect x="26" y="16.9" class="st2" width="0.6" height="3.3"/>
		<rect x="27.3" y="16.9" class="st2" width="0.6" height="3.3"/>
	</g>
	<rect x="44" y="18.1" class="st2" width="3.9" height="1.2"/>
	<rect x="54.3" y="15" class="st0" width="12.3" height="18.7"/>
	<circle class="st6" cx="15.5" cy="37.6" r="9.8"/>
	<path class="st1" d="M27,41.6c-0.7,0-1.2,0-1.2-0.7v-3.3c0-5.7-4.6-10.3-10.3-10.3c-4.3,0-8,2.6-9.6,6.5c-0.2,0.6-0.8,0.4-1.4,0.2
		c-0.6-0.2-1.1-0.4-0.9-1.1c1.9-4.9,6.6-8.1,11.9-8.1c7,0,12.8,5.7,12.8,12.8V41C28.2,41.6,27.7,41.6,27,41.6L27,41.6z"/>
	<circle class="st7" cx="15.5" cy="37.6" r="6"/>
	<circle class="st8" cx="15.5" cy="37.6" r="2.4"/>
	<rect x="23" y="7.6" class="st4" width="1" height="4.7"/>
	<rect x="22.2" y="11.3" class="st0" width="2.5" height="4.7"/>
	<path class="st1" d="M49.1,34.7H33L33,16l3.8-13.8h12.3V34V34.7z M33.7,34h14.8V2.8H37.3l-3.6,13.3v17.3V34z"/>
	<circle class="st6" cx="55.3" cy="34.4" r="13.1"/>
	<path class="st1" d="M41.8,34.6c-0.7,0-1.3,0-1.3-0.8c0-8.1,6.6-14.8,14.8-14.8c6.5,0,12.3,4.4,14.2,10.6c0.2,0.7-0.3,1-1,1.2
		c-0.7,0.2-1.3,0.3-1.6-0.4c-1.5-5.1-6.3-8.7-11.6-8.7c-6.7,0-12.1,5.4-12.1,12.1C43.2,34.6,41.8,34.6,41.8,34.6z"/>
	<circle class="st7" cx="55.3" cy="34.4" r="8"/>
	<circle class="st8" cx="55.3" cy="34.4" r="3.2"/>
</g>
</svg>
