<?xml version="1.0" encoding="utf-8"?>
<!-- Generator: Adobe Illustrator 19.2.1, SVG Export Plug-In . SVG Version: 6.00 Build 0)  -->
<svg version="1.1" id="Layer_1" xmlns="http://www.w3.org/2000/svg" xmlns:xlink="http://www.w3.org/1999/xlink" x="0px" y="0px"
	 viewBox="0 0 36.9 40.3" style="enable-background:new 0 0 36.9 40.3;" xml:space="preserve">
<style type="text/css">
	.st0{fill:#198910;}
	.st1{fill:#60C133;}
	.st2{fill:#4DB224;}
	.st3{fill:#A6F27E;}
	.st4{fill:#59C133;}
	.st5{fill:#4CAF23;}
	.st6{fill:#48A01F;}
	.st7{fill:#9AE56E;}
	.st8{fill:#B0CB2D;}
	.st9{fill:#C63C53;}
	.st10{fill:#82213F;}
	.st11{opacity:0.23;fill:#82213F;}
	.st12{clip-path:url(#SVGID_2_);}
	.st13{fill-rule:evenodd;clip-rule:evenodd;fill:#EAB968;}
	.st14{fill-rule:evenodd;clip-rule:evenodd;fill:#416D0F;}
	.st15{fill-rule:evenodd;clip-rule:evenodd;fill:#E23C03;}
	.st16{clip-path:url(#SVGID_4_);}
	.st17{fill:#E20303;}
	.st18{fill:#009245;}
	.st19{fill-rule:evenodd;clip-rule:evenodd;fill:#B50303;}
	.st20{fill:#FFC152;}
	.st21{fill:#CE7B02;}
	.st22{fill:#FFA310;}
	.st23{fill:#EF8F06;}
</style>
<g>
	<g>
		<path class="st0" d="M7.3,12.4c-0.4-0.5-1-0.8-1.6-0.6c-0.5,0.2-0.9,0.6-1.1,1.2c-0.2,0.5-0.2,1.1-0.1,1.6
			c0.1,0.5,0.3,1.1,0.5,1.6l1.2,1.5C7,16.2,6.6,13.7,7.3,12.4z"/>
		<path class="st0" d="M22.7,15.5c-0.3-0.2-0.8-0.2-1,0.1c-0.1,0.2-0.1,0.4-0.2,0.6c-0.1,0.9-0.8,2.2-0.9,3c0.8-0.1,2.2-1.1,2.5-1.9
			c0.1-0.3,0.2-0.7,0.1-1C23.2,16,23,15.7,22.7,15.5z"/>
		<path class="st0" d="M9.2,9.2c-0.3-0.1-0.7,0-1,0.2c-0.3,0.2-0.5,0.5-0.7,0.8c-0.4,0.8-0.3,1.7,0.2,2.4c0.6-0.6,1.2-1.3,1.7-1.9
			c0.1-0.2,0.3-0.3,0.3-0.5C9.9,9.6,9.6,9.3,9.2,9.2z"/>
		<path class="st0" d="M20.8,10.4c-0.6-0.2-1.2,0.1-1.6,0.6c0.8,1.4,1.4,2.6,2.2,4l0.2-0.2c0.2-0.5,0.4-1,0.5-1.6
			c0.1-0.5,0.1-1.1-0.1-1.6C21.8,11,21.4,10.5,20.8,10.4z"/>
		<ellipse transform="matrix(0.2679 -0.9634 0.9634 0.2679 -4.1352 24.5202)" class="st1" cx="14.1" cy="15" rx="6.7" ry="6.6"/>
		<path class="st2" d="M15.9,8.4C14.4,8,10.2,7.7,8.1,12c0.3,0.2,0.6,0.3,0.9,0.5C10.2,10,13.2,8.6,15.9,8.4z"/>
		<path class="st3" d="M9.9,11c0.4-1.1,1.3-2.1,2.4-2.6c1.1-0.5,2.4-0.5,3.5,0c-1,0.2-2,0.5-3,0.9c-1,0.4-1.8,1-2.4,1.9
			C10.3,11.1,10.1,11.1,9.9,11z"/>
		<path class="st4" d="M9.3,10c-2.6,1.7-3.5,4.9-2.2,7.7c1.2,2.8,4.3,4.9,7.3,4.1c-1-2-1.3-4.2-1.8-6.4C12,13.3,11.2,11.2,9.3,10z"
			/>
		<path class="st3" d="M9.5,11.9c1.5,2.2,2.9,5.1,3.9,7.6c-0.1-1.8-0.3-4.2-0.9-5.9c-0.6-1.7-1.8-2.8-3.4-3.6
			C8.8,10.2,9.3,11.5,9.5,11.9z"/>
		<path class="st4" d="M14.8,19.3c0.2-0.2,0.5-0.4,0.8-0.6c0.5-0.4,0.9-1,1.3-1.5c0.8-1.2,1.3-2.5,1.6-3.8s0.1-2.8-0.6-4.1
			c1,0.5,1.7,1.5,2.3,2.4c0.5,0.7,0.9,1.5,1.1,2.3c0.1,0.8,0,1.6-0.2,2.4c-0.2,0.9-0.5,1.9-0.9,2.7c-0.6,1-1.5,1.8-2.6,2.2
			c-1.1,0.4-2.3,0.6-3.4,0.4C14.5,21,14.3,19.9,14.8,19.3z"/>
		<path class="st3" d="M19.2,12.9c-0.4,1.3-0.7,2.6-1.3,3.8c-0.6,1.2-1.7,2.3-3.1,2.5c1.6-1.3,2.7-3.2,3.2-5.2c0.4-2,0-3.3-1-5.2
			C17.9,7.5,20.1,10.2,19.2,12.9z"/>
		<path class="st5" d="M9.9,21.3c-0.3-0.5-0.2-1.1-0.1-1.7c0.2-0.9,0.5-1.8,1.3-2.3c0.3-0.2,0.8-0.3,1.2-0.4
			c1.6-0.1,3.2,0.6,4.8,0.5c1.5-0.1,2.7-1.2,3.6-2.3c0.5,1.6,0.2,3.6-0.8,5c-1,1.4-2.6,2.2-4.3,2.5c-1.7,0.3-3.4-0.1-5-0.8
			C10.4,21.7,10.1,21.5,9.9,21.3z"/>
		<path class="st3" d="M10.5,17.9c0.6-0.9,1.8-1.3,3-1.3c1.1,0,2.2,0.3,3.4,0.3s3.4-0.8,3.9-1.7c-0.3,0.8-0.5,2-1.6,2.4
			c-1.2,0.4-2.9,0.4-4.3,0.1C13.3,17.3,11.7,17,10.5,17.9z"/>
		<path class="st6" d="M19.7,20.7c-0.8,0.8-1.6,1.7-3,2.3c-1.2,0.5-2.6,0-3.8-0.3c0.5-0.4,1-1.1,1.3-1.7c0.2-0.4,0.3-0.9,0.6-1.3
			c0.4-0.6,1.1-1,1.7-1.4c0.9-0.5,1.9-0.9,2.9-1.4c0.9-0.5,2.5-2.3,3.6-2.8C21.6,15.6,21.8,18.6,19.7,20.7z"/>
		<path class="st7" d="M21.8,12.3c0-0.4,0-0.8-0.2-1.1c-0.4-0.6-1.2-0.8-2-0.5c1-0.9,2.6-0.3,3.2,0.7c0.6,1,0.5,2.3,0,3.3
			c-0.6,1-1.5,1.8-2.5,2.3c-1,0.6-2.1,1-3.2,1.5c-1,0.5-2.1,1.3-2.8,2.2c0.2-1.1,1.1-2.1,2.1-2.7c1-0.6,2.1-0.9,3-1.6
			C20.7,15.4,21.6,13.9,21.8,12.3z"/>
		<path class="st6" d="M14.4,23.1c-4.7-1.6-3.1-3.9-4.3-6.6c-0.4-0.8-1.9-2.5-2.3-3.3c-0.5-1-0.6-2.8-0.6-3.4
			c-0.2,2.5-0.8,3.3-1.1,4.8c-0.4,2.1,0.4,5.1,1.8,6.4C9.9,22.9,13.1,23.2,14.4,23.1z"/>
		<path class="st7" d="M6.9,11c0,1.3,0.3,2.6,1.3,3.5c0.7,0.7,1.6,1.1,2,1.9c-0.1-0.8-0.6-1.4-1.1-2c-0.5-0.6-1-1.2-1.3-1.9
			c-0.2-0.6-0.1-1.3,0-2c0.1-0.4,0.3-0.9,0.6-1.2c0.4-0.3,1.1-0.1,1.4,0.2c0-0.6-0.7-1.2-1.2-1.2C8,8.5,7.5,8.9,7.2,9.4
			C6.9,9.9,6.9,10.5,6.9,11z"/>
		<path class="st4" d="M8.9,21c4.3,2.4,4.9-0.3,7.7-1.2c0.9-0.3,3.1-0.2,4-0.5c1.1-0.3,2.5-1.4,2.9-1.8c-1.7,1.8-1.9,2.8-2.8,4
			c-1.3,1.6-4.1,3.1-5.9,3C12.1,24.2,9.8,22.1,8.9,21z"/>
		<path class="st7" d="M22.9,18.5C22,19.4,20.7,20,19.5,20c-0.9-0.1-1.9-0.5-2.8-0.2c0.6-0.4,1.4-0.5,2.2-0.5c0.8,0,1.5,0,2.2-0.3
			c0.6-0.3,1.1-0.8,1.5-1.3c0.3-0.4,0.5-0.8,0.5-1.3c0-0.5-0.6-0.9-1.1-0.8c0.4-0.4,1.4-0.3,1.7,0.1c0.4,0.4,0.4,1.1,0.2,1.6
			C23.7,17.7,23.3,18.1,22.9,18.5z"/>
		<path class="st6" d="M6.9,22.1c0.8,0.8,1.6,1.7,3,2.3c1.2,0.5,2.6,0,3.8-0.3c-0.5-0.4-1-1.1-1.3-1.7c-0.2-0.4-0.3-0.9-0.6-1.3
			c-0.4-0.6-1.1-1-1.7-1.3c-0.9-0.5-1.9-0.9-2.9-1.4c-0.9-0.5-2.6-2.3-3.6-2.7C5.1,17,4.9,20,6.9,22.1z"/>
		<path class="st7" d="M4.8,13.7c-0.1-0.4-0.1-0.8,0.1-1.1c0.4-0.6,1.2-0.8,2-0.5c-1-0.8-2.6-0.2-3.2,0.7c-0.6,1-0.5,2.3,0.1,3.3
			c0.6,1,1.5,1.8,2.5,2.3c1,0.6,2.1,0.9,3.2,1.4c1.1,0.5,2.1,1.3,2.8,2.2c-0.2-1.1-1.1-2.1-2.1-2.7c-1-0.5-2.1-0.9-3-1.6
			C5.9,16.8,5,15.3,4.8,13.7z"/>
		<path class="st3" d="M15.9,8.5c0.4,0.7,0.7,1.5,0.6,2.3c0,0.8-0.3,1.6-0.8,2.2c-0.5,0.6-1.1,1-1.6,1.5c-0.5,0.5-1,1.1-1.1,1.9
			l0,0.2c0.7-0.8,1.7-1.4,2.5-2c0.9-0.6,1.7-1.4,2-2.5c0.2-0.7,0.1-1.4-0.2-2.1C17.1,9.3,16.5,8.8,15.9,8.5z"/>
	</g>
	<g>
		<g>
			<path class="st8" d="M34.6,7.4c0.4-0.1,0.9,0.1,1.2,0.3c0.3,0.2,0.9,0.1,1.1,0.5C37,8.4,36.8,8.8,36.7,9
				c-0.1,0.3-0.3,0.6-0.5,0.9c-0.2,0.3-0.4,0.5-0.8,0.7c-0.3,0.1-0.7,0.2-0.9,0.5c-0.2,0.3-0.1,0.6-0.1,0.9c0,0.3-0.2,0.6-0.4,0.8
				c-0.2,0.2-0.5,0.3-0.8,0.3c-0.3,0-0.6-0.1-0.8,0c-0.3,0.1-0.4,0.3-0.7,0.5c-0.2,0.2-0.5,0.2-0.8,0.1c-0.6-0.2-1-0.8-1.6-1
				c0.2-0.5-0.4-1-0.1-1.5c0.3-0.6,1.1-0.5,1.3-1.2c0.1-0.3,0.1-0.6,0.2-0.9c0.1-0.3,0.3-0.6,0.6-0.8c0.5-0.4,1-0.5,1.7-0.4
				c0.3,0,0.5,0.1,0.8,0C34,7.6,34.3,7.4,34.6,7.4C34.7,7.3,34.5,7.4,34.6,7.4C34.7,7.3,34.5,7.4,34.6,7.4z"/>
			<path class="st9" d="M33.7,12.2C33.7,12.2,33.7,12.2,33.7,12.2c-0.3-0.3-0.6-0.5-0.8-0.6c-0.1-0.1-0.2-0.1-0.4-0.2
				c0,0.2,0.1,0.4,0.2,0.5c0,0.1,0.3,0.5,0.3,0.5c0,0-0.1,0-0.1-0.1c-0.3-0.3-0.4-0.6-0.5-1l0,0c0,0,0,0,0,0c-0.1,0-0.2-0.1-0.3-0.1
				c-0.1,0-0.3-0.1-0.4-0.1c-0.1,0-0.2,0-0.3,0c0,0,0.1,0,0,0c0,0,0,0,0,0l0,0c0,0,0,0,0,0c0,0,0,0,0,0c0,0,0,0-0.1,0
				c-0.1,0.1-0.2,0.2-0.3,0.2c-0.1,0.1-0.2,0.2-0.3,0.2c-0.1,0.1-0.2,0.2-0.3,0.2c-0.1,0.1-0.2,0.2-0.3,0.3c0.1,0,0.2,0,0.3,0.1
				c0.1,0,0.2,0.1,0.3,0.1c0.2,0,0.3-0.1,0.5-0.1c0.2,0,0.3,0,0.5,0.1c0.1,0,0.1,0.1,0.1,0.1c0,0-0.1,0-0.1,0c-0.1,0-0.3,0-0.4,0
				c-0.1,0-0.3,0-0.4,0c0,0,0.1,0,0.1,0.1c0.1,0.1,0.3,0.2,0.3,0.3c0,0,0.1,0.1,0.1,0.1c0,0,0,0.1,0,0.1c0,0,0,0-0.1,0
				c-0.2-0.1-0.3-0.3-0.5-0.4c-0.1-0.1-0.3-0.2-0.5-0.2c-0.2-0.1-0.3-0.1-0.4-0.1c-0.1,0.1-2.1,2.1-3.1,3.7
				c-0.4,0.6-0.5,0.2-0.3-0.2c1.7-2.4,3.4-3.8,3.8-4.2c0-0.3-0.1-0.5-0.2-0.8c0-0.1,0-0.1,0-0.1c0,0,0.1,0,0.1,0.1
				c0.1,0.2,0.2,0.5,0.2,0.7c0.5-0.4,1-0.8,1.5-1.1l0,0c0-0.1,0-0.3,0-0.5c0-0.1,0-0.1,0-0.2c0,0,0,0,0,0c-0.1,0-0.3-0.1-0.4-0.1
				c-0.1-0.1-0.3-0.1-0.4-0.2c0-0.1-0.1-0.1-0.1-0.1c0,0,0.1,0,0.1,0c0.1,0.1,0.2,0.1,0.3,0.2c0.1,0,0.1,0.1,0.2,0.1
				c0.1,0,0.1,0,0.2,0.1c0-0.1,0-0.2,0-0.3c0-0.2-0.1-0.4-0.2-0.6c0,0,0-0.1,0-0.1c0,0,0,0,0.1,0c0,0,0.1,0.1,0.1,0.1
				C32,8.8,32,8.9,32.1,9.1c0.1-0.2,0.2-0.4,0.2-0.5c0-0.1,0-0.1,0.1-0.1c0,0,0,0,0,0.1c0,0,0,0.1,0,0.1c0,0.1-0.1,0.3-0.2,0.4
				c0,0.1-0.1,0.1-0.1,0.2l0,0c0.1,0.2,0.1,0.4,0.1,0.6c0,0.1,0,0.1,0,0.2c0,0.1,0,0.1,0,0.2c0,0,0.1,0,0.1-0.1c0,0,0.1,0,0.1-0.1
				c0.1,0,0.1-0.1,0.2-0.1c0.1-0.1,0.3-0.2,0.4-0.2c0.1-0.1,0.3-0.1,0.4-0.2c0.1-0.1,0.2-0.1,0.4-0.2c0.1-0.1,0.1-0.2,0.2-0.3
				c0,0,0.1-0.1,0.1-0.1c0,0,0-0.1,0.1-0.1c-0.1-0.2-0.2-0.4-0.2-0.6c0-0.1,0-0.1,0-0.1c0,0,0,0,0.1,0.1C34,8.3,34,8.5,34.1,8.6
				c0-0.1,0.1-0.2,0.1-0.3c0-0.1,0.1-0.2,0.1-0.3c0-0.1,0.1-0.2,0.1-0.2c0,0,0,0.1,0,0.2c0,0.1,0,0.2-0.1,0.3
				c0.2-0.1,0.4-0.2,0.5-0.4c0,0,0.1-0.1,0.1-0.1c0,0,0,0,0,0.1c-0.1,0.1-0.2,0.2-0.3,0.3c0,0-0.1,0-0.1,0.1c0,0-0.1,0-0.1,0
				c-0.1,0-0.1,0.1-0.2,0.1c0,0.1,0,0.1-0.1,0.2c0,0.1-0.1,0.1-0.1,0.2c-0.1,0.1-0.1,0.2-0.2,0.4c0.3-0.1,0.5-0.3,0.7-0.3
				C34.9,8.8,35,8.8,35,8.8c0,0,0,0-0.1,0.1c-0.1,0-0.2,0.1-0.3,0.2c0.1,0,0.3,0.1,0.4,0.2C35,9.1,35.1,9.1,35.2,9
				c0.1,0,0.1,0,0.2-0.1c0.1,0,0.1,0,0.2,0c0.1,0,0.1,0,0.1,0c0,0,0,0-0.1,0.1c0,0-0.1,0-0.1,0.1c0,0-0.1,0-0.1,0.1
				c-0.1,0-0.2,0.1-0.3,0.1c0.1,0.1,0.2,0.1,0.3,0.2c0.1,0.1,0.1,0.1,0.1,0.1c0,0-0.1,0-0.1-0.1c-0.1-0.1-0.3-0.2-0.4-0.2
				c-0.1-0.1-0.3-0.1-0.5-0.2c-0.1,0-0.2,0.1-0.3,0.1c-0.1,0.1-0.2,0.1-0.3,0.2l0,0c-0.1,0-0.2,0.1-0.2,0.1c-0.1,0-0.2,0.1-0.2,0.1
				c0,0,0.1,0,0.1,0c0,0,0.1,0,0.1,0c0.2,0,0.4,0.1,0.5,0.2c0.2,0.1,0.3,0.2,0.3,0.3c0,0,0,0,0,0.1c0,0,0,0,0,0.1c0,0,0,0.1,0,0.1
				s0,0-0.1,0c-0.2-0.1-0.3-0.2-0.4-0.3c0,0.2,0.1,0.4,0.2,0.6c0,0.1,0,0.1,0,0.1c0,0,0,0-0.1-0.1c-0.2-0.2-0.3-0.5-0.3-0.7h0
				c0,0,0,0,0,0c-0.1-0.1-0.2-0.1-0.4-0.1c-0.2,0-0.3,0-0.4,0c0,0,0.1,0,0,0c0,0,0,0,0,0l0,0c0,0,0,0,0,0c0,0,0,0,0,0c0,0,0,0,0,0
				c-0.5,0.3-1.1,0.7-1.6,1.1c0.1,0,0.2,0,0.3,0c0.1,0,0.2,0,0.3,0.1c0.3,0.1,0.6,0.2,0.8,0.4c0,0,0,0,0,0c0.1,0,0.1-0.1,0.2-0.1
				c0.1,0,0.1-0.1,0.2-0.1c0.2,0,0.3-0.1,0.5,0c0.1,0,0.1,0,0.1,0c0,0-0.1,0-0.1,0c-0.1,0-0.3,0-0.4,0.1c-0.1,0-0.3,0.1-0.4,0.1
				c0.2,0.1,0.4,0.3,0.5,0.4C33.6,12,33.6,12.1,33.7,12.2C33.7,12.2,33.7,12.2,33.7,12.2z M30,12.3L30,12.3C30,12.3,30,12.3,30,12.3
				z"/>
		</g>
		<g>
			<path class="st8" d="M27.6,6.6C27.7,6.1,28,6,28.3,5.7c0.2-0.2,0.3-0.7,0.6-0.8c0.4-0.1,0.8,0.3,1.1,0.5c0.3,0.3,0.6,0.6,0.8,1
				c0.1,0.4,0,0.9,0.1,1.3c0,0.2,0.1,0.4,0.3,0.6c0.2,0.2,0.4,0.3,0.5,0.5c0.5,0.5,0.4,1.4-0.1,1.9c-0.3,0.3-0.7,0.5-0.8,0.9
				c-0.1,0.4-0.1,0.8-0.5,1.1c-0.7,0.5-1.5-0.1-2.2,0c0-0.5-0.8-0.6-0.9-1.1c-0.1-0.5,0.6-0.8,0.3-1.3c-0.1-0.2-0.3-0.4-0.5-0.6
				c-0.1-0.2-0.2-0.4-0.3-0.7c0-0.3,0.1-0.7,0.3-0.9c0.2-0.2,0.4-0.3,0.5-0.6C27.7,7.1,27.5,6.9,27.6,6.6
				C27.6,6.5,27.6,6.6,27.6,6.6z"/>
			<path class="st9" d="M31.4,9.5C31.4,9.5,31.3,9.5,31.4,9.5c-0.4,0.1-0.7,0.1-1,0.3c-0.1,0-0.3,0.1-0.4,0.1
				c0.1,0.1,0.3,0.2,0.5,0.2c0.1,0,0.6,0.1,0.6,0.2c0,0-0.1,0-0.2,0c-0.4,0-0.8-0.2-1-0.4l0,0c0,0,0,0,0,0c-0.1,0-0.2,0.1-0.3,0.2
				c-0.1,0.1-0.2,0.1-0.3,0.2c-0.1,0.1-0.2,0.1-0.3,0.2c0,0,0.1,0,0,0c0,0,0,0,0,0l0,0c0,0,0,0,0,0c0,0,0,0,0,0c0,0,0,0,0,0
				c0,0.1,0,0.2-0.1,0.3c0,0.1-0.1,0.2-0.1,0.3c0,0.1-0.1,0.2-0.1,0.3c0,0.1-0.1,0.2-0.1,0.3c0.1,0,0.2-0.1,0.3-0.1
				c0.1,0,0.2,0,0.3,0c0.1-0.1,0.2-0.2,0.4-0.3c0.1-0.1,0.3-0.2,0.4-0.2c0.1,0,0.1,0,0.1,0c0,0,0,0.1-0.1,0.1
				c-0.1,0.1-0.2,0.2-0.3,0.2c-0.1,0.1-0.2,0.2-0.3,0.3c0,0,0.1,0,0.1,0c0.2,0,0.4,0.1,0.5,0.1c0,0,0.1,0,0.1,0.1c0,0,0,0,0,0.1
				c0,0,0,0-0.1,0c-0.2,0-0.4-0.1-0.6-0.1c-0.2,0-0.4,0-0.5,0c-0.2,0-0.3,0.1-0.4,0.1c0,0-1.6,3.5-1.9,3.9c-0.4,0.5-0.6,0.1-0.4-0.2
				c0.3-0.5,2.1-3.9,2.3-4.3c-0.2-0.2-0.4-0.3-0.6-0.5c-0.1,0-0.1-0.1-0.1-0.1c0,0,0.1,0,0.1,0c0.2,0.1,0.4,0.2,0.6,0.4
				c0.1-0.5,0.2-1.1,0.3-1.6l0,0c-0.1-0.1-0.2-0.2-0.4-0.3c-0.1,0-0.1-0.1-0.2-0.1c0,0,0,0,0,0c-0.1,0.1-0.2,0.1-0.4,0.2
				c-0.1,0-0.3,0.1-0.4,0.1c-0.1,0-0.1,0-0.1,0c0,0,0,0,0.1,0c0.1,0,0.2,0,0.4-0.1c0.1,0,0.1,0,0.2-0.1c0.1,0,0.1-0.1,0.2-0.1
				C28.1,9.1,28,9,28,9c-0.2-0.1-0.4-0.1-0.6-0.2c0,0-0.1,0-0.1,0c0,0,0,0,0.1,0c0.1,0,0.1,0,0.2,0c0.1,0,0.2,0,0.4,0.1
				c-0.1-0.2-0.2-0.3-0.3-0.4c0,0-0.1-0.1-0.1-0.1c0,0,0,0,0.1,0c0,0,0.1,0,0.1,0.1c0.1,0.1,0.2,0.2,0.2,0.3c0,0.1,0,0.1,0.1,0.2
				l0,0c0.2,0.1,0.4,0.2,0.5,0.3c0.1,0,0.1,0.1,0.2,0.1c0,0,0.1,0.1,0.1,0.1c0,0,0-0.1,0-0.1c0,0,0-0.1,0-0.1c0-0.1,0-0.1,0-0.2
				c0-0.1,0-0.3,0-0.4c0-0.1,0-0.3,0-0.4c0-0.1,0-0.2,0-0.4c0-0.1-0.1-0.2-0.2-0.2c0,0-0.1-0.1-0.1-0.1c0,0-0.1-0.1-0.1-0.1
				c-0.2,0-0.4,0-0.6-0.1c0,0-0.1,0-0.1-0.1c0,0,0,0,0.1,0c0.2,0,0.3,0,0.5,0c-0.1-0.1-0.1-0.1-0.2-0.2C28.3,7,28.2,7,28.1,6.9
				C28,6.9,28,6.8,28,6.8c0,0,0.1,0,0.2,0c0.1,0,0.1,0.1,0.2,0.1c0-0.2-0.1-0.3-0.1-0.5c0,0,0-0.1,0-0.1c0,0,0,0,0.1,0.1
				c0.1,0.1,0.1,0.2,0.1,0.3c0,0,0,0.1,0,0.1c0,0,0,0.1,0,0.1c0,0.1,0,0.1,0,0.2c0.1,0,0.1,0.1,0.1,0.1c0,0,0.1,0.1,0.1,0.1
				c0.1,0.1,0.2,0.2,0.2,0.3c0-0.1,0-0.1,0-0.2c0-0.1,0-0.1,0-0.2c0-0.1,0-0.1,0-0.2c0,0,0-0.1,0-0.1c0-0.2,0-0.3,0-0.3
				c0,0,0,0,0,0.1c0,0.1,0,0.2,0,0.3c0.1-0.1,0.2-0.2,0.3-0.3c0-0.1,0-0.2,0-0.3c0-0.1,0-0.1,0-0.2c0-0.1,0-0.1,0-0.2
				c0-0.1,0-0.1,0-0.1c0,0,0,0,0,0.1c0,0,0,0.1,0,0.1c0,0,0,0.1,0,0.1c0,0.1,0,0.2,0,0.3c0.1-0.1,0.2-0.1,0.3-0.2c0.1,0,0.1,0,0.1,0
				c0,0,0,0.1-0.1,0.1c-0.1,0.1-0.3,0.2-0.4,0.3c-0.1,0.1-0.2,0.2-0.4,0.3c0,0.1,0,0.2,0,0.3c0,0.1,0,0.2,0,0.3c0,0,0,0,0,0
				c0,0.1,0,0.2,0,0.2c0,0.1,0,0.2,0,0.3c0,0,0-0.1,0.1-0.1c0,0,0.1-0.1,0.1-0.1c0.1-0.1,0.3-0.2,0.4-0.3c0.2-0.1,0.3-0.1,0.4-0.1
				c0,0,0.1,0,0.1,0c0,0,0,0,0.1,0c0,0,0.1,0,0.1,0c0,0,0,0,0,0C30.2,7.8,30,7.9,29.8,8C30,8,30.2,8.1,30.5,8.1c0.1,0,0.1,0,0.1,0
				c0,0,0,0-0.1,0.1c-0.2,0.1-0.5,0-0.8-0.1h0c0,0,0,0,0,0c-0.1,0.1-0.2,0.1-0.3,0.2c-0.1,0.1-0.2,0.2-0.3,0.3c0,0,0,0,0,0
				c0,0,0,0,0,0l0,0c0,0,0,0,0,0c0,0,0,0,0,0c0,0,0,0,0,0c0,0.5-0.1,1.1-0.2,1.7c0.1-0.1,0.1-0.1,0.2-0.2c0.1-0.1,0.2-0.1,0.3-0.2
				c0.3-0.1,0.6-0.3,0.8-0.4l0,0c0-0.1,0-0.2,0.1-0.2c0-0.1,0.1-0.2,0.1-0.2c0.1-0.2,0.1-0.3,0.3-0.4c0.1-0.1,0.1-0.1,0.1-0.1
				c0,0,0,0.1,0,0.1c-0.1,0.1-0.1,0.3-0.2,0.4c-0.1,0.1-0.1,0.3-0.1,0.4c0.2-0.1,0.4-0.1,0.6-0.1C31.1,9.5,31.2,9.5,31.4,9.5
				C31.3,9.5,31.4,9.5,31.4,9.5z M28.5,12L28.5,12C28.5,12,28.5,12,28.5,12z"/>
		</g>
		<g>
			<path class="st8" d="M25.7,8.2c0.1-0.4,0.4-0.6,0.6-0.9C26.6,7,26.7,6.6,27,6.4c0.3-0.1,0.5-0.1,0.8-0.1c0.3,0.1,0.7,0.2,0.9,0.3
				c0.3,0.2,0.4,0.4,0.4,0.8c0,0.3,0,0.6,0.2,0.8c0.2,0.3,0.7,0.2,1,0.4c0.3,0.2,0.4,0.7,0.3,1c-0.1,0.4-0.4,0.7-0.7,1
				c-0.1,0.1-0.2,0.3-0.2,0.5c0,0.2,0,0.4,0,0.5c-0.1,0.3-0.4,0.5-0.6,0.6c-0.6,0.2-1.2,0.1-1.9,0.3c-0.2-0.5-1-0.2-1.2-0.7
				c-0.2-0.3,0.3-0.6,0.1-0.9c-0.1-0.2-0.4-0.3-0.6-0.4c-0.2-0.1-0.4-0.3-0.5-0.5c0-0.1,0-0.3,0-0.4c0.1-0.3,0.3-0.5,0.5-0.7
				c0.1-0.1,0.2-0.3,0.2-0.4C25.8,8.5,25.7,8.4,25.7,8.2C25.7,8.1,25.7,8.3,25.7,8.2z"/>
			<path class="st9" d="M30,9.4C30,9.4,29.9,9.4,30,9.4c-0.4,0.2-0.7,0.3-1.1,0.5c-0.1,0.1-0.3,0.1-0.4,0.2c0.2,0,0.4,0.1,0.5,0.1
				c0.1,0,0.7-0.1,0.7,0c0,0-0.1,0-0.2,0.1c-0.4,0.1-0.8,0.1-1.1,0l0,0c0,0,0,0,0,0c-0.1,0.1-0.2,0.1-0.3,0.2
				c-0.1,0-0.1,0.1-0.2,0.1c-0.1,0-0.1,0.1-0.1,0.1c-0.1,0.1-0.2,0.1-0.2,0.2c0,0,0,0,0,0c0,0,0,0,0,0l0,0c0,0,0,0,0,0c0,0,0,0,0,0
				c0,0,0,0,0,0c0,0.1,0,0.2,0,0.3c0,0.1,0,0.2,0,0.3c0,0.1,0,0.2,0,0.3c0,0.1,0,0.2,0,0.3c0.1,0,0.2-0.1,0.3-0.1
				c0.1,0,0.2-0.1,0.3-0.1c0.2-0.2,0.4-0.5,0.7-0.7c0.1,0,0.1-0.1,0.1-0.1c0,0,0,0.1-0.1,0.1c-0.2,0.2-0.4,0.4-0.6,0.6
				c0,0,0.1,0,0.1,0c0.2,0,0.4,0,0.5,0c0.1,0,0.1,0,0.1,0c0,0,0.1,0,0,0c0,0,0,0-0.1,0c-0.2,0-0.4,0-0.6,0.1c-0.2,0-0.4,0.1-0.5,0.2
				c-0.2,0.1-0.3,0.1-0.4,0.2c-0.1,0.7-0.2,1.7-1,3.5c-0.2,0.5-0.4,0.2-0.3-0.1c0.2-0.4,1-2.5,1.1-4c-0.2-0.1-0.5-0.2-0.7-0.2
				c-0.1,0-0.1,0-0.1,0c0,0,0.1,0,0.1,0c0.2,0,0.5,0,0.7,0.2c0-0.1,0-0.2,0-0.3c0-0.1,0-0.2,0-0.3c0-0.1,0-0.1,0-0.2
				c0,0,0-0.1,0-0.1c0,0,0-0.1,0-0.1c0-0.1,0-0.2,0-0.3l0,0c-0.1,0-0.2-0.1-0.4-0.2c-0.1,0-0.1,0-0.2,0c0,0,0,0,0,0
				c0,0-0.1,0-0.1,0.1c0,0-0.1,0-0.1,0.1c-0.1,0-0.1,0.1-0.2,0.1c-0.1,0.1-0.3,0.1-0.4,0.2c-0.1,0-0.1,0-0.1,0c0,0,0,0,0.1-0.1
				c0.1-0.1,0.3-0.1,0.4-0.2c0.1,0,0.1-0.1,0.2-0.1c0.1,0,0.1-0.1,0.2-0.1c-0.1,0-0.2,0-0.3,0c-0.2,0-0.5,0-0.7,0c0,0-0.1,0-0.1,0
				c0,0,0,0,0.1,0c0.1,0,0.1,0,0.2,0c0.1,0,0.3,0,0.4-0.1c0,0-0.1-0.1-0.2-0.1c-0.1,0-0.1-0.1-0.2-0.1c0,0-0.1,0-0.1,0
				c0,0,0,0,0.1,0c0,0,0.1,0,0.1,0c0.1,0,0.2,0.1,0.3,0.1c0,0,0.1,0.1,0.1,0.1h0c0.2,0,0.4,0,0.6,0.1c0.1,0,0.1,0,0.2,0.1
				c0.1,0,0.1,0,0.1,0.1c0,0,0-0.1,0-0.1c0,0,0-0.1,0-0.1c0-0.1,0-0.1,0-0.2c0-0.1,0-0.2,0-0.3c0-0.2,0-0.4,0-0.6
				c-0.1-0.1-0.3-0.2-0.4-0.3c-0.2,0.1-0.5,0.2-0.7,0.2c-0.1,0-0.1,0-0.1,0c0,0,0,0,0.1,0c0.2,0,0.4-0.1,0.5-0.1
				c-0.1,0-0.2-0.1-0.2-0.1c-0.1,0-0.2,0-0.3-0.1c-0.1,0-0.2,0-0.1-0.1c0,0,0.1,0,0.2,0c0.1,0,0.2,0,0.2,0c0-0.1-0.1-0.2-0.2-0.4
				c0,0,0-0.1,0-0.1c0,0,0,0,0.1,0c0.1,0.1,0.2,0.3,0.2,0.4c0.1,0,0.1,0,0.2,0c0.1,0,0.1,0,0.2,0.1c0.1,0,0.2,0.1,0.3,0.2
				c0-0.1,0-0.2,0-0.3c0,0,0-0.1,0-0.1c0,0,0-0.1,0-0.1c0-0.1,0-0.2,0-0.2c0,0,0.1,0.1,0.1,0.3c0.1-0.1,0.2-0.2,0.3-0.3
				c0-0.1,0-0.2-0.1-0.3c0,0,0-0.1,0-0.1c0,0,0-0.1,0-0.1c0,0,0-0.1,0-0.1c0,0,0,0,0,0.1c0,0,0,0.1,0,0.1l0,0.1c0,0.1,0,0.2,0,0.2
				c0.1-0.1,0.2-0.2,0.3-0.3c0.1-0.1,0.1-0.1,0.1-0.1c0,0,0,0.1-0.1,0.1c-0.1,0.1-0.3,0.2-0.4,0.4c-0.1,0.1-0.2,0.2-0.3,0.4
				c0,0.1,0,0.3,0.1,0.5c0,0,0,0,0,0c0,0.1,0,0.3,0,0.4c0-0.1,0.1-0.1,0.2-0.2c0.1-0.1,0.3-0.3,0.4-0.4c0.2-0.1,0.3-0.2,0.4-0.3
				c0,0,0.1,0,0.1,0c0,0,0,0,0.1,0c0,0,0.1,0,0.1,0s0,0,0,0c-0.1,0.1-0.2,0.1-0.2,0.2c-0.1,0.1-0.2,0.1-0.2,0.2
				c0.2,0,0.5-0.1,0.7-0.1c0.1,0,0.1,0,0.1,0c0,0,0,0-0.1,0.1c-0.3,0.1-0.6,0.2-0.8,0.2v0c0,0,0,0,0,0c-0.1,0.1-0.2,0.2-0.3,0.3
				c-0.1,0.1-0.2,0.2-0.2,0.3c0,0,0,0,0,0c0,0,0,0,0,0l0,0c0,0,0,0,0,0c0,0,0,0,0,0c0,0,0,0,0,0c0,0.1,0,0.2,0,0.3
				c0,0.1,0,0.1,0,0.2c0,0,0,0.1,0,0.1l0,0l0,0c0,0.1,0,0.2,0,0.4c0,0.1,0,0.1,0,0.2c0,0.1,0,0.1,0,0.2c0.1-0.1,0.1-0.1,0.2-0.2
				c0.1-0.1,0.2-0.1,0.3-0.2c0.2-0.2,0.5-0.4,0.8-0.5l0,0c0,0,0-0.1,0-0.1c0,0,0-0.1,0-0.1c0-0.1,0-0.1,0.1-0.2
				c0-0.1,0.1-0.3,0.2-0.4c0-0.1,0.1-0.1,0.1-0.1c0,0,0,0.1,0,0.1c-0.1,0.1-0.1,0.3-0.2,0.4c0,0.1,0,0.1-0.1,0.2c0,0.1,0,0.1,0,0.2
				c0.1-0.1,0.2-0.1,0.3-0.2c0.1,0,0.2-0.1,0.3-0.1C29.7,9.4,29.8,9.4,30,9.4C29.9,9.4,30,9.4,30,9.4z M27.4,12.2L27.4,12.2
				C27.4,12.2,27.4,12.2,27.4,12.2z"/>
		</g>
		<g>
			<path class="st8" d="M33.9,9.6c0.4-0.1,0.8,0.2,1.1,0.4c0.3,0.2,0.7,0.1,0.9,0.5c0.1,0.3,0,0.6-0.1,0.8c-0.1,0.3-0.2,0.6-0.4,0.9
				c-0.1,0.2-0.3,0.5-0.6,0.6c-0.3,0.1-0.6,0.1-0.8,0.4c-0.2,0.3-0.1,0.6-0.1,1c-0.1,0.3-0.3,0.6-0.6,0.7c-0.3,0.1-0.7-0.1-1-0.2
				c-0.1,0-0.3,0-0.4,0.1c-0.1,0.1-0.2,0.2-0.4,0.3c-0.2,0.1-0.5,0-0.8-0.1c-0.5-0.3-0.8-0.9-1.3-1.2c0.2-0.5-0.3-1-0.1-1.4
				c0.2-0.4,0.8-0.3,1-0.6c0.1-0.2,0.1-0.3,0.1-0.5c0-0.2,0.1-0.4,0.2-0.6c0.2-0.4,0.5-0.6,0.9-0.7c0.2,0,0.4-0.1,0.5,0
				c0.2,0,0.4,0.1,0.6,0.2C33.3,10,33.5,9.7,33.9,9.6C34,9.6,33.8,9.6,33.9,9.6C34,9.6,33.8,9.6,33.9,9.6z"/>
			<path class="st9" d="M33.4,14.1C33.3,14.1,33.3,14.1,33.4,14.1c-0.3-0.3-0.5-0.5-0.7-0.7c-0.1-0.1-0.2-0.2-0.3-0.2
				c0,0.2,0.1,0.3,0.1,0.5c0,0.1,0.3,0.5,0.3,0.6c0,0-0.1,0-0.1-0.1c-0.2-0.3-0.4-0.7-0.4-1l0,0c0,0,0,0,0,0
				C32.1,13,32,13,31.9,12.9c-0.2-0.1-0.5-0.2-0.6-0.2c0,0,0.1,0,0,0c0,0,0,0,0,0l0,0c0,0,0,0,0,0c0,0,0,0,0,0c0,0,0,0-0.1,0
				c-0.1,0.1-0.2,0.1-0.3,0.2c-0.1,0.1-0.2,0.1-0.3,0.2c-0.1,0.1-0.2,0.1-0.3,0.2c-0.1,0.1-0.2,0.1-0.3,0.2c0.1,0,0.2,0.1,0.3,0.1
				c0.1,0,0.2,0.1,0.2,0.2c0.3,0,0.6,0,0.9,0.2c0.1,0,0.1,0.1,0.1,0.1c0,0-0.1,0-0.1,0c-0.2-0.1-0.5-0.1-0.7-0.1
				c0,0,0.1,0.1,0.1,0.1c0.1,0.1,0.2,0.3,0.3,0.4c0,0,0,0.1,0.1,0.1c0,0,0,0.1,0,0.1c0,0,0,0-0.1,0c-0.1-0.1-0.2-0.3-0.4-0.4
				c-0.1-0.1-0.3-0.2-0.4-0.3c-0.1-0.1-0.3-0.1-0.4-0.2c-0.6,0.4-2.2,1.5-3,2.5c-0.4,0.4-0.5,0.1-0.3-0.2c1-1.3,2.5-2.3,3.7-2.9
				c0-0.3-0.1-0.5-0.1-0.8c0-0.1,0-0.1,0-0.1c0,0,0.1,0,0.1,0.1c0.1,0.2,0.2,0.5,0.2,0.7c0.1-0.1,0.2-0.1,0.3-0.2
				c0.1-0.1,0.2-0.1,0.3-0.2c0.1-0.1,0.2-0.1,0.3-0.2c0.1-0.1,0.2-0.1,0.3-0.2l0,0c0-0.1,0-0.3,0-0.5c0-0.1,0-0.1,0-0.2c0,0,0,0,0,0
				c-0.1-0.1-0.3-0.1-0.4-0.2c-0.1-0.1-0.2-0.2-0.3-0.3c0-0.1-0.1-0.1,0-0.1c0,0,0,0,0.1,0.1c0.1,0.1,0.2,0.2,0.3,0.2
				c0.1,0,0.1,0.1,0.2,0.1c0.1,0,0.1,0.1,0.2,0.1c0-0.1,0-0.2,0-0.3c0-0.2-0.1-0.4-0.2-0.6c0,0,0-0.1,0-0.1c0,0,0,0,0.1,0
				c0,0,0.1,0.1,0.1,0.1c0.1,0.1,0.1,0.2,0.2,0.4c0.1-0.1,0.1-0.3,0.2-0.5c0-0.1,0-0.1,0-0.1c0,0,0,0,0,0.1c0,0,0,0.1,0,0.1
				c0,0.1-0.1,0.3-0.1,0.4C32,11,32,11,31.9,11l0,0c0,0.2,0.1,0.4,0.1,0.6c0,0.1,0,0.1,0,0.2c0,0.1,0,0.1,0,0.2c0,0,0.1,0,0.1-0.1
				c0,0,0.1,0,0.1,0c0.1,0,0.1-0.1,0.2-0.1c0.1-0.1,0.2-0.1,0.3-0.2c0.2-0.1,0.4-0.2,0.6-0.3c0.1-0.2,0.2-0.3,0.3-0.5
				c-0.1-0.2-0.2-0.4-0.2-0.6c0-0.1,0-0.1,0-0.1c0,0,0,0,0,0.1c0.1,0.2,0.1,0.3,0.2,0.5c0-0.1,0.1-0.2,0.1-0.3
				c0-0.1,0.1-0.2,0.1-0.3c0-0.1,0.1-0.2,0.1-0.2s0,0.1,0,0.2c0,0.1,0,0.2,0,0.2c0.2-0.1,0.3-0.2,0.4-0.3c0,0,0.1-0.1,0.1,0
				c0,0,0,0,0,0.1c-0.1,0.2-0.3,0.3-0.5,0.4c0,0.1,0,0.1-0.1,0.2c0,0.1,0,0.1-0.1,0.2c0,0.1-0.1,0.2-0.2,0.3
				c0.1-0.1,0.2-0.1,0.3-0.1c0,0,0.1,0,0.1-0.1c0,0,0.1,0,0.1,0c0.1,0,0.2-0.1,0.2-0.1c0,0-0.1,0.1-0.4,0.2c0.1,0.1,0.2,0.1,0.3,0.2
				c0.1,0,0.2-0.1,0.3-0.1c0,0,0.1,0,0.1,0c0,0,0.1,0,0.1,0c0.1,0,0.1,0,0.1,0c0,0,0,0-0.1,0c0,0-0.1,0-0.1,0c0,0-0.1,0-0.1,0
				c-0.1,0-0.2,0.1-0.2,0.1c0.1,0.1,0.2,0.2,0.3,0.3c0.1,0.1,0.1,0.1,0.1,0.1c0,0-0.1,0-0.1-0.1c-0.1-0.1-0.2-0.2-0.4-0.3
				c-0.1-0.1-0.3-0.2-0.4-0.2c-0.1,0.1-0.3,0.2-0.5,0.2c0,0,0,0,0,0c-0.1,0.1-0.3,0.1-0.4,0.2c0.1,0,0.1,0,0.2,0.1
				c0.2,0.1,0.3,0.2,0.4,0.3c0.1,0.1,0.2,0.2,0.3,0.3c0,0,0,0,0,0.1c0,0,0,0,0,0.1c0,0,0,0.1,0,0.1c0,0,0,0-0.1,0
				c-0.1-0.1-0.3-0.3-0.4-0.4c0,0.2,0.1,0.4,0.2,0.6c0,0.1,0,0.1,0,0.1c0,0,0,0-0.1-0.1c-0.2-0.2-0.3-0.5-0.3-0.7v0c0,0,0,0,0,0
				c-0.1-0.1-0.2-0.1-0.3-0.2c-0.1-0.1-0.3-0.1-0.4-0.1c0,0,0,0,0,0c0,0,0,0,0,0l0,0c0,0,0,0,0,0c0,0,0,0,0,0c0,0,0,0,0,0
				c-0.1,0.1-0.2,0.1-0.3,0.2c-0.1,0.1-0.2,0.1-0.3,0.2c-0.1,0.1-0.2,0.1-0.4,0.2c-0.1,0-0.1,0.1-0.2,0.1c-0.1,0-0.1,0.1-0.2,0.1
				c0.1,0,0.2,0,0.3,0.1c0.1,0,0.2,0.1,0.3,0.1c0.3,0.1,0.5,0.3,0.7,0.5l0,0c0.1,0,0.1,0,0.2-0.1c0.1,0,0.1,0,0.2,0
				c0.1,0,0.3,0,0.4,0c0.1,0,0.1,0,0.1,0.1c0,0,0,0-0.1,0c-0.2,0-0.5,0-0.7,0.1c0.2,0.2,0.3,0.3,0.4,0.5
				C33.2,13.9,33.3,14,33.4,14.1C33.4,14.1,33.4,14.1,33.4,14.1z M30.1,13.5L30.1,13.5C30.1,13.5,30.1,13.5,30.1,13.5z"/>
		</g>
		<path class="st10" d="M27.8,14.2c-2.8-1.8-4.8-1-6.2,1.4c-1,1.7-0.8,3.9-0.1,5.2c0.3,0.5,0.4,1.2,0.3,1.8c0,0.4-0.2,0.7-0.5,1
			c-0.6,0.9-0.6,1.4-0.8,1.9c-0.4,0.8-0.7,1.7-2.4,3c2.5-1.2,2.8-3.5,3.4-4.3c0.6-0.8,1.4-1.4,2.4-1.6c0.8-0.2,3.7,0.3,5.6-2.8
			C30.2,18.9,30.6,16,27.8,14.2z"/>
		<path class="st11" d="M29.3,15.7c-0.3-0.5-0.8-1-1.5-1.5c-0.8-0.5-1.5-0.8-2.2-0.9C26.3,14.7,27.9,15.4,29.3,15.7z"/>
	</g>
	<g>
		<g>
			<defs>
				<path id="SVGID_1_" d="M23.8,11.6c-0.2-1.7-4.3-2.8-4.9,0.2c-0.3,1.2,0.8,11.4,1.5,14.4c0.1,0.2,0.1,0.5,0.3,0.6
					c0.1,0.2,0.4,0.3,0.6,0.2c0.1-0.1,0.4-0.8,0.4-1C22.2,24.7,24.1,14.3,23.8,11.6z"/>
			</defs>
			<use xlink:href="#SVGID_1_"  style="overflow:visible;fill:#FF6010;"/>
			<clipPath id="SVGID_2_">
				<use xlink:href="#SVGID_1_"  style="overflow:visible;"/>
			</clipPath>
			<g class="st12">
				<path class="st13" d="M19.7,14c0.1,0.1,0.2,0.1,0.4,0.2c0.1,0,0.2,0.1,0.4,0.1c0.2,0,0.4-0.1,0.6-0.1c0,0,0,0,0,0
					c0,0-0.1,0-0.1,0c-0.1,0-0.1,0-0.2,0c-0.1,0-0.2,0-0.2,0c-0.1,0-0.3-0.1-0.4-0.1c-0.1,0-0.3,0-0.4-0.1
					C19.6,13.9,19.6,13.9,19.7,14C19.6,14,19.6,14,19.7,14C19.6,14,19.6,14,19.7,14C19.6,14,19.7,14,19.7,14
					C19.7,14.1,19.7,14,19.7,14z"/>
				<path class="st13" d="M22.6,13.4c0.2,0.1,0.4,0.1,0.6,0.1c0.2,0,0.3-0.1,0.4-0.2c0,0-0.1-0.1-0.1,0c0,0-0.1,0-0.1,0
					c-0.1,0-0.1,0.1-0.2,0.1c-0.1,0-0.2,0-0.4,0C22.7,13.3,22.6,13.3,22.6,13.4C22.5,13.3,22.5,13.3,22.6,13.4
					C22.6,13.4,22.5,13.3,22.6,13.4z"/>
				<path class="st13" d="M21.3,15.7c0.2,0.1,0.4,0,0.6,0c0.2,0,0.4-0.2,0.5-0.3c0,0-0.1-0.1-0.1,0c-0.1,0-0.1,0-0.2,0
					c-0.1,0-0.1,0.1-0.2,0.1c-0.1,0-0.3,0-0.4,0c-0.1,0-0.2,0.1-0.3,0C21.2,15.6,21.2,15.7,21.3,15.7C21.4,15.7,21.2,15.7,21.3,15.7
					z"/>
				<path class="st13" d="M19.4,17.3c0.1,0.1,0.3,0.2,0.5,0.2c0.1,0,0.3-0.1,0.4-0.1c0,0,0-0.1-0.1-0.1c0,0-0.1,0-0.1,0
					c-0.1,0-0.1,0-0.2,0c-0.1,0-0.2-0.1-0.3-0.1c-0.1,0-0.2,0-0.3,0C19.4,17.2,19.3,17.2,19.4,17.3C19.4,17.3,19.3,17.2,19.4,17.3z"
					/>
				<path class="st13" d="M22.2,18.1c0.2,0,0.3,0,0.5-0.1c0,0,0,0,0.1,0c0.1-0.1,0.1-0.1,0.2-0.2c0,0-0.1-0.1-0.1,0c0,0-0.1,0-0.1,0
					c0,0-0.1,0.1-0.1,0.1c-0.1,0-0.1,0-0.2,0C22.2,17.9,22.2,18,22.2,18.1C22.1,18,22.1,18,22.2,18.1C22.2,18.1,22.1,18,22.2,18.1z"
					/>
				<path class="st13" d="M23.2,16.3c0.1,0,0.2,0,0.3,0c0,0,0.1,0,0.1,0c0,0,0,0,0,0c0.1-0.1,0.1-0.1,0.1-0.2c0,0-0.1,0-0.1,0
					c0,0-0.1,0-0.1,0c0,0,0,0-0.1,0.1c0,0-0.1,0-0.1,0C23.3,16.2,23.2,16.3,23.2,16.3C23.2,16.2,23.2,16.3,23.2,16.3
					C23.3,16.4,23.2,16.3,23.2,16.3z"/>
				<path class="st13" d="M21,19.9c0.1,0.1,0.3,0.1,0.4,0c0.1,0,0.2-0.1,0.3-0.2c0,0,0-0.1-0.1-0.1c0,0-0.1,0-0.1,0
					c0,0-0.1,0-0.1,0.1c-0.1,0-0.1,0-0.2,0C21.1,19.8,21,19.8,21,19.9C20.9,19.8,20.9,19.9,21,19.9C21,19.9,20.9,19.9,21,19.9z"/>
				<path class="st13" d="M19.5,19.1C19.5,19.2,19.6,19.2,19.5,19.1c0.2,0.1,0.3,0.1,0.4,0.1c0.1,0,0.2-0.1,0.3-0.1
					c0,0,0-0.1-0.1-0.1c0,0-0.1,0-0.1,0c0,0-0.1,0-0.1,0c-0.1,0-0.1,0-0.1,0C19.7,19,19.6,19.1,19.5,19.1
					C19.5,19.1,19.5,19.1,19.5,19.1C19.5,19.2,19.5,19.1,19.5,19.1z"/>
				<path class="st13" d="M22,20.9c0.1,0,0.3,0,0.4,0c0.1,0,0.2-0.1,0.2-0.2c0,0-0.1-0.1-0.1-0.1c0,0-0.1,0-0.1,0c0,0-0.1,0-0.1,0.1
					c-0.1,0-0.1,0-0.2,0C22.1,20.8,22,20.9,22,20.9C21.9,20.9,21.9,20.9,22,20.9C22,21,21.9,20.9,22,20.9z"/>
				<path class="st13" d="M20.2,21.6c0.1,0.1,0.3,0.1,0.4,0c0,0,0,0,0.1,0c0.1,0,0.1-0.1,0.2-0.1c0,0,0-0.1-0.1-0.1c0,0-0.1,0-0.1,0
					c0,0-0.1,0-0.1,0.1c-0.1,0-0.1,0-0.2,0C20.4,21.5,20.3,21.5,20.2,21.6C20.2,21.5,20.2,21.6,20.2,21.6
					C20.3,21.6,20.2,21.6,20.2,21.6z"/>
				<path class="st13" d="M21.4,22.8c0.1,0,0.2,0,0.2,0c0.1,0,0.1,0,0.2,0c0,0,0.1,0,0.1-0.1c0,0,0.1-0.1,0.1-0.1c0,0,0,0,0-0.1
					c0,0,0,0,0,0c0,0-0.1,0-0.1,0c0,0-0.1,0-0.1,0c0,0,0,0.1-0.1,0.1c-0.1,0-0.1,0-0.2,0C21.5,22.7,21.4,22.7,21.4,22.8
					C21.4,22.7,21.3,22.7,21.4,22.8C21.3,22.7,21.3,22.8,21.4,22.8C21.4,22.8,21.3,22.8,21.4,22.8z"/>
			</g>
		</g>
		<g>
			<path class="st14" d="M25.3,6.5c0.2,0,0.3-0.1,0.5-0.2c-0.2-0.1-0.5-0.1-0.7,0l0.3-0.2c-0.2,0-0.3,0-0.5,0.1
				C25,6.1,25,6,25.1,5.9c-0.2,0-0.3,0.1-0.4,0.2c-0.1,0-0.1,0.1-0.2,0.1c-0.1,0-0.1,0.1-0.2,0.1c0.1-0.1,0.2-0.2,0.3-0.2
				c0.1,0,0.1-0.1,0.1-0.2c0-0.1,0.1-0.1,0-0.2c-0.1,0.1-0.2,0.2-0.3,0.3c0.1-0.1,0.1-0.2,0-0.4c-0.1,0.1-0.1,0.1-0.2,0.2
				c0,0-0.1,0.1-0.1,0.1c0,0,0,0.1-0.1,0.1c0,0.1-0.1,0.1-0.1,0.2c0,0,0,0.1,0,0.1c0,0,0,0,0,0.1c0,0,0,0,0,0.1c0,0,0,0-0.1,0
				c0,0,0,0-0.1,0c0,0-0.1,0-0.1,0.1c-0.1,0-0.2,0.1-0.2,0.1c-0.1,0-0.1,0.1-0.2,0.1c-0.1,0.1-0.2,0.1-0.2,0.1c0,0,0,0,0,0
				c0-0.1,0.1-0.2,0.1-0.2c0,0,0-0.1,0-0.1c0,0,0-0.1,0-0.1c0-0.1,0.1-0.1,0.1-0.2c0.1-0.1,0.1-0.3,0.2-0.4c0-0.1,0.1-0.2,0.1-0.3
				c0,0,0.1-0.1,0.1-0.1c0.1-0.1,0.2-0.1,0.3-0.2c0.1,0,0.1-0.1,0.2-0.1c0,0,0.1,0,0.1-0.1c0,0,0.1,0,0.1,0c0.1,0,0.2-0.1,0.3-0.1
				c0.2,0.2,0.4,0.3,0.6,0.4c0-0.1-0.1-0.2-0.1-0.2c0.1,0.1,0.2,0.1,0.3,0.1c0-0.1,0-0.1-0.1-0.1c0,0-0.1,0-0.2-0.1
				c-0.1,0-0.2,0-0.3-0.1c0.3-0.1,0.6,0.1,0.8,0c-0.1-0.1-0.2-0.1-0.2-0.1c0.1,0,0.3,0,0.4-0.1c-0.1,0-0.2,0-0.3-0.1
				c0.1,0,0.2,0,0.3-0.1c0.1,0,0.2-0.1,0.3-0.2c-0.1,0-0.1-0.1-0.2-0.1c-0.1,0-0.2,0-0.2,0c-0.1,0-0.3,0.1-0.4,0.2
				c0.1-0.1,0.2-0.2,0.3-0.3c-0.1,0-0.2,0.1-0.4,0.1c-0.1,0-0.1,0.1-0.2,0.1c-0.1,0-0.1,0.1-0.1,0.1C24.9,4.6,25,4.5,25,4.4
				c-0.1,0-0.1,0-0.2,0.1l0.1-0.1c0,0,0.1-0.1,0.1-0.1c-0.1,0-0.1,0-0.2,0.1c-0.1,0-0.1,0.1-0.1,0.1c0-0.1-0.1-0.1-0.1-0.1
				c0,0.1,0,0.2,0,0.3c0,0.1,0,0.2,0,0.3c-0.1,0-0.2,0.1-0.3,0.1c-0.1,0-0.1,0.1-0.2,0.1c-0.1,0-0.1,0.1-0.2,0.1c0,0,0,0,0,0
				C23.9,5.2,23.9,5.1,24,5c0.1-0.1,0.1-0.2,0.2-0.3c0.1-0.2,0.2-0.4,0.3-0.5c0,0,0.1,0,0.1,0c0.1,0,0.1,0,0.2,0c0.1,0,0.1,0,0.2,0
				c0.1,0,0.3-0.1,0.4-0.1C25.3,4,25.2,4,25,4c0.1,0,0.2,0,0.3-0.1c0.1,0,0.2-0.1,0.3-0.2c-0.2,0-0.3,0-0.5,0.1c0,0,0.1-0.1,0.1-0.1
				l-0.2,0.1c-0.1,0-0.1,0-0.2,0.1c0.1-0.1,0.2-0.2,0.4-0.3c0.1-0.1,0.2-0.2,0.3-0.3l-0.2,0c0.1-0.1,0.2-0.3,0.3-0.5
				c-0.2,0-0.3,0.1-0.5,0.2l0.1-0.1c-0.2,0.1-0.4,0.4-0.5,0.6l0-0.3l-0.1,0.1c0-0.1,0-0.3,0-0.4c-0.1,0.1-0.2,0.3-0.3,0.4
				c0,0,0-0.1,0-0.1c-0.1,0.2-0.1,0.3-0.1,0.5c0,0.1,0,0.2,0,0.2c0,0.1,0,0.2,0.1,0.2c0,0,0,0.1,0,0.1c-0.1,0.1-0.2,0.2-0.3,0.4
				C24,4.7,23.9,4.8,23.8,5c0,0.1-0.1,0.2-0.1,0.3c0,0.1-0.1,0.2-0.1,0.2c0,0,0,0,0,0c0-0.1,0-0.1,0-0.2c0-0.1,0-0.2,0-0.2
				c0-0.1,0-0.1,0-0.2c0-0.1,0-0.1,0-0.2c0,0,0-0.1,0-0.1c0.1-0.1,0.2-0.2,0.3-0.4c0.1-0.1,0.2-0.3,0.3-0.4c-0.1,0-0.2,0.1-0.3,0.2
				c0.1-0.1,0.1-0.2,0.2-0.4c-0.1,0-0.1,0.1-0.2,0.1c0,0.1-0.1,0.1-0.1,0.2l-0.1,0.2l-0.1,0.2c0-0.1,0-0.2,0-0.2
				c0-0.1,0-0.2,0.1-0.3c0.1-0.2,0.1-0.4,0.1-0.5c0,0,0,0-0.1,0.1c0,0,0,0.1-0.1,0.1c0,0.1-0.1,0.1-0.1,0.2c0-0.2,0-0.4,0-0.5l0,0.1
				c0,0,0,0.1,0,0.1l-0.1,0.2c0-0.1,0-0.3,0-0.4c0-0.1-0.1-0.3-0.1-0.4C23,2.8,23,3,23,3.2c0,0.2,0,0.4,0.1,0.6
				C23,3.6,23,3.5,22.8,3.4c0,0.1,0,0.2,0,0.2c0,0.1,0,0.1,0.1,0.2C23,4,23.1,4.1,23.2,4.2c-0.1-0.1-0.2-0.1-0.3-0.1
				c0,0.1,0,0.2,0.1,0.2l-0.3-0.2c0,0.2,0.1,0.3,0.2,0.4c-0.1,0-0.1,0.1-0.1,0.2c0.2,0,0.5,0,0.7,0c0,0.1,0,0.1,0,0.2
				c0,0.1,0,0.2,0,0.3c0,0.1,0,0.2,0,0.2c0,0.1,0,0.1,0,0.2c0,0.1,0,0.2,0,0.3c0,0.1,0,0.1,0,0.2c-0.1,0.1-0.1,0.2-0.2,0.3
				c0,0.1-0.1,0.1-0.1,0.2c0,0.1-0.1,0.1-0.1,0.2c-0.1,0.1-0.1,0.2-0.2,0.3c0,0,0,0,0-0.1c0-0.2-0.1-0.3-0.1-0.5
				c0-0.1-0.1-0.2-0.1-0.3c0,0,0,0,0.1-0.1c0.1-0.1,0.2-0.3,0.3-0.4c0.1-0.1,0.1-0.3,0.2-0.4c-0.1,0-0.2,0.1-0.3,0.2
				c0.1-0.1,0.1-0.2,0.2-0.3c0-0.1,0-0.1,0-0.2c0-0.1,0-0.1,0-0.2c-0.1,0.1-0.2,0.3-0.3,0.5c0-0.1,0-0.1,0-0.2
				c0,0.1-0.1,0.2-0.1,0.4c0-0.2,0-0.3,0-0.5c0-0.1,0-0.3-0.1-0.4c0,0.1-0.1,0.1-0.1,0.2c0-0.1,0-0.1,0-0.1c0,0,0-0.1,0-0.1
				c0-0.1-0.1-0.2-0.1-0.2c0,0.1-0.1,0.2-0.1,0.3c0,0.1,0,0.2-0.1,0.3l-0.1-0.1c0,0.1,0,0.3,0,0.4c0,0.1,0.1,0.3,0.1,0.4l-0.2-0.2
				l0,0.2c-0.1-0.1-0.2-0.1-0.4-0.1c0,0.2,0.1,0.3,0.1,0.5l-0.1,0c0.1,0.2,0.2,0.3,0.3,0.3c0.1,0.1,0.3,0.1,0.4,0.1c0,0,0.1,0,0.1,0
				c0,0.1,0.1,0.2,0.1,0.3c0,0.1,0,0.2,0.1,0.2c0,0.1,0,0.1,0,0.2c0,0.1,0,0.2,0,0.3c0,0,0,0.1,0,0.1c0,0,0,0.1-0.1,0.1
				c0,0.1-0.1,0.1-0.1,0.2c0,0.1-0.1,0.1-0.1,0.2c0,0.1-0.1,0.1-0.1,0.2l-0.1,0.2c0,0,0,0.1-0.1,0.2c0,0,0,0.1,0,0.1
				c0,0,0,0.1,0,0.1c0,0.1-0.1,0.2-0.1,0.3c0,0.1-0.1,0.2-0.1,0.3c0,0.1-0.1,0.2-0.1,0.3c0,0.1-0.1,0.2-0.1,0.3
				c0,0.2-0.1,0.3-0.1,0.4c0,0,0,0.1,0,0.1c0,0.1,0,0.1,0,0.2c0,0.1,0,0.2,0,0.3c0,0.1,0.1,0.2,0.2-0.2c0-0.1,0.1-0.5,0.2-0.9
				c0-0.1,0.1-0.2,0.1-0.3c0,0,0-0.1,0-0.1c0,0,0-0.1,0-0.1c0.1-0.2,0.1-0.3,0.1-0.4c0-0.1,0.1-0.2,0.1-0.3c0-0.1,0.1-0.2,0.1-0.3
				c0-0.1,0.1-0.2,0.1-0.3c0-0.1,0-0.1,0.1-0.2c0-0.1,0-0.1,0.1-0.2c0-0.1,0.1-0.1,0.1-0.2c0.1,0,0.1-0.1,0.2-0.2
				C23.1,7.1,23.2,7,23.3,7c0.1,0,0.1-0.1,0.2-0.1c0.1,0,0.1-0.1,0.2-0.1c0.1,0,0.1,0,0.2-0.1c0,0,0,0,0.1,0
				c0.1,0.2,0.2,0.4,0.3,0.6c0.1,0,0.1-0.1,0.1-0.2c0.1,0.1,0.3,0.1,0.4,0l-0.3-0.2c0.1,0,0.2,0,0.2,0c-0.1-0.1-0.2-0.2-0.3-0.3
				c0.3,0.1,0.6,0.2,0.8,0.1c-0.1-0.1-0.3-0.1-0.4-0.2c0.1,0,0.2,0,0.3,0c0,0,0.1,0,0.1,0C25.2,6.5,25.3,6.5,25.3,6.5z"/>
			<path class="st14" d="M21.7,4c0.1-0.2,0.1-0.4,0-0.7c-0.2,0.2-0.3,0.5-0.3,0.8l-0.1-0.5c-0.1,0.2-0.1,0.4-0.1,0.5
				c0-0.1-0.1-0.3-0.2-0.4C20.9,3.8,21,4,21,4.3c0,0.1,0,0.2,0,0.3c0,0.1,0,0.2-0.1,0.3c0-0.1,0-0.3-0.1-0.4c0-0.1,0-0.2-0.1-0.2
				c0-0.1-0.1-0.2-0.2-0.2c0,0.2,0,0.3,0.1,0.5c-0.1-0.1-0.2-0.2-0.3-0.3c0,0.1,0,0.2,0.1,0.3c0,0,0,0.1,0,0.1c0,0,0,0.1,0.1,0.1
				c0.1,0.2,0.2,0.4,0.3,0.5c0,0,0,0.1,0,0.1c0,0,0,0.1,0,0.1c0,0.1,0,0.1,0,0.1c0,0.1,0,0.2-0.1,0.3c0,0.1,0,0.2,0,0.3
				c0,0.1,0,0.2-0.1,0.3c0,0,0,0,0,0c0-0.1-0.1-0.2-0.1-0.3c0,0,0-0.1,0-0.1c0,0,0-0.1,0-0.1c0-0.1-0.1-0.1-0.1-0.2
				c-0.1-0.1-0.1-0.3-0.2-0.4c0-0.1-0.1-0.2-0.1-0.3c0,0,0-0.1,0-0.2c0-0.1,0-0.2,0-0.3c0-0.1,0-0.2,0-0.2c0,0,0-0.1,0-0.1
				c0,0,0-0.1,0-0.1c0-0.1,0-0.2,0-0.3c0.2-0.1,0.5-0.2,0.6-0.4c-0.1,0-0.2-0.1-0.3,0c0.1-0.1,0.2-0.1,0.2-0.3c-0.1,0-0.1,0-0.2,0
				c0,0-0.1,0.1-0.1,0.1c-0.1,0.1-0.1,0.2-0.2,0.2c0-0.3,0.3-0.5,0.2-0.8c-0.1,0-0.1,0.1-0.2,0.2c0-0.2,0-0.3,0-0.5
				c-0.1,0.1-0.1,0.2-0.2,0.3c0-0.1,0-0.2,0-0.4c0-0.1,0-0.3-0.1-0.4c0,0.1-0.1,0.1-0.1,0.2c0,0.1,0,0.2,0,0.3c0,0.2,0,0.4,0,0.5
				c0-0.2-0.1-0.3-0.2-0.5c0,0.1,0,0.3,0,0.4c0,0.1,0.1,0.3,0.1,0.4c-0.1-0.1-0.2-0.2-0.3-0.3c0,0.1,0,0.2,0,0.2l-0.1-0.2
				c0-0.1-0.1-0.1-0.1-0.2c0,0.1,0,0.1,0,0.2c0,0.1,0,0.1,0.1,0.2c-0.1,0-0.1,0-0.1,0.1c0.2,0.1,0.4,0.2,0.5,0.3c0,0.1,0,0.2,0,0.3
				c0,0.1,0,0.2,0,0.2c0,0.1,0,0.2,0,0.2c0,0,0,0,0,0.1c-0.1-0.1-0.1-0.2-0.2-0.3c-0.1-0.1-0.1-0.2-0.2-0.3
				c-0.1-0.2-0.2-0.4-0.3-0.6c0,0,0-0.1,0-0.1c0-0.1,0-0.1,0.1-0.2c0-0.1,0-0.1,0-0.2c0-0.1,0-0.3,0-0.5c-0.1,0.1-0.2,0.2-0.2,0.3
				c0-0.1,0-0.2,0-0.4c0-0.1-0.1-0.2-0.1-0.4C19,2.1,19,2.3,19,2.4c0-0.1-0.1-0.1-0.1-0.1l0,0.2c0,0.1,0,0.1,0,0.2
				c0-0.2-0.1-0.3-0.2-0.4c-0.1-0.1-0.2-0.3-0.3-0.4l0,0.2c-0.1-0.2-0.3-0.3-0.5-0.4c0,0.2,0.1,0.4,0.1,0.5L18.1,2
				c0.1,0.3,0.3,0.5,0.4,0.7l-0.3-0.1l0.1,0.1c-0.1,0-0.3-0.1-0.4-0.1C17.9,2.7,18,2.9,18.1,3c0,0-0.1,0-0.1,0
				c0.1,0.1,0.3,0.2,0.4,0.3c0.1,0,0.2,0,0.2,0.1c0.1,0,0.2,0,0.2,0c0,0,0.1,0,0.1,0c0.1,0.1,0.2,0.3,0.2,0.4
				c0.1,0.2,0.2,0.3,0.3,0.5c0,0.1,0.1,0.2,0.1,0.3c0,0.1,0.1,0.2,0.1,0.3c0,0,0,0,0,0c0,0-0.1-0.1-0.2-0.1c-0.1,0-0.1-0.1-0.2-0.1
				c0,0-0.1-0.1-0.2-0.1c-0.1,0-0.1-0.1-0.2-0.1c0,0-0.1,0-0.1-0.1C19,4.2,19,4,18.9,3.9c-0.1-0.2-0.2-0.3-0.3-0.4
				c0,0.1,0,0.3,0,0.4c-0.1-0.1-0.2-0.2-0.3-0.3c0,0.1,0,0.1,0,0.2c0,0.1,0.1,0.1,0.1,0.2L18.6,4l0.1,0.1c-0.1,0-0.1-0.1-0.2-0.1
				c-0.1-0.1-0.1-0.1-0.2-0.2c-0.1-0.1-0.3-0.2-0.4-0.3C18,3.7,18,3.8,18.1,3.9c-0.2-0.1-0.3-0.1-0.5-0.2l0.1,0.1c0,0,0.1,0,0.1,0.1
				L18,4.1c-0.1-0.1-0.2-0.1-0.4-0.1c-0.1,0-0.3,0-0.4,0c0.1,0.1,0.3,0.2,0.4,0.3c0.2,0.1,0.3,0.1,0.5,0.1c-0.2,0-0.3,0-0.4,0.1
				c0.1,0,0.1,0.1,0.2,0.1c0.1,0,0.1,0,0.2,0c0.1,0,0.3,0,0.4,0c-0.1,0.1-0.2,0.1-0.3,0.2c0.1,0,0.2,0,0.2,0l-0.3,0.1
				c0.1,0.1,0.3,0.1,0.4,0c0,0.1,0,0.2,0.1,0.2c0.1-0.2,0.2-0.4,0.4-0.6c0,0,0.1,0.1,0.2,0.1c0.1,0,0.2,0.1,0.2,0.2
				c0.1,0.1,0.1,0.1,0.2,0.2C19.7,5,19.7,5,19.8,5.1c0.1,0.1,0.1,0.1,0.2,0.2c0,0.1,0.1,0.1,0.1,0.2c0,0.1,0.1,0.3,0.1,0.4
				c0,0.1,0,0.1,0.1,0.2c0,0.1,0,0.1,0.1,0.2c0,0.1,0.1,0.2,0.1,0.4c0,0,0,0-0.1,0c-0.1-0.1-0.3-0.2-0.4-0.3c-0.1,0-0.2-0.1-0.2-0.1
				c0,0,0-0.1,0-0.1c0-0.2-0.1-0.3-0.1-0.4c-0.1-0.1-0.1-0.3-0.2-0.4c0,0.1,0,0.3,0,0.4c0-0.1-0.1-0.2-0.2-0.3c0,0-0.1-0.1-0.1-0.1
				c0,0-0.1-0.1-0.1-0.1c0,0.2,0.1,0.3,0.2,0.5c0,0-0.1-0.1-0.2-0.1c0.1,0.1,0.1,0.2,0.2,0.3c-0.1-0.1-0.2-0.2-0.3-0.3
				c-0.1-0.1-0.2-0.1-0.4-0.2c0,0,0.1,0.1,0.1,0.2c0,0-0.1,0-0.1-0.1c0,0-0.1,0-0.1,0c-0.1,0-0.2,0-0.3,0c0,0.1,0.1,0.1,0.2,0.2
				c0.1,0.1,0.1,0.1,0.2,0.2l-0.1,0c0.1,0.1,0.2,0.2,0.3,0.2C18.7,6,18.8,6,18.9,6.1l-0.3,0.1l0.1,0.1c-0.1,0-0.2,0.1-0.4,0.2
				c0.1,0.1,0.3,0.1,0.4,0.2l-0.1,0c0.1,0.1,0.3,0.1,0.4,0c0.1,0,0.3-0.1,0.4-0.2c0,0,0.1-0.1,0.1-0.1c0.1,0,0.2,0.1,0.2,0.1
				c0.1,0,0.1,0.1,0.2,0.1c0.1,0,0.1,0.1,0.2,0.2c0.1,0.1,0.1,0.1,0.2,0.2c0,0,0,0.1,0.1,0.1c0,0,0,0.1,0,0.1c0,0.1,0,0.2,0.1,0.3
				c0,0.1,0,0.2,0.1,0.3c0,0.1,0,0.2,0.1,0.3l0,0.3c0,0,0,0.1,0,0.2c0,0,0,0.1,0,0.1c0,0,0,0.1,0,0.1c0,0.1,0,0.2,0,0.3
				c0,0.1,0,0.2,0,0.3c0,0.1,0,0.2,0,0.3c0,0.1,0,0.2,0,0.3c0,0.2,0,0.3,0,0.4c0,0,0,0.1,0,0.1c0,0.1,0,0.1,0,0.2c0,0.1,0,0.3,0,0.3
				c0,0.1,0.2,0.2,0.2-0.3c0-0.1,0-0.6-0.1-1c0-0.1,0-0.2,0-0.3c0-0.1,0-0.1,0-0.2c0-0.1,0-0.1,0-0.2c0-0.2-0.1-0.4-0.1-0.5
				C21.1,8.2,21,8,21,7.7c0-0.1-0.1-0.2-0.1-0.4c0-0.1,0-0.1,0-0.2c0-0.1,0-0.1,0-0.2c0-0.1,0-0.2-0.1-0.2c0-0.1,0-0.2,0-0.3
				c0-0.1,0.1-0.2,0.1-0.4c0-0.1,0-0.2,0-0.3c0-0.1,0-0.2,0-0.2c0-0.1,0-0.1,0-0.2c0,0,0,0,0-0.1c0.2,0.1,0.5,0.2,0.7,0.3
				c0-0.1,0-0.2-0.1-0.2c0.1-0.1,0.2-0.2,0.3-0.4l-0.3,0.1c0.1-0.1,0.1-0.1,0.1-0.2c-0.1,0-0.3,0-0.4,0c0.2-0.2,0.5-0.4,0.5-0.7
				c-0.1,0.1-0.3,0.2-0.4,0.3c0-0.1,0.1-0.2,0.1-0.3c0,0,0-0.1,0.1-0.1C21.7,4,21.7,4,21.7,4z"/>
			<path class="st14" d="M24,4.2c0.1-0.2,0.2-0.4,0.2-0.6c-0.2,0.1-0.5,0.3-0.6,0.6l0.1-0.5c-0.1,0.1-0.3,0.3-0.3,0.5
				c0-0.1,0-0.3,0-0.4c-0.1,0.1-0.2,0.3-0.3,0.5c0,0.1-0.1,0.2-0.1,0.3c0,0.1-0.1,0.2-0.2,0.2C23,4.6,23,4.4,23,4.3
				c0-0.1,0-0.2,0-0.3c0-0.1,0-0.2-0.1-0.2c-0.1,0.1-0.1,0.3-0.1,0.5c0-0.2-0.1-0.3-0.2-0.4c0,0.1,0,0.2,0,0.3c0,0.1,0,0.1,0,0.2
				c0,0.1,0,0.1,0,0.2c0,0.2,0,0.4,0.1,0.6c0,0,0,0-0.1,0.1c0,0,0,0.1,0,0.1c0,0-0.1,0.1-0.1,0.1c-0.1,0.1-0.1,0.2-0.2,0.2
				c0,0.1-0.1,0.2-0.1,0.2c0,0.1-0.1,0.2-0.2,0.3c0,0,0,0,0,0c0-0.1,0-0.2,0-0.3c0,0,0-0.1,0-0.1c0,0,0-0.1,0-0.1c0-0.1,0-0.2,0-0.2
				c0-0.2,0-0.3,0-0.5c0-0.1,0-0.2,0-0.3c0,0,0-0.1,0.1-0.2c0-0.1,0.1-0.2,0.1-0.3c0-0.1,0.1-0.3,0.1-0.4c0-0.1,0.1-0.2,0.1-0.3
				c0.2,0.1,0.5,0,0.7-0.1C23.2,3,23.1,3,23,3c0.1,0,0.2-0.1,0.3-0.2c0,0-0.1-0.1-0.2-0.1c-0.1,0-0.1,0-0.2,0.1
				C22.9,2.9,22.8,3,22.7,3c0.1-0.3,0.5-0.4,0.6-0.7c-0.1,0-0.2,0-0.3,0.1c0.1-0.1,0.2-0.3,0.2-0.4L23,2.2c0.1-0.1,0.1-0.2,0.2-0.3
				c0.1-0.1,0.1-0.3,0.1-0.4c-0.1,0-0.1,0.1-0.2,0.1C23,1.6,23,1.7,22.9,1.8c-0.1,0.2-0.1,0.3-0.2,0.5c0-0.2,0.1-0.3,0-0.5
				c-0.2,0.2-0.2,0.6-0.2,0.9c0-0.1-0.1-0.3-0.1-0.4c0,0.1-0.1,0.1-0.1,0.2l0-0.4c-0.1,0.1-0.1,0.3-0.1,0.4c0,0-0.1,0-0.2,0
				c0.1,0.1,0.1,0.2,0.2,0.3c0,0,0.1,0.1,0.1,0.1c0,0,0.1,0.1,0.1,0.1c-0.1,0.1-0.1,0.2-0.2,0.3c0,0.1-0.1,0.1-0.1,0.2
				c0,0.1-0.1,0.1-0.1,0.2c0,0,0,0,0,0.1c0-0.3,0-0.5-0.1-0.7c0-0.3-0.1-0.5-0.1-0.7c0,0,0.1,0,0.1-0.1c0.2-0.2,0.4-0.5,0.5-0.8
				c-0.1,0-0.2,0.1-0.3,0.2c0.1-0.1,0.1-0.2,0.2-0.3c0-0.1,0-0.3,0-0.4c-0.1,0.1-0.2,0.3-0.3,0.4c0-0.1,0-0.1,0-0.2L22,1.6
				c0,0.1-0.1,0.1-0.1,0.2C22,1.6,22,1.5,22,1.3C22,1.1,22,1,22,0.8L21.9,1c0-0.2-0.1-0.5-0.2-0.6c-0.1,0.2-0.1,0.4-0.1,0.6
				l-0.1-0.2c0,0.3,0,0.6,0.1,0.9l-0.2-0.3l0,0.2c-0.1-0.1-0.2-0.2-0.3-0.3c0,0.2,0.1,0.4,0.1,0.5c0,0,0-0.1-0.1-0.1
				c0,0.2,0.1,0.4,0.2,0.5c0.1,0.1,0.2,0.2,0.4,0.3c0,0,0.1,0,0.1,0.1c0,0.1,0,0.2,0,0.2c0,0,0,0.1,0,0.1c0,0,0,0.1,0,0.1
				c0,0.2,0,0.4,0,0.6c0,0.1,0,0.2,0,0.3c0,0.1,0,0.2,0,0.3c0,0,0,0,0,0c0-0.1-0.1-0.1-0.1-0.2c0-0.1-0.1-0.1-0.1-0.2
				c0-0.1-0.1-0.1-0.1-0.2c0-0.1-0.1-0.1-0.1-0.2c0,0-0.1-0.1-0.1-0.1c0-0.2,0.1-0.4,0-0.6c0-0.2,0-0.4-0.1-0.5
				c-0.1,0.1-0.1,0.2-0.1,0.4c0-0.2,0-0.3-0.1-0.4C21,2.4,21,2.5,21,2.6c0,0.1,0,0.2,0,0.2L21.1,3l0.1,0.2C21.1,3.1,21.1,3.1,21,3
				c0-0.1-0.1-0.2-0.1-0.3c-0.1-0.2-0.1-0.4-0.3-0.5c0,0.1,0,0.3,0,0.4c-0.1-0.2-0.2-0.3-0.4-0.4l0.2,0.4c-0.2-0.3-0.4-0.4-0.6-0.5
				c0,0.2,0.1,0.4,0.3,0.5c0.1,0.1,0.3,0.2,0.4,0.4C20.5,3,20.3,3,20.2,3c0,0.1,0.1,0.1,0.2,0.2c0.1,0,0.1,0.1,0.2,0.1
				c0.1,0.1,0.3,0.1,0.4,0.1c-0.1,0-0.2,0.1-0.4,0.1c0.1,0.1,0.1,0.1,0.2,0.1l-0.3,0c0.1,0.1,0.2,0.2,0.4,0.2c0,0.1-0.1,0.2,0,0.2
				c0.2-0.2,0.4-0.3,0.5-0.4c0,0,0.1,0.1,0.1,0.2c0.1,0.1,0.1,0.2,0.2,0.3c0,0.1,0.1,0.2,0.1,0.2c0,0.1,0.1,0.2,0.1,0.2
				c0,0.1,0.1,0.2,0.1,0.3c0,0.1,0,0.1,0,0.2c0,0.1,0,0.3,0,0.4c0,0.1,0,0.1,0,0.2c0,0.1,0,0.1,0,0.2c0,0.1,0,0.3,0,0.4
				c0,0,0,0,0-0.1c-0.1-0.2-0.2-0.3-0.3-0.4c0-0.1-0.1-0.1-0.2-0.2c0,0,0-0.1,0-0.1c0.1-0.3,0.1-0.7,0-1c-0.1,0.1-0.1,0.2-0.1,0.4
				c0-0.1,0-0.3,0-0.4c0-0.1,0-0.1-0.1-0.2c0-0.1-0.1-0.1-0.1-0.2c0,0,0,0.1,0,0.1c0,0,0,0.1,0,0.1c0,0.1,0,0.2,0,0.3
				c0-0.1-0.1-0.1-0.1-0.1L21,5c0-0.2-0.1-0.3-0.2-0.4c-0.1-0.1-0.2-0.2-0.3-0.3c0,0.1,0,0.1,0,0.2c0,0-0.1-0.1-0.1-0.1
				c0,0-0.1-0.1-0.1-0.1c-0.1-0.1-0.2-0.1-0.2-0.1c0,0.1,0,0.2,0.1,0.3c0,0.1,0.1,0.2,0.1,0.3l-0.1-0.1c0.1,0.3,0.3,0.4,0.5,0.6
				l-0.3-0.1l0.1,0.1c-0.1,0-0.3,0-0.4,0c0.1,0.1,0.2,0.2,0.3,0.4l-0.1,0c0.1,0.1,0.3,0.2,0.4,0.2c0.2,0,0.3,0,0.5-0.1
				c0,0,0.1,0,0.1-0.1c0.1,0.1,0.1,0.2,0.2,0.2c0.1,0.1,0.1,0.1,0.1,0.2c0,0.1,0.1,0.1,0.1,0.2c0,0.1,0.1,0.2,0.1,0.3
				c0,0,0,0.1,0,0.1c0,0,0,0.1,0,0.1c0,0.1,0,0.2,0,0.3c0,0.1,0,0.2,0,0.3c0,0.2,0,0.4-0.1,0.6c0,0,0,0.1,0,0.2c0,0,0,0.1,0,0.1
				c0,0,0,0.1,0,0.1c0,0.2-0.1,0.4-0.1,0.6c0,0.1,0,0.2-0.1,0.3c0,0.1,0,0.2-0.1,0.3c0,0.2-0.1,0.3-0.1,0.4c0,0.1,0,0.5-0.1,0.7
				c0,0.2,0.1,0.2,0.2-0.3c0-0.1,0-0.2,0.1-0.4c0-0.1,0-0.2,0.1-0.3c0-0.1,0-0.2,0.1-0.3c0.1-0.5,0.1-0.9,0.2-1.2
				c0-0.2,0.1-0.5,0.1-0.7c0-0.1,0-0.3,0.1-0.4c0-0.1,0-0.1,0-0.2c0-0.1,0-0.1,0-0.2c0-0.1,0-0.2,0-0.3c0-0.1,0.1-0.2,0.1-0.3
				c0-0.1,0.1-0.2,0.2-0.3c0-0.1,0.1-0.2,0.1-0.2c0-0.1,0.1-0.2,0.1-0.2c0-0.1,0.1-0.1,0.1-0.2c0,0,0,0,0-0.1
				c0.2,0.2,0.4,0.3,0.6,0.5c0-0.1,0-0.2,0-0.3c0.1,0,0.3-0.1,0.4-0.2l-0.4,0c0.1,0,0.1-0.1,0.2-0.2C23.5,5,23.3,5,23.2,5
				c0.3-0.1,0.6-0.2,0.8-0.5c-0.2,0-0.3,0-0.5,0.1c0.1-0.1,0.2-0.1,0.2-0.2c0,0,0.1-0.1,0.1-0.1C23.9,4.3,24,4.3,24,4.2z"/>
			<path class="st14" d="M20.4,5.5c0-0.2-0.1-0.4-0.2-0.5c-0.1,0.2-0.1,0.5,0,0.8c-0.1-0.1-0.1-0.3-0.2-0.4c0,0.2,0,0.3,0,0.5
				c-0.1-0.1-0.2-0.2-0.2-0.2c0,0.2,0.1,0.3,0.1,0.5c0,0.1,0.1,0.2,0.1,0.2c0,0.1,0,0.2,0,0.2c-0.1-0.1-0.1-0.2-0.2-0.3
				c0-0.1-0.1-0.1-0.1-0.2C19.6,6,19.6,6,19.5,6c0,0.1,0.1,0.2,0.2,0.3c-0.1-0.1-0.2-0.1-0.3-0.1c0,0.1,0.1,0.1,0.1,0.2
				c0,0,0.1,0.1,0.1,0.1c0,0,0.1,0.1,0.1,0.1c0.1,0.1,0.1,0.1,0.2,0.1c0,0,0.1,0,0.1,0.1c0,0,0.1,0,0.1,0.1c0,0,0,0.1,0,0.1
				c0,0,0,0,0,0.1c0,0,0,0.1,0,0.1c0,0.1,0,0.2,0,0.2c0,0.1,0,0.1,0,0.2c0,0.1,0,0.2,0,0.2c0,0,0,0,0,0c0-0.1-0.1-0.1-0.1-0.2
				l-0.1-0.1c0,0,0,0-0.1-0.1c0,0-0.1-0.1-0.1-0.1c-0.1-0.1-0.2-0.2-0.3-0.2C19.4,7.1,19.3,7,19.2,7c0,0,0-0.1-0.1-0.1
				c0-0.1-0.1-0.2-0.1-0.2c0-0.1-0.1-0.1-0.1-0.2c0,0,0-0.1,0-0.1c0,0,0-0.1,0-0.1c0-0.1-0.1-0.2-0.1-0.3c0.2-0.2,0.3-0.4,0.4-0.6
				c-0.1,0-0.2,0.1-0.2,0.1c0.1-0.1,0.1-0.2,0.1-0.3c-0.1,0-0.1,0-0.1,0.1c0,0,0,0.1-0.1,0.2c0,0.1,0,0.2-0.1,0.3
				c-0.1-0.2,0.1-0.5-0.1-0.8c0,0.1-0.1,0.2-0.1,0.2c0-0.1-0.1-0.3-0.1-0.4c0,0.1,0,0.2,0,0.3c0-0.1,0-0.2-0.1-0.3
				c-0.1-0.1-0.1-0.2-0.2-0.3c0,0.1,0,0.1,0,0.2c0,0.1,0,0.2,0.1,0.2c0.1,0.1,0.1,0.3,0.2,0.4c-0.1-0.1-0.2-0.2-0.3-0.3
				c0,0.1,0.1,0.2,0.2,0.3c0,0,0.1,0.1,0.1,0.1c0,0,0.1,0.1,0.1,0.1c-0.1,0-0.2-0.1-0.3-0.1c0,0.1,0,0.1,0.1,0.2l-0.1-0.1
				c0,0-0.1,0-0.1-0.1c0,0.1,0,0.1,0.1,0.2c0,0.1,0.1,0.1,0.1,0.1c-0.1,0-0.1,0.1-0.1,0.1c0.1,0,0.2,0,0.3,0c0,0,0.1,0,0.1,0
				c0,0,0.1,0,0.1,0c0,0.1,0.1,0.2,0.1,0.3c0,0.1,0,0.1,0.1,0.2c0,0.1,0,0.1,0.1,0.2c0,0,0,0,0,0c-0.1-0.1-0.1-0.1-0.2-0.2
				c-0.1,0-0.1-0.1-0.2-0.1c-0.2-0.1-0.3-0.2-0.4-0.2c0,0,0-0.1,0-0.1c0-0.1,0-0.1,0-0.2c0-0.1,0-0.1,0-0.2c0-0.1-0.1-0.2-0.1-0.4
				c-0.1,0.1-0.1,0.2-0.1,0.3c0-0.1,0-0.2-0.1-0.3c-0.1-0.1-0.1-0.2-0.2-0.2c0,0.1,0,0.3,0.1,0.4c0,0-0.1-0.1-0.1,0l0.1,0.1
				c0,0,0,0.1,0.1,0.1c-0.1-0.1-0.2-0.2-0.3-0.3c-0.1-0.1-0.2-0.1-0.3-0.2l0.1,0.1c-0.1-0.1-0.3-0.1-0.5-0.1
				c0.1,0.1,0.2,0.2,0.3,0.3l-0.1,0C17,6,17.2,6.1,17.4,6.1c-0.1,0-0.2,0-0.3,0.1l0.1,0.1c-0.1,0-0.2,0.1-0.3,0.2
				c0.1,0,0.2,0.1,0.3,0.1c0,0-0.1,0-0.1,0c0.1,0,0.3,0,0.4,0c0.1,0,0.1,0,0.2-0.1c0.1,0,0.1-0.1,0.2-0.1c0,0,0.1,0,0.1-0.1
				c0,0,0.1,0.1,0.1,0.1c0,0,0.1,0,0.1,0c0,0,0.1,0,0.1,0.1c0.1,0.1,0.2,0.2,0.3,0.2c0.1,0,0.1,0.1,0.2,0.1C18.9,6.9,19,7,19,7
				c0,0,0,0,0,0c-0.1,0-0.1,0-0.2,0c-0.1,0-0.1,0-0.2,0c0,0-0.1,0-0.2,0c-0.1,0-0.1,0-0.2,0c0,0-0.1,0-0.1,0C18.2,7,18.1,6.9,18,6.8
				c-0.1-0.1-0.2-0.1-0.3-0.2c0,0.1,0,0.2,0.1,0.3c-0.1-0.1-0.2-0.1-0.3-0.1c0,0.1,0,0.1,0.1,0.1c0,0,0.1,0,0.1,0.1l0.1,0l0.1,0
				c-0.1,0-0.1,0-0.2,0c-0.1,0-0.1,0-0.2,0c-0.1,0-0.3,0-0.4,0c0,0,0,0,0.1,0c0,0,0,0,0.1,0c0,0,0.1,0,0.1,0.1
				c-0.1,0-0.3,0.1-0.4,0.1l0.1,0c0,0,0.1,0,0.1,0l0.2,0c-0.1,0-0.2,0-0.3,0.1c-0.1,0.1-0.2,0.1-0.3,0.2c0.1,0,0.3,0,0.4,0
				c0.1,0,0.3-0.1,0.4-0.2c-0.1,0.1-0.2,0.2-0.3,0.3c0.1,0,0.1,0,0.2-0.1c0.1,0,0.1-0.1,0.2-0.1c0.1-0.1,0.2-0.2,0.3-0.3
				c-0.1,0.1-0.1,0.2-0.2,0.3c0.1,0,0.1,0,0.2-0.1l-0.2,0.3c0.1,0,0.2-0.1,0.4-0.2c0,0.1,0,0.1,0.1,0.1c0-0.2,0.1-0.4,0.2-0.6
				c0,0,0.1,0,0.1,0c0.1,0,0.2,0,0.2,0c0.1,0,0.1,0,0.2,0c0.1,0,0.1,0,0.2,0c0.1,0,0.1,0,0.2,0.1c0,0,0.1,0,0.1,0.1
				c0.1,0.1,0.1,0.1,0.2,0.2c0,0,0.1,0.1,0.1,0.1c0,0,0.1,0.1,0.1,0.1C19.9,7.9,19.9,8,20,8c0,0,0,0-0.1,0c-0.1,0-0.3,0-0.4,0
				c-0.1,0-0.2,0-0.2,0c0,0,0,0,0-0.1c-0.1-0.1-0.1-0.2-0.2-0.3c-0.1-0.1-0.2-0.2-0.3-0.2c0,0.1,0,0.2,0.1,0.3
				c-0.1-0.1-0.1-0.1-0.2-0.2c0,0-0.1,0-0.1,0c0,0-0.1,0-0.1,0c0,0,0,0.1,0.1,0.1c0,0,0,0,0.1,0.1c0,0,0.1,0.1,0.2,0.1
				c0,0-0.1,0-0.1,0c0.1,0,0.2,0.1,0.2,0.1c-0.1,0-0.2-0.1-0.3-0.1c-0.1,0-0.2,0-0.3,0c0,0,0.1,0,0.1,0.1c0,0-0.1,0-0.1,0
				c0,0-0.1,0-0.1,0c-0.1,0-0.2,0.1-0.2,0.1c0.1,0,0.1,0,0.2,0.1c0.1,0,0.1,0,0.2,0l-0.1,0.1c0.1,0,0.2,0,0.3,0c0.1,0,0.2,0,0.3-0.1
				l-0.2,0.2l0.1,0c-0.1,0.1-0.2,0.2-0.3,0.3c0.1,0,0.3-0.1,0.4-0.1l-0.1,0.1c0.1,0,0.3-0.1,0.4-0.2c0.1-0.1,0.2-0.2,0.3-0.3
				c0,0,0.1-0.1,0.1-0.1c0.1,0,0.2,0,0.2,0c0.1,0,0.1,0,0.2,0c0.1,0,0.1,0,0.2,0c0.1,0,0.1,0,0.2,0.1c0,0,0,0,0.1,0
				c0,0,0,0.1,0.1,0.1c0,0.1,0.1,0.1,0.1,0.2c0,0.1,0.1,0.1,0.1,0.2c0,0.1,0.1,0.1,0.1,0.2L20.6,9c0,0,0,0.1,0.1,0.1c0,0,0,0,0,0.1
				c0,0,0,0.1,0,0.1c0,0.1,0.1,0.1,0.1,0.2c0,0.1,0.1,0.1,0.1,0.2c0,0.1,0.1,0.1,0.1,0.2c0,0.1,0.1,0.1,0.1,0.2
				c0,0.1,0.1,0.2,0.1,0.3c0,0,0,0.1,0,0.1c0,0,0,0.1,0.1,0.1c0,0.1,0.1,0.2,0.1,0.2c0,0.1,0.2,0.1,0.1-0.3c0-0.1-0.1-0.4-0.2-0.7
				c0-0.1-0.1-0.2-0.1-0.2c0,0,0-0.1,0-0.1c0,0,0-0.1,0-0.1C21,9.3,21,9.2,20.9,9.1c0-0.1-0.1-0.1-0.1-0.2c0-0.1-0.1-0.2-0.1-0.2
				c0-0.1-0.1-0.2-0.1-0.2l-0.1-0.1c0,0-0.1-0.1-0.1-0.1c0-0.1-0.1-0.1-0.1-0.2c0-0.1,0-0.1,0-0.2c0-0.1,0-0.2,0-0.3
				c0-0.1,0-0.1,0-0.2c0-0.1,0-0.1,0-0.2c0-0.1,0-0.1,0-0.2c0,0,0,0,0-0.1c0.2-0.1,0.5-0.1,0.7-0.1c0-0.1-0.1-0.1-0.2-0.1
				c0.1-0.1,0.2-0.2,0.2-0.4l-0.3,0.2c0-0.1,0.1-0.1,0.1-0.2c-0.1,0.1-0.2,0.1-0.3,0.2c0.2-0.2,0.3-0.5,0.3-0.8
				c-0.1,0.1-0.2,0.2-0.2,0.4c0-0.1,0-0.2,0-0.3c0,0,0-0.1,0-0.1C20.4,5.5,20.4,5.5,20.4,5.5z"/>
			<path class="st14" d="M24,9.5c0.1,0.1,0.1,0.2,0.2,0.2c0-0.1-0.1-0.2-0.1-0.3c-0.1-0.1-0.1-0.2-0.2-0.2c0.1,0,0.1,0.1,0.2,0.1
				C24,9.2,24,9.1,23.9,9c0,0-0.1-0.1-0.1-0.1c0.1,0,0.1,0,0.1,0c-0.1-0.1-0.2-0.2-0.2-0.2c-0.1,0-0.2-0.1-0.3-0.2
				c0.1,0,0.1,0,0.2,0c0,0,0.1,0,0.1,0c0,0,0.1,0,0.1-0.1c0,0-0.1,0-0.1,0c0,0,0,0-0.1,0c0,0,0,0,0,0c0,0,0,0,0,0c0,0,0.1,0,0.1-0.1
				c0,0,0-0.1,0-0.1c-0.2,0-0.4,0.1-0.5,0.2c0,0,0,0-0.1,0c0,0,0,0-0.1,0c0,0-0.1,0-0.1,0c-0.1,0-0.1,0-0.2-0.1c0,0,0,0,0,0
				c0,0,0,0,0,0c0,0-0.1,0-0.1,0c0,0-0.1,0-0.1,0c0,0-0.1,0-0.1,0l0,0c0,0,0,0,0-0.1c0,0,0,0,0.1-0.1C22.6,8.1,22.7,8,22.8,8
				c0,0,0.1-0.1,0.1-0.1c0,0,0.1-0.1,0.1-0.1c0,0,0.1,0,0.1,0c0,0,0,0,0,0c0,0,0,0,0,0c0,0,0.1,0,0.1,0c0.1,0,0.1,0,0.2,0.1
				c0.1,0,0.2,0,0.3,0.1c0.1,0,0.1,0.1,0.2,0.1c0,0.2,0.1,0.5,0.2,0.7c0-0.1,0-0.2,0-0.3c0,0.1,0.1,0.2,0.1,0.3c0,0,0-0.1,0-0.2
				c0-0.1,0-0.1,0-0.1c0-0.1-0.1-0.2-0.1-0.2c0.1,0.1,0.1,0.2,0.2,0.3c0.1,0.1,0.1,0.2,0.2,0.3c0-0.1,0-0.2-0.1-0.3
				c0.1,0.1,0.1,0.2,0.2,0.2c0-0.1-0.1-0.2-0.1-0.3c0,0,0.1,0.1,0.1,0.1c0,0,0.1,0.1,0.1,0.1c0,0,0.1,0.1,0.1,0.1c0,0,0.1,0,0.1,0
				c0-0.1,0-0.1-0.1-0.2c0-0.1-0.1-0.1-0.1-0.2c0,0-0.1-0.1-0.1-0.1c0,0-0.1-0.1-0.1-0.1c0,0,0.1,0,0.1,0c0,0,0.1,0,0.1,0
				C24.6,8.1,24.6,8,24.5,8c0,0-0.1,0-0.1,0c0,0-0.1,0-0.1,0c0.1,0,0.1-0.1,0.2-0.1c0,0-0.1-0.1-0.1-0.1c0.1,0,0.1,0,0.2,0
				c-0.1-0.1-0.2-0.1-0.3-0.1c0,0,0-0.1,0-0.2c-0.1,0.1-0.2,0.3-0.3,0.4c-0.1,0-0.1-0.1-0.2-0.1c-0.1,0-0.1,0-0.1-0.1
				c0,0-0.1,0-0.2,0c0,0,0,0,0,0c0.1-0.1,0.3-0.1,0.4-0.2c0.1,0,0.3-0.1,0.4-0.1c0,0,0,0.1,0,0.1c0.1,0.1,0.1,0.2,0.2,0.3
				c0.1,0.1,0.2,0.2,0.2,0.2c0-0.1,0-0.2-0.1-0.3c0.1,0.1,0.1,0.1,0.2,0.2c0.1,0,0.1,0.1,0.2,0.1c-0.1-0.1-0.1-0.2-0.2-0.3
				c0,0,0.1,0,0.1,0c-0.1-0.1-0.1-0.1-0.2-0.2c0.2,0.1,0.4,0.1,0.6,0.1l-0.1-0.1c0.1,0,0.3-0.1,0.4-0.1c-0.1-0.1-0.2-0.1-0.3-0.2
				L25.4,7c-0.2-0.1-0.4,0-0.5,0c0.1-0.1,0.1-0.1,0.2-0.2c0,0-0.1,0-0.1,0C25,6.7,25,6.6,25.1,6.5c-0.1,0-0.2,0-0.4,0.1l0.1-0.1
				c-0.1,0-0.1,0-0.2,0.1c-0.1,0-0.1,0.1-0.1,0.1c-0.1,0.1-0.1,0.2-0.2,0.4c0,0,0,0.1,0,0.1c-0.2,0-0.4,0.1-0.7,0.2
				c-0.1,0-0.1,0-0.2,0.1c-0.1,0-0.1,0-0.2,0.1c0,0,0,0,0,0c0,0,0-0.1,0.1-0.1c0-0.1,0.1-0.1,0.1-0.2c0,0,0.1-0.1,0.1-0.1
				c0,0,0.1-0.1,0.1-0.1c0,0,0-0.1,0.1-0.1c0.3,0,0.5,0,0.8-0.1c-0.1-0.1-0.2-0.1-0.3-0.1c0.1,0,0.2-0.1,0.3-0.1
				c0,0-0.1-0.1-0.2-0.1c-0.1,0-0.1,0-0.2,0.1c-0.1,0-0.2,0.1-0.3,0.1c0-0.1,0.1-0.1,0.1-0.2c0.1,0,0.1-0.1,0.2-0.1
				c0.1,0,0.1-0.1,0.2-0.1c0.1,0,0.1-0.1,0.1-0.2c0,0-0.1,0-0.1,0c0,0-0.1,0-0.1,0c0.1-0.1,0.2-0.2,0.3-0.4l-0.2,0.1L24,5.9
				c0,0,0.1-0.1,0.1-0.1c0,0,0.1-0.1,0.1-0.1c0.1-0.1,0.1-0.2,0.2-0.3c-0.1,0-0.2,0.1-0.2,0.1c-0.1,0-0.1,0.1-0.2,0.2
				c-0.1,0.1-0.2,0.3-0.2,0.5c0-0.1,0.1-0.3,0-0.4c-0.2,0.2-0.2,0.5-0.2,0.8c0-0.1-0.1-0.2-0.1-0.3c0,0.1-0.1,0.1-0.1,0.2l-0.1-0.3
				c-0.1,0.1-0.1,0.3-0.1,0.4c-0.1,0-0.1,0-0.2,0c0.1,0.1,0.2,0.1,0.3,0.2c0.1,0.1,0.2,0.1,0.2,0.2c0,0-0.1,0.1-0.1,0.1
				c0,0.1-0.1,0.2-0.1,0.2c0,0.1-0.1,0.1-0.1,0.2c0,0-0.1,0.1-0.1,0.2c0,0.1-0.1,0.1-0.1,0.2c0,0,0,0,0,0.1c0,0,0,0,0,0.1
				c0,0-0.1,0.1-0.1,0.1c0,0-0.1,0.1-0.1,0.1c0,0-0.1,0.1-0.1,0.1c0,0-0.1,0.1-0.1,0.1l0,0l-0.1,0.1c0,0,0,0,0-0.1
				c0-0.1,0-0.2,0-0.2c0-0.1,0-0.1,0-0.2c0-0.1,0-0.2,0-0.2c0,0,0.1,0,0.1,0c0.1,0,0.1-0.1,0.2-0.1c0.1,0,0.1-0.1,0.2-0.1
				c0.1,0,0.1-0.1,0.2-0.1c0.1,0,0.1-0.1,0.2-0.1c-0.1,0-0.1,0-0.2,0c-0.1,0-0.1,0-0.2,0c0,0,0.1,0,0.1-0.1c0,0,0.1-0.1,0.1-0.1
				C22.9,6.9,23,6.8,23,6.7c-0.1,0-0.2,0-0.2,0.1c0,0-0.1,0-0.1,0.1c0,0-0.1,0-0.1,0.1c0,0,0-0.1,0-0.2l-0.1,0.1c0,0,0,0-0.1,0.1
				L22.4,7c0,0,0-0.1,0.1-0.1c0,0,0-0.1,0.1-0.1c0-0.1,0.1-0.1,0.1-0.2c0.1-0.1,0.1-0.2,0.2-0.4l-0.2,0.1c0-0.1,0.1-0.2,0.1-0.3
				c0-0.1,0-0.2,0-0.3c-0.1,0-0.2,0.1-0.2,0.2c-0.1,0.1-0.1,0.1-0.2,0.2c0,0,0-0.1,0-0.1c-0.1,0.1-0.2,0.2-0.2,0.3
				c0,0.1-0.1,0.3-0.1,0.4c0-0.1-0.1-0.2-0.1-0.3c0,0,0,0.1-0.1,0.1c-0.1-0.1-0.2-0.2-0.3-0.3c0,0.1,0,0.2-0.1,0.3
				c0,0.1,0,0.2,0,0.3l-0.1-0.1c0,0.2,0.1,0.3,0.2,0.4c0.1,0.1,0.2,0.2,0.4,0.3c0,0,0.1,0.1,0.1,0.1c0,0.1,0,0.2,0,0.2c0,0,0,0,0,0
				c0,0.1,0,0.1,0,0.2c0,0,0,0.1,0,0.1c0,0,0,0.1,0,0.1c0,0.1,0,0.1,0,0.2c0,0,0,0,0,0.1c0,0,0,0,0,0.1c-0.1,0.2-0.2,0.4-0.3,0.6
				c0,0.1-0.1,0.1-0.1,0.3c0,0.1,0,0.1-0.1,0.2c0,0.1,0,0.1,0,0.2c-0.1,0.3-0.1,0.5-0.1,0.6c0,0.1,0,0.3,0,0.4
				c0,0.1,0.1,0.1,0.2-0.2c0-0.1,0-0.3,0.1-0.6c0-0.1,0.1-0.3,0.1-0.4c0-0.1,0-0.1,0-0.2c0,0,0-0.1,0-0.1c0.1-0.2,0.2-0.5,0.4-0.8
				c0,0,0.1-0.1,0.1-0.1c0,0,0.1,0,0.2,0c0.1,0,0.1,0,0.2,0c0,0,0,0,0,0c0.1,0,0.1,0,0.2,0c0,0,0.1,0,0.1,0c0,0,0.1,0,0.1,0
				c0,0,0.1,0,0.1,0c0,0,0,0,0,0c0,0,0,0,0,0.1c0,0,0,0.1,0,0.1c0,0,0,0.1,0.1,0.1c0,0.1,0.1,0.2,0.1,0.3c0,0,0,0,0-0.1
				c0,0.1,0.1,0.1,0.1,0.2c0,0,0,0,0.1,0.1c0,0,0,0,0,0c0,0,0,0,0,0l-0.2-0.3c0,0.1,0.1,0.1,0.1,0.1c-0.1-0.1-0.1-0.2-0.2-0.3
				c0.1,0.1,0.2,0.2,0.2,0.4c0,0.1,0.1,0.1,0.1,0.2C23.9,9.4,23.9,9.4,24,9.5C23.9,9.5,23.9,9.5,24,9.5c-0.1-0.1-0.2-0.2-0.3-0.4
				C23.8,9.2,23.9,9.3,24,9.5z"/>
			<path class="st14" d="M23.2,3.8c0.1-0.2,0.2-0.4,0.2-0.7c-0.2,0.1-0.4,0.4-0.5,0.7l0.1-0.5c-0.1,0.1-0.2,0.3-0.3,0.5
				c0-0.1,0-0.3,0-0.4c-0.1,0.1-0.2,0.3-0.2,0.5c0,0.1,0,0.2-0.1,0.3c0,0.1-0.1,0.2-0.1,0.2L22.2,4c0-0.1,0-0.2,0-0.3
				c0-0.1,0-0.2-0.1-0.2c0,0.2-0.1,0.3,0,0.5c0-0.2-0.1-0.3-0.2-0.4c0,0.1,0,0.2,0,0.3c0,0.1,0,0.2,0,0.3c0,0.2,0.1,0.4,0.1,0.6
				c0,0,0,0.1,0,0.1c0,0,0,0.1,0,0.1c0,0.1,0,0.1-0.1,0.1c0,0.1-0.1,0.2-0.1,0.2c0,0.1-0.1,0.2-0.1,0.3c0,0.1-0.1,0.2-0.1,0.3
				c0,0,0,0,0,0c0-0.1,0-0.2,0-0.3c0-0.2,0-0.3-0.1-0.5c0-0.2,0-0.3-0.1-0.5c0-0.1,0-0.2,0-0.3c0-0.1,0-0.1,0-0.2
				c0-0.1,0.1-0.2,0.1-0.3c0-0.2,0.1-0.3,0.1-0.5c0-0.1,0.1-0.2,0.1-0.3c0.3,0,0.5,0,0.7-0.2c-0.1-0.1-0.2-0.1-0.3-0.1
				c0.1,0,0.2-0.1,0.3-0.2c0,0-0.1-0.1-0.2,0c-0.1,0-0.1,0-0.1,0.1l-0.2,0.2c0.1-0.3,0.4-0.4,0.5-0.7c-0.1,0-0.2,0.1-0.3,0.1
				c0.1-0.1,0.2-0.3,0.2-0.5L22,1.8c0.1-0.1,0.1-0.2,0.2-0.4c0-0.1,0.1-0.3,0.1-0.4c-0.1,0-0.1,0.1-0.2,0.2C22,1.2,22,1.3,21.9,1.4
				c-0.1,0.2-0.1,0.4-0.2,0.5c0-0.2,0-0.3,0-0.5c-0.1,0.2-0.2,0.6-0.1,0.9c0-0.1-0.1-0.3-0.1-0.4c0,0.1-0.1,0.2-0.1,0.2l-0.1-0.4
				c-0.1,0.1-0.1,0.3-0.1,0.5c0,0-0.1,0-0.2,0c0.1,0.2,0.3,0.4,0.4,0.6c0,0.1-0.1,0.2-0.1,0.3c0,0.1-0.1,0.2-0.1,0.2
				c0,0.1,0,0.2-0.1,0.2c0,0,0,0,0,0.1c0-0.3-0.1-0.5-0.1-0.8c0-0.3-0.1-0.5-0.1-0.7c0,0,0,0,0.1-0.1c0.2-0.2,0.3-0.5,0.4-0.8
				c-0.1,0-0.2,0.1-0.3,0.2c0.1-0.1,0.1-0.2,0.1-0.4c0-0.1,0-0.3,0-0.4c-0.1,0.1-0.2,0.3-0.2,0.5c0-0.1,0-0.1-0.1-0.2
				C21,1.2,21,1.4,21,1.5c0-0.2,0-0.3,0-0.5c0-0.2,0-0.3-0.1-0.5l-0.1,0.2c0-0.2-0.1-0.5-0.2-0.6c-0.1,0.2-0.1,0.4-0.1,0.6l-0.1-0.2
				c0,0.3,0.1,0.6,0.1,0.9l-0.2-0.3l0,0.2C20.2,1.1,20.1,1,20,0.9c0,0.2,0.1,0.4,0.1,0.6L20,1.4c0,0.2,0.1,0.4,0.3,0.5
				c0.1,0.1,0.3,0.2,0.4,0.3c0,0,0.1,0,0.1,0.1c0,0.2,0.1,0.3,0.1,0.5C20.9,3,21,3.2,21,3.4c0,0.1,0,0.2,0.1,0.3c0,0.1,0,0.2,0,0.3
				c0,0,0,0,0,0C21.1,4,21,4,21,3.9c-0.1-0.1-0.1-0.1-0.1-0.2c0-0.1-0.1-0.1-0.1-0.2c0-0.1-0.1-0.1-0.1-0.2c0,0-0.1-0.1-0.1-0.1
				c0-0.2,0-0.4,0-0.6c0-0.2-0.1-0.4-0.1-0.6c-0.1,0.1-0.1,0.3-0.1,0.4c0-0.2-0.1-0.3-0.1-0.4c0,0.1-0.1,0.1,0,0.2
				c0,0.1,0,0.2,0.1,0.2l0.1,0.2L20.3,3c-0.1,0-0.1-0.1-0.2-0.2c0-0.1-0.1-0.2-0.1-0.3c-0.1-0.2-0.2-0.4-0.3-0.5
				c0,0.1,0,0.3,0.1,0.4c-0.1-0.2-0.2-0.3-0.4-0.4l0.2,0.5c-0.2-0.3-0.4-0.4-0.7-0.5c0.1,0.2,0.2,0.4,0.3,0.5
				c0.1,0.1,0.3,0.2,0.5,0.3c-0.1-0.1-0.3-0.1-0.4-0.1c0.2,0.3,0.5,0.3,0.8,0.4c-0.1,0-0.2,0.1-0.3,0.1c0.1,0.1,0.1,0.1,0.2,0.1
				l-0.3,0c0.1,0.1,0.3,0.2,0.4,0.2c0,0.1,0,0.2,0,0.2c0.2-0.2,0.3-0.3,0.5-0.5c0,0,0.1,0.1,0.1,0.2c0.1,0.1,0.1,0.2,0.2,0.3
				c0,0.1,0.1,0.2,0.1,0.2c0,0.1,0.1,0.2,0.1,0.2c0,0.1,0.1,0.2,0.1,0.3c0,0.1,0,0.1,0.1,0.2c0,0.2,0,0.3,0,0.4c0,0.1,0,0.1,0,0.2
				c0,0.1,0,0.1,0,0.2c0,0.1,0,0.3,0,0.4c0,0,0,0,0-0.1c-0.1-0.2-0.2-0.3-0.3-0.4c-0.1-0.1-0.1-0.1-0.2-0.2c0,0,0-0.1,0-0.1
				c0-0.3,0-0.7-0.1-1c-0.1,0.1-0.1,0.3-0.1,0.4c0-0.1,0-0.3-0.1-0.4c0-0.1,0-0.1-0.1-0.2c0-0.1-0.1-0.1-0.1-0.2
				c0,0.2,0,0.4,0.1,0.6c0-0.1-0.1-0.1-0.1-0.1l0.1,0.4c-0.1-0.3-0.3-0.6-0.5-0.8c0,0.1,0,0.1,0,0.2C19.7,4.1,19.5,4,19.3,4
				c0.1,0.2,0.1,0.4,0.2,0.5l-0.1-0.1c0.1,0.3,0.3,0.4,0.5,0.6l-0.3,0l0.1,0.1c-0.1,0-0.3,0-0.4,0.1c0.1,0.1,0.2,0.2,0.4,0.3l-0.1,0
				c0.1,0.1,0.3,0.2,0.4,0.1c0.2,0,0.3-0.1,0.4-0.1c0,0,0.1,0,0.1-0.1c0.1,0.1,0.2,0.1,0.2,0.2C20.9,5.8,20.9,5.9,21,6
				c0,0.1,0.1,0.1,0.2,0.2c0.1,0.1,0.1,0.2,0.1,0.3c0,0,0,0.1,0,0.1c0,0,0,0.1,0,0.1c0,0.4,0,0.8,0,1.1c0,0.2,0,0.7,0,1.1
				c0,0.2,0,0.5,0,0.7c0,0.2,0,0.4,0,0.5c0,0.1,0,0.6,0,0.7c0,0.2,0.2,0.2,0.2-0.3c0-0.1,0-0.2,0-0.4c0-0.1,0-0.2,0-0.3
				c0-0.1,0-0.2,0-0.3c0-0.5,0-1,0-1.2c0-0.2,0-0.5,0-0.8c0-0.1,0-0.3,0-0.4c0-0.1,0-0.1,0-0.2c0-0.1,0-0.1,0-0.2c0-0.1,0-0.2,0-0.3
				c0-0.1,0.1-0.2,0.1-0.3c0-0.1,0.1-0.2,0.2-0.4c0-0.1,0.1-0.2,0.1-0.3c0-0.1,0.1-0.2,0.1-0.2C22,5.1,22,5.1,22.1,5c0,0,0,0,0-0.1
				c0.2,0.1,0.4,0.3,0.6,0.5c0-0.1,0-0.2,0-0.3c0.1,0,0.3-0.1,0.4-0.3l-0.4,0c0.1,0,0.1-0.1,0.2-0.2c-0.1,0-0.3-0.1-0.4-0.1
				c0.3-0.1,0.6-0.2,0.7-0.6c-0.2,0-0.3,0.1-0.4,0.2C22.9,4.1,23.1,4,23.2,3.8z"/>
		</g>
		<path class="st15" d="M22.3,10.6c-0.3,0.1-0.6,0.2-0.9,0.2c-0.3,0-0.6-0.1-0.9-0.2c0,0,0,0,0,0c0,0,0,0,0,0.1
			c0,0.1,0.1,0.1,0.2,0.1c0.1,0.1,0.2,0.1,0.3,0.1c0.2,0,0.4,0.1,0.6,0.1c0.2,0,0.4,0,0.5-0.1c0.1,0,0.1-0.1,0.2-0.1
			c0.1,0,0.1-0.1,0.2-0.2c0,0,0,0,0,0C22.4,10.5,22.3,10.6,22.3,10.6C22.2,10.6,22.3,10.6,22.3,10.6z"/>
	</g>
	<g>
		<g>
			<defs>
				<path id="SVGID_3_" d="M16.7,11.7c-1-1.4-5.1-0.3-4.1,2.6c0.4,1.2,6.4,9.5,8.4,11.7c0.2,0.2,0.3,0.3,0.5,0.4
					c0.2,0.1,0.5,0,0.6-0.2c0.1-0.1-0.1-0.9-0.1-1.1C21.8,23.9,18.2,13.9,16.7,11.7z"/>
			</defs>
			<use xlink:href="#SVGID_3_"  style="overflow:visible;fill:#FF6010;"/>
			<clipPath id="SVGID_4_">
				<use xlink:href="#SVGID_3_"  style="overflow:visible;"/>
			</clipPath>
			<g class="st16">
				<path class="st13" d="M14.3,15.9c0.1,0,0.3,0,0.4,0c0.1,0,0.2-0.1,0.4-0.1c0.2-0.1,0.3-0.3,0.5-0.4c0,0,0,0,0,0c0,0-0.1,0-0.1,0
					c-0.1,0-0.1,0-0.2,0.1c-0.1,0-0.1,0.1-0.2,0.1c-0.1,0.1-0.3,0.1-0.4,0.1C14.4,15.7,14.3,15.8,14.3,15.9
					C14.1,15.8,14.1,15.8,14.3,15.9C14.2,15.8,14.2,15.8,14.3,15.9C14.2,15.8,14.2,15.8,14.3,15.9C14.2,15.8,14.2,15.8,14.3,15.9
					C14.3,15.9,14.2,15.8,14.3,15.9z"/>
				<path class="st13" d="M16.5,13.8c0.2,0,0.4-0.1,0.6-0.2c0.1-0.1,0.2-0.3,0.3-0.4c0,0-0.1,0-0.1,0c0,0-0.1,0.1-0.1,0.1
					c0,0-0.1,0.1-0.1,0.1c-0.1,0.1-0.2,0.1-0.3,0.2c-0.1,0-0.2,0.1-0.2,0.1C16.3,13.8,16.4,13.8,16.5,13.8
					C16.5,13.8,16.4,13.8,16.5,13.8z"/>
				<path class="st13" d="M16.5,16.5c0.2,0,0.4-0.2,0.6-0.3c0.2-0.2,0.2-0.3,0.3-0.5c0,0-0.1,0-0.1,0c0,0-0.1,0.1-0.1,0.1
					c0,0.1-0.1,0.1-0.1,0.2c-0.1,0.1-0.3,0.2-0.4,0.3c-0.1,0.1-0.2,0.2-0.3,0.2C16.4,16.5,16.4,16.5,16.5,16.5
					C16.6,16.5,16.4,16.5,16.5,16.5z"/>
				<path class="st13" d="M15.6,18.8c0.2,0,0.4,0,0.6-0.1c0.1-0.1,0.2-0.2,0.3-0.3c0,0-0.1,0-0.1,0c0,0-0.1,0-0.1,0.1
					c0,0-0.1,0.1-0.1,0.1c-0.1,0-0.2,0-0.3,0.1C15.7,18.7,15.6,18.7,15.6,18.8C15.5,18.7,15.6,18.8,15.6,18.8
					C15.7,18.8,15.6,18.8,15.6,18.8z"/>
				<path class="st13" d="M18.4,18.1c0.1-0.1,0.3-0.2,0.4-0.3c0,0,0,0,0-0.1c0-0.1,0-0.2,0-0.3c0,0-0.1,0-0.1,0c0,0-0.1,0-0.1,0.1
					c0,0,0,0.1,0,0.1c0,0.1-0.1,0.1-0.2,0.1c-0.1,0.1-0.1,0.2-0.2,0.2C18.3,18.1,18.3,18.1,18.4,18.1C18.4,18.1,18.3,18.1,18.4,18.1
					z"/>
				<path class="st13" d="M18.5,16.1c0.1,0,0.2-0.1,0.3-0.1c0,0,0,0,0.1-0.1c0,0,0,0,0,0c0-0.1,0-0.1,0-0.2c0,0-0.1,0-0.1,0
					c0,0,0,0-0.1,0.1c0,0,0,0.1,0,0.1c0,0-0.1,0.1-0.1,0.1C18.5,15.9,18.5,16,18.5,16.1C18.4,16,18.4,16.1,18.5,16.1
					C18.5,16.1,18.4,16.1,18.5,16.1z"/>
				<path class="st13" d="M18.3,20.3c0.1,0,0.3-0.1,0.4-0.2c0.1-0.1,0.1-0.2,0.2-0.3c0,0-0.1,0-0.1,0c0,0-0.1,0-0.1,0.1
					c0,0,0,0.1-0.1,0.1c-0.1,0-0.1,0.1-0.2,0.1C18.4,20.1,18.3,20.2,18.3,20.3C18.2,20.3,18.3,20.3,18.3,20.3
					C18.4,20.3,18.3,20.3,18.3,20.3z"/>
				<path class="st13" d="M16.7,20.4C16.7,20.4,16.7,20.4,16.7,20.4c0.2,0,0.3,0,0.4-0.1c0.1-0.1,0.1-0.2,0.2-0.2c0,0-0.1,0-0.1,0
					c0,0-0.1,0-0.1,0c0,0,0,0.1-0.1,0.1c-0.1,0-0.1,0-0.2,0C16.7,20.2,16.7,20.3,16.7,20.4C16.6,20.3,16.6,20.4,16.7,20.4
					C16.7,20.4,16.6,20.4,16.7,20.4z"/>
				<path class="st13" d="M19.7,20.7c0.1,0,0.3-0.1,0.3-0.2c0.1-0.1,0.1-0.2,0.1-0.3c0,0-0.1,0-0.1,0c0,0-0.1,0-0.1,0.1
					c0,0,0,0.1-0.1,0.1c0,0-0.1,0-0.2,0.1C19.7,20.5,19.7,20.6,19.7,20.7C19.6,20.7,19.6,20.7,19.7,20.7
					C19.7,20.7,19.6,20.7,19.7,20.7z"/>
				<path class="st13" d="M18.5,22.1c0.1,0,0.3-0.1,0.4-0.2c0,0,0,0,0,0c0.1-0.1,0.1-0.2,0.1-0.2c0,0-0.1,0-0.1,0c0,0-0.1,0-0.1,0.1
					c0,0,0,0.1-0.1,0.1c-0.1,0-0.1,0.1-0.2,0.1C18.6,22,18.5,22.1,18.5,22.1C18.4,22.1,18.4,22.2,18.5,22.1
					C18.5,22.1,18.4,22.2,18.5,22.1z"/>
				<path class="st13" d="M20.1,22.6c0.1,0,0.2,0,0.2-0.1c0.1,0,0.1-0.1,0.2-0.1c0,0,0-0.1,0.1-0.1c0,0,0-0.1,0-0.1c0,0,0,0,0-0.1
					c0,0,0,0,0,0c0,0-0.1,0-0.1,0c0,0-0.1,0-0.1,0.1c0,0,0,0.1,0,0.1c0,0-0.1,0.1-0.1,0.1C20.1,22.4,20.1,22.5,20.1,22.6
					C20,22.5,20,22.6,20.1,22.6C20,22.6,20,22.6,20.1,22.6C20.1,22.6,20,22.6,20.1,22.6z"/>
			</g>
		</g>
		<g>
			<path class="st14" d="M15.4,6.5c0.1-0.1,0.2-0.3,0.3-0.4c-0.3,0-0.5,0.2-0.6,0.4l0.2-0.4c-0.1,0.1-0.3,0.2-0.4,0.3
				c0-0.1,0-0.2,0-0.3c-0.1,0.1-0.2,0.2-0.3,0.4c0,0.1-0.1,0.2-0.1,0.2c0,0.1-0.1,0.1-0.2,0.2c0-0.1,0.1-0.2,0.1-0.3
				c0-0.1,0-0.1,0-0.2c0-0.1,0-0.1-0.1-0.2c-0.1,0.1-0.1,0.2-0.1,0.4c0-0.1-0.1-0.3-0.1-0.3c0,0.1,0,0.2-0.1,0.2c0,0,0,0.1,0,0.1
				c0,0,0,0.1,0,0.1c0,0.1,0,0.2,0,0.3c0,0,0,0.1,0,0.1c0,0,0,0,0,0.1c0,0,0,0,0,0.1c0,0,0,0-0.1,0.1c0,0,0,0,0,0.1
				c0,0-0.1,0.1-0.1,0.1c-0.1,0.1-0.1,0.1-0.1,0.2c0,0.1-0.1,0.1-0.1,0.2c0,0.1-0.1,0.2-0.1,0.2c0,0,0,0,0,0c0-0.1,0-0.2,0-0.3
				c0,0,0-0.1,0-0.1c0,0,0-0.1,0-0.1c0-0.1,0-0.1,0-0.2c0-0.1,0-0.3,0-0.4c0-0.1,0-0.2,0-0.3c0,0,0-0.1,0.1-0.1
				c0-0.1,0.1-0.2,0.1-0.3c0-0.1,0.1-0.1,0.1-0.2c0,0,0-0.1,0-0.1c0,0,0-0.1,0.1-0.1c0-0.1,0.1-0.2,0.2-0.2c0.2,0.1,0.5,0.1,0.7,0
				c-0.1-0.1-0.2-0.1-0.2-0.1c0.1,0,0.2,0,0.3-0.1c0,0-0.1-0.1-0.1-0.1c-0.1,0-0.1,0-0.2,0c-0.1,0-0.2,0.1-0.3,0.1
				C14.4,5.2,14.8,5.3,15,5c-0.1,0-0.2,0-0.3,0C14.8,5,14.9,4.9,15,4.8c-0.1,0-0.2,0.1-0.3,0.1c0.1-0.1,0.2-0.1,0.3-0.2
				c0.1-0.1,0.1-0.2,0.2-0.3c-0.1,0-0.1,0-0.2,0.1c-0.1,0-0.1,0.1-0.2,0.1c-0.1,0.1-0.2,0.2-0.3,0.4c0.1-0.1,0.1-0.3,0.1-0.4
				c-0.1,0.1-0.2,0.2-0.2,0.3c0,0.1-0.1,0.1-0.1,0.2c0,0.1,0,0.1-0.1,0.2c0-0.1,0-0.2,0-0.3C14.1,4.9,14,5,14,5l0-0.2
				c0-0.1,0-0.1,0-0.2c0,0-0.1,0.1-0.1,0.2c0,0.1-0.1,0.1-0.1,0.2c0,0-0.1-0.1-0.2,0c0,0.1,0.1,0.2,0.1,0.3c0,0.1,0.1,0.2,0.1,0.3
				c-0.1,0.1-0.1,0.2-0.2,0.2c0,0.1-0.1,0.1-0.1,0.2c0,0.1-0.1,0.1-0.1,0.2c0,0,0,0,0,0.1c0-0.1,0-0.2,0-0.3c0-0.1,0-0.2,0-0.3
				c0-0.2,0-0.4,0-0.6c0,0,0.1,0,0.1,0c0.1,0,0.1-0.1,0.2-0.1c0.1,0,0.1-0.1,0.2-0.1c0.1-0.1,0.2-0.2,0.3-0.3c-0.1,0-0.2,0-0.3,0.1
				c0.1-0.1,0.2-0.1,0.2-0.2c0.1-0.1,0.1-0.2,0.1-0.3c-0.1,0.1-0.3,0.2-0.4,0.3c0-0.1,0-0.1,0-0.2l-0.1,0.1c0,0-0.1,0.1-0.1,0.1
				c0.1-0.1,0.1-0.3,0.2-0.4C14,3.8,14,3.7,14,3.5l-0.1,0.1c0-0.2,0.1-0.4,0-0.6c-0.1,0.1-0.2,0.3-0.3,0.4l0-0.2
				c-0.1,0.2-0.2,0.5-0.2,0.8l-0.1-0.3l0,0.2c-0.1-0.1-0.1-0.2-0.2-0.4c0,0.2,0,0.3-0.1,0.5c0,0,0-0.1,0-0.1c0,0.2,0,0.4,0.1,0.5
				c0,0.1,0.1,0.1,0.1,0.2c0.1,0.1,0.1,0.1,0.2,0.2c0,0,0.1,0.1,0.1,0.1c0,0.1,0,0.3,0,0.5c0,0.2,0,0.3,0,0.5c0,0.1,0,0.2,0,0.3
				c0,0.1,0,0.2,0,0.3c0,0,0,0,0,0c0-0.1-0.1-0.1-0.1-0.2c0-0.1-0.1-0.1-0.1-0.2c0-0.1-0.1-0.1-0.1-0.2C13,6,13,5.9,12.9,5.9
				c0,0,0-0.1-0.1-0.1C12.9,5.6,13,5.4,13,5.2c0-0.2,0-0.3,0-0.5c-0.1,0.1-0.2,0.2-0.2,0.3c0-0.1,0-0.3,0-0.4
				c-0.1,0-0.1,0.1-0.1,0.2c0,0.1,0,0.2,0,0.2l0,0.2l0,0.2c-0.1-0.1-0.1-0.1-0.1-0.2c0-0.1,0-0.2-0.1-0.3c0-0.2-0.1-0.4-0.2-0.5
				c0,0,0,0.1,0,0.1c0,0,0,0.1,0,0.1c0,0.1,0,0.1,0,0.2c-0.1-0.2-0.2-0.3-0.3-0.5l0,0.1c0,0,0,0.1,0,0.1l0,0.2
				c-0.1-0.1-0.1-0.3-0.2-0.4c-0.1-0.1-0.2-0.2-0.3-0.3c0,0.2,0.1,0.4,0.2,0.6C11.9,5,12,5.1,12.2,5.2c-0.1-0.1-0.3-0.2-0.4-0.2
				c0,0.1,0.1,0.1,0.1,0.2C11.9,5.3,12,5.4,12,5.4c0.1,0.1,0.3,0.1,0.4,0.2c-0.1,0-0.2,0-0.4,0c0,0.1,0.1,0.1,0.2,0.2l-0.3,0
				C12,5.9,12.1,6,12.3,6c-0.1,0.1-0.1,0.2,0,0.2c0.2-0.1,0.4-0.3,0.6-0.4c0,0,0.1,0.1,0.1,0.2C12.9,6.1,13,6.2,13,6.3
				c0,0.1,0.1,0.1,0.1,0.2c0,0.1,0.1,0.1,0.1,0.2c0,0.1,0.1,0.2,0.1,0.2c0,0.1,0,0.1,0,0.2c0,0.1,0,0.3,0,0.4c0,0.1,0,0.1,0,0.2
				c0,0.1,0,0.1,0,0.2c0,0.1,0,0.2,0,0.4c0,0,0,0,0-0.1C13.3,8,13.1,7.9,13,7.8c-0.1-0.1-0.1-0.1-0.2-0.2c0,0,0-0.1,0-0.1
				c0-0.2,0-0.3,0-0.5c0-0.2,0-0.3,0-0.5c-0.1,0.1-0.1,0.2-0.1,0.4c0-0.1,0-0.2,0-0.4c0-0.1,0-0.1-0.1-0.2c0-0.1-0.1-0.1-0.1-0.2
				c-0.1,0.2-0.1,0.4,0,0.5c0-0.1-0.1-0.1-0.1-0.1c0,0.1,0,0.3,0.1,0.4c0-0.1-0.1-0.3-0.2-0.4c-0.1-0.1-0.2-0.2-0.3-0.4
				c0,0.1,0,0.1,0,0.2c0,0-0.1-0.1-0.1-0.1c0,0-0.1-0.1-0.1-0.1c-0.1-0.1-0.2-0.1-0.2-0.1c0,0.1,0,0.2,0,0.3c0,0.1,0.1,0.2,0.1,0.3
				l-0.1-0.1c0,0.1,0.1,0.2,0.2,0.4c0.1,0.1,0.2,0.2,0.3,0.3l-0.3,0l0.1,0.1c-0.1,0-0.3,0-0.4,0.1c0.1,0.1,0.2,0.2,0.3,0.3l-0.1,0
				c0.1,0.1,0.3,0.2,0.4,0.1c0.2,0,0.3-0.1,0.4-0.1c0,0,0.1,0,0.1-0.1c0.1,0.1,0.2,0.1,0.2,0.2C13,8,13,8.1,13.1,8.1
				c0,0.1,0.1,0.1,0.2,0.2c0.1,0.1,0.1,0.1,0.1,0.2c0,0,0,0.1,0,0.1c0,0,0,0.1,0,0.1c0,0.1,0,0.2,0,0.2c0,0.1,0,0.2,0,0.2
				c0,0.1,0,0.2,0,0.2l0,0.2c0,0,0,0.1,0,0.2c0,0,0,0.1,0,0.1c0,0,0,0.1,0,0.1c0,0.1,0,0.2,0.1,0.3c0,0.1,0,0.2,0.1,0.3
				c0,0.1,0,0.2,0.1,0.3c0,0.1,0,0.2,0.1,0.3c0,0.2,0.1,0.3,0.1,0.4c0,0,0,0.1,0,0.1c0,0,0,0.1,0.1,0.2c0.1,0.1,0.1,0.2,0.1,0.3
				c0,0.1,0.2,0.1,0.1-0.3c0-0.1-0.1-0.5-0.2-0.9c0-0.1,0-0.2-0.1-0.3c0,0,0-0.1,0-0.1c0,0,0-0.1,0-0.1c0-0.2-0.1-0.3-0.1-0.4
				c0-0.1,0-0.2,0-0.3c0-0.1,0-0.2,0-0.3c0-0.1,0-0.2,0-0.3c0-0.1,0-0.1,0-0.2c0-0.1,0-0.1,0-0.2c0-0.1,0-0.2,0-0.2
				c0-0.1,0.1-0.1,0.1-0.2c0-0.1,0.1-0.2,0.2-0.3C14,7.8,14,7.7,14,7.7c0-0.1,0.1-0.1,0.1-0.2c0,0,0.1-0.1,0.1-0.1c0,0,0,0,0,0
				c0.2,0.1,0.4,0.3,0.6,0.4c0-0.1,0-0.1,0-0.2c0.1,0,0.3-0.1,0.4-0.2l-0.4,0c0.1,0,0.1-0.1,0.2-0.1c-0.1,0-0.3-0.1-0.4-0.1
				C15,7,15.3,6.9,15.5,6.7c-0.2,0-0.3,0-0.4,0.1c0.1,0,0.2-0.1,0.2-0.1c0,0,0.1,0,0.1-0.1C15.4,6.6,15.4,6.5,15.4,6.5z"/>
			<path class="st14" d="M11,6.1c-0.1-0.2-0.2-0.4-0.3-0.6c-0.1,0.3,0,0.6,0.1,0.8l-0.3-0.4c0,0.2,0.1,0.4,0.1,0.5
				c-0.1-0.1-0.2-0.2-0.3-0.3c0,0.2,0.1,0.3,0.2,0.5c0.1,0.1,0.1,0.2,0.2,0.3c0,0.1,0.1,0.2,0.1,0.3c-0.1-0.1-0.2-0.2-0.3-0.3
				c-0.1-0.1-0.1-0.1-0.2-0.2c-0.1-0.1-0.2-0.1-0.2-0.1c0.1,0.1,0.2,0.3,0.3,0.3c-0.1-0.1-0.3-0.1-0.4-0.1c0.1,0.1,0.1,0.1,0.2,0.2
				c0,0,0.1,0.1,0.1,0.1c0,0,0.1,0.1,0.1,0.1c0.2,0.1,0.3,0.2,0.5,0.3c0,0,0,0.1,0,0.1c0,0,0,0.1,0,0.1c0,0.1,0,0.1,0,0.1
				c0,0.1,0,0.2,0.1,0.3c0,0.1,0.1,0.2,0.1,0.3c0,0.1,0.1,0.2,0.1,0.3c0,0,0,0,0,0c-0.1-0.1-0.1-0.1-0.2-0.2c0,0-0.1-0.1-0.1-0.1
				c0,0-0.1,0-0.1-0.1c-0.1,0-0.1-0.1-0.2-0.1c-0.1-0.1-0.2-0.2-0.4-0.3c-0.1-0.1-0.2-0.1-0.3-0.2c0,0-0.1-0.1-0.1-0.1
				C9.9,7.5,9.9,7.4,9.8,7.3c0-0.1-0.1-0.1-0.1-0.2c0,0,0-0.1-0.1-0.1c0,0,0-0.1-0.1-0.1c0-0.1-0.1-0.2-0.1-0.3
				C9.6,6.5,9.7,6.3,9.8,6C9.6,6,9.6,6.1,9.5,6.1c0-0.1,0.1-0.2,0-0.3c-0.1,0-0.1,0-0.1,0.1c0,0,0,0.1,0,0.2c0,0.1,0,0.2,0,0.3
				c-0.2-0.3,0-0.6-0.2-0.9c0,0.1-0.1,0.2-0.1,0.3c0-0.2-0.1-0.3-0.2-0.4c0,0.1,0,0.2,0,0.4c0-0.1-0.1-0.2-0.2-0.3
				C8.6,5.2,8.5,5.1,8.4,5c0,0.1,0,0.2,0,0.2c0,0.1,0.1,0.2,0.1,0.2C8.6,5.7,8.7,5.8,8.8,6C8.7,5.8,8.6,5.7,8.4,5.7
				c0,0.1,0.1,0.3,0.2,0.4C8.8,6.1,8.9,6.2,9,6.3C8.9,6.3,8.8,6.2,8.6,6.2c0,0.1,0.1,0.1,0.1,0.2L8.6,6.3c-0.1,0-0.1-0.1-0.2-0.1
				c0,0.1,0.1,0.1,0.1,0.2c0,0.1,0.1,0.1,0.2,0.2c-0.1,0-0.1,0.1-0.1,0.1c0.2,0,0.4,0,0.6,0c0,0.1,0.1,0.2,0.1,0.3
				c0,0.1,0.1,0.1,0.1,0.2c0,0.1,0.1,0.1,0.1,0.2c0,0,0,0,0,0.1C9.6,7.4,9.5,7.3,9.4,7.3C9.3,7.2,9.2,7.1,9.1,7.1
				C8.9,7,8.7,6.8,8.5,6.8c0,0,0-0.1,0-0.1c0-0.1,0-0.1,0-0.2c0-0.1,0-0.1-0.1-0.2C8.4,6.1,8.3,6,8.2,5.8c-0.1,0.1-0.1,0.2,0,0.4
				C8.2,6.1,8.1,6,8,5.9C7.9,5.8,7.8,5.7,7.7,5.6c0,0.2,0.1,0.3,0.2,0.5c0,0-0.1-0.1-0.2-0.1l0.1,0.2c0,0.1,0.1,0.1,0.1,0.2
				C7.9,6.2,7.7,6.1,7.6,6C7.5,5.9,7.3,5.9,7.2,5.8L7.3,6C7.1,5.9,6.9,5.8,6.7,5.8C6.8,6,6.9,6.1,7,6.2l-0.2,0
				c0.2,0.2,0.5,0.3,0.7,0.4l-0.3,0l0.1,0.1C7.3,6.7,7.1,6.8,7,6.8C7.2,6.9,7.3,7,7.5,7c0,0-0.1,0-0.1,0c0.2,0.1,0.3,0.1,0.5,0.1
				C8,7.1,8,7.1,8.1,7C8.2,7,8.3,7,8.3,6.9c0,0,0.1,0,0.1,0C8.6,7,8.7,7.1,8.8,7.1C9,7.2,9.2,7.3,9.3,7.4c0.1,0.1,0.2,0.1,0.3,0.2
				c0.1,0.1,0.2,0.1,0.2,0.2c0,0,0,0,0,0c-0.1,0-0.1,0-0.2,0c-0.1,0-0.2,0-0.2,0c-0.1,0-0.1,0-0.2,0c-0.1,0-0.1,0-0.2,0
				c0,0-0.1,0-0.1,0C8.8,7.6,8.7,7.5,8.5,7.4C8.4,7.3,8.2,7.2,8.1,7.2c0,0.1,0.1,0.2,0.2,0.3C8.2,7.4,8,7.4,7.9,7.3
				C7.9,7.4,8,7.5,8,7.5c0.1,0,0.1,0.1,0.2,0.1l0.2,0.1l0.2,0.1c-0.1,0-0.2,0-0.2,0c-0.1,0-0.2,0-0.3-0.1c-0.2,0-0.3-0.1-0.5,0
				c0.1,0.1,0.2,0.1,0.3,0.2c-0.2,0-0.3,0-0.5,0.1l0.1,0c0,0,0.1,0,0.1,0l0.2,0C7.7,8,7.6,8,7.4,8.1c-0.1,0-0.2,0.1-0.3,0.2
				c0.2,0.1,0.4,0.1,0.5,0c0.2,0,0.3-0.1,0.5-0.2C8,8.2,7.9,8.3,7.8,8.4c0.1,0,0.1,0,0.2,0c0.1,0,0.1-0.1,0.2-0.1
				c0.1-0.1,0.2-0.2,0.3-0.3C8.5,8.2,8.5,8.3,8.4,8.4c0.1,0,0.2,0,0.2-0.1L8.4,8.6c0.2,0,0.3-0.1,0.4-0.2c0,0.1,0.1,0.1,0.2,0.1
				c0-0.2,0-0.5,0-0.7c0.1,0,0.1,0,0.2,0c0.1,0,0.2,0,0.3,0c0.1,0,0.2,0,0.2,0C9.8,8,9.8,8,9.9,8c0.1,0,0.2,0.1,0.3,0.1
				c0.1,0,0.1,0.1,0.2,0.1c0.1,0.1,0.2,0.2,0.3,0.3c0.1,0,0.1,0.1,0.2,0.1c0,0,0.1,0.1,0.1,0.1c0.1,0.1,0.2,0.2,0.3,0.3
				c0,0,0,0-0.1,0c-0.2,0-0.3,0-0.5,0c-0.1,0-0.2,0-0.3,0c0,0,0-0.1-0.1-0.1c-0.1-0.1-0.2-0.2-0.3-0.3C9.9,8.4,9.8,8.4,9.7,8.3
				c0,0.1,0.1,0.2,0.2,0.3C9.8,8.5,9.7,8.5,9.6,8.4c-0.1,0-0.1,0-0.2-0.1c-0.1,0-0.1,0-0.2,0c0.1,0.1,0.3,0.2,0.4,0.3
				c-0.1,0-0.1,0-0.2,0c0.1,0.1,0.2,0.1,0.3,0.2C9.7,8.8,9.5,8.8,9.4,8.8c-0.1,0-0.3,0-0.4,0c0.1,0,0.1,0.1,0.2,0.1c0,0-0.1,0-0.1,0
				c0,0-0.1,0-0.1,0C8.8,9,8.7,9,8.6,9.1c0.1,0,0.2,0.1,0.2,0.1c0.1,0,0.2,0.1,0.2,0.1L8.9,9.3c0.1,0,0.2,0,0.4,0c0.1,0,0.2,0,0.4,0
				L9.5,9.5l0.1,0C9.5,9.6,9.4,9.7,9.4,9.8c0.1,0,0.3,0,0.5,0L9.8,9.8c0.2,0,0.3-0.1,0.4-0.2c0.1-0.1,0.2-0.2,0.2-0.4
				c0,0,0-0.1,0.1-0.1c0.1,0,0.2,0,0.3,0c0.1,0,0.2,0,0.2,0c0.1,0,0.2,0,0.2,0c0.1,0,0.2,0.1,0.3,0.1c0,0,0.1,0,0.1,0
				c0,0,0.1,0.1,0.1,0.1c0.1,0.1,0.1,0.1,0.2,0.2c0.1,0.1,0.1,0.1,0.2,0.2c0.1,0.1,0.1,0.1,0.2,0.2l0.2,0.2c0,0,0.1,0.1,0.1,0.1
				c0,0,0,0.1,0.1,0.1c0,0,0.1,0.1,0.1,0.1c0.1,0.1,0.1,0.2,0.2,0.2c0.1,0.1,0.1,0.2,0.2,0.3c0.1,0.1,0.1,0.2,0.2,0.3
				c0.1,0.1,0.1,0.2,0.2,0.2c0.1,0.1,0.2,0.3,0.2,0.3c0,0,0,0.1,0.1,0.1c0,0,0.1,0.1,0.1,0.1c0.1,0.1,0.2,0.2,0.2,0.3
				c0.1,0.1,0.2,0.1,0-0.3c-0.1-0.1-0.3-0.5-0.6-0.8c-0.1-0.1-0.1-0.2-0.2-0.3c0,0-0.1-0.1-0.1-0.1c0,0-0.1-0.1-0.1-0.1
				c-0.1-0.2-0.2-0.3-0.3-0.4c-0.1-0.2-0.3-0.4-0.4-0.5c-0.1-0.1-0.2-0.2-0.2-0.3c0,0-0.1-0.1-0.1-0.1c0,0-0.1-0.1-0.1-0.1
				C11.7,9.1,11.7,9,11.6,9c0-0.1-0.1-0.2-0.1-0.3c-0.1-0.1-0.1-0.2-0.1-0.4c0-0.1-0.1-0.2-0.1-0.2c0-0.1-0.1-0.2-0.1-0.2
				c0-0.1,0-0.1-0.1-0.2c0,0,0,0,0-0.1c0.2-0.1,0.5-0.1,0.8-0.1c0-0.1-0.1-0.1-0.2-0.1c0.1-0.1,0.1-0.3,0.1-0.4l-0.2,0.3
				c0-0.1,0-0.2,0-0.2C11.4,7,11.3,7,11.2,7.1c0.1-0.3,0.2-0.6,0.1-0.9c-0.1,0.1-0.2,0.3-0.2,0.4c0-0.1,0-0.2,0-0.3c0,0,0-0.1,0-0.1
				C11.1,6.2,11.1,6.1,11,6.1z"/>
			<path class="st14" d="M13.1,5.2c0-0.2,0-0.4-0.1-0.7c-0.2,0.2-0.2,0.5-0.2,0.8l-0.1-0.5c-0.1,0.2-0.1,0.4-0.1,0.6
				c-0.1-0.1-0.1-0.3-0.2-0.4c-0.1,0.2,0,0.4,0,0.6c0,0.1,0,0.2,0.1,0.3c0,0.1,0,0.2,0,0.3c0-0.1-0.1-0.3-0.1-0.4
				c0-0.1-0.1-0.2-0.1-0.2c0-0.1-0.1-0.1-0.2-0.2c0,0.2,0.1,0.3,0.2,0.5c-0.1-0.1-0.2-0.2-0.3-0.3c0,0.1,0.1,0.2,0.1,0.3
				c0,0,0,0.1,0.1,0.1c0,0,0,0.1,0.1,0.1c0.1,0.2,0.2,0.4,0.4,0.5c0,0,0,0.1,0,0.1c0,0,0,0.1,0,0.1c0,0.1,0,0.1,0,0.1
				c0,0.1,0,0.2,0,0.3c0,0.1,0,0.2,0,0.3c0,0.1,0,0.2,0,0.3c0,0,0,0,0,0c0-0.1-0.1-0.2-0.1-0.3c0,0,0-0.1-0.1-0.1c0,0,0-0.1-0.1-0.1
				c0-0.1-0.1-0.1-0.1-0.2c-0.1-0.1-0.2-0.3-0.2-0.4c-0.1-0.1-0.1-0.2-0.2-0.3c0-0.1,0-0.1,0-0.2c0-0.1,0-0.2-0.1-0.3
				c0-0.2-0.1-0.3-0.1-0.5c0-0.1,0-0.2,0-0.3C11.6,5,11.8,4.8,12,4.6c-0.1,0-0.2,0-0.3,0c0.1-0.1,0.1-0.2,0.2-0.3
				c-0.1,0-0.1,0-0.2,0c0,0-0.1,0.1-0.1,0.1c0,0.1-0.1,0.2-0.1,0.3c-0.1-0.3,0.2-0.5,0.2-0.9c-0.1,0.1-0.1,0.1-0.2,0.2
				c0-0.2,0-0.3,0-0.5l-0.1,0.3c0-0.1,0-0.3,0-0.4c0-0.1-0.1-0.3-0.1-0.4c0,0.1-0.1,0.1-0.1,0.2c0,0.1,0,0.2,0,0.3
				c0,0.2,0,0.4,0.1,0.6c0-0.2-0.1-0.3-0.2-0.5c0,0.3,0.1,0.6,0.3,0.9c-0.1-0.1-0.2-0.2-0.3-0.3c0,0.1,0,0.2,0,0.2l-0.2-0.3
				c0,0.1,0,0.3,0.1,0.4c-0.1,0-0.1,0-0.1,0.1c0.1,0,0.2,0.1,0.3,0.1c0,0,0.1,0.1,0.1,0.1c0,0,0.1,0.1,0.1,0.1c0,0.1,0,0.3,0,0.3
				c0,0.1,0,0.2,0,0.2c0,0.1,0,0.2,0,0.2c0,0,0,0,0,0.1c-0.1-0.2-0.3-0.4-0.4-0.6c-0.1-0.2-0.3-0.4-0.4-0.6c0,0,0-0.1,0-0.1
				c0.1-0.3,0.1-0.6,0.1-0.9c-0.1,0.1-0.2,0.2-0.2,0.3c0-0.1,0-0.2,0-0.4c0-0.1-0.1-0.3-0.2-0.4c0,0.2-0.1,0.3,0,0.5
				c0-0.1-0.1-0.1-0.1-0.1l0,0.2c0,0.1,0,0.1,0,0.2c0-0.2-0.1-0.3-0.2-0.5C9.9,3.5,9.8,3.3,9.7,3.2l0,0.2C9.6,3.2,9.4,3.1,9.2,3
				c0,0.2,0.1,0.4,0.2,0.5L9.2,3.4c0.1,0.3,0.3,0.5,0.5,0.7L9.4,4l0.1,0.1c-0.1,0-0.3-0.1-0.4-0.1c0.1,0.1,0.2,0.3,0.4,0.4
				c0,0-0.1,0-0.1,0c0.1,0.1,0.3,0.2,0.4,0.3c0.2,0.1,0.3,0.1,0.5,0.1c0,0,0.1,0,0.1,0c0,0.1,0.1,0.1,0.1,0.2c0,0,0.1,0.1,0.1,0.1
				c0,0,0.1,0.1,0.1,0.1c0.1,0.2,0.2,0.3,0.3,0.5c0.1,0.1,0.1,0.2,0.2,0.3c0.1,0.1,0.1,0.2,0.2,0.3c0,0,0,0,0,0
				c-0.1,0-0.1-0.1-0.2-0.1c-0.1,0-0.1-0.1-0.2-0.1c-0.1,0-0.1-0.1-0.2-0.1c-0.1,0-0.1-0.1-0.2-0.1c0,0-0.1,0-0.1-0.1
				c-0.1-0.2-0.1-0.3-0.2-0.5c-0.1-0.2-0.2-0.3-0.4-0.4c0,0.1,0,0.3,0.1,0.4C9.9,5.2,9.8,5.1,9.7,5c0,0.1,0,0.1,0.1,0.2
				c0,0.1,0.1,0.1,0.2,0.2l0.1,0.1l0.1,0.1c-0.1,0-0.2-0.1-0.2-0.1c-0.1,0-0.2-0.1-0.2-0.2C9.6,5.3,9.4,5.2,9.3,5.1
				c0.1,0.1,0.1,0.2,0.2,0.3C9.3,5.4,9.2,5.3,9,5.3l0.4,0.3C9.1,5.5,8.8,5.4,8.6,5.4c0.1,0.2,0.3,0.3,0.5,0.3
				c0.2,0.1,0.4,0.1,0.6,0.1c-0.2,0-0.3,0-0.4,0.1C9.3,6,9.3,6,9.4,6.1c0.1,0,0.1,0,0.2,0c0.1,0,0.3,0,0.4-0.1
				C10,6.1,9.9,6.2,9.8,6.2c0.1,0,0.2,0,0.2,0L9.7,6.5c0.1,0.1,0.3,0.1,0.4,0c0,0.1,0,0.2,0.1,0.2c0.1-0.2,0.2-0.4,0.3-0.7
				c0.1,0,0.1,0.1,0.2,0.1c0.1,0,0.2,0.1,0.3,0.1c0.1,0.1,0.1,0.1,0.2,0.1c0.1,0,0.1,0.1,0.2,0.2c0.1,0.1,0.1,0.1,0.2,0.2
				c0,0.1,0.1,0.1,0.1,0.2c0.1,0.1,0.1,0.3,0.2,0.4C12,7.3,12,7.4,12,7.5c0,0.1,0.1,0.1,0.1,0.2c0.1,0.1,0.1,0.2,0.2,0.4
				c0,0,0,0-0.1,0c-0.2-0.1-0.3-0.1-0.5-0.2c-0.1,0-0.2-0.1-0.3-0.1c0,0,0-0.1,0-0.1C11.4,7.3,11.2,7,11,6.7c0,0.1,0,0.3,0.1,0.4
				C11,7,11,6.9,10.9,6.8c0,0-0.1-0.1-0.1-0.1c-0.1,0-0.1-0.1-0.2-0.1c0,0,0,0.1,0.1,0.1c0,0,0,0.1,0.1,0.1c0,0.1,0.1,0.2,0.2,0.2
				c0,0-0.1-0.1-0.2,0l0.3,0.3c-0.1-0.1-0.2-0.2-0.4-0.3c-0.1-0.1-0.3-0.1-0.4-0.2c0,0.1,0.1,0.1,0.1,0.2c0,0-0.1,0-0.1,0
				c0,0-0.1,0-0.1,0C9.9,7,9.8,7,9.7,7c0.1,0.1,0.1,0.1,0.2,0.2C10,7.2,10,7.3,10.1,7.4l-0.1,0c0.2,0.2,0.5,0.2,0.7,0.3l-0.3,0.1
				l0.1,0.1c-0.1,0.1-0.2,0.1-0.3,0.2c0.2,0,0.3,0.1,0.5,0.1l-0.1,0c0.2,0.1,0.3,0,0.5,0c0.1-0.1,0.2-0.2,0.4-0.3
				c0,0,0.1-0.1,0.1-0.1c0.1,0,0.2,0.1,0.3,0.1C11.8,8,11.9,8,12,8c0.1,0,0.1,0.1,0.2,0.1c0.1,0.1,0.2,0.1,0.2,0.2
				c0,0,0.1,0,0.1,0.1c0,0,0,0.1,0.1,0.1c0,0.1,0.1,0.2,0.1,0.3c0,0.1,0.1,0.2,0.1,0.3c0.1,0.2,0.1,0.3,0.2,0.5c0,0,0,0.1,0.1,0.2
				c0,0,0,0.1,0,0.1c0,0,0,0.1,0,0.1c0.1,0.2,0.1,0.4,0.2,0.6c0,0.1,0.1,0.2,0.1,0.3c0,0.1,0.1,0.2,0.1,0.3c0.1,0.2,0.1,0.3,0.1,0.4
				c0,0.1,0.2,0.5,0.3,0.6c0.1,0.1,0.2,0.1,0.1-0.3c0-0.1-0.1-0.2-0.1-0.4c0-0.1-0.1-0.2-0.1-0.3c0-0.1-0.1-0.2-0.1-0.3
				c-0.2-0.4-0.3-0.9-0.4-1.1c-0.1-0.2-0.2-0.4-0.3-0.7C13,9,13,8.9,12.9,8.8c0-0.1-0.1-0.1-0.1-0.2c0-0.1-0.1-0.1-0.1-0.2
				c0-0.1-0.1-0.2-0.1-0.2c0-0.1,0-0.2,0-0.3c0-0.1,0-0.3,0-0.4c0-0.1,0-0.2,0-0.3c0-0.1,0-0.2,0-0.3c0-0.1,0-0.1,0-0.2
				c0,0,0,0,0-0.1c0.3,0,0.5,0.1,0.8,0.2c0-0.1-0.1-0.2-0.2-0.2c0.1-0.1,0.2-0.2,0.2-0.4l-0.3,0.2c0-0.1,0.1-0.1,0.1-0.2
				c-0.1,0-0.3,0-0.4,0.1c0.2-0.2,0.4-0.4,0.4-0.8C13.2,5.5,13,5.6,13,5.8c0-0.1,0.1-0.2,0.1-0.3c0,0,0-0.1,0-0.1
				C13.1,5.3,13.1,5.2,13.1,5.2z"/>
			<path class="st14" d="M10.6,8c-0.1-0.2-0.3-0.3-0.5-0.4c0,0.3,0.2,0.5,0.4,0.7c-0.1-0.1-0.2-0.2-0.4-0.2c0.1,0.2,0.2,0.3,0.3,0.4
				c-0.1,0-0.2-0.1-0.3-0.1c0.1,0.1,0.2,0.2,0.3,0.3c0.1,0,0.1,0.1,0.2,0.2c0.1,0.1,0.1,0.1,0.1,0.2C10.7,9.1,10.6,9,10.5,9
				c-0.1,0-0.1-0.1-0.2-0.1c-0.1,0-0.1,0-0.2,0c0.1,0.1,0.2,0.1,0.3,0.2c-0.1,0-0.2,0-0.3,0.1c0.1,0,0.1,0.1,0.2,0.1
				c0,0,0.1,0,0.1,0c0,0,0.1,0,0.1,0c0.1,0,0.2,0,0.2,0c0,0,0.1,0,0.1,0c0,0,0.1,0,0.1,0c0,0,0,0,0,0.1c0,0,0,0,0,0.1
				c0,0,0,0.1,0.1,0.1c0,0.1,0.1,0.1,0.1,0.2c0,0.1,0.1,0.1,0.1,0.2c0,0.1,0.1,0.1,0.1,0.2c0,0,0,0,0,0c-0.1,0-0.1,0-0.2-0.1l-0.1,0
				c0,0-0.1,0-0.1,0c-0.1,0-0.1,0-0.2,0c-0.1,0-0.2-0.1-0.3-0.1c-0.1,0-0.2,0-0.2-0.1c0,0-0.1-0.1-0.1-0.1c-0.1,0-0.1-0.1-0.2-0.2
				c0,0-0.1-0.1-0.1-0.1c0,0,0,0-0.1-0.1c0,0,0,0-0.1-0.1C9.7,9.4,9.7,9.4,9.6,9.3c0.1-0.2,0.1-0.5,0-0.7C9.6,8.6,9.5,8.7,9.5,8.8
				c0-0.1,0-0.2-0.1-0.3c0,0-0.1,0.1-0.1,0.1c0,0.1,0,0.1,0,0.2c0,0.1,0.1,0.2,0.1,0.3C9.3,8.9,9.3,8.6,9,8.4c0,0.1,0,0.2,0,0.3
				C9,8.6,8.9,8.5,8.7,8.4c0.1,0.1,0.1,0.2,0.1,0.3C8.8,8.6,8.7,8.6,8.6,8.5C8.5,8.4,8.4,8.4,8.3,8.4c0,0.1,0.1,0.1,0.1,0.2
				c0,0.1,0.1,0.1,0.2,0.2C8.7,8.8,8.8,8.9,9,9C8.8,8.9,8.7,8.9,8.6,8.9C8.7,9,8.8,9.1,8.9,9.1c0.1,0,0.1,0,0.2,0.1
				c0.1,0,0.1,0,0.2,0c-0.1,0-0.2,0-0.3,0.1c0,0,0.1,0.1,0.2,0.1l-0.1,0c0,0-0.1,0-0.1,0c0,0,0.1,0.1,0.1,0.1c0.1,0,0.1,0,0.2,0.1
				c0,0-0.1,0.1,0,0.2c0.1-0.1,0.1-0.1,0.2-0.1c0,0,0.1,0,0.1-0.1c0,0,0.1,0,0.1-0.1c0.1,0.1,0.1,0.1,0.2,0.2c0,0,0.1,0.1,0.1,0.1
				c0,0,0.1,0.1,0.1,0.1c0,0,0,0,0,0c-0.1,0-0.2,0-0.3,0c-0.1,0-0.2,0-0.3,0c-0.2,0-0.4,0-0.5,0c0,0,0-0.1,0-0.1
				c0-0.1-0.1-0.1-0.1-0.2c0-0.1-0.1-0.1-0.1-0.1C8.7,9.3,8.6,9.2,8.5,9.2c0,0.1,0,0.2,0.1,0.3C8.5,9.4,8.5,9.3,8.4,9.3
				c-0.1,0-0.2-0.1-0.3-0.1c0.1,0.1,0.2,0.2,0.3,0.3c0,0-0.1,0-0.1,0l0.1,0.1c0,0,0.1,0.1,0.1,0.1C8.4,9.7,8.3,9.6,8.2,9.6
				c-0.1,0-0.2,0-0.4,0l0.1,0.1c-0.2,0-0.3,0.1-0.5,0.2C7.6,10,7.7,10,7.9,10.1l-0.1,0.1c0.2,0.1,0.4,0,0.6,0
				c-0.1,0.1-0.1,0.1-0.2,0.2l0.1,0c-0.1,0.1-0.2,0.2-0.2,0.3c0.1,0,0.2,0,0.4,0c0,0,0,0-0.1,0.1c0.1,0,0.2-0.1,0.3-0.2
				c0-0.1,0.1-0.1,0.1-0.2c0-0.1,0.1-0.1,0.1-0.2C9,10,9,10,9,10c0.1,0,0.1,0,0.2,0c0,0,0.1,0,0.1,0c0,0,0.1,0,0.1,0
				c0.1,0,0.3,0,0.4,0c0.1,0,0.2,0,0.2,0c0.1,0,0.2,0,0.2,0c0,0,0,0,0,0c0,0-0.1,0-0.1,0.1c-0.1,0-0.1,0.1-0.2,0.1
				c0,0-0.1,0-0.1,0.1c0,0-0.1,0.1-0.1,0.1c0,0-0.1,0-0.1,0.1c-0.1-0.1-0.2-0.1-0.4-0.1c-0.1,0-0.3,0-0.4,0c0.1,0.1,0.1,0.2,0.2,0.2
				c-0.1,0-0.2,0-0.3,0.1c0,0.1,0.1,0.1,0.1,0.1c0.1,0,0.1,0,0.2,0l0.1,0l0.1,0c0,0.1-0.1,0.1-0.2,0.1c-0.1,0-0.1,0.1-0.2,0.1
				c-0.1,0-0.2,0.1-0.3,0.2c0,0,0,0,0.1,0c0,0,0,0,0.1,0c0,0,0.1,0,0.1,0c-0.1,0.1-0.2,0.2-0.3,0.3l0.1,0c0,0,0,0,0.1,0l0.1-0.1
				c-0.1,0.1-0.2,0.1-0.2,0.2c-0.1,0.1-0.1,0.2-0.2,0.3c0.1,0,0.2-0.1,0.3-0.2c0.1-0.1,0.2-0.3,0.3-0.4c-0.1,0.1-0.1,0.3-0.1,0.4
				c0,0,0.1-0.1,0.1-0.1c0-0.1,0.1-0.1,0.1-0.2c0.1-0.1,0.1-0.3,0.2-0.4c0,0.1,0,0.2,0,0.4c0,0,0.1-0.1,0.1-0.2l-0.1,0.3
				c0.1-0.1,0.2-0.2,0.2-0.3c0,0.1,0.1,0.1,0.1,0.1c-0.1-0.2-0.1-0.4-0.2-0.6c0,0,0.1-0.1,0.1-0.1c0.1-0.1,0.1-0.1,0.2-0.1
				c0.1,0,0.1-0.1,0.2-0.1c0.1,0,0.1,0,0.2-0.1c0.1,0,0.1,0,0.2,0c0.1,0,0.1,0,0.2,0c0.1,0,0.2,0.1,0.3,0.1c0,0,0.1,0,0.1,0
				c0,0,0.1,0,0.1,0c0.1,0,0.2,0.1,0.3,0.1c0,0,0,0-0.1,0c-0.1,0.1-0.3,0.1-0.4,0.2c-0.1,0-0.1,0.1-0.2,0.1c0,0,0,0-0.1,0
				c-0.1-0.1-0.2-0.1-0.3-0.1c-0.1,0-0.2,0-0.3-0.1c0,0.1,0.1,0.2,0.2,0.2c-0.1,0-0.2,0-0.3,0c0,0-0.1,0-0.1,0c0,0-0.1,0-0.1,0.1
				c0,0,0.1,0,0.1,0c0,0,0.1,0,0.1,0c0.1,0,0.1,0,0.2,0c0,0-0.1,0.1-0.1,0.1c0.1,0,0.2,0,0.3,0c-0.1,0-0.2,0.1-0.3,0.1
				c-0.1,0.1-0.2,0.1-0.3,0.2c0,0,0.1,0,0.1,0c0,0-0.1,0.1-0.1,0.1c0,0-0.1,0.1-0.1,0.1c-0.1,0.1-0.1,0.1-0.1,0.2c0.1,0,0.1,0,0.2,0
				c0.1,0,0.1,0,0.2-0.1L10,11.8c0.1,0,0.2-0.1,0.3-0.1c0.1-0.1,0.2-0.1,0.2-0.2l-0.1,0.3l0.1-0.1c0,0.1-0.1,0.3-0.1,0.4
				c0.1-0.1,0.2-0.2,0.3-0.3l0,0.1c0.1-0.1,0.2-0.2,0.2-0.4c0.1-0.1,0.1-0.3,0.1-0.4c0,0,0-0.1,0-0.1c0.1-0.1,0.1-0.1,0.2-0.1
				c0.1,0,0.1-0.1,0.2-0.1c0.1,0,0.1-0.1,0.2-0.1c0.1,0,0.1,0,0.2,0c0,0,0.1,0,0.1,0c0,0,0.1,0,0.1,0c0.1,0,0.1,0.1,0.2,0.1
				c0.1,0,0.1,0.1,0.2,0.1c0.1,0,0.1,0.1,0.2,0.1l0.2,0.1c0,0,0.1,0,0.1,0.1c0,0,0,0,0.1,0c0,0,0.1,0,0.1,0.1c0.1,0,0.1,0.1,0.2,0.1
				c0.1,0,0.1,0.1,0.2,0.1c0.1,0,0.1,0.1,0.2,0.1c0.1,0,0.1,0.1,0.2,0.1c0.1,0.1,0.2,0.2,0.2,0.2c0,0,0,0,0.1,0.1
				c0,0,0.1,0.1,0.1,0.1c0.1,0.1,0.2,0.1,0.2,0.1c0.1,0.1,0.2,0,0-0.3c-0.1-0.1-0.3-0.3-0.6-0.5c-0.1-0.1-0.1-0.1-0.2-0.1
				c0,0-0.1,0-0.1-0.1c0,0-0.1,0-0.1-0.1C13.1,11.1,13,11,12.9,11c-0.1,0-0.1-0.1-0.2-0.1c-0.1,0-0.2-0.1-0.2-0.1
				c-0.1,0-0.2-0.1-0.2-0.1l-0.1-0.1c0,0-0.1,0-0.1-0.1c-0.1,0-0.1,0-0.2-0.1c0,0-0.1-0.1-0.1-0.2c-0.1-0.1-0.1-0.2-0.2-0.3
				c0-0.1-0.1-0.1-0.1-0.2c0-0.1-0.1-0.1-0.1-0.2c0,0-0.1-0.1-0.1-0.1c0,0,0,0,0-0.1c0.2-0.2,0.4-0.3,0.6-0.4c0-0.1-0.1-0.1-0.2,0
				c0-0.1,0-0.3-0.1-0.4l-0.1,0.3c0-0.1,0-0.2-0.1-0.2c-0.1,0.1-0.1,0.2-0.2,0.3c0-0.3,0-0.6-0.2-0.8c0,0.1,0,0.3,0,0.5
				c0-0.1-0.1-0.2-0.1-0.3c0,0,0-0.1-0.1-0.1C10.7,8.1,10.7,8.1,10.6,8z"/>
			<path class="st14" d="M15.7,9.7C15.9,9.8,16,9.8,16,9.8c-0.1-0.1-0.2-0.1-0.3-0.2c-0.1-0.1-0.2-0.1-0.3-0.1c0.1,0,0.1,0,0.2,0
				c-0.1,0-0.1-0.1-0.2-0.1c-0.1,0-0.1,0-0.2,0c0,0,0.1-0.1,0.1-0.1c-0.1-0.1-0.2-0.1-0.3,0c-0.1,0-0.2,0-0.3,0
				c0.1,0,0.1-0.1,0.2-0.1c0,0,0.1,0,0.1-0.1c0,0,0-0.1,0-0.1c0,0-0.1,0-0.1,0c0,0,0,0,0,0c0,0,0,0,0,0c0,0,0,0,0,0c0,0,0-0.1,0-0.1
				c0,0,0-0.1,0-0.1c-0.2,0.1-0.3,0.2-0.3,0.4c0,0,0,0-0.1,0c0,0,0,0-0.1,0c0,0-0.1,0-0.1,0c-0.1,0-0.1,0-0.2,0c0,0,0,0,0,0
				c0,0,0,0,0,0c0,0-0.1,0-0.1,0c0,0-0.1,0-0.1,0.1c0,0,0,0-0.1,0l0,0c0,0,0,0,0-0.1c0,0,0-0.1,0-0.1c0-0.1,0-0.2,0.1-0.3
				C14,9,14,9,14,8.9c0,0,0-0.1,0.1-0.1c0,0,0-0.1,0-0.1c0,0,0,0,0,0c0,0,0,0,0,0c0,0,0.1,0,0.1,0c0.1,0,0.1,0,0.2-0.1
				c0.1,0,0.2-0.1,0.3-0.1c0.1,0,0.1,0,0.2,0c0.1,0.2,0.3,0.4,0.5,0.5c0-0.1-0.1-0.2-0.1-0.2c0.1,0.1,0.1,0.1,0.2,0.2
				c0,0,0-0.1-0.1-0.1c0,0-0.1-0.1-0.1-0.1c-0.1-0.1-0.1-0.1-0.2-0.2c0.1,0,0.2,0.1,0.3,0.1c0.1,0.1,0.2,0.1,0.3,0.2
				c-0.1-0.1-0.1-0.1-0.2-0.2c0.1,0.1,0.2,0.1,0.3,0.1c-0.1-0.1-0.2-0.1-0.2-0.2c0,0,0.1,0,0.1,0.1c0,0,0.1,0,0.1,0c0,0,0.1,0,0.1,0
				c0,0,0.1,0,0.1,0c0-0.1-0.1-0.1-0.2-0.1c-0.1,0-0.1-0.1-0.2-0.1c-0.1,0-0.1,0-0.2,0c-0.1,0-0.1,0-0.2,0c0,0,0.1,0,0.1,0
				c0,0,0.1,0,0.1-0.1c-0.1,0-0.2-0.1-0.3,0c0,0-0.1,0-0.1,0c0,0-0.1,0-0.1,0c0-0.1,0.1-0.1,0.1-0.2c-0.1,0-0.1,0-0.1,0
				c0.1,0,0.1-0.1,0.2-0.1c-0.1,0-0.2,0-0.3,0c0-0.1,0-0.1-0.1-0.1c0,0.2,0,0.3,0,0.5c-0.1,0-0.2,0-0.2,0c-0.1,0-0.1,0-0.2,0
				c0,0-0.1,0-0.2,0c0,0,0,0,0,0c0.1-0.1,0.2-0.2,0.3-0.3c0.1-0.1,0.2-0.2,0.3-0.3c0,0,0,0,0.1,0c0.1,0.1,0.2,0.1,0.3,0.1
				C15.4,8,15.5,8,15.6,8c-0.1-0.1-0.1-0.2-0.2-0.2c0.1,0,0.2,0.1,0.2,0.1c0.1,0,0.2,0,0.2-0.1c-0.1-0.1-0.2-0.1-0.4-0.1
				c0,0,0.1,0,0.1-0.1c-0.1,0-0.2,0-0.3,0c0.2,0,0.4-0.1,0.5-0.2l-0.1,0C15.9,7.2,15.9,7.1,16,7c-0.1,0-0.2,0-0.4,0l0.1-0.1
				c-0.2,0-0.3,0.1-0.5,0.3c0-0.1,0-0.2,0.1-0.3c0,0-0.1,0-0.1,0c0-0.1,0-0.2,0-0.4c-0.1,0.1-0.2,0.1-0.3,0.2l0-0.1
				c0,0-0.1,0.1-0.1,0.2c0,0.1,0,0.1-0.1,0.2c0,0.1,0,0.3,0,0.4c0,0,0,0.1,0,0.1c-0.1,0.1-0.3,0.3-0.5,0.5c0,0.1-0.1,0.1-0.1,0.2
				c0,0.1-0.1,0.1-0.1,0.2c0,0,0,0,0,0c0,0,0-0.1,0-0.1c0-0.1,0-0.1,0-0.2c0,0,0-0.1,0-0.2c0-0.1,0-0.1,0-0.2c0,0,0-0.1,0-0.1
				c0.2-0.1,0.4-0.3,0.6-0.5c-0.1,0-0.2,0-0.3,0c0.1-0.1,0.1-0.2,0.2-0.3c-0.1,0-0.1,0-0.2,0c0,0-0.1,0.1-0.1,0.1
				c-0.1,0.1-0.1,0.2-0.2,0.3c0-0.1,0-0.1,0-0.2c0-0.1,0.1-0.1,0.1-0.2c0-0.1,0.1-0.1,0.1-0.2c0-0.1,0-0.1,0-0.2
				c0,0-0.1,0.1-0.1,0.1c0,0-0.1,0.1-0.1,0.1c0-0.2,0.1-0.3,0.1-0.5l-0.1,0.2L14,6.6c0-0.1,0-0.1,0-0.2c0-0.1,0-0.1,0-0.2
				c0-0.1,0-0.3,0-0.4C14,6,13.9,6,13.9,6.1c0,0.1-0.1,0.2-0.1,0.3c0,0.2,0,0.3,0,0.5c0-0.1-0.1-0.3-0.2-0.4c-0.1,0.3,0,0.6,0.2,0.8
				c-0.1-0.1-0.2-0.2-0.3-0.2c0,0.1,0,0.2,0,0.2L13.3,7c0,0.2,0,0.3,0.1,0.4c-0.1,0-0.1,0.1-0.2,0.1c0.1,0,0.2,0,0.3,0
				c0.1,0,0.2,0.1,0.3,0.1c0,0,0,0.1,0,0.2c0,0.1,0,0.2,0,0.2c0,0.1,0,0.1,0,0.2c0,0.1,0,0.1,0,0.2c0,0.1,0,0.1,0,0.2c0,0,0,0,0,0.1
				c0,0,0,0,0,0.1c0,0,0,0.1-0.1,0.1c0,0,0,0.1-0.1,0.1c0,0,0,0.1,0,0.1c0,0,0,0.1,0,0.1l0,0.1l0,0.2c0,0,0,0,0,0
				c0-0.1-0.1-0.1-0.1-0.2c0,0-0.1-0.1-0.1-0.1c0-0.1-0.1-0.1-0.1-0.2c0,0,0,0,0.1-0.1c0-0.1,0.1-0.1,0.1-0.2c0-0.1,0.1-0.1,0.1-0.2
				c0-0.1,0.1-0.1,0.1-0.2c0-0.1,0.1-0.1,0.1-0.2c-0.1,0-0.1,0-0.2,0.1c0,0-0.1,0.1-0.1,0.1c0,0,0.1-0.1,0.1-0.1c0,0,0-0.1,0.1-0.1
				c0-0.1,0-0.2,0-0.3c-0.1,0-0.1,0.1-0.2,0.2c0,0,0,0.1-0.1,0.1c0,0,0,0.1,0,0.1c0-0.1,0-0.1,0-0.1l-0.1,0.2c0,0,0,0.1,0,0.1l0,0.1
				c0,0,0-0.1,0-0.1c0,0,0-0.1,0-0.1c0-0.1,0-0.1,0-0.2c0-0.1,0-0.3,0-0.4L13,7.7c0-0.1,0-0.2,0-0.3c0-0.1-0.1-0.2-0.1-0.2
				c0,0.1-0.1,0.2-0.1,0.3c0,0.1-0.1,0.2-0.1,0.3c0,0,0-0.1-0.1-0.1c0,0.1,0,0.3,0,0.4c0,0.1,0.1,0.3,0.1,0.4
				c-0.1-0.1-0.2-0.1-0.2-0.2c0,0.1,0,0.1,0,0.2c-0.1-0.1-0.2-0.1-0.4-0.1c0,0.1,0,0.2,0.1,0.2c0,0.1,0.1,0.2,0.1,0.2l-0.1,0
				c0.1,0.2,0.2,0.3,0.3,0.3C12.6,9,12.8,9,12.9,9c0,0,0.1,0,0.1,0c0.1,0.1,0.1,0.2,0.1,0.2c0,0,0,0,0,0c0,0.1,0.1,0.1,0.1,0.2
				c0,0,0,0.1,0.1,0.1c0,0,0,0.1,0.1,0.1c0,0.1,0.1,0.1,0.1,0.2c0,0,0,0,0,0.1c0,0,0,0.1,0,0.1c0,0.2,0,0.5,0,0.7c0,0.1,0,0.2,0,0.3
				c0,0.1,0,0.1,0,0.2c0,0.1,0,0.1,0.1,0.2c0.1,0.3,0.2,0.5,0.2,0.6c0,0.1,0.2,0.3,0.2,0.3c0,0.1,0.2,0,0.1-0.2
				c0-0.1-0.1-0.3-0.2-0.6c0-0.1-0.1-0.3-0.1-0.4c0-0.1,0-0.1,0-0.2c0,0,0-0.1,0-0.1c0-0.3-0.1-0.6-0.1-0.9c0-0.1,0-0.1,0-0.2
				c0,0,0.1-0.1,0.1-0.1c0,0,0.1-0.1,0.2-0.1c0,0,0,0,0,0c0.1,0,0.1-0.1,0.1-0.1c0,0,0,0,0.1,0c0,0,0.1,0,0.1,0c0,0,0.1,0,0.1,0
				c0,0,0,0,0,0c0,0,0,0,0.1,0.1c0,0,0,0,0.1,0.1c0,0,0.1,0.1,0.1,0.1C15,9.6,15,9.7,15.1,9.7c0,0,0,0,0-0.1c0.1,0,0.1,0.1,0.2,0.1
				c0,0,0.1,0,0.1,0c0,0,0,0,0,0c0,0,0,0,0,0l-0.3-0.2c0.1,0,0.1,0,0.2,0.1c-0.1-0.1-0.2-0.1-0.3-0.2c0.1,0.1,0.2,0.1,0.4,0.2
				c0.1,0,0.1,0.1,0.2,0.1C15.6,9.7,15.6,9.7,15.7,9.7C15.7,9.8,15.7,9.8,15.7,9.7c-0.1,0-0.3-0.1-0.4-0.2
				C15.5,9.6,15.6,9.7,15.7,9.7z"/>
			<path class="st14" d="M12.2,5.2c0-0.2,0-0.4-0.2-0.7c-0.1,0.2-0.2,0.5-0.1,0.9l-0.2-0.5c0,0.2-0.1,0.4,0,0.6
				c-0.1-0.1-0.2-0.3-0.2-0.4c0,0.2,0,0.4,0.1,0.6c0,0.1,0.1,0.2,0.1,0.3c0,0.1,0,0.2,0,0.3l-0.2-0.4c0-0.1-0.1-0.2-0.1-0.2
				c-0.1-0.1-0.1-0.1-0.2-0.2c0,0.2,0.1,0.3,0.2,0.4c-0.1-0.1-0.2-0.2-0.4-0.3c0,0.1,0.1,0.2,0.1,0.3c0.1,0.1,0.1,0.2,0.2,0.3
				c0.1,0.2,0.3,0.3,0.4,0.5c0,0,0,0.1,0,0.1c0,0,0,0.1,0,0.1c0,0.1,0,0.1,0,0.2c0,0.1,0,0.2,0,0.3c0,0.1,0,0.2,0,0.3
				c0,0.1,0,0.2,0,0.3c0,0,0,0,0,0c-0.1-0.1-0.1-0.2-0.2-0.3c-0.1-0.1-0.2-0.3-0.3-0.4c-0.1-0.1-0.2-0.3-0.3-0.4
				c-0.1-0.1-0.1-0.2-0.2-0.3c0-0.1,0-0.1-0.1-0.2c0-0.1-0.1-0.2-0.1-0.3c0-0.2-0.1-0.3-0.1-0.5c0-0.1,0-0.2-0.1-0.3
				c0.2-0.1,0.4-0.3,0.5-0.5c-0.1,0-0.2,0-0.3,0c0.1-0.1,0.1-0.2,0.1-0.3c-0.1,0-0.1,0-0.2,0c0,0-0.1,0.1-0.1,0.1l-0.1,0.3
				c-0.1-0.3,0.2-0.6,0.1-0.9c-0.1,0.1-0.1,0.1-0.2,0.2c0-0.2,0-0.3-0.1-0.5l-0.1,0.4c0-0.1,0-0.3,0-0.4c0-0.1-0.1-0.3-0.1-0.4
				C10,3.3,10,3.4,10,3.5c0,0.1,0,0.2,0,0.3c0,0.2,0.1,0.4,0.1,0.6C10.1,4.1,10,4,9.8,3.9c0,0.3,0.2,0.6,0.3,0.9
				C10.1,4.6,10,4.5,9.9,4.5c0,0.1,0,0.2,0.1,0.2L9.7,4.4c0,0.1,0.1,0.3,0.2,0.4c-0.1,0-0.1,0-0.1,0.1c0.2,0.1,0.4,0.2,0.6,0.3
				c0,0.1,0,0.3,0.1,0.3c0,0.1,0,0.2,0,0.2c0,0.1,0,0.2,0.1,0.2c0,0,0,0,0,0.1c-0.2-0.2-0.3-0.4-0.5-0.6C9.8,5.3,9.7,5.1,9.6,5
				c0,0,0-0.1,0-0.1c0-0.3,0-0.6,0-0.9C9.5,4,9.4,4.1,9.4,4.3c0-0.1,0-0.2,0-0.4c0-0.1-0.1-0.3-0.2-0.4c0,0.2,0,0.3,0,0.5
				c0-0.1-0.1-0.1-0.1-0.1c0,0.1,0.1,0.3,0.1,0.4C9.1,4.2,9,4,8.9,3.9C8.8,3.7,8.7,3.6,8.6,3.4l0,0.2C8.5,3.5,8.3,3.3,8.1,3.2
				c0,0.2,0.1,0.4,0.2,0.6L8.2,3.7c0.1,0.3,0.4,0.5,0.6,0.7L8.4,4.2l0.1,0.1C8.3,4.3,8.2,4.3,8,4.3c0.1,0.1,0.3,0.3,0.4,0.4l-0.1,0
				C8.5,4.9,8.6,4.9,8.8,5C9,5,9.1,5,9.3,5.1c0,0,0.1,0,0.1,0c0.1,0.1,0.2,0.3,0.3,0.4c0.1,0.2,0.2,0.3,0.4,0.5
				c0.1,0.1,0.1,0.2,0.2,0.3c0.1,0.1,0.1,0.2,0.2,0.3c0,0,0,0,0,0c-0.1,0-0.1-0.1-0.2-0.1c-0.1,0-0.2-0.1-0.2-0.1
				c-0.1,0-0.1-0.1-0.2-0.1c-0.1,0-0.1,0-0.2-0.1c0,0-0.1,0-0.1,0C9.6,5.9,9.5,5.8,9.4,5.6C9.3,5.4,9.1,5.3,9,5.2
				c0,0.1,0,0.3,0.1,0.4C9,5.4,8.9,5.3,8.8,5.3c0,0.1,0,0.2,0.1,0.2C8.9,5.5,9,5.6,9,5.7l0.2,0.1l0.2,0.1c-0.1,0-0.2,0-0.2-0.1
				C9,5.8,8.9,5.7,8.8,5.7C8.7,5.6,8.5,5.4,8.3,5.4c0.1,0.1,0.2,0.2,0.3,0.3C8.4,5.7,8.3,5.6,8.1,5.6l0.4,0.3
				C8.2,5.8,7.9,5.7,7.7,5.8C7.8,5.9,8,6,8.2,6.1c0.2,0.1,0.4,0.1,0.6,0.1c-0.2,0-0.3,0.1-0.4,0.1c0.3,0.1,0.6,0,0.9,0
				C9.1,6.3,9.1,6.4,9,6.5c0.1,0,0.2,0,0.2,0L8.9,6.8c0.2,0.1,0.3,0.1,0.4,0c0,0.1,0,0.2,0.1,0.2c0-0.2,0.1-0.5,0.2-0.7
				c0.1,0,0.1,0,0.2,0.1c0.1,0,0.2,0.1,0.3,0.1c0.1,0,0.2,0.1,0.2,0.1c0.1,0,0.1,0.1,0.2,0.1c0.1,0.1,0.2,0.1,0.2,0.2
				C10.9,7,10.9,7,11,7.1c0.1,0.1,0.2,0.2,0.3,0.4c0,0.1,0.1,0.1,0.1,0.2c0,0.1,0.1,0.1,0.1,0.2c0.1,0.1,0.2,0.2,0.2,0.4
				c0,0,0,0-0.1,0C11.5,8,11.3,8,11.1,7.9c-0.1,0-0.2-0.1-0.3-0.1c0,0,0-0.1,0-0.1c-0.2-0.3-0.3-0.6-0.6-0.9c0,0.1,0,0.3,0.1,0.4
				c-0.1-0.1-0.2-0.2-0.3-0.3c0,0-0.1-0.1-0.2-0.1c-0.1,0-0.1-0.1-0.2-0.1C9.9,7,10,7.2,10.1,7.3c-0.1,0-0.1,0-0.2,0l0.3,0.3
				C10,7.4,9.7,7.2,9.4,7.2c0,0,0.1,0.1,0.1,0.2C9.4,7.3,9.2,7.3,9,7.3c0.1,0.1,0.3,0.3,0.4,0.4l-0.1,0C9.5,7.9,9.8,7.9,10,8
				L9.8,8.1l0.1,0.1C9.8,8.2,9.7,8.3,9.6,8.4c0.2,0,0.3,0.1,0.5,0.1l-0.1,0c0.2,0,0.3,0,0.4-0.1c0.1-0.1,0.2-0.2,0.3-0.3
				c0,0,0.1-0.1,0.1-0.1c0.1,0,0.2,0,0.3,0.1c0.1,0,0.2,0.1,0.2,0.1c0.1,0,0.2,0.1,0.2,0.1c0.1,0,0.2,0.1,0.3,0.2c0,0,0.1,0,0.1,0.1
				c0,0,0.1,0.1,0.1,0.1c0.2,0.3,0.4,0.7,0.6,1c0.1,0.2,0.3,0.6,0.6,1c0.1,0.2,0.2,0.4,0.3,0.6c0.1,0.2,0.2,0.3,0.2,0.4
				c0.1,0.1,0.3,0.5,0.4,0.6c0.1,0.1,0.2,0.1,0-0.4c0-0.1-0.1-0.2-0.2-0.4c0-0.1-0.1-0.2-0.1-0.3c-0.1-0.1-0.1-0.2-0.2-0.3
				c-0.2-0.4-0.5-0.9-0.6-1.1c-0.1-0.2-0.2-0.4-0.4-0.7c-0.1-0.1-0.1-0.2-0.2-0.4c0-0.1-0.1-0.1-0.1-0.2c0-0.1-0.1-0.1-0.1-0.2
				c-0.1-0.1-0.1-0.2-0.2-0.2c0-0.1,0-0.2-0.1-0.3c0-0.1,0-0.3,0-0.4c0-0.1,0-0.2-0.1-0.3c0-0.1,0-0.2,0-0.3c0-0.1,0-0.1,0-0.2
				c0,0,0-0.1,0-0.1c0.3,0,0.5,0.1,0.8,0.1c0-0.1-0.1-0.2-0.2-0.2c0.1-0.1,0.2-0.2,0.2-0.4l-0.3,0.2c0-0.1,0.1-0.2,0.1-0.2
				c-0.1,0-0.3,0.1-0.4,0.1c0.2-0.2,0.4-0.5,0.4-0.8c-0.1,0.1-0.2,0.2-0.3,0.4C12.2,5.6,12.2,5.4,12.2,5.2z"/>
		</g>
		<path class="st15" d="M14.8,11.6c-0.2,0.3-0.4,0.5-0.7,0.6c-0.3,0.1-0.5,0.2-0.8,0.2c0,0,0,0,0,0c0,0,0,0,0.1,0c0.1,0,0.2,0,0.2,0
			c0.1,0,0.2,0,0.3,0c0.2-0.1,0.4-0.2,0.6-0.3c0.2-0.1,0.3-0.2,0.4-0.4c0-0.1,0.1-0.1,0.1-0.2c0-0.1,0-0.2,0.1-0.2c0,0,0,0,0,0
			C14.9,11.5,14.8,11.5,14.8,11.6C14.8,11.6,14.8,11.6,14.8,11.6z"/>
	</g>
	<g>
		<path class="st17" d="M4.3,12.9c-0.9,0.2-2,0.4-2.8,1.4c-0.3,0.3-0.5,0.8-0.5,1.3c0,0.5,0.1,1,0.3,1.6C1.8,18.2,3,20.7,6,20
			c2-0.5,2.7-1.9,2.9-3.1c0.1-0.7,0-1.3-0.1-1.8c-0.2-1-0.7-1.8-1.6-2.3C6.2,12.2,5.1,12.7,4.3,12.9z"/>
		<path class="st18" d="M6.6,12.2c-0.5-0.1-0.9,0-1.1,0.1c0,0,0,0,0,0c0.2-0.2,0.4-0.3,0.6-0.4c0.5-0.2,0.6-0.8,0.7-1
			c-0.1,0.1-0.2,0.4-0.9,0.6C5.5,11.8,5.2,12,5,12.2c0-0.3,0-0.5-0.1-0.7c-0.2-0.3-0.2-0.7-0.2-0.7s-0.3,0.3-0.2,0.7
			c0,0.2,0.1,0.7,0,1c0,0.1-0.1,0.3-0.1,0.5c0-0.2-0.1-0.3-0.2-0.5c-0.1-0.5-0.1-0.8-0.2-0.9c0-0.2-0.1-0.2-0.2-0.1
			c-0.2,0-0.2,0.1-0.3,0.1c-0.1,0,0,0.1,0.1,0.4c0.1,0.3,0.1,0.5,0.1,0.7C3.9,12.7,4,13,4,13.2c-0.5-0.4-1.2-1-1.2-1.9
			c-0.3,0.5-0.1,1,0.2,1.4c-0.2,0-0.3-0.1-0.5-0.1c-0.8,0-1.5,0.2-1.8,0.5c0.6-0.1,0.8-0.1,1.1-0.1c-0.4,0-0.7,0.1-0.8,0.2
			c1,0,0.8,0.3,2.1,0.3c0.5,0,0.8,0,1,0c0.1,0,0.1,0,0.2,0c0,0,0,0,0,0c0,0,0.1,0,0.1,0c0.1,0,0.1,0,0.2-0.1C4.7,13.4,5,13,5.5,12.8
			c0.4-0.2,0.7-0.3,1.1-0.2c0.5,0,0.8-0.4,0.8-0.4S7,12.3,6.6,12.2z"/>
		<path class="st19" d="M5.2,13c0,0-0.1,0.1-0.1,0.1c0,0,0,0-0.1,0c0,0-0.1,0-0.1,0c-0.1,0.1-0.2,0.1-0.3,0.1
			c-0.2,0.1-0.3,0.1-0.6,0.1c-0.1,0-0.1,0-0.2,0c0,0-0.1,0-0.1,0c0,0-0.1,0-0.1,0c-0.1,0-0.1,0-0.2,0c0,0-0.1,0-0.1,0
			c0,0-0.1,0-0.1,0c0,0-0.2,0-0.2,0c0,0,0,0,0,0.1c0,0,0,0,0.1,0.1c0,0,0.1,0,0.1,0c0.1,0,0.2,0.1,0.4,0.1c0.1,0,0.3,0,0.4-0.1
			c0.2,0,0.4,0,0.6-0.1c0.1-0.1,0.3-0.2,0.4-0.3c0,0,0.1-0.1,0.1-0.1c0,0,0.1-0.1,0.1-0.1c0-0.1,0.1-0.1,0.1-0.1c0,0,0,0,0,0
			C5.3,13,5.3,13,5.2,13C5.3,13,5.3,13,5.2,13C5.2,13,5.2,13,5.2,13z"/>
	</g>
	<g>
		<polygon class="st20" points="20.1,18.3 20.1,22.6 11.2,22.6 11.2,18.3 4.1,18.3 4.1,39.8 26.9,39.8 26.9,18.3 		"/>
		<rect x="3.7" y="26.2" class="st21" width="23.6" height="0.4"/>
		<rect x="3.7" y="32" class="st21" width="23.6" height="0.4"/>
		<rect x="3.6" y="18.3" class="st22" width="23.8" height="2.8"/>
		<rect x="3.6" y="37" class="st22" width="23.8" height="2.8"/>
		<rect y="17.6" class="st23" width="4.1" height="22.7"/>
		<rect x="26.9" y="17.6" class="st23" width="4.1" height="22.7"/>
	</g>
</g>
</svg>
